<?xml version="1.0" standalone="no"?>
<!DOCTYPE svg PUBLIC "-//W3C//DTD SVG 1.1//EN" "http://www.w3.org/Graphics/SVG/1.1/DTD/svg11.dtd" >
<svg xmlns="http://www.w3.org/2000/svg" xmlns:xlink="http://www.w3.org/1999/xlink" version="1.1">
<metadata>
Created by FontForge 20170924 at Tue Dec 20 11:25:42 2016
 By www-data
Copyright (URW)++,Copyright 2016 by (URW)++ Design &#38; Development
</metadata>
<defs>
<font id="URWDIN-Bold" horiz-adv-x="540" >
  <font-face 
    font-family="URW DIN"
    font-weight="700"
    font-stretch="normal"
    units-per-em="1000"
    panose-1="0 0 8 0 0 0 0 0 0 0"
    ascent="714"
    descent="-286"
    x-height="518"
    cap-height="714"
    bbox="-103 -245 1343 1045"
    underline-thickness="99"
    underline-position="-138"
    stemh="124"
    stemv="153"
    unicode-range="U+0020-FB04"
  />
<missing-glyph horiz-adv-x="200" 
 />
    <glyph glyph-name="fi" unicode="fi" horiz-adv-x="635" 
d="M89 403h-58v115h58v44c0 118 45 155 182 152h64v-107h-33c-58 1 -67 -6 -67 -56v-33h105v-115h-105v-403h-146v403zM420 585v137h146v-137h-146zM420 0v518h146v-518h-146z" />
    <glyph glyph-name="fl" unicode="fl" horiz-adv-x="667" 
d="M89 403h-58v115h58v44c0 118 45 155 182 152h64v-107h-33c-58 1 -67 -6 -67 -56v-33h105v-115h-105v-403h-146v403zM418 714h146v-492c0 -81 20 -105 90 -104h15v-118h-21c-188 0 -230 43 -230 237v477z" />
    <glyph glyph-name="ff" unicode="ff" horiz-adv-x="668" 
d="M89 403h-58v115h58v44c0 118 44 155 181 152h56v-107h-25c-57 1 -66 -6 -66 -56v-33h71v-115h-71v-403h-146v403zM404 403h-58v115h58v44c0 118 45 155 182 152h64v-107h-33c-58 1 -67 -6 -67 -56v-33h105v-115h-105v-403h-146v403z" />
    <glyph glyph-name="ffi" unicode="ffi" horiz-adv-x="950" 
d="M89 403h-58v115h58v44c0 118 44 155 181 152h56v-107h-25c-57 1 -66 -6 -66 -56v-33h71v-115h-71v-403h-146v403zM404 403h-58v115h58v44c0 118 45 155 182 152h64v-107h-33c-58 1 -67 -6 -67 -56v-33h105v-115h-105v-403h-146v403zM736 585v137h146v-137h-146zM736 0
v518h146v-518h-146z" />
    <glyph glyph-name="ffl" unicode="ffl" horiz-adv-x="983" 
d="M89 403h-58v115h58v44c0 118 44 155 181 152h56v-107h-25c-57 1 -66 -6 -66 -56v-33h71v-115h-71v-403h-146v403zM404 403h-58v115h58v44c0 118 45 155 182 152h64v-107h-33c-58 1 -67 -6 -67 -56v-33h105v-115h-105v-403h-146v403zM733 714h146v-492
c-1 -81 20 -105 90 -104h15v-118h-21c-188 0 -230 43 -230 237v477z" />
    <glyph glyph-name=".notdef" horiz-adv-x="200" 
 />
    <glyph glyph-name="space" unicode=" " horiz-adv-x="200" 
 />
    <glyph glyph-name="exclam" unicode="!" horiz-adv-x="347" 
d="M114 209l-23 505h165l-22 -505h-120zM101 0v140h146v-140h-146z" />
    <glyph glyph-name="quotedbl" unicode="&#x22;" horiz-adv-x="464" 
d="M66 413l-11 301h152l-11 -301h-130zM268 413l-11 301h152l-11 -301h-130z" />
    <glyph glyph-name="numbersign" unicode="#" 
d="M103 295l12 91h-76l13 91h77l24 168h120l-24 -168h81l24 168h121l-25 -168h77l-13 -91h-77l-13 -91h77l-13 -91h-77l-23 -162h-120l22 162h-80l-23 -162h-121l23 162h-76l13 91h77zM223 295h81l13 91h-81z" />
    <glyph glyph-name="dollar" unicode="$" 
d="M-8 129l117 74c31 -52 79 -75 158 -75c73 0 110 24 110 73c0 25 -12 48 -30 59c-20 13 -20 13 -120 36c-145 35 -204 96 -204 211c0 113 57 178 175 198v109h150v-113c73 -14 126 -51 157 -108l-114 -72c-33 47 -71 66 -130 66c-58 0 -91 -25 -91 -68
c0 -50 31 -73 134 -98c89 -21 114 -30 149 -53c48 -30 71 -82 71 -155c0 -118 -55 -181 -176 -202v-147h-150v144c-101 13 -171 54 -206 121z" />
    <glyph glyph-name="percent" unicode="%" horiz-adv-x="967" 
d="M34 488v67c0 66 10 99 38 127c31 30 72 43 140 43c72 0 115 -15 145 -50c23 -27 32 -59 32 -120v-67c0 -66 -10 -99 -38 -127c-31 -31 -71 -43 -139 -43c-73 0 -116 15 -146 50c-24 27 -32 59 -32 120zM267 502v40c0 68 -16 94 -55 94c-41 0 -56 -26 -56 -94v-40
c0 -69 15 -95 56 -95c39 0 55 27 55 95zM579 159v67c0 66 10 99 38 127c31 31 71 43 140 43c72 0 115 -15 145 -50c23 -27 32 -59 32 -120v-67c0 -66 -10 -100 -38 -127c-31 -31 -72 -43 -139 -43c-73 0 -116 15 -146 50c-24 27 -32 59 -32 120zM812 172v40
c0 69 -15 95 -55 95s-56 -26 -56 -95v-40c0 -68 16 -94 56 -94s55 26 55 94zM303 0l227 714h135l-227 -714h-135z" />
    <glyph glyph-name="ampersand" unicode="&#x26;" horiz-adv-x="788" 
d="M564 0l-43 51c-66 -51 -160 -81 -251 -81c-73 0 -126 17 -162 51c-35 34 -56 87 -56 143c0 95 50 160 175 229c-61 75 -76 106 -76 155c0 107 84 177 212 177c136 0 224 -68 224 -174c0 -75 -44 -135 -146 -199l94 -114c23 31 40 67 53 112h142
c-27 -87 -61 -156 -107 -212l120 -138h-179zM351 455c69 34 92 57 92 93c0 38 -26 60 -73 60c-46 0 -75 -23 -75 -60c0 -22 10 -39 56 -93zM438 145l-120 143c-86 -46 -114 -75 -114 -122c0 -46 32 -72 90 -72c53 0 87 12 144 51z" />
    <glyph glyph-name="quoteright" unicode="&#x2019;" horiz-adv-x="230" 
d="M23 448l32 266h152l-60 -266h-124z" />
    <glyph glyph-name="parenleft" unicode="(" horiz-adv-x="454" 
d="M404 -64l-107 -67c-136 179 -181 298 -181 476c0 177 45 296 181 475l107 -67c-39 -66 -63 -112 -86 -163c-31 -69 -50 -163 -50 -245c0 -90 20 -181 56 -261c22 -47 44 -88 80 -148z" />
    <glyph glyph-name="parenright" unicode=")" horiz-adv-x="454" 
d="M49 753l107 67c136 -179 181 -298 181 -475c0 -178 -45 -297 -181 -476l-107 67c39 65 63 111 87 163c30 69 49 163 49 246c0 89 -20 181 -56 260c-23 48 -44 89 -80 148z" />
    <glyph glyph-name="asterisk" unicode="*" 
d="M270 460l-79 -131l-110 81l97 116l-142 29l34 124l139 -48l-8 144h139l-8 -144l139 48l34 -124l-142 -29l97 -116l-110 -81z" />
    <glyph glyph-name="plus" unicode="+" 
d="M45 295v115h162v168h126v-168h161v-115h-161v-166h-126v166h-162z" />
    <glyph glyph-name="comma" unicode="," horiz-adv-x="295" 
d="M34 -188l48 326h161l-77 -326h-132z" />
    <glyph glyph-name="hyphen" unicode="-" horiz-adv-x="463" 
d="M69 290v125h324v-125h-324z" />
    <glyph glyph-name="period" unicode="." horiz-adv-x="295" 
d="M71 0v140h154v-140h-154z" />
    <glyph glyph-name="slash" unicode="/" horiz-adv-x="400" 
d="M9 -20l240 754h143l-239 -754h-144z" />
    <glyph glyph-name="zero" unicode="0" 
d="M42 269v176c0 105 14 164 49 208c41 51 92 72 179 72c92 0 148 -25 188 -84c29 -43 40 -99 40 -196v-176c0 -106 -14 -163 -49 -208c-41 -51 -92 -72 -179 -72c-92 0 -148 25 -188 84c-28 43 -40 99 -40 196zM347 282v150c0 129 -18 169 -77 169c-58 0 -77 -41 -77 -169
v-150c0 -128 19 -169 77 -169c59 0 77 40 77 169z" />
    <glyph glyph-name="one" unicode="1" 
d="M207 0v555l-110 -45l-48 117l211 87h101v-714h-154z" />
    <glyph glyph-name="two" unicode="2" 
d="M31 0v99l200 240c26 31 68 92 81 118s19 53 19 79c0 43 -23 65 -67 65c-35 0 -54 -11 -68 -41c-10 -19 -14 -34 -16 -54l-141 10c7 140 83 209 230 209c139 0 214 -70 214 -198c0 -56 -14 -102 -48 -156c-26 -41 -26 -41 -109 -137l-94 -109h250v-125h-451z" />
    <glyph glyph-name="three" unicode="3" 
d="M170 317v118h52c64 0 98 29 98 85c0 52 -24 81 -69 81c-44 0 -71 -26 -78 -76l-136 10c8 128 80 190 222 190c139 0 213 -69 213 -198c0 -74 -20 -115 -72 -150c66 -43 89 -87 89 -173c0 -144 -75 -215 -228 -215c-96 0 -164 26 -203 78c-25 34 -35 64 -38 121l144 17
c7 -63 36 -92 91 -92c53 0 82 34 82 95c0 66 -41 109 -105 109h-62z" />
    <glyph glyph-name="four" unicode="4" 
d="M311 0v122h-281v92l218 500h162l-206 -470h107v160h137v-160h62v-122h-62v-122h-137z" />
    <glyph glyph-name="five" unicode="5" 
d="M65 325l31 389h372v-125h-245l-12 -135l9 1c29 7 37 8 59 8c71 0 132 -22 165 -60c33 -36 46 -86 46 -174c0 -89 -15 -141 -50 -178c-39 -41 -101 -62 -182 -62c-143 0 -216 64 -223 199l144 17c7 -62 33 -92 82 -92c53 0 77 33 77 107c0 90 -21 122 -80 122
c-35 0 -61 -13 -81 -40z" />
    <glyph glyph-name="six" unicode="6" 
d="M277 460h9l26 2c31 2 88 -17 117 -40c49 -37 66 -89 66 -195c0 -99 -15 -151 -55 -187c-39 -34 -93 -51 -169 -51c-84 0 -144 20 -181 62c-32 34 -44 83 -44 172c0 92 13 141 62 228l149 263h172zM272 343c-56 0 -74 -28 -74 -115s18 -115 73 -115c54 0 72 29 72 115
s-18 115 -71 115z" />
    <glyph glyph-name="seven" unicode="7" 
d="M97 0l212 589h-253v125h413v-91l-208 -623h-164z" />
    <glyph glyph-name="eight" unicode="8" 
d="M106 379c-32 35 -46 77 -46 142c0 142 64 204 211 204c146 0 210 -62 210 -205c0 -63 -14 -106 -47 -141c49 -36 68 -83 68 -168c0 -81 -16 -132 -52 -166c-41 -40 -93 -56 -180 -56c-163 0 -231 65 -231 222c0 85 19 132 67 168zM271 609c-51 0 -67 -22 -67 -90
c0 -70 16 -92 67 -92c50 0 66 23 66 92c0 67 -16 90 -66 90zM272 311c-61 0 -81 -24 -81 -99s20 -99 79 -99c60 0 80 24 80 98c0 75 -20 100 -78 100z" />
    <glyph glyph-name="nine" unicode="9" 
d="M266 278h-18c-55 0 -97 10 -131 32c-53 34 -72 85 -72 189c0 93 16 143 57 178c37 32 92 48 168 48c82 0 141 -19 178 -58c34 -35 46 -80 46 -164c0 -91 -7 -121 -48 -198l-163 -305h-172zM271 601c-54 0 -74 -28 -74 -102s21 -103 73 -103c51 0 72 30 72 103
c0 72 -21 102 -71 102z" />
    <glyph glyph-name="colon" unicode=":" horiz-adv-x="295" 
d="M71 0v140h154v-140h-154zM71 380v140h154v-140h-154z" />
    <glyph glyph-name="semicolon" unicode=";" horiz-adv-x="295" 
d="M34 -188l48 326h161l-77 -326h-132zM88 380v140h154v-140h-154z" />
    <glyph glyph-name="less" unicode="&#x3c;" 
d="M225 359l229 -104v-132l-391 189v94l391 189v-132z" />
    <glyph glyph-name="equal" unicode="=" 
d="M63 205v110h414v-110h-414zM63 390v110h414v-110h-414z" />
    <glyph glyph-name="greater" unicode="&#x3e;" 
d="M315 359l-229 104v132l391 -189v-94l-391 -189v132z" />
    <glyph glyph-name="question" unicode="?" horiz-adv-x="577" 
d="M223 205v39c-1 86 16 120 91 183c51 45 66 69 66 108c0 41 -28 67 -73 67c-52 0 -77 -29 -99 -112l-143 24c28 144 107 212 245 212c143 0 223 -72 223 -200c0 -51 -14 -89 -48 -128c-18 -20 -29 -31 -77 -70c-48 -38 -65 -66 -65 -102v-21h-120zM210 0v140h146v-140
h-146z" />
    <glyph glyph-name="at" unicode="@" horiz-adv-x="947" 
d="M604 498h87l-47 -219c-5 -27 -8 -46 -8 -58c0 -24 11 -36 33 -36c65 0 117 81 117 184c0 162 -114 265 -296 265c-199 0 -324 -139 -324 -361c0 -104 26 -179 79 -228c56 -52 149 -82 257 -82c85 0 155 14 236 47l34 -84c-90 -42 -172 -60 -278 -60
c-133 0 -249 34 -322 95c-79 64 -120 171 -120 307c0 280 171 460 437 460c121 0 237 -40 307 -105c63 -59 100 -151 100 -251c0 -165 -100 -282 -241 -282c-62 0 -94 21 -109 73c-46 -52 -85 -73 -136 -73c-82 0 -132 53 -132 142c0 71 25 143 68 198c40 52 92 79 150 79
c46 0 71 -14 95 -53zM505 415c-31 0 -54 -21 -77 -68c-17 -34 -27 -77 -27 -111c0 -31 11 -46 33 -46c28 0 55 21 79 60c21 36 36 83 36 116c0 30 -17 49 -44 49z" />
    <glyph glyph-name="A" unicode="A" horiz-adv-x="623" 
d="M438 134h-250l-42 -134h-166l258 714h149l259 -714h-167zM401 256l-87 278l-89 -278h176z" />
    <glyph glyph-name="B" unicode="B" horiz-adv-x="635" 
d="M80 0v714h282c87 0 131 -12 168 -44c38 -33 58 -86 58 -151c0 -68 -18 -113 -60 -146c29 -25 35 -31 44 -45c19 -30 29 -75 29 -128c0 -75 -22 -129 -66 -163c-37 -27 -79 -37 -160 -37h-295zM233 424h118c61 0 85 24 85 84c0 61 -24 84 -85 84h-118v-168zM233 122h131
c60 0 84 26 84 90c0 65 -24 90 -84 90h-131v-180z" />
    <glyph glyph-name="C" unicode="C" horiz-adv-x="620" 
d="M438 211l144 -17c-3 -65 -17 -102 -51 -138c-43 -45 -111 -67 -207 -67c-103 0 -168 26 -213 86c-34 46 -47 101 -47 203v156c0 110 15 168 57 215c47 52 107 74 203 74c162 0 240 -67 247 -212l-141 -10c-8 68 -40 98 -104 98c-82 0 -108 -43 -108 -177v-132
c0 -135 26 -177 109 -177c68 0 103 31 111 98z" />
    <glyph glyph-name="D" unicode="D" horiz-adv-x="669" 
d="M80 0v714h249c193 3 281 -86 276 -279v-156c5 -193 -82 -281 -276 -279h-249zM234 122h67c116 -1 148 34 150 169v132c-2 135 -34 170 -150 169h-67v-470z" />
    <glyph glyph-name="E" unicode="E" horiz-adv-x="582" 
d="M81 0v714h451v-125h-299v-166h253v-125h-253v-173h303v-125h-455z" />
    <glyph glyph-name="F" unicode="F" horiz-adv-x="547" 
d="M81 0v714h444v-125h-290v-171h242v-125h-242v-293h-154z" />
    <glyph glyph-name="G" unicode="G" horiz-adv-x="658" 
d="M344 283v117h260v-123c0 -105 -12 -156 -49 -203c-47 -59 -114 -85 -223 -85c-107 0 -174 26 -220 86c-35 46 -48 101 -48 203v155c0 111 16 169 59 216c47 52 109 74 207 74c166 0 247 -68 253 -212l-141 -10c-8 67 -42 98 -110 98c-86 0 -114 -43 -114 -177v-132
c0 -135 27 -177 116 -177c82 0 117 39 117 130v40h-107z" />
    <glyph glyph-name="H" unicode="H" horiz-adv-x="679" 
d="M80 0v714h154v-291h210v291h154v-714h-154v298h-210v-298h-154z" />
    <glyph glyph-name="I" unicode="I" horiz-adv-x="314" 
d="M80 0v714h154v-714h-154z" />
    <glyph glyph-name="J" unicode="J" horiz-adv-x="492" 
d="M262 714h154v-431c0 -122 -6 -165 -26 -204c-33 -60 -94 -90 -185 -90c-89 0 -152 26 -226 93l85 101c44 -48 83 -70 124 -70c35 0 57 18 67 56c5 22 7 46 7 112v433z" />
    <glyph glyph-name="K" unicode="K" horiz-adv-x="615" 
d="M82 0v714h152v-288l210 288h180l-236 -294l247 -420h-179l-168 316l-54 -71v-245h-152z" />
    <glyph glyph-name="L" unicode="L" horiz-adv-x="546" 
d="M80 0v714h154v-589h301v-125h-455z" />
    <glyph glyph-name="M" unicode="M" horiz-adv-x="816" 
d="M80 0v714h143l185 -384l185 384h143v-714h-147v427l-132 -271h-98l-132 271v-427h-147z" />
    <glyph glyph-name="N" unicode="N" horiz-adv-x="711" 
d="M80 0v714h149l253 -457v457h149v-714h-149l-253 457v-457h-149z" />
    <glyph glyph-name="O" unicode="O" horiz-adv-x="668" 
d="M64 273v168c0 107 16 165 60 211c48 52 109 73 210 73c108 0 175 -25 222 -85c35 -45 49 -100 49 -199v-168c0 -107 -16 -165 -60 -211c-48 -52 -109 -73 -211 -73c-107 0 -174 25 -221 85c-35 44 -49 101 -49 199zM451 286v142c0 130 -29 173 -116 173
c-88 0 -117 -43 -117 -173v-142c0 -130 29 -173 116 -173c88 0 117 43 117 173z" />
    <glyph glyph-name="P" unicode="P" horiz-adv-x="603" 
d="M234 249v-249h-154v714h244c104 0 159 -16 199 -57c38 -40 54 -91 54 -175c0 -90 -19 -145 -64 -184c-40 -35 -93 -49 -189 -49h-90zM231 372h94c72 0 99 30 99 110s-27 110 -99 110h-94v-220z" />
    <glyph glyph-name="Q" unicode="Q" horiz-adv-x="668" 
d="M570 -27l-68 53c-43 -26 -92 -37 -167 -37c-108 0 -175 25 -222 85c-35 44 -49 101 -49 199v168c0 107 16 165 60 211c48 52 109 73 210 73c108 0 175 -25 222 -85c35 -45 49 -100 49 -199v-168c0 -80 -6 -116 -27 -162l65 -51zM383 119l-92 73l73 87l83 -65
c3 21 4 36 4 72v142c0 130 -29 173 -116 173c-88 0 -117 -43 -117 -173v-142c0 -129 29 -173 116 -173c19 0 34 2 49 6z" />
    <glyph glyph-name="R" unicode="R" horiz-adv-x="641" 
d="M235 284v-284h-154v714h271c96 0 147 -14 185 -52c36 -36 52 -84 52 -158c0 -123 -37 -182 -129 -208l154 -296h-170l-134 284h-75zM232 402h107c71 0 98 26 98 95s-27 95 -100 95h-105v-190z" />
    <glyph glyph-name="S" unicode="S" horiz-adv-x="574" 
d="M11 114l117 74c32 -52 79 -75 156 -75c75 0 112 29 112 85c0 28 -11 51 -30 63c-20 13 -20 13 -119 38c-148 37 -204 96 -204 215c0 136 87 211 243 211c115 0 192 -38 238 -116l-114 -73c-32 46 -71 66 -128 66c-58 0 -92 -29 -92 -79c0 -55 30 -78 133 -104
c91 -23 114 -31 150 -54c47 -32 70 -83 70 -160c0 -73 -19 -124 -59 -159c-44 -38 -113 -58 -201 -58c-79 0 -151 18 -200 48c-31 20 -50 41 -72 78z" />
    <glyph glyph-name="T" unicode="T" horiz-adv-x="556" 
d="M201 0v589h-190v125h533v-125h-189v-589h-154z" />
    <glyph glyph-name="U" unicode="U" horiz-adv-x="682" 
d="M77 714h154v-447c0 -58 4 -86 15 -108c17 -33 43 -46 95 -46c56 0 82 15 98 54c9 21 12 49 12 100v447h154v-447c0 -107 -10 -154 -44 -196c-47 -58 -111 -82 -220 -82c-115 0 -185 29 -229 95c-26 40 -35 85 -35 183v447z" />
    <glyph glyph-name="V" unicode="V" horiz-adv-x="614" 
d="M239 0l-240 714h154l154 -510l154 510h154l-241 -714h-135z" />
    <glyph glyph-name="W" unicode="W" horiz-adv-x="933" 
d="M200 0l-182 714h154l105 -509l130 509h119l130 -509l106 509h154l-183 -714h-138l-128 471l-128 -471h-139z" />
    <glyph glyph-name="X" unicode="X" horiz-adv-x="593" 
d="M208 379l-199 335h168l133 -224l119 224h161l-201 -355l213 -359h-168l-147 248l-132 -248h-161z" />
    <glyph glyph-name="Y" unicode="Y" horiz-adv-x="548" 
d="M199 0v257l-220 457h163l134 -305l134 305h163l-220 -457v-257h-154z" />
    <glyph glyph-name="Z" unicode="Z" horiz-adv-x="572" 
d="M53 0v101l285 488h-271v125h445v-101l-286 -488h300v-125h-473z" />
    <glyph glyph-name="bracketleft" unicode="[" horiz-adv-x="454" 
d="M143 -98v885h243v-105h-95v-675h95v-105h-243z" />
    <glyph glyph-name="backslash" unicode="\" horiz-adv-x="400" 
d="M391 -20h-143l-240 754h144z" />
    <glyph glyph-name="bracketright" unicode="]" horiz-adv-x="454" 
d="M311 787v-885h-243v105h95v675h-95v105h243z" />
    <glyph glyph-name="asciicircum" unicode="^" 
d="M270 545l-89 -173h-173l219 346h86l219 -346h-173z" />
    <glyph glyph-name="underscore" unicode="_" horiz-adv-x="470" 
d="M-25 -188v99h520v-99h-520z" />
    <glyph glyph-name="quoteleft" unicode="&#x2018;" horiz-adv-x="230" 
d="M207 714l-32 -266h-152l60 266h124z" />
    <glyph glyph-name="a" unicode="a" horiz-adv-x="536" 
d="M326 317v17c0 55 -24 80 -76 80c-39 0 -70 -16 -97 -50l-100 70c45 64 117 96 212 96c96 0 162 -33 189 -93c13 -29 18 -65 18 -130v-307h-114l-9 27c-32 -27 -70 -38 -137 -38c-127 0 -175 45 -175 164c0 125 47 164 194 164h95zM326 221h-77c-54 0 -75 -18 -75 -64
c0 -44 20 -59 76 -59c59 0 76 18 76 81v42z" />
    <glyph glyph-name="b" unicode="b" horiz-adv-x="568" 
d="M68 0v714h146v-214c39 22 66 30 108 30c137 0 194 -69 194 -233v-75c0 -165 -57 -233 -195 -233c-63 0 -92 9 -132 43l-9 -32h-112zM371 233v53c0 89 -24 128 -78 128s-79 -31 -79 -99v-111c0 -68 24 -99 79 -99c54 0 78 38 78 128z" />
    <glyph glyph-name="c" unicode="c" horiz-adv-x="481" 
d="M368 156l108 -60c-43 -73 -108 -107 -205 -107c-84 0 -147 29 -183 85c-25 39 -36 93 -36 171v26c0 89 14 145 45 186c37 48 94 73 169 73c97 0 162 -34 201 -107l-107 -61c-24 38 -46 52 -83 52c-54 0 -79 -41 -79 -129v-55c0 -84 27 -125 84 -125c38 0 63 14 86 51z
" />
    <glyph glyph-name="d" unicode="d" horiz-adv-x="568" 
d="M388 0l-9 32c-4 -3 -7 -6 -8 -6c-31 -27 -66 -37 -124 -37c-138 0 -195 68 -195 233v75c0 163 58 233 192 233c33 0 57 -4 83 -15c4 -2 4 -2 18 -10c4 -2 4 -2 9 -5v214h146v-714h-112zM197 286v-53c0 -90 23 -128 79 -128c54 0 78 31 78 99v111c0 68 -25 99 -79 99
s-78 -39 -78 -128z" />
    <glyph glyph-name="e" unicode="e" horiz-adv-x="551" 
d="M198 222v-13c0 -71 33 -108 96 -108c48 0 77 15 102 55l107 -61c-44 -76 -108 -106 -225 -106c-162 0 -226 71 -226 250v33c0 92 12 145 43 185c36 49 96 73 184 73c162 0 227 -74 227 -258v-50h-308zM197 321h172v12c0 58 -31 91 -87 91c-53 0 -85 -34 -85 -91v-12z" />
    <glyph glyph-name="f" unicode="f" horiz-adv-x="352" 
d="M89 403h-58v115h58v44c0 118 45 155 182 152h64v-107h-33c-58 1 -67 -6 -67 -56v-33h105v-115h-105v-403h-146v403z" />
    <glyph glyph-name="g" unicode="g" horiz-adv-x="568" 
d="M354 3v14c-31 -20 -63 -28 -110 -28c-135 0 -192 69 -192 233v75c0 164 57 233 194 233c57 0 96 -13 128 -41l14 29h112v-498c0 -87 -15 -143 -49 -184c-39 -47 -105 -72 -188 -72c-100 0 -164 34 -202 107l108 60c24 -41 47 -55 89 -55c66 0 94 37 96 127zM197 286v-53
c0 -90 23 -128 79 -128c53 0 78 31 78 99v111c0 68 -25 99 -79 99s-78 -39 -78 -128z" />
    <glyph glyph-name="h" unicode="h" horiz-adv-x="573" 
d="M67 0v714h146v-215c43 25 66 31 114 31c83 0 143 -36 167 -100c11 -29 15 -67 15 -134v-296h-146v286c0 84 -22 120 -74 120c-53 0 -76 -38 -76 -127v-279h-146z" />
    <glyph glyph-name="i" unicode="i" horiz-adv-x="283" 
d="M68 585v137h146v-137h-146zM68 0v518h146v-518h-146z" />
    <glyph glyph-name="j" unicode="j" horiz-adv-x="289" 
d="M74 518h146v-494c3 -207 -47 -256 -261 -254v118c88 -3 116 27 115 122v508zM74 585v137h146v-137h-146z" />
    <glyph glyph-name="k" unicode="k" horiz-adv-x="538" 
d="M68 0v714h146v-414l164 218h165l-179 -220l185 -298h-159l-113 193l-63 -79v-114h-146z" />
    <glyph glyph-name="l" unicode="l" horiz-adv-x="315" 
d="M66 714h146v-492c0 -81 20 -105 90 -104h15v-118h-21c-188 0 -230 43 -230 237v477z" />
    <glyph glyph-name="m" unicode="m" horiz-adv-x="832" 
d="M67 0v518h110l10 -36c26 30 71 48 123 48c59 0 108 -21 138 -59c29 40 72 59 137 59c88 0 144 -33 168 -100c11 -28 15 -69 15 -134v-296h-146v281c0 90 -18 125 -65 125s-66 -38 -66 -133v-273h-146v278c0 94 -17 128 -65 128c-49 0 -67 -37 -67 -135v-271h-146z" />
    <glyph glyph-name="n" unicode="n" horiz-adv-x="573" 
d="M67 0v518h109l12 -39c35 37 72 51 136 51c86 0 145 -35 170 -100c11 -29 15 -67 15 -134v-296h-146v279c0 92 -20 127 -73 127c-57 0 -77 -36 -77 -137v-269h-146z" />
    <glyph glyph-name="o" unicode="o" horiz-adv-x="560" 
d="M52 220v78c0 164 67 232 229 232c161 0 228 -68 228 -232v-78c0 -164 -66 -231 -229 -231c-162 0 -228 67 -228 231zM363 231v56c0 92 -23 127 -82 127c-60 0 -83 -35 -83 -127v-56c0 -91 23 -126 83 -126c59 0 82 35 82 126z" />
    <glyph glyph-name="p" unicode="p" horiz-adv-x="568" 
d="M68 -225v743h112l15 -28c37 28 74 40 126 40c138 0 195 -69 195 -233v-75c0 -165 -57 -233 -195 -233c-40 0 -68 7 -107 28v-242h-146zM371 233v53c0 89 -24 128 -78 128s-79 -31 -79 -99v-111c0 -68 24 -99 79 -99c54 0 78 38 78 128z" />
    <glyph glyph-name="q" unicode="q" horiz-adv-x="568" 
d="M354 -225v242c-38 -20 -68 -28 -108 -28c-137 0 -194 68 -194 233v75c0 164 57 233 195 233c52 0 89 -12 126 -40l15 28h112v-743h-146zM197 286v-53c0 -90 23 -128 79 -128c53 0 78 31 78 99v111c0 68 -25 99 -79 99s-78 -39 -78 -128z" />
    <glyph glyph-name="r" unicode="r" horiz-adv-x="399" 
d="M67 0v518h111l19 -33c36 35 59 45 99 45c38 0 70 -9 116 -35l-63 -119c-26 21 -46 29 -68 29c-48 0 -68 -46 -68 -156v-249h-146z" />
    <glyph glyph-name="s" unicode="s" horiz-adv-x="497" 
d="M18 95l107 61c27 -42 50 -54 106 -54c63 0 92 18 92 56c0 28 -16 40 -60 44c-92 10 -114 14 -148 30c-47 22 -71 65 -71 128c0 109 70 170 194 170c102 0 168 -34 211 -107l-108 -61c-24 41 -47 54 -93 54c-43 0 -67 -18 -67 -50c0 -30 17 -40 79 -46
c156 -15 200 -51 200 -164c0 -115 -70 -167 -223 -167c-113 0 -184 35 -219 106z" />
    <glyph glyph-name="t" unicode="t" horiz-adv-x="352" 
d="M79 403h-56v115h56l9 146h137v-146h103v-115h-103v-181c0 -81 21 -106 90 -104h12v-118h-17c-193 0 -232 40 -231 237v166z" />
    <glyph glyph-name="u" unicode="u" horiz-adv-x="562" 
d="M64 518h146v-279c0 -92 19 -126 69 -126c51 0 70 37 70 136v269h146v-518h-98l-19 43c-28 -39 -65 -54 -131 -54c-87 0 -144 34 -168 100c-10 27 -15 69 -15 133v296z" />
    <glyph glyph-name="v" unicode="v" horiz-adv-x="512" 
d="M186 0l-175 518h148l97 -344l98 344h147l-174 -518h-141z" />
    <glyph glyph-name="w" unicode="w" horiz-adv-x="781" 
d="M174 0l-152 518h148l74 -343l95 343h104l95 -343l74 343h148l-152 -518h-125l-92 300l-91 -300h-126z" />
    <glyph glyph-name="x" unicode="x" horiz-adv-x="498" 
d="M170 265l-159 253h164l88 -141l83 141h157l-169 -254l165 -264h-164l-93 150l-86 -150h-158z" />
    <glyph glyph-name="y" unicode="y" horiz-adv-x="513" 
d="M181 13l-171 505h147l100 -349l96 349h148l-180 -546c-63 -180 -92 -201 -276 -202v118c85 -1 97 8 126 95z" />
    <glyph glyph-name="z" unicode="z" horiz-adv-x="485" 
d="M32 0v91l212 310h-194v117h374v-92l-212 -309h227v-117h-407z" />
    <glyph glyph-name="braceleft" unicode="{" horiz-adv-x="454" 
d="M291 565v-59c2 -101 -6 -122 -57 -150c50 -26 59 -50 57 -150v-82c0 -105 11 -124 75 -125h25v-97h-59c-158 -1 -194 38 -189 208v107c2 82 -6 94 -64 96h-9v86h9c58 2 66 15 64 97v83c-5 170 31 209 189 208h59v-97h-25c-64 -1 -75 -20 -75 -125z" />
    <glyph glyph-name="bar" unicode="|" 
d="M207 -98v885h126v-885h-126z" />
    <glyph glyph-name="braceright" unicode="}" horiz-adv-x="454" 
d="M162 124v82c-2 99 7 125 57 150c-51 28 -59 49 -57 150v59c0 105 -11 124 -75 125h-25v97h59c158 1 194 -38 189 -208v-83c-2 -83 6 -95 64 -97h9v-86h-9c-58 -2 -66 -14 -64 -96v-107c5 -170 -31 -209 -189 -208h-59v97h25c64 1 75 20 75 125z" />
    <glyph glyph-name="asciitilde" unicode="~" 
d="M123 267l-85 19c26 109 69 153 149 153c36 0 55 -6 95 -30c43 -26 58 -32 75 -32c24 0 43 18 62 58l82 -25c-31 -96 -79 -141 -151 -141c-37 0 -55 7 -114 43c-21 13 -38 19 -54 19c-26 0 -44 -20 -59 -64z" />
    <glyph glyph-name="exclamdown" unicode="&#xa1;" horiz-adv-x="347" 
d="M234 309l22 -505h-165l23 505h120zM246 518v-140h-146v140h146z" />
    <glyph glyph-name="cent" unicode="&#xa2;" 
d="M219 8v124c-100 22 -150 105 -147 246v27c-3 144 45 226 147 250v115h150v-118c54 -17 89 -46 115 -95l-104 -58c-25 38 -47 52 -85 52c-55 0 -82 -43 -82 -132v-55c0 -85 29 -129 86 -129c39 0 66 16 89 52l105 -59c-27 -48 -69 -79 -124 -94v-126h-150z" />
    <glyph glyph-name="sterling" unicode="&#xa3;" 
d="M48 0v108c74 17 114 61 114 126c0 15 -2 26 -7 44h-108v125h49c-21 49 -28 76 -28 118c0 132 74 204 211 204c82 0 141 -22 181 -67c22 -24 34 -46 53 -96l-122 -50c-16 33 -21 42 -31 56c-19 24 -43 36 -73 36c-41 0 -66 -25 -66 -67c0 -43 9 -72 42 -134h168v-125h-130
c4 -17 5 -24 5 -36c0 -51 -15 -84 -55 -117h281v-125h-484z" />
    <glyph glyph-name="fraction" unicode="&#x2044;" horiz-adv-x="190" 
d="M-69 0l227 714h135l-227 -714h-135z" />
    <glyph glyph-name="yen" unicode="&#xa5;" 
d="M195 0v134h-140v81h140v43h-140v81h102l-180 375h163l132 -302l132 302h163l-180 -375h102v-81h-140v-43h140v-81h-140v-134h-154z" />
    <glyph glyph-name="section" unicode="&#xa7;" 
d="M25 -16l102 67c36 -38 74 -55 124 -55s82 19 82 50c0 15 -9 31 -23 40c-16 10 -16 10 -95 33c-128 38 -174 81 -174 166c0 61 21 101 73 140c-35 27 -50 61 -50 115c0 115 78 185 205 185c97 0 161 -30 210 -99l-102 -67c-28 33 -57 47 -97 47c-41 0 -68 -19 -68 -50
c0 -16 9 -32 23 -41c15 -10 15 -10 94 -34c71 -22 107 -40 134 -66c25 -26 40 -66 40 -108c0 -57 -20 -95 -71 -135c35 -27 49 -58 49 -108c0 -117 -83 -187 -219 -187c-109 0 -183 34 -237 107zM210 381l-3 -2c-2 -3 -5 -5 -8 -8c-13 -12 -19 -28 -19 -50
c0 -45 22 -63 120 -95l36 -11c1 2 3 4 3 4l7 7c12 11 17 24 17 42c0 22 -9 45 -22 57c-16 15 -40 26 -96 45z" />
    <glyph glyph-name="currency" unicode="&#xa4;" 
d="M66 55l-73 67l86 90c-25 42 -35 76 -35 120c0 45 10 78 35 121l-86 90l73 67l82 -87c41 26 71 34 123 34c51 0 80 -8 120 -34l82 87l74 -67l-87 -90c26 -43 35 -75 35 -121c0 -45 -9 -77 -35 -120l87 -90l-74 -67l-82 86c-39 -25 -70 -33 -121 -33c-52 0 -82 8 -122 33z
M272 454c-68 0 -107 -45 -107 -122c0 -75 40 -121 105 -121s105 46 105 122c0 74 -40 121 -103 121z" />
    <glyph glyph-name="quotesingle" unicode="'" horiz-adv-x="262" 
d="M66 413l-11 301h152l-11 -301h-130z" />
    <glyph glyph-name="quotedblleft" unicode="&#x201c;" horiz-adv-x="449" 
d="M426 714l-32 -266h-152l60 266h124zM207 714l-32 -266h-152l60 266h124z" />
    <glyph glyph-name="guillemotleft" unicode="&#xab;" horiz-adv-x="510" 
d="M405 295l83 -127l-90 -61l-149 188l149 188l90 -62zM176 295l83 -127l-91 -61l-148 188l148 188l91 -62z" />
    <glyph glyph-name="guilsinglleft" unicode="&#x2039;" horiz-adv-x="280" 
d="M176 295l83 -127l-91 -61l-148 188l148 188l91 -62z" />
    <glyph glyph-name="guilsinglright" unicode="&#x203a;" horiz-adv-x="280" 
d="M105 295l-83 126l90 62l149 -188l-149 -188l-90 61z" />
    <glyph glyph-name="endash" unicode="&#x2013;" 
d="M58 290v125h424v-125h-424z" />
    <glyph glyph-name="dagger" unicode="&#x2020;" 
d="M195 386h-152v124h152v204h149v-204h153v-124h-153v-536h-149v536z" />
    <glyph glyph-name="daggerdbl" unicode="&#x2021;" 
d="M195 386h-152v124h152v204h149v-204h153v-124h-153v-107h139v-124h-139v-305h-149v305h-138v124h138v107z" />
    <glyph glyph-name="periodcentered" unicode="&#xb7;" horiz-adv-x="295" 
d="M71 283v140h154v-140h-154z" />
    <glyph glyph-name="paragraph" unicode="&#xb6;" horiz-adv-x="674" 
d="M209 -136v456h-20c-59 0 -81 4 -113 23c-57 33 -91 98 -91 175c0 81 38 149 99 177c36 17 49 19 165 19h325v-850h-136v732h-93v-732h-136z" />
    <glyph glyph-name="bullet" unicode="&#x2022;" 
d="M270 539c109 0 193 -81 193 -188c0 -105 -84 -187 -192 -187c-111 0 -194 81 -194 190c0 103 85 185 193 185z" />
    <glyph glyph-name="quotesinglbase" unicode="&#x201a;" horiz-adv-x="230" 
d="M23 -127l32 266h152l-60 -266h-124z" />
    <glyph glyph-name="quotedblbase" unicode="&#x201e;" horiz-adv-x="449" 
d="M23 -127l32 266h152l-60 -266h-124zM242 -127l32 266h152l-60 -266h-124z" />
    <glyph glyph-name="quotedblright" unicode="&#x201d;" horiz-adv-x="449" 
d="M23 448l32 266h152l-60 -266h-124zM242 448l32 266h152l-60 -266h-124z" />
    <glyph glyph-name="guillemotright" unicode="&#xbb;" horiz-adv-x="510" 
d="M105 295l-83 126l90 62l149 -188l-149 -188l-90 61zM334 295l-83 126l91 62l148 -188l-148 -188l-91 61z" />
    <glyph glyph-name="ellipsis" unicode="&#x2026;" horiz-adv-x="886" 
d="M71 0v140h154v-140h-154zM366 0v140h154v-140h-154zM662 0v140h154v-140h-154z" />
    <glyph glyph-name="perthousand" unicode="&#x2030;" horiz-adv-x="1376" 
d="M34 488v67c0 66 10 99 38 127c31 30 72 43 140 43c72 0 115 -15 145 -50c23 -27 32 -59 32 -120v-67c0 -66 -10 -99 -38 -127c-31 -31 -71 -43 -139 -43c-73 0 -116 15 -146 50c-24 27 -32 59 -32 120zM267 502v40c0 68 -16 94 -55 94c-41 0 -56 -26 -56 -94v-40
c0 -69 15 -95 56 -95c39 0 55 27 55 95zM579 159v67c0 66 10 99 38 127c31 31 71 43 140 43c72 0 115 -15 145 -50c23 -27 32 -59 32 -120v-67c0 -66 -10 -100 -38 -127c-31 -31 -72 -43 -139 -43c-73 0 -116 15 -146 50c-24 27 -32 59 -32 120zM812 172v40
c0 69 -15 95 -55 95s-56 -26 -56 -95v-40c0 -68 16 -94 56 -94s55 26 55 94zM988 159v67c0 67 10 99 38 127c31 31 72 43 140 43c72 0 115 -15 145 -50c23 -27 32 -59 32 -120v-67c0 -66 -10 -100 -38 -127c-31 -31 -72 -43 -139 -43c-73 0 -116 15 -146 50
c-24 27 -32 58 -32 120zM1221 172v40c0 68 -16 95 -55 95c-40 0 -56 -27 -56 -95v-40c0 -67 16 -94 56 -94c39 0 55 27 55 94zM303 0l227 714h135l-227 -714h-135z" />
    <glyph glyph-name="questiondown" unicode="&#xbf;" horiz-adv-x="577" 
d="M365 313v-39c1 -87 -15 -120 -91 -184c-52 -45 -67 -69 -67 -107c0 -42 28 -68 73 -68c52 0 78 29 100 112l143 -23c-28 -145 -107 -213 -245 -213c-143 0 -223 72 -223 201c0 51 14 88 48 127c18 21 29 32 77 71c48 38 65 66 65 102v21h120zM377 518v-140h-146v140h146z
" />
    <glyph glyph-name="grave" unicode="`" horiz-adv-x="500" 
d="M328 579h-109l-137 158h162z" />
    <glyph glyph-name="acute" unicode="&#xb4;" horiz-adv-x="500" 
d="M173 579l84 158h162l-137 -158h-109z" />
    <glyph glyph-name="circumflex" unicode="&#x2c6;" horiz-adv-x="500" 
d="M250 656l-55 -76h-136l137 156h107l137 -156h-136z" />
    <glyph glyph-name="tilde" unicode="&#x2dc;" horiz-adv-x="500" 
d="M151 581h-87c11 57 15 72 26 93c21 42 53 63 98 63c30 0 56 -10 80 -30c33 -28 36 -30 48 -30c18 0 27 15 32 53h88c-7 -48 -12 -72 -20 -92c-18 -42 -52 -64 -99 -64c-33 0 -59 10 -85 34c-26 23 -31 26 -43 26c-18 0 -33 -21 -38 -53z" />
    <glyph glyph-name="macron" unicode="&#xaf;" horiz-adv-x="500" 
d="M88 599v103h324v-103h-324z" />
    <glyph glyph-name="breve" unicode="&#x2d8;" horiz-adv-x="500" 
d="M73 735h90c8 -49 28 -63 87 -63s79 14 87 63h89c-2 -60 -6 -79 -21 -103c-27 -44 -74 -64 -155 -64c-87 0 -137 23 -162 75c-10 20 -13 39 -15 92z" />
    <glyph glyph-name="dotaccent" unicode="&#x2d9;" horiz-adv-x="500" 
d="M179 581v134h141v-134h-141z" />
    <glyph glyph-name="dieresis" unicode="&#xa8;" horiz-adv-x="500" 
d="M86 581v134h129v-134h-129zM284 581v134h129v-134h-129z" />
    <glyph glyph-name="ring" unicode="&#x2da;" horiz-adv-x="500" 
d="M251 804c79 0 131 -46 131 -116c0 -71 -54 -119 -132 -119c-79 0 -133 48 -133 119s52 116 134 116zM250 738c-30 0 -45 -17 -45 -51s15 -52 44 -52c30 0 45 17 45 51s-15 52 -44 52z" />
    <glyph glyph-name="cedilla" unicode="&#xb8;" horiz-adv-x="500" 
d="M161 -243l49 182h138l-89 -182h-98z" />
    <glyph glyph-name="hungarumlaut" unicode="&#x2dd;" horiz-adv-x="500" 
d="M98 579l66 158h153l-118 -158h-101zM276 579l66 158h153l-119 -158h-100z" />
    <glyph glyph-name="ogonek" unicode="&#x2db;" horiz-adv-x="500" 
d="M279 0h107c-62 -47 -86 -76 -86 -106c0 -24 14 -36 43 -36c18 0 39 4 62 12l16 -70c-36 -15 -65 -21 -107 -21c-92 0 -142 33 -142 93c0 49 31 87 107 128z" />
    <glyph glyph-name="caron" unicode="&#x2c7;" horiz-adv-x="500" 
d="M250 657l54 76h136l-137 -156h-106l-138 156h136z" />
    <glyph glyph-name="emdash" unicode="&#x2014;" 
d="M-7 290v125h554v-125h-554z" />
    <glyph glyph-name="AE" unicode="&#xc6;" horiz-adv-x="963" 
d="M463 151h-262l-89 -151h-178l455 714h524v-125h-299v-166h253v-125h-253v-173h303v-125h-454v151zM463 274v315h-6l-186 -315h192z" />
    <glyph glyph-name="ordfeminine" unicode="&#xaa;" horiz-adv-x="362" 
d="M210 579v22c0 29 -14 43 -44 43c-24 0 -40 -8 -66 -31l-62 49c37 44 75 59 141 59s109 -19 128 -56c8 -17 12 -41 12 -80v-211h-87l-3 18c-22 -18 -44 -24 -87 -24c-85 0 -119 29 -119 104c0 82 35 107 151 107h36zM216 516h-39c-39 0 -53 -10 -53 -38
c0 -26 13 -37 46 -37c31 0 46 10 46 33v42z" />
    <glyph glyph-name="Lslash" unicode="&#x141;" horiz-adv-x="546" 
d="M80 0v179l-67 -39v133l67 39v402h154v-316l176 103v-133l-176 -103v-140h301v-125h-455z" />
    <glyph glyph-name="Oslash" unicode="&#xd8;" horiz-adv-x="668" 
d="M622 678l-46 -69c22 -48 29 -86 29 -168v-168c0 -107 -16 -165 -60 -211c-48 -52 -109 -73 -212 -73c-65 0 -119 10 -154 29l-34 -51l-98 68l47 70c-23 48 -30 86 -30 168v168c0 107 16 165 60 211c48 52 109 73 212 73c65 0 119 -10 154 -30l34 51zM451 423l-193 -288
c17 -15 42 -22 78 -22c86 0 115 44 115 173v137zM218 290l194 289c-18 15 -43 22 -78 22c-87 0 -116 -44 -116 -173v-138z" />
    <glyph glyph-name="OE" unicode="&#x152;" horiz-adv-x="954" 
d="M481 0v44c-42 -41 -84 -55 -169 -55c-95 0 -158 27 -202 86c-33 45 -46 100 -46 195v172c0 104 16 163 56 209c45 51 104 74 192 74c85 0 127 -13 169 -54v43h423v-125h-297v-166h251v-125h-251v-173h302v-125h-428zM218 430v-148c0 -126 30 -169 118 -169
c87 0 118 44 118 169v148c0 126 -31 171 -118 171c-88 0 -118 -43 -118 -171z" />
    <glyph glyph-name="ordmasculine" unicode="&#xba;" horiz-adv-x="367" 
d="M28 509v70c0 103 43 142 155 142s155 -40 155 -142v-70c0 -102 -43 -141 -155 -141s-155 39 -155 141zM230 515v58c0 46 -15 66 -47 66c-33 0 -47 -20 -47 -66v-58c0 -45 14 -65 47 -65c32 0 47 20 47 65z" />
    <glyph glyph-name="ae" unicode="&#xe6;" horiz-adv-x="829" 
d="M154 364l-100 70c43 63 113 96 207 96c66 0 113 -16 146 -49c38 36 80 49 158 49c156 0 220 -75 220 -258v-50h-308v-13c0 -71 33 -108 96 -108c48 0 77 16 102 55l107 -61c-43 -74 -109 -106 -218 -106c-80 0 -128 17 -166 58c-36 -41 -91 -58 -182 -58
c-130 0 -178 44 -178 165c0 125 46 163 194 163h95v17c0 55 -24 80 -77 80c-38 0 -68 -16 -96 -50zM327 221h-77c-54 0 -75 -18 -75 -64c0 -43 20 -59 75 -59c60 0 77 20 77 87v36zM476 321h172v12c0 58 -31 91 -87 91c-53 0 -85 -34 -85 -91v-12z" />
    <glyph glyph-name="dotlessi" unicode="&#x131;" horiz-adv-x="283" 
d="M68 0v518h146v-518h-146z" />
    <glyph glyph-name="lslash" unicode="&#x142;" horiz-adv-x="343" 
d="M80 365v349h146v-267l111 66v-137l-111 -65v-89c0 -81 20 -105 88 -104h15v-118h-21c-170 -1 -225 45 -227 187v43l-87 -51v136z" />
    <glyph glyph-name="oslash" unicode="&#xf8;" horiz-adv-x="560" 
d="M504 495l-31 -42c23 -33 35 -88 35 -155v-77c0 -165 -66 -232 -228 -232c-51 0 -96 8 -128 22l-29 -40l-68 53l31 42c-24 35 -35 87 -35 155v77c0 164 67 232 228 232c49 0 100 -9 128 -22l29 39zM363 301l-132 -182c13 -10 27 -14 49 -14c58 0 83 38 83 127v55v7v7z
M197 219l132 181c-14 10 -28 14 -49 14c-58 0 -83 -38 -83 -127v-55v-6v-7z" />
    <glyph glyph-name="oe" unicode="&#x153;" horiz-adv-x="863" 
d="M52 221v76c0 79 14 132 44 168c35 42 98 65 177 65c80 0 122 -14 163 -55c32 38 81 55 162 55c157 0 221 -74 221 -258v-50h-308v-13c0 -71 33 -108 96 -108c48 0 77 16 102 55l107 -60c-44 -75 -108 -107 -216 -107c-82 0 -123 14 -163 55c-17 -17 -26 -25 -36 -31
c-26 -15 -75 -24 -127 -24c-155 0 -222 70 -222 232zM364 232v54c0 90 -25 128 -83 128s-83 -38 -83 -128v-54c0 -89 25 -127 83 -127s83 38 83 127zM510 321h172v12c0 58 -31 91 -86 91c-54 0 -86 -34 -86 -91v-12z" />
    <glyph glyph-name="germandbls" unicode="&#xdf;" horiz-adv-x="574" 
d="M67 0v512c0 147 65 211 214 211c133 0 208 -58 208 -163c0 -48 -10 -76 -44 -122c57 -33 83 -90 82 -182v-29c0 -169 -54 -227 -214 -227h-42v115h24c73 0 86 16 87 103v46c-1 83 -17 101 -86 100h-15v103h17c41 0 58 22 58 75c0 47 -22 69 -69 69c-56 0 -74 -24 -74 -97
v-514h-146z" />
    <glyph glyph-name="onesuperior" unicode="&#xb9;" horiz-adv-x="284" 
d="M99 386v321l-70 -25l-30 81l139 51h78v-428h-117z" />
    <glyph glyph-name="logicalnot" unicode="&#xac;" 
d="M48 295v115h418v-309h-140v194h-278z" />
    <glyph glyph-name="mu" unicode="&#xb5;" 
d="M56 518h141v-280c0 -91 20 -128 71 -128c55 0 75 36 75 140v268h141v-518h-94l-19 48c-23 -42 -57 -59 -116 -59c-22 0 -34 3 -58 12v-226h-141v743z" />
    <glyph glyph-name="trademark" unicode="&#x2122;" horiz-adv-x="887" 
d="M122 286v339h-123v89h361v-89h-121v-339h-117zM399 286v428h109l112 -210l112 210h109v-428h-113v220l-70 -130h-76l-70 130v-220h-113z" />
    <glyph glyph-name="Eth" unicode="&#xd0;" horiz-adv-x="669" 
d="M80 421v293h250c192 3 280 -86 275 -279v-156c5 -193 -82 -281 -275 -279h-250v299h-71v122h71zM234 421h112v-122h-112v-177h67c116 -1 148 34 150 168v133c-2 135 -34 170 -150 169h-67v-171z" />
    <glyph glyph-name="onehalf" unicode="&#xbd;" horiz-adv-x="914" 
d="M130 286v321l-70 -25l-30 81l139 51h78v-428h-117zM543 0v71l124 140c36 39 58 80 58 104c0 19 -14 32 -35 32c-26 0 -42 -19 -47 -55l-108 8c4 50 13 75 33 96c27 27 69 40 126 40c99 0 148 -42 148 -125c0 -36 -8 -63 -30 -96c-14 -22 -14 -22 -65 -78l-44 -48h137v-89
h-297zM224 0l227 714h135l-227 -714h-135z" />
    <glyph glyph-name="plusminus" unicode="&#xb1;" 
d="M45 320v115h162v157h126v-157h161v-115h-161v-155h-126v155h-162zM45 0v115h449v-115h-449z" />
    <glyph glyph-name="Thorn" unicode="&#xde;" horiz-adv-x="603" 
d="M234 141v-141h-154v714h154v-108h90c104 0 159 -16 199 -58c38 -40 54 -91 54 -174c0 -90 -19 -145 -64 -184c-40 -35 -93 -49 -189 -49h-90zM233 264h92c72 0 99 30 99 110c0 79 -27 109 -99 109h-91z" />
    <glyph glyph-name="onequarter" unicode="&#xbc;" horiz-adv-x="914" 
d="M131 286v321l-70 -25l-30 81l139 51h78v-428h-117zM698 0v65h-186v66l143 297h122l-134 -276h55v71h102v-71h40v-87h-40v-65h-102zM228 0l226 714h136l-227 -714h-135z" />
    <glyph glyph-name="divide" unicode="&#xf7;" 
d="M45 295v115h449v-115h-449zM204 120v117h131v-117h-131zM204 470v117h131v-117h-131z" />
    <glyph glyph-name="brokenbar" unicode="&#xa6;" horiz-adv-x="500" 
d="M180 427v287h140v-287h-140zM180 0v273h140v-273h-140z" />
    <glyph glyph-name="degree" unicode="&#xb0;" horiz-adv-x="442" 
d="M224 745c118 0 188 -67 188 -179c0 -113 -70 -179 -190 -179c-56 0 -106 15 -136 41c-34 30 -55 82 -55 137c0 115 70 180 193 180zM223 645c-53 0 -77 -25 -77 -79s24 -79 76 -79c51 0 75 25 75 79c0 53 -24 79 -74 79z" />
    <glyph glyph-name="thorn" unicode="&#xfe;" horiz-adv-x="568" 
d="M214 17v-242h-146v939h146v-211c31 19 62 27 105 27c140 0 197 -68 197 -233v-75c0 -165 -57 -233 -195 -233c-39 0 -73 9 -107 28zM371 233v53c0 89 -24 128 -78 128s-79 -31 -79 -99v-111c0 -68 24 -99 79 -99c54 0 78 38 78 128z" />
    <glyph glyph-name="threequarters" unicode="&#xbe;" horiz-adv-x="914" 
d="M112 473v75h42c32 0 53 18 53 45c0 23 -16 39 -39 39c-26 0 -40 -14 -46 -44l-104 8c3 46 12 70 33 89c26 24 67 36 123 36c100 0 150 -41 150 -122c0 -43 -11 -68 -38 -87c36 -25 50 -53 50 -100c0 -91 -50 -133 -160 -133c-114 0 -164 39 -169 129l110 13
c5 -38 21 -53 55 -53c30 0 47 16 47 46c0 38 -21 59 -59 59h-48zM732 0v65h-186v66l143 297h122l-134 -276h55v71h102v-71h40v-87h-40v-65h-102zM283 0l226 714h135l-226 -714h-135z" />
    <glyph glyph-name="twosuperior" unicode="&#xb2;" horiz-adv-x="360" 
d="M30 386v71l124 139c35 40 58 81 58 105c0 19 -15 32 -35 32c-26 0 -43 -19 -47 -55l-108 8c4 50 13 75 33 96c27 27 69 40 126 40c98 0 148 -42 148 -125c0 -36 -9 -63 -30 -96c-15 -23 -15 -23 -65 -78l-44 -48h137v-89h-297z" />
    <glyph glyph-name="registered" unicode="&#xae;" horiz-adv-x="743" 
d="M339 540v-102h-94v282h143c90 0 125 -25 125 -89c0 -45 -13 -65 -51 -81l67 -112h-101l-54 102h-35zM337 589h44c28 0 39 10 39 35c0 24 -12 34 -40 34h-43v-69zM376 885c176 0 311 -133 311 -306c0 -175 -135 -306 -315 -306s-315 131 -315 305c0 178 134 307 319 307z
M375 798c-69 0 -120 -19 -159 -60c-39 -40 -62 -99 -62 -159s23 -119 62 -159c38 -40 90 -60 156 -60s118 20 156 60c39 41 62 99 62 159s-23 119 -62 159c-37 39 -91 60 -153 60z" />
    <glyph glyph-name="minus" unicode="&#x2212;" 
d="M45 295v115h449v-115h-449z" />
    <glyph glyph-name="eth" unicode="&#xf0;" horiz-adv-x="560" 
d="M52 220v61c0 82 15 136 48 172c34 37 92 58 158 58c29 0 48 -3 66 -12c-14 30 -31 55 -47 68l-103 -59l-44 59l72 40l-5 2l-15 6c-15 6 -35 12 -54 15l19 95c66 -7 121 -23 170 -50l88 51l45 -59l-69 -39c82 -78 126 -197 128 -347v-61c0 -164 -66 -231 -229 -231
c-162 0 -228 67 -228 231zM363 231v39c0 90 -23 125 -82 125c-60 0 -83 -34 -83 -125v-39c0 -91 23 -126 83 -126c59 0 82 35 82 126z" />
    <glyph glyph-name="multiply" unicode="&#xd7;" 
d="M190 353l-133 134l80 80l133 -133l133 133l81 -80l-133 -134l133 -133l-81 -80l-133 133l-133 -133l-80 80z" />
    <glyph glyph-name="threesuperior" unicode="&#xb3;" horiz-adv-x="360" 
d="M110 573v75h42c32 0 53 18 53 45c0 23 -16 39 -39 39c-26 0 -40 -14 -46 -44l-104 8c3 46 12 70 33 89c26 24 67 36 123 36c100 0 150 -41 150 -122c0 -43 -11 -68 -38 -87c36 -25 50 -53 50 -100c0 -91 -50 -133 -160 -133c-114 0 -164 39 -169 129l110 13
c5 -38 21 -54 55 -54c30 0 47 16 47 46c0 39 -21 60 -59 60h-48z" />
    <glyph glyph-name="copyright" unicode="&#xa9;" horiz-adv-x="835" 
d="M481 297l104 -9c-4 -77 -51 -108 -164 -108c-66 0 -108 14 -136 46c-22 25 -30 54 -30 111v40c0 61 9 92 37 117c29 28 67 40 128 40c109 0 154 -32 159 -111l-103 -6c-4 26 -20 38 -53 38c-41 0 -55 -17 -55 -67v-62c0 -50 14 -67 56 -67c35 0 52 11 57 38zM423 735
c217 0 381 -163 381 -378c0 -218 -164 -378 -386 -378s-386 160 -386 377c0 106 40 203 110 271c75 73 166 108 281 108zM422 640c-163 0 -277 -116 -277 -284c0 -164 115 -282 274 -282s273 118 273 283c0 163 -115 283 -270 283z" />
    <glyph glyph-name="Aacute" unicode="&#xc1;" horiz-adv-x="623" 
d="M438 134h-250l-42 -134h-166l258 714h149l259 -714h-167zM401 256l-87 278l-89 -278h176zM249 775l84 158h162l-137 -158h-109z" />
    <glyph glyph-name="Acircumflex" unicode="&#xc2;" horiz-adv-x="623" 
d="M438 134h-250l-42 -134h-166l258 714h149l259 -714h-167zM401 256l-87 278l-89 -278h176zM312 852l-55 -76h-136l137 156h107l137 -156h-136z" />
    <glyph glyph-name="Adieresis" unicode="&#xc4;" horiz-adv-x="623" 
d="M438 134h-250l-42 -134h-166l258 714h149l259 -714h-167zM401 256l-87 278l-89 -278h176zM146 777v134h129v-134h-129zM349 777v134h129v-134h-129z" />
    <glyph glyph-name="Agrave" unicode="&#xc0;" horiz-adv-x="623" 
d="M438 134h-250l-42 -134h-166l258 714h149l259 -714h-167zM401 256l-87 278l-89 -278h176zM378 775h-109l-137 158h162z" />
    <glyph glyph-name="Aring" unicode="&#xc5;" horiz-adv-x="623" 
d="M438 134h-250l-42 -134h-166l258 714h149l259 -714h-167zM401 256l-87 278l-89 -278h176zM313 1000c79 0 131 -46 131 -116s-54 -119 -132 -119c-79 0 -133 49 -133 119c0 71 52 116 134 116zM312 934c-30 0 -45 -17 -45 -51s15 -52 44 -52c30 0 45 17 45 51
s-15 52 -44 52z" />
    <glyph glyph-name="Atilde" unicode="&#xc3;" horiz-adv-x="623" 
d="M438 134h-250l-42 -134h-166l258 714h149l259 -714h-167zM401 256l-87 278l-89 -278h176zM213 777h-87c10 55 15 71 26 93c21 42 53 63 98 63c30 0 55 -9 80 -30c33 -28 36 -30 48 -30c18 0 27 15 32 53h88c-7 -48 -12 -71 -20 -92c-18 -42 -52 -64 -99 -64
c-33 0 -59 10 -85 34c-26 23 -31 26 -43 26c-18 0 -34 -21 -38 -53z" />
    <glyph glyph-name="Ccedilla" unicode="&#xc7;" horiz-adv-x="620" 
d="M438 211l144 -17c-3 -65 -17 -102 -51 -138c-43 -45 -111 -67 -207 -67c-103 0 -168 26 -213 86c-34 46 -47 101 -47 203v156c0 110 15 168 57 215c47 52 107 74 203 74c162 0 240 -67 247 -212l-141 -10c-8 68 -40 98 -104 98c-82 0 -108 -43 -108 -177v-132
c0 -135 26 -177 109 -177c68 0 103 31 111 98zM207 -243l49 182h138l-89 -182h-98z" />
    <glyph glyph-name="Eacute" unicode="&#xc9;" horiz-adv-x="582" 
d="M81 0v714h451v-125h-299v-166h253v-125h-253v-173h303v-125h-455zM239 775l84 158h162l-137 -158h-109z" />
    <glyph glyph-name="Ecircumflex" unicode="&#xca;" horiz-adv-x="582" 
d="M81 0v714h451v-125h-299v-166h253v-125h-253v-173h303v-125h-455zM305 852l-55 -76h-136l137 156h107l137 -156h-136z" />
    <glyph glyph-name="Edieresis" unicode="&#xcb;" horiz-adv-x="582" 
d="M81 0v714h451v-125h-299v-166h253v-125h-253v-173h303v-125h-455zM147 777v134h129v-134h-129zM350 777v134h129v-134h-129z" />
    <glyph glyph-name="Egrave" unicode="&#xc8;" horiz-adv-x="582" 
d="M81 0v714h451v-125h-299v-166h253v-125h-253v-173h303v-125h-455zM391 775h-109l-137 158h162z" />
    <glyph glyph-name="Iacute" unicode="&#xcd;" horiz-adv-x="314" 
d="M78 0v714h154v-714h-154zM86 775l84 158h162l-137 -158h-109z" />
    <glyph glyph-name="Icircumflex" unicode="&#xce;" horiz-adv-x="314" 
d="M80 0v714h154v-714h-154zM157 852l-55 -76h-136l137 156h107l137 -156h-136z" />
    <glyph glyph-name="Idieresis" unicode="&#xcf;" horiz-adv-x="314" 
d="M80 0v714h154v-714h-154zM-9 777v134h129v-134h-129zM194 777v134h129v-134h-129z" />
    <glyph glyph-name="Igrave" unicode="&#xcc;" horiz-adv-x="314" 
d="M80 0v714h154v-714h-154zM227 775h-109l-137 158h162z" />
    <glyph glyph-name="Ntilde" unicode="&#xd1;" horiz-adv-x="711" 
d="M80 0v714h149l253 -457v457h149v-714h-149l-253 457v-457h-149zM258 777h-87c10 55 15 71 26 93c21 42 53 63 98 63c30 0 55 -9 80 -30c33 -28 36 -30 48 -30c18 0 27 15 32 53h88c-7 -48 -12 -71 -20 -92c-18 -42 -52 -64 -99 -64c-33 0 -59 10 -85 34
c-26 23 -31 26 -43 26c-18 0 -34 -21 -38 -53z" />
    <glyph glyph-name="Oacute" unicode="&#xd3;" horiz-adv-x="668" 
d="M64 273v168c0 107 16 165 60 211c48 52 109 73 210 73c108 0 175 -25 222 -85c35 -45 49 -100 49 -199v-168c0 -107 -16 -165 -60 -211c-48 -52 -109 -73 -211 -73c-107 0 -174 25 -221 85c-35 44 -49 101 -49 199zM451 286v142c0 130 -29 173 -116 173
c-88 0 -117 -43 -117 -173v-142c0 -130 29 -173 116 -173c88 0 117 43 117 173zM258 775l84 158h162l-137 -158h-109z" />
    <glyph glyph-name="Ocircumflex" unicode="&#xd4;" horiz-adv-x="668" 
d="M64 273v168c0 107 16 165 60 211c48 52 109 73 210 73c108 0 175 -25 222 -85c35 -45 49 -100 49 -199v-168c0 -107 -16 -165 -60 -211c-48 -52 -109 -73 -211 -73c-107 0 -174 25 -221 85c-35 44 -49 101 -49 199zM451 286v142c0 130 -29 173 -116 173
c-88 0 -117 -43 -117 -173v-142c0 -130 29 -173 116 -173c88 0 117 43 117 173zM335 852l-55 -76h-136l137 156h107l137 -156h-136z" />
    <glyph glyph-name="Odieresis" unicode="&#xd6;" horiz-adv-x="668" 
d="M64 273v168c0 107 16 165 60 211c48 52 109 73 210 73c108 0 175 -25 222 -85c35 -45 49 -100 49 -199v-168c0 -107 -16 -165 -60 -211c-48 -52 -109 -73 -211 -73c-107 0 -174 25 -221 85c-35 44 -49 101 -49 199zM451 286v142c0 130 -29 173 -116 173
c-88 0 -117 -43 -117 -173v-142c0 -130 29 -173 116 -173c88 0 117 43 117 173zM168 777v134h129v-134h-129zM371 777v134h129v-134h-129z" />
    <glyph glyph-name="Ograve" unicode="&#xd2;" horiz-adv-x="668" 
d="M64 273v168c0 107 16 165 60 211c48 52 109 73 210 73c108 0 175 -25 222 -85c35 -45 49 -100 49 -199v-168c0 -107 -16 -165 -60 -211c-48 -52 -109 -73 -211 -73c-107 0 -174 25 -221 85c-35 44 -49 101 -49 199zM451 286v142c0 130 -29 173 -116 173
c-88 0 -117 -43 -117 -173v-142c0 -130 29 -173 116 -173c88 0 117 43 117 173zM412 775h-109l-137 158h162z" />
    <glyph glyph-name="Otilde" unicode="&#xd5;" horiz-adv-x="668" 
d="M64 273v168c0 107 16 165 60 211c48 52 109 73 210 73c108 0 175 -25 222 -85c35 -45 49 -100 49 -199v-168c0 -107 -16 -165 -60 -211c-48 -52 -109 -73 -211 -73c-107 0 -174 25 -221 85c-35 44 -49 101 -49 199zM451 286v142c0 130 -29 173 -116 173
c-88 0 -117 -43 -117 -173v-142c0 -130 29 -173 116 -173c88 0 117 43 117 173zM236 777h-87c10 55 15 71 26 93c21 42 53 63 98 63c30 0 55 -9 80 -30c33 -28 36 -30 48 -30c18 0 27 15 32 53h88c-7 -48 -12 -71 -20 -92c-18 -42 -52 -64 -99 -64c-33 0 -59 10 -85 34
c-26 23 -31 26 -43 26c-18 0 -34 -21 -38 -53z" />
    <glyph glyph-name="Scaron" unicode="&#x160;" horiz-adv-x="574" 
d="M11 114l117 74c32 -52 79 -75 156 -75c75 0 112 29 112 85c0 28 -11 51 -30 63c-20 13 -20 13 -119 38c-148 37 -204 96 -204 215c0 136 87 211 243 211c115 0 192 -38 238 -116l-114 -73c-32 46 -71 66 -128 66c-58 0 -92 -29 -92 -79c0 -55 30 -78 133 -104
c91 -23 114 -31 150 -54c47 -32 70 -83 70 -160c0 -73 -19 -124 -59 -159c-44 -38 -113 -58 -201 -58c-79 0 -151 18 -200 48c-31 20 -50 41 -72 78zM290 853l54 76h136l-137 -156h-106l-138 156h136z" />
    <glyph glyph-name="Uacute" unicode="&#xda;" horiz-adv-x="682" 
d="M77 714h154v-447c0 -58 4 -86 15 -108c17 -33 43 -46 95 -46c56 0 82 15 98 54c9 21 12 49 12 100v447h154v-447c0 -107 -10 -154 -44 -196c-47 -58 -111 -82 -220 -82c-115 0 -185 29 -229 95c-26 40 -35 85 -35 183v447zM271 775l84 158h162l-137 -158h-109z" />
    <glyph glyph-name="Ucircumflex" unicode="&#xdb;" horiz-adv-x="682" 
d="M77 714h154v-447c0 -58 4 -86 15 -108c17 -33 43 -46 95 -46c56 0 82 15 98 54c9 21 12 49 12 100v447h154v-447c0 -107 -10 -154 -44 -196c-47 -58 -111 -82 -220 -82c-115 0 -185 29 -229 95c-26 40 -35 85 -35 183v447zM341 852l-55 -76h-136l137 156h107l137 -156
h-136z" />
    <glyph glyph-name="Udieresis" unicode="&#xdc;" horiz-adv-x="682" 
d="M77 714h154v-447c0 -58 4 -86 15 -108c17 -33 43 -46 95 -46c56 0 82 15 98 54c9 21 12 49 12 100v447h154v-447c0 -107 -10 -154 -44 -196c-47 -58 -111 -82 -220 -82c-115 0 -185 29 -229 95c-26 40 -35 85 -35 183v447zM175 777v134h129v-134h-129zM378 777v134h129
v-134h-129z" />
    <glyph glyph-name="Ugrave" unicode="&#xd9;" horiz-adv-x="682" 
d="M77 714h154v-447c0 -58 4 -86 15 -108c17 -33 43 -46 95 -46c56 0 82 15 98 54c9 21 12 49 12 100v447h154v-447c0 -107 -10 -154 -44 -196c-47 -58 -111 -82 -220 -82c-115 0 -185 29 -229 95c-26 40 -35 85 -35 183v447zM421 775h-109l-137 158h162z" />
    <glyph glyph-name="Yacute" unicode="&#xdd;" horiz-adv-x="548" 
d="M199 0v257l-220 457h163l134 -305l134 305h163l-220 -457v-257h-154zM209 775l84 158h162l-137 -158h-109z" />
    <glyph glyph-name="Ydieresis" unicode="&#x178;" horiz-adv-x="548" 
d="M199 0v257l-220 457h163l134 -305l134 305h163l-220 -457v-257h-154zM108 777v134h129v-134h-129zM311 777v134h129v-134h-129z" />
    <glyph glyph-name="Zcaron" unicode="&#x17d;" horiz-adv-x="572" 
d="M53 0v101l285 488h-271v125h445v-101l-286 -488h300v-125h-473zM308 853l54 76h136l-137 -156h-106l-138 156h136z" />
    <glyph glyph-name="aacute" unicode="&#xe1;" horiz-adv-x="536" 
d="M326 317v17c0 55 -24 80 -76 80c-39 0 -70 -16 -97 -50l-100 70c45 64 117 96 212 96c96 0 162 -33 189 -93c13 -29 18 -65 18 -130v-307h-114l-9 27c-32 -27 -70 -38 -137 -38c-127 0 -175 45 -175 164c0 125 47 164 194 164h95zM326 221h-77c-54 0 -75 -18 -75 -64
c0 -44 20 -59 76 -59c59 0 76 18 76 81v42zM208 579l84 158h162l-137 -158h-109z" />
    <glyph glyph-name="acircumflex" unicode="&#xe2;" horiz-adv-x="536" 
d="M326 317v17c0 55 -24 80 -76 80c-39 0 -70 -16 -97 -50l-100 70c45 64 117 96 212 96c96 0 162 -33 189 -93c13 -29 18 -65 18 -130v-307h-114l-9 27c-32 -27 -70 -38 -137 -38c-127 0 -175 45 -175 164c0 125 47 164 194 164h95zM326 221h-77c-54 0 -75 -18 -75 -64
c0 -44 20 -59 76 -59c59 0 76 18 76 81v42zM269 656l-55 -76h-136l137 156h107l137 -156h-136z" />
    <glyph glyph-name="adieresis" unicode="&#xe4;" horiz-adv-x="536" 
d="M326 317v17c0 55 -24 80 -76 80c-39 0 -70 -16 -97 -50l-100 70c45 64 117 96 212 96c96 0 162 -33 189 -93c13 -29 18 -65 18 -130v-307h-114l-9 27c-32 -27 -70 -38 -137 -38c-127 0 -175 45 -175 164c0 125 47 164 194 164h95zM326 221h-77c-54 0 -75 -18 -75 -64
c0 -44 20 -59 76 -59c59 0 76 18 76 81v42zM105 581v134h129v-134h-129zM303 581v134h129v-134h-129z" />
    <glyph glyph-name="agrave" unicode="&#xe0;" horiz-adv-x="536" 
d="M326 317v17c0 55 -24 80 -76 80c-39 0 -70 -16 -97 -50l-100 70c45 64 117 96 212 96c96 0 162 -33 189 -93c13 -29 18 -65 18 -130v-307h-114l-9 27c-32 -27 -70 -38 -137 -38c-127 0 -175 45 -175 164c0 125 47 164 194 164h95zM326 221h-77c-54 0 -75 -18 -75 -64
c0 -44 20 -59 76 -59c59 0 76 18 76 81v42zM359 579h-109l-137 158h162z" />
    <glyph glyph-name="aring" unicode="&#xe5;" horiz-adv-x="536" 
d="M326 317v17c0 55 -24 80 -76 80c-39 0 -70 -16 -97 -50l-100 70c45 64 117 96 212 96c96 0 162 -33 189 -93c13 -29 18 -65 18 -130v-307h-114l-9 27c-32 -27 -70 -38 -137 -38c-127 0 -175 45 -175 164c0 125 47 164 194 164h95zM326 221h-77c-54 0 -75 -18 -75 -64
c0 -44 20 -59 76 -59c59 0 76 18 76 81v42zM271 804c79 0 131 -46 131 -116c0 -71 -54 -119 -132 -119c-79 0 -133 48 -133 119s52 116 134 116zM270 738c-30 0 -45 -17 -45 -51s15 -52 44 -52c30 0 45 17 45 51s-15 52 -44 52z" />
    <glyph glyph-name="atilde" unicode="&#xe3;" horiz-adv-x="536" 
d="M326 317v17c0 55 -24 80 -76 80c-39 0 -70 -16 -97 -50l-100 70c45 64 117 96 212 96c96 0 162 -33 189 -93c13 -29 18 -65 18 -130v-307h-114l-9 27c-32 -27 -70 -38 -137 -38c-127 0 -175 45 -175 164c0 125 47 164 194 164h95zM326 221h-77c-54 0 -75 -18 -75 -64
c0 -44 20 -59 76 -59c59 0 76 18 76 81v42zM170 581h-87c11 57 15 72 26 93c21 42 53 63 98 63c30 0 56 -10 80 -30c33 -28 36 -30 48 -30c18 0 27 15 32 53h88c-7 -48 -12 -72 -20 -92c-18 -42 -52 -64 -99 -64c-33 0 -59 10 -85 34c-26 23 -31 26 -43 26
c-18 0 -33 -21 -38 -53z" />
    <glyph glyph-name="ccedilla" unicode="&#xe7;" horiz-adv-x="481" 
d="M368 156l108 -60c-43 -73 -108 -107 -205 -107c-84 0 -147 29 -183 85c-25 39 -36 93 -36 171v26c0 89 14 145 45 186c37 48 94 73 169 73c97 0 162 -34 201 -107l-107 -61c-24 38 -46 52 -83 52c-54 0 -79 -41 -79 -129v-55c0 -84 27 -125 84 -125c38 0 63 14 86 51z
M140 -243l49 182h138l-89 -182h-98z" />
    <glyph glyph-name="eacute" unicode="&#xe9;" horiz-adv-x="551" 
d="M198 222v-13c0 -71 33 -108 96 -108c48 0 77 15 102 55l107 -61c-44 -76 -108 -106 -225 -106c-162 0 -226 71 -226 250v33c0 92 12 145 43 185c36 49 96 73 184 73c162 0 227 -74 227 -258v-50h-308zM197 321h172v12c0 58 -31 91 -87 91c-53 0 -85 -34 -85 -91v-12z
M205 579l84 158h162l-137 -158h-109z" />
    <glyph glyph-name="ecircumflex" unicode="&#xea;" horiz-adv-x="551" 
d="M198 222v-13c0 -71 33 -108 96 -108c48 0 77 15 102 55l107 -61c-44 -76 -108 -106 -225 -106c-162 0 -226 71 -226 250v33c0 92 12 145 43 185c36 49 96 73 184 73c162 0 227 -74 227 -258v-50h-308zM197 321h172v12c0 58 -31 91 -87 91c-53 0 -85 -34 -85 -91v-12z
M283 656l-55 -76h-136l137 156h107l137 -156h-136z" />
    <glyph glyph-name="edieresis" unicode="&#xeb;" horiz-adv-x="551" 
d="M198 222v-13c0 -71 33 -108 96 -108c48 0 77 15 102 55l107 -61c-44 -76 -108 -106 -225 -106c-162 0 -226 71 -226 250v33c0 92 12 145 43 185c36 49 96 73 184 73c162 0 227 -74 227 -258v-50h-308zM197 321h172v12c0 58 -31 91 -87 91c-53 0 -85 -34 -85 -91v-12z
M119 581v134h129v-134h-129zM317 581v134h129v-134h-129z" />
    <glyph glyph-name="egrave" unicode="&#xe8;" horiz-adv-x="551" 
d="M198 222v-13c0 -71 33 -108 96 -108c48 0 77 15 102 55l107 -61c-44 -76 -108 -106 -225 -106c-162 0 -226 71 -226 250v33c0 92 12 145 43 185c36 49 96 73 184 73c162 0 227 -74 227 -258v-50h-308zM197 321h172v12c0 58 -31 91 -87 91c-53 0 -85 -34 -85 -91v-12z
M360 579h-109l-137 158h162z" />
    <glyph glyph-name="iacute" unicode="&#xed;" horiz-adv-x="283" 
d="M66 0v518h146v-518h-146zM73 579l84 158h162l-137 -158h-109z" />
    <glyph glyph-name="icircumflex" unicode="&#xee;" horiz-adv-x="283" 
d="M69 0v518h146v-518h-146zM142 656l-55 -76h-136l137 156h107l137 -156h-136z" />
    <glyph glyph-name="idieresis" unicode="&#xef;" horiz-adv-x="283" 
d="M69 0v518h146v-518h-146zM-22 581v134h129v-134h-129zM176 581v134h129v-134h-129z" />
    <glyph glyph-name="igrave" unicode="&#xec;" horiz-adv-x="283" 
d="M68 0v518h146v-518h-146zM205 579h-109l-137 158h162z" />
    <glyph glyph-name="ntilde" unicode="&#xf1;" horiz-adv-x="573" 
d="M67 0v518h109l12 -39c35 37 72 51 136 51c86 0 145 -35 170 -100c11 -29 15 -67 15 -134v-296h-146v279c0 92 -20 127 -73 127c-57 0 -77 -36 -77 -137v-269h-146zM187 581h-87c11 57 15 72 26 93c21 42 53 63 98 63c30 0 56 -10 80 -30c33 -28 36 -30 48 -30
c18 0 27 15 32 53h88c-7 -48 -12 -72 -20 -92c-18 -42 -52 -64 -99 -64c-33 0 -59 10 -85 34c-26 23 -31 26 -43 26c-18 0 -33 -21 -38 -53z" />
    <glyph glyph-name="oacute" unicode="&#xf3;" horiz-adv-x="560" 
d="M52 220v78c0 164 67 232 229 232c161 0 228 -68 228 -232v-78c0 -164 -66 -231 -229 -231c-162 0 -228 67 -228 231zM363 231v56c0 92 -23 127 -82 127c-60 0 -83 -35 -83 -127v-56c0 -91 23 -126 83 -126c59 0 82 35 82 126zM203 579l84 158h162l-137 -158h-109z" />
    <glyph glyph-name="ocircumflex" unicode="&#xf4;" horiz-adv-x="560" 
d="M52 220v78c0 164 67 232 229 232c161 0 228 -68 228 -232v-78c0 -164 -66 -231 -229 -231c-162 0 -228 67 -228 231zM363 231v56c0 92 -23 127 -82 127c-60 0 -83 -35 -83 -127v-56c0 -91 23 -126 83 -126c59 0 82 35 82 126zM281 656l-55 -76h-136l137 156h107l137 -156
h-136z" />
    <glyph glyph-name="odieresis" unicode="&#xf6;" horiz-adv-x="560" 
d="M52 220v78c0 164 67 232 229 232c161 0 228 -68 228 -232v-78c0 -164 -66 -231 -229 -231c-162 0 -228 67 -228 231zM363 231v56c0 92 -23 127 -82 127c-60 0 -83 -35 -83 -127v-56c0 -91 23 -126 83 -126c59 0 82 35 82 126zM117 581v134h129v-134h-129zM315 581v134
h129v-134h-129z" />
    <glyph glyph-name="ograve" unicode="&#xf2;" horiz-adv-x="560" 
d="M52 220v78c0 164 67 232 229 232c161 0 228 -68 228 -232v-78c0 -164 -66 -231 -229 -231c-162 0 -228 67 -228 231zM363 231v56c0 92 -23 127 -82 127c-60 0 -83 -35 -83 -127v-56c0 -91 23 -126 83 -126c59 0 82 35 82 126zM358 579h-109l-137 158h162z" />
    <glyph glyph-name="otilde" unicode="&#xf5;" horiz-adv-x="560" 
d="M52 220v78c0 164 67 232 229 232c161 0 228 -68 228 -232v-78c0 -164 -66 -231 -229 -231c-162 0 -228 67 -228 231zM363 231v56c0 92 -23 127 -82 127c-60 0 -83 -35 -83 -127v-56c0 -91 23 -126 83 -126c59 0 82 35 82 126zM182 581h-87c11 57 15 72 26 93
c21 42 53 63 98 63c30 0 56 -10 80 -30c33 -28 36 -30 48 -30c18 0 27 15 32 53h88c-7 -48 -12 -72 -20 -92c-18 -42 -52 -64 -99 -64c-33 0 -59 10 -85 34c-26 23 -31 26 -43 26c-18 0 -33 -21 -38 -53z" />
    <glyph glyph-name="scaron" unicode="&#x161;" horiz-adv-x="497" 
d="M18 95l107 61c27 -42 50 -54 106 -54c63 0 92 18 92 56c0 28 -16 40 -60 44c-92 10 -114 14 -148 30c-47 22 -71 65 -71 128c0 109 70 170 194 170c102 0 168 -34 211 -107l-108 -61c-24 41 -47 54 -93 54c-43 0 -67 -18 -67 -50c0 -30 17 -40 79 -46
c156 -15 200 -51 200 -164c0 -115 -70 -167 -223 -167c-113 0 -184 35 -219 106zM248 657l54 76h136l-137 -156h-106l-138 156h136z" />
    <glyph glyph-name="uacute" unicode="&#xfa;" horiz-adv-x="562" 
d="M64 518h146v-279c0 -92 19 -126 69 -126c51 0 70 37 70 136v269h146v-518h-98l-19 43c-28 -39 -65 -54 -131 -54c-87 0 -144 34 -168 100c-10 27 -15 69 -15 133v296zM204 579l84 158h162l-137 -158h-109z" />
    <glyph glyph-name="ucircumflex" unicode="&#xfb;" horiz-adv-x="562" 
d="M64 518h146v-279c0 -92 19 -126 69 -126c51 0 70 37 70 136v269h146v-518h-98l-19 43c-28 -39 -65 -54 -131 -54c-87 0 -144 34 -168 100c-10 27 -15 69 -15 133v296zM282 656l-55 -76h-136l137 156h107l137 -156h-136z" />
    <glyph glyph-name="udieresis" unicode="&#xfc;" horiz-adv-x="562" 
d="M64 518h146v-279c0 -92 19 -126 69 -126c51 0 70 37 70 136v269h146v-518h-98l-19 43c-28 -39 -65 -54 -131 -54c-87 0 -144 34 -168 100c-10 27 -15 69 -15 133v296zM118 581v134h129v-134h-129zM316 581v134h129v-134h-129z" />
    <glyph glyph-name="ugrave" unicode="&#xf9;" horiz-adv-x="562" 
d="M64 518h146v-279c0 -92 19 -126 69 -126c51 0 70 37 70 136v269h146v-518h-98l-19 43c-28 -39 -65 -54 -131 -54c-87 0 -144 34 -168 100c-10 27 -15 69 -15 133v296zM359 579h-109l-137 158h162z" />
    <glyph glyph-name="yacute" unicode="&#xfd;" horiz-adv-x="513" 
d="M181 13l-171 505h147l100 -349l96 349h148l-180 -546c-63 -180 -92 -201 -276 -202v118c85 -1 97 8 126 95zM194 579l84 158h162l-137 -158h-109z" />
    <glyph glyph-name="ydieresis" unicode="&#xff;" horiz-adv-x="513" 
d="M181 13l-171 505h147l100 -349l96 349h148l-180 -546c-63 -180 -92 -201 -276 -202v118c85 -1 97 8 126 95zM93 581v134h129v-134h-129zM291 581v134h129v-134h-129z" />
    <glyph glyph-name="zcaron" unicode="&#x17e;" horiz-adv-x="485" 
d="M32 0v91l212 310h-194v117h374v-92l-212 -309h227v-117h-407zM252 657l54 76h136l-137 -156h-106l-138 156h136z" />
    <glyph glyph-name="zerooldstyle" unicode="&#xf730;" horiz-adv-x="545" 
d="M49 239v75c0 100 14 153 50 192c37 40 91 59 169 59c87 0 148 -23 185 -71c30 -38 42 -89 42 -180v-75c0 -99 -14 -152 -52 -191c-39 -40 -95 -59 -175 -59c-86 0 -143 23 -179 71c-29 38 -40 88 -40 179zM343 237v79c0 102 -17 133 -75 133c-52 0 -67 -29 -67 -133v-79
c0 -103 15 -132 67 -132c58 0 75 31 75 132z" />
    <glyph glyph-name="oneoldstyle" unicode="&#xf731;" horiz-adv-x="386" 
d="M137 0v395l-110 -45l-48 117l211 86h101v-553h-154z" />
    <glyph glyph-name="twooldstyle" unicode="&#xf732;" horiz-adv-x="464" 
d="M0 0v93l157 140c34 30 74 72 96 100s29 44 29 63c0 33 -24 53 -62 53c-45 0 -70 -24 -79 -75l-138 30c23 111 91 161 219 161c138 0 208 -55 208 -163c0 -49 -13 -83 -50 -126c-26 -31 -26 -31 -109 -102l-67 -58h234v-116h-438z" />
    <glyph glyph-name="threeoldstyle" unicode="&#xf733;" horiz-adv-x="480" 
d="M120 160v118h63c63 0 97 29 97 84c0 57 -23 87 -65 87c-35 0 -57 -26 -63 -71l-138 29c26 113 85 158 209 158c136 0 209 -68 209 -194c0 -75 -23 -117 -80 -151c73 -43 98 -86 98 -171c0 -144 -76 -214 -232 -214c-135 0 -199 40 -230 143l142 49c6 -51 33 -76 82 -76
c32 0 51 8 65 27c13 19 21 46 21 75c0 66 -41 107 -105 107h-73z" />
    <glyph glyph-name="fouroldstyle" unicode="&#xf734;" horiz-adv-x="481" 
d="M287 -154v154h-277v92l197 461h163l-199 -439h116v159h129v-159h62v-114h-62v-154h-129z" />
    <glyph glyph-name="fiveoldstyle" unicode="&#xf735;" horiz-adv-x="489" 
d="M47 167l31 386h352v-125h-224l-13 -139l10 2c32 9 38 10 62 10c64 0 117 -21 147 -58c28 -34 40 -84 40 -169c0 -88 -14 -140 -49 -177c-37 -41 -98 -62 -176 -62c-127 0 -192 43 -220 143l142 49c5 -50 31 -76 75 -76c54 0 76 34 76 115c0 87 -19 119 -69 119
c-31 0 -55 -14 -71 -41z" />
    <glyph glyph-name="sixoldstyle" unicode="&#xf736;" horiz-adv-x="542" 
d="M430 699l-152 -239c2 -1 4 -1 4 -1c3 0 11 1 25 2h9c37 0 83 -16 114 -39c48 -37 66 -89 66 -195c0 -99 -15 -151 -55 -187c-39 -34 -93 -51 -169 -51c-84 0 -144 20 -181 62c-32 34 -44 84 -44 172c0 91 17 152 62 228l149 248h172zM273 351c-56 0 -74 -30 -74 -123
s18 -123 73 -123c54 0 72 31 72 123s-18 123 -71 123z" />
    <glyph glyph-name="sevenoldstyle" unicode="&#xf737;" horiz-adv-x="417" 
d="M35 -154l193 582h-234v125h394v-91l-189 -616h-164z" />
    <glyph glyph-name="eightoldstyle" unicode="&#xf738;" horiz-adv-x="555" 
d="M124 377c-40 32 -56 71 -56 134c0 138 64 199 209 199s210 -61 210 -199c0 -62 -18 -104 -56 -134c55 -35 76 -82 76 -167c0 -156 -68 -221 -230 -221c-161 0 -229 65 -229 221c0 85 21 132 76 167zM278 599c-50 0 -66 -22 -66 -92s16 -92 66 -92c49 0 65 22 65 92
c0 69 -16 92 -65 92zM279 309c-61 0 -80 -24 -80 -98c0 -84 19 -111 78 -111s79 28 79 110c0 74 -19 99 -77 99z" />
    <glyph glyph-name="nineoldstyle" unicode="&#xf739;" horiz-adv-x="542" 
d="M267 94h-5c-29 -2 -29 -2 -33 -2c-38 0 -84 16 -115 39c-48 37 -66 89 -66 195c0 100 15 152 55 188c39 34 93 51 169 51c84 0 144 -21 181 -62c32 -35 44 -84 44 -173c0 -91 -15 -146 -62 -227l-149 -257h-172zM273 449c-55 0 -73 -31 -73 -123s18 -124 71 -124
c56 0 74 30 74 123c0 94 -18 124 -72 124z" />
    <glyph glyph-name="figuredash" unicode="&#x2012;" 
d="M58 290v125h424v-125h-424z" />
    <glyph glyph-name="oneeighth" unicode="&#x215b;" horiz-adv-x="914" 
d="M139 286v321l-70 -25l-30 81l139 51h78v-428h-117zM572 228c-17 20 -24 45 -24 81c0 89 42 126 144 126s145 -37 145 -125c0 -37 -7 -60 -24 -82c27 -22 38 -49 38 -99c0 -98 -45 -136 -159 -136s-158 38 -158 136c0 50 11 79 38 99zM693 359c-29 0 -42 -15 -42 -51
c0 -37 13 -53 42 -53c28 0 41 16 41 52s-13 52 -41 52zM693 186c-34 0 -47 -16 -47 -56c0 -39 13 -55 46 -55c34 0 47 16 47 55s-14 56 -46 56zM233 0l227 714h135l-227 -714h-135z" />
    <glyph glyph-name="threeeighths" unicode="&#x215c;" horiz-adv-x="914" 
d="M123 473v75h42c32 0 53 18 53 45c0 23 -16 39 -39 39c-26 0 -40 -14 -46 -44l-104 8c3 46 12 70 33 89c26 24 67 36 123 36c100 0 150 -41 150 -122c0 -43 -11 -68 -38 -87c36 -25 50 -53 50 -100c0 -91 -50 -133 -160 -133c-114 0 -164 39 -169 129l110 13
c5 -38 21 -53 55 -53c30 0 47 16 47 46c0 38 -21 59 -59 59h-48zM602 228c-16 20 -24 45 -24 81c0 89 42 126 144 126s145 -37 145 -125c0 -37 -7 -61 -24 -82c27 -21 38 -49 38 -99c0 -98 -45 -136 -158 -136c-114 0 -158 38 -158 136c0 50 11 79 37 99zM723 359
c-29 0 -42 -15 -42 -51c0 -37 13 -53 42 -53c28 0 41 16 41 52s-13 52 -41 52zM724 186c-34 0 -47 -16 -47 -56c0 -39 13 -55 46 -55s46 16 46 55s-13 56 -45 56zM277 0l227 714h135l-227 -714h-135z" />
    <glyph glyph-name="fiveeighths" unicode="&#x215d;" horiz-adv-x="914" 
d="M50 474l22 240h257v-89h-159l-6 -65c17 3 22 4 35 4c49 0 89 -12 113 -34c22 -21 31 -51 31 -105c0 -55 -10 -87 -34 -109c-26 -24 -68 -37 -124 -37c-102 0 -153 43 -153 129l109 13c4 -36 19 -53 46 -53c25 0 39 18 39 52c0 44 -12 62 -41 62c-20 0 -36 -8 -47 -24z
M603 228c-17 20 -24 45 -24 80c0 90 42 127 144 127s145 -37 145 -125c0 -37 -7 -60 -24 -82c27 -21 38 -49 38 -99c0 -98 -45 -136 -159 -136c-113 0 -158 38 -158 136c0 50 11 79 38 99zM724 359c-29 0 -42 -15 -42 -51c0 -37 13 -53 42 -53c28 0 41 16 41 52
s-13 52 -41 52zM724 186c-34 0 -47 -16 -47 -56c0 -39 13 -55 46 -55c34 0 47 16 47 55c0 40 -14 56 -46 56zM277 0l227 714h135l-227 -714h-135z" />
    <glyph glyph-name="seveneighths" unicode="&#x215e;" horiz-adv-x="914" 
d="M76 286l137 339h-159v89h284v-65l-136 -363h-126zM581 228c-17 20 -24 45 -24 81c0 89 42 126 144 126s144 -37 144 -126c0 -35 -7 -60 -24 -81c27 -22 38 -49 38 -99c0 -98 -45 -136 -158 -136c-114 0 -158 38 -158 136c0 50 11 79 38 99zM702 359
c-30 0 -42 -15 -42 -51c0 -37 12 -53 41 -53s41 16 41 52s-13 52 -40 52zM702 186c-34 0 -47 -16 -47 -56c0 -39 13 -55 46 -55s46 16 46 55s-13 56 -45 56zM243 0l226 714h135l-226 -714h-135z" />
    <glyph glyph-name="onethird" unicode="&#x2153;" horiz-adv-x="914" 
d="M130 286v321l-70 -25l-30 81l139 51h78v-428h-117zM624 188v75h42c32 0 53 18 53 45c0 23 -16 39 -39 39c-26 0 -40 -14 -45 -44l-105 8c4 47 12 69 33 88c26 24 67 36 123 36c100 0 150 -40 150 -121c0 -43 -11 -68 -38 -87c36 -25 50 -53 50 -100
c0 -92 -50 -134 -160 -134c-67 0 -115 16 -142 46c-16 18 -23 40 -27 84l110 12c5 -38 21 -53 55 -53c30 0 47 17 47 46c0 39 -21 60 -59 60h-48zM224 0l227 714h135l-227 -714h-135z" />
    <glyph glyph-name="twothirds" unicode="&#x2154;" horiz-adv-x="914" 
d="M32 286v71l124 139c35 40 58 81 58 105c0 19 -15 32 -35 32c-26 0 -43 -19 -47 -55l-108 8c4 50 13 75 33 96c27 27 69 40 126 40c98 0 148 -42 148 -125c0 -36 -9 -63 -30 -96c-15 -22 -15 -22 -65 -78l-44 -48h137v-89h-297zM664 188v75h42c32 0 53 18 53 45
c0 23 -16 39 -39 39c-26 0 -41 -14 -46 -44l-104 8c3 47 12 69 33 88c26 24 67 36 123 36c100 0 150 -40 150 -121c0 -43 -11 -68 -38 -87c36 -25 50 -53 50 -100c0 -92 -50 -134 -160 -134c-67 0 -115 16 -143 46c-16 18 -23 41 -27 84l110 12c6 -38 22 -53 55 -53
c31 0 48 17 48 46c0 39 -21 60 -59 60h-48zM277 0l227 714h135l-227 -714h-135z" />
    <glyph glyph-name="zerosuperior" unicode="&#x2070;" horiz-adv-x="362" 
d="M26 549v102c0 65 9 99 33 127c28 31 63 43 123 43c63 0 101 -15 128 -50c19 -27 27 -60 27 -120v-102c0 -65 -9 -100 -33 -127c-28 -31 -63 -43 -122 -43c-64 0 -102 15 -129 50c-19 27 -27 60 -27 120zM225 556v87c0 70 -12 96 -43 96c-32 0 -44 -27 -44 -96v-87
c0 -68 12 -95 44 -95c31 0 43 27 43 95z" />
    <glyph glyph-name="foursuperior" unicode="&#x2074;" horiz-adv-x="362" 
d="M203 386v65h-186v66l143 297h122l-134 -276h55v71h102v-71h40v-87h-40v-65h-102z" />
    <glyph glyph-name="fivesuperior" unicode="&#x2075;" horiz-adv-x="361" 
d="M38 574l22 240h257v-89h-159l-6 -65c18 4 22 4 35 4c49 0 89 -12 113 -34c22 -21 31 -51 31 -105c0 -55 -10 -87 -34 -109c-26 -24 -68 -37 -124 -37c-102 0 -153 43 -153 129l109 13c4 -36 19 -53 46 -53c25 0 39 18 39 52c0 44 -12 62 -41 62c-20 0 -36 -8 -47 -24z
" />
    <glyph glyph-name="sixsuperior" unicode="&#x2076;" horiz-adv-x="362" 
d="M203 667h8c32 0 55 -6 80 -22c33 -22 45 -54 45 -120c0 -63 -10 -94 -38 -116c-26 -20 -63 -30 -116 -30c-58 0 -99 12 -124 37c-22 21 -30 51 -30 105c0 59 8 87 41 139l98 154h135zM182 589c-30 0 -42 -18 -42 -64s12 -64 42 -64s42 19 42 64s-12 64 -42 64z" />
    <glyph glyph-name="sevensuperior" unicode="&#x2077;" horiz-adv-x="290" 
d="M28 386l117 339h-139v89h264v-65l-116 -363h-126z" />
    <glyph glyph-name="eightsuperior" unicode="&#x2078;" horiz-adv-x="362" 
d="M61 614c-17 20 -24 45 -24 81c0 89 42 126 144 126c103 0 145 -37 145 -125c0 -37 -7 -60 -25 -82c27 -22 38 -49 38 -99c0 -98 -45 -136 -158 -136s-158 38 -158 136c0 50 11 79 38 99zM182 745c-29 0 -42 -15 -42 -51c0 -37 13 -53 42 -53c28 0 41 16 41 52
s-13 52 -41 52zM182 572c-34 0 -47 -16 -47 -56c0 -39 13 -55 46 -55s46 16 46 55s-13 56 -45 56z" />
    <glyph glyph-name="ninesuperior" unicode="&#x2079;" horiz-adv-x="362" 
d="M61 386l100 160c-101 3 -135 38 -135 136c0 101 41 138 154 138c58 0 97 -11 123 -35c22 -21 31 -48 31 -101c0 -57 -4 -73 -32 -120l-107 -178h-134zM181 738c-29 0 -43 -18 -43 -56s14 -57 42 -57s42 19 42 57c0 37 -14 56 -41 56z" />
    <glyph glyph-name="zeroinferior" unicode="&#x2080;" horiz-adv-x="362" 
d="M26 63v102c0 65 9 99 33 127c28 31 63 43 123 43c63 0 101 -15 128 -50c19 -27 27 -60 27 -120v-102c0 -65 -9 -100 -33 -127c-28 -31 -63 -43 -122 -43c-64 0 -102 15 -129 50c-19 27 -27 60 -27 120zM225 70v87c0 70 -12 96 -43 96c-32 0 -44 -27 -44 -96v-87
c0 -68 12 -95 44 -95c31 0 43 27 43 95z" />
    <glyph glyph-name="oneinferior" unicode="&#x2081;" horiz-adv-x="284" 
d="M99 -100v321l-70 -25l-30 81l139 51h78v-428h-117z" />
    <glyph glyph-name="twoinferior" unicode="&#x2082;" horiz-adv-x="360" 
d="M30 -100v71l124 140c35 39 58 80 58 104c0 19 -15 32 -35 32c-26 0 -43 -19 -47 -55l-108 8c4 50 13 75 33 96c27 27 69 40 126 40c98 0 148 -42 148 -125c0 -36 -9 -63 -30 -96c-15 -23 -15 -23 -65 -78l-44 -48h137v-89h-297z" />
    <glyph glyph-name="threeinferior" unicode="&#x2083;" horiz-adv-x="360" 
d="M110 88v75h42c32 0 53 18 53 45c0 23 -16 39 -39 39c-26 0 -40 -14 -46 -44l-104 8c3 46 12 69 33 88c26 24 67 36 123 36c100 0 150 -40 150 -122c0 -42 -11 -67 -38 -86c36 -25 50 -53 50 -101c0 -91 -50 -133 -160 -133c-114 0 -164 39 -169 129l110 13
c5 -38 21 -53 55 -53c30 0 47 16 47 46c0 39 -21 60 -59 60h-48z" />
    <glyph glyph-name="fourinferior" unicode="&#x2084;" horiz-adv-x="362" 
d="M203 -100v65h-186v66l143 297h122l-134 -276h55v71h102v-71h40v-87h-40v-65h-102z" />
    <glyph glyph-name="fiveinferior" unicode="&#x2085;" horiz-adv-x="361" 
d="M38 88l22 240h257v-89h-159l-6 -65c18 4 22 4 35 4c49 0 89 -12 113 -34c22 -21 31 -51 31 -105c0 -55 -10 -87 -34 -109c-26 -24 -68 -37 -124 -37c-102 0 -153 43 -153 129l109 13c4 -36 19 -53 46 -53c25 0 39 18 39 52c0 44 -12 62 -41 62c-20 0 -36 -8 -47 -24z" />
    <glyph glyph-name="sixinferior" unicode="&#x2086;" horiz-adv-x="362" 
d="M203 182l8 -1c32 0 55 -6 80 -22c33 -22 45 -54 45 -120c0 -63 -10 -94 -38 -116c-26 -20 -63 -30 -116 -30c-58 0 -99 12 -124 37c-22 21 -30 51 -30 105c0 59 8 87 41 139l98 154h135zM182 103c-30 0 -42 -18 -42 -64s12 -64 42 -64s42 19 42 64s-12 64 -42 64z" />
    <glyph glyph-name="seveninferior" unicode="&#x2087;" horiz-adv-x="290" 
d="M31 -100l117 339h-139v89h264v-65l-116 -363h-126z" />
    <glyph glyph-name="eightinferior" unicode="&#x2088;" horiz-adv-x="362" 
d="M61 128c-17 20 -24 45 -24 81c0 89 42 126 144 126s145 -37 145 -125c0 -37 -7 -60 -25 -82c27 -22 38 -49 38 -99c0 -98 -45 -136 -158 -136s-158 38 -158 136c0 50 11 79 38 99zM182 259c-29 0 -42 -15 -42 -51c0 -37 13 -53 42 -53c28 0 41 16 41 52s-13 52 -41 52z
M182 86c-34 0 -47 -16 -47 -56c0 -39 13 -55 46 -55s46 16 46 55s-13 56 -45 56z" />
    <glyph glyph-name="nineinferior" unicode="&#x2089;" horiz-adv-x="362" 
d="M61 -100l100 160c-101 3 -135 38 -135 136c0 102 41 139 154 139c58 0 97 -11 123 -35c22 -21 31 -49 31 -102c0 -57 -4 -73 -32 -120l-107 -178h-134zM181 253c-29 0 -43 -18 -43 -57c0 -38 14 -57 42 -57s42 19 42 57s-14 57 -41 57z" />
    <glyph glyph-name="IJ" unicode="&#x132;" horiz-adv-x="628" 
d="M80 0v714h154v-714h-154zM394 714h154v-665c0 -122 -6 -165 -26 -204c-32 -59 -95 -90 -183 -90c-46 0 -79 6 -126 24l53 113c21 -10 34 -13 52 -13c37 0 59 18 69 56c5 22 7 49 7 112v667z" />
    <glyph glyph-name="uni01CD" unicode="&#x1cd;" horiz-adv-x="623" 
d="M438 134h-250l-42 -134h-166l258 714h149l259 -714h-167zM401 256l-87 278l-89 -278h176zM312 853l54 76h136l-137 -156h-106l-138 156h136z" />
    <glyph glyph-name="Abreve" unicode="&#x102;" horiz-adv-x="623" 
d="M438 134h-250l-42 -134h-166l258 714h149l259 -714h-167zM401 256l-87 278l-89 -278h176zM135 931h90c8 -49 28 -63 87 -63s79 14 87 63h89c-2 -60 -6 -79 -21 -103c-27 -44 -74 -64 -155 -64c-87 0 -137 23 -162 75c-10 20 -13 39 -15 92z" />
    <glyph glyph-name="Aogonek" unicode="&#x104;" horiz-adv-x="623" 
d="M387 714l259 -714c-61 -45 -87 -76 -87 -106c0 -24 14 -36 43 -36c18 0 39 4 63 12l15 -70c-36 -15 -64 -21 -107 -21c-92 0 -142 33 -142 93c0 49 35 91 108 128h-60l-41 134h-250l-42 -134h-166l258 714h149zM401 256l-87 278l-89 -278h176z" />
    <glyph glyph-name="Cacute" unicode="&#x106;" horiz-adv-x="620" 
d="M438 211l144 -17c-3 -65 -17 -102 -51 -138c-43 -45 -111 -67 -207 -67c-103 0 -168 26 -213 86c-34 46 -47 101 -47 203v156c0 110 15 168 57 215c47 52 107 74 203 74c162 0 240 -67 247 -212l-141 -10c-8 68 -40 98 -104 98c-82 0 -108 -43 -108 -177v-132
c0 -135 26 -177 109 -177c68 0 103 31 111 98zM246 775l84 158h162l-137 -158h-109z" />
    <glyph glyph-name="Ccaron" unicode="&#x10c;" horiz-adv-x="620" 
d="M438 211l144 -17c-3 -65 -17 -102 -51 -138c-43 -45 -111 -67 -207 -67c-103 0 -168 26 -213 86c-34 46 -47 101 -47 203v156c0 110 15 168 57 215c47 52 107 74 203 74c162 0 240 -67 247 -212l-141 -10c-8 68 -40 98 -104 98c-82 0 -108 -43 -108 -177v-132
c0 -135 26 -177 109 -177c68 0 103 31 111 98zM321 853l54 76h136l-137 -156h-106l-138 156h136z" />
    <glyph glyph-name="Cdotaccent" unicode="&#x10a;" horiz-adv-x="620" 
d="M438 211l144 -17c-3 -65 -17 -102 -51 -138c-43 -45 -111 -67 -207 -67c-103 0 -168 26 -213 86c-34 46 -47 101 -47 203v156c0 110 15 168 57 215c47 52 107 74 203 74c162 0 240 -67 247 -212l-141 -10c-8 68 -40 98 -104 98c-82 0 -108 -43 -108 -177v-132
c0 -135 26 -177 109 -177c68 0 103 31 111 98zM255 777v134h141v-134h-141z" />
    <glyph glyph-name="Dcaron" unicode="&#x10e;" horiz-adv-x="669" 
d="M80 0v714h249c193 3 281 -86 276 -279v-156c5 -193 -82 -281 -276 -279h-249zM234 122h67c116 -1 148 34 150 169v132c-2 135 -34 170 -150 169h-67v-470zM311 853l54 76h136l-137 -156h-106l-138 156h136z" />
    <glyph glyph-name="Ecaron" unicode="&#x11a;" horiz-adv-x="582" 
d="M81 0v714h451v-125h-299v-166h253v-125h-253v-173h303v-125h-455zM311 853l54 76h136l-137 -156h-106l-138 156h136z" />
    <glyph glyph-name="Edotaccent" unicode="&#x116;" horiz-adv-x="582" 
d="M81 0v714h451v-125h-299v-166h253v-125h-253v-173h303v-125h-455zM240 777v134h141v-134h-141z" />
    <glyph glyph-name="Eogonek" unicode="&#x118;" horiz-adv-x="582" 
d="M81 0v714h451v-125h-299v-166h253v-125h-253v-173h303v-125c-75 -61 -86 -75 -86 -106c0 -24 14 -36 43 -36c18 0 38 4 62 12l15 -70c-37 -16 -63 -21 -106 -21c-92 0 -142 33 -142 93c0 50 29 84 107 128h-348z" />
    <glyph glyph-name="Gcaron" unicode="&#x1e6;" horiz-adv-x="658" 
d="M344 283v117h260v-123c0 -105 -12 -156 -49 -203c-47 -59 -114 -85 -223 -85c-107 0 -174 26 -220 86c-35 46 -48 101 -48 203v155c0 111 16 169 59 216c47 52 109 74 207 74c166 0 247 -68 253 -212l-141 -10c-8 67 -42 98 -110 98c-86 0 -114 -43 -114 -177v-132
c0 -135 27 -177 116 -177c82 0 117 39 117 130v40h-107zM330 853l54 76h136l-137 -156h-106l-138 156h136z" />
    <glyph glyph-name="Gbreve" unicode="&#x11e;" horiz-adv-x="658" 
d="M344 283v117h260v-123c0 -105 -12 -156 -49 -203c-47 -59 -114 -85 -223 -85c-107 0 -174 26 -220 86c-35 46 -48 101 -48 203v155c0 111 16 169 59 216c47 52 109 74 207 74c166 0 247 -68 253 -212l-141 -10c-8 67 -42 98 -110 98c-86 0 -114 -43 -114 -177v-132
c0 -135 27 -177 116 -177c82 0 117 39 117 130v40h-107zM153 931h90c8 -49 28 -63 87 -63s79 14 87 63h89c-2 -60 -6 -79 -21 -103c-27 -44 -74 -64 -155 -64c-87 0 -137 23 -162 75c-10 20 -13 39 -15 92z" />
    <glyph glyph-name="Gdotaccent" unicode="&#x120;" horiz-adv-x="658" 
d="M344 283v117h260v-123c0 -105 -12 -156 -49 -203c-47 -59 -114 -85 -223 -85c-107 0 -174 26 -220 86c-35 46 -48 101 -48 203v155c0 111 16 169 59 216c47 52 109 74 207 74c166 0 247 -68 253 -212l-141 -10c-8 67 -42 98 -110 98c-86 0 -114 -43 -114 -177v-132
c0 -135 27 -177 116 -177c82 0 117 39 117 130v40h-107zM259 777v134h141v-134h-141z" />
    <glyph glyph-name="Idotaccent" unicode="&#x130;" horiz-adv-x="314" 
d="M80 0v714h154v-714h-154zM86 777v134h141v-134h-141z" />
    <glyph glyph-name="Lacute" unicode="&#x139;" horiz-adv-x="546" 
d="M80 0v714h154v-589h301v-125h-455zM113 775l84 158h162l-137 -158h-109z" />
    <glyph glyph-name="Lcaron" unicode="&#x13d;" horiz-adv-x="546" 
d="M80 0v714h154v-589h301v-125h-455zM306 442l35 291h137l-70 -291h-102z" />
    <glyph glyph-name="Nacute" unicode="&#x143;" horiz-adv-x="711" 
d="M80 0v714h149l253 -457v457h149v-714h-149l-253 457v-457h-149zM295 775l84 158h162l-137 -158h-109z" />
    <glyph glyph-name="Ncaron" unicode="&#x147;" horiz-adv-x="711" 
d="M80 0v714h149l253 -457v457h149v-714h-149l-253 457v-457h-149zM364 853l54 76h136l-137 -156h-106l-138 156h136z" />
    <glyph glyph-name="Ohungarumlaut" unicode="&#x150;" horiz-adv-x="668" 
d="M64 273v168c0 107 16 165 60 211c48 52 109 73 210 73c108 0 175 -25 222 -85c35 -45 49 -100 49 -199v-168c0 -107 -16 -165 -60 -211c-48 -52 -109 -73 -211 -73c-107 0 -174 25 -221 85c-35 44 -49 101 -49 199zM451 286v142c0 130 -29 173 -116 173
c-88 0 -117 -43 -117 -173v-142c0 -130 29 -173 116 -173c88 0 117 43 117 173zM182 775l66 158h153l-118 -158h-101zM360 775l66 158h153l-119 -158h-100z" />
    <glyph glyph-name="Racute" unicode="&#x154;" horiz-adv-x="641" 
d="M235 284v-284h-154v714h271c96 0 147 -14 185 -52c36 -36 52 -84 52 -158c0 -123 -37 -182 -129 -208l154 -296h-170l-134 284h-75zM232 402h107c71 0 98 26 98 95s-27 95 -100 95h-105v-190zM244 775l84 158h162l-137 -158h-109z" />
    <glyph glyph-name="Rcaron" unicode="&#x158;" horiz-adv-x="641" 
d="M235 284v-284h-154v714h271c96 0 147 -14 185 -52c36 -36 52 -84 52 -158c0 -123 -37 -182 -129 -208l154 -296h-170l-134 284h-75zM232 402h107c71 0 98 26 98 95s-27 95 -100 95h-105v-190zM304 853l54 76h136l-137 -156h-106l-138 156h136z" />
    <glyph glyph-name="Sacute" unicode="&#x15a;" horiz-adv-x="574" 
d="M11 114l117 74c32 -52 79 -75 156 -75c75 0 112 29 112 85c0 28 -11 51 -30 63c-20 13 -20 13 -119 38c-148 37 -204 96 -204 215c0 136 87 211 243 211c115 0 192 -38 238 -116l-114 -73c-32 46 -71 66 -128 66c-58 0 -92 -29 -92 -79c0 -55 30 -78 133 -104
c91 -23 114 -31 150 -54c47 -32 70 -83 70 -160c0 -73 -19 -124 -59 -159c-44 -38 -113 -58 -201 -58c-79 0 -151 18 -200 48c-31 20 -50 41 -72 78zM211 775l84 158h162l-137 -158h-109z" />
    <glyph glyph-name="Scedilla" unicode="&#x15e;" horiz-adv-x="574" 
d="M11 114l117 74c32 -52 79 -75 156 -75c75 0 112 29 112 85c0 28 -11 51 -30 63c-20 13 -20 13 -119 38c-148 37 -204 96 -204 215c0 136 87 211 243 211c115 0 192 -38 238 -116l-114 -73c-32 46 -71 66 -128 66c-58 0 -92 -29 -92 -79c0 -55 30 -78 133 -104
c91 -23 114 -31 150 -54c47 -32 70 -83 70 -160c0 -73 -19 -124 -59 -159c-44 -38 -113 -58 -201 -58c-79 0 -151 18 -200 48c-31 20 -50 41 -72 78zM180 -243l49 182h138l-89 -182h-98z" />
    <glyph glyph-name="Tcaron" unicode="&#x164;" horiz-adv-x="556" 
d="M201 0v589h-190v125h533v-125h-189v-589h-154zM278 853l54 76h136l-137 -156h-106l-138 156h136z" />
    <glyph glyph-name="Uring" unicode="&#x16e;" horiz-adv-x="682" 
d="M77 714h154v-447c0 -58 4 -86 15 -108c17 -33 43 -46 95 -46c56 0 82 15 98 54c9 21 12 49 12 100v447h154v-447c0 -107 -10 -154 -44 -196c-47 -58 -111 -82 -220 -82c-115 0 -185 29 -229 95c-26 40 -35 85 -35 183v447zM342 1000c79 0 131 -46 131 -116
s-54 -119 -132 -119c-79 0 -133 49 -133 119c0 71 52 116 134 116zM341 934c-30 0 -45 -17 -45 -51s15 -52 44 -52c30 0 45 17 45 51s-15 52 -44 52z" />
    <glyph glyph-name="Uhungarumlaut" unicode="&#x170;" horiz-adv-x="682" 
d="M77 714h154v-447c0 -58 4 -86 15 -108c17 -33 43 -46 95 -46c56 0 82 15 98 54c9 21 12 49 12 100v447h154v-447c0 -107 -10 -154 -44 -196c-47 -58 -111 -82 -220 -82c-115 0 -185 29 -229 95c-26 40 -35 85 -35 183v447zM189 775l66 158h153l-118 -158h-101zM367 775
l66 158h153l-119 -158h-100z" />
    <glyph glyph-name="Zacute" unicode="&#x179;" horiz-adv-x="572" 
d="M53 0v101l285 488h-271v125h445v-101l-286 -488h300v-125h-473zM229 775l84 158h162l-137 -158h-109z" />
    <glyph glyph-name="Zdotaccent" unicode="&#x17b;" horiz-adv-x="572" 
d="M53 0v101l285 488h-271v125h445v-101l-286 -488h300v-125h-473zM228 777v134h141v-134h-141z" />
    <glyph glyph-name="Amacron" unicode="&#x100;" horiz-adv-x="623" 
d="M438 134h-250l-42 -134h-166l258 714h149l259 -714h-167zM401 256l-87 278l-89 -278h176zM150 795v103h324v-103h-324z" />
    <glyph glyph-name="Tcommaaccent" unicode="&#x162;" horiz-adv-x="556" 
d="M201 0v589h-190v125h533v-125h-189v-589h-154zM165 -243l49 182h138l-89 -182h-98z" />
    <glyph glyph-name="uni021A" unicode="&#x21a;" horiz-adv-x="556" 
d="M201 0v589h-190v125h533v-125h-189v-589h-154zM165 -243l49 182h138l-89 -182h-98z" />
    <glyph glyph-name="Ccircumflex" unicode="&#x108;" horiz-adv-x="620" 
d="M438 211l144 -17c-3 -65 -17 -102 -51 -138c-43 -45 -111 -67 -207 -67c-103 0 -168 26 -213 86c-34 46 -47 101 -47 203v156c0 110 15 168 57 215c47 52 107 74 203 74c162 0 240 -67 247 -212l-141 -10c-8 68 -40 98 -104 98c-82 0 -108 -43 -108 -177v-132
c0 -135 26 -177 109 -177c68 0 103 31 111 98zM323 852l-55 -76h-136l137 156h107l137 -156h-136z" />
    <glyph glyph-name="Wcircumflex" unicode="&#x174;" horiz-adv-x="933" 
d="M200 0l-182 714h154l105 -509l130 509h119l130 -509l106 509h154l-183 -714h-138l-128 471l-128 -471h-139zM467 852l-55 -76h-136l137 156h107l137 -156h-136z" />
    <glyph glyph-name="Wdieresis" unicode="&#x1e84;" horiz-adv-x="933" 
d="M200 0l-182 714h154l105 -509l130 509h119l130 -509l106 509h154l-183 -714h-138l-128 471l-128 -471h-139zM301 777v134h129v-134h-129zM504 777v134h129v-134h-129z" />
    <glyph glyph-name="Ycircumflex" unicode="&#x176;" horiz-adv-x="548" 
d="M199 0v257l-220 457h163l134 -305l134 305h163l-220 -457v-257h-154zM274 852l-55 -76h-136l137 156h107l137 -156h-136z" />
    <glyph glyph-name="Hbar" unicode="&#x126;" horiz-adv-x="679" 
d="M80 0v495h-77v108h77v111h154v-111h211v111h154v-111h77v-108h-77v-495h-154v298h-211v-298h-154zM234 423h211v72h-211v-72z" />
    <glyph glyph-name="Dbreve" horiz-adv-x="669" 
d="M80 0v714h249c193 3 281 -86 276 -279v-156c5 -193 -82 -281 -276 -279h-249zM234 122h67c116 -1 148 34 150 169v132c-2 135 -34 170 -150 169h-67v-470zM139 931h90c8 -49 28 -63 87 -63s79 14 87 63h89c-2 -60 -6 -79 -21 -103c-27 -44 -74 -64 -155 -64
c-87 0 -137 23 -162 75c-10 20 -13 39 -15 92z" />
    <glyph glyph-name="Emacron" unicode="&#x112;" horiz-adv-x="582" 
d="M81 0v714h451v-125h-299v-166h253v-125h-253v-173h303v-125h-455zM140 795v103h324v-103h-324z" />
    <glyph glyph-name="Gcircumflex" unicode="&#x11c;" horiz-adv-x="658" 
d="M344 283v117h260v-123c0 -105 -12 -156 -49 -203c-47 -59 -114 -85 -223 -85c-107 0 -174 26 -220 86c-35 46 -48 101 -48 203v155c0 111 16 169 59 216c47 52 109 74 207 74c166 0 247 -68 253 -212l-141 -10c-8 67 -42 98 -110 98c-86 0 -114 -43 -114 -177v-132
c0 -135 27 -177 116 -177c82 0 117 39 117 130v40h-107zM330 852l-55 -76h-136l137 156h107l137 -156h-136z" />
    <glyph glyph-name="Hcircumflex" unicode="&#x124;" horiz-adv-x="679" 
d="M80 0v714h154v-291h210v291h154v-714h-154v298h-210v-298h-154zM339 852l-55 -76h-136l137 156h107l137 -156h-136z" />
    <glyph glyph-name="Imacron" unicode="&#x12a;" horiz-adv-x="314" 
d="M80 0v714h154v-714h-154zM-5 795v103h324v-103h-324z" />
    <glyph glyph-name="Iogonek" unicode="&#x12e;" horiz-adv-x="314" 
d="M234 714v-714c-56 -42 -82 -76 -82 -105c0 -24 14 -37 42 -37c18 0 39 4 62 12l16 -70c-37 -16 -65 -21 -107 -21c-92 0 -141 33 -141 94c0 49 30 86 104 127h-48v714h154z" />
    <glyph glyph-name="Jcircumflex" unicode="&#x134;" horiz-adv-x="492" 
d="M262 714h154v-431c0 -122 -6 -165 -26 -204c-33 -60 -94 -90 -185 -90c-89 0 -152 26 -226 93l85 101c44 -48 83 -70 124 -70c35 0 57 18 67 56c5 22 7 46 7 112v433zM316 852l-55 -76h-136l137 156h107l137 -156h-136z" />
    <glyph glyph-name="Kcommaaccent" unicode="&#x136;" horiz-adv-x="615" 
d="M82 0v714h152v-288l210 288h180l-236 -294l247 -420h-179l-168 316l-54 -71v-245h-152zM220 -243l49 182h138l-89 -182h-98z" />
    <glyph glyph-name="Lcommaaccent" unicode="&#x13b;" horiz-adv-x="546" 
d="M80 0v714h154v-589h301v-125h-455zM194 -243l49 182h138l-89 -182h-98z" />
    <glyph glyph-name="Ncommaaccent" unicode="&#x145;" horiz-adv-x="711" 
d="M80 0v714h149l253 -457v457h149v-714h-149l-253 457v-457h-149zM264 -243l49 182h138l-89 -182h-98z" />
    <glyph glyph-name="Omacron" unicode="&#x14c;" horiz-adv-x="668" 
d="M64 273v168c0 107 16 165 60 211c48 52 109 73 210 73c108 0 175 -25 222 -85c35 -45 49 -100 49 -199v-168c0 -107 -16 -165 -60 -211c-48 -52 -109 -73 -211 -73c-107 0 -174 25 -221 85c-35 44 -49 101 -49 199zM451 286v142c0 130 -29 173 -116 173
c-88 0 -117 -43 -117 -173v-142c0 -130 29 -173 116 -173c88 0 117 43 117 173zM173 795v103h324v-103h-324z" />
    <glyph glyph-name="Rcommaaccent" unicode="&#x156;" horiz-adv-x="641" 
d="M235 284v-284h-154v714h271c96 0 147 -14 185 -52c36 -36 52 -84 52 -158c0 -123 -37 -182 -129 -208l154 -296h-170l-134 284h-75zM232 402h107c71 0 98 26 98 95s-27 95 -100 95h-105v-190zM228 -243l49 182h138l-89 -182h-98z" />
    <glyph glyph-name="Scircumflex" unicode="&#x15c;" horiz-adv-x="574" 
d="M11 114l117 74c32 -52 79 -75 156 -75c75 0 112 29 112 85c0 28 -11 51 -30 63c-20 13 -20 13 -119 38c-148 37 -204 96 -204 215c0 136 87 211 243 211c115 0 192 -38 238 -116l-114 -73c-32 46 -71 66 -128 66c-58 0 -92 -29 -92 -79c0 -55 30 -78 133 -104
c91 -23 114 -31 150 -54c47 -32 70 -83 70 -160c0 -73 -19 -124 -59 -159c-44 -38 -113 -58 -201 -58c-79 0 -151 18 -200 48c-31 20 -50 41 -72 78zM288 852l-55 -76h-136l137 156h107l137 -156h-136z" />
    <glyph glyph-name="Gcommaaccent" unicode="&#x122;" horiz-adv-x="658" 
d="M344 283v117h260v-123c0 -105 -12 -156 -49 -203c-47 -59 -114 -85 -223 -85c-107 0 -174 26 -220 86c-35 46 -48 101 -48 203v155c0 111 16 169 59 216c47 52 109 74 207 74c166 0 247 -68 253 -212l-141 -10c-8 67 -42 98 -110 98c-86 0 -114 -43 -114 -177v-132
c0 -135 27 -177 116 -177c82 0 117 39 117 130v40h-107zM230 -243l49 182h138l-89 -182h-98z" />
    <glyph glyph-name="uni01D3" unicode="&#x1d3;" horiz-adv-x="682" 
d="M77 714h154v-447c0 -58 4 -86 15 -108c17 -33 43 -46 95 -46c56 0 82 15 98 54c9 21 12 49 12 100v447h154v-447c0 -107 -10 -154 -44 -196c-47 -58 -111 -82 -220 -82c-115 0 -185 29 -229 95c-26 40 -35 85 -35 183v447zM341 853l54 76h136l-137 -156h-106l-138 156
h136z" />
    <glyph glyph-name="Umacron" unicode="&#x16a;" horiz-adv-x="682" 
d="M77 714h154v-447c0 -58 4 -86 15 -108c17 -33 43 -46 95 -46c56 0 82 15 98 54c9 21 12 49 12 100v447h154v-447c0 -107 -10 -154 -44 -196c-47 -58 -111 -82 -220 -82c-115 0 -185 29 -229 95c-26 40 -35 85 -35 183v447zM179 795v103h324v-103h-324z" />
    <glyph glyph-name="Uogonek" unicode="&#x172;" horiz-adv-x="682" 
d="M78 714h154v-447c0 -58 4 -86 15 -108c17 -33 43 -46 95 -46c56 0 82 15 98 54c9 21 12 49 12 100v447h154v-447c4 -150 -35 -223 -140 -262c-53 -45 -74 -76 -74 -110c0 -25 14 -37 43 -37c19 0 39 4 63 12l15 -70c-37 -16 -64 -21 -106 -21c-94 0 -143 33 -143 95
c0 43 23 81 70 115c-96 2 -145 18 -190 59c-52 49 -67 98 -66 219v447z" />
    <glyph glyph-name="uni0226" unicode="&#x226;" horiz-adv-x="623" 
d="M438 134h-250l-42 -134h-166l258 714h149l259 -714h-167zM401 256l-87 278l-89 -278h176zM241 777v134h141v-134h-141z" />
    <glyph glyph-name="Ebreve" unicode="&#x114;" horiz-adv-x="582" 
d="M81 0v714h451v-125h-299v-166h253v-125h-253v-173h303v-125h-455zM130 931h90c8 -49 28 -63 87 -63s79 14 87 63h89c-2 -60 -6 -79 -21 -103c-27 -44 -74 -64 -155 -64c-87 0 -137 23 -162 75c-10 20 -13 39 -15 92z" />
    <glyph glyph-name="uni1E1E" unicode="&#x1e1e;" horiz-adv-x="547" 
d="M81 0v714h444v-125h-290v-171h242v-125h-242v-293h-154zM241 777v134h141v-134h-141z" />
    <glyph glyph-name="uni01F4" unicode="&#x1f4;" horiz-adv-x="658" 
d="M344 283v117h260v-123c0 -105 -12 -156 -49 -203c-47 -59 -114 -85 -223 -85c-107 0 -174 26 -220 86c-35 46 -48 101 -48 203v155c0 111 16 169 59 216c47 52 109 74 207 74c166 0 247 -68 253 -212l-141 -10c-8 67 -42 98 -110 98c-86 0 -114 -43 -114 -177v-132
c0 -135 27 -177 116 -177c82 0 117 39 117 130v40h-107zM254 775l84 158h162l-137 -158h-109z" />
    <glyph glyph-name="Ibreve" unicode="&#x12c;" horiz-adv-x="314" 
d="M80 0v714h154v-714h-154zM-20 931h90c8 -49 28 -63 87 -63s79 14 87 63h89c-2 -60 -6 -79 -21 -103c-27 -44 -74 -64 -155 -64c-87 0 -137 23 -162 75c-10 20 -13 39 -15 92z" />
    <glyph glyph-name="ij" unicode="&#x133;" horiz-adv-x="571" 
d="M68 585v137h146v-137h-146zM68 0v518h146v-518h-146zM357 518h146v-494c3 -207 -47 -256 -261 -254v118c88 -3 116 27 115 122v508zM357 585v137h146v-137h-146z" />
    <glyph glyph-name="uni01CE" unicode="&#x1ce;" horiz-adv-x="536" 
d="M326 317v17c0 55 -24 80 -76 80c-39 0 -70 -16 -97 -50l-100 70c45 64 117 96 212 96c96 0 162 -33 189 -93c13 -29 18 -65 18 -130v-307h-114l-9 27c-32 -27 -70 -38 -137 -38c-127 0 -175 45 -175 164c0 125 47 164 194 164h95zM326 221h-77c-54 0 -75 -18 -75 -64
c0 -44 20 -59 76 -59c59 0 76 18 76 81v42zM269 657l54 76h136l-137 -156h-106l-138 156h136z" />
    <glyph glyph-name="abreve" unicode="&#x103;" horiz-adv-x="536" 
d="M326 317v17c0 55 -24 80 -76 80c-39 0 -70 -16 -97 -50l-100 70c45 64 117 96 212 96c96 0 162 -33 189 -93c13 -29 18 -65 18 -130v-307h-114l-9 27c-32 -27 -70 -38 -137 -38c-127 0 -175 45 -175 164c0 125 47 164 194 164h95zM326 221h-77c-54 0 -75 -18 -75 -64
c0 -44 20 -59 76 -59c59 0 76 18 76 81v42zM92 735h90c8 -49 28 -63 87 -63s79 14 87 63h89c-2 -60 -6 -79 -21 -103c-27 -44 -74 -64 -155 -64c-87 0 -137 23 -162 75c-10 20 -13 39 -15 92z" />
    <glyph glyph-name="aogonek" unicode="&#x105;" horiz-adv-x="536" 
d="M472 307v-307c-62 -46 -87 -76 -87 -106c0 -24 14 -36 43 -36c19 0 40 4 63 12l15 -70c-36 -15 -64 -21 -107 -21c-92 0 -142 33 -142 93c0 48 37 93 108 128h-7l-9 27c-32 -27 -70 -38 -137 -38c-127 0 -175 45 -175 164c0 125 47 164 194 164h95v17c0 55 -24 80 -76 80
c-39 0 -70 -16 -97 -50l-100 70c45 64 117 96 212 96c96 0 162 -33 189 -93c13 -29 18 -65 18 -130zM326 221h-77c-54 0 -75 -18 -75 -64c0 -44 20 -59 76 -59c59 0 76 18 76 81v42z" />
    <glyph glyph-name="cacute" unicode="&#x107;" horiz-adv-x="481" 
d="M368 156l108 -60c-43 -73 -108 -107 -205 -107c-84 0 -147 29 -183 85c-25 39 -36 93 -36 171v26c0 89 14 145 45 186c37 48 94 73 169 73c97 0 162 -34 201 -107l-107 -61c-24 38 -46 52 -83 52c-54 0 -79 -41 -79 -129v-55c0 -84 27 -125 84 -125c38 0 63 14 86 51z
M203 579l84 158h162l-137 -158h-109z" />
    <glyph glyph-name="ccaron" unicode="&#x10d;" horiz-adv-x="481" 
d="M368 156l108 -60c-43 -73 -108 -107 -205 -107c-84 0 -147 29 -183 85c-25 39 -36 93 -36 171v26c0 89 14 145 45 186c37 48 94 73 169 73c97 0 162 -34 201 -107l-107 -61c-24 38 -46 52 -83 52c-54 0 -79 -41 -79 -129v-55c0 -84 27 -125 84 -125c38 0 63 14 86 51z
M274 657l54 76h136l-137 -156h-106l-138 156h136z" />
    <glyph glyph-name="cdotaccent" unicode="&#x10b;" horiz-adv-x="481" 
d="M368 156l108 -60c-43 -73 -108 -107 -205 -107c-84 0 -147 29 -183 85c-25 39 -36 93 -36 171v26c0 89 14 145 45 186c37 48 94 73 169 73c97 0 162 -34 201 -107l-107 -61c-24 38 -46 52 -83 52c-54 0 -79 -41 -79 -129v-55c0 -84 27 -125 84 -125c38 0 63 14 86 51z
M197 581v134h141v-134h-141z" />
    <glyph glyph-name="dcaron" unicode="&#x10f;" horiz-adv-x="696" 
d="M388 0l-9 32c-4 -3 -7 -6 -8 -6c-31 -27 -66 -37 -124 -37c-138 0 -195 68 -195 233v75c0 163 58 233 192 233c33 0 57 -4 83 -15c4 -2 4 -2 18 -10c4 -2 4 -2 9 -5v214h146v-714h-112zM197 286v-53c0 -90 23 -128 79 -128c54 0 78 31 78 99v111c0 68 -25 99 -79 99
s-78 -39 -78 -128zM553 442l35 291h137l-70 -291h-102z" />
    <glyph glyph-name="ecaron" unicode="&#x11b;" horiz-adv-x="551" 
d="M198 222v-13c0 -71 33 -108 96 -108c48 0 77 15 102 55l107 -61c-44 -76 -108 -106 -225 -106c-162 0 -226 71 -226 250v33c0 92 12 145 43 185c36 49 96 73 184 73c162 0 227 -74 227 -258v-50h-308zM197 321h172v12c0 58 -31 91 -87 91c-53 0 -85 -34 -85 -91v-12z
M283 657l54 76h136l-137 -156h-106l-138 156h136z" />
    <glyph glyph-name="edotaccent" unicode="&#x117;" horiz-adv-x="551" 
d="M198 222v-13c0 -71 33 -108 96 -108c48 0 77 15 102 55l107 -61c-44 -76 -108 -106 -225 -106c-162 0 -226 71 -226 250v33c0 92 12 145 43 185c36 49 96 73 184 73c162 0 227 -74 227 -258v-50h-308zM197 321h172v12c0 58 -31 91 -87 91c-53 0 -85 -34 -85 -91v-12z
M211 581v134h141v-134h-141z" />
    <glyph glyph-name="eogonek" unicode="&#x119;" horiz-adv-x="551" 
d="M201 222v-13c0 -72 33 -109 96 -109c48 0 77 15 102 56l107 -61c-21 -38 -54 -69 -91 -85l-13 -9c-47 -34 -73 -71 -73 -106c0 -25 14 -37 43 -37c18 0 38 4 62 12l15 -70c-37 -16 -64 -21 -106 -21c-93 0 -142 33 -142 94c0 45 20 77 71 116c-153 1 -220 78 -217 250v33
c0 92 12 145 43 186c36 48 97 72 185 72c161 0 226 -74 226 -258v-50h-308zM200 321h172v12c0 58 -31 91 -87 91c-53 0 -85 -34 -85 -91v-12z" />
    <glyph glyph-name="gcaron" unicode="&#x1e7;" horiz-adv-x="568" 
d="M354 3v14c-31 -20 -63 -28 -110 -28c-135 0 -192 69 -192 233v75c0 164 57 233 194 233c57 0 96 -13 128 -41l14 29h112v-498c0 -87 -15 -143 -49 -184c-39 -47 -105 -72 -188 -72c-100 0 -164 34 -202 107l108 60c24 -41 47 -55 89 -55c66 0 94 37 96 127zM197 286v-53
c0 -90 23 -128 79 -128c53 0 78 31 78 99v111c0 68 -25 99 -79 99s-78 -39 -78 -128zM297 657l54 76h136l-137 -156h-106l-138 156h136z" />
    <glyph glyph-name="gbreve" unicode="&#x11f;" horiz-adv-x="568" 
d="M354 3v14c-31 -20 -63 -28 -110 -28c-135 0 -192 69 -192 233v75c0 164 57 233 194 233c57 0 96 -13 128 -41l14 29h112v-498c0 -87 -15 -143 -49 -184c-39 -47 -105 -72 -188 -72c-100 0 -164 34 -202 107l108 60c24 -41 47 -55 89 -55c66 0 94 37 96 127zM197 286v-53
c0 -90 23 -128 79 -128c53 0 78 31 78 99v111c0 68 -25 99 -79 99s-78 -39 -78 -128zM123 735h90c8 -49 28 -63 87 -63s79 14 87 63h89c-2 -60 -6 -79 -21 -103c-27 -44 -74 -64 -155 -64c-87 0 -137 23 -162 75c-10 20 -13 39 -15 92z" />
    <glyph glyph-name="gdotaccent" unicode="&#x121;" horiz-adv-x="568" 
d="M354 3v14c-31 -20 -63 -28 -110 -28c-135 0 -192 69 -192 233v75c0 164 57 233 194 233c57 0 96 -13 128 -41l14 29h112v-498c0 -87 -15 -143 -49 -184c-39 -47 -105 -72 -188 -72c-100 0 -164 34 -202 107l108 60c24 -41 47 -55 89 -55c66 0 94 37 96 127zM197 286v-53
c0 -90 23 -128 79 -128c53 0 78 31 78 99v111c0 68 -25 99 -79 99s-78 -39 -78 -128zM235 581v134h141v-134h-141z" />
    <glyph glyph-name="lacute" unicode="&#x13a;" horiz-adv-x="315" 
d="M66 714h146v-492c0 -81 20 -105 90 -104h15v-118h-21c-188 0 -230 43 -230 237v477zM81 775l84 158h162l-137 -158h-109z" />
    <glyph glyph-name="lcaron" unicode="&#x13e;" horiz-adv-x="415" 
d="M66 714h146v-492c0 -81 20 -105 90 -104h15v-118h-21c-188 0 -230 43 -230 237v477zM269 442l35 291h137l-70 -291h-102z" />
    <glyph glyph-name="nacute" unicode="&#x144;" horiz-adv-x="573" 
d="M67 0v518h109l12 -39c35 37 72 51 136 51c86 0 145 -35 170 -100c11 -29 15 -67 15 -134v-296h-146v279c0 92 -20 127 -73 127c-57 0 -77 -36 -77 -137v-269h-146zM223 579l84 158h162l-137 -158h-109z" />
    <glyph glyph-name="ncaron" unicode="&#x148;" horiz-adv-x="573" 
d="M67 0v518h109l12 -39c35 37 72 51 136 51c86 0 145 -35 170 -100c11 -29 15 -67 15 -134v-296h-146v279c0 92 -20 127 -73 127c-57 0 -77 -36 -77 -137v-269h-146zM278 657l54 76h136l-137 -156h-106l-138 156h136z" />
    <glyph glyph-name="ohungarumlaut" unicode="&#x151;" horiz-adv-x="560" 
d="M52 220v78c0 164 67 232 229 232c161 0 228 -68 228 -232v-78c0 -164 -66 -231 -229 -231c-162 0 -228 67 -228 231zM363 231v56c0 92 -23 127 -82 127c-60 0 -83 -35 -83 -127v-56c0 -91 23 -126 83 -126c59 0 82 35 82 126zM128 579l66 158h153l-118 -158h-101z
M306 579l66 158h153l-119 -158h-100z" />
    <glyph glyph-name="racute" unicode="&#x155;" horiz-adv-x="399" 
d="M67 0v518h111l19 -33c36 35 59 45 99 45c38 0 70 -9 116 -35l-63 -119c-26 21 -46 29 -68 29c-48 0 -68 -46 -68 -156v-249h-146zM142 579l84 158h162l-137 -158h-109z" />
    <glyph glyph-name="sacute" unicode="&#x15b;" horiz-adv-x="497" 
d="M18 95l107 61c27 -42 50 -54 106 -54c63 0 92 18 92 56c0 28 -16 40 -60 44c-92 10 -114 14 -148 30c-47 22 -71 65 -71 128c0 109 70 170 194 170c102 0 168 -34 211 -107l-108 -61c-24 41 -47 54 -93 54c-43 0 -67 -18 -67 -50c0 -30 17 -40 79 -46
c156 -15 200 -51 200 -164c0 -115 -70 -167 -223 -167c-113 0 -184 35 -219 106zM171 579l84 158h162l-137 -158h-109z" />
    <glyph glyph-name="scircumflex" unicode="&#x15d;" horiz-adv-x="497" 
d="M18 95l107 61c27 -42 50 -54 106 -54c63 0 92 18 92 56c0 28 -16 40 -60 44c-92 10 -114 14 -148 30c-47 22 -71 65 -71 128c0 109 70 170 194 170c102 0 168 -34 211 -107l-108 -61c-24 41 -47 54 -93 54c-43 0 -67 -18 -67 -50c0 -30 17 -40 79 -46
c156 -15 200 -51 200 -164c0 -115 -70 -167 -223 -167c-113 0 -184 35 -219 106zM247 656l-55 -76h-136l137 156h107l137 -156h-136z" />
    <glyph glyph-name="scommaaccent" unicode="&#x219;" horiz-adv-x="497" 
d="M18 95l107 61c27 -42 50 -54 106 -54c63 0 92 18 92 56c0 28 -16 40 -60 44c-92 10 -114 14 -148 30c-47 22 -71 65 -71 128c0 109 70 170 194 170c102 0 168 -34 211 -107l-108 -61c-24 41 -47 54 -93 54c-43 0 -67 -18 -67 -50c0 -30 17 -40 79 -46
c156 -15 200 -51 200 -164c0 -115 -70 -167 -223 -167c-113 0 -184 35 -219 106zM132 -243l49 182h138l-89 -182h-98z" />
    <glyph glyph-name="tcaron" unicode="&#x165;" horiz-adv-x="452" 
d="M79 403h-56v115h56l9 146h137v-146h103v-115h-103v-181c0 -81 21 -106 90 -104h12v-118h-17c-193 0 -232 40 -231 237v166zM312 564l31 239h137l-66 -239h-102z" />
    <glyph glyph-name="uring" unicode="&#x16f;" horiz-adv-x="562" 
d="M64 518h146v-279c0 -92 19 -126 69 -126c51 0 70 37 70 136v269h146v-518h-98l-19 43c-28 -39 -65 -54 -131 -54c-87 0 -144 34 -168 100c-10 27 -15 69 -15 133v296zM283 804c79 0 131 -46 131 -116c0 -71 -54 -119 -132 -119c-79 0 -133 48 -133 119s52 116 134 116z
M282 738c-30 0 -45 -17 -45 -51s15 -52 44 -52c30 0 45 17 45 51s-15 52 -44 52z" />
    <glyph glyph-name="uhungarumlaut" unicode="&#x171;" horiz-adv-x="562" 
d="M64 518h146v-279c0 -92 19 -126 69 -126c51 0 70 37 70 136v269h146v-518h-98l-19 43c-28 -39 -65 -54 -131 -54c-87 0 -144 34 -168 100c-10 27 -15 69 -15 133v296zM129 579l66 158h153l-118 -158h-101zM307 579l66 158h153l-119 -158h-100z" />
    <glyph glyph-name="zacute" unicode="&#x17a;" horiz-adv-x="485" 
d="M32 0v91l212 310h-194v117h374v-92l-212 -309h227v-117h-407zM185 579l84 158h162l-137 -158h-109z" />
    <glyph glyph-name="zdotaccent" unicode="&#x17c;" horiz-adv-x="485" 
d="M32 0v91l212 310h-194v117h374v-92l-212 -309h227v-117h-407zM177 581v134h141v-134h-141z" />
    <glyph glyph-name="hbar" unicode="&#x127;" horiz-adv-x="573" 
d="M68 561h-76v95h76v58h146v-58h138v-95h-138v-62c42 24 66 31 113 31c83 0 143 -36 167 -100c11 -29 15 -67 15 -134v-296h-146v286c0 83 -23 120 -74 120c-53 0 -75 -38 -75 -127v-279h-146v561z" />
    <glyph glyph-name="tcommaaccent" unicode="&#x163;" horiz-adv-x="352" 
d="M79 403h-56v115h56l9 146h137v-146h103v-115h-103v-181c0 -81 21 -106 90 -104h12v-118h-17c-193 0 -232 40 -231 237v166zM87 -243l49 182h138l-89 -182h-98z" />
    <glyph glyph-name="uni021B" unicode="&#x21b;" horiz-adv-x="352" 
d="M79 403h-56v115h56l9 146h137v-146h103v-115h-103v-181c0 -81 21 -106 90 -104h12v-118h-17c-193 0 -232 40 -231 237v166zM87 -243l49 182h138l-89 -182h-98z" />
    <glyph glyph-name="wcircumflex" unicode="&#x175;" horiz-adv-x="781" 
d="M174 0l-152 518h148l74 -343l95 343h104l95 -343l74 343h148l-152 -518h-125l-92 300l-91 -300h-126zM391 656l-55 -76h-136l137 156h107l137 -156h-136z" />
    <glyph glyph-name="wdieresis" unicode="&#x1e85;" horiz-adv-x="781" 
d="M174 0l-152 518h148l74 -343l95 343h104l95 -343l74 343h148l-152 -518h-125l-92 300l-91 -300h-126zM227 581v134h129v-134h-129zM425 581v134h129v-134h-129z" />
    <glyph glyph-name="amacron" unicode="&#x101;" horiz-adv-x="536" 
d="M326 317v17c0 55 -24 80 -76 80c-39 0 -70 -16 -97 -50l-100 70c45 64 117 96 212 96c96 0 162 -33 189 -93c13 -29 18 -65 18 -130v-307h-114l-9 27c-32 -27 -70 -38 -137 -38c-127 0 -175 45 -175 164c0 125 47 164 194 164h95zM326 221h-77c-54 0 -75 -18 -75 -64
c0 -44 20 -59 76 -59c59 0 76 18 76 81v42zM107 599v103h324v-103h-324z" />
    <glyph glyph-name="ycircumflex" unicode="&#x177;" horiz-adv-x="513" 
d="M181 13l-171 505h147l100 -349l96 349h148l-180 -546c-63 -180 -92 -201 -276 -202v118c85 -1 97 8 126 95zM256 656l-55 -76h-136l137 156h107l137 -156h-136z" />
    <glyph glyph-name="ccircumflex" unicode="&#x109;" horiz-adv-x="481" 
d="M368 156l108 -60c-43 -73 -108 -107 -205 -107c-84 0 -147 29 -183 85c-25 39 -36 93 -36 171v26c0 89 14 145 45 186c37 48 94 73 169 73c97 0 162 -34 201 -107l-107 -61c-24 38 -46 52 -83 52c-54 0 -79 -41 -79 -129v-55c0 -84 27 -125 84 -125c38 0 63 14 86 51z
M273 656l-55 -76h-136l137 156h107l137 -156h-136z" />
    <glyph glyph-name="emacron" unicode="&#x113;" horiz-adv-x="551" 
d="M198 222v-13c0 -71 33 -108 96 -108c48 0 77 15 102 55l107 -61c-44 -76 -108 -106 -225 -106c-162 0 -226 71 -226 250v33c0 92 12 145 43 185c36 49 96 73 184 73c162 0 227 -74 227 -258v-50h-308zM197 321h172v12c0 58 -31 91 -87 91c-53 0 -85 -34 -85 -91v-12z
M121 599v103h324v-103h-324z" />
    <glyph glyph-name="gcircumflex" unicode="&#x11d;" horiz-adv-x="568" 
d="M354 3v14c-31 -20 -63 -28 -110 -28c-135 0 -192 69 -192 233v75c0 164 57 233 194 233c57 0 96 -13 128 -41l14 29h112v-498c0 -87 -15 -143 -49 -184c-39 -47 -105 -72 -188 -72c-100 0 -164 34 -202 107l108 60c24 -41 47 -55 89 -55c66 0 94 37 96 127zM197 286v-53
c0 -90 23 -128 79 -128c53 0 78 31 78 99v111c0 68 -25 99 -79 99s-78 -39 -78 -128zM291 656l-55 -76h-136l137 156h107l137 -156h-136z" />
    <glyph glyph-name="ibreve" unicode="&#x12d;" horiz-adv-x="283" 
d="M69 0v518h146v-518h-146zM-35 735h90c8 -49 28 -63 87 -63s79 14 87 63h89c-2 -60 -6 -79 -21 -103c-27 -44 -74 -64 -155 -64c-87 0 -137 23 -162 75c-10 20 -13 39 -15 92z" />
    <glyph glyph-name="imacron" unicode="&#x12b;" horiz-adv-x="283" 
d="M69 0v518h146v-518h-146zM-20 599v103h324v-103h-324z" />
    <glyph glyph-name="jcircumflex" unicode="&#x135;" horiz-adv-x="289" 
d="M71 518h146v-494c3 -207 -47 -256 -261 -254v118c88 -3 117 27 115 122v508zM141 656l-55 -76h-136l137 156h107l137 -156h-136z" />
    <glyph glyph-name="kcommaaccent" unicode="&#x137;" horiz-adv-x="538" 
d="M68 0v714h146v-414l164 218h165l-179 -220l185 -298h-159l-113 193l-63 -79v-114h-146zM180 -243l49 182h138l-89 -182h-98z" />
    <glyph glyph-name="lcommaaccent" unicode="&#x13c;" horiz-adv-x="315" 
d="M64 714h146v-492c0 -81 20 -105 90 -104h15v-118h-21c-188 0 -230 43 -230 237v477zM67 -243l49 182h138l-89 -182h-98z" />
    <glyph glyph-name="ncommaaccent" unicode="&#x146;" horiz-adv-x="573" 
d="M67 0v518h109l12 -39c35 37 72 51 136 51c86 0 145 -35 170 -100c11 -29 15 -67 15 -134v-296h-146v279c0 92 -20 127 -73 127c-57 0 -77 -36 -77 -137v-269h-146zM189 -243l49 182h138l-89 -182h-98z" />
    <glyph glyph-name="omacron" unicode="&#x14d;" horiz-adv-x="560" 
d="M52 220v78c0 164 67 232 229 232c161 0 228 -68 228 -232v-78c0 -164 -66 -231 -229 -231c-162 0 -228 67 -228 231zM363 231v56c0 92 -23 127 -82 127c-60 0 -83 -35 -83 -127v-56c0 -91 23 -126 83 -126c59 0 82 35 82 126zM119 599v103h324v-103h-324z" />
    <glyph glyph-name="rcommaaccent" unicode="&#x157;" horiz-adv-x="399" 
d="M68 0v518h111l19 -33c37 35 59 45 99 45c38 0 70 -9 116 -35l-63 -119c-27 21 -46 29 -68 29c-48 0 -68 -46 -68 -156v-249h-146zM19 -243l49 182h138l-89 -182h-98z" />
    <glyph glyph-name="ubreve" unicode="&#x16d;" horiz-adv-x="562" 
d="M64 518h146v-279c0 -92 19 -126 69 -126c51 0 70 37 70 136v269h146v-518h-98l-19 43c-28 -39 -65 -54 -131 -54c-87 0 -144 34 -168 100c-10 27 -15 69 -15 133v296zM105 735h90c8 -49 28 -63 87 -63s79 14 87 63h89c-2 -60 -6 -79 -21 -103c-27 -44 -74 -64 -155 -64
c-87 0 -137 23 -162 75c-10 20 -13 39 -15 92z" />
    <glyph glyph-name="umacron" unicode="&#x16b;" horiz-adv-x="562" 
d="M64 518h146v-279c0 -92 19 -126 69 -126c51 0 70 37 70 136v269h146v-518h-98l-19 43c-28 -39 -65 -54 -131 -54c-87 0 -144 34 -168 100c-10 27 -15 69 -15 133v296zM120 599v103h324v-103h-324z" />
    <glyph glyph-name="uogonek" unicode="&#x173;" horiz-adv-x="562" 
d="M495 518v-518c-62 -46 -87 -76 -87 -106c0 -24 14 -36 43 -36c19 0 39 4 63 12l15 -70c-36 -15 -64 -21 -107 -21c-92 0 -141 33 -141 93c0 51 40 97 114 131l-17 40c-28 -39 -65 -54 -131 -54c-87 0 -144 34 -168 100c-10 27 -15 69 -15 133v296h146v-279
c0 -92 19 -126 69 -126c51 0 70 37 70 136v269h146z" />
    <glyph glyph-name="rcaron" unicode="&#x159;" horiz-adv-x="399" 
d="M67 0v518h111l19 -33c38 36 59 45 99 45c38 0 70 -9 116 -35l-63 -119c-27 21 -46 29 -68 29c-48 0 -68 -46 -68 -156v-249h-146zM222 657l54 76h136l-137 -156h-106l-138 156h136z" />
    <glyph glyph-name="scedilla" unicode="&#x15f;" horiz-adv-x="497" 
d="M18 95l107 61c27 -42 50 -54 106 -54c63 0 92 18 92 56c0 28 -16 40 -60 44c-92 10 -114 14 -148 30c-47 22 -71 65 -71 128c0 109 70 170 194 170c102 0 168 -34 211 -107l-108 -61c-24 41 -47 54 -93 54c-43 0 -67 -18 -67 -50c0 -30 17 -40 79 -46
c156 -15 200 -51 200 -164c0 -115 -70 -167 -223 -167c-113 0 -184 35 -219 106zM139 -243l49 182h138l-89 -182h-98z" />
    <glyph glyph-name="gcommaaccent" unicode="&#x123;" horiz-adv-x="568" 
d="M354 3v14c-31 -20 -63 -28 -110 -28c-135 0 -192 69 -192 233v75c0 164 57 233 194 233c57 0 96 -13 128 -41l14 29h112v-498c0 -87 -15 -143 -49 -184c-39 -47 -105 -72 -188 -72c-100 0 -164 34 -202 107l108 60c24 -41 47 -55 89 -55c66 0 94 37 96 127zM197 286v-53
c0 -90 23 -128 79 -128c53 0 78 31 78 99v111c0 68 -25 99 -79 99s-78 -39 -78 -128zM208 579l137 158h109l-84 -158h-162z" />
    <glyph glyph-name="ahungarumlaut" horiz-adv-x="536" 
d="M326 317v17c0 55 -24 80 -76 80c-39 0 -70 -16 -97 -50l-100 70c45 64 117 96 212 96c96 0 162 -33 189 -93c13 -29 18 -65 18 -130v-307h-114l-9 27c-32 -27 -70 -38 -137 -38c-127 0 -175 45 -175 164c0 125 47 164 194 164h95zM326 221h-77c-54 0 -75 -18 -75 -64
c0 -44 20 -59 76 -59c59 0 76 18 76 81v42zM116 579l66 158h153l-118 -158h-101zM294 579l66 158h153l-119 -158h-100z" />
    <glyph glyph-name="uni0227" unicode="&#x227;" horiz-adv-x="536" 
d="M326 317v17c0 55 -24 80 -76 80c-39 0 -70 -16 -97 -50l-100 70c45 64 117 96 212 96c96 0 162 -33 189 -93c13 -29 18 -65 18 -130v-307h-114l-9 27c-32 -27 -70 -38 -137 -38c-127 0 -175 45 -175 164c0 125 47 164 194 164h95zM326 221h-77c-54 0 -75 -18 -75 -64
c0 -44 20 -59 76 -59c59 0 76 18 76 81v42zM207 581v134h141v-134h-141z" />
    <glyph glyph-name="uni1E1F" unicode="&#x1e1f;" horiz-adv-x="352" 
d="M89 403h-58v115h58v44c0 118 45 155 182 152h64v-107h-33c-58 1 -67 -6 -67 -56v-33h105v-115h-105v-403h-146v403zM143 777v134h141v-134h-141z" />
    <glyph glyph-name="uni0204" unicode="&#x204;" horiz-adv-x="582" 
d="M73 0v714h451v-125h-299v-166h253v-125h-253v-173h303v-125h-455zM457 775h-101l-118 158h153zM279 775h-100l-119 158h153z" />
    <glyph glyph-name="uni0205" unicode="&#x205;" horiz-adv-x="551" 
d="M191 222v-13c0 -71 33 -108 97 -108c47 0 76 15 101 55l107 -61c-44 -76 -108 -106 -225 -106c-161 0 -226 72 -226 250v33c0 184 65 258 227 258s227 -74 227 -258v-50h-308zM190 321h172v12c0 58 -31 91 -87 91c-53 0 -85 -34 -85 -91v-12zM435 579h-101l-118 158h153z
M257 579h-100l-119 158h153z" />
    <glyph glyph-name="uni0206" unicode="&#x206;" horiz-adv-x="582" 
d="M81 0v714h451v-125h-299v-166h253v-125h-253v-173h303v-125h-455zM482 774h-89c-9 49 -28 63 -87 63s-79 -14 -87 -63h-90c3 60 7 79 21 103c27 44 75 64 155 64c87 0 138 -23 162 -75c10 -21 13 -40 15 -92z" />
    <glyph glyph-name="uni0207" unicode="&#x207;" horiz-adv-x="551" 
d="M198 222v-13c0 -71 33 -108 96 -108c48 0 77 15 102 55l107 -61c-44 -76 -108 -106 -225 -106c-162 0 -226 71 -226 250v33c0 92 12 145 43 185c36 49 96 73 184 73c162 0 227 -74 227 -258v-50h-308zM197 321h172v12c0 58 -31 91 -87 91c-53 0 -85 -34 -85 -91v-12z
M455 578h-89c-9 49 -28 63 -87 63s-79 -15 -87 -63h-90c3 60 7 79 21 103c27 44 75 64 155 64c87 0 138 -23 162 -75c10 -20 13 -40 15 -92z" />
    <glyph glyph-name="uni0208" unicode="&#x208;" horiz-adv-x="314" 
d="M80 0v714h154v-714h-154zM309 775h-101l-118 158h153zM131 775h-100l-119 158h153z" />
    <glyph glyph-name="uni0209" unicode="&#x209;" horiz-adv-x="283" 
d="M69 0v518h146v-518h-146zM294 579h-101l-118 158h153zM116 579h-100l-119 158h153z" />
    <glyph glyph-name="uni020A" unicode="&#x20a;" horiz-adv-x="314" 
d="M81 0v714h154v-714h-154zM334 774h-89c-9 49 -28 63 -87 63s-79 -14 -87 -63h-90c3 60 7 79 21 103c27 44 75 64 155 64c87 0 138 -23 162 -75c10 -21 13 -40 15 -92z" />
    <glyph glyph-name="uni020B" unicode="&#x20b;" horiz-adv-x="283" 
d="M69 0v518h146v-518h-146zM318 578h-89c-9 49 -28 63 -87 63s-79 -15 -87 -63h-90c3 60 7 79 21 103c27 44 75 64 155 64c87 0 138 -23 162 -75c10 -20 13 -40 15 -92z" />
    <glyph glyph-name="uni020C" unicode="&#x20c;" horiz-adv-x="668" 
d="M64 273v168c0 107 16 165 60 211c48 52 109 73 210 73c108 0 175 -25 222 -85c35 -45 49 -100 49 -199v-168c0 -107 -16 -165 -60 -211c-48 -52 -109 -73 -211 -73c-107 0 -174 25 -221 85c-35 44 -49 101 -49 199zM451 286v142c0 130 -29 173 -116 173
c-88 0 -117 -43 -117 -173v-142c0 -130 29 -173 116 -173c88 0 117 43 117 173zM486 775h-101l-118 158h153zM308 775h-100l-119 158h153z" />
    <glyph glyph-name="uni020D" unicode="&#x20d;" horiz-adv-x="560" 
d="M45 220v78c0 164 67 232 229 232c161 0 228 -68 228 -232v-78c0 -164 -66 -231 -229 -231c-162 0 -228 67 -228 231zM356 231v56c0 92 -23 127 -83 127c-59 0 -82 -35 -82 -127v-56c0 -91 23 -126 82 -126c60 0 83 35 83 126zM426 579h-101l-118 158h153zM248 579h-100
l-119 158h153z" />
    <glyph glyph-name="uni020E" unicode="&#x20e;" horiz-adv-x="668" 
d="M64 273v168c0 107 16 165 60 211c48 52 109 73 210 73c108 0 175 -25 222 -85c35 -45 49 -100 49 -199v-168c0 -107 -16 -165 -60 -211c-48 -52 -109 -73 -211 -73c-107 0 -174 25 -221 85c-35 44 -49 101 -49 199zM451 286v142c0 130 -29 173 -116 173
c-88 0 -117 -43 -117 -173v-142c0 -130 29 -173 116 -173c88 0 117 43 117 173zM511 774h-89c-9 49 -28 63 -87 63s-79 -14 -87 -63h-90c3 60 7 79 21 103c27 44 75 64 155 64c87 0 138 -23 162 -75c10 -21 13 -40 15 -92z" />
    <glyph glyph-name="uni020F" unicode="&#x20f;" horiz-adv-x="560" 
d="M52 220v78c0 164 67 232 229 232c161 0 228 -68 228 -232v-78c0 -164 -66 -231 -229 -231c-162 0 -228 67 -228 231zM363 231v56c0 92 -23 127 -82 127c-60 0 -83 -35 -83 -127v-56c0 -91 23 -126 83 -126c59 0 82 35 82 126zM457 578h-89c-9 49 -28 63 -87 63
s-79 -15 -87 -63h-90c3 60 7 79 21 103c27 44 75 64 155 64c87 0 138 -23 162 -75c10 -20 13 -40 15 -92z" />
    <glyph glyph-name="uni0210" unicode="&#x210;" horiz-adv-x="641" 
d="M231 284v-284h-154v714h271c96 0 147 -14 185 -52c36 -36 52 -84 52 -158c0 -123 -37 -182 -129 -208l154 -296h-170l-134 284h-75zM228 402h107c71 0 98 26 98 95s-27 95 -100 95h-105v-190zM451 775h-101l-118 158h153zM273 775h-100l-119 158h153z" />
    <glyph glyph-name="uni0211" unicode="&#x211;" horiz-adv-x="399" 
d="M67 0v518h111l19 -33c36 35 59 45 99 45c38 0 70 -9 116 -35l-63 -119c-26 21 -46 29 -68 29c-48 0 -68 -46 -68 -156v-249h-146zM360 579h-101l-118 158h153zM182 579h-100l-119 158h153z" />
    <glyph glyph-name="uni0212" unicode="&#x212;" horiz-adv-x="641" 
d="M235 284v-284h-154v714h271c96 0 147 -14 185 -52c36 -36 52 -84 52 -158c0 -123 -37 -182 -129 -208l154 -296h-170l-134 284h-75zM232 402h107c71 0 98 26 98 95s-27 95 -100 95h-105v-190zM478 774h-89c-9 49 -28 63 -87 63s-79 -14 -87 -63h-90c3 60 7 79 21 103
c27 44 75 64 155 64c87 0 138 -23 162 -75c10 -21 13 -40 15 -92z" />
    <glyph glyph-name="uni0213" unicode="&#x213;" horiz-adv-x="399" 
d="M67 0v518h111l19 -33c36 35 59 45 99 45c38 0 70 -9 116 -35l-63 -119c-26 21 -46 29 -68 29c-48 0 -68 -46 -68 -156v-249h-146zM391 578h-89c-9 49 -28 63 -87 63s-79 -15 -87 -63h-90c3 60 7 79 21 103c27 44 75 64 155 64c87 0 138 -23 162 -75c10 -20 13 -40 15 -92
z" />
    <glyph glyph-name="uni0214" unicode="&#x214;" horiz-adv-x="682" 
d="M77 714h154v-447c0 -58 4 -86 15 -108c17 -33 43 -46 95 -46c56 0 82 15 98 54c9 21 12 49 12 100v447h154v-447c0 -107 -10 -154 -44 -196c-47 -58 -111 -82 -220 -82c-115 0 -185 29 -229 95c-26 40 -35 85 -35 183v447zM493 775h-101l-118 158h153zM315 775h-100
l-119 158h153z" />
    <glyph glyph-name="uni0215" unicode="&#x215;" horiz-adv-x="562" 
d="M61 518h146v-279c0 -92 19 -126 69 -126c52 0 71 37 71 136v269h146v-518h-98l-19 43c-28 -39 -65 -54 -132 -54c-87 0 -144 34 -168 100c-10 27 -15 69 -15 133v296zM431 579h-101l-118 158h153zM253 579h-100l-119 158h153z" />
    <glyph glyph-name="uni0216" unicode="&#x216;" horiz-adv-x="682" 
d="M77 714h154v-447c0 -58 4 -86 15 -108c17 -33 43 -46 95 -46c56 0 82 15 98 54c9 21 12 49 12 100v447h154v-447c0 -107 -10 -154 -44 -196c-47 -58 -111 -82 -220 -82c-115 0 -185 29 -229 95c-26 40 -35 85 -35 183v447zM517 774h-89c-9 49 -28 63 -87 63
s-79 -14 -87 -63h-90c3 60 7 79 21 103c27 44 75 64 155 64c87 0 138 -23 162 -75c10 -21 13 -40 15 -92z" />
    <glyph glyph-name="uni0217" unicode="&#x217;" horiz-adv-x="562" 
d="M64 518h146v-279c0 -92 19 -126 69 -126c51 0 70 37 70 136v269h146v-518h-98l-19 43c-28 -39 -65 -54 -131 -54c-87 0 -144 34 -168 100c-10 27 -15 69 -15 133v296zM458 578h-89c-9 49 -28 63 -87 63s-79 -15 -87 -63h-90c3 60 7 79 21 103c27 44 75 64 155 64
c87 0 138 -23 162 -75c10 -20 13 -40 15 -92z" />
    <glyph glyph-name="uni1E24" unicode="&#x1e24;" horiz-adv-x="679" 
d="M80 0v714h154v-291h210v291h154v-714h-154v298h-210v-298h-154zM268 -213v134h141v-134h-141z" />
    <glyph glyph-name="uni1E25" unicode="&#x1e25;" horiz-adv-x="573" 
d="M67 0v714h146v-215c43 25 66 31 114 31c83 0 143 -36 167 -100c11 -29 15 -67 15 -134v-296h-146v286c0 84 -22 120 -74 120c-53 0 -76 -38 -76 -127v-279h-146zM215 -213v134h141v-134h-141z" />
    <glyph glyph-name="uni1E5A" unicode="&#x1e5a;" horiz-adv-x="641" 
d="M235 284v-284h-154v714h271c96 0 147 -14 185 -52c36 -36 52 -84 52 -158c0 -123 -37 -182 -129 -208l154 -296h-170l-134 284h-75zM232 402h107c71 0 98 26 98 95s-27 95 -100 95h-105v-190zM262 -213v134h141v-134h-141z" />
    <glyph glyph-name="uni1E5B" unicode="&#x1e5b;" horiz-adv-x="399" 
d="M67 0v518h111l19 -33c36 35 59 45 99 45c38 0 70 -9 116 -35l-63 -119c-26 21 -46 29 -68 29c-48 0 -68 -46 -68 -156v-249h-146zM69 -213v134h141v-134h-141z" />
    <glyph glyph-name="uni1E62" unicode="&#x1e62;" horiz-adv-x="574" 
d="M11 114l117 74c32 -52 79 -75 156 -75c75 0 112 29 112 85c0 28 -11 51 -30 63c-20 13 -20 13 -119 38c-148 37 -204 96 -204 215c0 136 87 211 243 211c115 0 192 -38 238 -116l-114 -73c-32 46 -71 66 -128 66c-58 0 -92 -29 -92 -79c0 -55 30 -78 133 -104
c91 -23 114 -31 150 -54c47 -32 70 -83 70 -160c0 -73 -19 -124 -59 -159c-44 -38 -113 -58 -201 -58c-79 0 -151 18 -200 48c-31 20 -50 41 -72 78zM203 -213v134h141v-134h-141z" />
    <glyph glyph-name="uni1E63" unicode="&#x1e63;" horiz-adv-x="497" 
d="M18 95l107 61c27 -42 50 -54 106 -54c63 0 92 18 92 56c0 28 -16 40 -60 44c-92 10 -114 14 -148 30c-47 22 -71 65 -71 128c0 109 70 170 194 170c102 0 168 -34 211 -107l-108 -61c-24 41 -47 54 -93 54c-43 0 -67 -18 -67 -50c0 -30 17 -40 79 -46
c156 -15 200 -51 200 -164c0 -115 -70 -167 -223 -167c-113 0 -184 35 -219 106zM170 -213v134h141v-134h-141z" />
    <glyph glyph-name="uni1E6C" unicode="&#x1e6c;" horiz-adv-x="556" 
d="M201 0v589h-190v125h533v-125h-189v-589h-154zM206 -213v134h141v-134h-141z" />
    <glyph glyph-name="uni1E6D" unicode="&#x1e6d;" horiz-adv-x="352" 
d="M79 403h-56v115h56l9 146h137v-146h103v-115h-103v-181c0 -81 21 -106 90 -104h12v-118h-17c-193 0 -232 40 -231 237v166zM105 -213v134h141v-134h-141z" />
    <glyph glyph-name="uni1E92" unicode="&#x1e92;" horiz-adv-x="572" 
d="M53 0v101l285 488h-271v125h445v-101l-286 -488h300v-125h-473zM227 -213v134h141v-134h-141z" />
    <glyph glyph-name="uni1E93" unicode="&#x1e93;" horiz-adv-x="485" 
d="M32 0v91l212 310h-194v117h374v-92l-212 -309h227v-117h-407zM173 -213v134h141v-134h-141z" />
    <glyph glyph-name="uni1E44" unicode="&#x1e44;" horiz-adv-x="711" 
d="M80 0v714h149l253 -457v457h149v-714h-149l-253 457v-457h-149zM291 777v134h141v-134h-141z" />
    <glyph glyph-name="uni1E45" unicode="&#x1e45;" horiz-adv-x="573" 
d="M67 0v518h109l12 -39c35 37 72 51 136 51c86 0 145 -35 170 -100c11 -29 15 -67 15 -134v-296h-146v279c0 92 -20 127 -73 127c-57 0 -77 -36 -77 -137v-269h-146zM215 581v134h141v-134h-141z" />
    <glyph glyph-name="uni1E0C" unicode="&#x1e0c;" horiz-adv-x="669" 
d="M80 0v714h249c193 3 281 -86 276 -279v-156c5 -193 -82 -281 -276 -279h-249zM234 122h67c116 -1 148 34 150 169v132c-2 135 -34 170 -150 169h-67v-470zM242 -213v134h141v-134h-141z" />
    <glyph glyph-name="uni1E0D" unicode="&#x1e0d;" horiz-adv-x="568" 
d="M388 0l-9 32c-4 -3 -7 -6 -8 -6c-31 -27 -66 -37 -124 -37c-138 0 -195 68 -195 233v75c0 163 58 233 192 233c33 0 57 -4 83 -15c4 -2 4 -2 18 -10c4 -2 4 -2 9 -5v214h146v-714h-112zM197 286v-53c0 -90 23 -128 79 -128c54 0 78 31 78 99v111c0 68 -25 99 -79 99
s-78 -39 -78 -128zM233 -213v134h141v-134h-141z" />
    <glyph glyph-name="uni1E02" unicode="&#x1e02;" horiz-adv-x="635" 
d="M80 0v714h282c87 0 131 -12 168 -44c38 -33 58 -86 58 -151c0 -68 -18 -113 -60 -146c29 -25 35 -31 44 -45c19 -30 29 -75 29 -128c0 -75 -22 -129 -66 -163c-37 -27 -79 -37 -160 -37h-295zM233 424h118c61 0 85 24 85 84c0 61 -24 84 -85 84h-118v-168zM233 122h131
c60 0 84 26 84 90c0 65 -24 90 -84 90h-131v-180zM231 777v134h141v-134h-141z" />
    <glyph glyph-name="uni1E03" unicode="&#x1e03;" horiz-adv-x="568" 
d="M68 0v714h146v-214c39 22 66 30 108 30c137 0 194 -69 194 -233v-75c0 -165 -57 -233 -195 -233c-63 0 -92 9 -132 43l-9 -32h-112zM371 233v53c0 89 -24 128 -78 128s-79 -31 -79 -99v-111c0 -68 24 -99 79 -99c54 0 78 38 78 128zM307 581v134h141v-134h-141z" />
    <glyph glyph-name="aringacute" unicode="&#x1fb;" horiz-adv-x="536" 
d="M326 317v17c0 55 -24 80 -76 80c-39 0 -70 -16 -97 -50l-100 70c45 64 117 96 212 96c96 0 162 -33 189 -93c13 -29 18 -65 18 -130v-307h-114l-9 27c-32 -27 -70 -38 -137 -38c-127 0 -175 45 -175 164c0 125 47 164 194 164h95zM326 221h-77c-54 0 -75 -18 -75 -64
c0 -44 20 -59 76 -59c59 0 76 18 76 81v42zM270 793c79 0 131 -46 131 -116c0 -71 -54 -119 -132 -119c-79 0 -133 49 -133 119c0 71 52 116 134 116zM269 727c-30 0 -45 -17 -45 -52c0 -34 15 -51 44 -51c30 0 45 17 45 51s-15 52 -44 52zM215 821l57 130h155l-125 -130
h-87z" />
    <glyph glyph-name="hcircumflex" unicode="&#x125;" horiz-adv-x="573" 
d="M67 0v714h146v-215c42 24 66 31 114 31c83 0 143 -36 167 -100c11 -29 15 -68 15 -134v-296h-146v286c0 85 -22 120 -74 120c-53 0 -76 -38 -76 -127v-279h-146zM184 852l-55 -76h-136l137 156h107l137 -156h-136z" />
    <glyph glyph-name="ebreve" unicode="&#x115;" horiz-adv-x="551" 
d="M198 222v-13c0 -71 33 -108 96 -108c48 0 77 15 102 55l107 -61c-44 -76 -108 -106 -225 -106c-162 0 -226 71 -226 250v33c0 92 12 145 43 185c36 49 96 73 184 73c162 0 227 -74 227 -258v-50h-308zM197 321h172v12c0 58 -31 91 -87 91c-53 0 -85 -34 -85 -91v-12z
M100 735h90c8 -49 28 -63 87 -63s79 14 87 63h89c-2 -60 -6 -79 -21 -103c-27 -44 -74 -64 -155 -64c-87 0 -137 23 -162 75c-10 20 -13 39 -15 92z" />
    <glyph glyph-name="uni01F5" unicode="&#x1f5;" horiz-adv-x="568" 
d="M354 3v14c-31 -20 -63 -28 -110 -28c-135 0 -192 69 -192 233v75c0 164 57 233 194 233c57 0 96 -13 128 -41l14 29h112v-498c0 -87 -15 -143 -49 -184c-39 -47 -105 -72 -188 -72c-100 0 -164 34 -202 107l108 60c24 -41 47 -55 89 -55c66 0 94 37 96 127zM197 286v-53
c0 -90 23 -128 79 -128c53 0 78 31 78 99v111c0 68 -25 99 -79 99s-78 -39 -78 -128zM208 579l84 158h162l-137 -158h-109z" />
    <glyph glyph-name="iogonek" unicode="&#x12f;" horiz-adv-x="283" 
d="M214 518v-518c-3 -2 -5 -4 -9 -7c-49 -38 -73 -71 -73 -98c0 -25 14 -37 42 -37c18 0 39 4 62 12l15 -70c-36 -15 -64 -21 -106 -21c-92 0 -141 33 -141 93c0 49 28 85 103 128h-39v518h146zM68 585v137h146v-137h-146z" />
    <glyph glyph-name="ldot" unicode="&#x140;" horiz-adv-x="391" 
d="M66 714h146v-492c0 -81 20 -105 90 -104h15v-118h-21c-188 0 -230 43 -230 237v477zM269 283v140h131v-140h-131z" />
    <glyph glyph-name="uni01D2" unicode="&#x1d2;" horiz-adv-x="560" 
d="M52 220v78c0 164 67 232 229 232c161 0 228 -68 228 -232v-78c0 -164 -66 -231 -229 -231c-162 0 -228 67 -228 231zM363 231v56c0 92 -23 127 -82 127c-60 0 -83 -35 -83 -127v-56c0 -91 23 -126 83 -126c59 0 82 35 82 126zM281 657l54 76h136l-137 -156h-106l-138 156
h136z" />
    <glyph glyph-name="obreve" unicode="&#x14f;" horiz-adv-x="560" 
d="M52 220v78c0 164 67 232 229 232c161 0 228 -68 228 -232v-78c0 -164 -66 -231 -229 -231c-162 0 -228 67 -228 231zM363 231v56c0 92 -23 127 -82 127c-60 0 -83 -35 -83 -127v-56c0 -91 23 -126 83 -126c59 0 82 35 82 126zM104 735h90c8 -49 28 -63 87 -63
s79 14 87 63h89c-2 -60 -6 -79 -21 -103c-27 -44 -74 -64 -155 -64c-87 0 -137 23 -162 75c-10 20 -13 39 -15 92z" />
    <glyph glyph-name="oslashacute" unicode="&#x1ff;" horiz-adv-x="560" 
d="M504 495l-31 -42c23 -33 35 -88 35 -155v-77c0 -165 -66 -232 -228 -232c-51 0 -96 8 -128 22l-29 -40l-68 53l31 42c-24 35 -35 87 -35 155v77c0 164 67 232 228 232c49 0 100 -9 128 -22l29 39zM363 301l-132 -182c13 -10 27 -14 49 -14c58 0 83 38 83 127v55v7v7z
M197 219l132 181c-14 10 -28 14 -49 14c-58 0 -83 -38 -83 -127v-55v-6v-7zM202 579l84 158h162l-137 -158h-109z" />
    <glyph glyph-name="itilde" unicode="&#x129;" horiz-adv-x="283" 
d="M68 0v518h146v-518h-146zM42 581h-87c11 57 15 72 26 93c21 42 53 63 98 63c30 0 56 -10 80 -30c33 -28 36 -30 48 -30c18 0 27 15 32 53h88c-7 -48 -12 -72 -20 -92c-18 -42 -52 -64 -99 -64c-33 0 -59 10 -85 34c-26 23 -31 26 -43 26c-18 0 -33 -21 -38 -53z" />
    <glyph glyph-name="utilde" unicode="&#x169;" horiz-adv-x="562" 
d="M64 518h146v-279c0 -92 19 -126 69 -126c51 0 70 37 70 136v269h146v-518h-98l-19 43c-28 -39 -65 -54 -131 -54c-87 0 -144 34 -168 100c-10 27 -15 69 -15 133v296zM185 581h-87c11 57 15 72 26 93c21 42 53 63 98 63c30 0 56 -10 80 -30c33 -28 36 -30 48 -30
c18 0 27 15 32 53h88c-7 -48 -12 -72 -20 -92c-18 -42 -52 -64 -99 -64c-33 0 -59 10 -85 34c-26 23 -31 26 -43 26c-18 0 -33 -21 -38 -53z" />
    <glyph glyph-name="uni01D4" unicode="&#x1d4;" horiz-adv-x="562" 
d="M64 518h146v-279c0 -92 19 -126 69 -126c51 0 70 37 70 136v269h146v-518h-98l-19 43c-28 -39 -65 -54 -131 -54c-87 0 -144 34 -168 100c-10 27 -15 69 -15 133v296zM282 657l54 76h136l-137 -156h-106l-138 156h136z" />
    <glyph glyph-name="Ldot" unicode="&#x13f;" horiz-adv-x="546" 
d="M80 0v714h154v-589h301v-125h-455zM357 283v140h131v-140h-131z" />
    <glyph glyph-name="Obreve" unicode="&#x14e;" horiz-adv-x="668" 
d="M64 273v168c0 107 16 165 60 211c48 52 109 73 210 73c108 0 175 -25 222 -85c35 -45 49 -100 49 -199v-168c0 -107 -16 -165 -60 -211c-48 -52 -109 -73 -211 -73c-107 0 -174 25 -221 85c-35 44 -49 101 -49 199zM451 286v142c0 130 -29 173 -116 173
c-88 0 -117 -43 -117 -173v-142c0 -130 29 -173 116 -173c88 0 117 43 117 173zM158 931h90c8 -49 28 -63 87 -63s79 14 87 63h89c-2 -60 -6 -79 -21 -103c-27 -44 -74 -64 -155 -64c-87 0 -137 23 -162 75c-10 20 -13 39 -15 92z" />
    <glyph glyph-name="Scommaaccent" unicode="&#x218;" horiz-adv-x="574" 
d="M11 114l117 74c32 -52 79 -75 156 -75c75 0 112 29 112 85c0 28 -11 51 -30 63c-20 13 -20 13 -119 38c-148 37 -204 96 -204 215c0 136 87 211 243 211c115 0 192 -38 238 -116l-114 -73c-32 46 -71 66 -128 66c-58 0 -92 -29 -92 -79c0 -55 30 -78 133 -104
c91 -23 114 -31 150 -54c47 -32 70 -83 70 -160c0 -73 -19 -124 -59 -159c-44 -38 -113 -58 -201 -58c-79 0 -151 18 -200 48c-31 20 -50 41 -72 78zM175 -243l49 182h138l-89 -182h-98z" />
    <glyph glyph-name="Ubreve" unicode="&#x16c;" horiz-adv-x="682" 
d="M77 714h154v-447c0 -58 4 -86 15 -108c17 -33 43 -46 95 -46c56 0 82 15 98 54c9 21 12 49 12 100v447h154v-447c0 -107 -10 -154 -44 -196c-47 -58 -111 -82 -220 -82c-115 0 -185 29 -229 95c-26 40 -35 85 -35 183v447zM164 931h90c8 -49 28 -63 87 -63s79 14 87 63
h89c-2 -60 -6 -79 -21 -103c-27 -44 -74 -64 -155 -64c-87 0 -137 23 -162 75c-10 20 -13 39 -15 92z" />
    <glyph glyph-name="Aringacute" unicode="&#x1fa;" horiz-adv-x="623" 
d="M-20 0l244 675c-29 23 -45 55 -45 93c0 71 52 116 133 116c80 0 132 -46 132 -116c0 -37 -14 -67 -43 -91l245 -677h-167l-41 134h-250l-42 -134h-166zM401 256l-87 278l-89 -278h176zM312 818c-30 0 -45 -17 -45 -52c0 -34 15 -52 44 -52c30 0 45 18 45 52
s-15 52 -44 52zM258 901l57 130h155l-126 -130h-86z" />
    <glyph glyph-name="Oslashacute" unicode="&#x1fe;" horiz-adv-x="668" 
d="M622 678l-46 -69c22 -48 29 -86 29 -168v-168c0 -107 -16 -165 -60 -211c-48 -52 -109 -73 -212 -73c-65 0 -119 10 -154 29l-34 -51l-98 68l47 70c-23 48 -30 86 -30 168v168c0 107 16 165 60 211c48 52 109 73 212 73c65 0 119 -10 154 -30l34 51zM451 423l-193 -288
c17 -15 42 -22 78 -22c86 0 115 44 115 173v137zM218 290l194 289c-18 15 -43 22 -78 22c-87 0 -116 -44 -116 -173v-138zM258 775l84 158h162l-137 -158h-109z" />
    <glyph glyph-name="AEacute" unicode="&#x1fc;" horiz-adv-x="963" 
d="M463 151h-262l-89 -151h-178l455 714h524v-125h-299v-166h253v-125h-253v-173h303v-125h-454v151zM463 274v315h-6l-186 -315h192zM567 775l84 158h162l-137 -158h-109z" />
    <glyph glyph-name="Tbar" unicode="&#x166;" horiz-adv-x="556" 
d="M201 0v299h-121v122h121v168h-190v125h533v-125h-189v-168h119v-122h-119v-299h-154z" />
    <glyph glyph-name="tbar" unicode="&#x167;" horiz-adv-x="356" 
d="M86 403h-57v115h57l9 146h137v-146h103v-115h-103v-56h103v-95h-103v-43c0 -70 22 -92 89 -91h12v-118h-17c-182 0 -226 39 -230 203v49h-57v95h57v56z" />
    <glyph glyph-name="napostrophe" unicode="&#x149;" horiz-adv-x="674" 
d="M169 0v518h109l12 -39c35 37 72 51 136 51c86 0 145 -35 170 -100c11 -29 15 -67 15 -134v-296h-146v279c0 92 -20 127 -73 127c-57 0 -77 -36 -77 -137v-269h-146zM-10 447l31 267h157l-60 -267h-128z" />
    <glyph glyph-name="Utilde" unicode="&#x168;" horiz-adv-x="682" 
d="M77 714h154v-447c0 -58 4 -86 15 -108c17 -33 43 -46 95 -46c56 0 82 15 98 54c9 21 12 49 12 100v447h154v-447c0 -107 -10 -154 -44 -196c-47 -58 -111 -82 -220 -82c-115 0 -185 29 -229 95c-26 40 -35 85 -35 183v447zM242 777h-87c10 55 15 71 26 93
c21 42 53 63 98 63c30 0 55 -9 80 -30c33 -28 36 -30 48 -30c18 0 27 15 32 53h88c-7 -48 -12 -71 -20 -92c-18 -42 -52 -64 -99 -64c-33 0 -59 10 -85 34c-26 23 -31 26 -43 26c-18 0 -34 -21 -38 -53z" />
    <glyph glyph-name="aeacute" unicode="&#x1fd;" horiz-adv-x="829" 
d="M154 364l-100 70c43 63 113 96 207 96c66 0 113 -16 146 -49c38 36 80 49 158 49c156 0 220 -75 220 -258v-50h-308v-13c0 -71 33 -108 96 -108c48 0 77 16 102 55l107 -61c-43 -74 -109 -106 -218 -106c-80 0 -128 17 -166 58c-36 -41 -91 -58 -182 -58
c-130 0 -178 44 -178 165c0 125 46 163 194 163h95v17c0 55 -24 80 -77 80c-38 0 -68 -16 -96 -50zM327 221h-77c-54 0 -75 -18 -75 -64c0 -43 20 -59 75 -59c60 0 77 20 77 87v36zM476 321h172v12c0 58 -31 91 -87 91c-53 0 -85 -34 -85 -91v-12zM337 579l84 158h162
l-137 -158h-109z" />
    <glyph glyph-name="Itilde" unicode="&#x128;" horiz-adv-x="314" 
d="M80 0v714h154v-714h-154zM58 777h-87c10 55 15 71 26 93c21 42 53 63 98 63c30 0 55 -9 80 -30c33 -28 36 -30 48 -30c18 0 27 15 32 53h88c-7 -48 -12 -71 -20 -92c-18 -42 -52 -64 -99 -64c-33 0 -59 10 -85 34c-26 23 -31 26 -43 26c-18 0 -34 -21 -38 -53z" />
    <glyph glyph-name="Wgrave" unicode="&#x1e80;" horiz-adv-x="933" 
d="M200 0l-182 714h154l105 -509l130 509h119l130 -509l106 509h154l-183 -714h-138l-128 471l-128 -471h-139zM545 775h-109l-137 158h162z" />
    <glyph glyph-name="Wacute" unicode="&#x1e82;" horiz-adv-x="933" 
d="M200 0l-182 714h154l105 -509l130 509h119l130 -509l106 509h154l-183 -714h-138l-128 471l-128 -471h-139zM390 775l84 158h162l-137 -158h-109z" />
    <glyph glyph-name="wgrave" unicode="&#x1e81;" horiz-adv-x="781" 
d="M174 0l-152 518h148l74 -343l95 343h104l95 -343l74 343h148l-152 -518h-125l-92 300l-91 -300h-126zM469 579h-109l-137 158h162z" />
    <glyph glyph-name="wacute" unicode="&#x1e83;" horiz-adv-x="781" 
d="M174 0l-152 518h148l74 -343l95 343h104l95 -343l74 343h148l-152 -518h-125l-92 300l-91 -300h-126zM314 579l84 158h162l-137 -158h-109z" />
    <glyph glyph-name="Ygrave" unicode="&#x1ef2;" horiz-adv-x="548" 
d="M199 0v257l-220 457h163l134 -305l134 305h163l-220 -457v-257h-154zM352 775h-109l-137 158h162z" />
    <glyph glyph-name="ygrave" unicode="&#x1ef3;" horiz-adv-x="513" 
d="M181 13l-171 505h147l100 -349l96 349h148l-180 -546c-63 -180 -92 -201 -276 -202v118c85 -1 97 8 126 95zM334 579h-109l-137 158h162z" />
    <glyph glyph-name="uni0200" unicode="&#x200;" horiz-adv-x="623" 
d="M438 134h-250l-42 -134h-166l258 714h149l259 -714h-167zM401 256l-87 278l-89 -278h176zM464 775h-101l-118 158h153zM286 775h-100l-119 158h153z" />
    <glyph glyph-name="uni0201" unicode="&#x201;" horiz-adv-x="536" 
d="M315 317v17c0 55 -24 80 -76 80c-39 0 -69 -16 -97 -50l-100 70c45 64 117 96 212 96c96 0 162 -33 189 -93c13 -29 18 -66 18 -130v-307h-114l-9 27c-32 -27 -70 -38 -137 -38c-127 0 -175 45 -175 164c0 125 46 164 194 164h95zM315 221h-77c-54 0 -75 -18 -75 -64
c0 -44 20 -59 76 -59c33 0 55 8 66 25c8 11 10 22 10 56v42zM420 579h-101l-118 158h153zM242 579h-100l-119 158h153z" />
    <glyph glyph-name="uni0202" unicode="&#x202;" horiz-adv-x="623" 
d="M438 134h-250l-42 -134h-166l258 714h149l259 -714h-167zM401 256l-87 278l-89 -278h176zM488 774h-89c-9 49 -28 63 -87 63s-79 -14 -87 -63h-90c3 60 7 79 21 103c27 44 75 64 155 64c87 0 138 -23 162 -75c10 -21 13 -40 15 -92z" />
    <glyph glyph-name="uni0203" unicode="&#x203;" horiz-adv-x="536" 
d="M326 317v17c0 55 -24 80 -76 80c-39 0 -70 -16 -97 -50l-100 70c45 64 117 96 212 96c96 0 162 -33 189 -93c13 -29 18 -65 18 -130v-307h-114l-9 27c-32 -27 -70 -38 -137 -38c-127 0 -175 45 -175 164c0 125 47 164 194 164h95zM326 221h-77c-54 0 -75 -18 -75 -64
c0 -44 20 -59 76 -59c59 0 76 18 76 81v42zM445 578h-89c-9 49 -28 63 -87 63s-79 -15 -87 -63h-90c3 60 7 79 21 103c27 44 75 64 155 64c87 0 138 -23 162 -75c10 -20 13 -40 15 -92z" />
    <glyph glyph-name="uni1EBC" unicode="&#x1ebc;" horiz-adv-x="582" 
d="M81 0v714h451v-125h-299v-166h253v-125h-253v-173h303v-125h-455zM210 777h-87c10 55 15 71 26 93c21 42 53 63 98 63c30 0 55 -9 80 -30c33 -28 36 -30 48 -30c18 0 27 15 32 53h88c-7 -48 -12 -71 -20 -92c-18 -42 -52 -64 -99 -64c-33 0 -59 10 -85 34
c-26 23 -31 26 -43 26c-18 0 -34 -21 -38 -53z" />
    <glyph glyph-name="uni1EBD" unicode="&#x1ebd;" horiz-adv-x="551" 
d="M198 222v-13c0 -71 33 -108 96 -108c48 0 77 15 102 55l107 -61c-44 -76 -108 -106 -225 -106c-162 0 -226 71 -226 250v33c0 92 12 145 43 185c36 49 96 73 184 73c162 0 227 -74 227 -258v-50h-308zM197 321h172v12c0 58 -31 91 -87 91c-53 0 -85 -34 -85 -91v-12z
M177 581h-87c11 57 15 72 26 93c21 42 53 63 98 63c30 0 56 -10 80 -30c33 -28 36 -30 48 -30c18 0 27 15 32 53h88c-7 -48 -12 -72 -20 -92c-18 -42 -52 -64 -99 -64c-33 0 -59 10 -85 34c-26 23 -31 26 -43 26c-18 0 -33 -21 -38 -53z" />
    <glyph glyph-name="uni0204.sc" horiz-adv-x="496" 
d="M68 0v553h382v-116h-236v-100h200v-116h-200v-105h240v-116h-386zM416 615h-101l-118 158h153zM238 615h-100l-119 158h153z" />
    <glyph glyph-name="uni0206.sc" horiz-adv-x="496" 
d="M72 0v553h383v-116h-237v-100h200v-116h-200v-105h241v-116h-387zM440 613h-89c-9 49 -28 63 -87 63s-79 -14 -87 -63h-90c3 60 7 79 21 103c27 44 75 64 155 64c87 0 138 -23 162 -75c10 -20 13 -39 15 -92z" />
    <glyph glyph-name="uni0208.sc" horiz-adv-x="291" 
d="M72 0v553h148v-553h-148zM298 615h-101l-118 158h153zM120 615h-100l-119 158h153z" />
    <glyph glyph-name="uni020A.sc" horiz-adv-x="291" 
d="M72 0v553h148v-553h-148zM322 613h-89c-9 49 -28 63 -87 63s-79 -14 -87 -63h-90c3 60 7 79 21 103c27 44 75 64 155 64c87 0 138 -23 162 -75c10 -20 13 -40 15 -92z" />
    <glyph glyph-name="uni020C.sc" horiz-adv-x="567" 
d="M47 222v110c0 90 13 137 49 174c41 42 92 59 180 59c93 0 148 -20 187 -69c30 -36 41 -81 41 -164v-110c0 -90 -13 -137 -49 -175c-40 -41 -92 -58 -179 -58c-94 0 -150 20 -188 68c-30 37 -41 82 -41 165zM356 231v91c0 93 -21 127 -80 127c-60 0 -81 -34 -81 -127v-91
c0 -93 21 -126 81 -126c59 0 80 33 80 126zM428 615h-101l-118 158h153zM250 615h-100l-119 158h153z" />
    <glyph glyph-name="uni020E.sc" horiz-adv-x="567" 
d="M55 222v110c0 90 13 137 49 174c41 42 92 59 180 59c93 0 148 -20 187 -69c30 -36 41 -81 41 -164v-110c0 -90 -13 -137 -49 -175c-40 -41 -92 -58 -179 -58c-94 0 -150 20 -188 68c-30 37 -41 82 -41 165zM364 231v91c0 93 -21 127 -81 127c-59 0 -80 -34 -80 -127v-91
c0 -93 21 -126 80 -126c60 0 81 33 81 126zM460 613h-89c-9 49 -28 63 -87 63s-79 -14 -87 -63h-90c3 60 7 79 21 103c27 44 75 64 155 64c87 0 138 -23 162 -75c10 -20 13 -39 15 -92z" />
    <glyph glyph-name="uni0210.sc" horiz-adv-x="549" 
d="M220 211v-211h-148v553h228c147 0 201 -45 201 -167c0 -91 -27 -132 -101 -155l131 -231h-169l-106 211h-36zM218 315h71c45 0 64 20 64 67c0 40 -20 57 -65 57h-70v-124zM413 615h-101l-118 158h153zM235 615h-100l-119 158h153z" />
    <glyph glyph-name="uni0212.sc" horiz-adv-x="549" 
d="M220 211v-211h-148v553h228c147 0 201 -45 201 -167c0 -91 -27 -132 -101 -155l131 -231h-169l-106 211h-36zM218 315h71c45 0 64 20 64 66c0 41 -20 58 -65 58h-70v-124zM436 613h-89c-9 49 -28 63 -87 63s-79 -14 -87 -63h-90c3 60 7 79 21 103c27 44 75 64 155 64
c87 0 138 -23 162 -75c10 -20 13 -39 15 -92z" />
    <glyph glyph-name="uni0214.sc" horiz-adv-x="581" 
d="M61 553h148v-346c0 -77 18 -102 75 -102c56 0 74 25 74 102v346h148v-346c0 -86 -9 -122 -37 -155c-38 -45 -92 -63 -185 -63c-100 0 -158 22 -194 73c-22 31 -29 66 -29 145v346zM436 615h-101l-118 158h153zM258 615h-100l-119 158h153z" />
    <glyph glyph-name="uni0216.sc" horiz-adv-x="581" 
d="M68 553h148v-346c0 -78 18 -102 74 -102s74 24 74 102v346h148v-346c0 -86 -9 -122 -37 -155c-38 -45 -92 -63 -185 -63c-99 0 -157 22 -193 73c-22 31 -29 66 -29 145v346zM467 613h-89c-9 49 -28 63 -87 63s-79 -14 -87 -63h-90c3 60 7 79 21 103c27 44 75 64 155 64
c87 0 138 -23 162 -75c10 -20 13 -39 15 -92z" />
    <glyph glyph-name="uni1E24.sc" horiz-adv-x="580" 
d="M71 0v553h148v-216h142v216h148v-553h-148v221h-142v-221h-148zM219 -213v134h141v-134h-141z" />
    <glyph glyph-name="uni1E5A.sc" horiz-adv-x="549" 
d="M220 211v-211h-148v553h228c147 0 201 -45 201 -167c0 -91 -27 -132 -101 -155l131 -231h-169l-106 211h-36zM218 315h71c45 0 64 20 64 66c0 41 -20 58 -65 58h-70v-124zM212 -213v134h141v-134h-141z" />
    <glyph glyph-name="uni1E62.sc" horiz-adv-x="478" 
d="M2 99l118 71c30 -50 59 -65 118 -65c47 0 74 20 74 54c0 17 -8 32 -21 39c-15 7 -15 7 -91 25c-121 29 -167 74 -167 169c0 113 70 173 202 173c108 0 171 -31 213 -105l-114 -68c-33 44 -54 57 -95 57c-39 0 -62 -19 -62 -50c0 -32 24 -48 99 -66s91 -23 121 -41
c40 -24 59 -64 59 -127c0 -119 -71 -176 -219 -176c-71 0 -134 15 -175 42c-24 16 -38 32 -60 68zM168 -213v134h141v-134h-141z" />
    <glyph glyph-name="uni1E6C.sc" horiz-adv-x="453" 
d="M153 0v437h-150v116h448v-116h-150v-437h-148zM156 -213v134h141v-134h-141z" />
    <glyph glyph-name="uni1E92.sc" horiz-adv-x="483" 
d="M44 0v93l215 344h-204v116h378v-93l-215 -344h227v-116h-401zM178 -213v134h141v-134h-141z" />
    <glyph glyph-name="uni1E44.sc" horiz-adv-x="606" 
d="M71 0v553h142l177 -316v316h144v-553h-131l-188 323v-323h-144zM233 617v134h141v-134h-141z" />
    <glyph glyph-name="uni1E0C.sc" horiz-adv-x="569" 
d="M71 0v553h210c164 3 236 -66 232 -220v-113c4 -154 -67 -222 -232 -220h-210zM219 114h39c82 -1 105 24 107 115v95c-2 91 -25 116 -107 115h-39v-325zM193 -213v134h141v-134h-141z" />
    <glyph glyph-name="uni1E02.sc" horiz-adv-x="535" 
d="M71 0v553h236c74 0 113 -9 144 -34c32 -26 49 -68 49 -122c0 -47 -13 -82 -40 -108c36 -34 49 -67 49 -130c0 -61 -19 -105 -56 -130c-30 -21 -66 -29 -136 -29h-246zM213 332h89c36 0 53 18 53 56c0 37 -17 54 -53 54h-89v-110zM213 111h99c36 0 52 18 52 59
s-16 60 -52 60h-99v-119zM184 617v134h141v-134h-141z" />
    <glyph glyph-name="Dcroat" unicode="&#x110;" horiz-adv-x="669" 
d="M80 421v293h250c192 3 280 -86 275 -279v-156c5 -193 -82 -281 -275 -279h-250v299h-71v122h71zM234 421h112v-122h-112v-177h67c116 -1 148 34 150 168v133c-2 135 -34 170 -150 169h-67v-171z" />
    <glyph glyph-name="idotaccent" horiz-adv-x="283" 
d="M68 585v137h146v-137h-146zM68 0v518h146v-518h-146z" />
    <glyph glyph-name="uni0237" unicode="&#x237;" horiz-adv-x="289" 
d="M74 518h146v-494c3 -207 -47 -256 -261 -254v118c88 -3 116 27 115 122v508z" />
    <glyph glyph-name="dcroat" unicode="&#x111;" horiz-adv-x="569" 
d="M354 561h-138v89h138v64h146v-64h76v-89h-76v-561h-112l-9 32c-3 -3 -6 -5 -8 -6c-31 -27 -65 -37 -124 -37c-138 0 -195 68 -195 233v75c0 163 58 233 192 233c33 0 57 -4 83 -15c4 -2 4 -2 18 -10c4 -2 4 -2 9 -5v61zM197 286v-53c0 -90 23 -128 79 -128
c54 0 78 31 78 99v111c0 68 -25 99 -79 99s-78 -39 -78 -128z" />
    <glyph glyph-name="Euro" unicode="&#x20ac;" 
d="M68 301v44h-85l31 81h54v13c0 102 15 163 52 208c42 52 97 74 185 74c146 0 217 -67 223 -212l-141 -10c-6 67 -31 98 -80 98c-62 0 -85 -44 -85 -162v-9h237l-32 -81h-205v-44h184l-31 -81h-150c8 -83 34 -112 100 -112c54 0 81 21 88 68l131 -17
c-7 -120 -78 -175 -224 -175c-160 0 -242 77 -251 236h-85l31 81h53z" />
    <glyph glyph-name="peseta" unicode="&#x20a7;" 
d="M76 437h-79v81h79v196h179c162 4 241 -57 252 -196h67v-81h-67c-8 -146 -87 -211 -252 -206h-30v-231h-149v437zM222 437v-88h41c63 -1 89 23 97 88h-138zM222 518h137c-8 57 -36 80 -96 79h-41v-79z" />
    <glyph glyph-name="lira" unicode="&#x20a4;" 
d="M49 0v108c63 12 106 58 111 117h-126v81h111c-13 28 -16 33 -22 43h-89v81h52c-13 36 -17 58 -17 92c0 131 75 203 210 203c82 0 141 -22 181 -67c22 -25 33 -45 53 -96l-122 -50c-31 68 -58 92 -104 92c-42 0 -66 -25 -66 -70c0 -33 9 -64 32 -104h177v-81h-138
c1 -2 3 -9 6 -20c1 -5 3 -12 4 -23h128v-81h-130v-4l-1 -10c-5 -33 -19 -57 -47 -86h280v-125h-483z" />
    <glyph glyph-name="uni20B4" unicode="&#x20b4;" 
d="M-7 305l21 78l83 -22c12 11 42 27 74 42l-141 38l21 78l246 -65c30 22 41 43 41 79c0 50 -28 79 -77 79c-41 0 -68 -18 -89 -58l-111 56c38 77 106 115 204 115c135 0 210 -73 210 -203c0 -49 -4 -69 -22 -110l53 -14l-21 -78l-84 22c-23 -16 -40 -25 -81 -40l149 -40
l-21 -78l-248 66c-15 -18 -23 -39 -23 -65c0 -55 31 -83 91 -83c57 0 95 18 121 56l114 -59c-42 -74 -122 -111 -238 -111c-76 0 -136 19 -175 56c-34 33 -50 82 -50 152c0 39 0 39 16 92z" />
    <glyph glyph-name="franc" unicode="&#x20a3;" horiz-adv-x="794" 
d="M77 0v714h377v-125h-228v-171h181v-125h-181v-293h-149zM459 0v459h108l18 -35c36 34 64 46 108 46c35 0 64 -8 104 -28l-61 -116c-24 21 -39 28 -59 28c-54 0 -77 -49 -77 -163v-191h-141z" />
    <glyph glyph-name="one.fitted" horiz-adv-x="386" 
d="M137 0v555l-110 -45l-48 117l211 87h101v-714h-154z" />
    <glyph glyph-name="two.fitted" horiz-adv-x="515" 
d="M9 0v99l200 240c26 31 68 92 81 118s19 53 19 79c0 43 -23 65 -67 65c-35 0 -54 -11 -68 -41c-10 -19 -14 -34 -16 -54l-141 10c7 140 83 209 230 209c139 0 214 -70 214 -198c0 -56 -14 -102 -48 -156c-26 -41 -26 -41 -109 -137l-94 -109h250v-125h-451z" />
    <glyph glyph-name="three.fitted" horiz-adv-x="506" 
d="M148 317v118h52c64 0 98 29 98 85c0 52 -24 81 -69 81c-44 0 -71 -26 -78 -76l-136 10c8 128 80 190 222 190c139 0 213 -69 213 -198c0 -74 -20 -115 -72 -150c66 -43 89 -87 89 -173c0 -144 -75 -215 -228 -215c-96 0 -164 26 -203 78c-25 34 -35 64 -38 121l144 17
c7 -63 36 -92 91 -92c53 0 82 34 82 95c0 66 -41 109 -105 109h-62z" />
    <glyph glyph-name="four.fitted" horiz-adv-x="541" 
d="M307 0v122h-281v92l218 500h162l-206 -470h107v160h137v-160h62v-122h-62v-122h-137z" />
    <glyph glyph-name="five.fitted" horiz-adv-x="536" 
d="M58 325l31 389h372v-125h-245l-12 -135l9 1c29 7 37 8 59 8c71 0 132 -22 165 -60c33 -36 46 -86 46 -174c0 -89 -15 -141 -50 -178c-39 -41 -101 -62 -182 -62c-143 0 -216 64 -223 199l144 17c7 -62 33 -92 82 -92c53 0 77 33 77 107c0 90 -21 122 -80 122
c-35 0 -61 -13 -81 -40z" />
    <glyph glyph-name="six.fitted" horiz-adv-x="548" 
d="M283 460h9l26 2c31 2 88 -17 117 -40c49 -37 66 -89 66 -195c0 -99 -15 -151 -55 -187c-39 -34 -93 -51 -169 -51c-84 0 -144 20 -181 62c-32 34 -44 83 -44 172c0 92 13 141 62 228l149 263h172zM278 343c-56 0 -74 -28 -74 -115s18 -115 73 -115c54 0 72 29 72 115
s-18 115 -71 115z" />
    <glyph glyph-name="seven.fitted" horiz-adv-x="417" 
d="M35 0l193 589h-234v125h394v-91l-189 -623h-164z" />
    <glyph glyph-name="eight.fitted" horiz-adv-x="564" 
d="M117 379c-33 36 -46 77 -46 141c0 143 64 205 211 205c146 0 210 -62 210 -205c0 -63 -14 -106 -47 -141c49 -36 68 -83 68 -168c0 -81 -16 -132 -52 -166c-41 -40 -93 -56 -180 -56c-163 0 -231 65 -231 222c0 85 19 132 67 168zM282 609c-51 0 -67 -22 -67 -90
c0 -70 16 -92 67 -92c50 0 66 23 66 92c0 67 -17 90 -66 90zM283 311c-61 0 -80 -24 -80 -99s19 -99 79 -99c59 0 79 24 79 98c0 75 -20 100 -78 100z" />
    <glyph glyph-name="nine.fitted" horiz-adv-x="548" 
d="M267 278h-18c-55 0 -97 10 -131 32c-53 34 -72 85 -72 189c0 93 16 143 57 178c37 32 92 48 168 48c82 0 141 -19 178 -58c34 -35 46 -80 46 -164c0 -91 -7 -121 -48 -198l-163 -305h-172zM272 601c-54 0 -74 -28 -74 -102s21 -103 73 -103c51 0 72 30 72 103
c0 72 -21 102 -71 102z" />
    <glyph glyph-name="zero.fitted" horiz-adv-x="569" 
d="M56 269v176c0 105 14 164 49 208c41 51 92 72 179 72c92 0 148 -25 188 -84c29 -43 40 -99 40 -196v-176c0 -106 -14 -163 -49 -208c-41 -51 -92 -72 -179 -72c-92 0 -148 25 -188 84c-28 43 -40 99 -40 196zM361 282v150c0 129 -18 169 -77 169c-58 0 -77 -41 -77 -169
v-150c0 -128 19 -169 77 -169c59 0 77 40 77 169z" />
    <glyph glyph-name="sterling.fitted" horiz-adv-x="557" 
d="M52 0v108c74 17 114 61 114 126c0 15 -2 26 -7 44h-108v125h49c-21 49 -28 76 -28 118c0 132 74 204 211 204c82 0 141 -22 181 -67c22 -24 34 -46 53 -96l-122 -50c-16 33 -21 42 -31 56c-19 24 -43 36 -73 36c-41 0 -66 -25 -66 -67c0 -43 9 -72 42 -134h168v-125h-130
c4 -17 5 -24 5 -36c0 -51 -15 -84 -55 -117h281v-125h-484z" />
    <glyph glyph-name="dollar.fitted" horiz-adv-x="599" 
d="M22 129l117 74c31 -52 79 -75 158 -75c73 0 110 24 110 73c0 25 -12 48 -30 59c-20 13 -20 13 -120 36c-145 35 -204 96 -204 211c0 113 57 178 175 198v109h150v-113c73 -14 126 -51 157 -108l-114 -72c-33 47 -71 66 -130 66c-58 0 -91 -25 -91 -68
c0 -50 31 -73 134 -98c89 -21 114 -30 149 -53c48 -30 71 -82 71 -155c0 -118 -55 -181 -176 -202v-147h-150v144c-101 13 -171 54 -206 121z" />
    <glyph glyph-name="cent.fitted" horiz-adv-x="497" 
d="M205 8v124c-100 22 -150 105 -147 246v27c-3 144 45 226 147 250v115h150v-118c54 -17 89 -46 115 -95l-104 -58c-25 38 -47 52 -85 52c-55 0 -82 -43 -82 -132v-55c0 -85 29 -129 86 -129c39 0 66 16 89 52l105 -59c-27 -48 -69 -79 -124 -94v-126h-150z" />
    <glyph glyph-name="Euro.fitted" horiz-adv-x="579" 
d="M93 301v44h-85l31 81h54v13c0 102 15 163 52 208c42 52 97 74 185 74c146 0 217 -67 223 -212l-141 -10c-6 67 -31 98 -80 98c-62 0 -85 -44 -85 -162v-9h237l-32 -81h-205v-44h184l-31 -81h-150c8 -83 34 -112 100 -112c54 0 81 21 88 68l131 -17
c-7 -120 -78 -175 -224 -175c-160 0 -242 77 -251 236h-85l31 81h53z" />
    <glyph glyph-name="yen.fitted" horiz-adv-x="595" 
d="M220 0v134h-140v81h140v43h-140v81h102l-180 375h163l132 -302l132 302h163l-180 -375h102v-81h-140v-43h140v-81h-140v-134h-154z" />
    <glyph glyph-name="one.numerator" horiz-adv-x="362" 
d="M131 286v321l-70 -25l-30 81l139 51h78v-428h-117z" />
    <glyph glyph-name="two.numerator" horiz-adv-x="362" 
d="M32 286v71l124 139c35 40 58 81 58 105c0 19 -15 32 -35 32c-26 0 -43 -19 -47 -55l-108 8c4 50 13 75 33 96c27 27 69 40 126 40c98 0 148 -42 148 -125c0 -36 -9 -63 -30 -96c-15 -22 -15 -22 -65 -78l-44 -48h137v-89h-297z" />
    <glyph glyph-name="three.numerator" horiz-adv-x="362" 
d="M112 473v75h42c32 0 53 18 53 45c0 23 -16 39 -39 39c-26 0 -40 -14 -46 -44l-104 8c3 46 12 70 33 89c26 24 67 36 123 36c100 0 150 -41 150 -122c0 -43 -11 -68 -38 -87c36 -25 50 -53 50 -100c0 -91 -50 -133 -160 -133c-114 0 -164 39 -169 129l110 13
c5 -38 21 -53 55 -53c30 0 47 16 47 46c0 38 -21 59 -59 59h-48z" />
    <glyph glyph-name="four.numerator" horiz-adv-x="362" 
d="M203 286v65h-186v66l143 297h122l-134 -276h55v71h102v-71h40v-87h-40v-65h-102z" />
    <glyph glyph-name="five.numerator" horiz-adv-x="362" 
d="M39 474l22 240h257v-89h-159l-6 -65c17 3 22 4 35 4c49 0 89 -12 113 -34c22 -21 31 -51 31 -105c0 -55 -10 -87 -34 -109c-26 -24 -68 -37 -124 -37c-102 0 -153 43 -153 129l109 13c4 -36 19 -53 46 -53c25 0 39 18 39 52c0 44 -12 62 -41 62c-20 0 -36 -8 -47 -24z
" />
    <glyph glyph-name="six.numerator" horiz-adv-x="362" 
d="M203 568l8 -1c32 0 55 -6 80 -22c33 -22 45 -54 45 -120c0 -63 -10 -94 -38 -116c-26 -20 -63 -30 -116 -30c-58 0 -99 12 -124 37c-22 21 -30 51 -30 105c0 59 8 87 41 139l98 154h135zM182 489c-30 0 -42 -18 -42 -64c0 -45 12 -64 42 -64s42 19 42 64s-12 64 -42 64z
" />
    <glyph glyph-name="seven.numerator" horiz-adv-x="362" 
d="M56 286l137 339h-159v89h284v-65l-136 -363h-126z" />
    <glyph glyph-name="eight.numerator" horiz-adv-x="362" 
d="M61 514c-17 20 -24 45 -24 81c0 89 42 126 144 126c103 0 145 -37 145 -125c0 -37 -7 -60 -25 -82c27 -22 38 -49 38 -99c0 -98 -45 -136 -158 -136s-158 38 -158 136c0 50 11 79 38 99zM182 645c-29 0 -42 -15 -42 -51c0 -37 13 -53 42 -53c28 0 41 16 41 52
s-13 52 -41 52zM182 472c-34 0 -47 -16 -47 -56c0 -39 13 -55 46 -55s46 16 46 55s-13 56 -45 56z" />
    <glyph glyph-name="nine.numerator" horiz-adv-x="362" 
d="M61 286l100 160c-101 3 -135 38 -135 136c0 102 41 139 154 139c58 0 97 -11 123 -35c22 -21 31 -49 31 -102c0 -57 -5 -73 -32 -120l-107 -178h-134zM181 639c-29 0 -43 -18 -43 -57c0 -38 14 -57 42 -57s42 19 42 57s-14 57 -41 57z" />
    <glyph glyph-name="zero.numerator" horiz-adv-x="362" 
d="M25 449v102c0 65 9 99 33 127c28 31 63 43 123 43c63 0 101 -15 128 -50c19 -27 27 -60 27 -120v-102c0 -65 -9 -100 -33 -127c-28 -31 -63 -43 -122 -43c-64 0 -102 15 -129 50c-19 27 -27 60 -27 120zM224 456v87c0 70 -12 96 -43 96c-32 0 -44 -27 -44 -96v-87
c0 -68 12 -95 44 -95c31 0 43 27 43 95z" />
    <glyph glyph-name="one.denominator" horiz-adv-x="362" 
d="M131 0v321l-70 -25l-30 81l139 51h78v-428h-117z" />
    <glyph glyph-name="two.denominator" horiz-adv-x="362" 
d="M32 0v71l124 140c35 39 58 80 58 104c0 19 -15 32 -35 32c-26 0 -43 -19 -47 -55l-108 8c4 50 13 75 33 96c27 27 69 40 126 40c98 0 148 -42 148 -125c0 -36 -9 -63 -30 -96c-15 -23 -15 -23 -65 -78l-44 -48h137v-89h-297z" />
    <glyph glyph-name="three.denominator" horiz-adv-x="362" 
d="M112 188v75h42c32 0 53 18 53 45c0 23 -16 39 -39 39c-26 0 -40 -14 -46 -44l-104 8c3 46 12 69 33 88c26 24 67 36 123 36c100 0 150 -40 150 -122c0 -42 -11 -67 -38 -86c36 -25 50 -53 50 -100c0 -92 -50 -134 -160 -134c-114 0 -164 39 -169 130l110 12
c5 -38 21 -53 55 -53c30 0 47 16 47 46c0 39 -21 60 -59 60h-48z" />
    <glyph glyph-name="four.denominator" horiz-adv-x="362" 
d="M203 0v65h-186v66l143 297h122l-134 -276h55v71h102v-71h40v-87h-40v-65h-102z" />
    <glyph glyph-name="five.denominator" horiz-adv-x="362" 
d="M39 188l22 240h257v-89h-159l-6 -65c18 4 22 4 35 4c49 0 89 -12 113 -34c22 -21 31 -51 31 -105c0 -55 -10 -87 -34 -109c-26 -24 -68 -37 -124 -37c-102 0 -153 43 -153 129l109 13c4 -36 19 -53 46 -53c25 0 39 18 39 52c0 44 -12 62 -41 62c-20 0 -36 -8 -47 -24z
" />
    <glyph glyph-name="six.denominator" horiz-adv-x="362" 
d="M203 282l8 -1c32 0 55 -6 80 -22c33 -22 45 -54 45 -120c0 -63 -10 -94 -38 -116c-26 -20 -63 -30 -116 -30c-58 0 -99 12 -124 37c-22 21 -30 51 -30 105c0 59 8 87 41 139l98 154h135zM182 203c-30 0 -42 -18 -42 -64s12 -64 42 -64s42 19 42 64s-12 64 -42 64z" />
    <glyph glyph-name="seven.denominator" horiz-adv-x="362" 
d="M56 0l137 339h-159v89h284v-65l-136 -363h-126z" />
    <glyph glyph-name="eight.denominator" horiz-adv-x="362" 
d="M61 228c-17 20 -24 45 -24 81c0 89 42 126 144 126s145 -37 145 -125c0 -37 -7 -60 -25 -82c27 -22 38 -49 38 -99c0 -98 -45 -136 -158 -136s-158 38 -158 136c0 50 11 79 38 99zM182 359c-29 0 -42 -15 -42 -51c0 -37 13 -53 42 -53c28 0 41 16 41 52s-13 52 -41 52z
M182 186c-34 0 -47 -16 -47 -56c0 -39 13 -55 46 -55s46 16 46 55s-13 56 -45 56z" />
    <glyph glyph-name="nine.denominator" horiz-adv-x="362" 
d="M61 0l100 160c-101 3 -135 38 -135 136c0 102 41 139 154 139c58 0 97 -11 123 -35c22 -21 31 -49 31 -102c0 -57 -4 -73 -32 -120l-107 -178h-134zM181 353c-29 0 -43 -18 -43 -57c0 -38 14 -57 42 -57s42 19 42 57s-14 57 -41 57z" />
    <glyph glyph-name="zero.denominator" horiz-adv-x="362" 
d="M25 163v102c0 65 9 99 33 127c28 31 63 43 123 43c63 0 101 -15 128 -50c19 -27 27 -60 27 -120v-102c0 -65 -9 -100 -33 -127c-28 -31 -63 -43 -122 -43c-64 0 -102 15 -129 50c-19 27 -27 60 -27 120zM224 170v87c0 70 -12 96 -43 96c-32 0 -44 -27 -44 -96v-87
c0 -68 12 -95 44 -95c31 0 43 27 43 95z" />
    <glyph glyph-name="uni0387" unicode="&#x387;" horiz-adv-x="295" 
d="M71 283v140h154v-140h-154z" />
    <glyph glyph-name="dotmath" unicode="&#x22c5;" horiz-adv-x="295" 
d="M71 283v140h154v-140h-154z" />
    <glyph glyph-name="uni2219" unicode="&#x2219;" horiz-adv-x="295" 
d="M71 283v140h154v-140h-154z" />
    <glyph glyph-name="uni037E" unicode="&#x37e;" horiz-adv-x="295" 
d="M34 -188l48 326h161l-77 -326h-132zM88 380v140h154v-140h-154z" />
    <glyph glyph-name="afii57929" unicode="&#x2bc;" horiz-adv-x="230" 
d="M23 448l32 266h152l-60 -266h-124z" />
    <glyph glyph-name="uni00AD" unicode="&#xad;" horiz-adv-x="463" 
d="M69 290v125h324v-125h-324z" />
    <glyph glyph-name="uni2011" unicode="&#x2011;" horiz-adv-x="463" 
d="M69 290v125h324v-125h-324z" />
    <glyph glyph-name="afii00208" unicode="&#x2015;" 
d="M-7 290v125h554v-125h-554z" />
    <glyph glyph-name="afii61248" unicode="&#x2105;" horiz-adv-x="944" 
d="M291 444l85 -48c-33 -58 -87 -86 -166 -86c-118 0 -178 66 -178 196v15c0 134 58 200 176 200c77 0 129 -28 161 -87l-85 -47c-19 31 -38 43 -69 43c-47 0 -68 -35 -68 -109v-14c0 -71 23 -106 71 -106c33 0 55 13 73 43zM541 180v33c0 135 54 189 188 189
c130 0 184 -56 184 -189v-33c0 -133 -54 -189 -184 -189c-134 0 -188 55 -188 189zM798 187v19c0 76 -20 106 -71 106s-71 -30 -71 -106v-19c0 -76 20 -106 71 -106s71 30 71 106zM289 0l226 714h119l-227 -714h-118z" />
    <glyph glyph-name="uni2101" unicode="&#x2101;" horiz-adv-x="943" 
d="M420 344l118 370h118l-227 -714h-118l91 286h-80l-26 70h-160l-25 -70h-124l180 428h98zM270 431l-54 150l-54 -150h108zM564 77l93 52c21 -35 45 -48 89 -48c34 0 55 15 55 40c0 12 -6 23 -16 29c-11 7 -11 7 -70 21c-90 21 -126 57 -126 128c0 88 55 135 159 135
c78 0 125 -23 159 -78l-91 -51c-21 30 -41 42 -71 42c-27 0 -44 -14 -44 -36c0 -26 19 -39 76 -52c55 -13 70 -18 92 -32c31 -19 45 -50 45 -99c0 -93 -52 -135 -168 -135c-93 0 -146 25 -182 84z" />
    <glyph glyph-name="oneone" horiz-adv-x="914" 
d="M141 286v321l-70 -25l-30 81l139 51h78v-428h-117zM653 0v321l-70 -25l-30 81l139 51h78v-428h-117zM236 0l227 714h135l-227 -714h-135z" />
    <glyph glyph-name="uni2155" unicode="&#x2155;" horiz-adv-x="914" 
d="M131 286v321l-70 -25l-30 81l139 51h78v-428h-117zM551 188l22 240h257v-89h-159l-6 -65c19 4 22 4 35 4c49 0 89 -12 113 -34c22 -21 31 -51 31 -105c0 -55 -10 -87 -34 -109c-26 -24 -68 -37 -124 -37c-102 0 -151 41 -153 129l109 13c5 -37 19 -53 46 -53
c25 0 39 18 39 52c0 44 -12 62 -41 62c-20 0 -36 -8 -47 -24zM225 0l227 714h135l-227 -714h-135z" />
    <glyph glyph-name="uni2156" unicode="&#x2156;" horiz-adv-x="914" 
d="M33 286v71l124 139c35 40 58 81 58 105c0 19 -15 32 -35 32c-26 0 -43 -19 -47 -55l-108 8c4 50 13 75 33 96c27 27 69 40 126 40c98 0 148 -42 148 -125c0 -36 -9 -63 -30 -96c-15 -22 -15 -22 -65 -78l-44 -48h137v-89h-297zM579 188l22 240h257v-89h-159l-6 -65
c18 4 21 4 34 4c50 0 90 -12 114 -34c22 -21 31 -51 31 -105c0 -55 -10 -87 -34 -109c-26 -24 -69 -37 -124 -37c-103 0 -151 41 -153 129l109 13c5 -37 19 -53 46 -53c25 0 39 18 39 52c0 44 -12 62 -41 62c-20 0 -36 -8 -48 -24zM282 0l226 714h135l-226 -714h-135z" />
    <glyph glyph-name="uni2157" unicode="&#x2157;" horiz-adv-x="914" 
d="M114 473v75h42c32 0 53 18 53 45c0 23 -16 39 -39 39c-26 0 -40 -14 -46 -44l-104 8c3 46 12 70 33 89c26 24 67 36 123 36c100 0 150 -41 150 -122c0 -43 -11 -68 -38 -87c36 -25 50 -53 50 -100c0 -91 -50 -133 -160 -133c-114 0 -164 39 -169 129l110 13
c5 -38 21 -53 55 -53c30 0 47 16 47 46c0 38 -21 59 -59 59h-48zM568 188l22 240h257v-89h-159l-6 -65c18 4 22 4 35 4c49 0 89 -12 113 -34c22 -21 31 -51 31 -105c0 -55 -10 -87 -34 -109c-26 -24 -68 -37 -124 -37c-102 0 -151 41 -153 129l109 13c4 -36 19 -53 46 -53
c25 0 39 18 39 52c0 44 -12 62 -41 62c-20 0 -36 -8 -47 -24zM268 0l227 714h135l-227 -714h-135z" />
    <glyph glyph-name="uni2158" unicode="&#x2158;" horiz-adv-x="914" 
d="M204 286v65h-186v66l143 297h122l-134 -276h55v71h102v-71h40v-87h-40v-65h-102zM577 188l22 240h257v-89h-159l-6 -65c18 4 22 4 35 4c49 0 89 -12 113 -34c22 -21 31 -51 31 -105c0 -55 -10 -87 -34 -109c-26 -24 -68 -37 -124 -37c-102 0 -151 41 -153 129l109 13
c4 -36 19 -53 46 -53c25 0 39 18 39 52c0 44 -12 62 -41 62c-20 0 -36 -8 -47 -24zM280 0l227 714h135l-227 -714h-135z" />
    <glyph glyph-name="uni2159" unicode="&#x2159;" horiz-adv-x="914" 
d="M145 286v321l-70 -25l-30 81l139 51h78v-428h-117zM711 282l8 -1c32 0 55 -6 80 -22c33 -22 45 -54 45 -120c0 -62 -10 -94 -38 -116c-26 -20 -63 -30 -116 -30c-58 0 -99 12 -124 37c-22 21 -30 51 -30 105c0 59 8 88 41 139l98 154h135zM690 203c-30 0 -42 -18 -42 -64
s12 -64 42 -64s42 19 42 64s-12 64 -42 64zM242 0l226 714h136l-227 -714h-135z" />
    <glyph glyph-name="uni215A" unicode="&#x215a;" horiz-adv-x="914" 
d="M50 474l22 240h257v-89h-159l-6 -65c17 3 22 4 35 4c49 0 89 -12 113 -34c22 -21 31 -51 31 -105c0 -55 -10 -87 -34 -109c-26 -24 -68 -37 -124 -37c-102 0 -153 43 -153 129l109 13c4 -36 19 -53 46 -53c25 0 39 18 39 52c0 44 -12 62 -41 62c-20 0 -36 -8 -47 -24z
M733 282l8 -1c32 0 55 -6 80 -22c33 -22 45 -54 45 -120c0 -62 -10 -94 -38 -116c-26 -20 -63 -30 -116 -30c-58 0 -99 12 -124 37c-22 21 -30 51 -30 106c0 58 8 86 41 138l98 154h135zM712 203c-30 0 -42 -18 -42 -64c0 -45 12 -64 42 -64s42 19 42 64s-12 64 -42 64z
M287 0l227 714h135l-227 -714h-135z" />
    <glyph glyph-name="uni2215" unicode="&#x2215;" horiz-adv-x="190" 
d="M-69 0l227 714h135l-227 -714h-135z" />
    <glyph glyph-name="Dieresis" unicode="&#xf6cb;" horiz-adv-x="500" 
d="M84 777v134h129v-134h-129zM287 777v134h129v-134h-129z" />
    <glyph glyph-name="Dotaccent" horiz-adv-x="500" 
d="M179 777v134h141v-134h-141z" />
    <glyph glyph-name="Ring" horiz-adv-x="500" 
d="M251 1000c79 0 131 -46 131 -116s-54 -119 -132 -119c-79 0 -133 49 -133 119c0 71 52 116 134 116zM250 934c-30 0 -45 -17 -45 -51s15 -52 44 -52c30 0 45 17 45 51s-15 52 -44 52z" />
    <glyph glyph-name="Acute" unicode="&#xf6c9;" horiz-adv-x="500" 
d="M173 775l84 158h162l-137 -158h-109z" />
    <glyph glyph-name="Grave" unicode="&#xf6ce;" horiz-adv-x="500" 
d="M328 775h-109l-137 158h162z" />
    <glyph glyph-name="Circumflex" horiz-adv-x="500" 
d="M250 852l-55 -76h-136l137 156h107l137 -156h-136z" />
    <glyph glyph-name="Caron" unicode="&#xf6ca;" horiz-adv-x="500" 
d="M250 853l54 76h136l-137 -156h-106l-138 156h136z" />
    <glyph glyph-name="Breve" horiz-adv-x="500" 
d="M73 931h90c8 -49 28 -63 87 -63s79 14 87 63h89c-2 -60 -6 -79 -21 -103c-27 -44 -74 -64 -155 -64c-87 0 -137 23 -162 75c-10 20 -13 39 -15 92z" />
    <glyph glyph-name="Tilde" horiz-adv-x="500" 
d="M151 777h-87c10 55 15 71 26 93c21 42 53 63 98 63c30 0 55 -9 80 -30c33 -28 36 -30 48 -30c18 0 27 15 32 53h88c-7 -48 -12 -71 -20 -92c-18 -42 -52 -64 -99 -64c-33 0 -59 10 -85 34c-26 23 -31 26 -43 26c-18 0 -34 -21 -38 -53z" />
    <glyph glyph-name="Hungarumlaut" unicode="&#xf6cf;" horiz-adv-x="500" 
d="M98 775l66 158h153l-118 -158h-101zM276 775l66 158h153l-119 -158h-100z" />
    <glyph glyph-name="Cedilla" horiz-adv-x="500" 
d="M161 -243l49 182h138l-89 -182h-98z" />
    <glyph glyph-name="uni02C0" unicode="&#x2c0;" horiz-adv-x="500" 
d="M309 769h-98c1 65 2 70 30 105c7 9 9 14 9 21c0 11 -8 17 -22 17c-16 0 -24 -2 -58 -18l-23 80c48 15 70 19 105 19c72 0 115 -34 115 -91c0 -29 -4 -37 -40 -74c-15 -17 -17 -25 -18 -59z" />
    <glyph glyph-name="Ogonek" horiz-adv-x="500" 
d="M279 0h107c-62 -47 -86 -76 -86 -106c0 -24 14 -36 43 -36c18 0 39 4 62 12l16 -70c-36 -15 -65 -21 -107 -21c-92 0 -142 33 -142 93c0 49 31 87 107 128z" />
    <glyph glyph-name="Macron" unicode="&#xf6d0;" horiz-adv-x="500" 
d="M88 795v103h324v-103h-324z" />
    <glyph glyph-name="Commaaccent" horiz-adv-x="500" 
d="M161 -243l49 182h138l-89 -182h-98z" />
    <glyph glyph-name="Comma.high" horiz-adv-x="163" 
d="M-4 442l35 291h137l-70 -291h-102z" />
    <glyph glyph-name="Croatumlaut" horiz-adv-x="500" 
d="M402 775h-101l-118 158h153zM224 775h-100l-119 158h153z" />
    <glyph glyph-name="Croatbreve" horiz-adv-x="500" 
d="M426 774h-89c-9 49 -28 63 -87 63s-79 -14 -87 -63h-90c3 60 7 79 21 103c27 44 75 64 155 64c87 0 138 -23 162 -75c10 -21 13 -40 15 -92z" />
    <glyph glyph-name="Cicumflexacute" horiz-adv-x="500" 
d="M365 862l69 130h150l-137 -158h-57l50 -58h-136l-54 77l-55 -77h-136l137 156h107z" />
    <glyph glyph-name="Ringacute" horiz-adv-x="500" 
d="M252 884c78 0 130 -46 130 -116s-54 -119 -132 -119c-79 0 -133 49 -133 119c0 71 52 116 135 116zM250 818c-30 0 -45 -17 -45 -51c0 -35 15 -52 44 -52c30 0 45 17 45 52c0 33 -15 51 -44 51zM196 901l57 130h155l-126 -130h-86z" />
    <glyph glyph-name="uni0309" unicode="&#x309;" horiz-adv-x="500" 
d="M309 575h-98c0 65 2 71 30 106c7 9 9 14 9 21c0 11 -7 17 -22 17s-25 -3 -58 -18l-23 79c46 16 69 20 105 20c73 0 115 -34 115 -91c0 -29 -4 -37 -40 -74c-15 -18 -17 -25 -18 -60z" />
    <glyph glyph-name="uni02C9" unicode="&#x2c9;" horiz-adv-x="500" 
d="M88 599v103h324v-103h-324z" />
    <glyph glyph-name="uni0323" unicode="&#x323;" horiz-adv-x="500" 
d="M179 -213v134h141v-134h-141z" />
    <glyph glyph-name="commaaccent" unicode="&#xf6c3;" horiz-adv-x="500" 
d="M161 -243l49 182h138l-89 -182h-98z" />
    <glyph glyph-name="uni0313" unicode="&#x313;" horiz-adv-x="128" 
d="M-16 442l35 291h137l-70 -291h-102z" />
    <glyph glyph-name="uni031B" unicode="&#x31b;" horiz-adv-x="128" 
d="M-16 442l35 291h137l-70 -291h-102z" />
    <glyph glyph-name="croatumlaut" horiz-adv-x="500" 
d="M402 579h-101l-118 158h153zM224 579h-100l-119 158h153z" />
    <glyph glyph-name="croatbreve" horiz-adv-x="500" 
d="M426 578h-89c-9 49 -28 63 -87 63s-79 -15 -87 -63h-90c3 60 7 79 21 103c27 44 75 64 155 64c87 0 138 -23 162 -75c10 -20 13 -40 15 -92z" />
    <glyph glyph-name="cicumflexacute" horiz-adv-x="500" 
d="M365 666l69 130h150l-137 -158h-57l50 -58h-136l-54 76l-55 -76h-136l137 156h107z" />
    <glyph glyph-name="ringacute" horiz-adv-x="500" 
d="M251 804c79 0 131 -46 131 -116c0 -71 -54 -119 -132 -119c-79 0 -133 48 -133 119s52 116 134 116zM250 738c-30 0 -45 -17 -45 -51s15 -52 44 -52c30 0 45 17 45 51s-15 52 -44 52zM196 821l57 130h155l-126 -130h-86z" />
    <glyph glyph-name="uni0312" unicode="&#x312;" horiz-adv-x="500" 
d="M173 579l137 158h109l-84 -158h-162z" />
    <glyph glyph-name="uni01EA" unicode="&#x1ea;" horiz-adv-x="668" 
d="M610 441v-168c3 -147 -42 -229 -148 -269c-47 -38 -72 -76 -72 -109c0 -25 14 -37 43 -37c18 0 39 4 62 12l16 -70c-37 -16 -64 -21 -107 -21c-93 0 -142 33 -142 95c0 43 22 81 67 115c-180 1 -265 94 -260 284v168c0 107 16 165 60 211c48 52 109 73 210 73
c108 0 175 -25 222 -85c35 -45 49 -100 49 -199zM456 286v142c0 130 -29 173 -116 173c-88 0 -117 -43 -117 -173v-142c0 -130 29 -173 116 -173c88 0 117 43 117 173z" />
    <glyph glyph-name="uni01EB" unicode="&#x1eb;" horiz-adv-x="560" 
d="M510 298v-78c0 -116 -31 -179 -106 -211c-48 -39 -73 -78 -73 -114c0 -25 14 -37 43 -37c19 0 40 4 63 12l16 -70c-36 -15 -65 -21 -107 -21c-93 0 -142 33 -142 94c0 45 17 76 64 116c-153 5 -216 72 -215 231v78c0 164 67 232 229 232c161 0 228 -68 228 -232zM364 231
v56c0 92 -23 127 -82 127c-60 0 -83 -35 -83 -127v-56c0 -91 23 -126 83 -126c59 0 82 35 82 126z" />
    <glyph glyph-name="Eng" unicode="&#x14a;" horiz-adv-x="711" 
d="M80 0v714h149l253 -451v451h149v-692c3 -205 -47 -254 -257 -252v115c86 -3 116 26 116 115v13l-261 444v-457h-149z" />
    <glyph glyph-name="eng" unicode="&#x14b;" horiz-adv-x="573" 
d="M67 0v518h109l12 -39c35 37 72 51 136 51c86 0 145 -35 170 -100c11 -29 15 -67 15 -134v-271c3 -209 -47 -257 -262 -255v118c89 -3 117 27 116 122v269c0 92 -20 127 -73 127c-57 0 -77 -35 -77 -137v-269h-146z" />
    <glyph glyph-name="kgreenlandic" unicode="&#x138;" horiz-adv-x="538" 
d="M68 0v518h146v-218l164 218h165l-179 -220l185 -298h-159l-113 193l-63 -79v-114h-146z" />
    <glyph glyph-name="uni01D1" unicode="&#x1d1;" horiz-adv-x="668" 
d="M64 273v168c0 107 16 165 60 211c48 52 109 73 210 73c109 0 175 -25 222 -85c35 -45 49 -100 49 -199v-168c0 -107 -16 -165 -60 -211c-48 -52 -109 -73 -211 -73c-108 0 -174 25 -221 85c-35 44 -49 101 -49 199zM452 286v142c0 130 -29 173 -117 173
c-89 0 -118 -43 -118 -173v-142c0 -130 29 -173 117 -173c89 0 118 43 118 173zM335 853l54 76h136l-137 -156h-106l-138 156h136z" />
    <glyph glyph-name="uni01C4" unicode="&#x1c4;" horiz-adv-x="1201" 
d="M80 0v714h249c193 3 281 -86 276 -279v-156c5 -193 -82 -281 -276 -279h-249zM234 122h67c116 -1 148 34 150 169v132c-2 135 -34 170 -150 169h-67v-470zM682 0v101l285 488h-271v125h445v-101l-286 -488h300v-125h-473zM932 853l55 76h136l-138 -156h-106l-138 156h137
z" />
    <glyph glyph-name="uni01C5" unicode="&#x1c5;" horiz-adv-x="1136" 
d="M80 0v714h249c193 3 281 -86 276 -279v-156c5 -193 -82 -281 -276 -279h-249zM234 122h67c116 -1 148 34 150 169v132c-2 135 -34 170 -150 169h-67v-470zM683 0v91l213 310h-194v117h374v-92l-212 -309h226v-117h-407zM901 657l54 76h136l-137 -156h-106l-138 156h136z
" />
    <glyph glyph-name="uni01C6" unicode="&#x1c6;" horiz-adv-x="1053" 
d="M389 0l-9 32c-3 -3 -6 -5 -8 -6c-30 -27 -66 -37 -125 -37c-138 0 -195 68 -195 233v75c0 163 58 233 193 233c32 0 57 -4 82 -15c5 -2 5 -2 19 -10c4 -2 4 -2 9 -5v214h146v-714h-112zM197 286v-53c0 -90 24 -128 79 -128c54 0 79 31 79 99v111c0 68 -25 99 -79 99
c-55 0 -79 -39 -79 -128zM601 0v91l212 310h-194v117h374v-92l-212 -309h226v-117h-406zM819 657l55 76h136l-137 -156h-107l-137 156h136z" />
    <glyph glyph-name="uni01C7" unicode="&#x1c7;" horiz-adv-x="861" 
d="M80 0v714h154v-589h301v-125h-455zM627 714h154v-665c0 -122 -6 -165 -26 -204c-32 -59 -95 -90 -183 -90c-46 0 -79 6 -126 24l53 113c21 -10 33 -13 52 -13c37 0 59 18 69 56c5 23 7 47 7 112v667z" />
    <glyph glyph-name="uni01C8" unicode="&#x1c8;" horiz-adv-x="835" 
d="M80 0v714h154v-589h301v-125h-455zM620 585v137h146v-137h-146zM620 518h146v-494c3 -207 -47 -256 -260 -254v118c87 -3 115 27 114 122v508z" />
    <glyph glyph-name="uni01C9" unicode="&#x1c9;" horiz-adv-x="604" 
d="M66 714h146v-492c0 -81 20 -105 90 -104h15v-118h-21c-188 0 -230 43 -230 237v477zM389 585v137h146v-137h-146zM389 518h146v-494c3 -207 -47 -256 -261 -254v118c88 -3 116 27 115 122v508z" />
    <glyph glyph-name="uni01CA" unicode="&#x1ca;" horiz-adv-x="1026" 
d="M80 0v714h149l253 -457v457h149v-714h-149l-253 457v-457h-149zM792 714h154v-665c0 -122 -6 -165 -26 -204c-32 -59 -95 -90 -183 -90c-46 0 -79 6 -126 24l53 113c21 -10 34 -13 52 -13c37 0 59 18 69 56c5 23 7 47 7 112v667z" />
    <glyph glyph-name="uni01CB" unicode="&#x1cb;" horiz-adv-x="1000" 
d="M80 0v714h149l253 -457v457h149v-714h-149l-253 457v-457h-149zM785 518h146v-494c3 -207 -47 -256 -260 -254v118c87 -3 115 27 114 122v508zM785 585v137h146v-137h-146z" />
    <glyph glyph-name="uni01CC" unicode="&#x1cc;" horiz-adv-x="861" 
d="M67 0v518h109l12 -39c35 37 72 51 136 51c86 0 145 -35 170 -100c11 -29 15 -67 15 -134v-296h-146v279c0 92 -20 127 -73 127c-57 0 -77 -36 -77 -137v-269h-146zM646 518h146v-494c3 -207 -47 -256 -260 -254v118c87 -3 115 27 114 122v508zM646 585v137h146v-137h-146
z" />
    <glyph glyph-name="uni01F1" unicode="&#x1f1;" horiz-adv-x="1201" 
d="M80 0v714h249c193 3 281 -86 276 -279v-156c5 -193 -82 -281 -276 -279h-249zM234 122h67c116 -1 148 34 150 169v132c-2 135 -34 170 -150 169h-67v-470zM682 0v101l285 488h-271v125h445v-101l-286 -488h300v-125h-473z" />
    <glyph glyph-name="uni01F2" unicode="&#x1f2;" horiz-adv-x="1134" 
d="M80 0v714h249c193 3 281 -86 276 -279v-156c5 -193 -82 -281 -276 -279h-249zM234 122h67c116 -1 148 34 150 169v132c-2 135 -34 170 -150 169h-67v-470zM682 0v91l212 310h-194v117h374v-92l-212 -309h227v-117h-407z" />
    <glyph glyph-name="uni01F3" unicode="&#x1f3;" horiz-adv-x="1053" 
d="M389 0l-9 32c-3 -3 -6 -5 -8 -6c-30 -27 -66 -37 -125 -37c-138 0 -195 68 -195 233v75c0 163 58 233 193 233c32 0 57 -4 82 -15c5 -2 5 -2 19 -10c4 -2 4 -2 9 -5v214h146v-714h-112zM197 286v-53c0 -90 24 -128 79 -128c54 0 79 31 79 99v111c0 68 -25 99 -79 99
c-55 0 -79 -39 -79 -128zM601 0v91l212 310h-194v117h374v-92l-212 -309h226v-117h-406z" />
    <glyph glyph-name="uni01D0" unicode="&#x1d0;" horiz-adv-x="283" 
d="M69 0v518h146v-518h-146zM142 657l54 76h136l-137 -156h-106l-138 156h136z" />
    <glyph glyph-name="uni01CF" unicode="&#x1cf;" horiz-adv-x="314" 
d="M80 0v714h154v-714h-154zM157 853l54 76h136l-137 -156h-106l-138 156h136z" />
    <glyph glyph-name="uni2003" unicode="&#x2003;" horiz-adv-x="1000" 
 />
    <glyph glyph-name="uni2002" unicode="&#x2002;" horiz-adv-x="500" 
 />
    <glyph glyph-name="uni2004" unicode="&#x2004;" horiz-adv-x="333" 
 />
    <glyph glyph-name="uni2005" unicode="&#x2005;" horiz-adv-x="250" 
 />
    <glyph glyph-name="uni2009" unicode="&#x2009;" horiz-adv-x="200" 
 />
    <glyph glyph-name="uni2006" unicode="&#x2006;" horiz-adv-x="167" 
 />
    <glyph glyph-name="uni200A" unicode="&#x200a;" horiz-adv-x="125" 
 />
    <glyph glyph-name="uni2008" unicode="&#x2008;" horiz-adv-x="0" 
 />
    <glyph glyph-name="uni2007" unicode="&#x2007;" 
 />
    <glyph glyph-name="uni00A0" unicode="&#xa0;" horiz-adv-x="200" 
 />
    <glyph glyph-name="uni2218" unicode="&#x2218;" 
d="M270 548c113 0 201 -86 201 -196c0 -111 -88 -197 -201 -197c-115 0 -202 85 -202 199c0 108 89 194 202 194zM270 483c-74 0 -130 -57 -130 -130c0 -77 55 -133 130 -133c74 0 129 57 129 131c0 76 -56 132 -129 132z" />
    <glyph glyph-name="openbullet" unicode="&#x25e6;" 
d="M270 548c113 0 201 -86 201 -196c0 -111 -88 -197 -201 -197c-115 0 -202 85 -202 199c0 108 89 194 202 194zM270 483c-74 0 -130 -57 -130 -130c0 -77 55 -133 130 -133c74 0 129 57 129 131c0 76 -56 132 -129 132z" />
    <glyph glyph-name="filledrect" unicode="&#x25ac;" 
d="M95 176v350h350v-350h-350z" />
    <glyph glyph-name="uni25B8" unicode="&#x25b8;" 
d="M111 139v425l425 -213z" />
    <glyph glyph-name="uni25C2" unicode="&#x25c2;" 
d="M429 139l-425 212l425 213v-425z" />
    <glyph glyph-name="uni25B4" unicode="&#x25b4;" 
d="M57 170l213 425l213 -425h-426z" />
    <glyph glyph-name="uni25BE" unicode="&#x25be;" 
d="M57 533h426l-213 -426z" />
    <glyph glyph-name="arrowright" unicode="&#x2192;" horiz-adv-x="800" 
d="M57 290v125h502l-160 160l89 89l273 -285v-53l-273 -285l-89 89l160 160h-502z" />
    <glyph glyph-name="arrowleft" unicode="&#x2190;" horiz-adv-x="800" 
d="M743 290h-502l160 -160l-89 -89l-273 285v53l273 285l89 -89l-160 -160h502v-125z" />
    <glyph glyph-name="arrowboth" unicode="&#x2194;" horiz-adv-x="800" 
d="M591 290h-381l122 -122l-89 -89l-235 247v53l235 247l89 -88l-122 -123h381l-122 123l89 88l235 -247v-53l-235 -247l-89 89z" />
    <glyph glyph-name="arrowup" unicode="&#x2191;" horiz-adv-x="800" 
d="M333 0v517l-160 -159l-89 88l285 273h53l285 -273l-89 -88l-159 159v-517h-126z" />
    <glyph glyph-name="arrowdown" unicode="&#x2193;" horiz-adv-x="800" 
d="M332 197v517h126v-517l160 159l89 -88l-285 -273h-54l-284 273l88 88z" />
    <glyph glyph-name="arrowupdn" unicode="&#x2195;" horiz-adv-x="800" 
d="M333 163v388l-122 -123l-89 89l247 235h53l247 -235l-89 -89l-122 123v-388l122 123l89 -89l-247 -235h-53l-247 235l89 89z" />
    <glyph glyph-name="lozenge" unicode="&#x25ca;" 
d="M-17 355l287 386l287 -386l-287 -386zM152 355l118 -167l118 167l-118 167z" />
    <glyph glyph-name="Delta" unicode="&#x2206;" 
d="M605 0h-666l268 714h129zM400 119l-128 390l-129 -390h257z" />
    <glyph glyph-name="notequal" unicode="&#x2260;" 
d="M63 205v110h125l35 75h-160v110h211l54 118l106 -49l-32 -69h75v-110h-125l-35 -75h160v-110h-211l-54 -118l-106 50l32 68h-75z" />
    <glyph glyph-name="radical" unicode="&#x221a;" 
d="M171 0l-106 272h-65v122h172l66 -195l177 705h306v-99h-183l-217 -805h-150z" />
    <glyph glyph-name="integral" unicode="&#x222b;" horiz-adv-x="454" 
d="M47 -89l26 112c19 -8 30 -11 44 -11c20 0 33 8 40 23c5 14 6 31 6 108v360c0 122 2 154 14 195c18 63 63 95 134 95c36 0 64 -4 108 -17l-26 -111c-19 8 -30 11 -44 11c-20 0 -33 -8 -40 -24c-5 -13 -6 -30 -6 -106v-361c0 -123 -2 -155 -15 -197
c-18 -61 -64 -93 -134 -93c-35 0 -64 4 -107 16z" />
    <glyph glyph-name="similar" unicode="&#x223c;" 
d="M123 267l-85 19c26 109 69 153 149 153c36 0 55 -6 95 -30c43 -26 58 -32 75 -32c24 0 43 18 62 58l82 -25c-31 -96 -79 -141 -151 -141c-37 0 -55 7 -114 43c-21 13 -38 19 -54 19c-26 0 -44 -20 -59 -64z" />
    <glyph glyph-name="approxequal" unicode="&#x2248;" 
d="M123 164l-85 19c26 109 69 153 149 153c36 0 55 -6 95 -30c42 -25 58 -32 75 -32c24 0 44 19 62 58l82 -25c-31 -96 -78 -141 -151 -141c-37 0 -55 7 -114 43c-21 13 -39 19 -54 19c-26 0 -44 -20 -59 -64zM123 371l-85 19c26 109 69 153 150 153c35 0 54 -6 94 -31
c43 -26 58 -32 75 -32c24 0 43 18 62 59l82 -25c-31 -97 -79 -142 -151 -142c-37 0 -55 7 -114 44c-20 13 -39 19 -54 19c-26 0 -44 -20 -59 -64z" />
    <glyph glyph-name="uni2243" unicode="&#x2243;" 
d="M62 205v110h414v-110h-414zM122 371l-85 19c26 109 69 153 150 153c35 0 54 -6 94 -31c43 -26 58 -32 75 -32c24 0 43 18 62 59l82 -25c-31 -97 -79 -142 -151 -142c-37 0 -55 7 -114 44c-20 13 -39 19 -54 19c-26 0 -44 -20 -59 -64z" />
    <glyph glyph-name="lessequal" unicode="&#x2264;" 
d="M225 384l229 -87v-132l-391 173v93l391 173v-133zM63 0v115h391v-115h-391z" />
    <glyph glyph-name="greaterequal" unicode="&#x2265;" 
d="M315 384l-229 87v133l391 -173v-93l-391 -173v132zM86 0v115h391v-115h-391z" />
    <glyph glyph-name="infinity" unicode="&#x221e;" horiz-adv-x="816" 
d="M407 264c-27 -31 -34 -38 -52 -50c-39 -27 -78 -39 -128 -39c-113 0 -180 66 -180 175c0 110 68 176 180 176c51 0 96 -15 135 -44c14 -10 20 -16 45 -45c30 33 35 38 53 50c39 27 80 39 128 39c112 0 180 -66 180 -176c0 -109 -67 -175 -180 -175c-53 0 -95 14 -136 44
c-13 10 -20 17 -45 45zM354 351l-9 9c-43 44 -76 63 -111 63c-45 0 -75 -29 -75 -72c0 -44 30 -73 75 -73c37 0 60 13 109 62zM460 351l12 -11c47 -47 73 -62 109 -62c45 0 75 29 75 73c0 43 -30 72 -75 72c-36 0 -68 -18 -111 -63z" />
    <glyph glyph-name="product" unicode="&#x220f;" horiz-adv-x="641" 
d="M76 -206v920h489v-920h-148v790h-193v-790h-148z" />
    <glyph glyph-name="summation" unicode="&#x2211;" horiz-adv-x="590" 
d="M42 -206v103l196 376l-184 333v108h484v-125h-301l179 -314l-176 -356h312v-125h-510z" />
    <glyph glyph-name="afii61289" unicode="&#x2113;" 
d="M278 274l-6 -36c-12 -87 -15 -109 -15 -137c0 -24 5 -34 16 -34c12 0 17 6 33 40c11 24 19 32 33 32c15 0 24 -11 24 -30c0 -29 -18 -69 -43 -95c-23 -26 -53 -39 -84 -39c-46 0 -77 25 -93 73c-8 24 -11 54 -11 104c0 3 0 10 1 18c-24 -30 -38 -43 -45 -43
c-11 0 -22 22 -22 43c0 18 0 19 39 62c9 10 21 26 36 46c20 121 42 211 73 291c41 108 93 159 161 159c60 0 101 -46 101 -114c0 -98 -71 -220 -198 -340zM290 370c66 79 112 173 112 231c0 22 -9 36 -22 36c-22 0 -36 -23 -53 -83c-14 -50 -26 -110 -37 -184z" />
    <glyph glyph-name="partialdiff" unicode="&#x2202;" 
d="M43 220v61c0 157 64 229 204 229c32 0 52 -4 70 -13c-42 80 -95 116 -198 135l18 93c229 -22 354 -176 360 -444v-61c0 -163 -66 -231 -224 -231c-164 0 -230 66 -230 231zM356 230v41c0 92 -24 128 -86 128s-86 -36 -86 -128v-41c0 -93 24 -129 86 -129s86 36 86 129z
" />
    <glyph glyph-name="underscoredbl" unicode="&#x2017;" horiz-adv-x="470" 
d="M-25 -241v75h520v-75h-520zM-25 -131v75h520v-75h-520z" />
    <glyph glyph-name="uni203E" unicode="&#x203e;" horiz-adv-x="470" 
d="M-25 805v99h520v-99h-520z" />
    <glyph glyph-name="emptyset" unicode="&#x2205;" 
d="M343 592l73 146l77 -28l-76 -153c63 -51 94 -116 94 -201c0 -144 -101 -247 -241 -247c-23 0 -41 2 -68 9l-82 -166l-77 28l84 170c-67 47 -102 117 -102 206c0 143 101 248 237 248c23 0 45 -3 81 -12zM303 507l-7 1c-19 3 -33 5 -37 5c-34 0 -73 -17 -99 -43
c-28 -27 -41 -64 -41 -113c0 -54 12 -83 49 -121zM376 469l-133 -266c14 -3 24 -4 33 -4c35 0 75 17 100 43c28 28 41 65 41 113s-11 79 -41 114z" />
    <glyph glyph-name="uni2126" unicode="&#x2126;" horiz-adv-x="668" 
d="M53 0v110h119v29c-73 36 -112 123 -108 248v53c0 108 16 166 60 212c48 52 109 73 211 73c108 0 174 -25 221 -85c35 -44 49 -101 49 -200v-53c3 -125 -35 -212 -108 -248v-29h119v-110h-238v220c53 13 76 65 74 168v40c0 130 -29 173 -117 173s-118 -43 -118 -173v-40
c-1 -104 21 -155 74 -168v-220h-238z" />
    <glyph glyph-name="uni2196" unicode="&#x2196;" horiz-adv-x="800" 
d="M613 60l-356 357v-227h-126v392l48 48h392v-125h-226l356 -357z" />
    <glyph glyph-name="uni2198" unicode="&#x2198;" horiz-adv-x="800" 
d="M187 631l357 -357v227h125v-392l-48 -48h-392v125h226l-356 357z" />
    <glyph glyph-name="uni2197" unicode="&#x2197;" horiz-adv-x="800" 
d="M187 60l-88 88l356 357h-226v125h392l48 -48v-392h-126v226z" />
    <glyph glyph-name="uni2199" unicode="&#x2199;" horiz-adv-x="800" 
d="M613 631l88 -88l-356 -357h226v-125h-392l-48 48v392h126v-226z" />
    <glyph glyph-name="estimated" unicode="&#x212e;" horiz-adv-x="600" 
d="M558 299h-369v-98c11 -37 17 -51 28 -66c17 -24 53 -40 91 -40c62 0 110 40 128 105h104c-18 -75 -29 -102 -52 -132c-41 -52 -103 -80 -178 -80c-166 0 -267 129 -267 341c0 214 102 350 262 350c103 0 185 -55 224 -152c20 -50 28 -107 29 -228zM420 393v79
c-4 19 -9 31 -18 45c-27 42 -51 56 -98 56c-59 0 -92 -28 -115 -100v-80h231z" />
    <glyph glyph-name="Ohorn" unicode="&#x1a0;" horiz-adv-x="714" 
d="M611 726h126c7 -19 9 -31 9 -51c0 -48 -20 -90 -59 -123c-23 -20 -39 -31 -85 -56l2 -18c1 -15 1 -21 1 -37v-168c0 -107 -16 -165 -60 -211c-48 -52 -109 -73 -211 -73c-107 0 -174 25 -221 85c-35 44 -49 101 -49 199v168c0 107 16 165 60 212c48 51 108 72 210 72
c140 0 220 -46 255 -148c31 22 43 45 43 80c0 26 -6 46 -21 69zM451 286v142c0 130 -29 173 -116 173c-88 0 -117 -43 -117 -173v-142c0 -130 29 -173 116 -173c88 0 117 43 117 173z" />
    <glyph glyph-name="ohorn" unicode="&#x1a1;" horiz-adv-x="618" 
d="M510 530h126c7 -21 9 -34 9 -53c0 -72 -37 -119 -138 -175c2 -13 2 -19 2 -31v-51c0 -164 -66 -231 -229 -231c-162 0 -228 67 -228 231v78c0 164 67 232 228 232c128 0 196 -43 220 -141c23 23 31 41 31 71c0 26 -6 45 -21 70zM363 231v56c0 92 -23 127 -82 127
c-60 0 -83 -35 -83 -127v-56c0 -91 23 -126 83 -126c59 0 82 35 82 126z" />
    <glyph glyph-name="Uhorn" unicode="&#x1af;" horiz-adv-x="758" 
d="M77 714h154v-447c0 -58 4 -86 15 -108c17 -33 43 -46 95 -46c56 0 82 15 98 54c9 21 12 49 12 100v447h154v-156c54 25 75 52 75 97c0 28 -6 48 -21 71h126c7 -20 9 -31 9 -52c0 -60 -27 -103 -92 -148c-22 -15 -45 -28 -97 -55v-204c0 -107 -10 -154 -44 -196
c-47 -58 -111 -82 -220 -82c-115 0 -185 29 -229 95c-26 40 -35 85 -35 183v447z" />
    <glyph glyph-name="uhorn" unicode="&#x1b0;" horiz-adv-x="654" 
d="M64 518h146v-279c0 -92 19 -126 69 -126c52 0 71 37 71 136v269h146v-157c55 26 75 52 75 97c0 28 -6 47 -21 72h126c7 -21 9 -34 9 -53c0 -60 -27 -104 -92 -148c-21 -14 -40 -25 -97 -55v-274h-98l-19 43c-28 -39 -65 -54 -132 -54c-87 0 -144 34 -168 100
c-10 27 -15 69 -15 133v296z" />
    <glyph glyph-name="uni1EA0" unicode="&#x1ea0;" horiz-adv-x="623" 
d="M438 134h-250l-42 -134h-166l258 714h149l259 -714h-167zM401 256l-87 278l-89 -278h176zM241 -213v134h141v-134h-141z" />
    <glyph glyph-name="uni1EA1" unicode="&#x1ea1;" horiz-adv-x="536" 
d="M326 317v17c0 55 -24 80 -76 80c-39 0 -70 -16 -97 -50l-100 70c45 64 117 96 212 96c96 0 162 -33 189 -93c13 -29 18 -65 18 -130v-307h-114l-9 27c-32 -27 -70 -38 -137 -38c-127 0 -175 45 -175 164c0 125 47 164 194 164h95zM326 221h-77c-54 0 -75 -18 -75 -64
c0 -44 20 -59 76 -59c59 0 76 18 76 81v42zM197 -213v134h141v-134h-141z" />
    <glyph glyph-name="uni1EA2" unicode="&#x1ea2;" horiz-adv-x="623" 
d="M438 134h-250l-42 -134h-166l258 714h149l259 -714h-167zM401 256l-87 278l-89 -278h176zM371 769h-98c0 64 2 70 29 105c7 9 9 14 9 21c0 11 -8 17 -22 17c-15 0 -24 -3 -57 -18l-23 80c48 15 69 19 105 19c72 0 114 -34 114 -91c0 -29 -5 -37 -39 -74
c-15 -17 -17 -25 -18 -59z" />
    <glyph glyph-name="uni1EA3" unicode="&#x1ea3;" horiz-adv-x="536" 
d="M326 317v17c0 55 -24 80 -76 80c-39 0 -70 -16 -97 -50l-100 70c45 64 117 96 212 96c96 0 162 -33 189 -93c13 -29 18 -65 18 -130v-307h-114l-9 27c-32 -27 -70 -38 -137 -38c-127 0 -175 45 -175 164c0 125 47 164 194 164h95zM326 221h-77c-54 0 -75 -18 -75 -64
c0 -44 20 -59 76 -59c59 0 76 18 76 81v42zM329 575h-99c1 65 2 71 30 106c7 9 9 14 9 21c0 11 -8 17 -22 17c-15 0 -25 -3 -57 -18l-24 79c46 16 70 20 105 20c73 0 115 -34 115 -91c0 -29 -4 -37 -40 -74c-14 -17 -17 -25 -17 -60z" />
    <glyph glyph-name="uni1EA4" unicode="&#x1ea4;" horiz-adv-x="623" 
d="M438 134h-250l-42 -134h-166l258 714h149l259 -714h-167zM401 256l-87 278l-89 -278h176zM265 914l60 118h114l-95 -118h-79zM312 813l-52 -53h-129l131 127h100l130 -127h-128z" />
    <glyph glyph-name="uni1EA5" unicode="&#x1ea5;" horiz-adv-x="536" 
d="M326 317v17c0 55 -24 80 -76 80c-39 0 -70 -16 -97 -50l-100 70c45 64 117 96 212 96c96 0 162 -33 189 -93c13 -29 18 -65 18 -130v-307h-114l-9 27c-32 -27 -70 -38 -137 -38c-127 0 -175 45 -175 164c0 125 47 164 194 164h95zM326 221h-77c-54 0 -75 -18 -75 -64
c0 -44 20 -59 76 -59c59 0 76 18 76 81v42zM230 718l61 118h113l-95 -118h-79zM277 617l-52 -52h-129l131 126h100l130 -126h-128z" />
    <glyph glyph-name="uni1EA6" unicode="&#x1ea6;" horiz-adv-x="623" 
d="M438 134h-250l-42 -134h-166l258 714h149l259 -714h-167zM401 256l-87 278l-89 -278h176zM356 914h-79l-95 118h113zM312 813l-52 -53h-129l131 127h100l130 -127h-128z" />
    <glyph glyph-name="uni1EA7" unicode="&#x1ea7;" horiz-adv-x="536" 
d="M326 317v17c0 55 -24 80 -76 80c-39 0 -70 -16 -97 -50l-100 70c45 64 117 96 212 96c96 0 162 -33 189 -93c13 -29 18 -65 18 -130v-307h-114l-9 27c-32 -27 -70 -38 -137 -38c-127 0 -175 45 -175 164c0 125 47 164 194 164h95zM326 221h-77c-54 0 -75 -18 -75 -64
c0 -44 20 -59 76 -59c59 0 76 18 76 81v42zM321 718h-79l-95 118h113zM277 617l-52 -52h-129l131 126h100l130 -126h-128z" />
    <glyph glyph-name="uni1EA8" unicode="&#x1ea8;" horiz-adv-x="623" 
d="M438 134h-250l-42 -134h-166l258 714h149l259 -714h-167zM401 256l-87 278l-89 -278h176zM350 890h-84v7c1 36 3 42 24 64c4 4 6 9 6 12c0 6 -5 9 -15 9c-11 0 -21 -3 -43 -14l-21 60c29 11 55 16 86 16c56 0 90 -26 90 -69c0 -20 -4 -26 -31 -50c-10 -9 -10 -11 -12 -35
zM311 809l-52 -49h-128l130 115h100l131 -115h-129z" />
    <glyph glyph-name="uni1EA9" unicode="&#x1ea9;" horiz-adv-x="536" 
d="M326 317v17c0 55 -24 80 -76 80c-39 0 -70 -16 -97 -50l-100 70c45 64 117 96 212 96c96 0 162 -33 189 -93c13 -29 18 -65 18 -130v-307h-114l-9 27c-32 -27 -70 -38 -137 -38c-127 0 -175 45 -175 164c0 125 47 164 194 164h95zM326 221h-77c-54 0 -75 -18 -75 -64
c0 -44 20 -59 76 -59c59 0 76 18 76 81v42zM316 695h-85l1 7c0 35 3 42 23 64c4 4 6 9 6 12c0 6 -5 9 -15 9c-11 0 -21 -3 -43 -14l-20 59c29 12 55 17 85 17c56 0 90 -27 90 -70c0 -19 -4 -26 -31 -49c-9 -10 -10 -12 -11 -35zM276 614l-52 -49h-128l130 114h100l131 -114
h-129z" />
    <glyph glyph-name="uni1EAA" unicode="&#x1eaa;" horiz-adv-x="623" 
d="M438 134h-250l-42 -134h-166l258 714h149l259 -714h-167zM401 256l-87 278l-89 -278h176zM229 912h-72c9 42 13 57 22 73c18 34 44 50 81 50c25 0 45 -7 64 -24c27 -23 30 -25 39 -25c15 0 22 12 26 43h72c-7 -45 -10 -57 -17 -73c-14 -33 -42 -50 -80 -50
c-28 0 -48 8 -69 27c-20 19 -25 22 -34 22c-15 0 -28 -17 -32 -43zM313 813l-52 -53h-129l131 127h100l130 -127h-128z" />
    <glyph glyph-name="uni1EAB" unicode="&#x1eab;" horiz-adv-x="536" 
d="M326 317v17c0 55 -24 80 -76 80c-39 0 -70 -16 -97 -50l-100 70c45 64 117 96 212 96c96 0 162 -33 189 -93c13 -29 18 -65 18 -130v-307h-114l-9 27c-32 -27 -70 -38 -137 -38c-127 0 -175 45 -175 164c0 125 47 164 194 164h95zM326 221h-77c-54 0 -75 -18 -75 -64
c0 -44 20 -59 76 -59c59 0 76 18 76 81v42zM191 716h-71c8 42 13 56 21 73c18 34 45 50 82 50c25 0 44 -7 64 -24c27 -23 29 -25 39 -25c14 0 22 12 26 43h72c-8 -47 -10 -57 -17 -73c-14 -32 -43 -50 -80 -50c-27 0 -48 8 -69 27c-21 18 -25 21 -35 21
c-15 0 -28 -17 -32 -42zM275 617l-52 -52h-128l130 126h100l131 -126h-129z" />
    <glyph glyph-name="uni1EAC" unicode="&#x1eac;" horiz-adv-x="623" 
d="M438 134h-250l-42 -134h-166l258 714h149l259 -714h-167zM401 256l-87 278l-89 -278h176zM312 852l-55 -76h-136l137 156h107l137 -156h-136zM241 -213v134h141v-134h-141z" />
    <glyph glyph-name="uni1EAD" unicode="&#x1ead;" horiz-adv-x="536" 
d="M326 317v17c0 55 -24 80 -76 80c-39 0 -70 -16 -97 -50l-100 70c45 64 117 96 212 96c96 0 162 -33 189 -93c13 -29 18 -65 18 -130v-307h-114l-9 27c-32 -27 -70 -38 -137 -38c-127 0 -175 45 -175 164c0 125 47 164 194 164h95zM326 221h-77c-54 0 -75 -18 -75 -64
c0 -44 20 -59 76 -59c59 0 76 18 76 81v42zM268 656l-54 -76h-136l137 156h106l138 -156h-136zM197 -213v134h141v-134h-141z" />
    <glyph glyph-name="uni1EAE" unicode="&#x1eae;" horiz-adv-x="623" 
d="M438 134h-250l-42 -134h-166l258 714h149l259 -714h-167zM401 256l-87 278l-89 -278h176zM265 914l60 118h114l-95 -118h-79zM145 908h84c8 -44 27 -57 82 -57c57 0 76 13 83 57h85c-3 -54 -7 -73 -20 -94c-26 -41 -71 -59 -147 -59c-82 0 -130 21 -153 68
c-9 19 -12 37 -14 85z" />
    <glyph glyph-name="uni1EAF" unicode="&#x1eaf;" horiz-adv-x="536" 
d="M326 317v17c0 55 -24 80 -76 80c-39 0 -70 -16 -97 -50l-100 70c45 64 117 96 212 96c96 0 162 -33 189 -93c13 -29 18 -65 18 -130v-307h-114l-9 27c-32 -27 -70 -38 -137 -38c-127 0 -175 45 -175 164c0 125 47 164 194 164h95zM326 221h-77c-54 0 -75 -18 -75 -64
c0 -44 20 -59 76 -59c59 0 76 18 76 81v42zM228 718l60 118h114l-96 -118h-78zM107 712h85c7 -44 26 -57 82 -57s76 13 83 57h84c-2 -54 -6 -73 -20 -94c-25 -41 -70 -59 -147 -59c-81 0 -129 21 -152 68c-10 19 -12 36 -15 85z" />
    <glyph glyph-name="uni1EB0" unicode="&#x1eb0;" horiz-adv-x="623" 
d="M438 134h-250l-42 -134h-166l258 714h149l259 -714h-167zM401 256l-87 278l-89 -278h176zM364 914h-79l-95 118h113zM145 908h84c8 -44 27 -57 82 -57c57 0 76 13 83 57h85c-3 -54 -7 -73 -20 -94c-26 -41 -71 -59 -147 -59c-82 0 -130 21 -153 68c-9 19 -12 37 -14 85z
" />
    <glyph glyph-name="uni1EB1" unicode="&#x1eb1;" horiz-adv-x="536" 
d="M326 317v17c0 55 -24 80 -76 80c-39 0 -70 -16 -97 -50l-100 70c45 64 117 96 212 96c96 0 162 -33 189 -93c13 -29 18 -65 18 -130v-307h-114l-9 27c-32 -27 -70 -38 -137 -38c-127 0 -175 45 -175 164c0 125 47 164 194 164h95zM326 221h-77c-54 0 -75 -18 -75 -64
c0 -44 20 -59 76 -59c59 0 76 18 76 81v42zM332 718h-79l-95 118h114zM107 712h85c7 -44 26 -57 82 -57s76 13 83 57h84c-2 -54 -6 -73 -20 -94c-25 -41 -70 -59 -147 -59c-81 0 -129 21 -152 68c-10 19 -12 36 -15 85z" />
    <glyph glyph-name="uni1EB2" unicode="&#x1eb2;" horiz-adv-x="623" 
d="M438 134h-250l-42 -134h-166l258 714h149l259 -714h-167zM401 256l-87 278l-89 -278h176zM351 888h-84v7c1 37 3 42 24 66c4 4 6 9 6 12c0 7 -5 10 -15 10c-11 0 -21 -3 -43 -15l-21 60c29 12 55 17 86 17c56 0 90 -27 90 -71c0 -19 -4 -25 -31 -49
c-9 -9 -11 -15 -12 -37zM145 908h82c8 -46 27 -60 85 -60c57 0 76 14 84 60h83c-3 -54 -7 -73 -20 -94c-26 -41 -71 -59 -147 -59c-82 0 -130 21 -153 68c-9 19 -12 37 -14 85z" />
    <glyph glyph-name="uni1EB3" unicode="&#x1eb3;" horiz-adv-x="536" 
d="M326 317v17c0 55 -24 80 -76 80c-39 0 -70 -16 -97 -50l-100 70c45 64 117 96 212 96c96 0 162 -33 189 -93c13 -29 18 -65 18 -130v-307h-114l-9 27c-32 -27 -70 -38 -137 -38c-127 0 -175 45 -175 164c0 125 47 164 194 164h95zM326 221h-77c-54 0 -75 -18 -75 -64
c0 -44 20 -59 76 -59c59 0 76 18 76 81v42zM314 692h-84v7c1 37 3 42 24 66c4 4 6 9 6 12c0 7 -5 10 -15 10c-11 0 -22 -4 -44 -14l-20 59c29 12 56 17 86 17c56 0 90 -27 90 -71c0 -19 -4 -25 -31 -49c-9 -9 -11 -14 -12 -37zM107 712h83c8 -46 27 -60 84 -60
c58 0 77 14 85 60h82c-2 -54 -6 -73 -20 -94c-25 -41 -70 -59 -147 -59c-81 0 -129 21 -152 68c-10 19 -12 36 -15 85z" />
    <glyph glyph-name="uni1EB4" unicode="&#x1eb4;" horiz-adv-x="623" 
d="M438 134h-250l-42 -134h-166l258 714h149l259 -714h-167zM401 256l-87 278l-89 -278h176zM226 921h-71c8 41 13 57 22 73c17 34 44 50 81 50c25 0 44 -7 64 -24c27 -23 30 -25 39 -25c14 0 22 13 26 43h72c-6 -40 -10 -57 -17 -73c-14 -33 -42 -50 -80 -50
c-28 0 -48 8 -69 27s-25 22 -35 22c-15 0 -27 -17 -32 -43zM144 893h80c7 -38 26 -50 80 -50c56 0 74 11 82 50h80c-3 -51 -6 -65 -20 -85c-24 -36 -67 -52 -141 -52c-80 0 -125 19 -147 61c-10 18 -13 34 -14 76z" />
    <glyph glyph-name="uni1EB5" unicode="&#x1eb5;" horiz-adv-x="536" 
d="M326 317v17c0 55 -24 80 -76 80c-39 0 -70 -16 -97 -50l-100 70c45 64 117 96 212 96c96 0 162 -33 189 -93c13 -29 18 -65 18 -130v-307h-114l-9 27c-32 -27 -70 -38 -137 -38c-127 0 -175 45 -175 164c0 125 47 164 194 164h95zM326 221h-77c-54 0 -75 -18 -75 -64
c0 -44 20 -59 76 -59c59 0 76 18 76 81v42zM192 725h-72c8 42 13 57 22 74c17 33 44 49 81 49c25 0 45 -7 64 -24c27 -23 30 -25 39 -25c14 0 23 13 26 43h72c-6 -40 -10 -57 -17 -73c-14 -33 -41 -50 -80 -50c-28 0 -48 8 -69 27c-20 19 -25 22 -34 22
c-16 0 -28 -17 -32 -43zM109 697h80c7 -38 26 -50 80 -50c56 0 75 11 82 50h80c-3 -50 -6 -65 -19 -85c-25 -36 -68 -52 -142 -52c-79 0 -125 19 -147 61c-9 18 -12 33 -14 76z" />
    <glyph glyph-name="uni1EB6" unicode="&#x1eb6;" horiz-adv-x="623" 
d="M438 134h-250l-42 -134h-166l258 714h149l259 -714h-167zM401 256l-87 278l-89 -278h176zM135 931h90c8 -49 28 -63 87 -63s79 14 87 63h89c-2 -60 -6 -79 -21 -103c-27 -44 -74 -64 -155 -64c-87 0 -137 23 -162 75c-10 20 -13 39 -15 92zM241 -213v134h141v-134h-141z
" />
    <glyph glyph-name="uni1EB7" unicode="&#x1eb7;" horiz-adv-x="536" 
d="M326 317v17c0 55 -24 80 -76 80c-39 0 -70 -16 -97 -50l-100 70c45 64 117 96 212 96c96 0 162 -33 189 -93c13 -29 18 -65 18 -130v-307h-114l-9 27c-32 -27 -70 -38 -137 -38c-127 0 -175 45 -175 164c0 125 47 164 194 164h95zM326 221h-77c-54 0 -75 -18 -75 -64
c0 -44 20 -59 76 -59c59 0 76 18 76 81v42zM95 735h89c8 -49 28 -63 87 -63s79 14 87 63h90c-3 -60 -7 -79 -21 -103c-27 -44 -75 -64 -155 -64c-87 0 -137 23 -162 75c-10 21 -13 40 -15 92zM197 -213v134h141v-134h-141z" />
    <glyph glyph-name="uni1EB8" unicode="&#x1eb8;" horiz-adv-x="582" 
d="M81 0v714h451v-125h-299v-166h253v-125h-253v-173h303v-125h-455zM238 -213v134h141v-134h-141z" />
    <glyph glyph-name="uni1EB9" unicode="&#x1eb9;" horiz-adv-x="551" 
d="M198 222v-13c0 -71 33 -108 96 -108c48 0 77 15 102 55l107 -61c-44 -76 -108 -106 -225 -106c-162 0 -226 71 -226 250v33c0 92 12 145 43 185c36 49 96 73 184 73c162 0 227 -74 227 -258v-50h-308zM197 321h172v12c0 58 -31 91 -87 91c-53 0 -85 -34 -85 -91v-12z
M205 -213v134h141v-134h-141z" />
    <glyph glyph-name="uni1EBA" unicode="&#x1eba;" horiz-adv-x="582" 
d="M81 0v714h451v-125h-299v-166h253v-125h-253v-173h303v-125h-455zM369 769h-99c1 65 2 70 30 105c7 9 9 14 9 21c0 11 -8 17 -22 17c-15 0 -25 -3 -57 -18l-24 80c48 15 70 19 105 19c72 0 115 -34 115 -91c0 -29 -4 -37 -40 -74c-15 -17 -17 -25 -17 -59z" />
    <glyph glyph-name="uni1EBB" unicode="&#x1ebb;" horiz-adv-x="551" 
d="M198 222v-13c0 -71 33 -108 96 -108c48 0 77 15 102 55l107 -61c-44 -76 -108 -106 -225 -106c-162 0 -226 71 -226 250v33c0 92 12 145 43 185c36 49 96 73 184 73c162 0 227 -74 227 -258v-50h-308zM197 321h172v12c0 58 -31 91 -87 91c-53 0 -85 -34 -85 -91v-12z
M337 575h-99c1 65 3 71 30 106c7 9 9 14 9 21c0 11 -7 17 -22 17s-24 -3 -57 -18l-24 79c46 16 70 20 105 20c73 0 115 -34 115 -92c0 -28 -4 -36 -40 -73c-15 -18 -17 -25 -17 -60z" />
    <glyph glyph-name="uni1EBE" unicode="&#x1ebe;" horiz-adv-x="582" 
d="M81 0v714h451v-125h-299v-166h253v-125h-253v-173h303v-125h-455zM262 914l61 118h113l-95 -118h-79zM309 813l-52 -53h-128l130 127h100l131 -127h-129z" />
    <glyph glyph-name="uni1EBF" unicode="&#x1ebf;" horiz-adv-x="551" 
d="M198 222v-13c0 -71 33 -108 96 -108c48 0 77 15 102 55l107 -61c-44 -76 -108 -106 -225 -106c-162 0 -226 71 -226 250v33c0 92 12 145 43 185c36 49 96 73 184 73c162 0 227 -74 227 -258v-50h-308zM197 321h172v12c0 58 -31 91 -87 91c-53 0 -85 -34 -85 -91v-12z
M235 718l60 118h114l-95 -118h-79zM282 617l-52 -52h-129l130 126h100l131 -126h-128z" />
    <glyph glyph-name="uni1EC0" unicode="&#x1ec0;" horiz-adv-x="582" 
d="M81 0v714h451v-125h-299v-166h253v-125h-253v-173h303v-125h-455zM353 914h-79l-95 118h113zM309 813l-52 -53h-128l130 127h100l131 -127h-129z" />
    <glyph glyph-name="uni1EC1" unicode="&#x1ec1;" horiz-adv-x="551" 
d="M198 222v-13c0 -71 33 -108 96 -108c48 0 77 15 102 55l107 -61c-44 -76 -108 -106 -225 -106c-162 0 -226 71 -226 250v33c0 92 12 145 43 185c36 49 96 73 184 73c162 0 227 -74 227 -258v-50h-308zM197 321h172v12c0 58 -31 91 -87 91c-53 0 -85 -34 -85 -91v-12z
M326 718h-79l-95 118h113zM282 617l-52 -52h-129l131 126h100l130 -126h-128z" />
    <glyph glyph-name="uni1EC2" unicode="&#x1ec2;" horiz-adv-x="582" 
d="M81 0v714h451v-125h-299v-166h253v-125h-253v-173h303v-125h-455zM348 890h-84v7c0 36 3 42 23 64c4 4 6 9 6 12c0 6 -5 9 -15 9c-11 0 -21 -3 -43 -14l-20 60c29 11 55 16 85 16c56 0 90 -26 90 -69c0 -20 -4 -26 -31 -50c-9 -9 -10 -11 -11 -35zM308 809l-52 -49h-128
l130 115h100l131 -115h-129z" />
    <glyph glyph-name="uni1EC3" unicode="&#x1ec3;" horiz-adv-x="551" 
d="M198 222v-13c0 -71 33 -108 96 -108c48 0 77 15 102 55l107 -61c-44 -76 -108 -106 -225 -106c-162 0 -226 71 -226 250v33c0 92 12 145 43 185c36 49 96 73 184 73c162 0 227 -74 227 -258v-50h-308zM197 321h172v12c0 58 -31 91 -87 91c-53 0 -85 -34 -85 -91v-12z
M320 695h-84v7c1 36 3 42 24 64c3 4 6 9 6 12c0 6 -5 9 -15 9c-11 0 -21 -3 -43 -14l-21 59c29 12 56 17 86 17c56 0 90 -26 90 -69c0 -20 -4 -26 -31 -50c-10 -10 -10 -12 -12 -35zM281 614l-52 -49h-129l131 114h100l130 -114h-128z" />
    <glyph glyph-name="uni1EC4" unicode="&#x1ec4;" horiz-adv-x="582" 
d="M81 0v714h451v-125h-299v-166h253v-125h-253v-173h303v-125h-455zM226 912h-71c8 42 12 57 21 73c18 34 45 50 81 50c25 0 45 -7 65 -24c26 -23 29 -25 39 -25c14 0 21 12 26 43h71c-6 -45 -9 -57 -16 -73c-14 -33 -42 -50 -80 -50c-28 0 -48 8 -69 27s-25 22 -35 22
c-15 0 -28 -17 -32 -43zM310 813l-52 -53h-128l130 127h100l131 -127h-129z" />
    <glyph glyph-name="uni1EC5" unicode="&#x1ec5;" horiz-adv-x="551" 
d="M198 222v-13c0 -71 33 -108 96 -108c48 0 77 15 102 55l107 -61c-44 -76 -108 -106 -225 -106c-162 0 -226 71 -226 250v33c0 92 12 145 43 185c36 49 96 73 184 73c162 0 227 -74 227 -258v-50h-308zM197 321h172v12c0 58 -31 91 -87 91c-53 0 -85 -34 -85 -91v-12z
M197 716h-71c8 41 12 56 21 73c18 34 45 50 81 50c25 0 45 -7 65 -24c27 -23 29 -25 39 -25c14 0 22 14 26 43h71c-6 -42 -9 -57 -16 -73c-14 -32 -43 -50 -80 -50c-28 0 -48 8 -69 27c-21 18 -25 21 -35 21c-15 0 -28 -17 -32 -42zM281 617l-52 -52h-128l130 126h100
l131 -126h-129z" />
    <glyph glyph-name="uni1EC6" unicode="&#x1ec6;" horiz-adv-x="582" 
d="M81 0v714h451v-125h-299v-166h253v-125h-253v-173h303v-125h-455zM305 852l-54 -76h-137l138 156h106l138 -156h-136zM238 -213v134h141v-134h-141z" />
    <glyph glyph-name="uni1EC7" unicode="&#x1ec7;" horiz-adv-x="551" 
d="M198 222v-13c0 -71 33 -108 96 -108c48 0 77 15 102 55l107 -61c-44 -76 -108 -106 -225 -106c-162 0 -226 71 -226 250v33c0 92 12 145 43 185c36 49 96 73 184 73c162 0 227 -74 227 -258v-50h-308zM197 321h172v12c0 58 -31 91 -87 91c-53 0 -85 -34 -85 -91v-12z
M282 656l-54 -76h-136l137 156h106l138 -156h-136zM205 -213v134h141v-134h-141z" />
    <glyph glyph-name="uni1EC8" unicode="&#x1ec8;" horiz-adv-x="314" 
d="M80 0v714h154v-714h-154zM216 769h-98c1 65 2 70 30 105c7 9 9 14 9 21c0 11 -8 17 -22 17c-16 0 -24 -2 -58 -18l-23 80c48 15 70 19 105 19c72 0 115 -34 115 -91c0 -29 -4 -37 -40 -74c-15 -17 -17 -25 -18 -59z" />
    <glyph glyph-name="uni1EC9" unicode="&#x1ec9;" horiz-adv-x="283" 
d="M68 0v518h146v-518h-146zM200 575h-98c0 65 2 71 30 106c7 9 9 14 9 21c0 11 -7 17 -22 17s-25 -3 -58 -18l-23 79c46 16 69 20 105 20c73 0 115 -34 115 -91c0 -29 -4 -37 -40 -74c-15 -18 -17 -25 -18 -60z" />
    <glyph glyph-name="uni1ECA" unicode="&#x1eca;" horiz-adv-x="314" 
d="M80 0v714h154v-714h-154zM86 -213v134h141v-134h-141z" />
    <glyph glyph-name="uni1ECB" unicode="&#x1ecb;" horiz-adv-x="283" 
d="M68 585v137h146v-137h-146zM68 0v518h146v-518h-146zM70 -213v134h141v-134h-141z" />
    <glyph glyph-name="uni1ECC" unicode="&#x1ecc;" horiz-adv-x="668" 
d="M64 273v168c0 107 16 165 60 211c48 52 109 73 210 73c108 0 175 -25 222 -85c35 -45 49 -100 49 -199v-168c0 -107 -16 -165 -60 -211c-48 -52 -109 -73 -211 -73c-107 0 -174 25 -221 85c-35 44 -49 101 -49 199zM451 286v142c0 130 -29 173 -116 173
c-88 0 -117 -43 -117 -173v-142c0 -130 29 -173 116 -173c88 0 117 43 117 173zM264 -213v134h141v-134h-141z" />
    <glyph glyph-name="uni1ECD" unicode="&#x1ecd;" horiz-adv-x="560" 
d="M52 220v78c0 164 67 232 229 232c161 0 228 -68 228 -232v-78c0 -164 -66 -231 -229 -231c-162 0 -228 67 -228 231zM363 231v56c0 92 -23 127 -82 127c-60 0 -83 -35 -83 -127v-56c0 -91 23 -126 83 -126c59 0 82 35 82 126zM209 -213v134h141v-134h-141z" />
    <glyph glyph-name="uni1ECE" unicode="&#x1ece;" horiz-adv-x="668" 
d="M64 273v168c0 107 16 165 60 211c48 52 109 73 210 73c108 0 175 -25 222 -85c35 -45 49 -100 49 -199v-168c0 -107 -16 -165 -60 -211c-48 -52 -109 -73 -211 -73c-107 0 -174 25 -221 85c-35 44 -49 101 -49 199zM451 286v142c0 130 -29 173 -116 173
c-88 0 -117 -43 -117 -173v-142c0 -130 29 -173 116 -173c88 0 117 43 117 173zM394 769h-99c1 65 3 71 30 105c7 9 9 14 9 21c0 11 -7 17 -22 17s-24 -3 -57 -18l-24 80c48 15 70 19 106 19c72 0 114 -34 114 -91c0 -29 -4 -37 -39 -74c-15 -17 -17 -24 -18 -59z" />
    <glyph glyph-name="uni1ECF" unicode="&#x1ecf;" horiz-adv-x="560" 
d="M52 220v78c0 164 67 232 229 232c161 0 228 -68 228 -232v-78c0 -164 -66 -231 -229 -231c-162 0 -228 67 -228 231zM363 231v56c0 92 -23 127 -82 127c-60 0 -83 -35 -83 -127v-56c0 -91 23 -126 83 -126c59 0 82 35 82 126zM340 575h-99c1 65 2 71 30 106
c7 9 9 14 9 21c0 11 -8 17 -22 17c-15 0 -25 -3 -57 -18l-24 79c46 16 70 20 105 20c73 0 115 -34 115 -91c0 -29 -4 -37 -39 -74c-15 -17 -18 -25 -18 -60z" />
    <glyph glyph-name="uni1ED0" unicode="&#x1ed0;" horiz-adv-x="668" 
d="M64 273v168c0 107 16 165 60 211c48 52 109 73 210 73c108 0 175 -25 222 -85c35 -45 49 -100 49 -199v-168c0 -107 -16 -165 -60 -211c-48 -52 -109 -73 -211 -73c-107 0 -174 25 -221 85c-35 44 -49 101 -49 199zM451 286v142c0 130 -29 173 -116 173
c-88 0 -117 -43 -117 -173v-142c0 -130 29 -173 116 -173c88 0 117 43 117 173zM288 914l60 118h114l-95 -118h-79zM334 813l-52 -53h-128l130 127h100l131 -127h-129z" />
    <glyph glyph-name="uni1ED1" unicode="&#x1ed1;" horiz-adv-x="560" 
d="M52 220v78c0 164 67 232 229 232c161 0 228 -68 228 -232v-78c0 -164 -66 -231 -229 -231c-162 0 -228 67 -228 231zM363 231v56c0 92 -23 127 -82 127c-60 0 -83 -35 -83 -127v-56c0 -91 23 -126 83 -126c59 0 82 35 82 126zM234 718l60 118h114l-95 -118h-79zM280 617
l-52 -52h-128l130 126h100l131 -126h-129z" />
    <glyph glyph-name="uni1ED2" unicode="&#x1ed2;" horiz-adv-x="668" 
d="M64 273v168c0 107 16 165 60 211c48 52 109 73 210 73c108 0 175 -25 222 -85c35 -45 49 -100 49 -199v-168c0 -107 -16 -165 -60 -211c-48 -52 -109 -73 -211 -73c-107 0 -174 25 -221 85c-35 44 -49 101 -49 199zM451 286v142c0 130 -29 173 -116 173
c-88 0 -117 -43 -117 -173v-142c0 -130 29 -173 116 -173c88 0 117 43 117 173zM378 914h-79l-95 118h114zM334 813l-52 -53h-128l131 127h100l130 -127h-129z" />
    <glyph glyph-name="uni1ED3" unicode="&#x1ed3;" horiz-adv-x="560" 
d="M52 220v78c0 164 67 232 229 232c161 0 228 -68 228 -232v-78c0 -164 -66 -231 -229 -231c-162 0 -228 67 -228 231zM363 231v56c0 92 -23 127 -82 127c-60 0 -83 -35 -83 -127v-56c0 -91 23 -126 83 -126c59 0 82 35 82 126zM324 718h-79l-95 118h114zM280 617l-52 -52
h-128l131 126h100l130 -126h-129z" />
    <glyph glyph-name="uni1ED4" unicode="&#x1ed4;" horiz-adv-x="668" 
d="M64 273v168c0 107 16 165 60 211c48 52 109 73 210 73c108 0 175 -25 222 -85c35 -45 49 -100 49 -199v-168c0 -107 -16 -165 -60 -211c-48 -52 -109 -73 -211 -73c-107 0 -174 25 -221 85c-35 44 -49 101 -49 199zM451 286v142c0 130 -29 173 -116 173
c-88 0 -117 -43 -117 -173v-142c0 -130 29 -173 116 -173c88 0 117 43 117 173zM373 890h-84v7c1 36 3 42 24 64c4 4 6 9 6 12c0 6 -5 9 -15 9c-11 0 -21 -3 -43 -14l-21 60c29 11 55 16 86 16c56 0 90 -26 90 -69c0 -19 -4 -26 -31 -50c-10 -9 -11 -12 -12 -35zM334 809
l-52 -49h-129l131 115h100l130 -115h-128z" />
    <glyph glyph-name="uni1ED5" unicode="&#x1ed5;" horiz-adv-x="560" 
d="M52 220v78c0 164 67 232 229 232c161 0 228 -68 228 -232v-78c0 -164 -66 -231 -229 -231c-162 0 -228 67 -228 231zM363 231v56c0 92 -23 127 -82 127c-60 0 -83 -35 -83 -127v-56c0 -91 23 -126 83 -126c59 0 82 35 82 126zM319 695h-84v7c1 35 3 42 24 64
c4 4 6 9 6 12c0 6 -5 9 -15 9c-11 0 -21 -3 -43 -14l-21 59c29 12 56 17 86 17c56 0 90 -26 90 -69c0 -20 -4 -26 -31 -50c-10 -10 -11 -12 -12 -35zM280 614l-52 -49h-129l131 114h100l130 -114h-128z" />
    <glyph glyph-name="uni1ED6" unicode="&#x1ed6;" horiz-adv-x="668" 
d="M64 273v168c0 107 16 165 60 211c48 52 109 73 210 73c108 0 175 -25 222 -85c35 -45 49 -100 49 -199v-168c0 -107 -16 -165 -60 -211c-48 -52 -109 -73 -211 -73c-107 0 -174 25 -221 85c-35 44 -49 101 -49 199zM451 286v142c0 130 -29 173 -116 173
c-88 0 -117 -43 -117 -173v-142c0 -130 29 -173 116 -173c88 0 117 43 117 173zM251 912h-71c8 42 13 57 22 73c17 34 44 50 81 50c25 0 44 -7 64 -24c26 -23 30 -25 39 -25c14 0 22 13 26 43h72c-6 -40 -10 -57 -17 -73c-14 -33 -42 -50 -80 -50c-28 0 -48 8 -69 27
c-20 19 -25 22 -35 22c-15 0 -27 -17 -32 -43zM335 813l-51 -53h-129l130 127h100l131 -127h-128z" />
    <glyph glyph-name="uni1ED7" unicode="&#x1ed7;" horiz-adv-x="560" 
d="M52 220v78c0 164 67 232 229 232c161 0 228 -68 228 -232v-78c0 -164 -66 -231 -229 -231c-162 0 -228 67 -228 231zM363 231v56c0 92 -23 127 -82 127c-60 0 -83 -35 -83 -127v-56c0 -91 23 -126 83 -126c59 0 82 35 82 126zM197 716h-71c8 42 13 56 22 73
c18 34 44 50 81 50c25 0 44 -7 64 -24c27 -23 30 -25 39 -25c14 0 22 12 26 43h72c-6 -42 -10 -57 -17 -73c-14 -32 -42 -50 -80 -50c-27 0 -48 8 -69 27c-21 18 -25 21 -34 21c-16 0 -28 -17 -33 -42zM281 617l-52 -52h-128l130 126h100l131 -126h-128z" />
    <glyph glyph-name="uni1ED8" unicode="&#x1ed8;" horiz-adv-x="668" 
d="M64 273v168c0 107 16 165 60 211c48 52 109 73 210 73c108 0 175 -25 222 -85c35 -45 49 -100 49 -199v-168c0 -107 -16 -165 -60 -211c-48 -52 -109 -73 -211 -73c-107 0 -174 25 -221 85c-35 44 -49 101 -49 199zM451 286v142c0 130 -29 173 -116 173
c-88 0 -117 -43 -117 -173v-142c0 -130 29 -173 116 -173c88 0 117 43 117 173zM334 852l-54 -76h-136l137 156h106l138 -156h-136zM264 -213v134h141v-134h-141z" />
    <glyph glyph-name="uni1ED9" unicode="&#x1ed9;" horiz-adv-x="560" 
d="M52 220v78c0 164 67 232 229 232c161 0 228 -68 228 -232v-78c0 -164 -66 -231 -229 -231c-162 0 -228 67 -228 231zM363 231v56c0 92 -23 127 -82 127c-60 0 -83 -35 -83 -127v-56c0 -91 23 -126 83 -126c59 0 82 35 82 126zM280 656l-54 -76h-136l137 156h106l138 -156
h-136zM209 -213v134h141v-134h-141z" />
    <glyph glyph-name="uni1EDA" unicode="&#x1eda;" horiz-adv-x="714" 
d="M611 726h126c7 -19 9 -31 9 -51c0 -48 -20 -90 -59 -123c-23 -20 -39 -31 -85 -56l2 -18c1 -15 1 -21 1 -37v-168c0 -107 -16 -165 -60 -211c-48 -52 -109 -73 -211 -73c-107 0 -174 25 -221 85c-35 44 -49 101 -49 199v168c0 107 16 165 60 212c48 51 108 72 210 72
c140 0 220 -46 255 -148c31 22 43 45 43 80c0 26 -6 46 -21 69zM451 286v142c0 130 -29 173 -116 173c-88 0 -117 -43 -117 -173v-142c0 -130 29 -173 116 -173c88 0 117 43 117 173zM282 775l84 158h162l-138 -158h-108z" />
    <glyph glyph-name="uni1EDB" unicode="&#x1edb;" horiz-adv-x="618" 
d="M510 530h126c7 -21 9 -34 9 -53c0 -72 -37 -119 -138 -175c2 -13 2 -19 2 -31v-51c0 -164 -66 -231 -229 -231c-162 0 -228 67 -228 231v78c0 164 67 232 228 232c128 0 196 -43 220 -141c23 23 31 41 31 71c0 26 -6 45 -21 70zM363 231v56c0 92 -23 127 -82 127
c-60 0 -83 -35 -83 -127v-56c0 -91 23 -126 83 -126c59 0 82 35 82 126zM226 579l83 158h163l-138 -158h-108z" />
    <glyph glyph-name="uni1EDC" unicode="&#x1edc;" horiz-adv-x="714" 
d="M611 726h126c7 -19 9 -31 9 -51c0 -48 -20 -90 -59 -123c-23 -20 -39 -31 -85 -56l2 -18c1 -15 1 -21 1 -37v-168c0 -107 -16 -165 -60 -211c-48 -52 -109 -73 -211 -73c-107 0 -174 25 -221 85c-35 44 -49 101 -49 199v168c0 107 16 165 60 212c48 51 108 72 210 72
c140 0 220 -46 255 -148c31 22 43 45 43 80c0 26 -6 46 -21 69zM451 286v142c0 130 -29 173 -116 173c-88 0 -117 -43 -117 -173v-142c0 -130 29 -173 116 -173c88 0 117 43 117 173zM427 775h-109l-137 158h162z" />
    <glyph glyph-name="uni1EDD" unicode="&#x1edd;" horiz-adv-x="618" 
d="M510 530h126c7 -21 9 -34 9 -53c0 -72 -37 -119 -138 -175c2 -13 2 -19 2 -31v-51c0 -164 -66 -231 -229 -231c-162 0 -228 67 -228 231v78c0 164 67 232 228 232c128 0 196 -43 220 -141c23 23 31 41 31 71c0 26 -6 45 -21 70zM363 231v56c0 92 -23 127 -82 127
c-60 0 -83 -35 -83 -127v-56c0 -91 23 -126 83 -126c59 0 82 35 82 126zM374 579h-109l-137 158h162z" />
    <glyph glyph-name="uni1EDE" unicode="&#x1ede;" horiz-adv-x="714" 
d="M611 726h126c7 -19 9 -31 9 -51c0 -48 -20 -90 -59 -123c-23 -20 -39 -31 -85 -56l2 -18c1 -15 1 -21 1 -37v-168c0 -107 -16 -165 -60 -211c-48 -52 -109 -73 -211 -73c-107 0 -174 25 -221 85c-35 44 -49 101 -49 199v168c0 107 16 165 60 212c48 51 108 72 210 72
c140 0 220 -46 255 -148c31 22 43 45 43 80c0 26 -6 46 -21 69zM451 286v142c0 130 -29 173 -116 173c-88 0 -117 -43 -117 -173v-142c0 -130 29 -173 116 -173c88 0 117 43 117 173zM393 769h-99c1 65 2 70 30 105c7 9 9 15 9 21c0 11 -7 17 -22 17c-16 0 -24 -3 -57 -18
l-24 80c48 15 70 19 105 19c73 0 115 -34 115 -91c0 -29 -4 -37 -40 -74c-14 -17 -17 -25 -17 -59z" />
    <glyph glyph-name="uni1EDF" unicode="&#x1edf;" horiz-adv-x="618" 
d="M510 530h126c7 -21 9 -34 9 -53c0 -72 -37 -119 -138 -175c2 -13 2 -19 2 -31v-51c0 -164 -66 -231 -229 -231c-162 0 -228 67 -228 231v78c0 164 67 232 228 232c128 0 196 -43 220 -141c23 23 31 41 31 71c0 26 -6 45 -21 70zM363 231v56c0 92 -23 127 -82 127
c-60 0 -83 -35 -83 -127v-56c0 -91 23 -126 83 -126c59 0 82 35 82 126zM344 575h-99c1 65 3 71 30 106c7 9 9 14 9 21c0 11 -7 17 -22 17s-25 -3 -57 -18l-24 79c46 16 70 20 105 20c73 0 115 -34 115 -92c0 -28 -4 -36 -39 -73c-15 -18 -18 -25 -18 -60z" />
    <glyph glyph-name="uni1EE0" unicode="&#x1ee0;" horiz-adv-x="714" 
d="M611 726h126c7 -19 9 -31 9 -51c0 -48 -20 -90 -59 -123c-23 -20 -39 -31 -85 -56l2 -18c1 -15 1 -21 1 -37v-168c0 -107 -16 -165 -60 -211c-48 -52 -109 -73 -211 -73c-107 0 -174 25 -221 85c-35 44 -49 101 -49 199v168c0 107 16 165 60 212c48 51 108 72 210 72
c140 0 220 -46 255 -148c31 22 43 45 43 80c0 26 -6 46 -21 69zM451 286v142c0 130 -29 173 -116 173c-88 0 -117 -43 -117 -173v-142c0 -130 29 -173 116 -173c88 0 117 43 117 173zM243 777h-87c10 52 15 71 26 93c21 42 53 63 98 63c30 0 55 -9 79 -30
c34 -28 37 -30 49 -30c18 0 27 15 32 53h88c-7 -50 -12 -72 -20 -92c-18 -42 -52 -64 -99 -64c-33 0 -59 10 -85 34c-26 23 -31 26 -43 26c-18 0 -34 -21 -38 -53z" />
    <glyph glyph-name="uni1EE1" unicode="&#x1ee1;" horiz-adv-x="618" 
d="M510 530h126c7 -21 9 -34 9 -53c0 -72 -37 -119 -138 -175c2 -13 2 -19 2 -31v-51c0 -164 -66 -231 -229 -231c-162 0 -228 67 -228 231v78c0 164 67 232 228 232c128 0 196 -43 220 -141c23 23 31 41 31 71c0 26 -6 45 -21 70zM363 231v56c0 92 -23 127 -82 127
c-60 0 -83 -35 -83 -127v-56c0 -91 23 -126 83 -126c59 0 82 35 82 126zM195 581h-87c11 57 15 72 26 93c21 42 53 63 98 63c30 0 55 -9 79 -30c34 -28 37 -30 49 -30c18 0 26 14 32 53h88c-8 -52 -12 -72 -21 -92c-17 -42 -51 -64 -98 -64c-33 0 -59 10 -85 34
c-26 23 -31 26 -43 26c-18 0 -33 -21 -38 -53z" />
    <glyph glyph-name="uni1EE2" unicode="&#x1ee2;" horiz-adv-x="714" 
d="M611 726h126c7 -19 9 -31 9 -51c0 -48 -20 -90 -59 -123c-23 -20 -39 -31 -85 -56l2 -18c1 -15 1 -21 1 -37v-168c0 -107 -16 -165 -60 -211c-48 -52 -109 -73 -211 -73c-107 0 -174 25 -221 85c-35 44 -49 101 -49 199v168c0 107 16 165 60 212c48 51 108 72 210 72
c140 0 220 -46 255 -148c31 22 43 45 43 80c0 26 -6 46 -21 69zM451 286v142c0 130 -29 173 -116 173c-88 0 -117 -43 -117 -173v-142c0 -130 29 -173 116 -173c88 0 117 43 117 173zM258 -213v134h141v-134h-141z" />
    <glyph glyph-name="uni1EE3" unicode="&#x1ee3;" horiz-adv-x="618" 
d="M510 530h126c7 -21 9 -34 9 -53c0 -72 -37 -119 -138 -175c2 -13 2 -19 2 -31v-51c0 -164 -66 -231 -229 -231c-162 0 -228 67 -228 231v78c0 164 67 232 228 232c128 0 196 -43 220 -141c23 23 31 41 31 71c0 26 -6 45 -21 70zM363 231v56c0 92 -23 127 -82 127
c-60 0 -83 -35 -83 -127v-56c0 -91 23 -126 83 -126c59 0 82 35 82 126zM206 -213v134h141v-134h-141z" />
    <glyph glyph-name="uni1EE4" unicode="&#x1ee4;" horiz-adv-x="682" 
d="M77 714h154v-447c0 -58 4 -86 15 -108c17 -33 43 -46 95 -46c56 0 82 15 98 54c9 21 12 49 12 100v447h154v-447c0 -107 -10 -154 -44 -196c-47 -58 -111 -82 -220 -82c-115 0 -185 29 -229 95c-26 40 -35 85 -35 183v447zM270 -213v134h141v-134h-141z" />
    <glyph glyph-name="uni1EE5" unicode="&#x1ee5;" horiz-adv-x="562" 
d="M64 518h146v-279c0 -92 19 -126 69 -126c51 0 70 37 70 136v269h146v-518h-98l-19 43c-28 -39 -65 -54 -131 -54c-87 0 -144 34 -168 100c-10 27 -15 69 -15 133v296zM211 -213v134h141v-134h-141z" />
    </font>
</defs>
</svg>
