<?xml version="1.0" standalone="no"?>
<!DOCTYPE svg PUBLIC "-//W3C//DTD SVG 1.1//EN" "http://www.w3.org/Graphics/SVG/1.1/DTD/svg11.dtd" >
<svg xmlns="http://www.w3.org/2000/svg" xmlns:xlink="http://www.w3.org/1999/xlink" version="1.1">
<metadata>
Created by FontForge 20170924 at Tue Dec 20 11:25:42 2016
 By www-data
Copyright (URW)++,Copyright 2016 by (URW)++ Design &#38; Development
</metadata>
<defs>
<font id="URWDIN-Regular" horiz-adv-x="540" >
  <font-face 
    font-family="URW DIN"
    font-weight="400"
    font-stretch="normal"
    units-per-em="1000"
    panose-1="0 0 5 0 0 0 0 0 0 0"
    ascent="714"
    descent="-286"
    x-height="502"
    cap-height="714"
    bbox="-102 -243 1202 1015"
    underline-thickness="59"
    underline-position="-145"
    stemh="68"
    stemv="83"
    unicode-range="U+0020-FB04"
  />
<missing-glyph horiz-adv-x="200" 
 />
    <glyph glyph-name="fi" unicode="fi" horiz-adv-x="587" 
d="M110 436h-62v66h62v81c0 102 34 133 141 131h46v-65h-29c-63 2 -79 -13 -79 -76v-71h114v-66h-114v-436h-79v436zM420 611v106h79v-106h-79zM420 0v502h79v-502h-79z" />
    <glyph glyph-name="fl" unicode="fl" horiz-adv-x="624" 
d="M110 436h-62v66h62v81c0 102 34 133 141 131h46v-65h-29c-63 2 -79 -13 -79 -76v-71h114v-66h-114v-436h-79v436zM419 714h79v-554c0 -72 20 -94 85 -93h26v-67h-29c-127 0 -161 35 -161 167v547z" />
    <glyph glyph-name="ff" unicode="ff" horiz-adv-x="637" 
d="M110 436h-62v66h62v81c0 102 34 133 141 131h42v-65h-25c-63 2 -79 -13 -79 -76v-71h100v-66h-100v-436h-79v436zM416 436h-63v66h63v81c0 102 34 133 141 131h45v-65h-28c-64 2 -79 -13 -79 -76v-71h113v-66h-113v-436h-79v436z" />
    <glyph glyph-name="ffi" unicode="ffi" horiz-adv-x="892" 
d="M110 436h-62v66h62v81c0 102 34 133 141 131h42v-65h-25c-63 2 -79 -13 -79 -76v-71h100v-66h-100v-436h-79v436zM415 436h-62v66h62v81c0 102 34 133 141 131h46v-65h-29c-63 2 -79 -13 -79 -76v-71h114v-66h-114v-436h-79v436zM725 611v106h79v-106h-79zM725 0v502h79
v-502h-79z" />
    <glyph glyph-name="ffl" unicode="ffl" horiz-adv-x="928" 
d="M110 436h-62v66h62v81c0 102 34 133 141 131h42v-65h-25c-63 2 -79 -13 -79 -76v-71h100v-66h-100v-436h-79v436zM415 436h-62v66h62v81c0 102 34 133 141 131h46v-65h-29c-63 2 -79 -13 -79 -76v-71h114v-66h-114v-436h-79v436zM724 714h79v-554c0 -72 20 -94 85 -93h26
v-67h-29c-127 0 -161 35 -161 167v547z" />
    <glyph glyph-name=".notdef" horiz-adv-x="200" 
 />
    <glyph glyph-name="space" unicode=" " horiz-adv-x="200" 
 />
    <glyph glyph-name="exclam" unicode="!" horiz-adv-x="310" 
d="M122 191l-12 523h90l-12 -523h-66zM116 0v100h80v-100h-80z" />
    <glyph glyph-name="quotedbl" unicode="&#x22;" horiz-adv-x="410" 
d="M87 450l-6 264h83l-6 -264h-71zM251 450l-5 264h82l-5 -264h-72z" />
    <glyph glyph-name="numbersign" unicode="#" 
d="M140 287l15 117h-112l9 55h113l26 186h69l-27 -186h107l27 186h69l-27 -186h114l-9 -55h-114l-15 -117h112l-9 -55h-113l-24 -190h-69l25 190h-107l-25 -190h-69l25 190h-114l9 55h114zM209 287h107l15 117h-107z" />
    <glyph glyph-name="dollar" unicode="$" 
d="M23 112l64 42c31 -50 93 -77 178 -77c104 0 163 43 163 118c0 37 -16 69 -44 87c-27 18 -27 18 -133 43c-146 34 -206 92 -206 196c0 69 32 127 87 157c24 14 54 22 101 26v108h79v-110c75 -8 135 -40 162 -86l-63 -41c-29 41 -80 62 -148 62c-86 0 -137 -41 -137 -110
s43 -103 166 -132c94 -22 114 -29 149 -52c44 -29 68 -78 68 -141c0 -112 -67 -177 -197 -191v-144h-79v142c-99 5 -176 43 -210 103z" />
    <glyph glyph-name="percent" unicode="%" horiz-adv-x="883" 
d="M44 476v89c0 110 46 158 149 158c104 0 150 -48 150 -158v-89c0 -109 -46 -157 -150 -157c-103 0 -149 48 -149 157zM275 484v73c0 77 -26 113 -81 113c-56 0 -82 -36 -82 -113v-73c0 -76 26 -112 82 -112c55 0 81 36 81 112zM539 149v89c0 109 46 157 150 157
s150 -48 150 -157v-89c0 -110 -46 -158 -150 -158s-150 48 -150 158zM771 157v73c0 76 -26 112 -82 112s-82 -36 -82 -112v-73c0 -77 26 -113 82 -113s82 36 82 113zM292 0l224 714h75l-224 -714h-75z" />
    <glyph glyph-name="ampersand" unicode="&#x26;" horiz-adv-x="814" 
d="M602 0l-58 76c-64 -65 -160 -107 -248 -107c-122 0 -196 69 -196 184c0 67 32 126 94 175c24 19 51 36 101 64c-76 101 -93 135 -93 184c0 94 72 157 179 157c111 0 185 -64 185 -160c0 -76 -43 -132 -155 -204l141 -187c35 46 58 94 71 146h79
c-23 -80 -55 -143 -103 -202l100 -126h-97zM363 427c88 49 124 91 124 144c0 58 -41 96 -103 96s-103 -37 -103 -91c0 -34 17 -64 82 -149zM499 129l-154 204c-38 -21 -69 -39 -89 -54c-47 -33 -73 -77 -73 -125c0 -72 48 -115 126 -115c67 0 126 28 190 90z" />
    <glyph glyph-name="quoteright" unicode="&#x2019;" horiz-adv-x="187" 
d="M33 476l36 238h85l-55 -238h-66z" />
    <glyph glyph-name="parenleft" unicode="(" horiz-adv-x="434" 
d="M354 -84l-59 -37c-109 158 -153 292 -153 466s44 308 153 465l59 -37c-32 -56 -54 -98 -74 -144c-34 -79 -55 -185 -55 -285c0 -107 22 -211 63 -301c19 -41 37 -77 66 -127z" />
    <glyph glyph-name="parenright" unicode=")" horiz-adv-x="434" 
d="M80 773l59 37c109 -157 153 -292 153 -465c0 -174 -44 -309 -153 -466l-59 37c32 55 53 97 74 144c34 79 55 185 55 285c0 107 -22 211 -63 301c-19 42 -38 78 -66 127z" />
    <glyph glyph-name="asterisk" unicode="*" 
d="M270 516l-91 -150l-67 46l106 142l-165 35l20 75l163 -52l-7 164h82l-7 -164l162 52l21 -75l-165 -35l106 -142l-67 -46z" />
    <glyph glyph-name="plus" unicode="+" 
d="M35 330v66h200v204h71v-204h199v-66h-199v-203h-71v203h-200z" />
    <glyph glyph-name="comma" unicode="," horiz-adv-x="281" 
d="M57 -188l47 287h90l-68 -287h-69z" />
    <glyph glyph-name="hyphen" unicode="-" horiz-adv-x="476" 
d="M97 328v70h281v-70h-281z" />
    <glyph glyph-name="period" unicode="." horiz-adv-x="282" 
d="M100 0v100h83v-100h-83z" />
    <glyph glyph-name="slash" unicode="/" horiz-adv-x="409" 
d="M46 -22l238 758h80l-238 -758h-80z" />
    <glyph glyph-name="zero" unicode="0" 
d="M69 252v210c0 94 13 152 44 192c37 48 85 69 157 69c76 0 128 -26 164 -81c24 -38 36 -95 36 -180v-210c0 -94 -13 -152 -44 -192c-37 -48 -85 -69 -156 -69c-77 0 -129 26 -165 81c-24 38 -36 95 -36 180zM388 260v194c0 142 -34 199 -118 199c-85 0 -119 -57 -119 -199
v-194c0 -142 34 -199 119 -199c84 0 118 57 118 199z" />
    <glyph glyph-name="one" unicode="1" 
d="M244 0v626l-123 -54l-26 66l175 76h57v-714h-83z" />
    <glyph glyph-name="two" unicode="2" 
d="M55 0v55l198 257c75 98 108 171 108 237c0 68 -37 104 -107 104c-63 0 -104 -37 -120 -107l-75 7c11 108 84 170 200 170c119 0 185 -64 185 -178c0 -87 -28 -146 -136 -288l-143 -187h284v-70h-394z" />
    <glyph glyph-name="three" unicode="3" 
d="M170 343v67h60c78 0 131 49 131 122c0 76 -41 121 -111 121c-58 0 -99 -31 -111 -85l-74 7c13 97 78 148 189 148c123 0 190 -67 190 -189c0 -78 -25 -121 -93 -157c78 -36 111 -90 111 -182c0 -133 -74 -204 -212 -204c-123 0 -194 54 -205 153l79 10
c12 -61 54 -93 124 -93c83 0 131 50 131 136s-59 146 -144 146h-65z" />
    <glyph glyph-name="four" unicode="4" 
d="M341 0v132h-290v52l228 530h88l-222 -513h196v219h76v-219h71v-70h-71v-131h-76z" />
    <glyph glyph-name="five" unicode="5" 
d="M91 344l34 370h322v-70h-253l-24 -227c33 18 67 27 107 27c65 0 122 -26 153 -69c26 -35 38 -85 38 -157c0 -75 -14 -127 -46 -162c-36 -42 -95 -65 -166 -65c-116 0 -183 53 -196 153l79 10c11 -60 54 -93 119 -93c82 0 127 53 127 152c0 112 -38 163 -121 163
c-43 0 -80 -14 -113 -45z" />
    <glyph glyph-name="six" unicode="6" 
d="M379 714l-160 -290c20 13 43 18 74 18c59 0 109 -24 141 -68c23 -33 35 -84 35 -156c0 -84 -15 -138 -48 -173c-34 -35 -87 -54 -150 -54c-69 0 -126 23 -159 65c-27 33 -39 84 -39 162c0 77 11 117 53 197l160 299h93zM273 376c-81 0 -117 -48 -117 -157
s36 -158 115 -158s115 49 115 157s-36 158 -113 158z" />
    <glyph glyph-name="seven" unicode="7" 
d="M145 0l227 644h-289v70h376v-50l-226 -664h-88z" />
    <glyph glyph-name="eight" unicode="8" 
d="M150 378c-52 38 -69 77 -69 154c0 129 61 191 189 191c127 0 188 -62 188 -191c0 -77 -17 -116 -69 -154c63 -31 89 -83 89 -177c0 -144 -66 -210 -208 -210c-143 0 -209 66 -209 210c0 94 26 146 89 177zM271 657c-77 0 -111 -39 -111 -125c0 -87 34 -126 110 -126
c75 0 109 39 109 126c0 85 -35 125 -108 125zM271 340c-88 0 -127 -43 -127 -140c0 -95 39 -139 126 -139c86 0 125 44 125 139s-40 140 -124 140z" />
    <glyph glyph-name="nine" unicode="9" 
d="M162 0l161 313c-29 -9 -50 -12 -76 -12c-48 0 -88 13 -118 38c-41 34 -58 84 -58 170c0 148 62 214 199 214c68 0 124 -21 157 -60c27 -33 40 -80 40 -151c0 -72 -8 -105 -40 -169l-172 -343h-93zM271 653c-79 0 -117 -46 -117 -143s38 -144 115 -144s115 47 115 143
s-38 144 -113 144z" />
    <glyph glyph-name="colon" unicode=":" horiz-adv-x="282" 
d="M100 0v100h83v-100h-83zM100 403v100h83v-100h-83z" />
    <glyph glyph-name="semicolon" unicode=";" horiz-adv-x="282" 
d="M57 -188l47 287h90l-68 -287h-69zM107 403v100h83v-100h-83z" />
    <glyph glyph-name="less" unicode="&#x3c;" 
d="M142 366l316 -157v-76l-409 207v51l409 208v-76z" />
    <glyph glyph-name="equal" unicode="=" 
d="M49 252v63h443v-63h-443zM49 412v63h443v-63h-443z" />
    <glyph glyph-name="greater" unicode="&#x3e;" 
d="M398 366l-316 157v76l409 -208v-51l-409 -207v76z" />
    <glyph glyph-name="question" unicode="?" horiz-adv-x="584" 
d="M254 190v35c-1 78 18 113 94 178c33 29 46 42 57 57c17 23 28 54 28 80c0 67 -53 114 -128 114c-49 0 -88 -19 -115 -55c-16 -22 -22 -37 -34 -85l-77 13c27 133 101 197 228 197s209 -74 209 -187c0 -50 -18 -93 -54 -133c-16 -16 -21 -21 -81 -72
c-44 -39 -62 -72 -61 -114v-28h-66zM248 0v100h80v-100h-80z" />
    <glyph glyph-name="at" unicode="@" horiz-adv-x="898" 
d="M599 516h54l-52 -243c-4 -20 -7 -41 -7 -53c0 -29 15 -43 46 -43c77 0 137 92 137 209c0 73 -24 144 -63 189c-52 59 -147 95 -253 95c-207 0 -339 -144 -339 -371c0 -115 33 -201 98 -254c58 -47 143 -72 245 -72c92 0 163 15 246 53l22 -50c-86 -43 -163 -61 -268 -61
c-267 0 -409 132 -409 380c0 265 157 432 408 432c230 0 377 -133 377 -341c0 -154 -88 -266 -208 -266c-61 0 -87 24 -92 82c-41 -59 -82 -84 -141 -84c-83 0 -129 50 -129 139c0 73 24 145 65 198c36 47 85 72 141 72c53 0 84 -19 108 -67zM481 470c-41 0 -72 -20 -99 -65
c-25 -40 -41 -97 -41 -145c0 -55 24 -83 70 -83c41 0 78 25 106 72c26 42 42 96 42 138c0 50 -31 83 -78 83z" />
    <glyph glyph-name="A" unicode="A" horiz-adv-x="600" 
d="M457 156h-313l-54 -156h-90l261 714h79l261 -714h-90zM436 225l-135 383l-135 -383h270z" />
    <glyph glyph-name="B" unicode="B" horiz-adv-x="639" 
d="M104 0v714h263c73 0 113 -12 148 -43c35 -33 55 -84 55 -142c0 -73 -27 -123 -84 -156l9 -6c35 -21 45 -29 58 -52c21 -33 31 -74 31 -122c0 -68 -22 -122 -63 -155c-34 -28 -71 -38 -140 -38h-277zM187 401h174c43 0 68 7 90 26c22 20 36 57 36 96c0 43 -16 81 -41 100
c-22 16 -44 22 -85 22h-174v-244zM187 69h189c42 0 67 8 89 28s36 60 36 102c0 46 -16 87 -41 108c-22 18 -44 25 -84 25h-189v-263z" />
    <glyph glyph-name="C" unicode="C" horiz-adv-x="632" 
d="M481 177l77 -9c-7 -113 -91 -177 -232 -177c-91 0 -155 29 -196 90c-31 46 -43 102 -43 202v147c0 109 15 168 53 215c43 53 102 77 187 77c137 0 218 -65 224 -180l-76 -6c-10 75 -63 116 -147 116c-112 0 -158 -65 -158 -226v-138c0 -163 45 -227 159 -227
c86 0 141 42 152 116z" />
    <glyph glyph-name="D" unicode="D" horiz-adv-x="678" 
d="M104 0v714h228c174 3 264 -92 259 -272v-170c5 -180 -85 -274 -259 -272h-228zM187 69h131c131 -3 190 63 190 211v154c0 148 -59 214 -190 211h-131v-576z" />
    <glyph glyph-name="E" unicode="E" horiz-adv-x="579" 
d="M104 0v714h417v-70h-335v-248h286v-70h-286v-256h336v-70h-418z" />
    <glyph glyph-name="F" unicode="F" horiz-adv-x="546" 
d="M104 0v714h414v-70h-331v-253h281v-70h-281v-321h-83z" />
    <glyph glyph-name="G" unicode="G" horiz-adv-x="663" 
d="M356 308v67h231v-112c0 -96 -15 -149 -53 -195c-44 -52 -108 -77 -196 -77c-98 0 -163 29 -207 90c-32 46 -44 101 -44 202v146c0 110 15 169 55 216c43 52 104 77 190 77c142 0 225 -65 232 -180l-77 -6c-10 74 -65 116 -153 116c-117 0 -164 -65 -164 -227v-138
c0 -162 48 -226 167 -226c61 0 107 20 135 59c24 32 33 66 33 126v62h-149z" />
    <glyph glyph-name="H" unicode="H" horiz-adv-x="681" 
d="M104 0v714h83v-318h306v318h83v-714h-83v326h-306v-326h-83z" />
    <glyph glyph-name="I" unicode="I" horiz-adv-x="291" 
d="M104 0v714h83v-714h-83z" />
    <glyph glyph-name="J" unicode="J" horiz-adv-x="465" 
d="M283 714h83v-435c0 -121 -5 -161 -26 -200c-31 -58 -89 -88 -172 -88c-71 0 -123 20 -177 69l46 57c38 -38 79 -56 126 -56c54 0 91 26 108 75c9 26 12 58 12 141v437z" />
    <glyph glyph-name="K" unicode="K" horiz-adv-x="618" 
d="M105 0v714h82v-391l306 391h98l-232 -288l256 -426h-95l-214 368l-119 -148v-220h-82z" />
    <glyph glyph-name="L" unicode="L" horiz-adv-x="533" 
d="M104 0v714h83v-644h336v-70h-419z" />
    <glyph glyph-name="M" unicode="M" horiz-adv-x="816" 
d="M104 0v714h80l224 -467l224 467h80v-714h-80v551l-197 -405h-53l-198 405v-551h-80z" />
    <glyph glyph-name="N" unicode="N" horiz-adv-x="721" 
d="M104 0v714h80l352 -572v572h81v-714h-80l-352 572v-572h-81z" />
    <glyph glyph-name="O" unicode="O" horiz-adv-x="676" 
d="M87 269v176c0 100 17 157 59 204c46 51 105 74 192 74c93 0 157 -27 203 -86c34 -45 48 -99 48 -192v-176c0 -101 -16 -157 -59 -204c-46 -51 -105 -74 -192 -74c-93 0 -157 27 -202 86c-35 45 -49 100 -49 192zM506 277v160c0 79 -10 122 -39 159c-29 39 -69 57 -129 57
c-64 0 -107 -21 -136 -66c-23 -37 -32 -77 -32 -150v-160c0 -79 10 -122 39 -159c29 -39 69 -57 129 -57c64 0 107 21 136 66c23 37 32 77 32 150z" />
    <glyph glyph-name="P" unicode="P" horiz-adv-x="607" 
d="M188 278v-278h-83v714h230c89 0 139 -16 177 -57c36 -38 52 -88 52 -161c0 -78 -19 -132 -61 -170c-37 -34 -86 -48 -168 -48h-147zM187 347h148c100 0 146 47 146 149s-46 149 -146 149h-148v-298z" />
    <glyph glyph-name="Q" unicode="Q" horiz-adv-x="676" 
d="M594 -18l-81 65c-44 -38 -98 -56 -175 -56c-93 0 -157 27 -202 86c-35 45 -49 100 -49 192v176c0 100 17 157 59 204c46 51 105 74 192 74c93 0 157 -27 203 -86c34 -45 48 -99 48 -192v-176c0 -81 -9 -126 -35 -171l82 -66zM450 98l-107 86l43 49l101 -81
c15 36 19 62 19 125v160c0 79 -10 122 -39 159c-29 39 -69 57 -129 57c-64 0 -107 -21 -136 -66c-23 -37 -32 -77 -32 -150v-160c0 -79 10 -122 39 -159c29 -39 69 -57 129 -57c49 0 83 11 112 37z" />
    <glyph glyph-name="R" unicode="R" horiz-adv-x="646" 
d="M188 308v-308h-83v714h245c85 0 133 -15 170 -52c35 -36 51 -82 51 -147c0 -117 -47 -179 -147 -198l157 -317h-92l-147 308h-154zM187 377h164c93 0 137 43 137 134c0 92 -46 134 -146 134h-155v-268z" />
    <glyph glyph-name="S" unicode="S" horiz-adv-x="579" 
d="M45 96l65 42c30 -50 92 -77 176 -77c104 0 164 47 164 128c0 39 -16 73 -43 92s-27 19 -132 45c-147 37 -204 94 -204 203c0 122 82 194 219 194c96 0 168 -32 206 -90l-63 -41c-29 40 -80 62 -146 62c-84 0 -135 -45 -135 -120c0 -73 42 -109 164 -140
c96 -23 113 -30 148 -54c44 -30 67 -80 67 -147c0 -130 -87 -202 -245 -202c-116 0 -197 35 -241 105z" />
    <glyph glyph-name="T" unicode="T" horiz-adv-x="554" 
d="M237 0v644h-206v70h493v-70h-204v-644h-83z" />
    <glyph glyph-name="U" unicode="U" horiz-adv-x="690" 
d="M101 714h83v-452c0 -72 7 -107 26 -138c29 -44 68 -63 135 -63c71 0 114 22 141 73c14 28 20 63 20 128v452h83v-452c0 -101 -10 -146 -43 -188c-44 -58 -106 -83 -201 -83c-101 0 -168 30 -210 95c-26 40 -34 83 -34 176v452z" />
    <glyph glyph-name="V" unicode="V" horiz-adv-x="568" 
d="M249 0l-238 714h84l189 -593l189 593h84l-238 -714h-70z" />
    <glyph glyph-name="W" unicode="W" horiz-adv-x="876" 
d="M208 0l-180 714h84l135 -586l161 586h59l161 -586l136 586h84l-180 -714h-71l-159 569l-159 -569h-71z" />
    <glyph glyph-name="X" unicode="X" horiz-adv-x="564" 
d="M234 376l-193 338h91l158 -277l151 277h88l-196 -350l209 -364h-91l-174 303l-165 -303h-88z" />
    <glyph glyph-name="Y" unicode="Y" horiz-adv-x="532" 
d="M225 0v258l-225 456h88l179 -371l178 371h88l-225 -456v-258h-83z" />
    <glyph glyph-name="Z" unicode="Z" horiz-adv-x="543" 
d="M51 0v59l330 585h-312v70h405v-59l-330 -585h346v-70h-439z" />
    <glyph glyph-name="bracketleft" unicode="[" horiz-adv-x="434" 
d="M162 -98v885h191v-60h-111v-765h111v-60h-191z" />
    <glyph glyph-name="backslash" unicode="\" horiz-adv-x="409" 
d="M362 -22h-80l-238 758h80z" />
    <glyph glyph-name="bracketright" unicode="]" horiz-adv-x="434" 
d="M272 787v-885h-191v60h110v765h-110v60h191z" />
    <glyph glyph-name="asciicircum" unicode="^" 
d="M270 625l-141 -244h-92l210 338h45l210 -338h-92z" />
    <glyph glyph-name="underscore" unicode="_" horiz-adv-x="470" 
d="M-25 -175v59h520v-59h-520z" />
    <glyph glyph-name="quoteleft" unicode="&#x2018;" horiz-adv-x="187" 
d="M154 714l-36 -238h-85l55 238h66z" />
    <glyph glyph-name="a" unicode="a" horiz-adv-x="525" 
d="M361 295v35c0 41 -5 61 -18 80c-17 23 -50 36 -92 36c-49 0 -91 -18 -120 -51l-55 42c43 50 103 75 182 75c78 0 133 -25 161 -73c16 -29 21 -59 21 -121v-318h-63l-6 36c-32 -33 -70 -45 -146 -45c-129 0 -176 40 -176 149c0 116 48 155 191 155h121zM361 235h-113
c-89 0 -123 -26 -123 -93c0 -64 29 -85 118 -85c55 0 86 10 104 33c11 14 14 29 14 67v78z" />
    <glyph glyph-name="b" unicode="b" horiz-adv-x="565" 
d="M89 0v714h79v-250c37 34 76 48 137 48c130 0 189 -70 189 -223v-76c0 -154 -59 -223 -191 -223c-49 0 -90 10 -118 29c-4 2 -14 10 -29 24l-5 -43h-62zM415 218v66c0 110 -40 162 -122 162c-84 0 -125 -51 -125 -154v-82c0 -103 42 -154 125 -154c82 0 122 53 122 162z
" />
    <glyph glyph-name="c" unicode="c" horiz-adv-x="475" 
d="M386 106l59 -36c-38 -54 -93 -79 -172 -79c-135 0 -202 77 -202 234v41c0 167 64 246 199 246c78 0 132 -27 166 -82l-61 -35c-29 38 -54 51 -100 51c-85 0 -125 -56 -125 -174v-55c0 -105 44 -160 127 -160c49 0 82 15 109 49z" />
    <glyph glyph-name="d" unicode="d" horiz-adv-x="565" 
d="M414 0l-5 43c-3 -2 -4 -4 -5 -4c-5 -5 -9 -9 -14 -13c-22 -21 -74 -35 -129 -35c-131 0 -190 70 -190 222v76c0 153 59 223 188 223c44 0 82 -9 110 -25c4 -3 14 -10 28 -23v250h79v-714h-62zM150 284v-66c0 -109 39 -161 122 -161s125 51 125 153v82
c0 103 -42 154 -125 154s-122 -52 -122 -162z" />
    <glyph glyph-name="e" unicode="e" horiz-adv-x="543" 
d="M151 235v-21c0 -102 49 -157 140 -157c53 0 86 14 115 49l59 -38c-40 -54 -94 -77 -182 -77c-144 0 -212 76 -212 237v43c0 166 63 241 204 241s204 -75 204 -241v-36h-328zM151 295h252v8c0 39 -10 76 -27 100c-21 30 -51 43 -98 43c-54 0 -85 -15 -106 -51
c-13 -24 -21 -57 -21 -92v-8z" />
    <glyph glyph-name="f" unicode="f" horiz-adv-x="332" 
d="M110 436h-62v66h62v81c0 102 34 133 141 131h46v-65h-29c-63 2 -79 -13 -79 -76v-71h114v-66h-114v-436h-79v436z" />
    <glyph glyph-name="g" unicode="g" horiz-adv-x="565" 
d="M397 -8l1 47c-33 -34 -75 -48 -139 -48c-129 0 -188 70 -188 222v76c0 153 59 223 190 223c68 0 112 -16 147 -55l6 45h62v-502c0 -157 -71 -234 -214 -234c-83 0 -137 24 -175 79l59 36c29 -36 61 -51 113 -51c93 0 135 50 138 162zM150 284v-66
c0 -109 39 -161 122 -161s125 51 125 153v82c0 102 -42 154 -125 154s-122 -52 -122 -162z" />
    <glyph glyph-name="h" unicode="h" horiz-adv-x="565" 
d="M88 0v714h79v-252c31 35 70 50 132 50c87 0 144 -33 167 -97c10 -29 15 -68 15 -127v-288h-79v281c0 117 -33 163 -114 163c-86 0 -121 -54 -121 -185v-259h-79z" />
    <glyph glyph-name="i" unicode="i" horiz-adv-x="255" 
d="M88 611v106h79v-106h-79zM88 0v502h79v-502h-79z" />
    <glyph glyph-name="j" unicode="j" horiz-adv-x="261" 
d="M93 502h79v-514c3 -167 -45 -219 -203 -218v67c91 -4 127 37 124 143v522zM93 611v106h79v-106h-79z" />
    <glyph glyph-name="k" unicode="k" horiz-adv-x="511" 
d="M88 0v714h79v-497l223 285h91l-171 -213l190 -289h-88l-150 230l-95 -118v-112h-79z" />
    <glyph glyph-name="l" unicode="l" horiz-adv-x="292" 
d="M87 714h79v-554c0 -72 20 -94 85 -93h26v-67h-29c-127 0 -161 35 -161 167v547z" />
    <glyph glyph-name="m" unicode="m" horiz-adv-x="841" 
d="M88 0v502h61l6 -56c29 46 69 66 132 66c72 0 119 -26 144 -82c30 57 76 82 150 82c86 0 139 -32 161 -97c10 -29 14 -68 14 -127v-288h-79v281c0 48 -4 77 -12 101c-16 41 -47 62 -93 62c-79 0 -111 -54 -111 -185v-259h-79v281c0 117 -30 163 -104 163
c-80 0 -111 -53 -111 -189v-255h-79z" />
    <glyph glyph-name="n" unicode="n" horiz-adv-x="565" 
d="M88 0v502h61l6 -56c30 46 73 66 142 66c89 0 146 -32 169 -97c10 -29 15 -68 15 -127v-288h-79v281c0 117 -33 163 -114 163c-87 0 -121 -53 -121 -189v-255h-79z" />
    <glyph glyph-name="o" unicode="o" horiz-adv-x="557" 
d="M71 212v78c0 151 65 222 206 222c144 0 209 -69 209 -222v-78c0 -152 -65 -221 -209 -221c-141 0 -206 70 -206 221zM407 217v68c0 110 -41 161 -129 161c-87 0 -128 -51 -128 -161v-68c0 -109 41 -160 128 -160c88 0 129 51 129 160z" />
    <glyph glyph-name="p" unicode="p" horiz-adv-x="565" 
d="M89 -225v727h62l8 -42c34 36 80 52 146 52c130 0 189 -70 189 -223v-76c0 -152 -59 -222 -189 -222c-59 0 -101 14 -137 46v-262h-79zM415 218v66c0 110 -40 162 -122 162c-83 0 -125 -51 -125 -154v-82c0 -102 42 -153 125 -153c82 0 122 52 122 161z" />
    <glyph glyph-name="q" unicode="q" horiz-adv-x="565" 
d="M397 -225l1 262c-36 -32 -78 -46 -138 -46c-130 0 -189 70 -189 222v76c0 153 59 223 189 223c66 0 113 -17 146 -52l8 42h62v-727h-79zM150 284v-66c0 -109 40 -161 122 -161c83 0 125 51 125 153v82c0 103 -42 154 -125 154s-122 -52 -122 -162z" />
    <glyph glyph-name="r" unicode="r" horiz-adv-x="375" 
d="M88 0v502h62l8 -47c28 40 64 57 120 57c35 0 63 -7 97 -26l-33 -68c-27 18 -46 24 -71 24c-73 0 -104 -59 -104 -197v-245h-79z" />
    <glyph glyph-name="s" unicode="s" horiz-adv-x="473" 
d="M29 69l58 37c35 -36 69 -49 135 -49c85 0 127 28 127 84c0 29 -12 51 -34 62c-20 10 -33 13 -93 21c-69 10 -101 20 -125 41c-27 23 -40 55 -40 98c0 96 60 149 166 149c85 0 143 -25 182 -80l-60 -37c-31 37 -62 51 -116 51c-62 0 -96 -28 -96 -79c0 -25 11 -46 31 -58
c17 -9 34 -13 79 -19c77 -11 110 -20 137 -40c29 -21 45 -61 45 -111c0 -99 -66 -148 -200 -148c-94 0 -161 27 -196 78z" />
    <glyph glyph-name="t" unicode="t" horiz-adv-x="334" 
d="M105 436h-61v66h61l4 161h75v-161h99v-66h-99v-277c0 -71 20 -93 85 -92h17v-67h-18c-131 0 -163 32 -163 167v269z" />
    <glyph glyph-name="u" unicode="u" horiz-adv-x="555" 
d="M84 502h79v-280c0 -49 4 -77 13 -101c16 -41 49 -62 96 -62c83 0 116 53 116 188v255h79v-502h-61l-6 56c-29 -45 -71 -65 -138 -65c-86 0 -141 33 -163 97c-10 28 -15 69 -15 126v288z" />
    <glyph glyph-name="v" unicode="v" horiz-adv-x="488" 
d="M208 0l-182 502h81l137 -398l137 398h81l-182 -502h-72z" />
    <glyph glyph-name="w" unicode="w" horiz-adv-x="771" 
d="M193 0l-155 502h81l110 -394l129 394h55l129 -394l111 394h81l-155 -502h-65l-128 378l-129 -378h-64z" />
    <glyph glyph-name="x" unicode="x" horiz-adv-x="464" 
d="M187 257l-151 245h90l113 -184l112 184h87l-160 -248l157 -254h-90l-118 192l-117 -192h-87z" />
    <glyph glyph-name="y" unicode="y" horiz-adv-x="488" 
d="M207 1l-185 501h80l147 -412l131 412h80l-197 -583c-46 -127 -73 -148 -203 -149v67c75 0 93 13 122 90z" />
    <glyph glyph-name="z" unicode="z" horiz-adv-x="475" 
d="M45 0v51l255 385h-235v66h334v-51l-255 -385h271v-66h-370z" />
    <glyph glyph-name="braceleft" unicode="{" horiz-adv-x="434" 
d="M242 571v-51c3 -105 -8 -132 -65 -155c56 -24 68 -52 65 -155v-92c-1 -131 15 -158 96 -159h20v-57h-36c-131 0 -164 39 -160 194v113c3 107 -10 128 -83 131h-8v50h8c73 3 86 23 83 130v73c-4 155 29 194 160 194h36v-57h-20c-81 -1 -97 -28 -96 -159z" />
    <glyph glyph-name="bar" unicode="|" 
d="M235 -98v885h71v-885h-71z" />
    <glyph glyph-name="braceright" unicode="}" horiz-adv-x="434" 
d="M192 118v92c-3 103 9 131 65 155c-57 23 -68 50 -65 155v51c1 131 -15 158 -95 159h-20v57h36c130 0 163 -39 159 -194v-73c-3 -107 10 -127 84 -130h8v-50h-8c-74 -3 -87 -24 -84 -131v-113c4 -155 -29 -194 -159 -194h-36v57h20c80 1 96 28 95 159z" />
    <glyph glyph-name="asciitilde" unicode="~" 
d="M96 298l-52 12c28 90 64 125 130 125c39 0 62 -9 110 -42c46 -31 61 -38 84 -38c34 0 58 22 77 71l51 -15c-28 -84 -66 -119 -131 -119c-36 0 -59 9 -105 41c-48 33 -61 39 -86 39c-35 0 -59 -22 -78 -74z" />
    <glyph glyph-name="exclamdown" unicode="&#xa1;" horiz-adv-x="310" 
d="M188 311l12 -523h-90l12 523h66zM194 502v-100h-80v100h80z" />
    <glyph glyph-name="cent" unicode="&#xa2;" 
d="M254 32v115c-108 10 -167 93 -165 230v42c-2 149 52 228 165 242v109h79v-111c58 -10 93 -33 120 -76l-60 -34c-27 37 -54 51 -100 51c-86 0 -126 -56 -126 -175v-56c0 -105 44 -161 127 -161c48 0 85 16 110 49l59 -34c-29 -42 -71 -66 -130 -75v-116h-79z" />
    <glyph glyph-name="sterling" unicode="&#xa3;" 
d="M61 0v60c67 24 115 95 115 170c0 24 -4 44 -14 75h-103v70h71c-41 77 -50 103 -50 151c0 123 75 197 198 197c122 0 189 -55 218 -180l-70 -19c-11 42 -19 59 -33 79c-26 34 -63 52 -110 52c-73 0 -120 -48 -120 -122c0 -43 13 -78 58 -158h171v-70h-148
c8 -30 11 -47 11 -70c0 -65 -26 -120 -78 -165h330v-70h-446z" />
    <glyph glyph-name="fraction" unicode="&#x2044;" horiz-adv-x="161" 
d="M-62 0l224 714h76l-225 -714h-75z" />
    <glyph glyph-name="yen" unicode="&#xa5;" 
d="M230 0v151h-154v58h154v51h-154v58h130l-195 396h88l173 -361l171 361h89l-195 -396h129v-58h-153v-51h153v-58h-153v-151h-83z" />
    <glyph glyph-name="section" unicode="&#xa7;" 
d="M70 -29l54 44c36 -35 74 -51 123 -51c67 0 110 33 110 85c0 20 -8 43 -19 56c-17 19 -36 27 -108 48c-125 36 -163 72 -163 153c0 48 16 85 48 112c9 8 9 8 39 27c-43 28 -59 60 -59 115c0 102 65 163 173 163c44 0 87 -11 118 -29c7 -4 22 -16 44 -35l-54 -44
c-28 27 -60 40 -101 40c-60 0 -99 -33 -99 -85c0 -21 8 -44 19 -56c16 -17 38 -27 108 -49c73 -22 103 -36 127 -59c23 -22 36 -57 36 -97c0 -62 -22 -97 -87 -137c43 -28 58 -57 58 -112c0 -103 -68 -164 -183 -164c-77 0 -124 19 -184 75zM267 401l-55 18
c-56 -32 -68 -49 -68 -94c0 -58 19 -75 122 -109l55 -18l6 4c7 4 13 7 19 11c30 18 43 40 43 76c0 26 -8 50 -20 63c-16 17 -36 27 -102 49z" />
    <glyph glyph-name="currency" unicode="&#xa4;" 
d="M62 79l-42 39l86 89c-32 44 -43 78 -43 127c0 50 11 84 43 128l-86 89l42 38l84 -87c42 29 75 40 124 40c48 0 81 -11 123 -40l84 87l42 -38l-86 -89c32 -45 43 -78 43 -128c0 -49 -11 -83 -43 -127l86 -89l-42 -39l-84 87c-41 -29 -75 -40 -123 -40
c-49 0 -83 11 -124 40zM271 482c-83 0 -139 -59 -139 -148c0 -87 56 -148 138 -148c81 0 137 61 137 148c0 86 -56 148 -136 148z" />
    <glyph glyph-name="quotesingle" unicode="'" horiz-adv-x="245" 
d="M87 450l-6 264h83l-6 -264h-71z" />
    <glyph glyph-name="quotedblleft" unicode="&#x201c;" horiz-adv-x="368" 
d="M335 714l-36 -238h-84l55 238h65zM154 714l-36 -238h-85l55 238h66z" />
    <glyph glyph-name="guillemotleft" unicode="&#xab;" horiz-adv-x="430" 
d="M305 295l89 -124l-48 -35l-129 159l129 159l48 -35zM125 295l88 -124l-47 -35l-130 159l130 159l47 -35z" />
    <glyph glyph-name="guilsinglleft" unicode="&#x2039;" horiz-adv-x="249" 
d="M125 295l88 -124l-47 -35l-130 159l130 159l47 -35z" />
    <glyph glyph-name="guilsinglright" unicode="&#x203a;" horiz-adv-x="249" 
d="M124 295l-89 124l48 35l129 -159l-129 -159l-48 35z" />
    <glyph glyph-name="endash" unicode="&#x2013;" 
d="M76 328v70h387v-70h-387z" />
    <glyph glyph-name="dagger" unicode="&#x2020;" 
d="M230 422h-166v70h166v222h81v-222h165v-70h-165v-579h-81v579z" />
    <glyph glyph-name="daggerdbl" unicode="&#x2021;" 
d="M230 422h-166v70h166v222h81v-222h165v-70h-165v-156h153v-70h-153v-353h-81v353h-153v70h153v156z" />
    <glyph glyph-name="periodcentered" unicode="&#xb7;" horiz-adv-x="281" 
d="M100 314v99h83v-99h-83z" />
    <glyph glyph-name="paragraph" unicode="&#xb6;" horiz-adv-x="597" 
d="M233 -136v477h-28c-61 0 -84 4 -114 22c-51 30 -82 93 -82 166c0 76 32 140 85 166c35 18 47 19 165 19h235v-850h-76v783h-110v-783h-75z" />
    <glyph glyph-name="bullet" unicode="&#x2022;" 
d="M270 529c97 0 171 -72 171 -167c0 -94 -74 -166 -170 -166c-99 0 -172 72 -172 168c0 93 75 165 171 165z" />
    <glyph glyph-name="quotesinglbase" unicode="&#x201a;" horiz-adv-x="187" 
d="M33 -139l36 238h85l-55 -238h-66z" />
    <glyph glyph-name="quotedblbase" unicode="&#x201e;" horiz-adv-x="368" 
d="M33 -139l36 238h85l-55 -238h-66zM215 -139l36 238h84l-54 -238h-66z" />
    <glyph glyph-name="quotedblright" unicode="&#x201d;" horiz-adv-x="368" 
d="M33 476l36 238h85l-55 -238h-66zM215 476l36 238h84l-54 -238h-66z" />
    <glyph glyph-name="guillemotright" unicode="&#xbb;" horiz-adv-x="430" 
d="M124 295l-89 124l48 35l129 -159l-129 -159l-48 35zM304 295l-88 124l47 35l130 -159l-130 -159l-47 35z" />
    <glyph glyph-name="ellipsis" unicode="&#x2026;" horiz-adv-x="846" 
d="M100 0v100h83v-100h-83zM382 0v100h83v-100h-83zM664 0v100h83v-100h-83z" />
    <glyph glyph-name="perthousand" unicode="&#x2030;" horiz-adv-x="1247" 
d="M44 476v89c0 110 46 158 149 158c104 0 150 -48 150 -158v-89c0 -109 -46 -157 -150 -157c-103 0 -149 48 -149 157zM275 484v73c0 77 -26 113 -81 113c-56 0 -82 -36 -82 -113v-73c0 -76 26 -112 82 -112c55 0 81 36 81 112zM539 149v89c0 109 46 157 150 157
s150 -48 150 -157v-89c0 -110 -46 -158 -150 -158s-150 48 -150 158zM771 157v73c0 76 -26 112 -82 112s-82 -36 -82 -112v-73c0 -77 26 -113 82 -113s82 36 82 113zM903 149v89c0 109 46 157 149 157c104 0 150 -48 150 -157v-89c0 -110 -46 -158 -150 -158
c-103 0 -149 48 -149 158zM1134 157v73c0 76 -26 112 -81 112c-56 0 -82 -36 -82 -112v-73c0 -77 26 -113 82 -113c55 0 81 36 81 113zM292 0l224 714h75l-224 -714h-75z" />
    <glyph glyph-name="questiondown" unicode="&#xbf;" horiz-adv-x="584" 
d="M337 312v-35c1 -78 -18 -114 -94 -178c-33 -28 -47 -42 -57 -57c-17 -23 -28 -54 -28 -80c0 -67 53 -114 128 -114c48 0 88 19 114 55c17 22 23 37 35 85l77 -13c-27 -133 -101 -197 -229 -197c-126 0 -208 74 -208 187c0 50 18 94 54 133c15 16 21 21 80 72
c45 39 63 72 62 114v28h66zM343 502v-100h-80v100h80z" />
    <glyph glyph-name="grave" unicode="`" horiz-adv-x="500" 
d="M303 582h-61l-111 142h97z" />
    <glyph glyph-name="acute" unicode="&#xb4;" horiz-adv-x="500" 
d="M200 582l75 142h97l-112 -142h-60z" />
    <glyph glyph-name="circumflex" unicode="&#x2c6;" horiz-adv-x="500" 
d="M250 667l-68 -81h-84l127 134h51l127 -134h-84z" />
    <glyph glyph-name="tilde" unicode="&#x2dc;" horiz-adv-x="500" 
d="M143 596h-51c10 41 15 56 25 72c17 29 40 43 72 43c27 0 47 -9 73 -32c29 -26 39 -32 53 -32c20 0 31 16 41 56h51c-9 -40 -15 -58 -23 -73c-15 -28 -38 -42 -71 -42c-29 0 -48 9 -75 34c-27 24 -37 30 -51 30c-19 0 -35 -21 -44 -56z" />
    <glyph glyph-name="macron" unicode="&#xaf;" horiz-adv-x="500" 
d="M122 619v58h257v-58h-257z" />
    <glyph glyph-name="breve" unicode="&#x2d8;" horiz-adv-x="500" 
d="M111 715h54c7 -57 29 -77 85 -77c57 0 79 20 85 77h55c-3 -47 -7 -65 -18 -85c-21 -37 -58 -53 -122 -53c-68 0 -106 19 -126 62c-8 17 -11 34 -13 76z" />
    <glyph glyph-name="dotaccent" unicode="&#x2d9;" horiz-adv-x="500" 
d="M211 590v104h78v-104h-78z" />
    <glyph glyph-name="dieresis" unicode="&#xa8;" horiz-adv-x="500" 
d="M117 590v104h72v-104h-72zM310 590v104h72v-104h-72z" />
    <glyph glyph-name="ring" unicode="&#x2da;" horiz-adv-x="500" 
d="M251 777c63 0 104 -41 104 -101c0 -62 -42 -103 -105 -103s-105 41 -105 103s41 101 106 101zM251 735c-33 0 -51 -21 -51 -60c0 -38 18 -60 50 -60s50 22 50 60s-18 60 -49 60z" />
    <glyph glyph-name="cedilla" unicode="&#xb8;" horiz-adv-x="500" 
d="M185 -222l52 153h83l-79 -153h-56z" />
    <glyph glyph-name="hungarumlaut" unicode="&#x2dd;" horiz-adv-x="500" 
d="M147 582l60 142h90l-93 -142h-57zM282 582l60 142h89l-92 -142h-57z" />
    <glyph glyph-name="ogonek" unicode="&#x2db;" horiz-adv-x="500" 
d="M293 0h72c-69 -39 -97 -70 -97 -105c0 -28 16 -41 51 -41c20 0 35 3 58 10l8 -46c-28 -10 -49 -14 -80 -14c-72 0 -109 26 -109 79c0 46 35 89 97 117z" />
    <glyph glyph-name="caron" unicode="&#x2c7;" horiz-adv-x="500" 
d="M251 638l68 80h84l-127 -133h-51l-127 133h84z" />
    <glyph glyph-name="emdash" unicode="&#x2014;" 
d="M3 328v70h534v-70h-534z" />
    <glyph glyph-name="AE" unicode="&#xc6;" horiz-adv-x="950" 
d="M476 165h-316l-105 -165h-96l469 714h465v-70h-335v-248h285v-70h-285v-256h335v-70h-417v165zM476 234v410h-11l-265 -410h276z" />
    <glyph glyph-name="ordfeminine" unicode="&#xaa;" horiz-adv-x="340" 
d="M227 583v25c0 43 -20 62 -65 62c-31 0 -52 -8 -78 -30l-38 32c30 33 66 48 121 48c54 0 89 -15 108 -44c10 -18 14 -37 14 -75v-202h-51l-3 20c-21 -18 -45 -25 -90 -25c-86 0 -117 24 -117 92c0 72 35 97 135 97h64zM229 537h-65c-58 0 -77 -12 -77 -48
c0 -33 18 -45 71 -45c52 0 71 12 71 46v47z" />
    <glyph glyph-name="Lslash" unicode="&#x141;" horiz-adv-x="533" 
d="M104 0v218l-76 -51v76l76 51v420h83v-371l204 137v-77l-204 -136v-197h337v-70h-420z" />
    <glyph glyph-name="Oslash" unicode="&#xd8;" horiz-adv-x="675" 
d="M601 692l-49 -73c27 -47 36 -92 36 -174v-176c0 -101 -16 -157 -59 -204c-46 -52 -105 -74 -195 -74c-71 0 -124 16 -165 51l-41 -62l-54 39l49 74c-27 46 -37 95 -37 176v176c0 100 17 157 59 204c46 51 105 74 192 74c75 0 125 -15 170 -52l40 60zM496 534l-282 -425
c30 -33 67 -48 123 -48c64 0 107 21 136 66c24 38 32 76 32 150v160c0 50 -2 72 -9 97zM179 177l283 426c-29 34 -69 50 -125 50c-64 0 -107 -21 -136 -66c-23 -37 -32 -78 -32 -150v-160c0 -50 3 -76 10 -100z" />
    <glyph glyph-name="OE" unicode="&#x152;" horiz-adv-x="981" 
d="M519 0v67c-44 -56 -93 -77 -184 -77c-95 0 -156 26 -201 87c-33 45 -47 100 -47 190v178c0 99 16 157 57 204c45 53 102 75 192 75c89 0 143 -21 183 -71v61h405v-70h-334v-248h284v-70h-284v-256h335v-70h-406zM170 437v-162c0 -78 10 -121 39 -159s70 -56 129 -56
c114 0 170 71 170 215v162c0 145 -56 217 -170 217c-64 0 -107 -21 -136 -67c-23 -36 -32 -77 -32 -150z" />
    <glyph glyph-name="ordmasculine" unicode="&#xba;" horiz-adv-x="357" 
d="M41 528v56c0 95 42 136 138 136s138 -41 138 -136v-56c0 -94 -42 -135 -138 -135s-138 41 -138 135zM255 531v51c0 58 -26 88 -76 88c-51 0 -76 -30 -76 -88v-51c0 -59 25 -88 76 -88c50 0 76 29 76 88z" />
    <glyph glyph-name="ae" unicode="&#xe6;" horiz-adv-x="834" 
d="M131 395l-55 42c42 50 103 75 181 75c73 0 123 -22 153 -67c35 47 82 67 159 67c139 0 202 -76 202 -241v-36h-329v-21c0 -102 49 -157 140 -157c53 0 87 14 115 49l60 -38c-40 -54 -94 -77 -181 -77c-83 0 -136 24 -173 79c-37 -60 -80 -79 -178 -79
c-129 0 -176 40 -176 149c0 116 48 155 191 155h121v35c0 41 -5 61 -18 80c-17 23 -50 36 -92 36c-49 0 -91 -18 -120 -51zM361 235h-113c-89 0 -123 -26 -123 -93c0 -63 30 -85 116 -85c55 0 83 10 102 37c14 20 18 40 18 87v54zM442 295h253v8c0 39 -10 76 -27 100
c-21 30 -51 43 -99 43c-53 0 -85 -15 -105 -51c-14 -24 -22 -57 -22 -92v-8z" />
    <glyph glyph-name="dotlessi" unicode="&#x131;" horiz-adv-x="255" 
d="M88 0v502h79v-502h-79z" />
    <glyph glyph-name="lslash" unicode="&#x142;" horiz-adv-x="303" 
d="M93 366v348h79v-300l117 78v-78l-117 -78v-176c0 -72 20 -94 85 -93h26v-67h-29c-121 -1 -160 35 -161 145v143l-94 -63v78z" />
    <glyph glyph-name="oslash" unicode="&#xf8;" horiz-adv-x="557" 
d="M487 490l-37 -52c24 -33 36 -85 36 -148v-77c0 -152 -66 -222 -208 -222c-53 0 -96 10 -127 31l-33 -46l-48 37l37 51c-24 35 -36 84 -35 149v77c0 152 65 222 207 222c52 0 96 -11 127 -31l33 46zM397 364l-202 -280c21 -19 47 -27 83 -27c87 0 129 52 129 161v67
c0 33 -4 57 -10 79zM161 139l201 280c-22 19 -47 27 -82 27c-88 0 -129 -52 -129 -161v-67c0 -32 3 -58 10 -79z" />
    <glyph glyph-name="oe" unicode="&#x153;" horiz-adv-x="879" 
d="M71 213v76c0 152 65 223 204 223c86 0 136 -24 171 -81c28 55 83 81 168 81c138 0 201 -75 201 -241v-36h-329v-21c0 -102 49 -157 140 -157c53 0 87 15 115 49l60 -36c-40 -55 -94 -79 -180 -79c-88 0 -137 23 -175 82c-35 -60 -80 -82 -170 -82
c-140 0 -205 71 -205 222zM406 218v67c0 109 -42 161 -128 161s-128 -52 -128 -161v-67c0 -109 42 -161 128 -161s128 52 128 161zM486 295h253v8c0 39 -10 76 -27 99c-21 30 -51 43 -99 43c-53 0 -85 -15 -105 -50c-14 -24 -22 -58 -22 -92v-8z" />
    <glyph glyph-name="germandbls" unicode="&#xdf;" horiz-adv-x="569" 
d="M88 0v536c0 126 60 186 187 186c123 0 189 -55 189 -157c0 -52 -10 -76 -50 -119c61 -26 87 -84 86 -197v-37c1 -155 -48 -213 -180 -212h-48v66h40c85 -1 109 31 109 141v46c0 120 -23 153 -105 150h-19v60h17c49 0 75 32 75 93c0 69 -36 102 -111 102
c-78 0 -111 -36 -111 -121v-537h-79z" />
    <glyph glyph-name="onesuperior" unicode="&#xb9;" horiz-adv-x="236" 
d="M97 386v363l-77 -30l-18 49l115 46h46v-428h-66z" />
    <glyph glyph-name="logicalnot" unicode="&#xac;" 
d="M46 330v66h416v-281h-77v215h-339z" />
    <glyph glyph-name="mu" unicode="&#xb5;" 
d="M80 502h78v-283c0 -111 33 -160 109 -160c84 0 116 52 116 188v255h78v-502h-55l-11 68c-25 -53 -67 -77 -133 -77c-47 0 -75 12 -104 43v-259h-78v727z" />
    <glyph glyph-name="trademark" unicode="&#x2122;" horiz-adv-x="873" 
d="M144 286v375h-131v53h327v-53h-130v-375h-66zM400 286v428h63l137 -262l137 262h63v-428h-64v304l-114 -218h-44l-114 218v-304h-64z" />
    <glyph glyph-name="Eth" unicode="&#xd0;" horiz-adv-x="678" 
d="M104 396v318h227c173 3 264 -92 259 -271v-171c5 -180 -85 -274 -259 -272h-227v327h-84v69h84zM187 396h170v-69h-170v-258h131c130 -3 189 63 189 211v154c0 148 -59 214 -189 211h-131v-249z" />
    <glyph glyph-name="onehalf" unicode="&#xbd;" horiz-adv-x="860" 
d="M149 286v363l-77 -30l-18 49l115 46h46v-428h-66zM226 0l224 714h75l-224 -714h-75zM517 0v42l126 150c41 48 64 93 64 125c0 40 -24 64 -64 64c-37 0 -64 -23 -73 -63l-61 7c14 78 53 109 136 109c84 0 128 -41 128 -119c0 -53 -18 -89 -82 -165l-82 -97h163v-53h-255z
" />
    <glyph glyph-name="plusminus" unicode="&#xb1;" 
d="M35 341v66h200v199h71v-199h199v-66h-199v-198h-71v198h-200zM35 0v66h470v-66h-470z" />
    <glyph glyph-name="Thorn" unicode="&#xde;" horiz-adv-x="607" 
d="M188 162v-162h-83v714h83v-115h147c89 0 139 -16 177 -57c36 -38 52 -88 52 -161c0 -79 -19 -133 -61 -171c-37 -34 -86 -48 -168 -48h-147zM188 231h147c100 0 146 48 146 150s-46 149 -146 149h-147v-299z" />
    <glyph glyph-name="onequarter" unicode="&#xbc;" horiz-adv-x="860" 
d="M151 286v363l-77 -30l-18 49l115 46h46v-428h-66zM237 0l224 714h75l-224 -714h-75zM672 0v80h-187v39l147 309h70l-141 -296h111v93h59v-93h45v-53h-45v-79h-59z" />
    <glyph glyph-name="divide" unicode="&#xf7;" 
d="M35 330v66h470v-66h-470zM234 157v90h73v-90h-73zM234 479v90h73v-90h-73z" />
    <glyph glyph-name="brokenbar" unicode="&#xa6;" horiz-adv-x="500" 
d="M211 453v261h77v-261h-77zM211 0v251h77v-251h-77z" />
    <glyph glyph-name="degree" unicode="&#xb0;" horiz-adv-x="401" 
d="M203 744c102 0 168 -66 168 -168c0 -103 -66 -168 -170 -168c-105 0 -171 65 -171 167c0 105 66 169 173 169zM202 686c-68 0 -106 -40 -106 -110c0 -69 39 -110 105 -110c65 0 104 41 104 110c0 68 -39 110 -103 110z" />
    <glyph glyph-name="thorn" unicode="&#xfe;" horiz-adv-x="565" 
d="M168 37v-262h-79v939h79v-245c36 31 76 43 138 43c129 0 188 -71 188 -223v-76c0 -152 -59 -222 -189 -222c-59 0 -101 14 -137 46zM415 218v66c0 110 -40 162 -122 162c-83 0 -125 -51 -125 -154v-82c0 -102 42 -153 125 -153c82 0 122 52 122 161z" />
    <glyph glyph-name="threequarters" unicode="&#xbe;" horiz-adv-x="860" 
d="M113 487v47h44c43 0 77 30 77 68s-27 64 -67 64c-36 0 -60 -17 -69 -50l-59 7c10 67 49 96 130 96c86 0 131 -40 131 -115c0 -47 -15 -72 -54 -93c46 -22 66 -54 66 -107c0 -81 -50 -123 -145 -123c-54 0 -94 13 -118 39c-12 13 -17 26 -23 57l62 11c9 -37 34 -54 77 -54
c50 0 81 27 81 73c0 47 -36 80 -86 80h-47zM699 0v80h-186v39l146 309h70l-141 -296h111v93h60v-93h45v-53h-45v-79h-60zM283 0l225 714h75l-224 -714h-76z" />
    <glyph glyph-name="twosuperior" unicode="&#xb2;" horiz-adv-x="342" 
d="M42 386v42l126 150c41 48 64 93 64 125c0 40 -24 64 -64 64c-38 0 -64 -22 -73 -63l-61 7c7 39 15 57 31 74c24 23 59 35 105 35c84 0 128 -41 128 -119c0 -53 -18 -89 -83 -165l-81 -97h163v-53h-255z" />
    <glyph glyph-name="registered" unicode="&#xae;" horiz-adv-x="667" 
d="M281 553v-111h-55v274h123c78 0 112 -24 112 -81c0 -43 -18 -65 -62 -77l71 -116h-61l-64 111h-64zM280 588h69c38 0 57 15 57 44c0 30 -20 44 -61 44h-65v-88zM337 861c160 0 282 -122 282 -282c0 -162 -122 -282 -286 -282s-286 120 -286 281c0 165 121 283 290 283z
M336 808c-72 0 -124 -20 -166 -63c-40 -42 -64 -103 -64 -166c0 -62 24 -124 64 -166s95 -63 163 -63c69 0 123 21 163 63c41 43 64 103 64 166s-24 124 -64 166c-40 41 -95 63 -160 63z" />
    <glyph glyph-name="minus" unicode="&#x2212;" 
d="M35 330v66h470v-66h-470z" />
    <glyph glyph-name="eth" unicode="&#xf0;" horiz-adv-x="557" 
d="M71 212v70c0 148 65 222 195 222c45 0 76 -9 104 -31c-18 47 -36 82 -52 100l-115 -55l-31 51l98 47c-36 26 -79 43 -123 49l11 54c71 -8 124 -29 179 -72l84 40l31 -51l-70 -33c62 -79 103 -204 104 -321v-70c0 -152 -65 -221 -209 -221c-141 0 -206 70 -206 221z
M407 217v61c0 109 -41 160 -129 160c-87 0 -128 -51 -128 -160v-61c0 -109 41 -160 128 -160c88 0 129 51 129 160z" />
    <glyph glyph-name="multiply" unicode="&#xd7;" 
d="M225 363l-159 159l46 46l158 -159l159 159l45 -46l-158 -159l158 -158l-45 -46l-159 158l-158 -158l-46 46z" />
    <glyph glyph-name="threesuperior" unicode="&#xb3;" horiz-adv-x="342" 
d="M105 587v47h44c43 0 77 30 77 68s-27 64 -67 64c-36 0 -60 -17 -69 -50l-59 7c10 67 49 96 130 96c86 0 131 -40 131 -115c0 -47 -15 -72 -54 -93c46 -22 66 -54 66 -107c0 -81 -50 -123 -145 -123c-54 0 -94 13 -118 39c-12 13 -17 26 -23 57l62 11c9 -37 34 -54 77 -54
c50 0 81 27 81 73c0 47 -36 80 -86 80h-47z" />
    <glyph glyph-name="copyright" unicode="&#xa9;" horiz-adv-x="822" 
d="M499 280l60 -6c-4 -62 -51 -93 -143 -93c-56 0 -95 15 -120 45c-19 24 -26 52 -26 104v54c0 57 8 86 33 110c26 27 61 39 113 39c90 0 134 -31 139 -95l-59 -3c-5 31 -33 49 -78 49c-59 0 -84 -28 -84 -95v-64c0 -67 25 -95 84 -95c47 0 75 17 81 50zM416 727
c210 0 369 -159 369 -370c0 -213 -159 -370 -374 -370c-216 0 -375 157 -375 369c0 103 38 199 106 265c73 72 162 106 274 106zM415 671c-97 0 -172 -31 -233 -95c-53 -58 -82 -134 -82 -220c0 -180 131 -313 311 -313c179 0 310 133 310 314c0 179 -131 314 -306 314z" />
    <glyph glyph-name="Aacute" unicode="&#xc1;" horiz-adv-x="600" 
d="M457 156h-313l-54 -156h-90l261 714h79l261 -714h-90zM436 225l-135 383l-135 -383h270zM256 789l75 142h97l-112 -142h-60z" />
    <glyph glyph-name="Acircumflex" unicode="&#xc2;" horiz-adv-x="600" 
d="M457 156h-313l-54 -156h-90l261 714h79l261 -714h-90zM436 225l-135 383l-135 -383h270zM300 874l-68 -80h-84l127 133h51l127 -133h-84z" />
    <glyph glyph-name="Adieresis" unicode="&#xc4;" horiz-adv-x="600" 
d="M457 156h-313l-54 -156h-90l261 714h79l261 -714h-90zM436 225l-135 383l-135 -383h270zM166 797v104h72v-104h-72zM361 797v104h72v-104h-72z" />
    <glyph glyph-name="Agrave" unicode="&#xc0;" horiz-adv-x="600" 
d="M457 156h-313l-54 -156h-90l261 714h79l261 -714h-90zM436 225l-135 383l-135 -383h270zM348 789h-61l-111 142h97z" />
    <glyph glyph-name="Aring" unicode="&#xc5;" horiz-adv-x="600" 
d="M457 156h-313l-54 -156h-90l261 714h79l261 -714h-90zM436 225l-135 383l-135 -383h270zM302 984c62 0 103 -40 103 -101s-42 -102 -105 -102s-105 41 -105 102c0 62 41 101 107 101zM301 942c-33 0 -51 -21 -51 -60c0 -37 18 -59 50 -59s50 22 50 59c0 38 -18 60 -49 60
z" />
    <glyph glyph-name="Atilde" unicode="&#xc3;" horiz-adv-x="600" 
d="M457 156h-313l-54 -156h-90l261 714h79l261 -714h-90zM436 225l-135 383l-135 -383h270zM193 804h-51c10 40 15 55 25 71c17 29 40 43 72 43c27 0 47 -9 73 -32c29 -26 39 -32 53 -32c20 0 31 16 41 56h51c-9 -39 -15 -57 -23 -73c-15 -27 -39 -41 -71 -41
c-28 0 -48 9 -75 34c-27 24 -37 30 -52 30c-18 0 -34 -21 -43 -56z" />
    <glyph glyph-name="Ccedilla" unicode="&#xc7;" horiz-adv-x="632" 
d="M481 177l77 -9c-7 -113 -91 -177 -232 -177c-91 0 -155 29 -196 90c-31 46 -43 102 -43 202v147c0 109 15 168 53 215c43 53 102 77 187 77c137 0 218 -65 224 -180l-76 -6c-10 75 -63 116 -147 116c-112 0 -158 -65 -158 -226v-138c0 -163 45 -227 159 -227
c86 0 141 42 152 116zM236 -222l52 153h83l-79 -153h-56z" />
    <glyph glyph-name="Eacute" unicode="&#xc9;" horiz-adv-x="579" 
d="M104 0v714h417v-70h-335v-248h286v-70h-286v-256h336v-70h-418zM270 789l75 142h97l-112 -142h-60z" />
    <glyph glyph-name="Ecircumflex" unicode="&#xca;" horiz-adv-x="579" 
d="M104 0v714h417v-70h-335v-248h286v-70h-286v-256h336v-70h-418zM315 874l-68 -80h-84l127 133h51l127 -133h-84z" />
    <glyph glyph-name="Edieresis" unicode="&#xcb;" horiz-adv-x="579" 
d="M104 0v714h417v-70h-335v-248h286v-70h-286v-256h336v-70h-418zM183 797v104h72v-104h-72zM378 797v104h72v-104h-72z" />
    <glyph glyph-name="Egrave" unicode="&#xc8;" horiz-adv-x="579" 
d="M104 0v714h417v-70h-335v-248h286v-70h-286v-256h336v-70h-418zM372 789h-61l-111 142h97z" />
    <glyph glyph-name="Iacute" unicode="&#xcd;" horiz-adv-x="291" 
d="M100 0v714h83v-714h-83zM95 789l75 142h97l-112 -142h-60z" />
    <glyph glyph-name="Icircumflex" unicode="&#xce;" horiz-adv-x="291" 
d="M104 0v714h83v-714h-83zM145 874l-68 -80h-84l127 133h51l127 -133h-84z" />
    <glyph glyph-name="Idieresis" unicode="&#xcf;" horiz-adv-x="291" 
d="M104 0v714h83v-714h-83zM12 797v104h72v-104h-72zM207 797v104h72v-104h-72z" />
    <glyph glyph-name="Igrave" unicode="&#xcc;" horiz-adv-x="291" 
d="M105 0v714h83v-714h-83zM195 789h-61l-111 142h97z" />
    <glyph glyph-name="Ntilde" unicode="&#xd1;" horiz-adv-x="721" 
d="M104 0v714h80l352 -572v572h81v-714h-80l-352 572v-572h-81zM258 804h-51c10 40 15 55 25 71c17 29 40 43 72 43c27 0 47 -9 73 -32c29 -26 39 -32 53 -32c20 0 31 16 41 56h51c-9 -39 -15 -57 -23 -73c-15 -27 -39 -41 -71 -41c-28 0 -48 9 -75 34c-27 24 -37 30 -52 30
c-18 0 -34 -21 -43 -56z" />
    <glyph glyph-name="Oacute" unicode="&#xd3;" horiz-adv-x="676" 
d="M87 269v176c0 100 17 157 59 204c46 51 105 74 192 74c93 0 157 -27 203 -86c34 -45 48 -99 48 -192v-176c0 -101 -16 -157 -59 -204c-46 -51 -105 -74 -192 -74c-93 0 -157 27 -202 86c-35 45 -49 100 -49 192zM506 277v160c0 79 -10 122 -39 159c-29 39 -69 57 -129 57
c-64 0 -107 -21 -136 -66c-23 -37 -32 -77 -32 -150v-160c0 -79 10 -122 39 -159c29 -39 69 -57 129 -57c64 0 107 21 136 66c23 37 32 77 32 150zM288 789l75 142h97l-112 -142h-60z" />
    <glyph glyph-name="Ocircumflex" unicode="&#xd4;" horiz-adv-x="676" 
d="M87 269v176c0 100 17 157 59 204c46 51 105 74 192 74c93 0 157 -27 203 -86c34 -45 48 -99 48 -192v-176c0 -101 -16 -157 -59 -204c-46 -51 -105 -74 -192 -74c-93 0 -157 27 -202 86c-35 45 -49 100 -49 192zM506 277v160c0 79 -10 122 -39 159c-29 39 -69 57 -129 57
c-64 0 -107 -21 -136 -66c-23 -37 -32 -77 -32 -150v-160c0 -79 10 -122 39 -159c29 -39 69 -57 129 -57c64 0 107 21 136 66c23 37 32 77 32 150zM338 874l-68 -80h-84l127 133h51l127 -133h-84z" />
    <glyph glyph-name="Odieresis" unicode="&#xd6;" horiz-adv-x="676" 
d="M87 269v176c0 100 17 157 59 204c46 51 105 74 192 74c93 0 157 -27 203 -86c34 -45 48 -99 48 -192v-176c0 -101 -16 -157 -59 -204c-46 -51 -105 -74 -192 -74c-93 0 -157 27 -202 86c-35 45 -49 100 -49 192zM506 277v160c0 79 -10 122 -39 159c-29 39 -69 57 -129 57
c-64 0 -107 -21 -136 -66c-23 -37 -32 -77 -32 -150v-160c0 -79 10 -122 39 -159c29 -39 69 -57 129 -57c64 0 107 21 136 66c23 37 32 77 32 150zM204 797v104h72v-104h-72zM399 797v104h72v-104h-72z" />
    <glyph glyph-name="Ograve" unicode="&#xd2;" horiz-adv-x="676" 
d="M87 269v176c0 100 17 157 59 204c46 51 105 74 192 74c93 0 157 -27 203 -86c34 -45 48 -99 48 -192v-176c0 -101 -16 -157 -59 -204c-46 -51 -105 -74 -192 -74c-93 0 -157 27 -202 86c-35 45 -49 100 -49 192zM506 277v160c0 79 -10 122 -39 159c-29 39 -69 57 -129 57
c-64 0 -107 -21 -136 -66c-23 -37 -32 -77 -32 -150v-160c0 -79 10 -122 39 -159c29 -39 69 -57 129 -57c64 0 107 21 136 66c23 37 32 77 32 150zM391 789h-61l-111 142h97z" />
    <glyph glyph-name="Otilde" unicode="&#xd5;" horiz-adv-x="676" 
d="M87 269v176c0 100 17 157 59 204c46 51 105 74 192 74c93 0 157 -27 203 -86c34 -45 48 -99 48 -192v-176c0 -101 -16 -157 -59 -204c-46 -51 -105 -74 -192 -74c-93 0 -157 27 -202 86c-35 45 -49 100 -49 192zM506 277v160c0 79 -10 122 -39 159c-29 39 -69 57 -129 57
c-64 0 -107 -21 -136 -66c-23 -37 -32 -77 -32 -150v-160c0 -79 10 -122 39 -159c29 -39 69 -57 129 -57c64 0 107 21 136 66c23 37 32 77 32 150zM231 804h-51c10 40 15 55 25 71c17 29 40 43 72 43c27 0 47 -9 73 -32c29 -26 39 -32 53 -32c20 0 31 16 41 56h51
c-9 -39 -15 -57 -23 -73c-15 -27 -39 -41 -71 -41c-28 0 -48 9 -75 34c-27 24 -37 30 -52 30c-18 0 -34 -21 -43 -56z" />
    <glyph glyph-name="Scaron" unicode="&#x160;" horiz-adv-x="579" 
d="M45 96l65 42c30 -50 92 -77 176 -77c104 0 164 47 164 128c0 39 -16 73 -43 92s-27 19 -132 45c-147 37 -204 94 -204 203c0 122 82 194 219 194c96 0 168 -32 206 -90l-63 -41c-29 40 -80 62 -146 62c-84 0 -135 -45 -135 -120c0 -73 42 -109 164 -140
c96 -23 113 -30 148 -54c44 -30 67 -80 67 -147c0 -130 -87 -202 -245 -202c-116 0 -197 35 -241 105zM298 845l68 81h84l-127 -134h-51l-127 134h84z" />
    <glyph glyph-name="Uacute" unicode="&#xda;" horiz-adv-x="690" 
d="M101 714h83v-452c0 -72 7 -107 26 -138c29 -44 68 -63 135 -63c71 0 114 22 141 73c14 28 20 63 20 128v452h83v-452c0 -101 -10 -146 -43 -188c-44 -58 -106 -83 -201 -83c-101 0 -168 30 -210 95c-26 40 -34 83 -34 176v452zM302 789l75 142h97l-112 -142h-60z" />
    <glyph glyph-name="Ucircumflex" unicode="&#xdb;" horiz-adv-x="690" 
d="M101 714h83v-452c0 -72 7 -107 26 -138c29 -44 68 -63 135 -63c71 0 114 22 141 73c14 28 20 63 20 128v452h83v-452c0 -101 -10 -146 -43 -188c-44 -58 -106 -83 -201 -83c-101 0 -168 30 -210 95c-26 40 -34 83 -34 176v452zM344 874l-68 -80h-84l127 133h51l127 -133
h-84z" />
    <glyph glyph-name="Udieresis" unicode="&#xdc;" horiz-adv-x="690" 
d="M101 714h83v-452c0 -72 7 -107 26 -138c29 -44 68 -63 135 -63c71 0 114 22 141 73c14 28 20 63 20 128v452h83v-452c0 -101 -10 -146 -43 -188c-44 -58 -106 -83 -201 -83c-101 0 -168 30 -210 95c-26 40 -34 83 -34 176v452zM211 797v104h72v-104h-72zM406 797v104h72
v-104h-72z" />
    <glyph glyph-name="Ugrave" unicode="&#xd9;" horiz-adv-x="690" 
d="M101 714h83v-452c0 -72 7 -107 26 -138c29 -44 68 -63 135 -63c71 0 114 22 141 73c14 28 20 63 20 128v452h83v-452c0 -101 -10 -146 -43 -188c-44 -58 -106 -83 -201 -83c-101 0 -168 30 -210 95c-26 40 -34 83 -34 176v452zM408 789h-61l-111 142h97z" />
    <glyph glyph-name="Yacute" unicode="&#xdd;" horiz-adv-x="532" 
d="M225 0v258l-225 456h88l179 -371l178 371h88l-225 -456v-258h-83zM227 789l75 142h97l-112 -142h-60z" />
    <glyph glyph-name="Ydieresis" unicode="&#x178;" horiz-adv-x="532" 
d="M225 0v258l-225 456h88l179 -371l178 371h88l-225 -456v-258h-83zM132 797v104h72v-104h-72zM327 797v104h72v-104h-72z" />
    <glyph glyph-name="Zcaron" unicode="&#x17d;" horiz-adv-x="543" 
d="M51 0v59l330 585h-312v70h405v-59l-330 -585h346v-70h-439zM291 845l68 81h84l-127 -134h-51l-127 134h84z" />
    <glyph glyph-name="aacute" unicode="&#xe1;" horiz-adv-x="525" 
d="M361 295v35c0 41 -5 61 -18 80c-17 23 -50 36 -92 36c-49 0 -91 -18 -120 -51l-55 42c43 50 103 75 182 75c78 0 133 -25 161 -73c16 -29 21 -59 21 -121v-318h-63l-6 36c-32 -33 -70 -45 -146 -45c-129 0 -176 40 -176 149c0 116 48 155 191 155h121zM361 235h-113
c-89 0 -123 -26 -123 -93c0 -64 29 -85 118 -85c55 0 86 10 104 33c11 14 14 29 14 67v78zM220 582l75 142h97l-112 -142h-60z" />
    <glyph glyph-name="acircumflex" unicode="&#xe2;" horiz-adv-x="525" 
d="M361 295v35c0 41 -5 61 -18 80c-17 23 -50 36 -92 36c-49 0 -91 -18 -120 -51l-55 42c43 50 103 75 182 75c78 0 133 -25 161 -73c16 -29 21 -59 21 -121v-318h-63l-6 36c-32 -33 -70 -45 -146 -45c-129 0 -176 40 -176 149c0 116 48 155 191 155h121zM361 235h-113
c-89 0 -123 -26 -123 -93c0 -64 29 -85 118 -85c55 0 86 10 104 33c11 14 14 29 14 67v78zM262 667l-68 -81h-84l127 134h51l127 -134h-84z" />
    <glyph glyph-name="adieresis" unicode="&#xe4;" horiz-adv-x="525" 
d="M361 295v35c0 41 -5 61 -18 80c-17 23 -50 36 -92 36c-49 0 -91 -18 -120 -51l-55 42c43 50 103 75 182 75c78 0 133 -25 161 -73c16 -29 21 -59 21 -121v-318h-63l-6 36c-32 -33 -70 -45 -146 -45c-129 0 -176 40 -176 149c0 116 48 155 191 155h121zM361 235h-113
c-89 0 -123 -26 -123 -93c0 -64 29 -85 118 -85c55 0 86 10 104 33c11 14 14 29 14 67v78zM130 590v104h72v-104h-72zM323 590v104h72v-104h-72z" />
    <glyph glyph-name="agrave" unicode="&#xe0;" horiz-adv-x="525" 
d="M361 295v35c0 41 -5 61 -18 80c-17 23 -50 36 -92 36c-49 0 -91 -18 -120 -51l-55 42c43 50 103 75 182 75c78 0 133 -25 161 -73c16 -29 21 -59 21 -121v-318h-63l-6 36c-32 -33 -70 -45 -146 -45c-129 0 -176 40 -176 149c0 116 48 155 191 155h121zM361 235h-113
c-89 0 -123 -26 -123 -93c0 -64 29 -85 118 -85c55 0 86 10 104 33c11 14 14 29 14 67v78zM326 582h-61l-111 142h97z" />
    <glyph glyph-name="aring" unicode="&#xe5;" horiz-adv-x="525" 
d="M361 295v35c0 41 -5 61 -18 80c-17 23 -50 36 -92 36c-49 0 -91 -18 -120 -51l-55 42c43 50 103 75 182 75c78 0 133 -25 161 -73c16 -29 21 -59 21 -121v-318h-63l-6 36c-32 -33 -70 -45 -146 -45c-129 0 -176 40 -176 149c0 116 48 155 191 155h121zM361 235h-113
c-89 0 -123 -26 -123 -93c0 -64 29 -85 118 -85c55 0 86 10 104 33c11 14 14 29 14 67v78zM267 777c63 0 104 -41 104 -101c0 -62 -42 -103 -105 -103s-105 41 -105 103s41 101 106 101zM267 735c-33 0 -51 -21 -51 -60c0 -38 18 -60 50 -60s50 22 50 60s-18 60 -49 60z" />
    <glyph glyph-name="atilde" unicode="&#xe3;" horiz-adv-x="525" 
d="M361 295v35c0 41 -5 61 -18 80c-17 23 -50 36 -92 36c-49 0 -91 -18 -120 -51l-55 42c43 50 103 75 182 75c78 0 133 -25 161 -73c16 -29 21 -59 21 -121v-318h-63l-6 36c-32 -33 -70 -45 -146 -45c-129 0 -176 40 -176 149c0 116 48 155 191 155h121zM361 235h-113
c-89 0 -123 -26 -123 -93c0 -64 29 -85 118 -85c55 0 86 10 104 33c11 14 14 29 14 67v78zM156 596h-51c10 41 15 56 25 72c17 29 40 43 72 43c27 0 47 -9 73 -32c29 -26 39 -32 53 -32c20 0 31 16 41 56h51c-9 -40 -15 -58 -23 -73c-15 -28 -38 -42 -71 -42
c-29 0 -48 9 -75 34c-27 24 -37 30 -51 30c-19 0 -35 -21 -44 -56z" />
    <glyph glyph-name="ccedilla" unicode="&#xe7;" horiz-adv-x="475" 
d="M386 106l59 -36c-38 -54 -93 -79 -172 -79c-135 0 -202 77 -202 234v41c0 167 64 246 199 246c78 0 132 -27 166 -82l-61 -35c-29 38 -54 51 -100 51c-85 0 -125 -56 -125 -174v-55c0 -105 44 -160 127 -160c49 0 82 15 109 49zM168 -222l52 153h83l-79 -153h-56z" />
    <glyph glyph-name="eacute" unicode="&#xe9;" horiz-adv-x="543" 
d="M151 235v-21c0 -102 49 -157 140 -157c53 0 86 14 115 49l59 -38c-40 -54 -94 -77 -182 -77c-144 0 -212 76 -212 237v43c0 166 63 241 204 241s204 -75 204 -241v-36h-328zM151 295h252v8c0 39 -10 76 -27 100c-21 30 -51 43 -98 43c-54 0 -85 -15 -106 -51
c-13 -24 -21 -57 -21 -92v-8zM230 582l75 142h97l-112 -142h-60z" />
    <glyph glyph-name="ecircumflex" unicode="&#xea;" horiz-adv-x="543" 
d="M151 235v-21c0 -102 49 -157 140 -157c53 0 86 14 115 49l59 -38c-40 -54 -94 -77 -182 -77c-144 0 -212 76 -212 237v43c0 166 63 241 204 241s204 -75 204 -241v-36h-328zM151 295h252v8c0 39 -10 76 -27 100c-21 30 -51 43 -98 43c-54 0 -85 -15 -106 -51
c-13 -24 -21 -57 -21 -92v-8zM279 667l-68 -81h-84l127 134h51l127 -134h-84z" />
    <glyph glyph-name="edieresis" unicode="&#xeb;" horiz-adv-x="543" 
d="M151 235v-21c0 -102 49 -157 140 -157c53 0 86 14 115 49l59 -38c-40 -54 -94 -77 -182 -77c-144 0 -212 76 -212 237v43c0 166 63 241 204 241s204 -75 204 -241v-36h-328zM151 295h252v8c0 39 -10 76 -27 100c-21 30 -51 43 -98 43c-54 0 -85 -15 -106 -51
c-13 -24 -21 -57 -21 -92v-8zM147 590v104h72v-104h-72zM340 590v104h72v-104h-72z" />
    <glyph glyph-name="egrave" unicode="&#xe8;" horiz-adv-x="543" 
d="M151 235v-21c0 -102 49 -157 140 -157c53 0 86 14 115 49l59 -38c-40 -54 -94 -77 -182 -77c-144 0 -212 76 -212 237v43c0 166 63 241 204 241s204 -75 204 -241v-36h-328zM151 295h252v8c0 39 -10 76 -27 100c-21 30 -51 43 -98 43c-54 0 -85 -15 -106 -51
c-13 -24 -21 -57 -21 -92v-8zM332 582h-61l-111 142h97z" />
    <glyph glyph-name="iacute" unicode="&#xed;" horiz-adv-x="255" 
d="M84 0v502h79v-502h-79zM78 582l75 142h97l-112 -142h-60z" />
    <glyph glyph-name="icircumflex" unicode="&#xee;" horiz-adv-x="255" 
d="M88 0v502h79v-502h-79zM127 667l-68 -81h-84l127 134h51l127 -134h-84z" />
    <glyph glyph-name="idieresis" unicode="&#xef;" horiz-adv-x="255" 
d="M87 0v502h79v-502h-79zM-6 590v104h72v-104h-72zM187 590v104h72v-104h-72z" />
    <glyph glyph-name="igrave" unicode="&#xec;" horiz-adv-x="255" 
d="M88 0v502h79v-502h-79zM174 582h-61l-111 142h97z" />
    <glyph glyph-name="ntilde" unicode="&#xf1;" horiz-adv-x="565" 
d="M88 0v502h61l6 -56c30 46 73 66 142 66c89 0 146 -32 169 -97c10 -29 15 -68 15 -127v-288h-79v281c0 117 -33 163 -114 163c-87 0 -121 -53 -121 -189v-255h-79zM176 596h-51c10 41 15 56 25 72c17 29 40 43 72 43c27 0 47 -9 73 -32c29 -26 39 -32 53 -32
c20 0 31 16 41 56h51c-9 -40 -15 -58 -23 -73c-15 -28 -38 -42 -71 -42c-29 0 -48 9 -75 34c-27 24 -37 30 -51 30c-19 0 -35 -21 -44 -56z" />
    <glyph glyph-name="oacute" unicode="&#xf3;" horiz-adv-x="557" 
d="M71 212v78c0 151 65 222 206 222c144 0 209 -69 209 -222v-78c0 -152 -65 -221 -209 -221c-141 0 -206 70 -206 221zM407 217v68c0 110 -41 161 -129 161c-87 0 -128 -51 -128 -161v-68c0 -109 41 -160 128 -160c88 0 129 51 129 160zM228 582l75 142h97l-112 -142h-60z
" />
    <glyph glyph-name="ocircumflex" unicode="&#xf4;" horiz-adv-x="557" 
d="M71 212v78c0 151 65 222 206 222c144 0 209 -69 209 -222v-78c0 -152 -65 -221 -209 -221c-141 0 -206 70 -206 221zM407 217v68c0 110 -41 161 -129 161c-87 0 -128 -51 -128 -161v-68c0 -109 41 -160 128 -160c88 0 129 51 129 160zM278 667l-68 -81h-84l127 134h51
l127 -134h-84z" />
    <glyph glyph-name="odieresis" unicode="&#xf6;" horiz-adv-x="557" 
d="M71 212v78c0 151 65 222 206 222c144 0 209 -69 209 -222v-78c0 -152 -65 -221 -209 -221c-141 0 -206 70 -206 221zM407 217v68c0 110 -41 161 -129 161c-87 0 -128 -51 -128 -161v-68c0 -109 41 -160 128 -160c88 0 129 51 129 160zM145 590v104h72v-104h-72zM338 590
v104h72v-104h-72z" />
    <glyph glyph-name="ograve" unicode="&#xf2;" horiz-adv-x="557" 
d="M71 212v78c0 151 65 222 206 222c144 0 209 -69 209 -222v-78c0 -152 -65 -221 -209 -221c-141 0 -206 70 -206 221zM407 217v68c0 110 -41 161 -129 161c-87 0 -128 -51 -128 -161v-68c0 -109 41 -160 128 -160c88 0 129 51 129 160zM331 582h-61l-111 142h97z" />
    <glyph glyph-name="otilde" unicode="&#xf5;" horiz-adv-x="557" 
d="M71 212v78c0 151 65 222 206 222c144 0 209 -69 209 -222v-78c0 -152 -65 -221 -209 -221c-141 0 -206 70 -206 221zM407 217v68c0 110 -41 161 -129 161c-87 0 -128 -51 -128 -161v-68c0 -109 41 -160 128 -160c88 0 129 51 129 160zM172 596h-51c10 41 15 56 25 72
c17 29 40 43 72 43c27 0 47 -9 73 -32c29 -26 39 -32 53 -32c20 0 31 16 41 56h51c-9 -40 -15 -58 -23 -73c-15 -28 -38 -42 -71 -42c-29 0 -48 9 -75 34c-27 24 -37 30 -51 30c-19 0 -35 -21 -44 -56z" />
    <glyph glyph-name="scaron" unicode="&#x161;" horiz-adv-x="473" 
d="M29 69l58 37c35 -36 69 -49 135 -49c85 0 127 28 127 84c0 29 -12 51 -34 62c-20 10 -33 13 -93 21c-69 10 -101 20 -125 41c-27 23 -40 55 -40 98c0 96 60 149 166 149c85 0 143 -25 182 -80l-60 -37c-31 37 -62 51 -116 51c-62 0 -96 -28 -96 -79c0 -25 11 -46 31 -58
c17 -9 34 -13 79 -19c77 -11 110 -20 137 -40c29 -21 45 -61 45 -111c0 -99 -66 -148 -200 -148c-94 0 -161 27 -196 78zM235 638l68 80h84l-127 -133h-51l-127 133h84z" />
    <glyph glyph-name="uacute" unicode="&#xfa;" horiz-adv-x="555" 
d="M84 502h79v-280c0 -49 4 -77 13 -101c16 -41 49 -62 96 -62c83 0 116 53 116 188v255h79v-502h-61l-6 56c-29 -45 -71 -65 -138 -65c-86 0 -141 33 -163 97c-10 28 -15 69 -15 126v288zM227 582l75 142h97l-112 -142h-60z" />
    <glyph glyph-name="ucircumflex" unicode="&#xfb;" horiz-adv-x="555" 
d="M84 502h79v-280c0 -49 4 -77 13 -101c16 -41 49 -62 96 -62c83 0 116 53 116 188v255h79v-502h-61l-6 56c-29 -45 -71 -65 -138 -65c-86 0 -141 33 -163 97c-10 28 -15 69 -15 126v288zM277 667l-68 -81h-84l127 134h51l127 -134h-84z" />
    <glyph glyph-name="udieresis" unicode="&#xfc;" horiz-adv-x="555" 
d="M84 502h79v-280c0 -49 4 -77 13 -101c16 -41 49 -62 96 -62c83 0 116 53 116 188v255h79v-502h-61l-6 56c-29 -45 -71 -65 -138 -65c-86 0 -141 33 -163 97c-10 28 -15 69 -15 126v288zM145 590v104h72v-104h-72zM338 590v104h72v-104h-72z" />
    <glyph glyph-name="ugrave" unicode="&#xf9;" horiz-adv-x="555" 
d="M84 502h79v-280c0 -49 4 -77 13 -101c16 -41 49 -62 96 -62c83 0 116 53 116 188v255h79v-502h-61l-6 56c-29 -45 -71 -65 -138 -65c-86 0 -141 33 -163 97c-10 28 -15 69 -15 126v288zM330 582h-61l-111 142h97z" />
    <glyph glyph-name="yacute" unicode="&#xfd;" horiz-adv-x="488" 
d="M207 1l-185 501h80l147 -412l131 412h80l-197 -583c-46 -127 -73 -148 -203 -149v67c75 0 93 13 122 90zM204 582l75 142h97l-112 -142h-60z" />
    <glyph glyph-name="ydieresis" unicode="&#xff;" horiz-adv-x="488" 
d="M207 1l-185 501h80l147 -412l131 412h80l-197 -583c-46 -127 -73 -148 -203 -149v67c75 0 93 13 122 90zM111 590v104h72v-104h-72zM304 590v104h72v-104h-72z" />
    <glyph glyph-name="zcaron" unicode="&#x17e;" horiz-adv-x="475" 
d="M45 0v51l255 385h-235v66h334v-51l-255 -385h271v-66h-370zM246 638l68 80h84l-127 -133h-51l-127 133h84z" />
    <glyph glyph-name="zerooldstyle" unicode="&#xf730;" horiz-adv-x="513" 
d="M65 210v114c0 82 13 129 44 164c32 37 81 56 146 56c70 0 124 -23 156 -66c26 -34 37 -79 37 -154v-114c0 -81 -13 -128 -45 -164c-33 -36 -83 -55 -148 -55c-70 0 -123 22 -154 66c-26 35 -36 79 -36 153zM366 212v111c0 110 -32 155 -111 155c-77 0 -108 -45 -108 -155
v-111c0 -110 31 -155 108 -155c79 0 111 45 111 155z" />
    <glyph glyph-name="oneoldstyle" unicode="&#xf731;" horiz-adv-x="340" 
d="M143 0v446l-123 -54l-26 66l175 76h57v-534h-83z" />
    <glyph glyph-name="twooldstyle" unicode="&#xf732;" horiz-adv-x="445" 
d="M17 0v53l173 165c34 33 72 76 91 104c17 26 24 45 24 69c0 56 -36 87 -100 87c-62 0 -98 -28 -112 -86l-75 17c21 91 83 135 189 135c115 0 178 -53 178 -150c0 -41 -11 -72 -38 -109c-23 -31 -27 -35 -98 -103l-121 -116h271v-66h-382z" />
    <glyph glyph-name="threeoldstyle" unicode="&#xf733;" horiz-adv-x="474" 
d="M125 176v67h65c75 0 125 49 125 122c0 71 -38 113 -101 113c-51 0 -87 -28 -99 -77l-74 20c30 89 78 123 176 123c116 0 181 -63 181 -176c0 -79 -29 -125 -100 -158c38 -15 49 -21 65 -35c40 -33 59 -77 59 -137c0 -55 -16 -103 -44 -138c-36 -42 -93 -63 -173 -63
c-110 0 -171 35 -197 114l77 28c9 -48 53 -76 118 -76c49 0 82 13 104 40c21 25 32 61 32 98c0 80 -59 135 -144 135h-70z" />
    <glyph glyph-name="fouroldstyle" unicode="&#xf734;" horiz-adv-x="462" 
d="M306 -154v154h-289v51l220 483h88l-219 -469h200v219h72v-219h71v-66h-71v-153h-72z" />
    <glyph glyph-name="fiveoldstyle" unicode="&#xf735;" horiz-adv-x="508" 
d="M75 177l32 357h314v-70h-245l-22 -217c54 25 67 29 106 29c65 0 118 -23 148 -64c24 -33 36 -81 36 -149c0 -74 -14 -124 -45 -161c-35 -42 -94 -65 -167 -65c-104 0 -166 37 -191 114l77 28c9 -47 52 -76 114 -76c85 0 129 53 129 156s-37 151 -117 151
c-42 0 -77 -15 -109 -45z" />
    <glyph glyph-name="sixoldstyle" unicode="&#xf736;" horiz-adv-x="531" 
d="M375 696l-160 -272c4 1 7 2 7 2l27 11c10 3 24 5 42 5c57 0 108 -25 139 -67c23 -33 35 -84 35 -157c0 -84 -15 -138 -48 -172c-35 -36 -87 -55 -150 -55c-69 0 -126 23 -159 65c-27 33 -39 84 -39 162c0 75 14 128 53 197l160 281h93zM269 379c-81 0 -117 -49 -117 -160
s36 -162 115 -162s115 51 115 161s-36 161 -113 161z" />
    <glyph glyph-name="sevenoldstyle" unicode="&#xf737;" horiz-adv-x="396" 
d="M55 -154l211 618h-273v70h360v-50l-210 -638h-88z" />
    <glyph glyph-name="eightoldstyle" unicode="&#xf738;" horiz-adv-x="546" 
d="M165 371c-55 33 -77 74 -77 149c0 125 60 186 185 186c124 0 185 -61 185 -185c0 -51 -13 -93 -35 -116c-11 -12 -31 -28 -42 -34c70 -28 100 -80 100 -171c0 -143 -66 -209 -208 -209s-208 67 -208 208c0 92 30 144 100 172zM274 642c-74 0 -107 -38 -107 -124
c0 -84 33 -123 106 -123s106 39 106 123c0 85 -33 124 -105 124zM275 333c-89 0 -128 -41 -128 -134c0 -99 40 -144 126 -144s126 45 126 144c0 91 -39 134 -124 134z" />
    <glyph glyph-name="nineoldstyle" unicode="&#xf739;" horiz-adv-x="531" 
d="M157 -154l159 264c-4 -1 -6 -1 -7 -2c-9 -3 -18 -6 -27 -10c-10 -3 -24 -5 -42 -5c-57 0 -108 25 -139 68c-23 33 -35 83 -35 156c0 85 15 138 48 172c35 36 87 55 150 55c69 0 126 -23 159 -65c27 -34 39 -84 39 -162c0 -74 -16 -134 -53 -197l-159 -274h-93zM264 478
c-79 0 -115 -51 -115 -161s36 -161 113 -161c81 0 117 49 117 161c0 110 -36 161 -115 161z" />
    <glyph glyph-name="figuredash" unicode="&#x2012;" 
d="M76 328v70h387v-70h-387z" />
    <glyph glyph-name="oneeighth" unicode="&#x215b;" horiz-adv-x="860" 
d="M154 286v363l-77 -30l-18 49l115 46h46v-428h-66zM231 0l224 714h75l-224 -714h-75zM558 227c-29 21 -40 46 -40 90c0 80 40 117 127 117c86 0 126 -37 126 -117c0 -44 -10 -66 -39 -90c37 -20 52 -50 52 -104c0 -90 -42 -129 -139 -129s-139 39 -139 129
c0 54 15 85 52 104zM645 386c-44 0 -67 -24 -67 -70c0 -47 23 -71 67 -71c43 0 66 24 66 71c0 46 -23 70 -66 70zM646 200c-51 0 -76 -26 -76 -78s25 -78 75 -78s75 26 75 78c0 51 -25 78 -74 78z" />
    <glyph glyph-name="threeeighths" unicode="&#x215c;" horiz-adv-x="860" 
d="M127 487v47h44c43 0 77 30 77 68s-27 64 -67 64c-36 0 -60 -17 -69 -50l-59 7c10 67 49 96 130 96c86 0 131 -40 131 -115c0 -47 -15 -72 -54 -93c46 -22 66 -54 66 -107c0 -81 -50 -123 -145 -123c-54 0 -94 13 -118 39c-12 13 -17 26 -23 57l62 11c9 -37 34 -54 77 -54
c50 0 81 27 81 73c0 47 -36 80 -86 80h-47zM589 227c-28 21 -39 46 -39 90c0 80 39 117 126 117s127 -37 127 -117c0 -43 -10 -66 -40 -90c38 -20 53 -50 53 -104c0 -90 -43 -129 -140 -129s-139 39 -139 128c0 55 15 86 52 105zM677 386c-45 0 -67 -24 -67 -70
c0 -47 22 -71 66 -71s67 24 67 71c0 46 -23 70 -66 70zM677 200c-51 0 -76 -26 -76 -78s25 -78 75 -78s76 26 76 78c0 51 -26 78 -75 78zM281 0l224 714h75l-224 -714h-75z" />
    <glyph glyph-name="fiveeighths" unicode="&#x215d;" horiz-adv-x="860" 
d="M69 487l22 227h218v-53h-162l-13 -119c23 10 36 13 59 13c87 0 129 -44 129 -136c0 -94 -45 -138 -142 -138c-78 0 -125 35 -130 97l62 10c8 -35 32 -54 71 -54c46 0 73 31 73 82c0 59 -23 88 -70 88c-25 0 -51 -10 -69 -26zM591 227c-28 22 -39 47 -39 90
c0 80 40 117 127 117c86 0 126 -37 126 -117c0 -43 -10 -66 -39 -90c37 -20 52 -50 52 -104c0 -90 -43 -129 -140 -129c-96 0 -139 39 -139 128c0 55 15 86 52 105zM679 386c-44 0 -67 -24 -67 -70c0 -47 23 -71 67 -71c43 0 66 24 66 71c0 45 -23 70 -66 70zM679 200
c-51 0 -76 -26 -76 -78s25 -78 75 -78c51 0 76 26 76 78c0 51 -25 78 -75 78zM281 0l224 714h75l-224 -714h-75z" />
    <glyph glyph-name="seveneighths" unicode="&#x215e;" horiz-adv-x="860" 
d="M101 286l145 375h-181v53h253v-39l-145 -389h-72zM572 227c-29 22 -40 47 -40 90c0 80 40 117 127 117c86 0 126 -37 126 -117c0 -43 -10 -66 -39 -90c37 -20 52 -50 52 -104c0 -90 -42 -129 -139 -129s-139 39 -139 128c0 55 15 86 52 105zM659 386
c-44 0 -67 -24 -67 -70c0 -47 23 -71 67 -71c43 0 66 24 66 71c0 45 -23 70 -66 70zM660 200c-51 0 -76 -26 -76 -78s25 -78 75 -78s75 26 75 78c0 51 -25 78 -74 78zM253 0l224 714h75l-224 -714h-75z" />
    <glyph glyph-name="onethird" unicode="&#x2153;" horiz-adv-x="860" 
d="M147 286v363l-77 -30l-18 49l115 46h46v-428h-66zM224 0l224 714h75l-224 -714h-75zM579 202v47h44c44 0 77 29 77 67c0 39 -27 64 -67 64c-36 0 -59 -17 -68 -50l-60 8c11 66 50 95 131 95c85 0 130 -40 130 -115c0 -46 -15 -71 -53 -92c46 -22 65 -54 65 -107
c0 -82 -49 -124 -145 -124c-54 0 -94 13 -118 39c-12 13 -17 26 -23 57l63 12c9 -38 33 -55 77 -55c50 0 80 28 80 73c0 47 -35 81 -85 81h-48z" />
    <glyph glyph-name="twothirds" unicode="&#x2154;" horiz-adv-x="860" 
d="M49 286v42l126 150c41 49 64 93 64 125c0 40 -24 64 -64 64c-38 0 -64 -23 -73 -63l-61 7c13 78 53 109 136 109c84 0 128 -41 128 -119c0 -53 -18 -89 -83 -165l-81 -97h163v-53h-255zM623 202v47h44c43 0 77 29 77 67c0 39 -27 64 -67 64c-36 0 -60 -17 -69 -50l-59 8
c10 66 49 95 130 95c86 0 131 -40 131 -115c0 -46 -15 -71 -54 -92c47 -23 66 -54 66 -107c0 -82 -50 -124 -145 -124c-54 0 -94 13 -118 39c-12 13 -17 26 -23 57l62 12c10 -38 34 -55 77 -55c50 0 81 28 81 73c0 47 -36 81 -86 81h-47zM281 0l224 714h75l-224 -714h-75z
" />
    <glyph glyph-name="zerosuperior" unicode="&#x2070;" horiz-adv-x="352" 
d="M42 539v122c0 110 41 158 134 158s134 -48 134 -158v-122c0 -110 -41 -158 -134 -158s-134 48 -134 158zM246 544v113c0 76 -22 112 -70 112c-47 0 -70 -36 -70 -112v-113c0 -77 23 -113 70 -113c48 0 70 36 70 113z" />
    <glyph glyph-name="foursuperior" unicode="&#x2074;" horiz-adv-x="349" 
d="M216 386v81h-187v39l147 308h70l-141 -295h111v92h59v-92h45v-53h-45v-80h-59z" />
    <glyph glyph-name="fivesuperior" unicode="&#x2075;" horiz-adv-x="345" 
d="M50 587l22 227h218v-53h-162l-13 -119c23 10 37 13 59 13c87 0 129 -44 129 -136c0 -94 -45 -138 -142 -138c-78 0 -125 35 -130 97l62 10c8 -35 32 -54 71 -54c46 0 73 31 73 82c0 59 -23 89 -70 89c-25 0 -51 -10 -69 -27z" />
    <glyph glyph-name="sixsuperior" unicode="&#x2076;" horiz-adv-x="349" 
d="M257 814l-99 -164c16 4 25 5 38 5c35 0 70 -16 89 -40c17 -20 24 -51 24 -96c0 -96 -40 -138 -133 -138s-133 41 -133 138c0 48 7 71 35 119l102 176h77zM177 606c-47 0 -70 -29 -70 -87c0 -59 23 -88 69 -88s69 29 69 88c0 57 -23 87 -68 87z" />
    <glyph glyph-name="sevensuperior" unicode="&#x2077;" horiz-adv-x="256" 
d="M38 386l125 375h-161v53h233v-39l-125 -389h-72z" />
    <glyph glyph-name="eightsuperior" unicode="&#x2078;" horiz-adv-x="349" 
d="M87 613c-28 21 -39 47 -39 90c0 80 40 117 126 117c87 0 127 -37 127 -117c0 -43 -10 -66 -40 -90c37 -20 52 -50 52 -104c0 -90 -42 -129 -139 -129c-96 0 -139 39 -139 128c0 55 15 86 52 105zM175 772c-44 0 -67 -24 -67 -70c0 -47 23 -71 67 -71c43 0 66 24 66 71
c0 46 -23 70 -66 70zM175 586c-51 0 -76 -26 -76 -78s25 -78 75 -78s75 26 75 78c0 51 -25 78 -74 78z" />
    <glyph glyph-name="ninesuperior" unicode="&#x2079;" horiz-adv-x="349" 
d="M93 386l102 180c-20 -3 -29 -4 -42 -4c-75 0 -112 42 -112 127c0 90 40 130 133 130c92 0 133 -40 133 -128c0 -47 -4 -61 -27 -103l-110 -202h-77zM175 769c-46 0 -70 -27 -70 -79s24 -80 69 -80s69 28 69 80c0 51 -24 79 -68 79z" />
    <glyph glyph-name="zeroinferior" unicode="&#x2080;" horiz-adv-x="352" 
d="M42 53v122c0 110 41 158 134 158s134 -48 134 -158v-122c0 -110 -41 -158 -134 -158s-134 48 -134 158zM246 58v112c0 77 -22 113 -70 113c-47 0 -70 -36 -70 -113v-112c0 -77 23 -113 70 -113c48 0 70 36 70 113z" />
    <glyph glyph-name="oneinferior" unicode="&#x2081;" horiz-adv-x="236" 
d="M97 -100v363l-77 -30l-18 49l115 46h46v-428h-66z" />
    <glyph glyph-name="twoinferior" unicode="&#x2082;" horiz-adv-x="342" 
d="M42 -100v42l126 150c41 48 64 93 64 125c0 40 -24 64 -64 64c-38 0 -64 -22 -73 -63l-61 7c13 77 53 109 136 109c84 0 128 -41 128 -119c0 -53 -18 -89 -83 -165l-81 -97h163v-53h-255z" />
    <glyph glyph-name="threeinferior" unicode="&#x2083;" horiz-adv-x="342" 
d="M105 102v47h44c43 0 77 29 77 67c0 39 -27 64 -67 64c-36 0 -60 -17 -69 -50l-59 8c10 66 49 95 130 95c86 0 131 -40 131 -115c0 -46 -15 -71 -54 -92c47 -22 66 -54 66 -107c0 -82 -50 -124 -145 -124c-54 0 -94 13 -118 39c-12 13 -17 26 -23 57l62 12
c9 -38 34 -55 77 -55c50 0 81 28 81 73c0 47 -36 81 -86 81h-47z" />
    <glyph glyph-name="fourinferior" unicode="&#x2084;" horiz-adv-x="349" 
d="M216 -100v80h-187v39l147 309h70l-141 -296h111v93h59v-93h45v-53h-45v-79h-59z" />
    <glyph glyph-name="fiveinferior" unicode="&#x2085;" horiz-adv-x="345" 
d="M50 101l22 227h218v-53h-162l-13 -119c23 10 37 13 59 13c87 0 129 -44 129 -136c0 -94 -45 -138 -142 -138c-78 0 -125 34 -130 97l62 10c8 -35 32 -54 71 -54c46 0 73 31 73 82c0 59 -23 89 -70 89c-25 0 -51 -10 -69 -27z" />
    <glyph glyph-name="sixinferior" unicode="&#x2086;" horiz-adv-x="349" 
d="M257 328l-99 -164c17 4 26 5 38 5c35 0 70 -16 89 -40c17 -20 24 -51 24 -96c0 -96 -40 -138 -133 -138s-133 41 -133 138c0 48 7 71 35 119l102 176h77zM177 120c-47 0 -70 -29 -70 -87c0 -59 23 -88 69 -88s69 29 69 88c0 57 -23 87 -68 87z" />
    <glyph glyph-name="seveninferior" unicode="&#x2087;" horiz-adv-x="256" 
d="M39 -100l125 375h-161v53h233v-39l-125 -389h-72z" />
    <glyph glyph-name="eightinferior" unicode="&#x2088;" horiz-adv-x="349" 
d="M87 127c-28 21 -39 46 -39 90c0 80 40 117 126 117c87 0 127 -37 127 -117c0 -43 -10 -66 -40 -90c37 -20 52 -50 52 -104c0 -90 -42 -129 -139 -129c-96 0 -139 39 -139 128c0 55 15 86 52 105zM175 286c-44 0 -67 -24 -67 -70c0 -47 23 -71 67 -71c43 0 66 24 66 71
c0 46 -23 70 -66 70zM175 100c-51 0 -76 -26 -76 -78s25 -78 75 -78s75 26 75 78c0 51 -25 78 -74 78z" />
    <glyph glyph-name="nineinferior" unicode="&#x2089;" horiz-adv-x="349" 
d="M93 -100l102 180c-20 -3 -29 -4 -42 -4c-75 0 -112 42 -112 127c0 90 40 130 133 130c92 0 133 -40 133 -128c0 -46 -4 -62 -27 -103l-110 -202h-77zM175 283c-46 0 -70 -27 -70 -79s24 -80 69 -80s69 28 69 79s-24 80 -68 80z" />
    <glyph glyph-name="IJ" unicode="&#x132;" horiz-adv-x="582" 
d="M104 0v714h83v-714h-83zM396 714h83v-669c0 -121 -5 -161 -26 -200c-31 -58 -89 -88 -170 -88c-34 0 -58 4 -94 16l27 65c23 -8 37 -11 59 -11c55 0 92 26 109 75c9 26 12 58 12 141v671z" />
    <glyph glyph-name="uni01CD" unicode="&#x1cd;" horiz-adv-x="600" 
d="M457 156h-313l-54 -156h-90l261 714h79l261 -714h-90zM436 225l-135 383l-135 -383h270zM301 845l68 81h84l-127 -134h-51l-127 134h84z" />
    <glyph glyph-name="Abreve" unicode="&#x102;" horiz-adv-x="600" 
d="M457 156h-313l-54 -156h-90l261 714h79l261 -714h-90zM436 225l-135 383l-135 -383h270zM161 923h54c7 -57 29 -77 85 -77c57 0 79 20 85 77h55c-3 -47 -7 -65 -18 -85c-21 -37 -58 -53 -122 -53c-68 0 -106 19 -126 61c-8 18 -11 35 -13 77z" />
    <glyph glyph-name="Aogonek" unicode="&#x104;" horiz-adv-x="600" 
d="M340 714l261 -714c-70 -40 -97 -70 -97 -105c0 -28 16 -41 51 -41c20 0 36 3 59 10l8 -46c-28 -10 -50 -14 -80 -14c-73 0 -110 26 -110 79c0 47 39 92 99 117h-20l-54 156h-313l-54 -156h-90l261 714h79zM436 225l-135 383l-135 -383h270z" />
    <glyph glyph-name="Cacute" unicode="&#x106;" horiz-adv-x="632" 
d="M481 177l77 -9c-7 -113 -91 -177 -232 -177c-91 0 -155 29 -196 90c-31 46 -43 102 -43 202v147c0 109 15 168 53 215c43 53 102 77 187 77c137 0 218 -65 224 -180l-76 -6c-10 75 -63 116 -147 116c-112 0 -158 -65 -158 -226v-138c0 -163 45 -227 159 -227
c86 0 141 42 152 116zM277 789l75 142h97l-112 -142h-60z" />
    <glyph glyph-name="Ccaron" unicode="&#x10c;" horiz-adv-x="632" 
d="M481 177l77 -9c-7 -113 -91 -177 -232 -177c-91 0 -155 29 -196 90c-31 46 -43 102 -43 202v147c0 109 15 168 53 215c43 53 102 77 187 77c137 0 218 -65 224 -180l-76 -6c-10 75 -63 116 -147 116c-112 0 -158 -65 -158 -226v-138c0 -163 45 -227 159 -227
c86 0 141 42 152 116zM327 845l68 81h84l-127 -134h-51l-127 134h84z" />
    <glyph glyph-name="Cdotaccent" unicode="&#x10a;" horiz-adv-x="632" 
d="M481 177l77 -9c-7 -113 -91 -177 -232 -177c-91 0 -155 29 -196 90c-31 46 -43 102 -43 202v147c0 109 15 168 53 215c43 53 102 77 187 77c137 0 218 -65 224 -180l-76 -6c-10 75 -63 116 -147 116c-112 0 -158 -65 -158 -226v-138c0 -163 45 -227 159 -227
c86 0 141 42 152 116zM289 797v104h78v-104h-78z" />
    <glyph glyph-name="Dcaron" unicode="&#x10e;" horiz-adv-x="678" 
d="M104 0v714h228c174 3 264 -92 259 -272v-170c5 -180 -85 -274 -259 -272h-228zM187 69h131c131 -3 190 63 190 211v154c0 148 -59 214 -190 211h-131v-576zM310 845l68 81h84l-127 -134h-51l-127 134h84z" />
    <glyph glyph-name="Ecaron" unicode="&#x11a;" horiz-adv-x="579" 
d="M104 0v714h417v-70h-335v-248h286v-70h-286v-256h336v-70h-418zM318 845l68 81h84l-127 -134h-51l-127 134h84z" />
    <glyph glyph-name="Edotaccent" unicode="&#x116;" horiz-adv-x="579" 
d="M104 0v714h417v-70h-335v-248h286v-70h-286v-256h336v-70h-418zM278 797v104h78v-104h-78z" />
    <glyph glyph-name="Eogonek" unicode="&#x118;" horiz-adv-x="579" 
d="M104 0v714h417v-70h-335v-248h286v-70h-286v-256h336v-70c-67 -38 -96 -70 -96 -105c0 -28 16 -41 51 -41c20 0 35 3 58 10l8 -46c-34 -11 -50 -14 -80 -14c-73 0 -110 26 -110 79c0 47 34 87 98 117h-347z" />
    <glyph glyph-name="Gcaron" unicode="&#x1e6;" horiz-adv-x="663" 
d="M356 308v67h231v-112c0 -96 -15 -149 -53 -195c-44 -52 -108 -77 -196 -77c-98 0 -163 29 -207 90c-32 46 -44 101 -44 202v146c0 110 15 169 55 216c43 52 104 77 190 77c142 0 225 -65 232 -180l-77 -6c-10 74 -65 116 -153 116c-117 0 -164 -65 -164 -227v-138
c0 -162 48 -226 167 -226c61 0 107 20 135 59c24 32 33 66 33 126v62h-149zM334 845l68 81h84l-127 -134h-51l-127 134h84z" />
    <glyph glyph-name="Gbreve" unicode="&#x11e;" horiz-adv-x="663" 
d="M356 308v67h231v-112c0 -96 -15 -149 -53 -195c-44 -52 -108 -77 -196 -77c-98 0 -163 29 -207 90c-32 46 -44 101 -44 202v146c0 110 15 169 55 216c43 52 104 77 190 77c142 0 225 -65 232 -180l-77 -6c-10 74 -65 116 -153 116c-117 0 -164 -65 -164 -227v-138
c0 -162 48 -226 167 -226c61 0 107 20 135 59c24 32 33 66 33 126v62h-149zM194 923h54c7 -57 29 -77 85 -77c57 0 79 20 85 77h55c-3 -47 -7 -65 -18 -85c-21 -37 -58 -53 -122 -53c-68 0 -106 19 -126 61c-8 18 -11 35 -13 77z" />
    <glyph glyph-name="Gdotaccent" unicode="&#x120;" horiz-adv-x="663" 
d="M356 308v67h231v-112c0 -96 -15 -149 -53 -195c-44 -52 -108 -77 -196 -77c-98 0 -163 29 -207 90c-32 46 -44 101 -44 202v146c0 110 15 169 55 216c43 52 104 77 190 77c142 0 225 -65 232 -180l-77 -6c-10 74 -65 116 -153 116c-117 0 -164 -65 -164 -227v-138
c0 -162 48 -226 167 -226c61 0 107 20 135 59c24 32 33 66 33 126v62h-149zM294 797v104h78v-104h-78z" />
    <glyph glyph-name="Idotaccent" unicode="&#x130;" horiz-adv-x="291" 
d="M103 0v714h83v-714h-83zM105 797v104h78v-104h-78z" />
    <glyph glyph-name="Lacute" unicode="&#x139;" horiz-adv-x="533" 
d="M104 0v714h83v-644h336v-70h-419zM124 789l75 142h97l-112 -142h-60z" />
    <glyph glyph-name="Lcaron" unicode="&#x13d;" horiz-adv-x="533" 
d="M104 0v714h83v-644h336v-70h-419zM286 492l26 230h82l-52 -230h-56z" />
    <glyph glyph-name="Nacute" unicode="&#x143;" horiz-adv-x="721" 
d="M104 0v714h80l352 -572v572h81v-714h-80l-352 572v-572h-81zM327 789l75 142h97l-112 -142h-60z" />
    <glyph glyph-name="Ncaron" unicode="&#x147;" horiz-adv-x="721" 
d="M104 0v714h80l352 -572v572h81v-714h-80l-352 572v-572h-81zM374 845l68 81h84l-127 -134h-51l-127 134h84z" />
    <glyph glyph-name="Ohungarumlaut" unicode="&#x150;" horiz-adv-x="676" 
d="M87 269v176c0 100 17 157 59 204c46 51 105 74 192 74c93 0 157 -27 203 -86c34 -45 48 -99 48 -192v-176c0 -101 -16 -157 -59 -204c-46 -51 -105 -74 -192 -74c-93 0 -157 27 -202 86c-35 45 -49 100 -49 192zM506 277v160c0 79 -10 122 -39 159c-29 39 -69 57 -129 57
c-64 0 -107 -21 -136 -66c-23 -37 -32 -77 -32 -150v-160c0 -79 10 -122 39 -159c29 -39 69 -57 129 -57c64 0 107 21 136 66c23 37 32 77 32 150zM235 789l60 142h90l-93 -142h-57zM370 789l60 142h89l-92 -142h-57z" />
    <glyph glyph-name="Racute" unicode="&#x154;" horiz-adv-x="646" 
d="M188 308v-308h-83v714h245c85 0 133 -15 170 -52c35 -36 51 -82 51 -147c0 -117 -47 -179 -147 -198l157 -317h-92l-147 308h-154zM187 377h164c93 0 137 43 137 134c0 92 -46 134 -146 134h-155v-268zM273 789l75 142h97l-112 -142h-60z" />
    <glyph glyph-name="Rcaron" unicode="&#x158;" horiz-adv-x="646" 
d="M188 308v-308h-83v714h245c85 0 133 -15 170 -52c35 -36 51 -82 51 -147c0 -117 -47 -179 -147 -198l157 -317h-92l-147 308h-154zM187 377h164c93 0 137 43 137 134c0 92 -46 134 -146 134h-155v-268zM316 845l68 81h84l-127 -134h-51l-127 134h84z" />
    <glyph glyph-name="Sacute" unicode="&#x15a;" horiz-adv-x="579" 
d="M45 96l65 42c30 -50 92 -77 176 -77c104 0 164 47 164 128c0 39 -16 73 -43 92s-27 19 -132 45c-147 37 -204 94 -204 203c0 122 82 194 219 194c96 0 168 -32 206 -90l-63 -41c-29 40 -80 62 -146 62c-84 0 -135 -45 -135 -120c0 -73 42 -109 164 -140
c96 -23 113 -30 148 -54c44 -30 67 -80 67 -147c0 -130 -87 -202 -245 -202c-116 0 -197 35 -241 105zM243 789l75 142h97l-112 -142h-60z" />
    <glyph glyph-name="Scedilla" unicode="&#x15e;" horiz-adv-x="579" 
d="M45 96l65 42c30 -50 92 -77 176 -77c104 0 164 47 164 128c0 39 -16 73 -43 92s-27 19 -132 45c-147 37 -204 94 -204 203c0 122 82 194 219 194c96 0 168 -32 206 -90l-63 -41c-29 40 -80 62 -146 62c-84 0 -135 -45 -135 -120c0 -73 42 -109 164 -140
c96 -23 113 -30 148 -54c44 -30 67 -80 67 -147c0 -130 -87 -202 -245 -202c-116 0 -197 35 -241 105zM201 -222l52 153h83l-79 -153h-56z" />
    <glyph glyph-name="Tcaron" unicode="&#x164;" horiz-adv-x="554" 
d="M237 0v644h-206v70h493v-70h-204v-644h-83zM278 845l68 81h84l-127 -134h-51l-127 134h84z" />
    <glyph glyph-name="Uring" unicode="&#x16e;" horiz-adv-x="690" 
d="M101 714h83v-452c0 -72 7 -107 26 -138c29 -44 68 -63 135 -63c71 0 114 22 141 73c14 28 20 63 20 128v452h83v-452c0 -101 -10 -146 -43 -188c-44 -58 -106 -83 -201 -83c-101 0 -168 30 -210 95c-26 40 -34 83 -34 176v452zM346 984c62 0 103 -40 103 -101
s-42 -102 -105 -102s-105 41 -105 102c0 62 41 101 107 101zM345 942c-33 0 -51 -21 -51 -60c0 -37 18 -59 50 -59s50 22 50 59c0 38 -18 60 -49 60z" />
    <glyph glyph-name="Uhungarumlaut" unicode="&#x170;" horiz-adv-x="690" 
d="M101 714h83v-452c0 -72 7 -107 26 -138c29 -44 68 -63 135 -63c71 0 114 22 141 73c14 28 20 63 20 128v452h83v-452c0 -101 -10 -146 -43 -188c-44 -58 -106 -83 -201 -83c-101 0 -168 30 -210 95c-26 40 -34 83 -34 176v452zM244 789l60 142h90l-93 -142h-57zM379 789
l60 142h89l-92 -142h-57z" />
    <glyph glyph-name="Zacute" unicode="&#x179;" horiz-adv-x="543" 
d="M51 0v59l330 585h-312v70h405v-59l-330 -585h346v-70h-439zM244 789l75 142h97l-112 -142h-60z" />
    <glyph glyph-name="Zdotaccent" unicode="&#x17b;" horiz-adv-x="543" 
d="M51 0v59l330 585h-312v70h405v-59l-330 -585h346v-70h-439zM244 797v104h78v-104h-78z" />
    <glyph glyph-name="Amacron" unicode="&#x100;" horiz-adv-x="600" 
d="M457 156h-313l-54 -156h-90l261 714h79l261 -714h-90zM436 225l-135 383l-135 -383h270zM172 827v58h257v-58h-257z" />
    <glyph glyph-name="Tcommaaccent" unicode="&#x162;" horiz-adv-x="554" 
d="M237 0v644h-206v70h493v-70h-204v-644h-83zM190 -222l52 153h83l-79 -153h-56z" />
    <glyph glyph-name="uni021A" unicode="&#x21a;" horiz-adv-x="554" 
d="M237 0v644h-206v70h493v-70h-204v-644h-83zM190 -222l52 153h83l-79 -153h-56z" />
    <glyph glyph-name="Ccircumflex" unicode="&#x108;" horiz-adv-x="632" 
d="M481 177l77 -9c-7 -113 -91 -177 -232 -177c-91 0 -155 29 -196 90c-31 46 -43 102 -43 202v147c0 109 15 168 53 215c43 53 102 77 187 77c137 0 218 -65 224 -180l-76 -6c-10 75 -63 116 -147 116c-112 0 -158 -65 -158 -226v-138c0 -163 45 -227 159 -227
c86 0 141 42 152 116zM326 874l-68 -80h-84l127 133h51l127 -133h-84z" />
    <glyph glyph-name="Wcircumflex" unicode="&#x174;" horiz-adv-x="876" 
d="M208 0l-180 714h84l135 -586l161 586h59l161 -586l136 586h84l-180 -714h-71l-159 569l-159 -569h-71zM437 874l-68 -80h-84l127 133h51l127 -133h-84z" />
    <glyph glyph-name="Wdieresis" unicode="&#x1e84;" horiz-adv-x="876" 
d="M208 0l-180 714h84l135 -586l161 586h59l161 -586l136 586h84l-180 -714h-71l-159 569l-159 -569h-71zM304 797v104h72v-104h-72zM499 797v104h72v-104h-72z" />
    <glyph glyph-name="Ycircumflex" unicode="&#x176;" horiz-adv-x="532" 
d="M225 0v258l-225 456h88l179 -371l178 371h88l-225 -456v-258h-83zM265 874l-68 -80h-84l127 133h51l127 -133h-84z" />
    <glyph glyph-name="Hbar" unicode="&#x126;" horiz-adv-x="681" 
d="M104 0v497h-65v61h65v156h83v-156h307v156h83v-156h65v-61h-65v-497h-83v326h-307v-326h-83zM187 396h307v101h-307v-101z" />
    <glyph glyph-name="Dbreve" horiz-adv-x="678" 
d="M104 0v714h228c174 3 264 -92 259 -272v-170c5 -180 -85 -274 -259 -272h-228zM187 69h131c131 -3 190 63 190 211v154c0 148 -59 214 -190 211h-131v-576zM178 923h54c7 -57 29 -77 85 -77c57 0 79 20 85 77h55c-3 -47 -7 -65 -18 -85c-21 -37 -58 -53 -122 -53
c-68 0 -106 19 -126 61c-8 18 -11 35 -13 77z" />
    <glyph glyph-name="Emacron" unicode="&#x112;" horiz-adv-x="579" 
d="M104 0v714h417v-70h-335v-248h286v-70h-286v-256h336v-70h-418zM182 827v58h257v-58h-257z" />
    <glyph glyph-name="Gcircumflex" unicode="&#x11c;" horiz-adv-x="663" 
d="M356 308v67h231v-112c0 -96 -15 -149 -53 -195c-44 -52 -108 -77 -196 -77c-98 0 -163 29 -207 90c-32 46 -44 101 -44 202v146c0 110 15 169 55 216c43 52 104 77 190 77c142 0 225 -65 232 -180l-77 -6c-10 74 -65 116 -153 116c-117 0 -164 -65 -164 -227v-138
c0 -162 48 -226 167 -226c61 0 107 20 135 59c24 32 33 66 33 126v62h-149zM331 874l-68 -80h-84l127 133h51l127 -133h-84z" />
    <glyph glyph-name="Hcircumflex" unicode="&#x124;" horiz-adv-x="681" 
d="M104 0v714h83v-318h306v318h83v-714h-83v326h-306v-326h-83zM340 874l-68 -80h-84l127 133h51l127 -133h-84z" />
    <glyph glyph-name="Imacron" unicode="&#x12a;" horiz-adv-x="291" 
d="M104 0v714h83v-714h-83zM17 827v58h257v-58h-257z" />
    <glyph glyph-name="Iogonek" unicode="&#x12e;" horiz-adv-x="291" 
d="M187 714v-714c-53 -32 -80 -66 -80 -101c0 -31 15 -45 47 -45c20 0 36 3 59 10l8 -46c-29 -10 -50 -14 -81 -14c-70 0 -105 28 -105 83c0 45 30 85 86 113h-17v714h83z" />
    <glyph glyph-name="Jcircumflex" unicode="&#x134;" horiz-adv-x="465" 
d="M283 714h83v-435c0 -121 -5 -161 -26 -200c-31 -58 -89 -88 -172 -88c-71 0 -123 20 -177 69l46 57c38 -38 79 -56 126 -56c54 0 91 26 108 75c9 26 12 58 12 141v437zM310 874l-68 -80h-84l127 133h51l127 -133h-84z" />
    <glyph glyph-name="Kcommaaccent" unicode="&#x136;" horiz-adv-x="618" 
d="M105 0v714h82v-391l306 391h98l-232 -288l256 -426h-95l-214 368l-119 -148v-220h-82zM249 -222l52 153h83l-79 -153h-56z" />
    <glyph glyph-name="Lcommaaccent" unicode="&#x13b;" horiz-adv-x="533" 
d="M104 0v714h83v-644h336v-70h-419zM221 -222l52 153h83l-79 -153h-56z" />
    <glyph glyph-name="Ncommaaccent" unicode="&#x145;" horiz-adv-x="721" 
d="M104 0v714h80l352 -572v572h81v-714h-80l-352 572v-572h-81zM287 -222l52 153h83l-79 -153h-56z" />
    <glyph glyph-name="Omacron" unicode="&#x14c;" horiz-adv-x="676" 
d="M87 269v176c0 100 17 157 59 204c46 51 105 74 192 74c93 0 157 -27 203 -86c34 -45 48 -99 48 -192v-176c0 -101 -16 -157 -59 -204c-46 -51 -105 -74 -192 -74c-93 0 -157 27 -202 86c-35 45 -49 100 -49 192zM506 277v160c0 79 -10 122 -39 159c-29 39 -69 57 -129 57
c-64 0 -107 -21 -136 -66c-23 -37 -32 -77 -32 -150v-160c0 -79 10 -122 39 -159c29 -39 69 -57 129 -57c64 0 107 21 136 66c23 37 32 77 32 150zM210 827v58h257v-58h-257z" />
    <glyph glyph-name="Rcommaaccent" unicode="&#x156;" horiz-adv-x="646" 
d="M188 308v-308h-83v714h245c85 0 133 -15 170 -52c35 -36 51 -82 51 -147c0 -117 -47 -179 -147 -198l157 -317h-92l-147 308h-154zM187 377h164c93 0 137 43 137 134c0 92 -46 134 -146 134h-155v-268zM245 -222l52 153h83l-79 -153h-56z" />
    <glyph glyph-name="Scircumflex" unicode="&#x15c;" horiz-adv-x="579" 
d="M45 96l65 42c30 -50 92 -77 176 -77c104 0 164 47 164 128c0 39 -16 73 -43 92s-27 19 -132 45c-147 37 -204 94 -204 203c0 122 82 194 219 194c96 0 168 -32 206 -90l-63 -41c-29 40 -80 62 -146 62c-84 0 -135 -45 -135 -120c0 -73 42 -109 164 -140
c96 -23 113 -30 148 -54c44 -30 67 -80 67 -147c0 -130 -87 -202 -245 -202c-116 0 -197 35 -241 105zM293 874l-68 -80h-84l127 133h51l127 -133h-84z" />
    <glyph glyph-name="Gcommaaccent" unicode="&#x122;" horiz-adv-x="663" 
d="M356 308v67h231v-112c0 -96 -15 -149 -53 -195c-44 -52 -108 -77 -196 -77c-98 0 -163 29 -207 90c-32 46 -44 101 -44 202v146c0 110 15 169 55 216c43 52 104 77 190 77c142 0 225 -65 232 -180l-77 -6c-10 74 -65 116 -153 116c-117 0 -164 -65 -164 -227v-138
c0 -162 48 -226 167 -226c61 0 107 20 135 59c24 32 33 66 33 126v62h-149zM255 -222l52 153h83l-79 -153h-56z" />
    <glyph glyph-name="uni01D3" unicode="&#x1d3;" horiz-adv-x="690" 
d="M101 714h83v-452c0 -72 7 -107 26 -138c29 -44 68 -63 135 -63c71 0 114 22 141 73c14 28 20 63 20 128v452h83v-452c0 -101 -10 -146 -43 -188c-44 -58 -106 -83 -201 -83c-101 0 -168 30 -210 95c-26 40 -34 83 -34 176v452zM345 845l68 81h84l-127 -134h-51l-127 134
h84z" />
    <glyph glyph-name="Umacron" unicode="&#x16a;" horiz-adv-x="690" 
d="M101 714h83v-452c0 -72 7 -107 26 -138c29 -44 68 -63 135 -63c71 0 114 22 141 73c14 28 20 63 20 128v452h83v-452c0 -101 -10 -146 -43 -188c-44 -58 -106 -83 -201 -83c-101 0 -168 30 -210 95c-26 40 -34 83 -34 176v452zM216 827v58h257v-58h-257z" />
    <glyph glyph-name="Uogonek" unicode="&#x172;" horiz-adv-x="690" 
d="M102 714h83v-452c0 -72 7 -107 26 -138c29 -44 68 -63 135 -63c71 0 114 22 141 73c14 28 20 63 20 128v452h83v-452c5 -143 -38 -221 -142 -258c-61 -42 -83 -70 -83 -108c0 -29 15 -42 50 -42c21 0 36 3 59 10l8 -46c-34 -11 -50 -14 -80 -14c-74 0 -110 26 -110 81
c0 41 20 74 64 107c-95 0 -145 16 -190 59c-50 50 -65 97 -64 211v452z" />
    <glyph glyph-name="uni0226" unicode="&#x226;" horiz-adv-x="600" 
d="M457 156h-313l-54 -156h-90l261 714h79l261 -714h-90zM436 225l-135 383l-135 -383h270zM261 797v104h78v-104h-78z" />
    <glyph glyph-name="Ebreve" unicode="&#x114;" horiz-adv-x="579" 
d="M104 0v714h417v-70h-335v-248h286v-70h-286v-256h336v-70h-418zM173 923h54c7 -57 29 -77 85 -77c57 0 79 20 85 77h55c-3 -47 -7 -65 -18 -85c-21 -37 -58 -53 -122 -53c-68 0 -106 19 -126 61c-8 18 -11 35 -13 77z" />
    <glyph glyph-name="uni1E1E" unicode="&#x1e1e;" horiz-adv-x="546" 
d="M104 0v714h414v-70h-331v-253h281v-70h-281v-321h-83zM278 797v104h78v-104h-78z" />
    <glyph glyph-name="uni01F4" unicode="&#x1f4;" horiz-adv-x="663" 
d="M356 308v67h231v-112c0 -96 -15 -149 -53 -195c-44 -52 -108 -77 -196 -77c-98 0 -163 29 -207 90c-32 46 -44 101 -44 202v146c0 110 15 169 55 216c43 52 104 77 190 77c142 0 225 -65 232 -180l-77 -6c-10 74 -65 116 -153 116c-117 0 -164 -65 -164 -227v-138
c0 -162 48 -226 167 -226c61 0 107 20 135 59c24 32 33 66 33 126v62h-149zM286 789l75 142h97l-112 -142h-60z" />
    <glyph glyph-name="Ibreve" unicode="&#x12c;" horiz-adv-x="291" 
d="M104 0v714h83v-714h-83zM6 923h54c7 -57 29 -77 85 -77c57 0 79 20 85 77h55c-3 -47 -7 -65 -18 -85c-21 -37 -58 -53 -122 -53c-68 0 -106 19 -126 61c-8 18 -11 35 -13 77z" />
    <glyph glyph-name="ij" unicode="&#x133;" horiz-adv-x="516" 
d="M88 611v106h79v-106h-79zM88 0v502h79v-502h-79zM349 502h79v-514c3 -167 -45 -219 -203 -218v67c91 -4 127 37 124 143v522zM349 611v106h79v-106h-79z" />
    <glyph glyph-name="uni01CE" unicode="&#x1ce;" horiz-adv-x="525" 
d="M361 295v35c0 41 -5 61 -18 80c-17 23 -50 36 -92 36c-49 0 -91 -18 -120 -51l-55 42c43 50 103 75 182 75c78 0 133 -25 161 -73c16 -29 21 -59 21 -121v-318h-63l-6 36c-32 -33 -70 -45 -146 -45c-129 0 -176 40 -176 149c0 116 48 155 191 155h121zM361 235h-113
c-89 0 -123 -26 -123 -93c0 -64 29 -85 118 -85c55 0 86 10 104 33c11 14 14 29 14 67v78zM265 638l68 80h84l-127 -133h-51l-127 133h84z" />
    <glyph glyph-name="abreve" unicode="&#x103;" horiz-adv-x="525" 
d="M361 295v35c0 41 -5 61 -18 80c-17 23 -50 36 -92 36c-49 0 -91 -18 -120 -51l-55 42c43 50 103 75 182 75c78 0 133 -25 161 -73c16 -29 21 -59 21 -121v-318h-63l-6 36c-32 -33 -70 -45 -146 -45c-129 0 -176 40 -176 149c0 116 48 155 191 155h121zM361 235h-113
c-89 0 -123 -26 -123 -93c0 -64 29 -85 118 -85c55 0 86 10 104 33c11 14 14 29 14 67v78zM125 715h54c7 -57 29 -77 85 -77c57 0 79 20 85 77h55c-3 -47 -7 -65 -18 -85c-21 -37 -58 -53 -122 -53c-68 0 -106 19 -126 62c-8 17 -11 34 -13 76z" />
    <glyph glyph-name="aogonek" unicode="&#x105;" horiz-adv-x="525" 
d="M440 318v-318c-68 -39 -96 -70 -96 -105c0 -28 16 -41 51 -41c20 0 35 3 58 10l8 -46c-29 -10 -50 -14 -80 -14c-72 0 -109 26 -109 79c0 49 35 89 104 120l-5 33c-32 -33 -70 -45 -146 -45c-129 0 -176 40 -176 149c0 116 48 155 191 155h121v35c0 41 -5 61 -18 80
c-17 23 -50 36 -92 36c-49 0 -91 -18 -120 -51l-55 42c43 50 103 75 182 75c78 0 133 -25 161 -73c16 -29 21 -59 21 -121zM361 235h-113c-89 0 -123 -26 -123 -93c0 -64 29 -85 118 -85c55 0 86 10 104 33c11 14 14 29 14 67v78z" />
    <glyph glyph-name="cacute" unicode="&#x107;" horiz-adv-x="475" 
d="M386 106l59 -36c-38 -54 -93 -79 -172 -79c-135 0 -202 77 -202 234v41c0 167 64 246 199 246c78 0 132 -27 166 -82l-61 -35c-29 38 -54 51 -100 51c-85 0 -125 -56 -125 -174v-55c0 -105 44 -160 127 -160c49 0 82 15 109 49zM220 582l75 142h97l-112 -142h-60z" />
    <glyph glyph-name="ccaron" unicode="&#x10d;" horiz-adv-x="475" 
d="M386 106l59 -36c-38 -54 -93 -79 -172 -79c-135 0 -202 77 -202 234v41c0 167 64 246 199 246c78 0 132 -27 166 -82l-61 -35c-29 38 -54 51 -100 51c-85 0 -125 -56 -125 -174v-55c0 -105 44 -160 127 -160c49 0 82 15 109 49zM273 638l68 80h84l-127 -133h-51l-127 133
h84z" />
    <glyph glyph-name="cdotaccent" unicode="&#x10b;" horiz-adv-x="475" 
d="M386 106l59 -36c-38 -54 -93 -79 -172 -79c-135 0 -202 77 -202 234v41c0 167 64 246 199 246c78 0 132 -27 166 -82l-61 -35c-29 38 -54 51 -100 51c-85 0 -125 -56 -125 -174v-55c0 -105 44 -160 127 -160c49 0 82 15 109 49zM229 590v104h78v-104h-78z" />
    <glyph glyph-name="dcaron" unicode="&#x10f;" horiz-adv-x="641" 
d="M414 0l-5 43c-3 -2 -4 -4 -5 -4c-5 -5 -9 -9 -14 -13c-22 -21 -74 -35 -129 -35c-131 0 -190 70 -190 222v76c0 153 59 223 188 223c44 0 82 -9 110 -25c4 -3 14 -10 28 -23v250h79v-714h-62zM150 284v-66c0 -109 39 -161 122 -161s125 51 125 153v82
c0 103 -42 154 -125 154s-122 -52 -122 -162zM556 492l26 230h82l-52 -230h-56z" />
    <glyph glyph-name="ecaron" unicode="&#x11b;" horiz-adv-x="543" 
d="M151 235v-21c0 -102 49 -157 140 -157c53 0 86 14 115 49l59 -38c-40 -54 -94 -77 -182 -77c-144 0 -212 76 -212 237v43c0 166 63 241 204 241s204 -75 204 -241v-36h-328zM151 295h252v8c0 39 -10 76 -27 100c-21 30 -51 43 -98 43c-54 0 -85 -15 -106 -51
c-13 -24 -21 -57 -21 -92v-8zM280 638l68 80h84l-127 -133h-51l-127 133h84z" />
    <glyph glyph-name="edotaccent" unicode="&#x117;" horiz-adv-x="543" 
d="M151 235v-21c0 -102 49 -157 140 -157c53 0 86 14 115 49l59 -38c-40 -54 -94 -77 -182 -77c-144 0 -212 76 -212 237v43c0 166 63 241 204 241s204 -75 204 -241v-36h-328zM151 295h252v8c0 39 -10 76 -27 100c-21 30 -51 43 -98 43c-54 0 -85 -15 -106 -51
c-13 -24 -21 -57 -21 -92v-8zM240 590v104h78v-104h-78z" />
    <glyph glyph-name="eogonek" unicode="&#x119;" horiz-adv-x="543" 
d="M152 235v-21c0 -102 49 -157 140 -157c52 0 87 15 115 49l59 -36c-19 -29 -51 -53 -82 -64l-10 -6c-60 -37 -84 -66 -84 -104c0 -29 15 -42 51 -42c20 0 35 3 58 10l9 -46c-33 -11 -50 -14 -80 -14c-74 0 -110 26 -110 80c0 42 20 74 69 107c-146 -2 -216 77 -215 237v43
c0 164 65 241 204 241c141 0 204 -75 204 -241v-36h-328zM152 295h252v8c0 39 -10 76 -27 99c-21 30 -51 43 -98 43c-54 0 -85 -15 -106 -50c-13 -24 -21 -58 -21 -92v-8z" />
    <glyph glyph-name="gcaron" unicode="&#x1e7;" horiz-adv-x="565" 
d="M397 -8l1 47c-33 -34 -75 -48 -139 -48c-129 0 -188 70 -188 222v76c0 153 59 223 190 223c68 0 112 -16 147 -55l6 45h62v-502c0 -157 -71 -234 -214 -234c-83 0 -137 24 -175 79l59 36c29 -36 61 -51 113 -51c93 0 135 50 138 162zM150 284v-66
c0 -109 39 -161 122 -161s125 51 125 153v82c0 102 -42 154 -125 154s-122 -52 -122 -162zM294 638l68 80h84l-127 -133h-51l-127 133h84z" />
    <glyph glyph-name="gbreve" unicode="&#x11f;" horiz-adv-x="565" 
d="M397 -8l1 47c-33 -34 -75 -48 -139 -48c-129 0 -188 70 -188 222v76c0 153 59 223 190 223c68 0 112 -16 147 -55l6 45h62v-502c0 -157 -71 -234 -214 -234c-83 0 -137 24 -175 79l59 36c29 -36 61 -51 113 -51c93 0 135 50 138 162zM150 284v-66
c0 -109 39 -161 122 -161s125 51 125 153v82c0 102 -42 154 -125 154s-122 -52 -122 -162zM155 715h54c7 -57 29 -77 85 -77c57 0 79 20 85 77h55c-3 -47 -7 -65 -18 -85c-21 -37 -58 -53 -122 -53c-68 0 -106 19 -126 62c-8 17 -11 34 -13 76z" />
    <glyph glyph-name="gdotaccent" unicode="&#x121;" horiz-adv-x="565" 
d="M397 -8l1 47c-33 -34 -75 -48 -139 -48c-129 0 -188 70 -188 222v76c0 153 59 223 190 223c68 0 112 -16 147 -55l6 45h62v-502c0 -157 -71 -234 -214 -234c-83 0 -137 24 -175 79l59 36c29 -36 61 -51 113 -51c93 0 135 50 138 162zM150 284v-66
c0 -109 39 -161 122 -161s125 51 125 153v82c0 102 -42 154 -125 154s-122 -52 -122 -162zM257 590v104h78v-104h-78z" />
    <glyph glyph-name="lacute" unicode="&#x13a;" horiz-adv-x="292" 
d="M87 714h79v-554c0 -72 20 -94 85 -93h26v-67h-29c-127 0 -161 35 -161 167v547zM96 789l75 142h97l-112 -142h-60z" />
    <glyph glyph-name="lcaron" unicode="&#x13e;" horiz-adv-x="344" 
d="M87 714h79v-554c0 -72 20 -94 85 -93h26v-67h-29c-127 0 -161 35 -161 167v547zM253 492l26 230h82l-52 -230h-56z" />
    <glyph glyph-name="nacute" unicode="&#x144;" horiz-adv-x="565" 
d="M88 0v502h61l6 -56c30 46 73 66 142 66c89 0 146 -32 169 -97c10 -29 15 -68 15 -127v-288h-79v281c0 117 -33 163 -114 163c-87 0 -121 -53 -121 -189v-255h-79zM238 582l75 142h97l-112 -142h-60z" />
    <glyph glyph-name="ncaron" unicode="&#x148;" horiz-adv-x="565" 
d="M88 0v502h61l6 -56c30 46 73 66 142 66c89 0 146 -32 169 -97c10 -29 15 -68 15 -127v-288h-79v281c0 117 -33 163 -114 163c-87 0 -121 -53 -121 -189v-255h-79zM279 638l68 80h84l-127 -133h-51l-127 133h84z" />
    <glyph glyph-name="ohungarumlaut" unicode="&#x151;" horiz-adv-x="557" 
d="M71 212v78c0 151 65 222 206 222c144 0 209 -69 209 -222v-78c0 -152 -65 -221 -209 -221c-141 0 -206 70 -206 221zM407 217v68c0 110 -41 161 -129 161c-87 0 -128 -51 -128 -161v-68c0 -109 41 -160 128 -160c88 0 129 51 129 160zM175 582l60 142h90l-93 -142h-57z
M310 582l60 142h89l-92 -142h-57z" />
    <glyph glyph-name="racute" unicode="&#x155;" horiz-adv-x="375" 
d="M88 0v502h62l8 -47c28 40 64 57 120 57c35 0 63 -7 97 -26l-33 -68c-27 18 -46 24 -71 24c-73 0 -104 -59 -104 -197v-245h-79zM169 582l75 142h97l-112 -142h-60z" />
    <glyph glyph-name="sacute" unicode="&#x15b;" horiz-adv-x="473" 
d="M29 69l58 37c35 -36 69 -49 135 -49c85 0 127 28 127 84c0 29 -12 51 -34 62c-20 10 -33 13 -93 21c-69 10 -101 20 -125 41c-27 23 -40 55 -40 98c0 96 60 149 166 149c85 0 143 -25 182 -80l-60 -37c-31 37 -62 51 -116 51c-62 0 -96 -28 -96 -79c0 -25 11 -46 31 -58
c17 -9 34 -13 79 -19c77 -11 110 -20 137 -40c29 -21 45 -61 45 -111c0 -99 -66 -148 -200 -148c-94 0 -161 27 -196 78zM187 582l75 142h97l-112 -142h-60z" />
    <glyph glyph-name="scircumflex" unicode="&#x15d;" horiz-adv-x="473" 
d="M29 69l58 37c35 -36 69 -49 135 -49c85 0 127 28 127 84c0 29 -12 51 -34 62c-20 10 -33 13 -93 21c-69 10 -101 20 -125 41c-27 23 -40 55 -40 98c0 96 60 149 166 149c85 0 143 -25 182 -80l-60 -37c-31 37 -62 51 -116 51c-62 0 -96 -28 -96 -79c0 -25 11 -46 31 -58
c17 -9 34 -13 79 -19c77 -11 110 -20 137 -40c29 -21 45 -61 45 -111c0 -99 -66 -148 -200 -148c-94 0 -161 27 -196 78zM232 667l-68 -81h-84l127 134h51l127 -134h-84z" />
    <glyph glyph-name="scommaaccent" unicode="&#x219;" horiz-adv-x="473" 
d="M29 69l58 37c35 -36 69 -49 135 -49c85 0 127 28 127 84c0 29 -12 51 -34 62c-20 10 -33 13 -93 21c-69 10 -101 20 -125 41c-27 23 -40 55 -40 98c0 96 60 149 166 149c85 0 143 -25 182 -80l-60 -37c-31 37 -62 51 -116 51c-62 0 -96 -28 -96 -79c0 -25 11 -46 31 -58
c17 -9 34 -13 79 -19c77 -11 110 -20 137 -40c29 -21 45 -61 45 -111c0 -99 -66 -148 -200 -148c-94 0 -161 27 -196 78zM145 -222l52 153h83l-79 -153h-56z" />
    <glyph glyph-name="tcaron" unicode="&#x165;" horiz-adv-x="377" 
d="M105 436h-61v66h61l4 161h75v-161h99v-66h-99v-277c0 -71 20 -93 85 -92h17v-67h-18c-131 0 -163 32 -163 167v269zM295 555l24 207h82l-50 -207h-56z" />
    <glyph glyph-name="uring" unicode="&#x16f;" horiz-adv-x="555" 
d="M84 502h79v-280c0 -49 4 -77 13 -101c16 -41 49 -62 96 -62c83 0 116 53 116 188v255h79v-502h-61l-6 56c-29 -45 -71 -65 -138 -65c-86 0 -141 33 -163 97c-10 28 -15 69 -15 126v288zM278 777c63 0 104 -41 104 -101c0 -62 -42 -103 -105 -103s-105 41 -105 103
s41 101 106 101zM278 735c-33 0 -51 -21 -51 -60c0 -38 18 -60 50 -60s50 22 50 60s-18 60 -49 60z" />
    <glyph glyph-name="uhungarumlaut" unicode="&#x171;" horiz-adv-x="555" 
d="M84 502h79v-280c0 -49 4 -77 13 -101c16 -41 49 -62 96 -62c83 0 116 53 116 188v255h79v-502h-61l-6 56c-29 -45 -71 -65 -138 -65c-86 0 -141 33 -163 97c-10 28 -15 69 -15 126v288zM174 582l60 142h90l-93 -142h-57zM309 582l60 142h89l-92 -142h-57z" />
    <glyph glyph-name="zacute" unicode="&#x17a;" horiz-adv-x="475" 
d="M45 0v51l255 385h-235v66h334v-51l-255 -385h271v-66h-370zM200 582l75 142h97l-112 -142h-60z" />
    <glyph glyph-name="zdotaccent" unicode="&#x17c;" horiz-adv-x="475" 
d="M45 0v51l255 385h-235v66h334v-51l-255 -385h271v-66h-370zM201 590v104h78v-104h-78z" />
    <glyph glyph-name="hbar" unicode="&#x127;" horiz-adv-x="565" 
d="M88 572h-81v56h81v86h79v-86h152v-56h-152v-110c31 35 71 50 132 50c88 0 145 -33 168 -97c10 -29 15 -68 15 -127v-288h-79v281c0 47 -4 77 -14 101c-16 41 -51 62 -101 62c-86 0 -121 -53 -121 -185v-259h-79v572z" />
    <glyph glyph-name="tcommaaccent" unicode="&#x163;" horiz-adv-x="334" 
d="M105 436h-61v66h61l4 161h75v-161h99v-66h-99v-277c0 -71 20 -93 85 -92h17v-67h-18c-131 0 -163 32 -163 167v269zM103 -222l52 153h83l-79 -153h-56z" />
    <glyph glyph-name="uni021B" unicode="&#x21b;" horiz-adv-x="334" 
d="M105 436h-61v66h61l4 161h75v-161h99v-66h-99v-277c0 -71 20 -93 85 -92h17v-67h-18c-131 0 -163 32 -163 167v269zM103 -222l52 153h83l-79 -153h-56z" />
    <glyph glyph-name="wcircumflex" unicode="&#x175;" horiz-adv-x="771" 
d="M193 0l-155 502h81l110 -394l129 394h55l129 -394l111 394h81l-155 -502h-65l-128 378l-129 -378h-64zM385 667l-68 -81h-84l127 134h51l127 -134h-84z" />
    <glyph glyph-name="wdieresis" unicode="&#x1e85;" horiz-adv-x="771" 
d="M193 0l-155 502h81l110 -394l129 394h55l129 -394l111 394h81l-155 -502h-65l-128 378l-129 -378h-64zM253 590v104h72v-104h-72zM446 590v104h72v-104h-72z" />
    <glyph glyph-name="amacron" unicode="&#x101;" horiz-adv-x="525" 
d="M361 295v35c0 41 -5 61 -18 80c-17 23 -50 36 -92 36c-49 0 -91 -18 -120 -51l-55 42c43 50 103 75 182 75c78 0 133 -25 161 -73c16 -29 21 -59 21 -121v-318h-63l-6 36c-32 -33 -70 -45 -146 -45c-129 0 -176 40 -176 149c0 116 48 155 191 155h121zM361 235h-113
c-89 0 -123 -26 -123 -93c0 -64 29 -85 118 -85c55 0 86 10 104 33c11 14 14 29 14 67v78zM134 619v58h257v-58h-257z" />
    <glyph glyph-name="ycircumflex" unicode="&#x177;" horiz-adv-x="488" 
d="M207 1l-185 501h80l147 -412l131 412h80l-197 -583c-46 -127 -73 -148 -203 -149v67c75 0 93 13 122 90zM243 667l-68 -81h-84l127 134h51l127 -134h-84z" />
    <glyph glyph-name="ccircumflex" unicode="&#x109;" horiz-adv-x="475" 
d="M386 106l59 -36c-38 -54 -93 -79 -172 -79c-135 0 -202 77 -202 234v41c0 167 64 246 199 246c78 0 132 -27 166 -82l-61 -35c-29 38 -54 51 -100 51c-85 0 -125 -56 -125 -174v-55c0 -105 44 -160 127 -160c49 0 82 15 109 49zM266 667l-68 -81h-84l127 134h51l127 -134
h-84z" />
    <glyph glyph-name="emacron" unicode="&#x113;" horiz-adv-x="543" 
d="M151 235v-21c0 -102 49 -157 140 -157c53 0 86 14 115 49l59 -38c-40 -54 -94 -77 -182 -77c-144 0 -212 76 -212 237v43c0 166 63 241 204 241s204 -75 204 -241v-36h-328zM151 295h252v8c0 39 -10 76 -27 100c-21 30 -51 43 -98 43c-54 0 -85 -15 -106 -51
c-13 -24 -21 -57 -21 -92v-8zM150 619v58h257v-58h-257z" />
    <glyph glyph-name="gcircumflex" unicode="&#x11d;" horiz-adv-x="565" 
d="M397 -8l1 47c-33 -34 -75 -48 -139 -48c-129 0 -188 70 -188 222v76c0 153 59 223 190 223c68 0 112 -16 147 -55l6 45h62v-502c0 -157 -71 -234 -214 -234c-83 0 -137 24 -175 79l59 36c29 -36 61 -51 113 -51c93 0 135 50 138 162zM150 284v-66
c0 -109 39 -161 122 -161s125 51 125 153v82c0 102 -42 154 -125 154s-122 -52 -122 -162zM286 667l-68 -81h-84l127 134h51l127 -134h-84z" />
    <glyph glyph-name="ibreve" unicode="&#x12d;" horiz-adv-x="255" 
d="M88 0v502h79v-502h-79zM-12 715h54c7 -57 29 -77 85 -77c57 0 79 20 85 77h55c-3 -47 -7 -65 -18 -85c-21 -37 -58 -53 -122 -53c-68 0 -106 19 -126 62c-8 17 -11 34 -13 76z" />
    <glyph glyph-name="imacron" unicode="&#x12b;" horiz-adv-x="255" 
d="M88 0v502h79v-502h-79zM-1 619v58h257v-58h-257z" />
    <glyph glyph-name="jcircumflex" unicode="&#x135;" horiz-adv-x="261" 
d="M90 502h79v-514c3 -167 -45 -219 -203 -218v67c91 -4 127 37 124 143v522zM127 667l-68 -81h-84l127 134h51l127 -134h-84z" />
    <glyph glyph-name="kcommaaccent" unicode="&#x137;" horiz-adv-x="511" 
d="M88 0v714h79v-497l223 285h91l-171 -213l190 -289h-88l-150 230l-95 -118v-112h-79zM190 -222l52 153h83l-79 -153h-56z" />
    <glyph glyph-name="lcommaaccent" unicode="&#x13c;" horiz-adv-x="292" 
d="M85 714h79v-554c-1 -71 20 -94 85 -93h26v-67h-29c-127 0 -161 35 -161 167v547zM79 -222l52 153h83l-79 -153h-56z" />
    <glyph glyph-name="ncommaaccent" unicode="&#x146;" horiz-adv-x="565" 
d="M88 0v502h61l6 -56c30 46 73 66 142 66c89 0 146 -32 169 -97c10 -29 15 -68 15 -127v-288h-79v281c0 117 -33 163 -114 163c-87 0 -121 -53 -121 -189v-255h-79zM205 -222l52 153h83l-79 -153h-56z" />
    <glyph glyph-name="omacron" unicode="&#x14d;" horiz-adv-x="557" 
d="M71 212v78c0 151 65 222 206 222c144 0 209 -69 209 -222v-78c0 -152 -65 -221 -209 -221c-141 0 -206 70 -206 221zM407 217v68c0 110 -41 161 -129 161c-87 0 -128 -51 -128 -161v-68c0 -109 41 -160 128 -160c88 0 129 51 129 160zM150 619v58h257v-58h-257z" />
    <glyph glyph-name="rcommaaccent" unicode="&#x157;" horiz-adv-x="375" 
d="M88 0v502h62l8 -47c28 40 64 57 120 57c35 0 63 -7 97 -26l-33 -68c-27 18 -46 24 -71 24c-73 0 -104 -59 -104 -197v-245h-79zM36 -222l52 153h83l-79 -153h-56z" />
    <glyph glyph-name="ubreve" unicode="&#x16d;" horiz-adv-x="555" 
d="M84 502h79v-280c0 -49 4 -77 13 -101c16 -41 49 -62 96 -62c83 0 116 53 116 188v255h79v-502h-61l-6 56c-29 -45 -71 -65 -138 -65c-86 0 -141 33 -163 97c-10 28 -15 69 -15 126v288zM138 715h54c7 -57 29 -77 85 -77c57 0 79 20 85 77h55c-3 -47 -7 -65 -18 -85
c-21 -37 -58 -53 -122 -53c-68 0 -106 19 -126 62c-8 17 -11 34 -13 76z" />
    <glyph glyph-name="umacron" unicode="&#x16b;" horiz-adv-x="555" 
d="M84 502h79v-280c0 -49 4 -77 13 -101c16 -41 49 -62 96 -62c83 0 116 53 116 188v255h79v-502h-61l-6 56c-29 -45 -71 -65 -138 -65c-86 0 -141 33 -163 97c-10 28 -15 69 -15 126v288zM149 619v58h257v-58h-257z" />
    <glyph glyph-name="uogonek" unicode="&#x173;" horiz-adv-x="555" 
d="M467 502v-502c-69 -40 -96 -70 -96 -105c0 -28 16 -41 51 -41c20 0 35 3 58 10l8 -46c-28 -10 -50 -14 -80 -14c-73 0 -110 27 -110 79c0 49 37 90 107 121l-5 52c-29 -45 -71 -65 -138 -65c-86 0 -141 33 -163 97c-10 28 -15 69 -15 126v288h79v-280
c0 -49 4 -77 13 -101c16 -41 49 -62 96 -62c83 0 116 53 116 188v255h79z" />
    <glyph glyph-name="rcaron" unicode="&#x159;" horiz-adv-x="375" 
d="M89 0v502h62l8 -47c28 40 64 57 120 57c35 0 63 -7 97 -26l-33 -68c-27 18 -46 24 -71 24c-73 0 -104 -59 -104 -197v-245h-79zM219 638l68 80h84l-127 -133h-51l-127 133h84z" />
    <glyph glyph-name="scedilla" unicode="&#x15f;" horiz-adv-x="473" 
d="M29 69l58 37c35 -36 69 -49 135 -49c85 0 127 28 127 84c0 29 -12 51 -34 62c-20 10 -33 13 -93 21c-69 10 -101 20 -125 41c-27 23 -40 55 -40 98c0 96 60 149 166 149c85 0 143 -25 182 -80l-60 -37c-31 37 -62 51 -116 51c-62 0 -96 -28 -96 -79c0 -25 11 -46 31 -58
c17 -9 34 -13 79 -19c77 -11 110 -20 137 -40c29 -21 45 -61 45 -111c0 -99 -66 -148 -200 -148c-94 0 -161 27 -196 78zM150 -222l52 153h83l-79 -153h-56z" />
    <glyph glyph-name="gcommaaccent" unicode="&#x123;" horiz-adv-x="565" 
d="M397 -8l1 47c-33 -34 -75 -48 -139 -48c-129 0 -188 70 -188 222v76c0 153 59 223 190 223c68 0 112 -16 147 -55l6 45h62v-502c0 -157 -71 -234 -214 -234c-83 0 -137 24 -175 79l59 36c29 -36 61 -51 113 -51c93 0 135 50 138 162zM150 284v-66
c0 -109 39 -161 122 -161s125 51 125 153v82c0 102 -42 154 -125 154s-122 -52 -122 -162zM236 582l111 142h61l-75 -142h-97z" />
    <glyph glyph-name="ahungarumlaut" horiz-adv-x="525" 
d="M361 295v35c0 41 -5 61 -18 80c-17 23 -50 36 -92 36c-49 0 -91 -18 -120 -51l-55 42c43 50 103 75 182 75c78 0 133 -25 161 -73c16 -29 21 -59 21 -121v-318h-63l-6 36c-32 -33 -70 -45 -146 -45c-129 0 -176 40 -176 149c0 116 48 155 191 155h121zM361 235h-113
c-89 0 -123 -26 -123 -93c0 -64 29 -85 118 -85c55 0 86 10 104 33c11 14 14 29 14 67v78zM160 582l60 142h90l-93 -142h-57zM295 582l60 142h89l-92 -142h-57z" />
    <glyph glyph-name="uni0227" unicode="&#x227;" horiz-adv-x="525" 
d="M361 295v35c0 41 -5 61 -18 80c-17 23 -50 36 -92 36c-49 0 -91 -18 -120 -51l-55 42c43 50 103 75 182 75c78 0 133 -25 161 -73c16 -29 21 -59 21 -121v-318h-63l-6 36c-32 -33 -70 -45 -146 -45c-129 0 -176 40 -176 149c0 116 48 155 191 155h121zM361 235h-113
c-89 0 -123 -26 -123 -93c0 -64 29 -85 118 -85c55 0 86 10 104 33c11 14 14 29 14 67v78zM231 590v104h78v-104h-78z" />
    <glyph glyph-name="uni1E1F" unicode="&#x1e1f;" horiz-adv-x="332" 
d="M110 436h-62v66h62v81c0 102 34 133 141 131h46v-65h-29c-63 2 -79 -13 -79 -76v-71h114v-66h-114v-436h-79v436zM167 797v104h78v-104h-78z" />
    <glyph glyph-name="uni0204" unicode="&#x204;" horiz-adv-x="579" 
d="M104 0v714h417v-70h-335v-248h286v-70h-286v-256h336v-70h-418zM418 789h-57l-92 142h89zM284 789h-57l-93 142h90z" />
    <glyph glyph-name="uni0205" unicode="&#x205;" horiz-adv-x="543" 
d="M151 235v-21c0 -102 49 -157 140 -157c53 0 86 14 115 49l59 -38c-40 -54 -94 -77 -182 -77c-144 0 -212 76 -212 237v43c0 166 63 241 204 241s204 -75 204 -241v-36h-328zM151 295h252v8c0 39 -10 76 -27 100c-21 30 -51 43 -98 43c-54 0 -85 -15 -106 -51
c-13 -24 -21 -57 -21 -92v-8zM384 582h-57l-92 142h89zM250 582h-57l-93 142h90z" />
    <glyph glyph-name="uni0206" unicode="&#x206;" horiz-adv-x="579" 
d="M104 0v714h417v-70h-335v-248h286v-70h-286v-256h336v-70h-418zM459 793h-55c-6 57 -28 77 -84 77c-57 0 -80 -20 -86 -77h-54c3 47 6 65 18 85c21 37 58 53 121 53c68 0 107 -19 126 -61c8 -18 11 -35 14 -77z" />
    <glyph glyph-name="uni0207" unicode="&#x207;" horiz-adv-x="543" 
d="M151 235v-21c0 -102 49 -157 140 -157c53 0 86 14 115 49l59 -38c-40 -54 -94 -77 -182 -77c-144 0 -212 76 -212 237v43c0 166 63 241 204 241s204 -75 204 -241v-36h-328zM151 295h252v8c0 39 -10 76 -27 100c-21 30 -51 43 -98 43c-54 0 -85 -15 -106 -51
c-13 -24 -21 -57 -21 -92v-8zM411 586h-55c-7 57 -28 77 -84 77c-57 0 -80 -20 -86 -77h-54c3 47 6 65 18 85c21 37 58 53 121 53c68 0 107 -19 126 -61c8 -18 11 -35 14 -77z" />
    <glyph glyph-name="uni0208" unicode="&#x208;" horiz-adv-x="291" 
d="M104 0v714h83v-714h-83zM248 789h-57l-92 142h89zM114 789h-57l-93 142h90z" />
    <glyph glyph-name="uni0209" unicode="&#x209;" horiz-adv-x="255" 
d="M88 0v502h79v-502h-79zM230 582h-57l-92 142h89zM96 582h-57l-93 142h90z" />
    <glyph glyph-name="uni020A" unicode="&#x20a;" horiz-adv-x="291" 
d="M104 0v714h83v-714h-83zM285 793h-55c-6 57 -28 77 -84 77c-57 0 -80 -20 -86 -77h-54c3 47 6 65 18 85c21 37 58 53 121 53c68 0 107 -19 126 -61c8 -18 11 -35 14 -77z" />
    <glyph glyph-name="uni020B" unicode="&#x20b;" horiz-adv-x="255" 
d="M87 0v502h79v-502h-79zM267 586h-55c-7 57 -28 77 -84 77c-57 0 -80 -20 -86 -77h-54c3 47 6 65 18 85c21 37 58 53 121 53c68 0 107 -19 126 -61c8 -18 11 -35 14 -77z" />
    <glyph glyph-name="uni020C" unicode="&#x20c;" horiz-adv-x="676" 
d="M87 269v176c0 100 17 157 59 204c46 51 105 74 192 74c93 0 157 -27 203 -86c34 -45 48 -99 48 -192v-176c0 -101 -16 -157 -59 -204c-46 -51 -105 -74 -192 -74c-93 0 -157 27 -202 86c-35 45 -49 100 -49 192zM506 277v160c0 79 -10 122 -39 159c-29 39 -69 57 -129 57
c-64 0 -107 -21 -136 -66c-23 -37 -32 -77 -32 -150v-160c0 -79 10 -122 39 -159c29 -39 69 -57 129 -57c64 0 107 21 136 66c23 37 32 77 32 150zM440 789h-57l-92 142h89zM306 789h-57l-93 142h90z" />
    <glyph glyph-name="uni020D" unicode="&#x20d;" horiz-adv-x="557" 
d="M71 212v78c0 151 65 222 206 222c144 0 209 -69 209 -222v-78c0 -152 -65 -221 -209 -221c-141 0 -206 70 -206 221zM407 217v68c0 110 -41 161 -129 161c-87 0 -128 -51 -128 -161v-68c0 -109 41 -160 128 -160c88 0 129 51 129 160zM381 582h-57l-92 142h89zM247 582
h-57l-93 142h90z" />
    <glyph glyph-name="uni020E" unicode="&#x20e;" horiz-adv-x="676" 
d="M87 269v176c0 100 17 157 59 204c46 51 105 74 192 74c93 0 157 -27 203 -86c34 -45 48 -99 48 -192v-176c0 -101 -16 -157 -59 -204c-46 -51 -105 -74 -192 -74c-93 0 -157 27 -202 86c-35 45 -49 100 -49 192zM506 277v160c0 79 -10 122 -39 159c-29 39 -69 57 -129 57
c-64 0 -107 -21 -136 -66c-23 -37 -32 -77 -32 -150v-160c0 -79 10 -122 39 -159c29 -39 69 -57 129 -57c64 0 107 21 136 66c23 37 32 77 32 150zM478 793h-55c-6 57 -28 77 -84 77c-57 0 -80 -20 -86 -77h-54c3 47 6 65 18 85c21 37 58 53 121 53c68 0 107 -19 126 -61
c8 -18 11 -35 14 -77z" />
    <glyph glyph-name="uni020F" unicode="&#x20f;" horiz-adv-x="557" 
d="M71 212v78c0 151 65 222 206 222c144 0 209 -69 209 -222v-78c0 -152 -65 -221 -209 -221c-141 0 -206 70 -206 221zM407 217v68c0 110 -41 161 -129 161c-87 0 -128 -51 -128 -161v-68c0 -109 41 -160 128 -160c88 0 129 51 129 160zM418 586h-55c-7 57 -28 77 -84 77
c-57 0 -80 -20 -86 -77h-54c3 47 6 65 18 85c21 37 58 53 121 53c68 0 107 -19 126 -61c8 -18 11 -35 14 -77z" />
    <glyph glyph-name="uni0210" unicode="&#x210;" horiz-adv-x="646" 
d="M188 308v-308h-83v714h245c85 0 133 -15 170 -52c35 -36 51 -82 51 -147c0 -117 -47 -179 -147 -198l157 -317h-92l-147 308h-154zM187 377h164c93 0 137 43 137 134c0 92 -46 134 -146 134h-155v-268zM402 789h-57l-92 142h89zM268 789h-57l-93 142h90z" />
    <glyph glyph-name="uni0211" unicode="&#x211;" horiz-adv-x="375" 
d="M88 0v502h62l8 -47c28 40 64 57 120 57c35 0 63 -7 97 -26l-33 -68c-27 18 -46 24 -71 24c-73 0 -104 -59 -104 -197v-245h-79zM323 582h-57l-92 142h89zM189 582h-57l-93 142h90z" />
    <glyph glyph-name="uni0212" unicode="&#x212;" horiz-adv-x="646" 
d="M188 308v-308h-83v714h245c85 0 133 -15 170 -52c35 -36 51 -82 51 -147c0 -117 -47 -179 -147 -198l157 -317h-92l-147 308h-154zM187 377h164c93 0 137 43 137 134c0 92 -46 134 -146 134h-155v-268zM436 793h-55c-6 57 -28 77 -84 77c-57 0 -80 -20 -86 -77h-54
c3 47 6 65 18 85c21 37 58 53 121 53c68 0 107 -19 126 -61c8 -18 11 -35 14 -77z" />
    <glyph glyph-name="uni0213" unicode="&#x213;" horiz-adv-x="375" 
d="M88 0v502h62l8 -47c28 40 64 57 120 57c35 0 63 -7 97 -26l-33 -68c-27 18 -46 24 -71 24c-73 0 -104 -59 -104 -197v-245h-79zM347 586h-55c-7 57 -28 77 -84 77c-57 0 -80 -20 -86 -77h-54c3 47 6 65 18 85c21 37 58 53 121 53c68 0 107 -19 126 -61
c8 -18 11 -35 14 -77z" />
    <glyph glyph-name="uni0214" unicode="&#x214;" horiz-adv-x="690" 
d="M101 714h83v-452c0 -72 7 -107 26 -138c29 -44 68 -63 135 -63c71 0 114 22 141 73c14 28 20 63 20 128v452h83v-452c0 -101 -10 -146 -43 -188c-44 -58 -106 -83 -201 -83c-101 0 -168 30 -210 95c-26 40 -34 83 -34 176v452zM447 789h-57l-92 142h89zM313 789h-57
l-93 142h90z" />
    <glyph glyph-name="uni0215" unicode="&#x215;" horiz-adv-x="555" 
d="M84 502h79v-280c0 -49 4 -77 13 -101c16 -41 49 -62 96 -62c83 0 116 53 116 188v255h79v-502h-61l-6 56c-29 -45 -71 -65 -138 -65c-86 0 -141 33 -163 97c-10 28 -15 69 -15 126v288zM380 582h-57l-92 142h89zM246 582h-57l-93 142h90z" />
    <glyph glyph-name="uni0216" unicode="&#x216;" horiz-adv-x="690" 
d="M101 714h83v-452c0 -72 7 -107 26 -138c29 -44 68 -63 135 -63c71 0 114 22 141 73c14 28 20 63 20 128v452h83v-452c0 -101 -10 -146 -43 -188c-44 -58 -106 -83 -201 -83c-101 0 -168 30 -210 95c-26 40 -34 83 -34 176v452zM485 793h-55c-6 57 -28 77 -84 77
c-57 0 -80 -20 -86 -77h-54c3 47 6 65 18 85c21 37 58 53 121 53c68 0 107 -19 126 -61c8 -18 11 -35 14 -77z" />
    <glyph glyph-name="uni0217" unicode="&#x217;" horiz-adv-x="555" 
d="M84 502h79v-280c0 -49 4 -77 13 -101c16 -41 49 -62 96 -62c83 0 116 53 116 188v255h79v-502h-61l-6 56c-29 -45 -71 -65 -138 -65c-86 0 -141 33 -163 97c-10 28 -15 69 -15 126v288zM417 586h-55c-7 57 -28 77 -84 77c-57 0 -80 -20 -86 -77h-54c3 47 6 65 18 85
c21 37 58 53 121 53c68 0 107 -19 126 -61c8 -18 11 -35 14 -77z" />
    <glyph glyph-name="uni1E24" unicode="&#x1e24;" horiz-adv-x="681" 
d="M104 0v714h83v-318h306v318h83v-714h-83v326h-306v-326h-83zM301 -193v104h78v-104h-78z" />
    <glyph glyph-name="uni1E25" unicode="&#x1e25;" horiz-adv-x="565" 
d="M88 0v714h79v-252c31 35 70 50 132 50c87 0 144 -33 167 -97c10 -29 15 -68 15 -127v-288h-79v281c0 117 -33 163 -114 163c-86 0 -121 -54 -121 -185v-259h-79zM243 -193v104h78v-104h-78z" />
    <glyph glyph-name="uni1E5A" unicode="&#x1e5a;" horiz-adv-x="646" 
d="M188 308v-308h-83v714h245c85 0 133 -15 170 -52c35 -36 51 -82 51 -147c0 -117 -47 -179 -147 -198l157 -317h-92l-147 308h-154zM187 377h164c93 0 137 43 137 134c0 92 -46 134 -146 134h-155v-268zM283 -193v104h78v-104h-78z" />
    <glyph glyph-name="uni1E5B" unicode="&#x1e5b;" horiz-adv-x="375" 
d="M88 0v502h62l8 -47c28 40 64 57 120 57c35 0 63 -7 97 -26l-33 -68c-27 18 -46 24 -71 24c-73 0 -104 -59 -104 -197v-245h-79zM88 -193v104h78v-104h-78z" />
    <glyph glyph-name="uni1E62" unicode="&#x1e62;" horiz-adv-x="579" 
d="M45 96l65 42c30 -50 92 -77 176 -77c104 0 164 47 164 128c0 39 -16 73 -43 92s-27 19 -132 45c-147 37 -204 94 -204 203c0 122 82 194 219 194c96 0 168 -32 206 -90l-63 -41c-29 40 -80 62 -146 62c-84 0 -135 -45 -135 -120c0 -73 42 -109 164 -140
c96 -23 113 -30 148 -54c44 -30 67 -80 67 -147c0 -130 -87 -202 -245 -202c-116 0 -197 35 -241 105zM246 -193v104h78v-104h-78z" />
    <glyph glyph-name="uni1E63" unicode="&#x1e63;" horiz-adv-x="473" 
d="M29 69l58 37c35 -36 69 -49 135 -49c85 0 127 28 127 84c0 29 -12 51 -34 62c-20 10 -33 13 -93 21c-69 10 -101 20 -125 41c-27 23 -40 55 -40 98c0 96 60 149 166 149c85 0 143 -25 182 -80l-60 -37c-31 37 -62 51 -116 51c-62 0 -96 -28 -96 -79c0 -25 11 -46 31 -58
c17 -9 34 -13 79 -19c77 -11 110 -20 137 -40c29 -21 45 -61 45 -111c0 -99 -66 -148 -200 -148c-94 0 -161 27 -196 78zM191 -193v104h78v-104h-78z" />
    <glyph glyph-name="uni1E6C" unicode="&#x1e6c;" horiz-adv-x="554" 
d="M237 0v644h-206v70h493v-70h-204v-644h-83zM238 -193v104h78v-104h-78z" />
    <glyph glyph-name="uni1E6D" unicode="&#x1e6d;" horiz-adv-x="334" 
d="M105 436h-61v66h61l4 161h75v-161h99v-66h-99v-277c0 -71 20 -93 85 -92h17v-67h-18c-131 0 -163 32 -163 167v269zM128 -193v104h78v-104h-78z" />
    <glyph glyph-name="uni1E92" unicode="&#x1e92;" horiz-adv-x="543" 
d="M51 0v59l330 585h-312v70h405v-59l-330 -585h346v-70h-439zM242 -193v104h78v-104h-78z" />
    <glyph glyph-name="uni1E93" unicode="&#x1e93;" horiz-adv-x="475" 
d="M45 0v51l255 385h-235v66h334v-51l-255 -385h271v-66h-370zM205 -193v104h78v-104h-78z" />
    <glyph glyph-name="uni1E44" unicode="&#x1e44;" horiz-adv-x="721" 
d="M104 0v714h80l352 -572v572h81v-714h-80l-352 572v-572h-81zM328 797v104h78v-104h-78z" />
    <glyph glyph-name="uni1E45" unicode="&#x1e45;" horiz-adv-x="565" 
d="M88 0v502h61l6 -56c30 46 73 66 142 66c89 0 146 -32 169 -97c10 -29 15 -68 15 -127v-288h-79v281c0 117 -33 163 -114 163c-87 0 -121 -53 -121 -189v-255h-79zM243 590v104h78v-104h-78z" />
    <glyph glyph-name="uni1E0C" unicode="&#x1e0c;" horiz-adv-x="678" 
d="M104 0v714h228c174 3 264 -92 259 -272v-170c5 -180 -85 -274 -259 -272h-228zM187 69h131c131 -3 190 63 190 211v154c0 148 -59 214 -190 211h-131v-576zM273 -193v104h78v-104h-78z" />
    <glyph glyph-name="uni1E0D" unicode="&#x1e0d;" horiz-adv-x="565" 
d="M414 0l-5 43c-3 -2 -4 -4 -5 -4c-5 -5 -9 -9 -14 -13c-22 -21 -74 -35 -129 -35c-131 0 -190 70 -190 222v76c0 153 59 223 188 223c44 0 82 -9 110 -25c4 -3 14 -10 28 -23v250h79v-714h-62zM150 284v-66c0 -109 39 -161 122 -161s125 51 125 153v82
c0 103 -42 154 -125 154s-122 -52 -122 -162zM259 -193v104h78v-104h-78z" />
    <glyph glyph-name="uni1E02" unicode="&#x1e02;" horiz-adv-x="639" 
d="M104 0v714h263c73 0 113 -12 148 -43c35 -33 55 -84 55 -142c0 -73 -27 -123 -84 -156l9 -6c35 -21 45 -29 58 -52c21 -33 31 -74 31 -122c0 -68 -22 -122 -63 -155c-34 -28 -71 -38 -140 -38h-277zM187 401h174c43 0 68 7 90 26c22 20 36 57 36 96c0 43 -16 81 -41 100
c-22 16 -44 22 -85 22h-174v-244zM187 69h189c42 0 67 8 89 28s36 60 36 102c0 46 -16 87 -41 108c-22 18 -44 25 -84 25h-189v-263zM267 797v104h78v-104h-78z" />
    <glyph glyph-name="uni1E03" unicode="&#x1e03;" horiz-adv-x="565" 
d="M89 0v714h79v-250c37 34 76 48 137 48c130 0 189 -70 189 -223v-76c0 -154 -59 -223 -191 -223c-49 0 -90 10 -118 29c-4 2 -14 10 -29 24l-5 -43h-62zM415 218v66c0 110 -40 162 -122 162c-84 0 -125 -51 -125 -154v-82c0 -103 42 -154 125 -154c82 0 122 53 122 162z
M287 590v104h78v-104h-78z" />
    <glyph glyph-name="aringacute" unicode="&#x1fb;" horiz-adv-x="525" 
d="M361 295v35c0 41 -5 61 -18 80c-17 23 -50 36 -92 36c-49 0 -91 -18 -120 -51l-55 42c43 50 103 75 182 75c78 0 133 -25 161 -73c16 -29 21 -59 21 -121v-318h-63l-6 36c-32 -33 -70 -45 -146 -45c-129 0 -176 40 -176 149c0 116 48 155 191 155h121zM361 235h-113
c-89 0 -123 -26 -123 -93c0 -64 29 -85 118 -85c55 0 86 10 104 33c11 14 14 29 14 67v78zM267 757c63 0 104 -41 104 -101c0 -62 -42 -103 -105 -103s-105 41 -105 103s41 101 106 101zM267 715c-33 0 -51 -21 -51 -60c0 -38 18 -60 50 -60s50 22 50 60s-18 60 -49 60z
M229 795l56 118h93l-98 -118h-51z" />
    <glyph glyph-name="hcircumflex" unicode="&#x125;" horiz-adv-x="565" 
d="M88 0v714h79v-252c31 35 70 50 132 50c87 0 144 -33 167 -97c10 -29 15 -68 15 -127v-288h-79v281c0 117 -33 163 -114 163c-86 0 -121 -54 -121 -185v-259h-79zM162 874l-68 -80h-84l127 133h51l127 -133h-84z" />
    <glyph glyph-name="ebreve" unicode="&#x115;" horiz-adv-x="543" 
d="M151 235v-21c0 -102 49 -157 140 -157c53 0 86 14 115 49l59 -38c-40 -54 -94 -77 -182 -77c-144 0 -212 76 -212 237v43c0 166 63 241 204 241s204 -75 204 -241v-36h-328zM151 295h252v8c0 39 -10 76 -27 100c-21 30 -51 43 -98 43c-54 0 -85 -15 -106 -51
c-13 -24 -21 -57 -21 -92v-8zM136 715h54c7 -57 29 -77 85 -77c57 0 79 20 85 77h55c-3 -47 -7 -65 -18 -85c-21 -37 -58 -53 -122 -53c-68 0 -106 19 -126 62c-8 17 -11 34 -13 76z" />
    <glyph glyph-name="uni01F5" unicode="&#x1f5;" horiz-adv-x="565" 
d="M397 -8l1 47c-33 -34 -75 -48 -139 -48c-129 0 -188 70 -188 222v76c0 153 59 223 190 223c68 0 112 -16 147 -55l6 45h62v-502c0 -157 -71 -234 -214 -234c-83 0 -137 24 -175 79l59 36c29 -36 61 -51 113 -51c93 0 135 50 138 162zM150 284v-66
c0 -109 39 -161 122 -161s125 51 125 153v82c0 102 -42 154 -125 154s-122 -52 -122 -162zM236 582l75 142h97l-112 -142h-60z" />
    <glyph glyph-name="iogonek" unicode="&#x12f;" horiz-adv-x="255" 
d="M166 502v-502c-55 -36 -78 -67 -78 -102c0 -31 14 -44 47 -44c19 0 34 3 56 10l8 -46c-28 -10 -48 -14 -78 -14c-70 0 -105 27 -105 81c0 45 26 82 80 115h-9v502h79zM87 611v106h79v-106h-79z" />
    <glyph glyph-name="ldot" unicode="&#x140;" horiz-adv-x="324" 
d="M87 714h79v-554c0 -72 20 -94 85 -93h26v-67h-29c-127 0 -161 35 -161 167v547zM252 314v99h73v-99h-73z" />
    <glyph glyph-name="uni01D2" unicode="&#x1d2;" horiz-adv-x="557" 
d="M71 212v78c0 151 65 222 206 222c144 0 209 -69 209 -222v-78c0 -152 -65 -221 -209 -221c-141 0 -206 70 -206 221zM407 217v68c0 110 -41 161 -129 161c-87 0 -128 -51 -128 -161v-68c0 -109 41 -160 128 -160c88 0 129 51 129 160zM279 638l68 80h84l-127 -133h-51
l-127 133h84z" />
    <glyph glyph-name="obreve" unicode="&#x14f;" horiz-adv-x="557" 
d="M71 212v78c0 151 65 222 206 222c144 0 209 -69 209 -222v-78c0 -152 -65 -221 -209 -221c-141 0 -206 70 -206 221zM407 217v68c0 110 -41 161 -129 161c-87 0 -128 -51 -128 -161v-68c0 -109 41 -160 128 -160c88 0 129 51 129 160zM139 715h54c7 -57 29 -77 85 -77
c57 0 79 20 85 77h55c-3 -47 -7 -65 -18 -85c-21 -37 -58 -53 -122 -53c-68 0 -106 19 -126 62c-8 17 -11 34 -13 76z" />
    <glyph glyph-name="oslashacute" unicode="&#x1ff;" horiz-adv-x="557" 
d="M487 490l-37 -52c24 -33 36 -85 36 -148v-77c0 -152 -66 -222 -208 -222c-53 0 -96 10 -127 31l-33 -46l-48 37l37 51c-24 35 -36 84 -35 149v77c0 152 65 222 207 222c52 0 96 -11 127 -31l33 46zM397 364l-202 -280c21 -19 47 -27 83 -27c87 0 129 52 129 161v67
c0 33 -4 57 -10 79zM161 139l201 280c-22 19 -47 27 -82 27c-88 0 -129 -52 -129 -161v-67c0 -32 3 -58 10 -79zM228 582l75 142h97l-112 -142h-60z" />
    <glyph glyph-name="itilde" unicode="&#x129;" horiz-adv-x="255" 
d="M88 0v502h79v-502h-79zM21 596h-51c10 41 15 56 25 72c17 29 40 43 72 43c27 0 47 -9 73 -32c29 -26 39 -32 53 -32c20 0 31 16 41 56h51c-9 -40 -15 -58 -23 -73c-15 -28 -38 -42 -71 -42c-29 0 -48 9 -75 34c-27 24 -37 30 -51 30c-19 0 -35 -21 -44 -56z" />
    <glyph glyph-name="utilde" unicode="&#x169;" horiz-adv-x="555" 
d="M84 502h79v-280c0 -49 4 -77 13 -101c16 -41 49 -62 96 -62c83 0 116 53 116 188v255h79v-502h-61l-6 56c-29 -45 -71 -65 -138 -65c-86 0 -141 33 -163 97c-10 28 -15 69 -15 126v288zM171 596h-51c10 41 15 56 25 72c17 29 40 43 72 43c27 0 47 -9 73 -32
c29 -26 39 -32 53 -32c20 0 31 16 41 56h51c-9 -40 -15 -58 -23 -73c-15 -28 -38 -42 -71 -42c-29 0 -48 9 -75 34c-27 24 -37 30 -51 30c-19 0 -35 -21 -44 -56z" />
    <glyph glyph-name="uni01D4" unicode="&#x1d4;" horiz-adv-x="555" 
d="M84 502h79v-280c0 -49 4 -77 13 -101c16 -41 49 -62 96 -62c83 0 116 53 116 188v255h79v-502h-61l-6 56c-29 -45 -71 -65 -138 -65c-86 0 -141 33 -163 97c-10 28 -15 69 -15 126v288zM278 638l68 80h84l-127 -133h-51l-127 133h84z" />
    <glyph glyph-name="Ldot" unicode="&#x13f;" horiz-adv-x="533" 
d="M104 0v714h83v-644h336v-70h-419zM367 314v99h73v-99h-73z" />
    <glyph glyph-name="Obreve" unicode="&#x14e;" horiz-adv-x="676" 
d="M87 269v176c0 100 17 157 59 204c46 51 105 74 192 74c93 0 157 -27 203 -86c34 -45 48 -99 48 -192v-176c0 -101 -16 -157 -59 -204c-46 -51 -105 -74 -192 -74c-93 0 -157 27 -202 86c-35 45 -49 100 -49 192zM506 277v160c0 79 -10 122 -39 159c-29 39 -69 57 -129 57
c-64 0 -107 -21 -136 -66c-23 -37 -32 -77 -32 -150v-160c0 -79 10 -122 39 -159c29 -39 69 -57 129 -57c64 0 107 21 136 66c23 37 32 77 32 150zM199 923h54c7 -57 29 -77 85 -77c57 0 79 20 85 77h55c-3 -47 -7 -65 -18 -85c-21 -37 -58 -53 -122 -53
c-68 0 -106 19 -126 61c-8 18 -11 35 -13 77z" />
    <glyph glyph-name="Scommaaccent" unicode="&#x218;" horiz-adv-x="579" 
d="M45 96l65 42c30 -50 92 -77 176 -77c104 0 164 47 164 128c0 39 -16 73 -43 92s-27 19 -132 45c-147 37 -204 94 -204 203c0 122 82 194 219 194c96 0 168 -32 206 -90l-63 -41c-29 40 -80 62 -146 62c-84 0 -135 -45 -135 -120c0 -73 42 -109 164 -140
c96 -23 113 -30 148 -54c44 -30 67 -80 67 -147c0 -130 -87 -202 -245 -202c-116 0 -197 35 -241 105zM212 -222l52 153h83l-79 -153h-56z" />
    <glyph glyph-name="Ubreve" unicode="&#x16c;" horiz-adv-x="690" 
d="M101 714h83v-452c0 -72 7 -107 26 -138c29 -44 68 -63 135 -63c71 0 114 22 141 73c14 28 20 63 20 128v452h83v-452c0 -101 -10 -146 -43 -188c-44 -58 -106 -83 -201 -83c-101 0 -168 30 -210 95c-26 40 -34 83 -34 176v452zM206 923h54c7 -57 29 -77 85 -77
c57 0 79 20 85 77h55c-3 -47 -7 -65 -18 -85c-21 -37 -58 -53 -122 -53c-68 0 -106 19 -126 61c-8 18 -11 35 -13 77z" />
    <glyph glyph-name="Aringacute" unicode="&#x1fa;" horiz-adv-x="600" 
d="M0 0l250 684c-35 16 -55 51 -55 92c0 61 41 101 105 101s105 -40 105 -101c0 -41 -20 -76 -54 -92l250 -684h-90l-54 156h-313l-54 -156h-90zM436 225l-135 383l-135 -383h270zM301 835c-33 0 -51 -21 -51 -60c0 -37 18 -59 50 -59s50 22 50 59c0 38 -18 60 -49 60z
M263 896l56 117h93l-98 -117h-51z" />
    <glyph glyph-name="Oslashacute" unicode="&#x1fe;" horiz-adv-x="675" 
d="M601 692l-49 -73c27 -47 36 -92 36 -174v-176c0 -101 -16 -157 -59 -204c-46 -52 -105 -74 -195 -74c-71 0 -124 16 -165 51l-41 -62l-54 39l49 74c-27 46 -37 95 -37 176v176c0 100 17 157 59 204c46 51 105 74 192 74c75 0 125 -15 170 -52l40 60zM496 534l-282 -425
c30 -33 67 -48 123 -48c64 0 107 21 136 66c24 38 32 76 32 150v160c0 50 -2 72 -9 97zM179 177l283 426c-29 34 -69 50 -125 50c-64 0 -107 -21 -136 -66c-23 -37 -32 -78 -32 -150v-160c0 -50 3 -76 10 -100zM288 789l75 142h97l-112 -142h-60z" />
    <glyph glyph-name="AEacute" unicode="&#x1fc;" horiz-adv-x="950" 
d="M476 165h-316l-105 -165h-96l469 714h465v-70h-335v-248h285v-70h-285v-256h335v-70h-417v165zM476 234v410h-11l-265 -410h276zM604 789l75 142h97l-112 -142h-60z" />
    <glyph glyph-name="Tbar" unicode="&#x166;" horiz-adv-x="554" 
d="M237 0v327h-140v69h140v248h-206v70h493v-70h-204v-248h138v-69h-138v-327h-83z" />
    <glyph glyph-name="tbar" unicode="&#x167;" horiz-adv-x="336" 
d="M107 436h-61v66h61l4 161h75v-161h99v-66h-99v-88h99v-56h-99v-139c0 -66 21 -87 85 -86h18v-67h-19c-126 -1 -161 32 -163 152v140h-61v56h61v88z" />
    <glyph glyph-name="napostrophe" unicode="&#x149;" horiz-adv-x="609" 
d="M132 0v502h61l6 -56c30 46 73 66 142 66c89 0 146 -32 169 -97c10 -29 15 -68 15 -127v-288h-79v281c0 117 -33 163 -114 163c-87 0 -121 -53 -121 -189v-255h-79zM12 475l36 239h87l-55 -239h-68z" />
    <glyph glyph-name="Utilde" unicode="&#x168;" horiz-adv-x="690" 
d="M101 714h83v-452c0 -72 7 -107 26 -138c29 -44 68 -63 135 -63c71 0 114 22 141 73c14 28 20 63 20 128v452h83v-452c0 -101 -10 -146 -43 -188c-44 -58 -106 -83 -201 -83c-101 0 -168 30 -210 95c-26 40 -34 83 -34 176v452zM238 804h-51c10 40 15 55 25 71
c17 29 40 43 72 43c27 0 47 -9 73 -32c29 -26 39 -32 53 -32c20 0 31 16 41 56h51c-9 -39 -15 -57 -23 -73c-15 -27 -39 -41 -71 -41c-28 0 -48 9 -75 34c-27 24 -37 30 -52 30c-18 0 -34 -21 -43 -56z" />
    <glyph glyph-name="aeacute" unicode="&#x1fd;" horiz-adv-x="834" 
d="M131 395l-55 42c42 50 103 75 181 75c73 0 123 -22 153 -67c35 47 82 67 159 67c139 0 202 -76 202 -241v-36h-329v-21c0 -102 49 -157 140 -157c53 0 87 14 115 49l60 -38c-40 -54 -94 -77 -181 -77c-83 0 -136 24 -173 79c-37 -60 -80 -79 -178 -79
c-129 0 -176 40 -176 149c0 116 48 155 191 155h121v35c0 41 -5 61 -18 80c-17 23 -50 36 -92 36c-49 0 -91 -18 -120 -51zM361 235h-113c-89 0 -123 -26 -123 -93c0 -63 30 -85 116 -85c55 0 83 10 102 37c14 20 18 40 18 87v54zM442 295h253v8c0 39 -10 76 -27 100
c-21 30 -51 43 -99 43c-53 0 -85 -15 -105 -51c-14 -24 -22 -57 -22 -92v-8zM367 582l75 142h97l-112 -142h-60z" />
    <glyph glyph-name="Itilde" unicode="&#x128;" horiz-adv-x="291" 
d="M104 0v714h83v-714h-83zM39 804h-51c10 40 15 55 25 71c17 29 40 43 72 43c27 0 47 -9 73 -32c29 -26 39 -32 53 -32c20 0 31 16 41 56h51c-9 -39 -15 -57 -23 -73c-15 -27 -39 -41 -71 -41c-28 0 -48 9 -75 34c-27 24 -37 30 -52 30c-18 0 -34 -21 -43 -56z" />
    <glyph glyph-name="Wgrave" unicode="&#x1e80;" horiz-adv-x="876" 
d="M208 0l-180 714h84l135 -586l161 586h59l161 -586l136 586h84l-180 -714h-71l-159 569l-159 -569h-71zM490 789h-61l-111 142h97z" />
    <glyph glyph-name="Wacute" unicode="&#x1e82;" horiz-adv-x="876" 
d="M208 0l-180 714h84l135 -586l161 586h59l161 -586l136 586h84l-180 -714h-71l-159 569l-159 -569h-71zM388 789l75 142h97l-112 -142h-60z" />
    <glyph glyph-name="wgrave" unicode="&#x1e81;" horiz-adv-x="771" 
d="M193 0l-155 502h81l110 -394l129 394h55l129 -394l111 394h81l-155 -502h-65l-128 378l-129 -378h-64zM438 582h-61l-111 142h97z" />
    <glyph glyph-name="wacute" unicode="&#x1e83;" horiz-adv-x="771" 
d="M193 0l-155 502h81l110 -394l129 394h55l129 -394l111 394h81l-155 -502h-65l-128 378l-129 -378h-64zM336 582l75 142h97l-112 -142h-60z" />
    <glyph glyph-name="Ygrave" unicode="&#x1ef2;" horiz-adv-x="532" 
d="M225 0v258l-225 456h88l179 -371l178 371h88l-225 -456v-258h-83zM318 789h-61l-111 142h97z" />
    <glyph glyph-name="ygrave" unicode="&#x1ef3;" horiz-adv-x="488" 
d="M207 1l-185 501h80l147 -412l131 412h80l-197 -583c-46 -127 -73 -148 -203 -149v67c75 0 93 13 122 90zM296 582h-61l-111 142h97z" />
    <glyph glyph-name="uni0200" unicode="&#x200;" horiz-adv-x="600" 
d="M457 156h-313l-54 -156h-90l261 714h79l261 -714h-90zM436 225l-135 383l-135 -383h270zM402 789h-57l-92 142h89zM268 789h-57l-93 142h90z" />
    <glyph glyph-name="uni0201" unicode="&#x201;" horiz-adv-x="525" 
d="M361 295v35c0 41 -5 61 -18 80c-17 23 -50 36 -92 36c-49 0 -91 -18 -120 -51l-55 42c43 50 103 75 182 75c78 0 133 -25 161 -73c16 -29 21 -59 21 -121v-318h-63l-6 36c-32 -33 -70 -45 -146 -45c-129 0 -176 40 -176 149c0 116 48 155 191 155h121zM361 235h-113
c-89 0 -123 -26 -123 -93c0 -64 29 -85 118 -85c55 0 86 10 104 33c11 14 14 29 14 67v78zM378 582h-57l-92 142h89zM244 582h-57l-93 142h90z" />
    <glyph glyph-name="uni0202" unicode="&#x202;" horiz-adv-x="600" 
d="M457 156h-313l-54 -156h-90l261 714h79l261 -714h-90zM436 225l-135 383l-135 -383h270zM440 793h-55c-6 57 -28 77 -84 77c-57 0 -80 -20 -86 -77h-54c3 47 6 65 18 85c21 37 58 53 121 53c68 0 107 -19 126 -61c8 -18 11 -35 14 -77z" />
    <glyph glyph-name="uni0203" unicode="&#x203;" horiz-adv-x="525" 
d="M361 295v35c0 41 -5 61 -18 80c-17 23 -50 36 -92 36c-49 0 -91 -18 -120 -51l-55 42c43 50 103 75 182 75c78 0 133 -25 161 -73c16 -29 21 -59 21 -121v-318h-63l-6 36c-32 -33 -70 -45 -146 -45c-129 0 -176 40 -176 149c0 116 48 155 191 155h121zM361 235h-113
c-89 0 -123 -26 -123 -93c0 -64 29 -85 118 -85c55 0 86 10 104 33c11 14 14 29 14 67v78zM402 586h-55c-7 57 -28 77 -84 77c-57 0 -80 -20 -86 -77h-54c3 47 6 65 18 85c21 37 58 53 121 53c68 0 107 -19 126 -61c8 -18 11 -35 14 -77z" />
    <glyph glyph-name="uni1EBC" unicode="&#x1ebc;" horiz-adv-x="579" 
d="M104 0v714h417v-70h-335v-248h286v-70h-286v-256h336v-70h-418zM212 804h-51c10 40 15 55 25 71c17 29 40 43 72 43c27 0 47 -9 73 -32c29 -26 39 -32 53 -32c20 0 31 16 41 56h51c-9 -39 -15 -57 -23 -73c-15 -27 -39 -41 -71 -41c-28 0 -48 9 -75 34
c-27 24 -37 30 -52 30c-18 0 -34 -21 -43 -56z" />
    <glyph glyph-name="uni1EBD" unicode="&#x1ebd;" horiz-adv-x="543" 
d="M151 235v-21c0 -102 49 -157 140 -157c53 0 86 14 115 49l59 -38c-40 -54 -94 -77 -182 -77c-144 0 -212 76 -212 237v43c0 166 63 241 204 241s204 -75 204 -241v-36h-328zM151 295h252v8c0 39 -10 76 -27 100c-21 30 -51 43 -98 43c-54 0 -85 -15 -106 -51
c-13 -24 -21 -57 -21 -92v-8zM165 596h-51c10 41 15 56 25 72c17 29 40 43 72 43c27 0 47 -9 73 -32c29 -26 39 -32 53 -32c20 0 31 16 41 56h51c-9 -40 -15 -58 -23 -73c-15 -28 -38 -42 -71 -42c-29 0 -48 9 -75 34c-27 24 -37 30 -51 30c-19 0 -35 -21 -44 -56z" />
    <glyph glyph-name="uni0204.sc" horiz-adv-x="477" 
d="M76 0v534h338v-66h-258v-165h219v-66h-219v-171h259v-66h-339zM355 610h-57l-92 142h89zM221 610h-57l-93 142h90z" />
    <glyph glyph-name="uni0206.sc" horiz-adv-x="477" 
d="M93 0v534h338v-66h-258v-165h220v-66h-220v-171h259v-66h-339zM402 614h-55c-7 57 -28 77 -84 77c-57 0 -80 -20 -86 -77h-54c3 47 6 65 18 85c21 37 58 53 121 53c68 0 107 -19 126 -61c8 -18 11 -35 14 -77z" />
    <glyph glyph-name="uni0208.sc" horiz-adv-x="266" 
d="M93 0v534h81v-534h-81zM236 610h-57l-92 142h89zM102 610h-57l-93 142h90z" />
    <glyph glyph-name="uni020A.sc" horiz-adv-x="266" 
d="M93 0v534h80v-534h-80zM273 614h-55c-7 57 -28 77 -84 77c-57 0 -80 -20 -86 -77h-54c3 47 6 65 18 85c21 37 58 53 121 53c68 0 107 -19 126 -61c8 -18 11 -35 14 -77z" />
    <glyph glyph-name="uni020C.sc" horiz-adv-x="558" 
d="M65 210v114c0 80 13 126 46 162c37 41 85 58 157 58c77 0 129 -21 165 -67c27 -36 38 -79 38 -153v-114c0 -80 -13 -125 -47 -162c-36 -39 -84 -57 -156 -57c-77 0 -129 21 -165 67c-27 35 -38 79 -38 152zM391 217v100c0 111 -38 161 -123 161s-123 -50 -123 -161v-100
c0 -110 38 -160 123 -160s123 49 123 160zM371 610h-57l-92 142h89zM237 610h-57l-93 142h90z" />
    <glyph glyph-name="uni020E.sc" horiz-adv-x="558" 
d="M76 210v114c0 80 13 126 46 162c37 41 85 58 157 58c77 0 129 -21 165 -67c27 -36 38 -79 38 -153v-114c0 -80 -13 -125 -47 -162c-36 -39 -84 -57 -156 -57c-77 0 -129 21 -165 67c-27 35 -38 79 -38 152zM402 217v100c0 111 -38 161 -123 161s-123 -50 -123 -161v-100
c0 -110 38 -160 123 -160s123 49 123 160zM419 614h-55c-7 57 -28 77 -84 77c-57 0 -80 -20 -86 -77h-54c3 47 6 65 18 85c21 37 58 53 121 53c68 0 107 -19 126 -61c8 -18 11 -35 14 -77z" />
    <glyph glyph-name="uni0210.sc" horiz-adv-x="537" 
d="M170 225v-225h-80v534h198c70 0 109 -11 138 -39c28 -26 41 -62 41 -112c0 -54 -13 -90 -43 -116c-19 -17 -30 -22 -70 -32l127 -235h-92l-113 225h-106zM170 286h118c67 0 98 30 98 93c0 61 -33 90 -104 90h-112v-183zM354 610h-57l-92 142h89zM220 610h-57l-93 142h90z
" />
    <glyph glyph-name="uni0212.sc" horiz-adv-x="537" 
d="M174 225v-225h-80v534h198c70 0 109 -11 138 -39c28 -26 41 -62 41 -112c0 -54 -13 -90 -43 -116c-19 -17 -30 -22 -70 -32l127 -235h-92l-113 225h-106zM174 286h118c67 0 98 30 98 93c0 61 -33 90 -104 90h-112v-183zM389 614h-55c-7 57 -28 77 -84 77
c-57 0 -80 -20 -86 -77h-54c3 47 6 65 18 85c21 37 58 53 121 53c68 0 107 -19 126 -61c8 -18 11 -35 14 -77z" />
    <glyph glyph-name="uni0214.sc" horiz-adv-x="575" 
d="M77 534h80v-338c0 -51 5 -75 19 -96c21 -30 51 -43 98 -43c52 0 83 16 103 50c11 19 15 43 15 89v338h80v-338c0 -78 -8 -111 -34 -144c-35 -42 -85 -61 -163 -61c-84 0 -137 22 -171 71c-20 30 -27 63 -27 134v338zM377 610h-57l-92 142h89zM243 610h-57l-93 142h90z
" />
    <glyph glyph-name="uni0216.sc" horiz-adv-x="575" 
d="M90 534h80v-338c0 -51 5 -75 19 -96c21 -30 51 -43 98 -43c52 0 83 16 103 50c11 19 15 43 15 89v338h80v-338c0 -78 -8 -111 -34 -144c-35 -42 -85 -61 -163 -61c-84 0 -137 22 -171 71c-20 30 -27 63 -27 134v338zM427 614h-55c-7 57 -28 77 -84 77
c-57 0 -80 -20 -86 -77h-54c3 47 6 65 18 85c21 37 58 53 121 53c68 0 107 -19 126 -61c8 -18 11 -35 14 -77z" />
    <glyph glyph-name="uni1E24.sc" horiz-adv-x="569" 
d="M93 0v534h80v-231h223v231h80v-534h-80v237h-223v-237h-80zM245 -193v104h78v-104h-78z" />
    <glyph glyph-name="uni1E5A.sc" horiz-adv-x="537" 
d="M174 225v-225h-80v534h198c70 0 109 -11 138 -39c28 -26 41 -62 41 -112c0 -54 -13 -90 -43 -116c-19 -17 -30 -22 -70 -32l127 -235h-92l-113 225h-106zM174 286h118c67 0 98 30 98 93c0 61 -33 90 -104 90h-112v-183zM233 -193v104h78v-104h-78z" />
    <glyph glyph-name="uni1E62.sc" horiz-adv-x="467" 
d="M34 77l64 40c29 -42 70 -60 134 -60c75 0 119 32 119 87c0 27 -12 50 -32 62c-20 13 -20 13 -101 32c-118 27 -163 70 -163 154c0 96 66 152 178 152c84 0 142 -25 175 -76l-63 -39c-31 36 -60 49 -111 49c-62 0 -100 -31 -100 -83c0 -48 32 -73 124 -94
c76 -18 89 -22 118 -40c36 -23 54 -61 54 -113c0 -102 -69 -157 -197 -157c-98 0 -161 27 -199 86zM194 -193v104h78v-104h-78z" />
    <glyph glyph-name="uni1E6C.sc" horiz-adv-x="437" 
d="M179 0v468h-160v66h399v-66h-159v-468h-80zM179 -193v104h78v-104h-78z" />
    <glyph glyph-name="uni1E92.sc" horiz-adv-x="438" 
d="M40 0v55l250 413h-236v66h329v-55l-250 -413h262v-66h-355zM183 -193v104h78v-104h-78z" />
    <glyph glyph-name="uni1E44.sc" horiz-adv-x="600" 
d="M93 0v534h76l260 -402v402h79v-534h-72l-264 405v-405h-79zM266 617v104h78v-104h-78z" />
    <glyph glyph-name="uni1E0C.sc" horiz-adv-x="562" 
d="M93 0v534h184c142 3 213 -69 209 -211v-111c4 -143 -67 -214 -209 -212h-184zM173 65h91c99 -2 142 44 142 153v98c0 109 -43 155 -142 153h-91v-404zM220 -193v104h78v-104h-78z" />
    <glyph glyph-name="uni1E02.sc" horiz-adv-x="526" 
d="M93 0v534h213c61 0 93 -9 121 -32c28 -25 44 -64 44 -108c0 -52 -18 -85 -60 -115c50 -29 71 -67 71 -133c0 -52 -18 -93 -51 -118c-27 -20 -58 -28 -115 -28h-223zM171 304h131c60 0 90 28 90 84c0 54 -30 82 -90 82h-131v-166zM171 64h142c60 0 90 30 90 90
s-31 91 -90 91h-142v-181zM213 617v104h78v-104h-78z" />
    <glyph glyph-name="Dcroat" unicode="&#x110;" horiz-adv-x="678" 
d="M104 396v318h227c173 3 264 -92 259 -271v-171c5 -180 -85 -274 -259 -272h-227v327h-84v69h84zM187 396h170v-69h-170v-258h131c130 -3 189 63 189 211v154c0 148 -59 214 -189 211h-131v-249z" />
    <glyph glyph-name="idotaccent" horiz-adv-x="255" 
d="M88 611v106h79v-106h-79zM88 0v502h79v-502h-79z" />
    <glyph glyph-name="uni0237" unicode="&#x237;" horiz-adv-x="261" 
d="M93 502h79v-514c3 -167 -45 -219 -203 -218v67c91 -4 127 37 124 143v522z" />
    <glyph glyph-name="dcroat" unicode="&#x111;" horiz-adv-x="565" 
d="M397 572h-151v56h151v86h79v-86h82v-56h-82v-572h-62l-5 43c-3 -2 -4 -4 -5 -4c-5 -5 -9 -9 -14 -13c-22 -21 -74 -35 -129 -35c-131 0 -190 70 -190 222v76c0 153 59 223 188 223c65 0 96 -11 138 -48v108zM150 284v-66c0 -109 39 -161 122 -161s125 51 125 153v82
c0 103 -42 154 -125 154s-122 -52 -122 -162z" />
    <glyph glyph-name="Euro" unicode="&#x20ac;" 
d="M84 300v57h-93l23 58h70v16c0 106 14 167 49 214c39 52 94 77 172 77c126 0 200 -65 206 -182l-77 -6c-8 75 -54 118 -128 118c-97 0 -139 -67 -139 -221v-16h276l-23 -58h-253v-57h228l-23 -58h-204c6 -127 50 -183 146 -183c76 0 124 37 134 103l72 -9
c-7 -105 -83 -164 -209 -164c-99 0 -165 39 -200 118c-17 37 -24 72 -26 135h-91l23 58h67z" />
    <glyph glyph-name="peseta" unicode="&#x20a7;" 
d="M98 465h-89v58h89v191h162c141 4 219 -61 228 -191h70v-58h-70c-8 -134 -84 -200 -228 -196h-81v-269h-81v465zM178 465v-129h85c89 -2 137 41 145 129h-230zM178 523h229c-7 84 -56 127 -144 124h-85v-124z" />
    <glyph glyph-name="lira" unicode="&#x20a4;" 
d="M61 0v60c64 23 113 98 113 172c0 5 0 10 -1 19h-120v58h107c-4 11 -15 35 -24 52h-83v58h55c-22 46 -28 71 -28 109c0 121 75 195 198 195c121 0 191 -58 217 -180l-70 -18c-11 40 -18 58 -33 78c-25 34 -63 52 -109 52c-73 0 -120 -48 -120 -122c0 -35 9 -64 37 -114
h191v-58h-163c11 -27 13 -30 18 -52h145v-58h-140c1 -24 1 -24 1 -28c0 -54 -26 -107 -76 -153h330v-70h-445z" />
    <glyph glyph-name="uni20B4" unicode="&#x20b4;" 
d="M20 327l15 55l105 -28c9 5 26 11 70 26c24 8 29 10 39 15l-197 52l15 56l268 -72c42 28 59 59 59 106c0 76 -47 121 -125 121c-53 0 -93 -21 -114 -59l-62 35c34 59 95 89 178 89c124 0 199 -72 199 -191c0 -55 -11 -86 -45 -125l76 -20l-15 -56l-109 29
c-26 -13 -55 -24 -109 -40l201 -54l-15 -56l-272 73c-32 -23 -48 -57 -48 -100c0 -81 53 -127 144 -127c70 0 122 24 150 69l63 -36c-39 -64 -112 -98 -214 -98c-142 0 -219 70 -219 198c0 51 6 70 39 117z" />
    <glyph glyph-name="franc" unicode="&#x20a3;" horiz-adv-x="744" 
d="M90 0v714h334v-70h-253v-253h203v-70h-203v-321h-81zM448 0v444h61l9 -52c31 44 66 61 124 61c33 0 58 -6 91 -23l-32 -66c-27 17 -43 22 -67 22c-76 0 -108 -60 -108 -199v-187h-78z" />
    <glyph glyph-name="one.fitted" horiz-adv-x="340" 
d="M143 0v626l-123 -54l-26 66l175 76h57v-714h-83z" />
    <glyph glyph-name="two.fitted" horiz-adv-x="495" 
d="M29 0v55l198 257c75 98 108 171 108 237c0 68 -37 104 -107 104c-63 0 -104 -37 -120 -107l-75 7c11 108 84 170 200 170c119 0 185 -64 185 -178c0 -87 -28 -146 -136 -288l-143 -187h284v-70h-394z" />
    <glyph glyph-name="three.fitted" horiz-adv-x="485" 
d="M132 343v67h60c78 0 131 49 131 122c0 76 -41 121 -111 121c-58 0 -99 -31 -111 -85l-74 7c13 97 78 148 189 148c123 0 190 -67 190 -189c0 -78 -25 -121 -93 -157c78 -36 111 -90 111 -182c0 -133 -74 -204 -212 -204c-123 0 -194 54 -205 153l79 10
c12 -61 54 -93 124 -93c83 0 131 50 131 136s-59 146 -144 146h-65z" />
    <glyph glyph-name="four.fitted" horiz-adv-x="536" 
d="M335 0v132h-290v52l228 530h88l-222 -513h196v219h76v-219h71v-70h-71v-131h-76z" />
    <glyph glyph-name="five.fitted" horiz-adv-x="528" 
d="M78 344l34 370h322v-70h-253l-24 -227c33 18 67 27 107 27c65 0 122 -26 153 -69c26 -35 38 -85 38 -157c0 -75 -14 -127 -46 -162c-36 -42 -95 -65 -166 -65c-116 0 -183 53 -196 153l79 10c11 -60 54 -93 119 -93c82 0 127 53 127 152c0 112 -38 163 -121 163
c-43 0 -80 -14 -113 -45z" />
    <glyph glyph-name="six.fitted" horiz-adv-x="534" 
d="M378 714l-160 -290c20 13 43 18 74 18c59 0 109 -24 141 -68c23 -33 35 -84 35 -156c0 -84 -15 -138 -48 -173c-34 -35 -87 -54 -150 -54c-69 0 -126 23 -159 65c-27 33 -39 84 -39 162c0 77 11 117 53 197l160 299h93zM272 376c-81 0 -117 -48 -117 -157
s36 -158 115 -158s115 49 115 157s-36 158 -113 158z" />
    <glyph glyph-name="seven.fitted" horiz-adv-x="396" 
d="M55 0l211 644h-273v70h360v-50l-210 -664h-88z" />
    <glyph glyph-name="eight.fitted" horiz-adv-x="550" 
d="M155 378c-52 38 -69 77 -69 154c0 129 61 191 189 191c127 0 188 -62 188 -191c0 -77 -18 -116 -69 -154c63 -31 89 -83 89 -177c0 -144 -66 -210 -208 -210c-143 0 -209 67 -209 210c0 94 26 146 89 177zM276 657c-77 0 -111 -39 -111 -125c0 -87 34 -126 110 -126
c75 0 109 39 109 126c0 85 -35 125 -108 125zM276 340c-88 0 -127 -43 -127 -140c0 -95 39 -139 126 -139c86 0 125 44 125 139s-40 140 -124 140z" />
    <glyph glyph-name="nine.fitted" horiz-adv-x="534" 
d="M157 0l161 313c-29 -9 -50 -12 -76 -12c-48 0 -88 13 -118 38c-41 34 -58 84 -58 170c0 148 62 214 199 214c68 0 124 -21 157 -60c27 -33 40 -80 40 -151c0 -72 -8 -105 -40 -169l-172 -343h-93zM266 653c-79 0 -117 -46 -117 -143s38 -144 115 -144s115 47 115 143
s-38 144 -113 144z" />
    <glyph glyph-name="zero.fitted" horiz-adv-x="553" 
d="M76 252v210c0 94 13 152 44 192c37 48 85 69 157 69c76 0 128 -26 164 -81c24 -38 36 -95 36 -180v-210c0 -94 -13 -152 -44 -192c-37 -48 -85 -69 -156 -69c-77 0 -129 26 -165 81c-24 38 -36 95 -36 180zM395 260v194c0 142 -34 199 -118 199c-85 0 -119 -57 -119 -199
v-194c0 -142 34 -199 119 -199c84 0 118 57 118 199z" />
    <glyph glyph-name="sterling.fitted" horiz-adv-x="547" 
d="M63 0v60c67 24 115 95 115 170c0 24 -4 44 -14 75h-103v70h71c-41 77 -50 103 -50 151c0 123 75 197 198 197c122 0 189 -55 218 -180l-70 -19c-11 42 -19 59 -33 79c-26 34 -63 52 -110 52c-73 0 -120 -48 -120 -122c0 -43 13 -78 58 -158h171v-70h-148
c8 -30 11 -47 11 -70c0 -65 -26 -120 -78 -165h330v-70h-446z" />
    <glyph glyph-name="dollar.fitted" horiz-adv-x="574" 
d="M38 112l64 42c31 -50 93 -77 178 -77c104 0 163 43 163 118c0 37 -16 69 -44 87c-27 18 -27 18 -133 43c-146 34 -206 92 -206 196c0 69 32 127 87 157c24 14 54 22 101 26v108h79v-110c75 -8 135 -40 162 -86l-63 -41c-29 41 -80 62 -148 62c-86 0 -137 -41 -137 -110
s43 -103 166 -132c94 -22 114 -29 149 -52c44 -29 68 -78 68 -141c0 -112 -67 -177 -197 -191v-144h-79v142c-99 5 -176 43 -210 103z" />
    <glyph glyph-name="cent.fitted" horiz-adv-x="487" 
d="M236 32v115c-108 10 -167 93 -165 230v42c-2 149 52 228 165 242v109h79v-111c58 -10 93 -33 120 -76l-60 -34c-27 37 -54 51 -100 51c-86 0 -126 -56 -126 -175v-56c0 -105 44 -161 127 -161c48 0 85 16 110 49l59 -34c-29 -42 -71 -66 -130 -75v-116h-79z" />
    <glyph glyph-name="Euro.fitted" horiz-adv-x="556" 
d="M96 300v57h-93l23 58h70v16c0 106 14 167 49 214c39 52 94 77 172 77c126 0 200 -65 206 -182l-77 -6c-8 75 -54 118 -128 118c-97 0 -139 -67 -139 -221v-16h276l-23 -58h-253v-57h228l-23 -58h-204c6 -127 50 -183 146 -183c76 0 124 37 134 103l72 -9
c-7 -105 -83 -164 -209 -164c-99 0 -165 39 -200 118c-17 37 -24 72 -26 135h-91l23 58h67z" />
    <glyph glyph-name="yen.fitted" horiz-adv-x="564" 
d="M241 0v151h-154v58h154v51h-154v58h130l-195 396h88l173 -361l171 361h89l-195 -396h129v-58h-153v-51h153v-58h-153v-151h-83z" />
    <glyph glyph-name="one.numerator" horiz-adv-x="349" 
d="M151 286v363l-77 -30l-18 49l115 46h46v-428h-66z" />
    <glyph glyph-name="two.numerator" horiz-adv-x="349" 
d="M49 286v42l126 150c41 49 64 93 64 125c0 40 -24 64 -64 64c-38 0 -64 -23 -73 -63l-61 7c13 78 53 109 136 109c84 0 128 -41 128 -119c0 -53 -18 -89 -83 -165l-81 -97h163v-53h-255z" />
    <glyph glyph-name="three.numerator" horiz-adv-x="349" 
d="M113 487v47h44c43 0 77 30 77 68s-27 64 -67 64c-36 0 -60 -17 -69 -50l-59 7c10 67 49 96 130 96c86 0 131 -40 131 -115c0 -47 -15 -72 -54 -93c46 -22 66 -54 66 -107c0 -81 -50 -123 -145 -123c-54 0 -94 13 -118 39c-12 13 -17 26 -23 57l62 11c9 -37 34 -54 77 -54
c50 0 81 27 81 73c0 47 -36 80 -86 80h-47z" />
    <glyph glyph-name="four.numerator" horiz-adv-x="349" 
d="M216 286v81h-187v39l147 308h70l-141 -295h111v92h59v-92h45v-53h-45v-80h-59z" />
    <glyph glyph-name="five.numerator" horiz-adv-x="349" 
d="M55 487l22 227h218v-53h-162l-13 -119c23 10 36 13 59 13c87 0 129 -44 129 -136c0 -94 -45 -138 -142 -138c-78 0 -125 35 -130 97l62 10c8 -35 32 -54 71 -54c46 0 73 31 73 82c0 59 -23 88 -70 88c-25 0 -51 -10 -69 -26z" />
    <glyph glyph-name="six.numerator" horiz-adv-x="349" 
d="M257 714l-99 -164c17 4 26 5 38 5c35 0 70 -16 90 -41c16 -20 23 -50 23 -95c0 -96 -40 -138 -133 -138s-133 41 -133 138c0 48 7 71 35 119l102 176h77zM177 506c-47 0 -70 -29 -70 -87c0 -59 23 -88 69 -88s69 29 69 88c0 57 -23 87 -68 87z" />
    <glyph glyph-name="seven.numerator" horiz-adv-x="349" 
d="M85 286l145 375h-181v53h253v-39l-145 -389h-72z" />
    <glyph glyph-name="eight.numerator" horiz-adv-x="349" 
d="M87 513c-28 22 -39 47 -39 90c0 80 40 117 126 117c87 0 127 -37 127 -117c0 -43 -10 -65 -40 -90c38 -21 52 -50 52 -104c0 -90 -42 -129 -139 -129c-96 0 -139 39 -139 128c0 55 15 85 52 105zM175 672c-44 0 -67 -24 -67 -70c0 -47 23 -71 67 -71c43 0 66 24 66 71
c0 46 -23 70 -66 70zM175 486c-51 0 -76 -26 -76 -78s25 -78 75 -78s75 26 75 78c0 51 -25 78 -74 78z" />
    <glyph glyph-name="nine.numerator" horiz-adv-x="349" 
d="M93 286l102 180c-20 -3 -29 -4 -42 -4c-75 0 -112 42 -112 127c0 90 41 130 133 130s133 -40 133 -128c0 -47 -4 -62 -27 -103l-110 -202h-77zM175 669c-46 0 -70 -27 -70 -80c0 -52 24 -80 69 -80s69 28 69 80c0 51 -24 80 -68 80z" />
    <glyph glyph-name="zero.numerator" horiz-adv-x="349" 
d="M41 439v122c0 110 41 158 134 158s134 -48 134 -158v-122c0 -110 -41 -158 -134 -158s-134 48 -134 158zM245 444v112c0 77 -22 113 -70 113c-47 0 -70 -36 -70 -113v-112c0 -77 23 -113 70 -113c48 0 70 36 70 113z" />
    <glyph glyph-name="one.denominator" horiz-adv-x="349" 
d="M151 0v363l-77 -30l-18 49l115 46h46v-428h-66z" />
    <glyph glyph-name="two.denominator" horiz-adv-x="349" 
d="M49 0v42l126 150c41 48 64 93 64 125c0 40 -24 64 -64 64c-38 0 -64 -22 -73 -63l-61 7c13 77 53 109 136 109c84 0 128 -41 128 -119c0 -53 -18 -89 -83 -165l-81 -97h163v-53h-255z" />
    <glyph glyph-name="three.denominator" horiz-adv-x="349" 
d="M113 202v47h44c43 0 77 29 77 67c0 39 -27 64 -67 64c-36 0 -60 -17 -69 -50l-59 8c10 66 49 95 130 95c86 0 131 -40 131 -115c0 -46 -15 -71 -54 -92c47 -22 66 -54 66 -107c0 -82 -50 -124 -145 -124c-54 0 -94 13 -118 39c-12 13 -17 26 -23 57l62 12
c9 -38 34 -55 77 -55c50 0 81 28 81 73c0 47 -36 81 -86 81h-47z" />
    <glyph glyph-name="four.denominator" horiz-adv-x="349" 
d="M216 0v80h-187v39l147 309h70l-141 -296h111v93h59v-93h45v-53h-45v-79h-59z" />
    <glyph glyph-name="five.denominator" horiz-adv-x="349" 
d="M55 201l22 227h218v-53h-162l-13 -119c23 10 36 13 59 13c87 0 129 -44 129 -136c0 -94 -45 -138 -142 -138c-78 0 -125 35 -130 97l62 10c8 -35 32 -54 71 -54c46 0 73 31 73 82c0 59 -23 89 -70 89c-25 0 -51 -10 -69 -27z" />
    <glyph glyph-name="six.denominator" horiz-adv-x="349" 
d="M257 428l-99 -164c17 4 26 5 38 5c35 0 70 -16 90 -40c16 -20 23 -51 23 -96c0 -96 -40 -138 -133 -138s-133 41 -133 138c0 48 7 71 35 119l102 176h77zM177 220c-47 0 -70 -29 -70 -87c0 -59 23 -88 69 -88s69 29 69 88c0 57 -23 87 -68 87z" />
    <glyph glyph-name="seven.denominator" horiz-adv-x="349" 
d="M85 0l145 375h-181v53h253v-39l-145 -389h-72z" />
    <glyph glyph-name="eight.denominator" horiz-adv-x="349" 
d="M87 227c-28 21 -39 46 -39 90c0 80 40 117 126 117c87 0 127 -37 127 -117c0 -43 -10 -66 -40 -90c37 -20 52 -50 52 -104c0 -90 -42 -129 -139 -129c-96 0 -139 39 -139 128c0 55 15 86 52 105zM175 386c-44 0 -67 -24 -67 -70c0 -47 23 -71 67 -71c43 0 66 24 66 71
c0 46 -23 70 -66 70zM175 200c-51 0 -76 -26 -76 -78s25 -78 75 -78s75 26 75 78c0 51 -25 78 -74 78z" />
    <glyph glyph-name="nine.denominator" horiz-adv-x="349" 
d="M93 0l102 180c-20 -3 -29 -4 -42 -4c-75 0 -112 42 -112 127c0 90 40 130 133 130c92 0 133 -40 133 -128c0 -46 -4 -62 -27 -103l-110 -202h-77zM175 383c-46 0 -70 -27 -70 -79s24 -80 69 -80s69 28 69 79s-24 80 -68 80z" />
    <glyph glyph-name="zero.denominator" horiz-adv-x="349" 
d="M41 153v122c0 110 41 158 134 158s134 -48 134 -158v-122c0 -110 -41 -158 -134 -158s-134 48 -134 158zM245 158v112c0 77 -22 113 -70 113c-47 0 -70 -36 -70 -113v-112c0 -77 23 -113 70 -113c48 0 70 36 70 113z" />
    <glyph glyph-name="uni0387" unicode="&#x387;" horiz-adv-x="281" 
d="M100 314v99h83v-99h-83z" />
    <glyph glyph-name="dotmath" unicode="&#x22c5;" horiz-adv-x="281" 
d="M100 314v99h83v-99h-83z" />
    <glyph glyph-name="uni2219" unicode="&#x2219;" horiz-adv-x="281" 
d="M100 314v99h83v-99h-83z" />
    <glyph glyph-name="uni037E" unicode="&#x37e;" horiz-adv-x="282" 
d="M57 -188l47 287h90l-68 -287h-69zM107 403v100h83v-100h-83z" />
    <glyph glyph-name="afii57929" unicode="&#x2bc;" horiz-adv-x="187" 
d="M33 476l36 238h85l-55 -238h-66z" />
    <glyph glyph-name="uni00AD" unicode="&#xad;" horiz-adv-x="476" 
d="M97 328v70h281v-70h-281z" />
    <glyph glyph-name="uni2011" unicode="&#x2011;" horiz-adv-x="476" 
d="M97 328v70h281v-70h-281z" />
    <glyph glyph-name="afii00208" unicode="&#x2015;" 
d="M3 328v70h534v-70h-534z" />
    <glyph glyph-name="afii61248" unicode="&#x2105;" horiz-adv-x="916" 
d="M304 408l49 -29c-31 -45 -79 -67 -146 -67c-112 0 -171 65 -171 191v15c0 135 56 202 170 202c64 0 110 -23 138 -69l-50 -28c-22 31 -46 43 -85 43c-74 0 -108 -47 -108 -148v-16c0 -89 38 -136 111 -136c40 0 72 14 92 42zM528 181v34c0 127 56 187 174 187
c121 0 177 -59 177 -187v-34c0 -128 -56 -187 -177 -187c-118 0 -174 60 -174 187zM814 183v29c0 92 -36 136 -111 136c-74 0 -110 -44 -110 -136v-29c0 -92 35 -135 110 -135s111 43 111 135zM301 0l224 714h68l-224 -714h-68z" />
    <glyph glyph-name="uni2101" unicode="&#x2101;" horiz-adv-x="877" 
d="M395 294l131 420h69l-225 -714h-68l90 286h-65l-34 88h-195l-33 -88h-71l174 428h55zM276 421l-80 212l-81 -212h161zM527 64l54 32c21 -32 56 -48 108 -48c57 0 94 26 94 68c0 19 -10 38 -26 48c-16 11 -16 11 -81 26c-93 21 -130 56 -130 122c0 77 52 121 144 121
c64 0 111 -20 139 -60l-53 -32c-20 27 -48 40 -88 40c-48 0 -78 -25 -78 -63s27 -59 100 -75c59 -14 71 -18 94 -32c29 -19 43 -49 43 -93c0 -80 -55 -123 -159 -123c-78 0 -130 22 -161 69z" />
    <glyph glyph-name="oneone" horiz-adv-x="860" 
d="M161 286v363l-77 -30l-18 49l115 46h46v-428h-66zM241 0l225 714h75l-224 -714h-76zM632 0v363l-77 -30l-18 49l115 46h46v-428h-66z" />
    <glyph glyph-name="uni2155" unicode="&#x2155;" horiz-adv-x="860" 
d="M150 286v363l-77 -30l-18 49l115 46h46v-428h-66zM227 0l224 714h75l-224 -714h-75zM525 201l22 227h218v-53h-162l-13 -119c23 10 36 13 59 13c88 0 129 -44 129 -136c0 -94 -45 -138 -142 -138c-78 0 -123 33 -130 97l62 10c8 -36 32 -54 71 -54c46 0 73 31 73 82
c0 59 -23 89 -70 89c-25 0 -50 -10 -69 -27z" />
    <glyph glyph-name="uni2156" unicode="&#x2156;" horiz-adv-x="860" 
d="M51 286v42l126 150c41 49 64 93 64 125c0 40 -24 64 -64 64c-38 0 -64 -23 -73 -63l-61 7c13 78 53 109 136 109c84 0 128 -41 128 -119c0 -53 -18 -89 -83 -165l-81 -97h163v-53h-255zM554 201l23 227h218v-53h-162l-13 -119c23 10 36 13 59 13c87 0 129 -44 129 -136
c0 -94 -46 -138 -142 -138c-79 0 -123 32 -131 97l63 10c8 -35 32 -54 71 -54c45 0 73 31 73 82c0 59 -24 89 -70 89c-25 0 -51 -10 -69 -27zM282 0l224 714h76l-224 -714h-76z" />
    <glyph glyph-name="uni2157" unicode="&#x2157;" horiz-adv-x="860" 
d="M118 487v47h44c43 0 77 30 77 68s-27 64 -67 64c-36 0 -60 -17 -69 -50l-59 7c10 67 49 96 130 96c86 0 131 -40 131 -115c0 -47 -15 -72 -54 -93c46 -22 66 -54 66 -107c0 -81 -50 -123 -145 -123c-54 0 -94 13 -118 39c-12 13 -17 26 -23 57l62 11c9 -37 34 -54 77 -54
c50 0 81 27 81 73c0 47 -36 80 -86 80h-47zM550 201l23 227h218v-53h-162l-13 -119c23 10 36 13 59 13c87 0 129 -44 129 -136c0 -94 -46 -138 -142 -138c-79 0 -123 32 -131 97l63 10c7 -35 32 -54 71 -54c45 0 73 31 73 82c0 59 -24 89 -70 89c-25 0 -51 -10 -69 -27z
M276 0l225 714h75l-224 -714h-76z" />
    <glyph glyph-name="uni2158" unicode="&#x2158;" horiz-adv-x="860" 
d="M221 286v81h-187v39l147 308h70l-141 -295h111v92h59v-92h45v-53h-45v-80h-59zM553 201l22 227h218v-53h-162l-13 -119c23 10 37 13 59 13c87 0 129 -44 129 -136c0 -94 -45 -138 -142 -138c-79 0 -122 32 -130 97l62 10c8 -36 32 -54 71 -54c46 0 73 31 73 83
c0 58 -23 88 -70 88c-25 0 -51 -10 -69 -27zM282 0l224 714h75l-224 -714h-75z" />
    <glyph glyph-name="uni2159" unicode="&#x2159;" horiz-adv-x="860" 
d="M157 286v363l-77 -30l-18 49l115 46h46v-428h-66zM243 0l224 714h75l-224 -714h-75zM722 428l-99 -164c17 4 26 5 37 5c36 0 70 -16 90 -40c16 -20 23 -51 23 -96c0 -96 -40 -138 -132 -138c-93 0 -133 41 -133 138c0 48 7 71 34 119l103 176h77zM641 220
c-46 0 -69 -29 -69 -87c0 -59 23 -88 68 -88c46 0 69 29 69 88c0 57 -23 87 -68 87z" />
    <glyph glyph-name="uni215A" unicode="&#x215a;" horiz-adv-x="860" 
d="M60 487l22 227h218v-53h-162l-13 -119c23 10 36 13 59 13c87 0 129 -44 129 -136c0 -94 -45 -138 -142 -138c-78 0 -125 35 -130 97l62 10c8 -35 32 -54 71 -54c46 0 73 31 73 82c0 59 -23 88 -70 88c-25 0 -51 -10 -69 -26zM747 428l-98 -164c16 4 25 5 37 5
c35 0 70 -15 90 -40c15 -20 23 -51 23 -96c0 -96 -40 -138 -133 -138s-133 41 -133 138c0 48 6 70 35 119l102 176h77zM667 220c-47 0 -70 -29 -70 -87c0 -59 23 -88 69 -88s69 29 69 88c0 57 -23 87 -68 87zM285 0l225 714h75l-224 -714h-76z" />
    <glyph glyph-name="uni2215" unicode="&#x2215;" horiz-adv-x="161" 
d="M-62 0l224 714h76l-225 -714h-75z" />
    <glyph glyph-name="Dieresis" unicode="&#xf6cb;" horiz-adv-x="500" 
d="M116 797v104h72v-104h-72zM311 797v104h72v-104h-72z" />
    <glyph glyph-name="Dotaccent" horiz-adv-x="500" 
d="M211 797v104h78v-104h-78z" />
    <glyph glyph-name="Ring" horiz-adv-x="500" 
d="M252 984c62 0 103 -40 103 -101s-42 -102 -105 -102s-105 41 -105 102c0 62 41 101 107 101zM251 942c-33 0 -51 -21 -51 -60c0 -37 18 -59 50 -59s50 22 50 59c0 38 -18 60 -49 60z" />
    <glyph glyph-name="Acute" unicode="&#xf6c9;" horiz-adv-x="500" 
d="M200 789l75 142h97l-112 -142h-60z" />
    <glyph glyph-name="Grave" unicode="&#xf6ce;" horiz-adv-x="500" 
d="M303 789h-61l-111 142h97z" />
    <glyph glyph-name="Circumflex" horiz-adv-x="500" 
d="M250 874l-68 -80h-84l127 133h51l127 -133h-84z" />
    <glyph glyph-name="Caron" unicode="&#xf6ca;" horiz-adv-x="500" 
d="M251 845l68 81h84l-127 -134h-51l-127 134h84z" />
    <glyph glyph-name="Breve" horiz-adv-x="500" 
d="M111 923h54c7 -57 29 -77 85 -77c57 0 79 20 85 77h55c-3 -47 -7 -65 -18 -85c-21 -37 -58 -53 -122 -53c-68 0 -106 19 -126 61c-8 18 -11 35 -13 77z" />
    <glyph glyph-name="Tilde" horiz-adv-x="500" 
d="M143 804h-51c10 40 15 55 25 71c17 29 40 43 72 43c27 0 47 -9 73 -32c29 -26 39 -32 53 -32c20 0 31 16 41 56h51c-9 -39 -15 -57 -23 -73c-15 -27 -39 -41 -71 -41c-28 0 -48 9 -75 34c-27 24 -37 30 -52 30c-18 0 -34 -21 -43 -56z" />
    <glyph glyph-name="Hungarumlaut" unicode="&#xf6cf;" horiz-adv-x="500" 
d="M147 789l60 142h90l-93 -142h-57zM282 789l60 142h89l-92 -142h-57z" />
    <glyph glyph-name="Cedilla" horiz-adv-x="500" 
d="M185 -222l52 153h83l-79 -153h-56z" />
    <glyph glyph-name="uni02C0" unicode="&#x2c0;" horiz-adv-x="500" 
d="M285 779h-58c1 44 1 46 27 84c7 9 10 18 10 26c0 15 -11 24 -31 24c-14 0 -27 -4 -47 -13l-15 46c31 12 48 15 74 15c55 0 86 -25 86 -68c0 -21 -5 -31 -28 -61c-16 -21 -17 -25 -18 -53z" />
    <glyph glyph-name="Ogonek" horiz-adv-x="500" 
d="M293 0h72c-69 -39 -97 -70 -97 -105c0 -28 16 -41 51 -41c20 0 35 3 58 10l8 -46c-28 -10 -49 -14 -80 -14c-72 0 -109 26 -109 79c0 46 35 89 97 117z" />
    <glyph glyph-name="Macron" unicode="&#xf6d0;" horiz-adv-x="500" 
d="M122 827v58h257v-58h-257z" />
    <glyph glyph-name="Commaaccent" horiz-adv-x="500" 
d="M185 -222l52 153h83l-79 -153h-56z" />
    <glyph glyph-name="Comma.high" horiz-adv-x="116" 
d="M2 492l26 230h82l-52 -230h-56z" />
    <glyph glyph-name="Croatumlaut" horiz-adv-x="500" 
d="M353 789h-57l-92 142h89zM219 789h-57l-93 142h90z" />
    <glyph glyph-name="Croatbreve" horiz-adv-x="500" 
d="M390 793h-55c-6 57 -28 77 -84 77c-57 0 -80 -20 -86 -77h-54c3 47 6 65 18 85c21 37 58 53 121 53c68 0 107 -19 126 -61c8 -18 11 -35 14 -77z" />
    <glyph glyph-name="Cicumflexacute" horiz-adv-x="500" 
d="M352 848l74 139h91l-111 -142h-52l49 -51h-84l-69 80l-68 -80h-84l127 133h51z" />
    <glyph glyph-name="Ringacute" horiz-adv-x="500" 
d="M252 877c62 0 103 -40 103 -101s-42 -102 -105 -102s-105 41 -105 102c0 62 41 101 107 101zM251 835c-33 0 -51 -21 -51 -60c0 -37 18 -59 50 -59s50 22 50 59c0 38 -18 60 -49 60zM214 896l55 117h94l-98 -117h-51z" />
    <glyph glyph-name="uni0309" unicode="&#x309;" horiz-adv-x="500" 
d="M285 575h-58c1 44 1 46 27 84c7 10 10 18 10 26c0 16 -11 24 -31 24c-14 0 -26 -3 -47 -13l-15 47c31 11 47 14 74 14c55 0 86 -25 86 -68c0 -21 -5 -31 -28 -61c-16 -21 -17 -25 -18 -53z" />
    <glyph glyph-name="uni02C9" unicode="&#x2c9;" horiz-adv-x="500" 
d="M122 619v58h257v-58h-257z" />
    <glyph glyph-name="uni0323" unicode="&#x323;" horiz-adv-x="500" 
d="M211 -193v104h78v-104h-78z" />
    <glyph glyph-name="commaaccent" unicode="&#xf6c3;" horiz-adv-x="500" 
d="M185 -222l52 153h83l-79 -153h-56z" />
    <glyph glyph-name="uni0313" unicode="&#x313;" horiz-adv-x="76" 
d="M-8 492l26 230h82l-52 -230h-56z" />
    <glyph glyph-name="uni031B" unicode="&#x31b;" horiz-adv-x="76" 
d="M-8 492l26 230h82l-52 -230h-56z" />
    <glyph glyph-name="croatumlaut" horiz-adv-x="500" 
d="M353 582h-57l-92 142h89zM219 582h-57l-93 142h90z" />
    <glyph glyph-name="croatbreve" horiz-adv-x="500" 
d="M390 586h-55c-7 57 -28 77 -84 77c-57 0 -80 -20 -86 -77h-54c3 47 6 65 18 85c21 37 58 53 121 53c68 0 107 -19 126 -61c8 -18 11 -35 14 -77z" />
    <glyph glyph-name="cicumflexacute" horiz-adv-x="500" 
d="M352 640l74 139h91l-111 -142h-52l49 -51h-84l-69 80l-68 -80h-84l127 133h51z" />
    <glyph glyph-name="ringacute" horiz-adv-x="500" 
d="M251 777c63 0 104 -41 104 -101c0 -62 -42 -103 -105 -103s-105 41 -105 103s41 101 106 101zM251 735c-33 0 -51 -21 -51 -60c0 -38 18 -60 50 -60s50 22 50 60s-18 60 -49 60zM214 795l55 118h94l-98 -118h-51z" />
    <glyph glyph-name="uni0312" unicode="&#x312;" horiz-adv-x="500" 
d="M200 582l111 142h61l-75 -142h-97z" />
    <glyph glyph-name="uni01EA" unicode="&#x1ea;" horiz-adv-x="676" 
d="M594 445v-176c3 -142 -45 -226 -149 -264c-58 -39 -84 -72 -84 -109c0 -29 15 -42 51 -42c20 0 36 3 58 10l8 -46c-27 -10 -49 -14 -80 -14c-73 0 -109 26 -109 80c0 41 19 73 62 107h-3h-5c-167 -1 -256 97 -251 278v176c0 100 17 157 59 204c46 51 105 74 192 74
c93 0 157 -27 203 -86c34 -45 48 -99 48 -192zM511 277v160c0 79 -10 122 -39 159c-29 39 -69 57 -129 57c-64 0 -107 -21 -136 -66c-23 -37 -32 -77 -32 -150v-160c0 -79 10 -122 39 -160c29 -39 70 -57 129 -57c64 0 107 21 136 67c23 36 32 77 32 150z" />
    <glyph glyph-name="uni01EB" unicode="&#x1eb;" horiz-adv-x="557" 
d="M487 290v-78c0 -116 -38 -184 -120 -210c-47 -34 -69 -69 -69 -106c0 -29 15 -42 51 -42c20 0 36 3 59 10l8 -46c-28 -10 -50 -14 -81 -14c-74 0 -110 26 -110 81c0 40 16 71 55 106c-142 -1 -209 71 -208 221v78c0 151 65 222 206 222c144 0 209 -69 209 -222zM408 217
v68c0 110 -41 161 -129 161c-87 0 -128 -51 -128 -161v-68c0 -109 41 -160 128 -160c88 0 129 51 129 160z" />
    <glyph glyph-name="Eng" unicode="&#x14a;" horiz-adv-x="721" 
d="M104 0v714h80l352 -569v569h81v-727c4 -165 -46 -218 -201 -217v66c89 -4 125 37 123 140v31l-354 565v-572h-81z" />
    <glyph glyph-name="eng" unicode="&#x14b;" horiz-adv-x="565" 
d="M88 0v502h61l6 -56c30 46 74 66 142 66c89 0 146 -33 169 -97c10 -29 15 -68 15 -127v-300c3 -167 -45 -219 -203 -218v67c91 -4 127 37 124 143v301c0 47 -4 77 -14 101c-16 41 -50 62 -100 62c-87 0 -121 -53 -121 -189v-255h-79z" />
    <glyph glyph-name="kgreenlandic" unicode="&#x138;" horiz-adv-x="511" 
d="M88 0v502h79v-285l223 285h91l-171 -212l190 -290h-88l-150 231l-95 -119v-112h-79z" />
    <glyph glyph-name="uni01D1" unicode="&#x1d1;" horiz-adv-x="676" 
d="M87 269v176c0 100 17 157 59 204c46 51 105 74 192 74c93 0 157 -27 202 -86c35 -45 49 -99 49 -192v-176c0 -101 -16 -157 -59 -204c-46 -51 -105 -74 -192 -74c-93 0 -157 27 -202 86c-35 45 -49 100 -49 192zM506 277v160c0 79 -10 122 -38 159c-30 39 -70 57 -130 57
c-64 0 -107 -21 -136 -66c-23 -37 -32 -77 -32 -150v-160c0 -79 10 -122 39 -159c29 -39 69 -57 129 -57c64 0 107 21 136 66c24 37 32 76 32 150zM338 845l68 81h85l-127 -134h-52l-126 134h84z" />
    <glyph glyph-name="uni01C4" unicode="&#x1c4;" horiz-adv-x="1181" 
d="M104 0v714h228c174 3 264 -92 259 -272v-170c5 -180 -85 -274 -259 -272h-228zM187 69h131c131 -3 190 63 190 211v154c0 148 -59 214 -190 211h-131v-576zM688 0v59l331 585h-313v70h406v-59l-331 -585h346v-70h-439zM908 845l69 81h84l-127 -134h-51l-127 134h84z" />
    <glyph glyph-name="uni01C5" unicode="&#x1c5;" horiz-adv-x="1112" 
d="M104 0v714h228c174 3 264 -92 259 -272v-170c5 -180 -85 -274 -259 -272h-228zM187 69h131c131 -3 190 63 190 211v154c0 148 -59 214 -190 211h-131v-576zM682 0v51l255 385h-235v66h334v-51l-255 -385h271v-66h-370zM873 638l68 80h84l-127 -133h-51l-127 133h84z" />
    <glyph glyph-name="uni01C6" unicode="&#x1c6;" horiz-adv-x="1040" 
d="M414 0l-5 43c-3 -2 -4 -4 -5 -4c-5 -5 -9 -9 -14 -13c-22 -21 -74 -35 -129 -35c-131 0 -190 70 -190 222v76c0 153 59 223 188 223c44 0 82 -9 110 -25c4 -3 14 -10 28 -23v250h79v-714h-62zM150 284v-66c0 -109 39 -161 122 -161s125 51 125 153v82
c0 103 -42 154 -125 154s-122 -52 -122 -162zM609 0v51l256 385h-236v66h335v-51l-256 -385h272v-66h-371zM807 638l68 80h84l-127 -133h-51l-127 133h84z" />
    <glyph glyph-name="uni01C7" unicode="&#x1c7;" horiz-adv-x="824" 
d="M104 0v714h83v-644h336v-70h-419zM638 714h83v-669c0 -121 -5 -161 -26 -200c-31 -58 -89 -88 -170 -88c-34 0 -58 4 -94 16l27 65c23 -8 37 -11 59 -11c55 0 92 26 109 75c9 26 12 58 12 141v671z" />
    <glyph glyph-name="uni01C8" unicode="&#x1c8;" horiz-adv-x="794" 
d="M104 0v714h83v-644h336v-70h-419zM626 611v106h79v-106h-79zM626 502h79v-514c3 -167 -45 -219 -203 -218v67c91 -4 127 37 124 143v522z" />
    <glyph glyph-name="uni01C9" unicode="&#x1c9;" horiz-adv-x="553" 
d="M87 714h79v-554c0 -72 20 -94 85 -93h26v-67h-29c-127 0 -161 35 -161 167v547zM385 611v106h79v-106h-79zM385 502h79v-514c3 -167 -45 -219 -203 -218v67c91 -4 127 37 124 143v522z" />
    <glyph glyph-name="uni01CA" unicode="&#x1ca;" horiz-adv-x="1013" 
d="M104 0v714h80l352 -572v572h81v-714h-80l-352 572v-572h-81zM826 714h83v-669c0 -121 -5 -161 -26 -200c-31 -58 -89 -88 -170 -88c-34 0 -58 4 -94 16l27 65c23 -8 37 -11 59 -11c55 0 92 26 109 75c9 26 12 58 12 141v671z" />
    <glyph glyph-name="uni01CB" unicode="&#x1cb;" horiz-adv-x="983" 
d="M104 0v714h80l352 -572v572h81v-714h-80l-352 572v-572h-81zM815 502h79v-514c3 -167 -45 -219 -203 -218v67c91 -4 127 37 124 143v522zM815 611v106h79v-106h-79z" />
    <glyph glyph-name="uni01CC" unicode="&#x1cc;" horiz-adv-x="827" 
d="M88 0v502h61l6 -56c30 46 73 66 142 66c89 0 146 -32 169 -97c10 -29 15 -68 15 -127v-288h-79v281c0 117 -33 163 -114 163c-87 0 -121 -53 -121 -189v-255h-79zM659 502h79v-514c3 -167 -45 -219 -203 -218v67c91 -4 127 37 124 143v522zM659 611v106h79v-106h-79z" />
    <glyph glyph-name="uni01F1" unicode="&#x1f1;" horiz-adv-x="1181" 
d="M104 0v714h228c174 3 264 -92 259 -272v-170c5 -180 -85 -274 -259 -272h-228zM187 69h131c131 -3 190 63 190 211v154c0 148 -59 214 -190 211h-131v-576zM688 0v59l331 585h-313v70h406v-59l-331 -585h346v-70h-439z" />
    <glyph glyph-name="uni01F2" unicode="&#x1f2;" horiz-adv-x="1112" 
d="M104 0v714h228c174 3 264 -92 259 -272v-170c5 -180 -85 -274 -259 -272h-228zM187 69h131c131 -3 190 63 190 211v154c0 148 -59 214 -190 211h-131v-576zM682 0v51l255 385h-235v66h334v-51l-255 -385h271v-66h-370z" />
    <glyph glyph-name="uni01F3" unicode="&#x1f3;" horiz-adv-x="1040" 
d="M414 0l-5 43c-3 -2 -4 -4 -5 -4c-5 -5 -9 -9 -14 -13c-22 -21 -74 -35 -129 -35c-131 0 -190 70 -190 222v76c0 153 59 223 188 223c44 0 82 -9 110 -25c4 -3 14 -10 28 -23v250h79v-714h-62zM150 284v-66c0 -109 39 -161 122 -161s125 51 125 153v82
c0 103 -42 154 -125 154s-122 -52 -122 -162zM609 0v51l256 385h-236v66h335v-51l-256 -385h272v-66h-371z" />
    <glyph glyph-name="uni01D0" unicode="&#x1d0;" horiz-adv-x="255" 
d="M88 0v502h79v-502h-79zM128 638l68 80h84l-127 -133h-51l-127 133h84z" />
    <glyph glyph-name="uni01CF" unicode="&#x1cf;" horiz-adv-x="291" 
d="M104 0v714h83v-714h-83zM146 845l68 81h84l-127 -134h-51l-127 134h84z" />
    <glyph glyph-name="uni2003" unicode="&#x2003;" horiz-adv-x="1000" 
 />
    <glyph glyph-name="uni2002" unicode="&#x2002;" horiz-adv-x="500" 
 />
    <glyph glyph-name="uni2004" unicode="&#x2004;" horiz-adv-x="333" 
 />
    <glyph glyph-name="uni2005" unicode="&#x2005;" horiz-adv-x="250" 
 />
    <glyph glyph-name="uni2009" unicode="&#x2009;" horiz-adv-x="200" 
 />
    <glyph glyph-name="uni2006" unicode="&#x2006;" horiz-adv-x="167" 
 />
    <glyph glyph-name="uni200A" unicode="&#x200a;" horiz-adv-x="125" 
 />
    <glyph glyph-name="uni2008" unicode="&#x2008;" horiz-adv-x="0" 
 />
    <glyph glyph-name="uni2007" unicode="&#x2007;" 
 />
    <glyph glyph-name="uni00A0" unicode="&#xa0;" horiz-adv-x="200" 
 />
    <glyph glyph-name="uni2218" unicode="&#x2218;" 
d="M270 532c98 0 174 -73 174 -169s-76 -170 -174 -170c-100 0 -175 73 -175 171c0 94 77 168 175 168zM270 488c-73 0 -128 -54 -128 -124c0 -73 54 -127 128 -127c72 0 127 54 127 126c0 71 -55 125 -127 125z" />
    <glyph glyph-name="openbullet" unicode="&#x25e6;" 
d="M270 532c98 0 174 -73 174 -169s-76 -170 -174 -170c-100 0 -175 73 -175 171c0 94 77 168 175 168zM270 488c-73 0 -128 -54 -128 -124c0 -73 54 -127 128 -127c72 0 127 54 127 126c0 71 -55 125 -127 125z" />
    <glyph glyph-name="filledrect" unicode="&#x25ac;" 
d="M113 205v315h313v-315h-313z" />
    <glyph glyph-name="uni25B8" unicode="&#x25b8;" 
d="M120 173v379l378 -190z" />
    <glyph glyph-name="uni25C2" unicode="&#x25c2;" 
d="M420 173l-378 189l378 190v-379z" />
    <glyph glyph-name="uni25B4" unicode="&#x25b4;" 
d="M80 200l190 379l189 -379h-379z" />
    <glyph glyph-name="uni25BE" unicode="&#x25be;" 
d="M80 525h379l-189 -379z" />
    <glyph glyph-name="arrowright" unicode="&#x2192;" horiz-adv-x="800" 
d="M66 328v70h574l-186 185l50 50l249 -255v-30l-249 -255l-50 50l186 185h-574z" />
    <glyph glyph-name="arrowleft" unicode="&#x2190;" horiz-adv-x="800" 
d="M734 328h-574l186 -185l-50 -50l-249 255v30l249 255l50 -50l-186 -185h574v-70z" />
    <glyph glyph-name="arrowboth" unicode="&#x2194;" horiz-adv-x="800" 
d="M653 328h-506l170 -169l-49 -50l-234 239v30l234 239l49 -50l-170 -169h506l-169 169l49 50l234 -239v-30l-234 -239l-49 50z" />
    <glyph glyph-name="arrowup" unicode="&#x2191;" horiz-adv-x="800" 
d="M347 0v607l-185 -185l-49 50l254 250h31l254 -250l-49 -50l-185 185v-607h-71z" />
    <glyph glyph-name="arrowdown" unicode="&#x2193;" horiz-adv-x="800" 
d="M347 107v607h71v-607l185 185l49 -50l-254 -250h-31l-254 250l49 50z" />
    <glyph glyph-name="arrowupdn" unicode="&#x2195;" horiz-adv-x="800" 
d="M348 92v530l-170 -169l-49 50l239 233h30l239 -233l-50 -50l-169 169v-530l169 169l50 -50l-239 -233h-30l-239 233l49 50z" />
    <glyph glyph-name="lozenge" unicode="&#x25ca;" 
d="M7 348l263 377l262 -377l-262 -376zM96 348l174 -253l173 253l-173 254z" />
    <glyph glyph-name="Delta" unicode="&#x2206;" 
d="M572 0h-601l266 714h70zM460 67l-188 530l-189 -530h377z" />
    <glyph glyph-name="notequal" unicode="&#x2260;" 
d="M49 252v63h163l45 97h-208v63h237l54 118l60 -27l-42 -91h134v-63h-163l-45 -97h208v-63h-237l-54 -118l-60 27l42 91h-134z" />
    <glyph glyph-name="radical" unicode="&#x221a;" 
d="M201 0l-105 298h-76v68h135l84 -259l203 763h256v-59h-192l-221 -811h-84z" />
    <glyph glyph-name="integral" unicode="&#x222b;" horiz-adv-x="434" 
d="M87 -93l14 64c21 -7 27 -8 39 -8c28 0 48 11 57 33c6 16 8 32 8 88v503c0 77 4 109 18 141c19 42 56 63 111 63c23 0 40 -2 68 -9l-14 -65c-18 6 -27 8 -40 8c-28 0 -47 -11 -56 -33c-6 -16 -8 -33 -8 -85v-506c0 -78 -4 -109 -19 -142c-18 -41 -55 -62 -110 -62
c-23 0 -39 2 -68 10z" />
    <glyph glyph-name="similar" unicode="&#x223c;" 
d="M96 298l-52 12c28 90 64 125 130 125c39 0 62 -9 110 -42c46 -31 61 -38 84 -38c34 0 58 22 77 71l51 -15c-28 -84 -66 -119 -131 -119c-36 0 -59 9 -105 41c-48 33 -61 39 -86 39c-35 0 -59 -22 -78 -74z" />
    <glyph glyph-name="approxequal" unicode="&#x2248;" 
d="M96 214l-52 12c28 90 64 125 130 125c39 0 62 -9 110 -42c46 -32 62 -39 84 -39c34 0 58 22 77 71l51 -15c-28 -84 -66 -119 -131 -119c-36 0 -58 9 -105 42c-48 33 -61 39 -86 39c-35 0 -59 -23 -78 -74zM96 383l-52 12c28 90 64 125 130 125c39 0 61 -9 110 -43
c46 -32 61 -39 84 -39c34 0 58 23 77 72l51 -15c-28 -85 -66 -119 -131 -119c-36 0 -58 8 -105 42c-48 33 -61 39 -86 39c-35 0 -59 -23 -78 -74z" />
    <glyph glyph-name="uni2243" unicode="&#x2243;" 
d="M42 252v63h442v-63h-442zM89 383l-52 12c28 90 64 125 130 125c39 0 61 -9 110 -43c46 -32 61 -39 84 -39c34 0 58 23 77 72l51 -15c-28 -85 -66 -119 -131 -119c-36 0 -58 8 -105 42c-48 33 -61 39 -86 39c-35 0 -59 -23 -78 -74z" />
    <glyph glyph-name="lessequal" unicode="&#x2264;" 
d="M142 377l316 -150v-76l-409 200v51l409 201v-77zM49 0v66h409v-66h-409z" />
    <glyph glyph-name="greaterequal" unicode="&#x2265;" 
d="M398 377l-316 149v77l409 -201v-51l-409 -200v76zM82 0v66h409v-66h-409z" />
    <glyph glyph-name="infinity" unicode="&#x221e;" horiz-adv-x="746" 
d="M373 415l7 9c28 39 35 47 59 63c29 19 62 28 100 28c93 0 153 -60 153 -152c0 -93 -60 -152 -154 -152c-48 0 -88 15 -121 45c-8 7 -22 25 -44 55c-2 -3 -4 -6 -7 -10c-26 -38 -35 -47 -58 -62c-30 -19 -61 -28 -100 -28c-93 0 -153 59 -153 152c0 92 60 152 153 152
c48 0 88 -15 122 -45c7 -6 21 -25 43 -55zM341 363l-6 10c-32 51 -78 82 -121 82c-56 0 -94 -38 -94 -92c0 -55 38 -93 94 -93c44 0 82 26 120 82zM406 363l7 -11c37 -55 76 -82 119 -82c57 0 95 38 95 93c0 54 -38 92 -94 92c-44 0 -89 -31 -121 -82z" />
    <glyph glyph-name="product" unicode="&#x220f;" horiz-adv-x="583" 
d="M69 -206v920h444v-920h-81v848h-282v-848h-81z" />
    <glyph glyph-name="summation" unicode="&#x2211;" horiz-adv-x="561" 
d="M58 -206v51l210 437l-200 377v55h458v-70h-356l194 -362l-196 -418h369v-70h-479z" />
    <glyph glyph-name="afii61289" unicode="&#x2113;" 
d="M174 218c-31 -34 -64 -64 -71 -64s-15 13 -15 24s4 17 21 33c28 26 42 41 72 76c59 340 105 444 193 444c47 0 78 -38 78 -93c0 -63 -31 -146 -79 -217c-28 -41 -67 -86 -116 -136c-17 -94 -29 -180 -29 -208c0 -25 8 -37 26 -37c22 0 31 10 56 58c9 18 16 24 26 24
c9 0 15 -7 15 -18c0 -22 -16 -55 -38 -81c-23 -26 -49 -39 -78 -39c-50 0 -74 32 -74 95c0 29 5 80 13 139zM266 354c45 52 67 82 91 125c29 54 47 112 47 153c0 26 -11 44 -28 44c-42 0 -68 -75 -110 -322z" />
    <glyph glyph-name="partialdiff" unicode="&#x2202;" 
d="M362 473l-1 2l-8 15c-24 48 -37 73 -39 76c-47 55 -104 88 -174 100l10 53c92 -10 173 -53 223 -120c64 -82 102 -200 103 -317v-70c0 -151 -66 -221 -208 -221c-139 0 -205 71 -205 221v70c0 147 65 221 194 221c46 0 77 -9 105 -30zM398 216v62c0 110 -41 161 -128 161
c-88 0 -129 -52 -129 -161v-62c0 -109 41 -160 129 -160c87 0 128 51 128 160z" />
    <glyph glyph-name="underscoredbl" unicode="&#x2017;" horiz-adv-x="470" 
d="M-25 -214v48h520v-48h-520zM-25 -128v48h520v-48h-520z" />
    <glyph glyph-name="uni203E" unicode="&#x203e;" horiz-adv-x="470" 
d="M-25 811v59h520v-59h-520z" />
    <glyph glyph-name="emptyset" unicode="&#x2205;" 
d="M354 580l92 166l46 -20l-93 -169c64 -48 94 -109 94 -191c0 -136 -95 -233 -228 -233c-28 0 -53 4 -86 15l-101 -185l-46 20l101 185c-68 46 -102 111 -102 198c0 66 21 123 63 165c41 41 101 67 158 67c28 0 59 -6 102 -18zM158 218l172 312c-37 11 -57 15 -77 15
c-40 0 -86 -19 -116 -49c-33 -32 -50 -77 -50 -129c0 -64 19 -104 71 -149zM374 506l-170 -309c22 -8 41 -11 62 -11c99 0 171 75 171 178c0 59 -17 99 -63 142z" />
    <glyph glyph-name="uni2126" unicode="&#x2126;" horiz-adv-x="676" 
d="M75 0v61h149v31c-90 31 -142 127 -137 254v99c0 100 17 157 59 204c46 51 105 74 192 74c93 0 157 -27 202 -86c35 -45 49 -100 49 -192v-99c5 -127 -47 -223 -137 -254v-31h149v-61h-214v138c81 18 122 91 119 212v87c0 78 -11 122 -39 159c-29 39 -69 57 -129 57
c-64 0 -107 -21 -136 -66c-23 -37 -32 -78 -32 -150v-87c-3 -121 38 -194 119 -212v-138h-214z" />
    <glyph glyph-name="uni2196" unicode="&#x2196;" horiz-adv-x="800" 
d="M624 95l-410 410v-262h-70v356l26 26h355v-70h-262l410 -411z" />
    <glyph glyph-name="uni2198" unicode="&#x2198;" horiz-adv-x="800" 
d="M175 629l411 -410v262h70v-356l-26 -26h-356v70h263l-411 410z" />
    <glyph glyph-name="uni2197" unicode="&#x2197;" horiz-adv-x="800" 
d="M175 95l-49 49l411 411h-263v70h356l26 -26v-356h-70v262z" />
    <glyph glyph-name="uni2199" unicode="&#x2199;" horiz-adv-x="800" 
d="M624 629l49 -50l-410 -410h262v-70h-355l-26 26v356h70v-262z" />
    <glyph glyph-name="estimated" unicode="&#x212e;" horiz-adv-x="600" 
d="M545 320h-393v-135c13 -41 21 -59 35 -81c23 -34 67 -54 118 -54c77 0 136 44 163 123h58c-18 -59 -28 -81 -49 -106c-41 -50 -101 -77 -171 -77c-157 0 -251 127 -251 339c0 213 97 348 250 348c100 0 179 -58 216 -159c17 -48 24 -102 24 -198zM458 372v117
c-7 25 -14 41 -27 60c-34 49 -70 69 -128 69c-74 0 -114 -33 -151 -128v-118h306z" />
    <glyph glyph-name="Ohorn" unicode="&#x1a0;" horiz-adv-x="701" 
d="M629 724h71c5 -15 7 -24 7 -37c0 -43 -21 -84 -59 -114c-18 -14 -30 -22 -66 -43c5 -30 7 -50 7 -85v-176c0 -101 -16 -157 -59 -204c-46 -51 -105 -74 -192 -74c-93 0 -157 27 -202 86c-35 45 -49 100 -49 192v176c0 100 17 158 59 205c46 51 105 74 192 74
c119 0 196 -47 233 -143c54 35 70 56 70 96c0 17 -3 29 -12 47zM506 277v160c0 79 -10 123 -39 160c-29 39 -69 57 -129 57c-64 0 -107 -21 -136 -67c-23 -37 -32 -77 -32 -150v-160c0 -79 10 -122 39 -159c29 -39 69 -57 129 -57c64 0 107 21 136 66c23 37 32 77 32 150z
" />
    <glyph glyph-name="ohorn" unicode="&#x1a1;" horiz-adv-x="582" 
d="M521 512h72c5 -16 6 -26 6 -40c0 -61 -32 -103 -116 -150c2 -19 3 -32 3 -44v-66c0 -152 -65 -221 -209 -221c-141 0 -206 70 -206 221v78c0 152 66 222 208 222c111 0 176 -45 198 -136l6 4c39 29 50 48 50 84c0 18 -3 29 -12 48zM407 217v68c0 110 -41 161 -129 161
c-87 0 -128 -51 -128 -161v-68c0 -109 41 -160 128 -160c88 0 129 51 129 160z" />
    <glyph glyph-name="Uhorn" unicode="&#x1af;" horiz-adv-x="728" 
d="M101 714h83v-452c0 -72 7 -107 26 -138c29 -44 68 -63 135 -63c71 0 114 22 141 73c14 28 20 63 20 128v452h83v-149c70 33 95 62 95 110c0 19 -3 31 -12 49h72c5 -16 6 -25 6 -40c0 -71 -38 -112 -161 -174v-248c0 -101 -10 -146 -43 -188c-44 -58 -106 -83 -201 -83
c-101 0 -168 30 -210 95c-26 40 -34 83 -34 176v452z" />
    <glyph glyph-name="uhorn" unicode="&#x1b0;" horiz-adv-x="598" 
d="M84 502h79v-280c0 -49 4 -77 13 -101c16 -41 49 -62 96 -62c83 0 116 53 116 188v255h79v-149c72 35 95 62 95 110c0 19 -3 30 -12 49h72c5 -17 6 -26 6 -40c0 -50 -23 -88 -75 -125c-19 -14 -33 -22 -86 -49v-298h-61l-6 56c-29 -45 -71 -65 -138 -65
c-86 0 -141 33 -163 97c-10 28 -15 69 -15 126v288z" />
    <glyph glyph-name="uni1EA0" unicode="&#x1ea0;" horiz-adv-x="600" 
d="M457 156h-313l-54 -156h-90l261 714h79l261 -714h-90zM436 225l-135 383l-135 -383h270zM261 -193v104h78v-104h-78z" />
    <glyph glyph-name="uni1EA1" unicode="&#x1ea1;" horiz-adv-x="525" 
d="M361 295v35c0 41 -5 61 -18 80c-17 23 -50 36 -92 36c-49 0 -91 -18 -120 -51l-55 42c43 50 103 75 182 75c78 0 133 -25 161 -73c16 -29 21 -59 21 -121v-318h-63l-6 36c-32 -33 -70 -45 -146 -45c-129 0 -176 40 -176 149c0 116 48 155 191 155h121zM361 235h-113
c-89 0 -123 -26 -123 -93c0 -64 29 -85 118 -85c55 0 86 10 104 33c11 14 14 29 14 67v78zM223 -193v104h78v-104h-78z" />
    <glyph glyph-name="uni1EA2" unicode="&#x1ea2;" horiz-adv-x="600" 
d="M457 156h-313l-54 -156h-90l261 714h79l261 -714h-90zM436 225l-135 383l-135 -383h270zM335 779h-58c0 39 2 45 17 69c18 26 20 31 20 41c0 15 -11 24 -31 24c-14 0 -27 -3 -48 -13l-14 46c31 12 47 15 74 15c55 0 86 -25 86 -68c0 -21 -5 -31 -28 -61
c-16 -21 -18 -25 -18 -53z" />
    <glyph glyph-name="uni1EA3" unicode="&#x1ea3;" horiz-adv-x="525" 
d="M361 295v35c0 41 -5 61 -18 80c-17 23 -50 36 -92 36c-49 0 -91 -18 -120 -51l-55 42c43 50 103 75 182 75c78 0 133 -25 161 -73c16 -29 21 -59 21 -121v-318h-63l-6 36c-32 -33 -70 -45 -146 -45c-129 0 -176 40 -176 149c0 116 48 155 191 155h121zM361 235h-113
c-89 0 -123 -26 -123 -93c0 -64 29 -85 118 -85c55 0 86 10 104 33c11 14 14 29 14 67v78zM301 575h-59c1 44 2 46 28 84c7 10 10 18 10 26c0 16 -11 24 -31 24c-14 0 -27 -3 -48 -13l-15 47c32 11 48 14 75 14c55 0 86 -25 86 -68c0 -21 -5 -32 -28 -61
c-17 -21 -18 -25 -18 -53z" />
    <glyph glyph-name="uni1EA4" unicode="&#x1ea4;" horiz-adv-x="600" 
d="M457 156h-313l-54 -156h-90l261 714h79l261 -714h-90zM436 225l-135 383l-135 -383h270zM263 896l57 113h76l-85 -113h-48zM300 819l-67 -57h-81l124 107h48l124 -107h-81z" />
    <glyph glyph-name="uni1EA5" unicode="&#x1ea5;" horiz-adv-x="525" 
d="M361 295v35c0 41 -5 61 -18 80c-17 23 -50 36 -92 36c-49 0 -91 -18 -120 -51l-55 42c43 50 103 75 182 75c78 0 133 -25 161 -73c16 -29 21 -59 21 -121v-318h-63l-6 36c-32 -33 -70 -45 -146 -45c-129 0 -176 40 -176 149c0 116 48 155 191 155h121zM361 235h-113
c-89 0 -123 -26 -123 -93c0 -64 29 -85 118 -85c55 0 86 10 104 33c11 14 14 29 14 67v78zM236 688l56 114h76l-85 -114h-47zM273 612l-68 -57h-80l123 107h49l124 -107h-81z" />
    <glyph glyph-name="uni1EA6" unicode="&#x1ea6;" horiz-adv-x="600" 
d="M457 156h-313l-54 -156h-90l261 714h79l261 -714h-90zM436 225l-135 383l-135 -383h270zM336 896h-48l-85 113h76zM300 819l-67 -57h-81l124 107h49l123 -107h-81z" />
    <glyph glyph-name="uni1EA7" unicode="&#x1ea7;" horiz-adv-x="525" 
d="M361 295v35c0 41 -5 61 -18 80c-17 23 -50 36 -92 36c-49 0 -91 -18 -120 -51l-55 42c43 50 103 75 182 75c78 0 133 -25 161 -73c16 -29 21 -59 21 -121v-318h-63l-6 36c-32 -33 -70 -45 -146 -45c-129 0 -176 40 -176 149c0 116 48 155 191 155h121zM361 235h-113
c-89 0 -123 -26 -123 -93c0 -64 29 -85 118 -85c55 0 86 10 104 33c11 14 14 29 14 67v78zM308 688h-47l-85 114h76zM273 612l-68 -57h-81l124 107h49l124 -107h-81z" />
    <glyph glyph-name="uni1EA8" unicode="&#x1ea8;" horiz-adv-x="600" 
d="M457 156h-313l-54 -156h-90l261 714h79l261 -714h-90zM436 225l-135 383l-135 -383h270zM326 880h-52c0 30 2 34 25 62c5 6 8 13 8 19c0 9 -10 14 -27 14c-13 0 -24 -3 -42 -11l-14 39c25 9 42 12 67 12c47 0 75 -20 75 -53c0 -15 -5 -24 -25 -45
c-14 -14 -14 -17 -15 -37zM297 817l-67 -55h-81l124 102h49l124 -102h-81z" />
    <glyph glyph-name="uni1EA9" unicode="&#x1ea9;" horiz-adv-x="525" 
d="M361 295v35c0 41 -5 61 -18 80c-17 23 -50 36 -92 36c-49 0 -91 -18 -120 -51l-55 42c43 50 103 75 182 75c78 0 133 -25 161 -73c16 -29 21 -59 21 -121v-318h-63l-6 36c-32 -33 -70 -45 -146 -45c-129 0 -176 40 -176 149c0 116 48 155 191 155h121zM361 235h-113
c-89 0 -123 -26 -123 -93c0 -64 29 -85 118 -85c55 0 86 10 104 33c11 14 14 29 14 67v78zM299 673h-53c1 27 3 33 16 51c15 18 17 22 17 29c0 10 -9 15 -27 15c-13 0 -23 -3 -42 -11l-13 39c25 9 41 12 66 12c48 0 75 -19 75 -53c0 -15 -6 -25 -25 -45
c-13 -14 -14 -17 -14 -37zM270 610l-67 -55h-81l123 102h49l124 -102h-81z" />
    <glyph glyph-name="uni1EAA" unicode="&#x1eaa;" horiz-adv-x="600" 
d="M457 156h-313l-54 -156h-90l261 714h79l261 -714h-90zM436 225l-135 383l-135 -383h270zM216 903h-45c19 74 41 99 86 99c23 0 38 -7 59 -28c21 -23 30 -29 41 -29c15 0 25 15 33 50h45c-17 -75 -36 -99 -78 -99c-25 0 -40 7 -61 30c-20 21 -29 27 -40 27
c-17 0 -32 -19 -40 -50zM304 819l-67 -57h-81l124 107h49l123 -107h-80z" />
    <glyph glyph-name="uni1EAB" unicode="&#x1eab;" horiz-adv-x="525" 
d="M361 295v35c0 41 -5 61 -18 80c-17 23 -50 36 -92 36c-49 0 -91 -18 -120 -51l-55 42c43 50 103 75 182 75c78 0 133 -25 161 -73c16 -29 21 -59 21 -121v-318h-63l-6 36c-32 -33 -70 -45 -146 -45c-129 0 -176 40 -176 149c0 116 48 155 191 155h121zM361 235h-113
c-89 0 -123 -26 -123 -93c0 -64 29 -85 118 -85c55 0 86 10 104 33c11 14 14 29 14 67v78zM178 695h-44c19 74 41 100 86 100c23 0 38 -7 58 -28c22 -23 31 -29 42 -29c15 0 24 15 32 50h45c-17 -76 -35 -100 -78 -100c-25 0 -39 7 -60 30c-20 21 -29 27 -41 27
c-16 0 -32 -19 -40 -50zM267 612l-67 -57h-81l123 107h49l124 -107h-81z" />
    <glyph glyph-name="uni1EAC" unicode="&#x1eac;" horiz-adv-x="600" 
d="M457 156h-313l-54 -156h-90l261 714h79l261 -714h-90zM436 225l-135 383l-135 -383h270zM300 874l-68 -80h-84l126 133h52l127 -133h-85zM261 -193v104h78v-104h-78z" />
    <glyph glyph-name="uni1EAD" unicode="&#x1ead;" horiz-adv-x="525" 
d="M361 295v35c0 41 -5 61 -18 80c-17 23 -50 36 -92 36c-49 0 -91 -18 -120 -51l-55 42c43 50 103 75 182 75c78 0 133 -25 161 -73c16 -29 21 -59 21 -121v-318h-63l-6 36c-32 -33 -70 -45 -146 -45c-129 0 -176 40 -176 149c0 116 48 155 191 155h121zM361 235h-113
c-89 0 -123 -26 -123 -93c0 -64 29 -85 118 -85c55 0 86 10 104 33c11 14 14 29 14 67v78zM263 667l-69 -81h-84l127 134h51l127 -134h-84zM223 -193v104h78v-104h-78z" />
    <glyph glyph-name="uni1EAE" unicode="&#x1eae;" horiz-adv-x="600" 
d="M457 156h-313l-54 -156h-90l261 714h79l261 -714h-90zM436 225l-135 383l-135 -383h270zM263 896l57 113h76l-85 -113h-48zM165 884h52c6 -49 28 -67 83 -67c56 0 77 17 83 67h52c-2 -42 -6 -59 -17 -77c-20 -33 -57 -48 -118 -48c-65 0 -104 17 -122 56
c-8 16 -11 32 -13 69z" />
    <glyph glyph-name="uni1EAF" unicode="&#x1eaf;" horiz-adv-x="525" 
d="M361 295v35c0 41 -5 61 -18 80c-17 23 -50 36 -92 36c-49 0 -91 -18 -120 -51l-55 42c43 50 103 75 182 75c78 0 133 -25 161 -73c16 -29 21 -59 21 -121v-318h-63l-6 36c-32 -33 -70 -45 -146 -45c-129 0 -176 40 -176 149c0 116 48 155 191 155h121zM361 235h-113
c-89 0 -123 -26 -123 -93c0 -64 29 -85 118 -85c55 0 86 10 104 33c11 14 14 29 14 67v78zM226 688l56 114h76l-85 -114h-47zM127 676h52c6 -51 28 -68 84 -68c55 0 77 18 83 68h52c-3 -42 -6 -59 -17 -77c-21 -33 -57 -48 -119 -48c-65 0 -103 17 -122 56
c-8 16 -11 32 -13 69z" />
    <glyph glyph-name="uni1EB0" unicode="&#x1eb0;" horiz-adv-x="600" 
d="M457 156h-313l-54 -156h-90l261 714h79l261 -714h-90zM436 225l-135 383l-135 -383h270zM339 896h-47l-85 113h76zM165 884h52c6 -49 28 -67 83 -67c56 0 77 17 83 67h52c-2 -42 -6 -59 -17 -77c-20 -33 -57 -48 -118 -48c-65 0 -104 17 -122 56c-8 16 -11 32 -13 69z
" />
    <glyph glyph-name="uni1EB1" unicode="&#x1eb1;" horiz-adv-x="525" 
d="M361 295v35c0 41 -5 61 -18 80c-17 23 -50 36 -92 36c-49 0 -91 -18 -120 -51l-55 42c43 50 103 75 182 75c78 0 133 -25 161 -73c16 -29 21 -59 21 -121v-318h-63l-6 36c-32 -33 -70 -45 -146 -45c-129 0 -176 40 -176 149c0 116 48 155 191 155h121zM361 235h-113
c-89 0 -123 -26 -123 -93c0 -64 29 -85 118 -85c55 0 86 10 104 33c11 14 14 29 14 67v78zM304 688h-47l-85 114h76zM127 676h52c6 -51 28 -68 84 -68c55 0 77 18 83 68h52c-3 -42 -6 -59 -17 -77c-21 -33 -57 -48 -119 -48c-65 0 -103 17 -122 56c-8 16 -11 32 -13 69z" />
    <glyph glyph-name="uni1EB2" unicode="&#x1eb2;" horiz-adv-x="600" 
d="M457 156h-313l-54 -156h-90l261 714h79l261 -714h-90zM436 225l-135 383l-135 -383h270zM325 871h-52c0 28 2 34 16 53c15 20 17 23 17 32c0 12 -10 19 -28 19c-12 0 -24 -3 -41 -11l-14 39c25 9 42 12 66 12c48 0 76 -21 76 -58c0 -14 -3 -19 -23 -42
c-13 -15 -17 -24 -17 -39v-5zM165 884h51c7 -52 28 -69 85 -69c55 0 77 18 83 69h51c-2 -42 -6 -59 -17 -77c-20 -33 -57 -48 -118 -48c-65 0 -104 17 -122 56c-8 16 -11 32 -13 69z" />
    <glyph glyph-name="uni1EB3" unicode="&#x1eb3;" horiz-adv-x="525" 
d="M361 295v35c0 41 -5 61 -18 80c-17 23 -50 36 -92 36c-49 0 -91 -18 -120 -51l-55 42c43 50 103 75 182 75c78 0 133 -25 161 -73c16 -29 21 -59 21 -121v-318h-63l-6 36c-32 -33 -70 -45 -146 -45c-129 0 -176 40 -176 149c0 116 48 155 191 155h121zM361 235h-113
c-89 0 -123 -26 -123 -93c0 -64 29 -85 118 -85c55 0 86 10 104 33c11 14 14 29 14 67v78zM288 664h-53c1 28 3 34 16 53c15 20 17 24 17 32c0 12 -10 19 -28 19c-12 0 -23 -3 -41 -11l-13 39c25 9 41 12 65 12c48 0 76 -21 76 -58c0 -14 -3 -19 -23 -42
c-14 -17 -15 -20 -16 -44zM127 676h52c6 -52 28 -69 84 -69c55 0 77 18 84 69h51c-3 -42 -6 -59 -17 -77c-21 -33 -57 -48 -119 -48c-65 0 -103 17 -122 56c-8 16 -11 32 -13 69z" />
    <glyph glyph-name="uni1EB4" unicode="&#x1eb4;" horiz-adv-x="600" 
d="M457 156h-313l-54 -156h-90l261 714h79l261 -714h-90zM436 225l-135 383l-135 -383h270zM207 912h-45c19 73 42 99 86 99c24 0 39 -7 59 -28c21 -23 31 -29 42 -29c15 0 25 17 32 50h45c-17 -75 -35 -99 -78 -99c-25 0 -40 7 -61 30c-20 21 -28 27 -40 27
c-17 0 -31 -18 -40 -50zM161 877h50c6 -47 28 -64 82 -64c56 0 77 16 83 64h50c-2 -40 -6 -56 -17 -73c-20 -31 -55 -45 -115 -45c-65 0 -102 16 -120 52c-8 16 -11 31 -13 66z" />
    <glyph glyph-name="uni1EB5" unicode="&#x1eb5;" horiz-adv-x="525" 
d="M361 295v35c0 41 -5 61 -18 80c-17 23 -50 36 -92 36c-49 0 -91 -18 -120 -51l-55 42c43 50 103 75 182 75c78 0 133 -25 161 -73c16 -29 21 -59 21 -121v-318h-63l-6 36c-32 -33 -70 -45 -146 -45c-129 0 -176 40 -176 149c0 116 48 155 191 155h121zM361 235h-113
c-89 0 -123 -26 -123 -93c0 -64 29 -85 118 -85c55 0 86 10 104 33c11 14 14 29 14 67v78zM180 704h-45c19 73 41 100 86 100c23 0 38 -7 59 -28c21 -23 30 -29 41 -29c15 0 26 16 33 50h44c-16 -76 -35 -100 -78 -100c-25 0 -39 7 -60 30c-20 21 -29 27 -40 27
c-17 0 -32 -19 -40 -50zM133 670h50c7 -47 28 -64 83 -64s76 16 83 64h50c-3 -40 -6 -56 -17 -73c-20 -31 -56 -45 -116 -45c-64 0 -101 16 -120 52c-8 16 -10 31 -13 66z" />
    <glyph glyph-name="uni1EB6" unicode="&#x1eb6;" horiz-adv-x="600" 
d="M457 156h-313l-54 -156h-90l261 714h79l261 -714h-90zM436 225l-135 383l-135 -383h270zM161 923h54c7 -57 28 -77 85 -77s79 20 85 77h54c-2 -47 -6 -65 -17 -85c-22 -37 -58 -53 -122 -53c-68 0 -107 19 -126 61c-8 18 -11 36 -13 77zM261 -193v104h78v-104h-78z" />
    <glyph glyph-name="uni1EB7" unicode="&#x1eb7;" horiz-adv-x="525" 
d="M361 295v35c0 41 -5 61 -18 80c-17 23 -50 36 -92 36c-49 0 -91 -18 -120 -51l-55 42c43 50 103 75 182 75c78 0 133 -25 161 -73c16 -29 21 -59 21 -121v-318h-63l-6 36c-32 -33 -70 -45 -146 -45c-129 0 -176 40 -176 149c0 116 48 155 191 155h121zM361 235h-113
c-89 0 -123 -26 -123 -93c0 -64 29 -85 118 -85c55 0 86 10 104 33c11 14 14 29 14 67v78zM135 715h54c7 -57 29 -77 85 -77c57 0 79 20 86 77h54c-2 -46 -6 -65 -18 -85c-21 -37 -58 -53 -121 -53c-68 0 -107 19 -126 62c-8 17 -12 35 -14 76zM223 -193v104h78v-104h-78z
" />
    <glyph glyph-name="uni1EB8" unicode="&#x1eb8;" horiz-adv-x="579" 
d="M104 0v714h417v-70h-335v-248h286v-70h-286v-256h336v-70h-418zM279 -193v104h78v-104h-78z" />
    <glyph glyph-name="uni1EB9" unicode="&#x1eb9;" horiz-adv-x="543" 
d="M151 235v-21c0 -102 49 -157 140 -157c53 0 86 14 115 49l59 -38c-40 -54 -94 -77 -182 -77c-144 0 -212 76 -212 237v43c0 166 63 241 204 241s204 -75 204 -241v-36h-328zM151 295h252v8c0 39 -10 76 -27 100c-21 30 -51 43 -98 43c-54 0 -85 -15 -106 -51
c-13 -24 -21 -57 -21 -92v-8zM232 -193v104h78v-104h-78z" />
    <glyph glyph-name="uni1EBA" unicode="&#x1eba;" horiz-adv-x="579" 
d="M104 0v714h417v-70h-335v-248h286v-70h-286v-256h336v-70h-418zM354 779h-59c1 39 2 46 18 69c17 26 19 31 19 41c0 15 -11 24 -31 24c-14 0 -27 -4 -47 -13l-15 46c31 12 48 15 74 15c55 0 86 -25 86 -68c0 -21 -5 -32 -28 -61c-16 -21 -17 -25 -17 -53z" />
    <glyph glyph-name="uni1EBB" unicode="&#x1ebb;" horiz-adv-x="543" 
d="M151 235v-21c0 -102 49 -157 140 -157c53 0 86 14 115 49l59 -38c-40 -54 -94 -77 -182 -77c-144 0 -212 76 -212 237v43c0 166 63 241 204 241s204 -75 204 -241v-36h-328zM151 295h252v8c0 39 -10 76 -27 100c-21 30 -51 43 -98 43c-54 0 -85 -15 -106 -51
c-13 -24 -21 -57 -21 -92v-8zM313 575h-59c1 43 2 46 28 84c7 10 10 18 10 26c0 16 -11 24 -31 24c-14 0 -26 -3 -48 -13l-14 47c31 11 47 14 74 14c55 0 86 -25 86 -68c0 -21 -5 -31 -28 -61c-16 -21 -18 -25 -18 -53z" />
    <glyph glyph-name="uni1EBE" unicode="&#x1ebe;" horiz-adv-x="579" 
d="M104 0v714h417v-70h-335v-248h286v-70h-286v-256h336v-70h-418zM282 896l56 113h76l-84 -113h-48zM319 819l-68 -57h-80l123 107h49l124 -107h-81z" />
    <glyph glyph-name="uni1EBF" unicode="&#x1ebf;" horiz-adv-x="543" 
d="M151 235v-21c0 -102 49 -157 140 -157c53 0 86 14 115 49l59 -38c-40 -54 -94 -77 -182 -77c-144 0 -212 76 -212 237v43c0 166 63 241 204 241s204 -75 204 -241v-36h-328zM151 295h252v8c0 39 -10 76 -27 100c-21 30 -51 43 -98 43c-54 0 -85 -15 -106 -51
c-13 -24 -21 -57 -21 -92v-8zM240 688l57 114h76l-85 -114h-48zM277 612l-67 -57h-81l124 107h49l123 -107h-80z" />
    <glyph glyph-name="uni1EC0" unicode="&#x1ec0;" horiz-adv-x="579" 
d="M104 0v714h417v-70h-335v-248h286v-70h-286v-256h336v-70h-418zM355 896h-48l-85 113h76zM319 819l-68 -57h-80l123 107h49l124 -107h-81z" />
    <glyph glyph-name="uni1EC1" unicode="&#x1ec1;" horiz-adv-x="543" 
d="M151 235v-21c0 -102 49 -157 140 -157c53 0 86 14 115 49l59 -38c-40 -54 -94 -77 -182 -77c-144 0 -212 76 -212 237v43c0 166 63 241 204 241s204 -75 204 -241v-36h-328zM151 295h252v8c0 39 -10 76 -27 100c-21 30 -51 43 -98 43c-54 0 -85 -15 -106 -51
c-13 -24 -21 -57 -21 -92v-8zM313 688h-48l-84 114h75zM277 612l-67 -57h-81l124 107h49l123 -107h-80z" />
    <glyph glyph-name="uni1EC2" unicode="&#x1ec2;" horiz-adv-x="579" 
d="M104 0v714h417v-70h-335v-248h286v-70h-286v-256h336v-70h-418zM345 880h-52c0 30 2 34 24 62c5 6 8 13 8 19c0 9 -10 14 -27 14c-13 0 -23 -3 -42 -11l-13 39c25 9 41 12 66 12c47 0 75 -20 75 -53c0 -15 -5 -25 -24 -45c-14 -14 -15 -17 -15 -37zM316 817l-67 -55h-81
l124 102h49l123 -102h-80z" />
    <glyph glyph-name="uni1EC3" unicode="&#x1ec3;" horiz-adv-x="543" 
d="M151 235v-21c0 -102 49 -157 140 -157c53 0 86 14 115 49l59 -38c-40 -54 -94 -77 -182 -77c-144 0 -212 76 -212 237v43c0 166 63 241 204 241s204 -75 204 -241v-36h-328zM151 295h252v8c0 39 -10 76 -27 100c-21 30 -51 43 -98 43c-54 0 -85 -15 -106 -51
c-13 -24 -21 -57 -21 -92v-8zM303 673h-52c1 27 3 33 16 51c14 17 17 22 17 29c0 10 -9 15 -28 15c-12 0 -22 -2 -41 -11l-13 39c25 9 41 12 66 12c47 0 75 -19 75 -53c0 -15 -6 -25 -25 -45c-13 -14 -14 -16 -15 -37zM275 610l-68 -55h-80l123 102h49l124 -102h-81z" />
    <glyph glyph-name="uni1EC4" unicode="&#x1ec4;" horiz-adv-x="579" 
d="M104 0v714h417v-70h-335v-248h286v-70h-286v-256h336v-70h-418zM234 903h-44c19 74 41 99 86 99c23 0 38 -7 58 -28c22 -23 31 -29 42 -29c15 0 25 15 33 50h44c-16 -75 -35 -99 -78 -99c-25 0 -39 7 -60 30c-20 21 -29 27 -41 27c-16 0 -32 -19 -40 -50zM323 819
l-67 -57h-81l124 107h48l124 -107h-81z" />
    <glyph glyph-name="uni1EC5" unicode="&#x1ec5;" horiz-adv-x="543" 
d="M151 235v-21c0 -102 49 -157 140 -157c53 0 86 14 115 49l59 -38c-40 -54 -94 -77 -182 -77c-144 0 -212 76 -212 237v43c0 166 63 241 204 241s204 -75 204 -241v-36h-328zM151 295h252v8c0 39 -10 76 -27 100c-21 30 -51 43 -98 43c-54 0 -85 -15 -106 -51
c-13 -24 -21 -57 -21 -92v-8zM187 695h-45c19 74 42 100 86 100c24 0 39 -7 59 -28c22 -23 30 -29 42 -29c15 0 24 15 32 50h45c-17 -76 -35 -100 -78 -100c-25 0 -40 7 -61 30c-19 21 -28 27 -40 27c-17 0 -32 -19 -40 -50zM276 612l-68 -57h-80l123 107h49l124 -107h-81z
" />
    <glyph glyph-name="uni1EC6" unicode="&#x1ec6;" horiz-adv-x="579" 
d="M104 0v714h417v-70h-335v-248h286v-70h-286v-256h336v-70h-418zM315 874l-68 -80h-84l127 133h51l127 -133h-84zM279 -193v104h78v-104h-78z" />
    <glyph glyph-name="uni1EC7" unicode="&#x1ec7;" horiz-adv-x="543" 
d="M151 235v-21c0 -102 49 -157 140 -157c53 0 86 14 115 49l59 -38c-40 -54 -94 -77 -182 -77c-144 0 -212 76 -212 237v43c0 166 63 241 204 241s204 -75 204 -241v-36h-328zM151 295h252v8c0 39 -10 76 -27 100c-21 30 -51 43 -98 43c-54 0 -85 -15 -106 -51
c-13 -24 -21 -57 -21 -92v-8zM280 667l-69 -81h-84l127 134h52l126 -134h-84zM232 -193v104h78v-104h-78z" />
    <glyph glyph-name="uni1EC8" unicode="&#x1ec8;" horiz-adv-x="291" 
d="M104 0v714h83v-714h-83zM180 779h-58c1 44 1 46 27 84c7 9 10 18 10 26c0 15 -11 24 -31 24c-14 0 -27 -4 -47 -13l-15 46c31 12 48 15 74 15c55 0 86 -25 86 -68c0 -21 -5 -31 -28 -61c-16 -21 -17 -25 -18 -53z" />
    <glyph glyph-name="uni1EC9" unicode="&#x1ec9;" horiz-adv-x="255" 
d="M88 0v502h79v-502h-79zM162 575h-58c1 44 1 46 27 84c7 10 10 18 10 26c0 16 -11 24 -31 24c-14 0 -26 -3 -47 -13l-15 47c31 11 47 14 74 14c55 0 86 -25 86 -68c0 -21 -5 -31 -28 -61c-16 -21 -17 -25 -18 -53z" />
    <glyph glyph-name="uni1ECA" unicode="&#x1eca;" horiz-adv-x="291" 
d="M104 0v714h83v-714h-83zM106 -193v104h78v-104h-78z" />
    <glyph glyph-name="uni1ECB" unicode="&#x1ecb;" horiz-adv-x="255" 
d="M88 611v106h79v-106h-79zM88 0v502h79v-502h-79zM88 -193v104h78v-104h-78z" />
    <glyph glyph-name="uni1ECC" unicode="&#x1ecc;" horiz-adv-x="676" 
d="M87 269v176c0 100 17 157 59 204c46 51 105 74 192 74c93 0 157 -27 203 -86c34 -45 48 -99 48 -192v-176c0 -101 -16 -157 -59 -204c-46 -51 -105 -74 -192 -74c-93 0 -157 27 -202 86c-35 45 -49 100 -49 192zM506 277v160c0 79 -10 122 -39 159c-29 39 -69 57 -129 57
c-64 0 -107 -21 -136 -66c-23 -37 -32 -77 -32 -150v-160c0 -79 10 -122 39 -159c29 -39 69 -57 129 -57c64 0 107 21 136 66c23 37 32 77 32 150zM299 -193v104h78v-104h-78z" />
    <glyph glyph-name="uni1ECD" unicode="&#x1ecd;" horiz-adv-x="557" 
d="M71 212v78c0 151 65 222 206 222c144 0 209 -69 209 -222v-78c0 -152 -65 -221 -209 -221c-141 0 -206 70 -206 221zM407 217v68c0 110 -41 161 -129 161c-87 0 -128 -51 -128 -161v-68c0 -109 41 -160 128 -160c88 0 129 51 129 160zM239 -193v104h78v-104h-78z" />
    <glyph glyph-name="uni1ECE" unicode="&#x1ece;" horiz-adv-x="676" 
d="M87 269v176c0 100 17 157 59 204c46 51 105 74 192 74c93 0 157 -27 203 -86c34 -45 48 -99 48 -192v-176c0 -101 -16 -157 -59 -204c-46 -51 -105 -74 -192 -74c-93 0 -157 27 -202 86c-35 45 -49 100 -49 192zM506 277v160c0 79 -10 122 -39 159c-29 39 -69 57 -129 57
c-64 0 -107 -21 -136 -66c-23 -37 -32 -77 -32 -150v-160c0 -79 10 -122 39 -159c29 -39 69 -57 129 -57c64 0 107 21 136 66c23 37 32 77 32 150zM373 779h-59c1 43 2 46 28 84c7 10 10 18 10 26c0 15 -11 24 -31 24c-14 0 -27 -4 -48 -13l-14 46c30 12 47 15 74 15
c55 0 86 -25 86 -68c0 -21 -4 -31 -28 -61c-16 -21 -18 -25 -18 -53z" />
    <glyph glyph-name="uni1ECF" unicode="&#x1ecf;" horiz-adv-x="557" 
d="M71 212v78c0 151 65 222 206 222c144 0 209 -69 209 -222v-78c0 -152 -65 -221 -209 -221c-141 0 -206 70 -206 221zM407 217v68c0 110 -41 161 -129 161c-87 0 -128 -51 -128 -161v-68c0 -109 41 -160 128 -160c88 0 129 51 129 160zM313 575h-58c0 43 1 46 27 84
c7 10 10 18 10 26c0 16 -11 24 -31 24c-14 0 -26 -3 -48 -13l-14 47c31 11 47 14 74 14c55 0 86 -25 86 -68c0 -21 -5 -31 -28 -61c-16 -20 -18 -25 -18 -53z" />
    <glyph glyph-name="uni1ED0" unicode="&#x1ed0;" horiz-adv-x="676" 
d="M87 269v176c0 100 17 157 59 204c46 51 105 74 192 74c93 0 157 -27 203 -86c34 -45 48 -99 48 -192v-176c0 -101 -16 -157 -59 -204c-46 -51 -105 -74 -192 -74c-93 0 -157 27 -202 86c-35 45 -49 100 -49 192zM506 277v160c0 79 -10 122 -39 159c-29 39 -69 57 -129 57
c-64 0 -107 -21 -136 -66c-23 -37 -32 -77 -32 -150v-160c0 -79 10 -122 39 -159c29 -39 69 -57 129 -57c64 0 107 21 136 66c23 37 32 77 32 150zM301 896l57 113h75l-84 -113h-48zM338 819l-67 -57h-81l124 107h48l124 -107h-81z" />
    <glyph glyph-name="uni1ED1" unicode="&#x1ed1;" horiz-adv-x="557" 
d="M71 212v78c0 151 65 222 206 222c144 0 209 -69 209 -222v-78c0 -152 -65 -221 -209 -221c-141 0 -206 70 -206 221zM407 217v68c0 110 -41 161 -129 161c-87 0 -128 -51 -128 -161v-68c0 -109 41 -160 128 -160c88 0 129 51 129 160zM241 688l57 114h76l-85 -114h-48z
M278 612l-67 -57h-81l124 107h49l123 -107h-80z" />
    <glyph glyph-name="uni1ED2" unicode="&#x1ed2;" horiz-adv-x="676" 
d="M87 269v176c0 100 17 157 59 204c46 51 105 74 192 74c93 0 157 -27 203 -86c34 -45 48 -99 48 -192v-176c0 -101 -16 -157 -59 -204c-46 -51 -105 -74 -192 -74c-93 0 -157 27 -202 86c-35 45 -49 100 -49 192zM506 277v160c0 79 -10 122 -39 159c-29 39 -69 57 -129 57
c-64 0 -107 -21 -136 -66c-23 -37 -32 -77 -32 -150v-160c0 -79 10 -122 39 -159c29 -39 69 -57 129 -57c64 0 107 21 136 66c23 37 32 77 32 150zM374 896h-48l-85 113h76zM338 819l-67 -57h-81l124 107h49l123 -107h-81z" />
    <glyph glyph-name="uni1ED3" unicode="&#x1ed3;" horiz-adv-x="557" 
d="M71 212v78c0 151 65 222 206 222c144 0 209 -69 209 -222v-78c0 -152 -65 -221 -209 -221c-141 0 -206 70 -206 221zM407 217v68c0 110 -41 161 -129 161c-87 0 -128 -51 -128 -161v-68c0 -109 41 -160 128 -160c88 0 129 51 129 160zM314 688h-48l-84 114h75zM278 612
l-67 -57h-81l124 107h49l123 -107h-80z" />
    <glyph glyph-name="uni1ED4" unicode="&#x1ed4;" horiz-adv-x="676" 
d="M87 269v176c0 100 17 157 59 204c46 51 105 74 192 74c93 0 157 -27 203 -86c34 -45 48 -99 48 -192v-176c0 -101 -16 -157 -59 -204c-46 -51 -105 -74 -192 -74c-93 0 -157 27 -202 86c-35 45 -49 100 -49 192zM506 277v160c0 79 -10 122 -39 159c-29 39 -69 57 -129 57
c-64 0 -107 -21 -136 -66c-23 -37 -32 -77 -32 -150v-160c0 -79 10 -122 39 -159c29 -39 69 -57 129 -57c64 0 107 21 136 66c23 37 32 77 32 150zM364 880h-52c0 30 2 34 25 62c5 6 8 13 8 19c0 9 -10 14 -27 14c-13 0 -24 -3 -42 -11l-14 39c25 9 42 12 67 12
c47 0 75 -20 75 -53c0 -15 -6 -25 -25 -45c-14 -14 -15 -17 -15 -37zM335 817l-67 -55h-81l124 102h49l124 -102h-81z" />
    <glyph glyph-name="uni1ED5" unicode="&#x1ed5;" horiz-adv-x="557" 
d="M71 212v78c0 151 65 222 206 222c144 0 209 -69 209 -222v-78c0 -152 -65 -221 -209 -221c-141 0 -206 70 -206 221zM407 217v68c0 110 -41 161 -129 161c-87 0 -128 -51 -128 -161v-68c0 -109 41 -160 128 -160c88 0 129 51 129 160zM304 673h-52c1 27 2 33 16 51
c15 18 17 22 17 29c0 10 -9 15 -28 15c-13 0 -22 -2 -41 -11l-13 39c25 9 41 12 66 12c47 0 75 -19 75 -53c0 -15 -6 -25 -25 -45c-13 -14 -14 -16 -15 -37zM276 610l-68 -55h-80l123 102h49l124 -102h-81z" />
    <glyph glyph-name="uni1ED6" unicode="&#x1ed6;" horiz-adv-x="676" 
d="M87 269v176c0 100 17 157 59 204c46 51 105 74 192 74c93 0 157 -27 203 -86c34 -45 48 -99 48 -192v-176c0 -101 -16 -157 -59 -204c-46 -51 -105 -74 -192 -74c-93 0 -157 27 -202 86c-35 45 -49 100 -49 192zM506 277v160c0 79 -10 122 -39 159c-29 39 -69 57 -129 57
c-64 0 -107 -21 -136 -66c-23 -37 -32 -77 -32 -150v-160c0 -79 10 -122 39 -159c29 -39 69 -57 129 -57c64 0 107 21 136 66c23 37 32 77 32 150zM254 903h-45c19 74 41 99 86 99c23 0 38 -7 59 -28c21 -23 30 -29 41 -29c15 0 25 15 33 50h45c-17 -75 -36 -99 -79 -99
c-24 0 -39 7 -60 30c-20 21 -29 27 -40 27c-17 0 -32 -19 -40 -50zM342 819l-67 -57h-81l124 107h49l123 -107h-80z" />
    <glyph glyph-name="uni1ED7" unicode="&#x1ed7;" horiz-adv-x="557" 
d="M71 212v78c0 151 65 222 206 222c144 0 209 -69 209 -222v-78c0 -152 -65 -221 -209 -221c-141 0 -206 70 -206 221zM407 217v68c0 110 -41 161 -129 161c-87 0 -128 -51 -128 -161v-68c0 -109 41 -160 128 -160c88 0 129 51 129 160zM194 695h-45c19 74 42 100 86 100
c24 0 39 -7 59 -28c21 -23 30 -29 42 -29c15 0 24 15 32 50h45c-17 -76 -35 -100 -78 -100c-25 0 -40 7 -61 30c-19 21 -28 27 -40 27c-17 0 -32 -19 -40 -50zM283 612l-68 -57h-81l124 107h49l124 -107h-81z" />
    <glyph glyph-name="uni1ED8" unicode="&#x1ed8;" horiz-adv-x="676" 
d="M87 269v176c0 100 17 157 59 204c46 51 105 74 192 74c93 0 157 -27 203 -86c34 -45 48 -99 48 -192v-176c0 -101 -16 -157 -59 -204c-46 -51 -105 -74 -192 -74c-93 0 -157 27 -202 86c-35 45 -49 100 -49 192zM506 277v160c0 79 -10 122 -39 159c-29 39 -69 57 -129 57
c-64 0 -107 -21 -136 -66c-23 -37 -32 -77 -32 -150v-160c0 -79 10 -122 39 -159c29 -39 69 -57 129 -57c64 0 107 21 136 66c23 37 32 77 32 150zM338 874l-68 -80h-84l126 133h52l127 -133h-85zM299 -193v104h78v-104h-78z" />
    <glyph glyph-name="uni1ED9" unicode="&#x1ed9;" horiz-adv-x="557" 
d="M71 212v78c0 151 65 222 206 222c144 0 209 -69 209 -222v-78c0 -152 -65 -221 -209 -221c-141 0 -206 70 -206 221zM407 217v68c0 110 -41 161 -129 161c-87 0 -128 -51 -128 -161v-68c0 -109 41 -160 128 -160c88 0 129 51 129 160zM278 667l-68 -81h-84l126 134h52
l127 -134h-84zM239 -193v104h78v-104h-78z" />
    <glyph glyph-name="uni1EDA" unicode="&#x1eda;" horiz-adv-x="701" 
d="M629 724h71c5 -15 7 -24 7 -37c0 -43 -21 -84 -59 -114c-18 -14 -30 -22 -66 -43c5 -30 7 -50 7 -85v-176c0 -101 -16 -157 -59 -204c-46 -51 -105 -74 -192 -74c-93 0 -157 27 -202 86c-35 45 -49 100 -49 192v176c0 100 17 158 59 205c46 51 105 74 192 74
c119 0 196 -47 233 -143c54 35 70 56 70 96c0 17 -3 29 -12 47zM506 277v160c0 79 -10 123 -39 160c-29 39 -69 57 -129 57c-64 0 -107 -21 -136 -67c-23 -37 -32 -77 -32 -150v-160c0 -79 10 -122 39 -159c29 -39 69 -57 129 -57c64 0 107 21 136 66c23 37 32 77 32 150z
M311 789l75 142h97l-112 -142h-60z" />
    <glyph glyph-name="uni1EDB" unicode="&#x1edb;" horiz-adv-x="582" 
d="M521 512h72c5 -16 6 -26 6 -40c0 -61 -32 -103 -116 -150c2 -19 3 -32 3 -44v-66c0 -152 -65 -221 -209 -221c-141 0 -206 70 -206 221v78c0 152 66 222 208 222c111 0 176 -45 198 -136l6 4c39 29 50 48 50 84c0 18 -3 29 -12 48zM407 217v68c0 110 -41 161 -129 161
c-87 0 -128 -51 -128 -161v-68c0 -109 41 -160 128 -160c88 0 129 51 129 160zM249 582l75 142h97l-112 -142h-60z" />
    <glyph glyph-name="uni1EDC" unicode="&#x1edc;" horiz-adv-x="701" 
d="M629 724h71c5 -15 7 -24 7 -37c0 -43 -21 -84 -59 -114c-18 -14 -30 -22 -66 -43c5 -30 7 -50 7 -85v-176c0 -101 -16 -157 -59 -204c-46 -51 -105 -74 -192 -74c-93 0 -157 27 -202 86c-35 45 -49 100 -49 192v176c0 100 17 158 59 205c46 51 105 74 192 74
c119 0 196 -47 233 -143c54 35 70 56 70 96c0 17 -3 29 -12 47zM506 277v160c0 79 -10 123 -39 160c-29 39 -69 57 -129 57c-64 0 -107 -21 -136 -67c-23 -37 -32 -77 -32 -150v-160c0 -79 10 -122 39 -159c29 -39 69 -57 129 -57c64 0 107 21 136 66c23 37 32 77 32 150z
M416 789h-60l-112 142h97z" />
    <glyph glyph-name="uni1EDD" unicode="&#x1edd;" horiz-adv-x="582" 
d="M521 512h72c5 -16 6 -26 6 -40c0 -61 -32 -103 -116 -150c2 -19 3 -32 3 -44v-66c0 -152 -65 -221 -209 -221c-141 0 -206 70 -206 221v78c0 152 66 222 208 222c111 0 176 -45 198 -136l6 4c39 29 50 48 50 84c0 18 -3 29 -12 48zM407 217v68c0 110 -41 161 -129 161
c-87 0 -128 -51 -128 -161v-68c0 -109 41 -160 128 -160c88 0 129 51 129 160zM358 582h-61l-111 142h96z" />
    <glyph glyph-name="uni1EDE" unicode="&#x1ede;" horiz-adv-x="701" 
d="M629 724h71c5 -15 7 -24 7 -37c0 -43 -21 -84 -59 -114c-18 -14 -30 -22 -66 -43c5 -30 7 -50 7 -85v-176c0 -101 -16 -157 -59 -204c-46 -51 -105 -74 -192 -74c-93 0 -157 27 -202 86c-35 45 -49 100 -49 192v176c0 100 17 158 59 205c46 51 105 74 192 74
c119 0 196 -47 233 -143c54 35 70 56 70 96c0 17 -3 29 -12 47zM506 277v160c0 79 -10 123 -39 160c-29 39 -69 57 -129 57c-64 0 -107 -21 -136 -67c-23 -37 -32 -77 -32 -150v-160c0 -79 10 -122 39 -159c29 -39 69 -57 129 -57c64 0 107 21 136 66c23 37 32 77 32 150z
M381 779h-58c1 43 1 46 27 84c7 9 10 18 10 26c0 15 -11 24 -31 24c-14 0 -27 -4 -48 -13l-14 46c31 12 47 15 74 15c55 0 86 -25 86 -68c0 -21 -5 -31 -28 -61c-16 -21 -17 -25 -18 -53z" />
    <glyph glyph-name="uni1EDF" unicode="&#x1edf;" horiz-adv-x="582" 
d="M521 512h72c5 -16 6 -26 6 -40c0 -61 -32 -103 -116 -150c2 -19 3 -32 3 -44v-66c0 -152 -65 -221 -209 -221c-141 0 -206 70 -206 221v78c0 152 66 222 208 222c111 0 176 -45 198 -136l6 4c39 29 50 48 50 84c0 18 -3 29 -12 48zM407 217v68c0 110 -41 161 -129 161
c-87 0 -128 -51 -128 -161v-68c0 -109 41 -160 128 -160c88 0 129 51 129 160zM329 575h-58c1 44 1 46 27 84c7 9 10 18 10 26c0 16 -11 24 -31 24c-14 0 -26 -3 -48 -13l-14 47c31 11 47 14 74 14c55 0 86 -25 86 -68c0 -21 -5 -31 -28 -61c-16 -20 -17 -25 -18 -53z" />
    <glyph glyph-name="uni1EE0" unicode="&#x1ee0;" horiz-adv-x="701" 
d="M629 724h71c5 -15 7 -24 7 -37c0 -43 -21 -84 -59 -114c-18 -14 -30 -22 -66 -43c5 -30 7 -50 7 -85v-176c0 -101 -16 -157 -59 -204c-46 -51 -105 -74 -192 -74c-93 0 -157 27 -202 86c-35 45 -49 100 -49 192v176c0 100 17 158 59 205c46 51 105 74 192 74
c119 0 196 -47 233 -143c54 35 70 56 70 96c0 17 -3 29 -12 47zM506 277v160c0 79 -10 123 -39 160c-29 39 -69 57 -129 57c-64 0 -107 -21 -136 -67c-23 -37 -32 -77 -32 -150v-160c0 -79 10 -122 39 -159c29 -39 69 -57 129 -57c64 0 107 21 136 66c23 37 32 77 32 150z
M247 804h-51c10 40 15 55 24 71c18 29 41 43 73 43c27 0 47 -9 73 -32c29 -26 39 -32 53 -32c19 0 31 16 41 56h51c-9 -39 -15 -57 -23 -73c-15 -27 -39 -41 -71 -41c-29 0 -48 9 -76 34c-27 24 -36 30 -51 30c-18 0 -34 -21 -43 -56z" />
    </font>
</defs>
</svg>
