<?xml version="1.0" standalone="no"?>
<!DOCTYPE svg PUBLIC "-//W3C//DTD SVG 1.1//EN" "http://www.w3.org/Graphics/SVG/1.1/DTD/svg11.dtd" >
<svg xmlns="http://www.w3.org/2000/svg" xmlns:xlink="http://www.w3.org/1999/xlink" version="1.1">
<metadata>
Created by FontForge 20170924 at Tue Dec 20 11:25:42 2016
 By www-data
Copyright (URW)++,Copyright 2016 by (URW)++ Design &#38; Development
</metadata>
<defs>
<font id="URWDINSemiCond-Regular" horiz-adv-x="480" >
  <font-face 
    font-family="URW DIN SemiCond"
    font-weight="400"
    font-stretch="normal"
    units-per-em="1000"
    panose-1="0 0 5 0 0 0 0 0 0 0"
    ascent="714"
    descent="-286"
    x-height="502"
    cap-height="714"
    bbox="-86 -243 1043 1013"
    underline-thickness="56"
    underline-position="-146"
    stemh="65"
    stemv="77"
    unicode-range="U+0020-FB04"
  />
<missing-glyph horiz-adv-x="180" 
 />
    <glyph glyph-name="fi" unicode="fi" horiz-adv-x="507" 
d="M92 440h-53v62h53v80c0 103 29 134 125 132h40v-61h-23c-55 2 -67 -12 -67 -78v-73h94v-62h-94v-440h-75v440zM357 613v104h75v-104h-75zM357 0v502h75v-502h-75z" />
    <glyph glyph-name="fl" unicode="fl" horiz-adv-x="536" 
d="M92 440h-53v62h53v80c0 103 29 134 125 132h40v-61h-23c-55 2 -67 -12 -67 -78v-73h94v-62h-94v-440h-75v440zM356 714h75v-558c-1 -71 16 -93 71 -93h21v-63h-24c-114 0 -143 33 -143 162v552z" />
    <glyph glyph-name="ff" unicode="ff" horiz-adv-x="547" 
d="M92 440h-53v62h53v80c0 103 29 134 125 132h37v-61h-20c-55 2 -67 -12 -67 -78v-73h81v-62h-81v-440h-75v440zM354 440h-51v62h51v80c0 103 29 134 125 132h40v-61h-23c-55 2 -67 -12 -67 -78v-73h94v-62h-94v-440h-75v440z" />
    <glyph glyph-name="ffi" unicode="ffi" horiz-adv-x="769" 
d="M92 440h-53v62h53v80c0 103 29 134 125 132h37v-61h-20c-55 2 -67 -12 -67 -78v-73h81v-62h-81v-440h-75v440zM354 440h-51v62h51v80c0 103 29 134 125 132h40v-61h-23c-55 2 -67 -12 -67 -78v-73h94v-62h-94v-440h-75v440zM619 613v104h75v-104h-75zM619 0v502h75v-502
h-75z" />
    <glyph glyph-name="ffl" unicode="ffl" horiz-adv-x="799" 
d="M92 440h-53v62h53v80c0 103 29 134 125 132h37v-61h-20c-55 2 -67 -12 -67 -78v-73h81v-62h-81v-440h-75v440zM354 440h-51v62h51v80c0 103 29 134 125 132h40v-61h-23c-55 2 -67 -12 -67 -78v-73h94v-62h-94v-440h-75v440zM618 714h75v-558c-1 -71 16 -93 71 -93h21v-63
h-23c-115 1 -144 33 -144 162v552z" />
    <glyph glyph-name=".notdef" horiz-adv-x="180" 
 />
    <glyph glyph-name="space" unicode=" " horiz-adv-x="180" 
 />
    <glyph glyph-name="exclam" unicode="!" horiz-adv-x="265" 
d="M101 190l-11 524h84l-11 -524h-62zM95 0v97h75v-97h-75z" />
    <glyph glyph-name="quotedbl" unicode="&#x22;" horiz-adv-x="347" 
d="M64 453l-5 261h77l-5 -261h-67zM216 453l-6 261h78l-5 -261h-67z" />
    <glyph glyph-name="numbersign" unicode="#" 
d="M123 286l14 119h-99l8 52h98l22 182h63l-21 -182h94l21 182h64l-22 -182h100l-8 -52h-99l-13 -119h98l-8 -52h-98l-22 -187h-64l22 187h-94l-22 -187h-64l23 187h-100l8 52h99zM187 286h94l13 119h-94z" />
    <glyph glyph-name="dollar" unicode="$" 
d="M35 158l66 19c19 -73 61 -105 134 -105c85 0 130 43 130 125c0 40 -12 72 -35 92c-22 19 -25 20 -109 44c-120 36 -170 93 -170 196c0 67 26 121 72 150c21 14 43 20 82 25v108h75v-111c73 -11 117 -52 134 -126l-66 -19c-21 61 -54 86 -113 86c-70 0 -109 -39 -109 -109
s35 -105 134 -134c80 -24 96 -31 124 -53c37 -31 56 -79 56 -142c0 -114 -54 -178 -160 -192v-144h-75v142c-96 11 -154 61 -170 148z" />
    <glyph glyph-name="percent" unicode="%" horiz-adv-x="758" 
d="M35 481v94c0 103 40 148 131 148c92 0 132 -45 132 -148v-94c0 -103 -40 -148 -132 -148c-91 0 -131 45 -131 148zM232 483v90c0 69 -20 99 -65 99c-46 0 -66 -30 -66 -99v-90c0 -70 20 -100 66 -100c45 0 65 31 65 100zM460 141v94c0 104 40 148 132 148
s132 -44 132 -148v-94c0 -103 -40 -148 -132 -148s-132 44 -132 148zM658 143v90c0 70 -20 100 -66 100s-66 -30 -66 -100v-90c0 -69 20 -99 66 -99s66 30 66 99zM250 0l188 714h71l-189 -714h-70z" />
    <glyph glyph-name="ampersand" unicode="&#x26;" horiz-adv-x="680" 
d="M504 0l-43 67c-36 -35 -46 -43 -67 -56c-46 -29 -91 -42 -143 -42c-109 0 -172 66 -172 182c0 68 26 125 79 176c19 17 24 21 59 44c15 10 15 10 25 18c-56 85 -78 138 -78 189c0 96 60 156 154 156c98 0 160 -62 160 -161c0 -75 -45 -145 -133 -205l120 -187
c27 48 43 89 55 145h73c-20 -82 -44 -141 -83 -205l83 -121h-89zM304 424c69 47 100 92 100 149c0 62 -31 99 -84 99c-51 0 -82 -35 -82 -93c0 -33 6 -50 33 -99c21 -36 25 -44 33 -56zM420 122l-135 209c-96 -62 -128 -107 -128 -180c0 -75 38 -117 106 -117
c39 0 73 13 111 41c7 5 7 5 36 36c6 7 6 7 10 11z" />
    <glyph glyph-name="quoteright" unicode="&#x2019;" horiz-adv-x="161" 
d="M26 478l30 236h79l-47 -236h-62z" />
    <glyph glyph-name="parenleft" unicode="(" horiz-adv-x="362" 
d="M301 -86l-53 -35c-90 134 -134 288 -134 466c0 177 44 331 134 465l53 -35c-75 -137 -109 -273 -109 -431c0 -157 34 -293 109 -430z" />
    <glyph glyph-name="parenright" unicode=")" horiz-adv-x="362" 
d="M61 775l54 35c89 -135 133 -288 133 -465c0 -178 -44 -331 -133 -466l-54 35c74 137 109 273 109 431c0 157 -35 293 -109 430z" />
    <glyph glyph-name="asterisk" unicode="*" 
d="M240 526l-80 -143l-64 39l95 138l-147 35l20 68l144 -50l-6 158h76l-7 -158l144 50l20 -68l-147 -35l95 -138l-63 -39z" />
    <glyph glyph-name="plus" unicode="+" 
d="M40 334v61h167v183h66v-183h166v-61h-166v-183h-66v183h-167z" />
    <glyph glyph-name="comma" unicode="," horiz-adv-x="238" 
d="M45 -188l40 284h83l-57 -284h-66z" />
    <glyph glyph-name="hyphen" unicode="-" horiz-adv-x="396" 
d="M78 331v66h240v-66h-240z" />
    <glyph glyph-name="period" unicode="." horiz-adv-x="239" 
d="M80 0v97h78v-97h-78z" />
    <glyph glyph-name="slash" unicode="/" horiz-adv-x="342" 
d="M34 -22l200 758h75l-200 -758h-75z" />
    <glyph glyph-name="zero" unicode="0" 
d="M60 232v250c0 165 57 241 180 241c124 0 181 -76 181 -241v-250c0 -165 -57 -241 -181 -241c-123 0 -180 76 -180 241zM344 240v234c0 129 -31 184 -104 184c-72 0 -103 -55 -103 -184v-234c0 -129 31 -184 103 -184c73 0 104 55 104 184z" />
    <glyph glyph-name="one" unicode="1" 
d="M214 0v630l-106 -53l-27 61l158 76h53v-714h-78z" />
    <glyph glyph-name="two" unicode="2" 
d="M47 0v53l175 254c27 40 64 105 78 141c12 31 18 62 18 96c0 76 -30 114 -91 114c-59 0 -94 -41 -101 -121l-73 3c10 124 67 183 174 183c111 0 169 -62 169 -180c0 -89 -21 -138 -122 -288l-129 -189h253v-66h-351z" />
    <glyph glyph-name="three" unicode="3" 
d="M153 344v63h49c75 0 119 46 119 126c0 82 -34 125 -99 125c-58 0 -90 -35 -99 -108l-71 4c6 111 66 169 173 169c114 0 174 -64 174 -187c0 -80 -27 -128 -89 -160c74 -34 105 -89 105 -184c0 -132 -65 -201 -189 -201c-119 0 -181 59 -188 177l74 5
c4 -77 43 -117 111 -117c74 0 114 48 114 137c0 95 -49 151 -131 151h-53z" />
    <glyph glyph-name="four" unicode="4" 
d="M300 0v133h-254v49l200 532h81l-194 -516h167v217h72v-217h62v-66h-62v-132h-72z" />
    <glyph glyph-name="five" unicode="5" 
d="M80 345l27 369h290v-66h-224l-18 -233c45 24 57 27 94 27c115 0 167 -69 167 -222c0 -81 -12 -132 -40 -169c-30 -38 -82 -60 -146 -60c-114 0 -176 61 -181 177l74 5c4 -75 41 -117 106 -117c74 0 109 51 109 158c0 118 -29 165 -102 165c-39 0 -70 -14 -100 -45z" />
    <glyph glyph-name="six" unicode="6" 
d="M200 425l6 2l24 9c8 3 19 4 34 4c54 0 99 -24 124 -66c20 -33 29 -81 29 -157c0 -90 -12 -139 -42 -173c-31 -34 -78 -53 -134 -53c-62 0 -113 22 -142 62c-25 32 -35 80 -35 159c0 83 8 114 47 200l141 302h87zM243 379c-72 0 -102 -48 -102 -167
c0 -110 29 -157 100 -157c70 0 99 47 99 161c0 115 -28 163 -97 163z" />
    <glyph glyph-name="seven" unicode="7" 
d="M122 0l201 648h-254v66h334v-47l-198 -667h-83z" />
    <glyph glyph-name="eight" unicode="8" 
d="M143 378c-53 31 -71 72 -71 157c0 129 52 188 168 188s168 -59 168 -189c0 -83 -20 -127 -70 -156c63 -28 88 -78 88 -180c0 -76 -13 -124 -43 -156c-33 -35 -77 -51 -143 -51c-69 0 -117 19 -149 60c-25 30 -36 77 -36 147c0 102 24 152 88 180zM241 662
c-69 0 -96 -36 -96 -129c0 -92 27 -130 95 -130c67 0 95 38 95 130c0 91 -28 129 -94 129zM242 343c-79 0 -110 -41 -110 -144s31 -144 108 -144c78 0 109 42 109 144c0 101 -32 144 -107 144z" />
    <glyph glyph-name="nine" unicode="9" 
d="M135 0l148 319c-26 -12 -46 -16 -71 -16c-52 0 -96 22 -121 61c-20 31 -29 76 -29 147c0 84 12 131 43 163c30 32 77 49 133 49c62 0 112 -21 142 -58c24 -31 35 -75 35 -148c0 -76 -7 -109 -40 -180l-154 -337h-86zM240 659c-72 0 -101 -42 -101 -147
c0 -106 29 -149 99 -149s100 46 100 153c0 99 -30 143 -98 143z" />
    <glyph glyph-name="colon" unicode=":" horiz-adv-x="239" 
d="M80 0v97h78v-97h-78zM80 405v97h78v-97h-78z" />
    <glyph glyph-name="semicolon" unicode=";" horiz-adv-x="238" 
d="M45 -188l40 284h83l-57 -284h-66zM87 405v97h78v-97h-78z" />
    <glyph glyph-name="less" unicode="&#x3c;" 
d="M130 366l269 -145v-71l-351 195v43l351 195v-71z" />
    <glyph glyph-name="equal" unicode="=" 
d="M53 261v60h375v-60h-375zM53 408v59h375v-59h-375z" />
    <glyph glyph-name="greater" unicode="&#x3e;" 
d="M350 366l-269 146v71l351 -195v-43l-351 -195v71z" />
    <glyph glyph-name="question" unicode="?" horiz-adv-x="490" 
d="M209 188v35c-1 76 15 111 78 177c28 30 39 43 47 57c13 23 22 56 22 84c0 71 -41 117 -104 117c-68 0 -103 -42 -115 -138l-73 6c12 131 75 197 189 197s181 -67 181 -182c0 -51 -15 -97 -44 -135c-13 -18 -19 -24 -67 -74c-38 -39 -53 -73 -52 -115v-29h-62zM203 0v97
h75v-97h-75z" />
    <glyph glyph-name="at" unicode="@" horiz-adv-x="777" 
d="M513 518h49l-43 -246c-4 -21 -6 -40 -6 -53c0 -28 14 -43 39 -43c70 0 120 89 120 213c0 178 -100 284 -270 284c-93 0 -161 -30 -212 -94c-56 -69 -83 -162 -83 -281c0 -219 96 -325 295 -325c80 0 134 13 209 50l21 -46c-78 -43 -140 -58 -229 -58
c-239 0 -360 127 -360 376c0 271 134 432 358 432c205 0 333 -131 333 -339c0 -157 -77 -266 -188 -266c-54 0 -77 23 -82 79c-36 -59 -67 -81 -118 -81c-71 0 -110 50 -110 139c0 73 20 148 54 199c31 48 69 71 119 71c48 0 72 -18 92 -69zM414 475c-33 0 -59 -21 -81 -65
c-19 -39 -32 -98 -32 -148c0 -57 18 -86 54 -86c34 0 64 25 87 74c20 41 33 96 33 139c0 53 -24 86 -61 86z" />
    <glyph glyph-name="A" unicode="A" horiz-adv-x="508" 
d="M381 158h-253l-44 -158h-85l221 714h70l220 -714h-84zM364 223l-109 385l-110 -385h219z" />
    <glyph glyph-name="B" unicode="B" horiz-adv-x="548" 
d="M88 0v714h205c73 0 111 -12 142 -43c31 -32 49 -84 49 -141c0 -75 -26 -127 -77 -157c29 -17 40 -27 52 -44c23 -32 36 -83 36 -137c0 -66 -20 -122 -55 -154c-29 -28 -65 -38 -129 -38h-223zM166 400h130c73 0 110 42 110 124c0 43 -14 82 -35 102c-19 17 -41 23 -80 23
h-125v-249zM166 65h135c43 0 66 8 85 29s31 61 31 103c0 47 -14 91 -35 112c-19 19 -39 26 -75 26h-141v-270z" />
    <glyph glyph-name="C" unicode="C" horiz-adv-x="536" 
d="M401 188l73 -4c-4 -125 -74 -193 -200 -193c-76 0 -131 27 -165 79c-25 39 -36 92 -36 179v215c0 97 13 150 45 191c35 45 86 67 157 67c122 0 189 -65 193 -188l-73 -3c-6 84 -45 126 -119 126c-89 0 -125 -56 -125 -196v-209c0 -139 36 -196 124 -196
c78 0 122 47 126 132z" />
    <glyph glyph-name="D" unicode="D" horiz-adv-x="573" 
d="M88 0v714h190c150 3 225 -78 222 -237v-240c3 -159 -72 -240 -222 -237h-190zM166 65h105c106 -2 151 53 151 183v219c0 129 -45 184 -151 182h-105v-584z" />
    <glyph glyph-name="E" unicode="E" horiz-adv-x="490" 
d="M88 0v714h353v-66h-275v-254h234v-66h-234v-262h277v-66h-355z" />
    <glyph glyph-name="F" unicode="F" horiz-adv-x="462" 
d="M88 0v714h350v-66h-272v-259h231v-66h-231v-323h-78z" />
    <glyph glyph-name="G" unicode="G" horiz-adv-x="560" 
d="M300 310v63h197v-129c0 -89 -12 -140 -44 -181c-37 -48 -92 -72 -168 -72c-81 0 -139 26 -174 79c-27 39 -38 92 -38 179v215c0 96 13 150 46 191c36 45 89 67 160 67c126 0 194 -65 198 -188l-72 -3c-5 82 -48 126 -124 126c-93 0 -130 -57 -130 -196v-209
c0 -140 38 -196 133 -196c92 0 136 56 136 173v81h-120z" />
    <glyph glyph-name="H" unicode="H" horiz-adv-x="576" 
d="M88 0v714h78v-320h245v320h78v-714h-78v328h-245v-328h-78z" />
    <glyph glyph-name="I" unicode="I" horiz-adv-x="253" 
d="M88 0v714h78v-714h-78z" />
    <glyph glyph-name="J" unicode="J" horiz-adv-x="388" 
d="M227 714h78v-465c0 -109 -4 -145 -22 -179c-26 -52 -75 -79 -146 -79c-61 0 -106 19 -151 64l45 52c32 -35 64 -51 101 -51c43 0 72 23 86 66c7 24 9 52 9 124v468z" />
    <glyph glyph-name="K" unicode="K" horiz-adv-x="523" 
d="M88 0v714h78v-376l249 376h88l-199 -292l217 -422h-87l-178 361l-90 -132v-229h-78z" />
    <glyph glyph-name="L" unicode="L" horiz-adv-x="456" 
d="M88 0v714h78v-648h280v-66h-358z" />
    <glyph glyph-name="M" unicode="M" horiz-adv-x="690" 
d="M88 0v714h75l183 -461l182 461h75v-714h-75v547l-158 -402h-49l-158 402v-547h-75z" />
    <glyph glyph-name="N" unicode="N" horiz-adv-x="610" 
d="M88 0v714h76l283 -565v565h75v-714h-75l-284 566v-566h-75z" />
    <glyph glyph-name="O" unicode="O" horiz-adv-x="572" 
d="M73 237v240c0 87 14 139 48 179c38 46 90 67 165 67c80 0 136 -25 173 -78c28 -39 39 -88 39 -168v-240c0 -87 -14 -139 -48 -179c-38 -46 -90 -67 -164 -67c-81 0 -137 25 -174 78c-27 39 -39 89 -39 168zM420 245v224c0 131 -41 189 -135 189c-93 0 -134 -58 -134 -189
v-224c0 -131 41 -189 134 -189c94 0 135 58 135 189z" />
    <glyph glyph-name="P" unicode="P" horiz-adv-x="515" 
d="M166 280v-280h-78v714h182c82 0 127 -16 162 -58c31 -37 45 -88 45 -159c0 -76 -17 -131 -53 -168c-33 -35 -79 -49 -154 -49h-104zM165 345h104c51 0 79 11 100 38c19 26 30 66 30 114c0 53 -12 95 -35 120c-22 24 -47 32 -94 32h-105v-304z" />
    <glyph glyph-name="Q" unicode="Q" horiz-adv-x="572" 
d="M495 -20l-64 57c-36 -31 -82 -46 -143 -46c-83 0 -138 25 -176 78c-27 39 -39 89 -39 168v240c0 87 14 139 48 179c38 46 90 67 165 67c80 0 136 -25 173 -78c28 -39 39 -88 39 -168v-240c0 -71 -7 -108 -28 -150l69 -61zM374 87l-98 88l44 45l88 -78c9 31 12 52 12 103
v224c0 131 -41 189 -135 189c-93 0 -134 -58 -134 -189v-224c0 -132 41 -189 136 -189c37 0 65 10 87 31z" />
    <glyph glyph-name="R" unicode="R" horiz-adv-x="547" 
d="M167 311v-311h-78v714h192c80 0 124 -15 158 -52c31 -34 45 -81 45 -147c0 -113 -39 -175 -124 -195l134 -320h-86l-123 311h-118zM166 375h113c50 0 76 9 97 34c20 23 30 59 30 102c0 96 -40 138 -130 138h-110v-274z" />
    <glyph glyph-name="S" unicode="S" horiz-adv-x="495" 
d="M37 146l68 19c21 -76 61 -109 135 -109c88 0 134 46 134 135c0 41 -12 74 -35 95c-22 19 -27 21 -110 46c-122 36 -172 93 -172 200c0 120 70 191 188 191c102 0 158 -44 180 -142l-68 -18c-20 69 -51 95 -113 95c-70 0 -111 -45 -111 -122c0 -73 35 -110 135 -140
c82 -25 96 -31 125 -54c38 -31 57 -80 57 -147c0 -132 -73 -204 -209 -204c-119 0 -180 46 -204 155z" />
    <glyph glyph-name="T" unicode="T" horiz-adv-x="453" 
d="M188 0v648h-166v66h409v-66h-165v-648h-78z" />
    <glyph glyph-name="U" unicode="U" horiz-adv-x="584" 
d="M85 714h78v-485c0 -62 5 -93 21 -118c22 -38 54 -55 104 -55c60 0 94 18 116 63c12 24 16 54 16 110v485h78v-485c0 -89 -8 -127 -36 -165c-38 -51 -89 -73 -171 -73c-86 0 -142 26 -177 84c-22 35 -29 73 -29 154v485z" />
    <glyph glyph-name="V" unicode="V" horiz-adv-x="491" 
d="M213 0l-200 714h79l154 -588l154 588h79l-200 -714h-66z" />
    <glyph glyph-name="W" unicode="W" horiz-adv-x="752" 
d="M172 0l-144 714h78l104 -576l138 576h56l137 -576l105 576h78l-144 -714h-68l-136 563l-136 -563h-68z" />
    <glyph glyph-name="X" unicode="X" horiz-adv-x="483" 
d="M197 377l-163 337h85l131 -275l122 275h82l-165 -351l176 -363h-85l-145 301l-133 -301h-82z" />
    <glyph glyph-name="Y" unicode="Y" horiz-adv-x="457" 
d="M190 0v260l-190 454h82l147 -365l147 365h82l-190 -454v-260h-78z" />
    <glyph glyph-name="Z" unicode="Z" horiz-adv-x="457" 
d="M40 0v50l275 598h-258v66h344v-50l-275 -598h288v-66h-374z" />
    <glyph glyph-name="bracketleft" unicode="[" horiz-adv-x="362" 
d="M131 -98v885h166v-57h-91v-771h91v-57h-166z" />
    <glyph glyph-name="backslash" unicode="\" horiz-adv-x="342" 
d="M308 -22h-75l-200 758h75z" />
    <glyph glyph-name="bracketright" unicode="]" horiz-adv-x="362" 
d="M230 787v-885h-166v57h91v771h-91v57h166z" />
    <glyph glyph-name="asciicircum" unicode="^" 
d="M240 628l-114 -246h-85l178 337h42l178 -337h-85z" />
    <glyph glyph-name="underscore" unicode="_" horiz-adv-x="395" 
d="M-21 -174v56h437v-56h-437z" />
    <glyph glyph-name="quoteleft" unicode="&#x2018;" horiz-adv-x="161" 
d="M135 714l-30 -236h-79l47 236h62z" />
    <glyph glyph-name="a" unicode="a" horiz-adv-x="452" 
d="M306 294v36c0 87 -24 119 -90 119c-48 0 -74 -21 -91 -75l-64 19c21 80 72 118 157 118c69 0 117 -23 142 -66c15 -27 21 -63 21 -123v-322h-60l-5 35c-28 -33 -58 -44 -122 -44c-112 0 -154 40 -154 149c0 113 44 154 167 154h99zM306 236h-86c-78 0 -107 -26 -107 -96
c0 -64 24 -86 97 -86c74 0 96 22 96 98v84z" />
    <glyph glyph-name="b" unicode="b" horiz-adv-x="482" 
d="M74 0v714h75v-247c31 32 62 44 112 44c109 0 159 -65 159 -204v-106c0 -144 -50 -210 -160 -210c-58 0 -84 11 -122 49l-5 -40h-59zM345 200v106c0 95 -31 141 -95 141c-68 0 -101 -51 -101 -156v-80c0 -105 33 -156 101 -156c64 0 95 48 95 145z" />
    <glyph glyph-name="c" unicode="c" horiz-adv-x="419" 
d="M322 129l66 -13c-15 -86 -65 -125 -157 -125c-115 0 -169 69 -169 214v86c0 153 53 221 173 221c86 0 127 -34 147 -119l-65 -19c-14 55 -37 76 -83 76c-67 0 -97 -47 -97 -154v-97c0 -98 32 -145 99 -145c49 0 75 23 86 75z" />
    <glyph glyph-name="d" unicode="d" horiz-adv-x="482" 
d="M349 0l-5 40l-4 -4c-31 -33 -63 -45 -117 -45c-111 0 -161 66 -161 210v106c0 139 50 204 158 204c53 0 80 -11 113 -44v247h75v-714h-59zM137 306v-105c0 -99 31 -146 96 -146c67 0 100 51 100 156v80c0 105 -33 156 -101 156c-64 0 -95 -46 -95 -141z" />
    <glyph glyph-name="e" unicode="e" horiz-adv-x="466" 
d="M137 237v-42c0 -96 35 -141 107 -141c54 0 81 22 93 75l65 -14c-15 -86 -65 -124 -161 -124c-123 0 -179 68 -179 219v80c0 153 54 221 174 221c121 0 174 -67 174 -221v-53h-273zM137 295h201v21c0 89 -32 132 -100 132s-101 -43 -101 -132v-21z" />
    <glyph glyph-name="f" unicode="f" horiz-adv-x="284" 
d="M92 440h-53v62h53v80c0 103 29 134 125 132h40v-61h-23c-55 2 -67 -12 -67 -78v-73h94v-62h-94v-440h-75v440z" />
    <glyph glyph-name="g" unicode="g" horiz-adv-x="483" 
d="M334 -27v62c-30 -32 -62 -44 -114 -44c-107 0 -158 67 -158 211v104c0 140 50 205 159 205c56 0 90 -14 121 -51l8 42h59v-521c0 -147 -57 -215 -180 -215c-88 0 -133 34 -152 112l64 17c14 -49 38 -68 87 -68c73 0 106 45 106 146zM137 306v-105c0 -98 31 -146 96 -146
c68 0 101 52 101 156v80c0 105 -33 157 -101 157c-64 0 -96 -47 -96 -142z" />
    <glyph glyph-name="h" unicode="h" horiz-adv-x="483" 
d="M74 0v714h75v-245c29 30 61 42 112 42c70 0 118 -30 139 -87c9 -25 13 -62 13 -117v-307h-75v299c0 106 -25 147 -90 147c-71 0 -99 -49 -99 -169v-277h-75z" />
    <glyph glyph-name="i" unicode="i" horiz-adv-x="224" 
d="M75 613v104h75v-104h-75zM75 0v502h75v-502h-75z" />
    <glyph glyph-name="j" unicode="j" horiz-adv-x="229" 
d="M79 502h75v-516c4 -162 -42 -217 -177 -216v64c75 -4 104 38 102 144v524zM79 613v104h75v-104h-75z" />
    <glyph glyph-name="k" unicode="k" horiz-adv-x="445" 
d="M75 0v714h75v-488l182 276h84l-146 -212l159 -290h-82l-122 232l-75 -111v-121h-75z" />
    <glyph glyph-name="l" unicode="l" horiz-adv-x="254" 
d="M74 714h75v-558c-1 -71 16 -93 71 -93h21v-63h-24c-114 0 -143 33 -143 162v552z" />
    <glyph glyph-name="m" unicode="m" horiz-adv-x="717" 
d="M74 0v502h58l5 -49c30 43 61 59 115 59c60 0 102 -23 123 -70c27 49 65 70 125 70c68 0 114 -30 133 -87c9 -27 13 -61 13 -118v-307h-75v299c0 107 -23 148 -84 148c-62 0 -89 -50 -89 -167v-280h-75v299c0 107 -23 148 -83 148c-65 0 -91 -49 -91 -172v-275h-75z" />
    <glyph glyph-name="n" unicode="n" horiz-adv-x="483" 
d="M74 0v502h58l5 -49c30 43 64 59 122 59c72 0 120 -30 141 -87c9 -26 13 -62 13 -118v-307h-75v299c0 107 -25 148 -90 148c-71 0 -99 -48 -99 -172v-275h-75z" />
    <glyph glyph-name="o" unicode="o" horiz-adv-x="476" 
d="M62 197v108c0 143 54 206 177 206c122 0 176 -63 176 -206v-108c0 -143 -54 -206 -176 -206c-123 0 -177 63 -177 206zM340 197v109c0 99 -30 142 -102 142c-70 0 -101 -43 -101 -142v-109c0 -100 31 -143 101 -143c71 0 102 43 102 143z" />
    <glyph glyph-name="p" unicode="p" horiz-adv-x="482" 
d="M74 -225v727h59l8 -40c31 35 66 49 120 49c109 0 159 -65 159 -204v-106c0 -144 -50 -210 -161 -210c-47 0 -81 13 -110 40v-256h-75zM345 200v106c0 95 -31 141 -95 141c-68 0 -101 -51 -101 -156v-80c0 -105 33 -156 101 -156c64 0 95 48 95 145z" />
    <glyph glyph-name="q" unicode="q" horiz-adv-x="482" 
d="M333 -225l1 256c-29 -27 -64 -40 -111 -40c-111 0 -161 66 -161 210v106c0 139 50 204 159 204c54 0 90 -15 120 -49l8 40h59v-727h-75zM137 306v-105c0 -99 31 -146 96 -146c67 0 100 51 100 156v80c0 105 -33 156 -100 156c-65 0 -96 -46 -96 -141z" />
    <glyph glyph-name="r" unicode="r" horiz-adv-x="325" 
d="M74 0v502h59l8 -44c23 37 54 53 101 53c30 0 53 -7 83 -26l-33 -63c-22 17 -38 23 -59 23c-59 0 -84 -59 -84 -200v-245h-75z" />
    <glyph glyph-name="s" unicode="s" horiz-adv-x="413" 
d="M27 115l65 15c15 -55 46 -77 107 -77c67 0 103 30 103 86c0 30 -10 52 -29 64c-16 9 -25 12 -79 23c-60 12 -89 24 -109 44c-24 22 -36 55 -36 98c0 92 53 143 150 143c92 0 137 -34 156 -117l-64 -15c-12 49 -39 70 -89 70c-52 0 -82 -29 -82 -79c0 -49 23 -69 94 -83
c75 -15 97 -23 120 -42c26 -21 39 -58 39 -107c0 -97 -59 -147 -175 -147c-99 0 -154 41 -171 124z" />
    <glyph glyph-name="t" unicode="t" horiz-adv-x="286" 
d="M88 440h-52v62h52l4 161h71v-161h83v-62h-83v-290c-1 -66 16 -87 69 -87h16v-63h-19c-114 0 -141 30 -141 157v283z" />
    <glyph glyph-name="u" unicode="u" horiz-adv-x="473" 
d="M70 502h75v-299c0 -107 24 -147 86 -147c66 0 93 49 93 171v275h75v-502h-58l-5 49c-30 -42 -62 -58 -117 -58c-69 0 -116 30 -136 87c-9 25 -13 63 -13 118v306z" />
    <glyph glyph-name="v" unicode="v" horiz-adv-x="418" 
d="M175 0l-152 502h76l110 -399l111 399h75l-152 -502h-68z" />
    <glyph glyph-name="w" unicode="w" horiz-adv-x="654" 
d="M161 0l-128 502h76l87 -386l105 386h52l105 -386l88 386h76l-128 -502h-62l-105 376l-105 -376h-61z" />
    <glyph glyph-name="x" unicode="x" horiz-adv-x="396" 
d="M155 258l-128 244h83l93 -184l91 184h81l-135 -248l132 -254h-83l-97 193l-95 -193h-81z" />
    <glyph glyph-name="y" unicode="y" horiz-adv-x="418" 
d="M174 -2l-154 504h75l117 -414l106 414h76l-164 -587c-36 -121 -64 -144 -179 -145v64c65 0 80 12 103 89z" />
    <glyph glyph-name="z" unicode="z" horiz-adv-x="398" 
d="M36 0v46l213 393h-196v63h286v-46l-214 -393h227v-63h-316z" />
    <glyph glyph-name="braceleft" unicode="{" horiz-adv-x="362" 
d="M208 571v-50c2 -108 -6 -133 -54 -156c47 -22 56 -48 54 -155v-92c-1 -132 13 -162 77 -163h17v-53h-33c-113 0 -140 39 -137 192v114c2 110 -9 131 -68 134h-7v47h7c59 3 70 24 68 133v72c-3 154 24 193 137 193h33v-53h-17c-64 -1 -78 -31 -77 -163z" />
    <glyph glyph-name="bar" unicode="|" 
d="M207 -98v885h66v-885h-66z" />
    <glyph glyph-name="braceright" unicode="}" horiz-adv-x="362" 
d="M155 118v92c-2 107 7 133 54 155c-48 24 -56 48 -54 156v50c1 132 -13 162 -78 163h-17v53h33c114 0 141 -39 138 -193v-72c-2 -109 9 -131 67 -133h7v-47h-7c-58 -2 -69 -24 -67 -134v-114c3 -153 -24 -192 -138 -192h-33v53h17c65 1 79 31 78 163z" />
    <glyph glyph-name="asciitilde" unicode="~" 
d="M97 301l-47 11c22 84 55 120 111 120c33 0 49 -7 92 -40c38 -31 51 -37 70 -37c27 0 46 21 62 70l46 -14c-25 -82 -57 -115 -113 -115c-29 0 -44 7 -87 40c-40 31 -51 37 -71 37c-28 0 -47 -22 -63 -72z" />
    <glyph glyph-name="exclamdown" unicode="&#xa1;" horiz-adv-x="265" 
d="M163 311l11 -524h-84l11 524h62zM169 501v-97h-75v97h75z" />
    <glyph glyph-name="cent" unicode="&#xa2;" 
d="M222 38v113c-93 12 -139 81 -138 209v86c-1 135 42 202 138 216v108h75v-109c65 -13 94 -44 110 -116l-62 -16c-14 55 -39 76 -87 76c-70 0 -101 -47 -101 -154v-97c0 -99 33 -146 102 -146c52 0 80 23 91 78l63 -15c-14 -73 -47 -107 -116 -119v-114h-75z" />
    <glyph glyph-name="sterling" unicode="&#xa3;" 
d="M53 0v57c60 25 101 95 101 172c0 26 -4 50 -13 77h-90v66h64c-38 83 -45 108 -45 162c0 121 65 189 180 189s173 -59 187 -190l-69 -13c-12 99 -45 139 -116 139c-65 0 -104 -46 -104 -124c0 -46 8 -72 51 -163h149v-66h-130c7 -28 10 -48 10 -71
c0 -67 -24 -126 -67 -169h287v-66h-395z" />
    <glyph glyph-name="fraction" unicode="&#x2044;" horiz-adv-x="139" 
d="M-53 0l189 714h70l-189 -714h-70z" />
    <glyph glyph-name="yen" unicode="&#xa5;" 
d="M201 0v152h-134v48h134v68h-134v48h114l-169 398h82l146 -362l147 362h82l-170 -398h115v-48h-135v-68h135v-48h-135v-152h-78z" />
    <glyph glyph-name="section" unicode="&#xa7;" 
d="M117 36l5 -9c23 -50 48 -66 98 -66c63 0 102 34 102 88c0 21 -7 43 -17 56c-16 20 -35 30 -99 50c-114 37 -150 73 -150 153c0 63 18 93 83 138c-43 29 -58 60 -58 119c0 101 57 158 158 158c84 0 130 -33 152 -107l-65 -20c-18 47 -40 64 -82 64c-54 0 -88 -33 -88 -87
c0 -22 7 -46 17 -59c15 -18 37 -29 97 -50c66 -22 95 -37 115 -59c21 -22 33 -56 33 -95c0 -60 -22 -96 -82 -137c45 -29 61 -58 61 -113c0 -105 -61 -162 -174 -162c-91 0 -144 37 -170 119zM189 421l-5 -4c-6 -3 -11 -7 -17 -11c-26 -18 -39 -44 -39 -80
c0 -58 16 -74 106 -108l51 -19l6 4c5 4 11 8 17 12c27 20 38 42 38 78c0 25 -7 49 -20 63c-14 16 -25 22 -86 45z" />
    <glyph glyph-name="currency" unicode="&#xa4;" 
d="M56 85l-39 37l75 84c-27 39 -39 77 -39 128c0 50 11 88 39 128l-75 84l39 36l73 -82c38 27 69 37 112 37c42 0 73 -10 111 -37l73 82l39 -36l-75 -84c28 -40 39 -77 39 -128s-11 -88 -39 -128l75 -84l-39 -37l-73 83c-38 -27 -69 -37 -111 -37c-43 0 -74 10 -112 37z
M242 480c-75 0 -125 -58 -125 -147c0 -86 50 -145 123 -145c74 0 124 59 124 146c0 86 -50 146 -122 146z" />
    <glyph glyph-name="quotesingle" unicode="'" horiz-adv-x="196" 
d="M64 453l-5 261h77l-5 -261h-67z" />
    <glyph glyph-name="quotedblleft" unicode="&#x201c;" horiz-adv-x="318" 
d="M292 714l-30 -236h-79l47 236h62zM135 714l-30 -236h-79l47 236h62z" />
    <glyph glyph-name="guillemotleft" unicode="&#xab;" horiz-adv-x="370" 
d="M268 295l75 -125l-46 -32l-111 157l111 157l46 -32zM111 295l75 -125l-46 -32l-111 157l111 157l46 -32z" />
    <glyph glyph-name="guilsinglleft" unicode="&#x2039;" horiz-adv-x="213" 
d="M111 295l75 -125l-46 -32l-111 157l111 157l46 -32z" />
    <glyph glyph-name="guilsinglright" unicode="&#x203a;" horiz-adv-x="213" 
d="M102 295l-74 125l45 32l112 -157l-112 -157l-45 32z" />
    <glyph glyph-name="endash" unicode="&#x2013;" horiz-adv-x="482" 
d="M70 331v66h341v-66h-341z" />
    <glyph glyph-name="dagger" unicode="&#x2020;" 
d="M202 425h-146v65h146v224h76v-224h146v-65h-146v-583h-76v583z" />
    <glyph glyph-name="daggerdbl" unicode="&#x2021;" 
d="M202 425h-146v65h146v224h76v-224h146v-65h-146v-161h135v-65h-135v-357h-76v357h-135v65h135v161z" />
    <glyph glyph-name="periodcentered" unicode="&#xb7;" horiz-adv-x="238" 
d="M80 315v96h78v-96h-78z" />
    <glyph glyph-name="paragraph" unicode="&#xb6;" horiz-adv-x="528" 
d="M197 -136v478h-23c-48 0 -71 5 -95 22c-44 30 -70 93 -70 165c0 77 27 140 73 166c30 17 41 19 139 19h216v-850h-71v787h-98v-787h-71z" />
    <glyph glyph-name="bullet" unicode="&#x2022;" 
d="M240 525c95 0 167 -70 167 -162c0 -93 -72 -163 -167 -163c-96 0 -168 70 -168 164c0 90 74 161 168 161z" />
    <glyph glyph-name="quotesinglbase" unicode="&#x201a;" horiz-adv-x="161" 
d="M26 -140l30 236h79l-47 -236h-62z" />
    <glyph glyph-name="quotedblbase" unicode="&#x201e;" horiz-adv-x="318" 
d="M26 -140l30 236h79l-47 -236h-62zM183 -140l30 236h79l-47 -236h-62z" />
    <glyph glyph-name="quotedblright" unicode="&#x201d;" horiz-adv-x="318" 
d="M26 478l30 236h79l-47 -236h-62zM183 478l30 236h79l-47 -236h-62z" />
    <glyph glyph-name="guillemotright" unicode="&#xbb;" horiz-adv-x="370" 
d="M102 295l-74 125l45 32l112 -157l-112 -157l-45 32zM259 295l-74 125l46 32l111 -157l-111 -157l-46 32z" />
    <glyph glyph-name="ellipsis" unicode="&#x2026;" horiz-adv-x="716" 
d="M80 0v97h78v-97h-78zM318 0v97h78v-97h-78zM557 0v97h78v-97h-78z" />
    <glyph glyph-name="perthousand" unicode="&#x2030;" horiz-adv-x="1077" 
d="M35 481v94c0 103 40 148 131 148c92 0 132 -45 132 -148v-94c0 -103 -40 -148 -132 -148c-91 0 -131 45 -131 148zM232 483v90c0 69 -20 99 -65 99c-46 0 -66 -30 -66 -99v-90c0 -70 20 -100 66 -100c45 0 65 31 65 100zM460 141v94c0 104 40 148 132 148
s132 -44 132 -148v-94c0 -103 -40 -148 -132 -148s-132 44 -132 148zM658 143v90c0 70 -20 100 -66 100s-66 -30 -66 -100v-90c0 -69 20 -99 66 -99s66 30 66 99zM779 141v94c0 104 40 148 132 148s132 -44 132 -148v-94c0 -103 -40 -148 -132 -148s-132 45 -132 148z
M977 143v90c0 69 -20 100 -66 100s-66 -30 -66 -100v-90c0 -69 20 -99 66 -99s66 31 66 99zM250 0l188 714h71l-189 -714h-70z" />
    <glyph glyph-name="questiondown" unicode="&#xbf;" horiz-adv-x="490" 
d="M286 312v-35c1 -76 -15 -111 -78 -177c-28 -30 -39 -43 -47 -57c-13 -23 -22 -56 -22 -84c0 -71 41 -117 104 -117c68 0 103 42 115 138l73 -6c-12 -131 -75 -197 -189 -197s-181 67 -181 182c0 51 15 97 44 135c13 17 18 23 67 74c38 39 53 73 52 115v29h62zM292 501
v-97h-75v97h75z" />
    <glyph glyph-name="grave" unicode="`" horiz-adv-x="500" 
d="M297 582h-56l-97 141h89z" />
    <glyph glyph-name="acute" unicode="&#xb4;" horiz-adv-x="500" 
d="M205 582l64 141h89l-97 -141h-56z" />
    <glyph glyph-name="circumflex" unicode="&#x2c6;" horiz-adv-x="500" 
d="M249 668l-55 -81h-77l108 131h49l108 -131h-77z" />
    <glyph glyph-name="tilde" unicode="&#x2dc;" horiz-adv-x="500" 
d="M161 598h-47c17 83 38 110 84 110c24 0 42 -9 63 -31c23 -26 32 -32 44 -32c15 0 26 17 33 56h47c-7 -37 -11 -54 -18 -69c-13 -28 -34 -42 -63 -42c-26 0 -44 9 -66 33c-22 26 -29 31 -40 31c-16 0 -30 -21 -37 -56z" />
    <glyph glyph-name="macron" unicode="&#xaf;" horiz-adv-x="500" 
d="M138 620v55h224v-55h-224z" />
    <glyph glyph-name="breve" unicode="&#x2d8;" horiz-adv-x="500" 
d="M129 714h51c5 -58 23 -78 70 -78c48 0 65 20 71 78h51c-2 -47 -5 -64 -15 -83c-18 -36 -51 -52 -107 -52c-59 0 -93 19 -110 60c-7 17 -9 33 -11 75z" />
    <glyph glyph-name="dotaccent" unicode="&#x2d9;" horiz-adv-x="500" 
d="M213 590v102h73v-102h-73z" />
    <glyph glyph-name="dieresis" unicode="&#xa8;" horiz-adv-x="500" 
d="M133 590v102h68v-102h-68zM298 590v102h68v-102h-68z" />
    <glyph glyph-name="ring" unicode="&#x2da;" horiz-adv-x="500" 
d="M251 774c58 0 97 -40 97 -99c0 -60 -40 -101 -98 -101c-59 0 -99 41 -99 101s39 99 100 99zM250 734c-31 0 -48 -21 -48 -60c0 -38 17 -60 47 -60c31 0 48 22 48 60s-17 60 -47 60z" />
    <glyph glyph-name="cedilla" unicode="&#xb8;" horiz-adv-x="500" 
d="M193 -220l44 150h76l-68 -150h-52z" />
    <glyph glyph-name="hungarumlaut" unicode="&#x2dd;" horiz-adv-x="500" 
d="M158 582l51 141h82l-80 -141h-53zM276 582l51 141h82l-80 -141h-53z" />
    <glyph glyph-name="ogonek" unicode="&#x2db;" horiz-adv-x="500" 
d="M285 0h64c-61 -43 -83 -71 -83 -106c0 -27 14 -39 45 -39c17 0 28 2 49 9l8 -44c-26 -10 -45 -13 -73 -13c-64 0 -97 25 -97 74c0 46 30 87 87 119z" />
    <glyph glyph-name="caron" unicode="&#x2c7;" horiz-adv-x="500" 
d="M250 636l55 81h77l-108 -131h-49l-108 131h77z" />
    <glyph glyph-name="emdash" unicode="&#x2014;" 
d="M15 331v66h450v-66h-450z" />
    <glyph glyph-name="AE" unicode="&#xc6;" horiz-adv-x="801" 
d="M400 166h-259l-85 -166h-90l386 714h401v-66h-276v-254h235v-66h-235v-262h277v-66h-354v166zM400 231v417h-10l-217 -417h227z" />
    <glyph glyph-name="ordfeminine" unicode="&#xaa;" horiz-adv-x="288" 
d="M188 583v25c0 49 -14 67 -52 67c-27 0 -42 -10 -54 -36l-46 16c18 45 51 65 106 65c46 0 79 -15 94 -42c9 -16 12 -37 12 -76v-201h-49l-2 20c-21 -20 -38 -26 -76 -26c-73 0 -100 25 -100 91c0 71 32 97 117 97h50zM191 543h-52c-45 0 -61 -14 -61 -53
c0 -38 14 -51 55 -51s58 15 58 52v52z" />
    <glyph glyph-name="Lslash" unicode="&#x141;" horiz-adv-x="456" 
d="M88 0v216l-63 -50v75l63 50v423h78v-369l167 133v-75l-167 -132v-205h279v-66h-357z" />
    <glyph glyph-name="Oslash" unicode="&#xd8;" horiz-adv-x="571" 
d="M511 697l-40 -73c20 -43 26 -77 27 -147v-240c0 -88 -14 -138 -48 -179c-38 -46 -90 -67 -165 -67c-62 0 -105 13 -142 44l-29 -53l-55 32l41 74c-20 42 -27 79 -27 149v240c0 87 13 139 47 179c38 46 90 67 165 67c63 0 107 -14 143 -45l28 51zM417 527l-235 -423
c24 -33 56 -48 103 -48c93 0 135 58 135 189v224c0 23 -2 48 -3 58zM153 184l236 424c-24 35 -56 50 -104 50c-93 0 -134 -58 -134 -189v-224c0 -27 0 -46 2 -61z" />
    <glyph glyph-name="OE" unicode="&#x152;" horiz-adv-x="822" 
d="M432 0v55c-38 -46 -80 -64 -152 -64c-79 0 -133 25 -169 78c-27 40 -38 89 -38 167v241c0 86 14 138 47 179c37 46 86 67 161 67c71 0 114 -17 151 -61v52h342v-66h-276v-254h235v-66h-235v-262h277v-66h-343zM151 469v-225c0 -130 41 -188 135 -188c92 0 135 60 135 188
v225c0 129 -43 189 -135 189c-94 0 -135 -58 -135 -189z" />
    <glyph glyph-name="ordmasculine" unicode="&#xba;" horiz-adv-x="301" 
d="M32 524v66c0 91 36 130 120 130c81 0 118 -40 118 -130v-66c0 -89 -37 -128 -119 -128s-119 39 -119 128zM211 523v68c0 54 -20 81 -60 81s-60 -27 -60 -81v-68c0 -53 20 -79 60 -79s60 27 60 79z" />
    <glyph glyph-name="ae" unicode="&#xe6;" horiz-adv-x="713" 
d="M122 374l-60 20c15 75 72 117 157 117c66 0 108 -21 129 -65c27 44 72 65 137 65c119 0 171 -67 171 -221v-53h-274v-42c0 -96 35 -142 108 -142c53 0 81 23 92 76l65 -14c-14 -85 -64 -124 -157 -124c-69 0 -113 23 -141 73c-21 -50 -70 -73 -155 -73
c-112 0 -154 40 -154 149c0 114 44 155 167 155h99v35c0 86 -25 119 -90 119c-48 0 -80 -26 -94 -75zM306 237h-86c-78 0 -107 -27 -107 -97c0 -66 25 -89 97 -89c73 0 96 27 96 114v72zM382 295h202v21c0 89 -32 132 -101 132c-68 0 -101 -43 -101 -132v-21z" />
    <glyph glyph-name="dotlessi" unicode="&#x131;" horiz-adv-x="224" 
d="M75 0v502h75v-502h-75z" />
    <glyph glyph-name="lslash" unicode="&#x142;" horiz-adv-x="265" 
d="M80 364v350h75v-298l97 76v-77l-97 -76v-183c0 -71 16 -93 71 -93h20v-63h-23c-110 0 -142 33 -143 148v139l-78 -61v77z" />
    <glyph glyph-name="oslash" unicode="&#xf8;" horiz-adv-x="477" 
d="M416 493l-30 -50c19 -31 29 -79 29 -138v-107c0 -143 -55 -207 -176 -207c-46 0 -83 10 -110 28l-24 -40l-47 31l31 51c-18 32 -28 78 -27 137v107c0 142 54 206 176 206c44 0 80 -9 107 -26l24 38zM336 361l-169 -280c19 -19 40 -27 71 -27c71 0 102 44 102 142v110
c0 22 -1 38 -4 55zM140 145l168 278c-17 18 -38 26 -69 26c-71 0 -102 -44 -102 -143v-110c0 -21 1 -38 3 -51z" />
    <glyph glyph-name="oe" unicode="&#x153;" horiz-adv-x="747" 
d="M62 198v106c0 143 54 207 173 207c71 0 114 -21 144 -69c25 46 71 69 140 69c119 0 171 -67 171 -221v-53h-274v-42c0 -96 35 -142 108 -142c53 0 81 23 92 76l65 -14c-16 -86 -63 -124 -157 -124c-70 0 -110 20 -142 70c-31 -50 -73 -70 -145 -70
c-121 0 -175 64 -175 207zM341 197v108c0 100 -31 144 -102 144s-102 -44 -102 -144v-108c0 -99 31 -143 102 -143s102 44 102 143zM416 296h202v20c0 89 -32 132 -100 132c-69 0 -102 -43 -102 -132v-20z" />
    <glyph glyph-name="germandbls" unicode="&#xdf;" horiz-adv-x="484" 
d="M74 0v542c0 123 51 180 160 180c103 0 160 -55 160 -155c0 -52 -11 -84 -41 -121c51 -27 73 -85 72 -197v-38c1 -153 -41 -211 -155 -211h-39v62h31c70 0 88 30 88 145v46c-1 123 -19 155 -85 152h-15v57h14c39 0 60 33 60 96c0 69 -29 103 -89 103
c-61 0 -86 -35 -86 -118v-543h-75z" />
    <glyph glyph-name="onesuperior" unicode="&#xb9;" horiz-adv-x="257" 
d="M110 386v365l-65 -29l-20 44l103 48h44v-428h-62z" />
    <glyph glyph-name="logicalnot" unicode="&#xac;" 
d="M49 334v61h357v-259h-72v198h-285z" />
    <glyph glyph-name="mu" unicode="&#xb5;" 
d="M77 501h73v-296c0 -108 25 -151 87 -151c67 0 94 50 94 176v271h73v-501h-52l-9 63c-22 -50 -56 -73 -110 -73c-37 0 -60 10 -83 36v-251h-73v726z" />
    <glyph glyph-name="trademark" unicode="&#x2122;" horiz-adv-x="734" 
d="M118 286v377h-109v51h278v-51h-107v-377h-62zM335 286v428h59l112 -264l111 264h59v-428h-59v302l-90 -217h-43l-90 217v-302h-59z" />
    <glyph glyph-name="Eth" unicode="&#xd0;" horiz-adv-x="573" 
d="M88 394v320h190c150 3 225 -78 222 -237v-240c4 -159 -72 -240 -222 -237h-190v329h-69v65h69zM166 394h135v-65h-135v-264h105c106 -2 151 53 151 183v219c0 129 -45 184 -151 182h-105v-255z" />
    <glyph glyph-name="onehalf" unicode="&#xbd;" horiz-adv-x="765" 
d="M134 286v364l-66 -30l-21 48l106 46h43v-428h-62zM210 0l189 714h70l-189 -714h-70zM458 0v41l112 148c39 51 59 94 59 129c0 42 -19 65 -55 65c-34 0 -53 -23 -60 -71l-58 4c8 81 45 117 121 117s115 -39 115 -115c0 -55 -14 -85 -76 -168l-75 -99h150v-51h-233z" />
    <glyph glyph-name="plusminus" unicode="&#xb1;" 
d="M40 339v61h167v180h66v-180h166v-61h-166v-181h-66v181h-167zM40 23v61h399v-61h-399z" />
    <glyph glyph-name="Thorn" unicode="&#xde;" horiz-adv-x="515" 
d="M166 164v-164h-78v714h78v-115h104c82 0 127 -16 162 -58c30 -37 45 -88 45 -159c0 -77 -17 -132 -53 -169c-34 -35 -78 -49 -154 -49h-104zM165 229h104c51 0 79 11 100 38c19 26 30 66 30 115c0 53 -12 95 -35 120c-21 23 -47 32 -94 32h-105v-305z" />
    <glyph glyph-name="onequarter" unicode="&#xbc;" horiz-adv-x="765" 
d="M139 286v364l-66 -30l-21 48l106 46h43v-428h-62zM222 0l188 714h70l-188 -714h-70zM596 0v80h-166v38l128 310h64l-122 -298h96v107h55v-107h39v-51h-39v-79h-55z" />
    <glyph glyph-name="divide" unicode="&#xf7;" 
d="M40 334v61h399v-61h-399zM205 166v87h69v-87h-69zM205 475v87h69v-87h-69z" />
    <glyph glyph-name="brokenbar" unicode="&#xa6;" horiz-adv-x="420" 
d="M174 455v259h72v-259h-72zM174 0v249h72v-249h-72z" />
    <glyph glyph-name="degree" unicode="&#xb0;" horiz-adv-x="343" 
d="M173 744c93 0 152 -59 152 -152s-59 -151 -153 -151c-95 0 -154 58 -154 151c0 94 59 152 155 152zM173 691c-58 0 -91 -36 -91 -99c0 -62 33 -98 90 -98s89 36 89 98s-33 99 -88 99z" />
    <glyph glyph-name="thorn" unicode="&#xfe;" horiz-adv-x="481" 
d="M150 31v-256h-75v939h75v-245c31 30 63 42 115 42c106 0 156 -65 156 -204v-106c0 -145 -50 -210 -160 -210c-48 0 -83 13 -111 40zM347 200v106c0 94 -32 141 -96 141c-68 0 -101 -51 -101 -156v-80c0 -105 33 -156 101 -156c64 0 96 48 96 145z" />
    <glyph glyph-name="threequarters" unicode="&#xbe;" horiz-adv-x="765" 
d="M104 488v46h38c41 0 69 27 69 69c0 41 -22 66 -58 66c-34 0 -52 -18 -58 -61l-57 4c7 74 43 107 118 107c77 0 117 -39 117 -114c0 -46 -14 -72 -47 -93c40 -22 57 -54 57 -108c0 -82 -42 -123 -126 -123c-54 0 -93 18 -112 50c-9 15 -13 31 -15 61l58 6
c4 -46 25 -67 66 -67c43 0 67 26 67 73c0 51 -30 84 -75 84h-42zM624 0v80h-166v38l128 310h64l-123 -298h97v107h55v-107h39v-51h-39v-79h-55zM261 0l188 714h70l-188 -714h-70z" />
    <glyph glyph-name="twosuperior" unicode="&#xb2;" horiz-adv-x="312" 
d="M33 386v41l112 148c39 51 59 94 59 129c0 42 -19 65 -55 65c-34 0 -53 -23 -60 -71l-58 4c8 81 45 117 121 117s115 -39 115 -115c0 -55 -14 -86 -77 -168l-74 -99h150v-51h-233z" />
    <glyph glyph-name="registered" unicode="&#xae;" horiz-adv-x="617" 
d="M268 554v-112h-52v274h107c66 0 96 -24 96 -79c0 -44 -16 -68 -51 -78l59 -117h-56l-53 112h-50zM267 588h54c31 0 46 15 46 45s-16 45 -48 45h-52v-90zM312 859c155 0 271 -120 271 -280c0 -161 -116 -280 -274 -280s-275 118 -275 279c0 164 116 281 278 281zM312 809
c-70 0 -121 -20 -160 -63c-38 -43 -61 -105 -61 -168c0 -61 23 -123 61 -166c38 -42 91 -63 157 -63c65 0 118 21 156 63c39 43 61 104 61 167c0 134 -89 230 -214 230z" />
    <glyph glyph-name="minus" unicode="&#x2212;" 
d="M40 334v61h399v-61h-399z" />
    <glyph glyph-name="eth" unicode="&#xf0;" horiz-adv-x="476" 
d="M62 195v105c0 138 53 204 164 204c37 0 62 -7 85 -24c-11 38 -31 83 -46 102l-92 -47l-28 44l81 41c-34 28 -64 43 -99 49l9 52c61 -7 105 -27 150 -68l73 37l28 -44l-63 -31c54 -73 91 -203 91 -321v-99c0 -142 -54 -204 -176 -204c-123 0 -177 62 -177 204zM340 198
v100c0 99 -31 143 -102 143c-70 0 -101 -44 -101 -143v-100c0 -100 31 -144 101 -144c71 0 102 44 102 144z" />
    <glyph glyph-name="multiply" unicode="&#xd7;" 
d="M197 364l-144 145l43 43l144 -145l145 145l43 -43l-145 -145l145 -144l-43 -43l-145 144l-144 -144l-43 43z" />
    <glyph glyph-name="threesuperior" unicode="&#xb3;" horiz-adv-x="312" 
d="M97 588v46h38c41 0 69 27 69 69c0 41 -22 66 -58 66c-34 0 -52 -18 -58 -61l-57 4c7 74 43 107 118 107c77 0 117 -39 117 -114c0 -46 -14 -72 -47 -93c40 -22 57 -54 57 -108c0 -82 -42 -123 -126 -123c-54 0 -93 18 -112 50c-9 15 -13 31 -15 61l58 6
c4 -46 25 -67 66 -67c43 0 67 26 67 73c0 51 -30 84 -75 84h-42z" />
    <glyph glyph-name="copyright" unicode="&#xa9;" horiz-adv-x="781" 
d="M462 278l55 -2c-2 -64 -42 -95 -122 -95c-89 0 -126 43 -126 148v56c0 104 37 148 126 148c77 0 115 -31 118 -95l-55 -2c-4 33 -25 50 -61 50c-48 0 -68 -28 -68 -97v-64c0 -69 20 -97 68 -97c39 0 59 16 65 50zM396 727c202 0 352 -158 352 -370
c0 -214 -150 -370 -357 -370c-206 0 -357 156 -357 369c0 218 150 371 362 371zM395 674c-93 0 -164 -31 -222 -96c-51 -58 -78 -134 -78 -222c0 -183 124 -316 296 -316s296 133 296 317c0 182 -124 317 -292 317z" />
    <glyph glyph-name="Aacute" unicode="&#xc1;" horiz-adv-x="508" 
d="M381 158h-253l-44 -158h-85l221 714h70l220 -714h-84zM364 223l-109 385l-110 -385h219zM214 790l64 141h89l-97 -141h-56z" />
    <glyph glyph-name="Acircumflex" unicode="&#xc2;" horiz-adv-x="508" 
d="M381 158h-253l-44 -158h-85l221 714h70l220 -714h-84zM364 223l-109 385l-110 -385h219zM254 876l-55 -81h-77l108 132h49l108 -132h-77z" />
    <glyph glyph-name="Adieresis" unicode="&#xc4;" horiz-adv-x="508" 
d="M381 158h-253l-44 -158h-85l221 714h70l220 -714h-84zM364 223l-109 385l-110 -385h219zM137 798v102h68v-102h-68zM304 798v102h68v-102h-68z" />
    <glyph glyph-name="Agrave" unicode="&#xc0;" horiz-adv-x="508" 
d="M381 158h-253l-44 -158h-85l221 714h70l220 -714h-84zM364 223l-109 385l-110 -385h219zM296 790h-56l-97 141h89z" />
    <glyph glyph-name="Aring" unicode="&#xc5;" horiz-adv-x="508" 
d="M381 158h-253l-44 -158h-85l221 714h70l220 -714h-84zM364 223l-109 385l-110 -385h219zM255 983c58 0 97 -40 97 -100s-40 -101 -98 -101c-59 0 -99 41 -99 101c0 61 39 100 100 100zM254 943c-31 0 -48 -21 -48 -61c0 -38 17 -60 47 -60c31 0 48 22 48 61
c0 38 -17 60 -47 60z" />
    <glyph glyph-name="Atilde" unicode="&#xc3;" horiz-adv-x="508" 
d="M381 158h-253l-44 -158h-85l221 714h70l220 -714h-84zM364 223l-109 385l-110 -385h219zM166 806h-47c17 83 38 111 84 111c24 0 42 -9 63 -32c23 -25 32 -32 44 -32c15 0 26 17 33 56h47c-6 -37 -11 -54 -18 -69c-13 -28 -34 -42 -63 -42c-26 0 -44 9 -66 33
c-22 26 -29 31 -40 31c-16 0 -30 -21 -37 -56z" />
    <glyph glyph-name="Ccedilla" unicode="&#xc7;" horiz-adv-x="536" 
d="M401 188l73 -4c-4 -125 -74 -193 -200 -193c-76 0 -131 27 -165 79c-25 39 -36 92 -36 179v215c0 97 13 150 45 191c35 45 86 67 157 67c122 0 189 -65 193 -188l-73 -3c-6 84 -45 126 -119 126c-89 0 -125 -56 -125 -196v-209c0 -139 36 -196 124 -196
c78 0 122 47 126 132zM200 -220l44 150h76l-68 -150h-52z" />
    <glyph glyph-name="Eacute" unicode="&#xc9;" horiz-adv-x="490" 
d="M88 0v714h353v-66h-275v-254h234v-66h-234v-262h277v-66h-355zM223 790l64 141h89l-97 -141h-56z" />
    <glyph glyph-name="Ecircumflex" unicode="&#xca;" horiz-adv-x="490" 
d="M88 0v714h353v-66h-275v-254h234v-66h-234v-262h277v-66h-355zM264 876l-55 -81h-77l108 132h49l108 -132h-77z" />
    <glyph glyph-name="Edieresis" unicode="&#xcb;" horiz-adv-x="490" 
d="M88 0v714h353v-66h-275v-254h234v-66h-234v-262h277v-66h-355zM148 798v102h68v-102h-68zM315 798v102h68v-102h-68z" />
    <glyph glyph-name="Egrave" unicode="&#xc8;" horiz-adv-x="490" 
d="M88 0v714h353v-66h-275v-254h234v-66h-234v-262h277v-66h-355zM315 790h-56l-97 141h89z" />
    <glyph glyph-name="Iacute" unicode="&#xcd;" horiz-adv-x="253" 
d="M82 0v714h78v-714h-78zM80 790l64 141h89l-97 -141h-56z" />
    <glyph glyph-name="Icircumflex" unicode="&#xce;" horiz-adv-x="253" 
d="M87 0v714h78v-714h-78zM126 876l-55 -81h-77l107 132h50l108 -132h-77z" />
    <glyph glyph-name="Idieresis" unicode="&#xcf;" horiz-adv-x="253" 
d="M88 0v714h78v-714h-78zM10 798v102h68v-102h-68zM176 798v102h68v-102h-68z" />
    <glyph glyph-name="Igrave" unicode="&#xcc;" horiz-adv-x="253" 
d="M88 0v714h78v-714h-78zM169 790h-57l-96 141h89z" />
    <glyph glyph-name="Ntilde" unicode="&#xd1;" horiz-adv-x="610" 
d="M88 0v714h76l283 -565v565h75v-714h-75l-284 566v-566h-75zM222 806h-47c17 83 38 111 84 111c24 0 42 -9 63 -32c23 -25 32 -32 44 -32c15 0 26 17 33 56h47c-6 -37 -11 -54 -18 -69c-13 -28 -34 -42 -63 -42c-26 0 -44 9 -66 33c-22 26 -29 31 -40 31
c-16 0 -30 -21 -37 -56z" />
    <glyph glyph-name="Oacute" unicode="&#xd3;" horiz-adv-x="572" 
d="M73 237v240c0 87 14 139 48 179c38 46 90 67 165 67c80 0 136 -25 173 -78c28 -39 39 -88 39 -168v-240c0 -87 -14 -139 -48 -179c-38 -46 -90 -67 -164 -67c-81 0 -137 25 -174 78c-27 39 -39 89 -39 168zM420 245v224c0 131 -41 189 -135 189c-93 0 -134 -58 -134 -189
v-224c0 -131 41 -189 134 -189c94 0 135 58 135 189zM240 790l64 141h89l-97 -141h-56z" />
    <glyph glyph-name="Ocircumflex" unicode="&#xd4;" horiz-adv-x="572" 
d="M73 237v240c0 87 14 139 48 179c38 46 90 67 165 67c80 0 136 -25 173 -78c28 -39 39 -88 39 -168v-240c0 -87 -14 -139 -48 -179c-38 -46 -90 -67 -164 -67c-81 0 -137 25 -174 78c-27 39 -39 89 -39 168zM420 245v224c0 131 -41 189 -135 189c-93 0 -134 -58 -134 -189
v-224c0 -131 41 -189 134 -189c94 0 135 58 135 189zM285 876l-55 -81h-77l108 132h49l108 -132h-77z" />
    <glyph glyph-name="Odieresis" unicode="&#xd6;" horiz-adv-x="572" 
d="M73 237v240c0 87 14 139 48 179c38 46 90 67 165 67c80 0 136 -25 173 -78c28 -39 39 -88 39 -168v-240c0 -87 -14 -139 -48 -179c-38 -46 -90 -67 -164 -67c-81 0 -137 25 -174 78c-27 39 -39 89 -39 168zM420 245v224c0 131 -41 189 -135 189c-93 0 -134 -58 -134 -189
v-224c0 -131 41 -189 134 -189c94 0 135 58 135 189zM168 798v102h68v-102h-68zM335 798v102h68v-102h-68z" />
    <glyph glyph-name="Ograve" unicode="&#xd2;" horiz-adv-x="572" 
d="M73 237v240c0 87 14 139 48 179c38 46 90 67 165 67c80 0 136 -25 173 -78c28 -39 39 -88 39 -168v-240c0 -87 -14 -139 -48 -179c-38 -46 -90 -67 -164 -67c-81 0 -137 25 -174 78c-27 39 -39 89 -39 168zM420 245v224c0 131 -41 189 -135 189c-93 0 -134 -58 -134 -189
v-224c0 -131 41 -189 134 -189c94 0 135 58 135 189zM333 790h-56l-97 141h89z" />
    <glyph glyph-name="Otilde" unicode="&#xd5;" horiz-adv-x="572" 
d="M73 237v240c0 87 14 139 48 179c38 46 90 67 165 67c80 0 136 -25 173 -78c28 -39 39 -88 39 -168v-240c0 -87 -14 -139 -48 -179c-38 -46 -90 -67 -164 -67c-81 0 -137 25 -174 78c-27 39 -39 89 -39 168zM420 245v224c0 131 -41 189 -135 189c-93 0 -134 -58 -134 -189
v-224c0 -131 41 -189 134 -189c94 0 135 58 135 189zM197 806h-47c17 83 38 111 84 111c24 0 42 -9 63 -32c23 -25 32 -32 44 -32c15 0 26 17 33 56h47c-6 -37 -11 -54 -18 -69c-13 -28 -34 -42 -63 -42c-26 0 -44 9 -66 33c-22 26 -29 31 -40 31c-16 0 -30 -21 -37 -56z
" />
    <glyph glyph-name="Scaron" unicode="&#x160;" horiz-adv-x="495" 
d="M37 146l68 19c21 -76 61 -109 135 -109c88 0 134 46 134 135c0 41 -12 74 -35 95c-22 19 -27 21 -110 46c-122 36 -172 93 -172 200c0 120 70 191 188 191c102 0 158 -44 180 -142l-68 -18c-20 69 -51 95 -113 95c-70 0 -111 -45 -111 -122c0 -73 35 -110 135 -140
c82 -25 96 -31 125 -54c38 -31 57 -80 57 -147c0 -132 -73 -204 -209 -204c-119 0 -180 46 -204 155zM251 844l55 81h77l-108 -131h-49l-108 131h77z" />
    <glyph glyph-name="Uacute" unicode="&#xda;" horiz-adv-x="584" 
d="M85 714h78v-485c0 -62 5 -93 21 -118c22 -38 54 -55 104 -55c60 0 94 18 116 63c12 24 16 54 16 110v485h78v-485c0 -89 -8 -127 -36 -165c-38 -51 -89 -73 -171 -73c-86 0 -142 26 -177 84c-22 35 -29 73 -29 154v485zM250 790l64 141h89l-97 -141h-56z" />
    <glyph glyph-name="Ucircumflex" unicode="&#xdb;" horiz-adv-x="584" 
d="M85 714h78v-485c0 -62 5 -93 21 -118c22 -38 54 -55 104 -55c60 0 94 18 116 63c12 24 16 54 16 110v485h78v-485c0 -89 -8 -127 -36 -165c-38 -51 -89 -73 -171 -73c-86 0 -142 26 -177 84c-22 35 -29 73 -29 154v485zM291 876l-55 -81h-77l108 132h49l108 -132h-77z
" />
    <glyph glyph-name="Udieresis" unicode="&#xdc;" horiz-adv-x="584" 
d="M85 714h78v-485c0 -62 5 -93 21 -118c22 -38 54 -55 104 -55c60 0 94 18 116 63c12 24 16 54 16 110v485h78v-485c0 -89 -8 -127 -36 -165c-38 -51 -89 -73 -171 -73c-86 0 -142 26 -177 84c-22 35 -29 73 -29 154v485zM174 798v102h68v-102h-68zM341 798v102h68v-102
h-68z" />
    <glyph glyph-name="Ugrave" unicode="&#xd9;" horiz-adv-x="584" 
d="M85 714h78v-485c0 -62 5 -93 21 -118c22 -38 54 -55 104 -55c60 0 94 18 116 63c12 24 16 54 16 110v485h78v-485c0 -89 -8 -127 -36 -165c-38 -51 -89 -73 -171 -73c-86 0 -142 26 -177 84c-22 35 -29 73 -29 154v485zM344 790h-56l-97 141h89z" />
    <glyph glyph-name="Yacute" unicode="&#xdd;" horiz-adv-x="457" 
d="M190 0v260l-190 454h82l147 -365l147 365h82l-190 -454v-260h-78zM194 790l64 141h89l-97 -141h-56z" />
    <glyph glyph-name="Ydieresis" unicode="&#x178;" horiz-adv-x="457" 
d="M190 0v260l-190 454h82l147 -365l147 365h82l-190 -454v-260h-78zM111 798v102h68v-102h-68zM278 798v102h68v-102h-68z" />
    <glyph glyph-name="Zcaron" unicode="&#x17d;" horiz-adv-x="457" 
d="M40 0v50l275 598h-258v66h344v-50l-275 -598h288v-66h-374zM248 844l55 81h77l-108 -131h-49l-108 131h77z" />
    <glyph glyph-name="aacute" unicode="&#xe1;" horiz-adv-x="452" 
d="M306 294v36c0 87 -24 119 -90 119c-48 0 -74 -21 -91 -75l-64 19c21 80 72 118 157 118c69 0 117 -23 142 -66c15 -27 21 -63 21 -123v-322h-60l-5 35c-28 -33 -58 -44 -122 -44c-112 0 -154 40 -154 149c0 113 44 154 167 154h99zM306 236h-86c-78 0 -107 -26 -107 -96
c0 -64 24 -86 97 -86c74 0 96 22 96 98v84zM185 582l64 141h89l-97 -141h-56z" />
    <glyph glyph-name="acircumflex" unicode="&#xe2;" horiz-adv-x="452" 
d="M306 294v36c0 87 -24 119 -90 119c-48 0 -74 -21 -91 -75l-64 19c21 80 72 118 157 118c69 0 117 -23 142 -66c15 -27 21 -63 21 -123v-322h-60l-5 35c-28 -33 -58 -44 -122 -44c-112 0 -154 40 -154 149c0 113 44 154 167 154h99zM306 236h-86c-78 0 -107 -26 -107 -96
c0 -64 24 -86 97 -86c74 0 96 22 96 98v84zM226 668l-55 -81h-77l108 131h49l108 -131h-77z" />
    <glyph glyph-name="adieresis" unicode="&#xe4;" horiz-adv-x="452" 
d="M306 294v36c0 87 -24 119 -90 119c-48 0 -74 -21 -91 -75l-64 19c21 80 72 118 157 118c69 0 117 -23 142 -66c15 -27 21 -63 21 -123v-322h-60l-5 35c-28 -33 -58 -44 -122 -44c-112 0 -154 40 -154 149c0 113 44 154 167 154h99zM306 236h-86c-78 0 -107 -26 -107 -96
c0 -64 24 -86 97 -86c74 0 96 22 96 98v84zM109 590v102h68v-102h-68zM274 590v102h68v-102h-68z" />
    <glyph glyph-name="agrave" unicode="&#xe0;" horiz-adv-x="452" 
d="M306 294v36c0 87 -24 119 -90 119c-48 0 -74 -21 -91 -75l-64 19c21 80 72 118 157 118c69 0 117 -23 142 -66c15 -27 21 -63 21 -123v-322h-60l-5 35c-28 -33 -58 -44 -122 -44c-112 0 -154 40 -154 149c0 113 44 154 167 154h99zM306 236h-86c-78 0 -107 -26 -107 -96
c0 -64 24 -86 97 -86c74 0 96 22 96 98v84zM280 582h-56l-97 141h89z" />
    <glyph glyph-name="aring" unicode="&#xe5;" horiz-adv-x="452" 
d="M306 294v36c0 87 -24 119 -90 119c-48 0 -74 -21 -91 -75l-64 19c21 80 72 118 157 118c69 0 117 -23 142 -66c15 -27 21 -63 21 -123v-322h-60l-5 35c-28 -33 -58 -44 -122 -44c-112 0 -154 40 -154 149c0 113 44 154 167 154h99zM306 236h-86c-78 0 -107 -26 -107 -96
c0 -64 24 -86 97 -86c74 0 96 22 96 98v84zM230 774c58 0 97 -40 97 -99c0 -60 -40 -101 -98 -101c-59 0 -99 41 -99 101s39 99 100 99zM229 734c-31 0 -48 -21 -48 -60c0 -38 17 -60 47 -60c31 0 48 22 48 60s-17 60 -47 60z" />
    <glyph glyph-name="atilde" unicode="&#xe3;" horiz-adv-x="452" 
d="M306 294v36c0 87 -24 119 -90 119c-48 0 -74 -21 -91 -75l-64 19c21 80 72 118 157 118c69 0 117 -23 142 -66c15 -27 21 -63 21 -123v-322h-60l-5 35c-28 -33 -58 -44 -122 -44c-112 0 -154 40 -154 149c0 113 44 154 167 154h99zM306 236h-86c-78 0 -107 -26 -107 -96
c0 -64 24 -86 97 -86c74 0 96 22 96 98v84zM138 598h-47c17 83 38 110 84 110c24 0 42 -9 63 -31c23 -26 32 -32 44 -32c15 0 26 17 33 56h47c-7 -37 -11 -54 -18 -69c-13 -28 -34 -42 -63 -42c-26 0 -44 9 -66 33c-22 26 -29 31 -40 31c-16 0 -30 -21 -37 -56z" />
    <glyph glyph-name="ccedilla" unicode="&#xe7;" horiz-adv-x="419" 
d="M322 129l66 -13c-15 -86 -65 -125 -157 -125c-115 0 -169 69 -169 214v86c0 153 53 221 173 221c86 0 127 -34 147 -119l-65 -19c-14 55 -37 76 -83 76c-67 0 -97 -47 -97 -154v-97c0 -98 32 -145 99 -145c49 0 75 23 86 75zM147 -220l44 150h76l-68 -150h-52z" />
    <glyph glyph-name="eacute" unicode="&#xe9;" horiz-adv-x="466" 
d="M137 237v-42c0 -96 35 -141 107 -141c54 0 81 22 93 75l65 -14c-15 -86 -65 -124 -161 -124c-123 0 -179 68 -179 219v80c0 153 54 221 174 221c121 0 174 -67 174 -221v-53h-273zM137 295h201v21c0 89 -32 132 -100 132s-101 -43 -101 -132v-21zM194 582l64 141h89
l-97 -141h-56z" />
    <glyph glyph-name="ecircumflex" unicode="&#xea;" horiz-adv-x="466" 
d="M137 237v-42c0 -96 35 -141 107 -141c54 0 81 22 93 75l65 -14c-15 -86 -65 -124 -161 -124c-123 0 -179 68 -179 219v80c0 153 54 221 174 221c121 0 174 -67 174 -221v-53h-273zM137 295h201v21c0 89 -32 132 -100 132s-101 -43 -101 -132v-21zM239 668l-55 -81h-77
l108 131h49l108 -131h-77z" />
    <glyph glyph-name="edieresis" unicode="&#xeb;" horiz-adv-x="466" 
d="M137 237v-42c0 -96 35 -141 107 -141c54 0 81 22 93 75l65 -14c-15 -86 -65 -124 -161 -124c-123 0 -179 68 -179 219v80c0 153 54 221 174 221c121 0 174 -67 174 -221v-53h-273zM137 295h201v21c0 89 -32 132 -100 132s-101 -43 -101 -132v-21zM123 590v102h68v-102
h-68zM288 590v102h68v-102h-68z" />
    <glyph glyph-name="egrave" unicode="&#xe8;" horiz-adv-x="466" 
d="M137 237v-42c0 -96 35 -141 107 -141c54 0 81 22 93 75l65 -14c-15 -86 -65 -124 -161 -124c-123 0 -179 68 -179 219v80c0 153 54 221 174 221c121 0 174 -67 174 -221v-53h-273zM137 295h201v21c0 89 -32 132 -100 132s-101 -43 -101 -132v-21zM286 582h-56l-97 141h89
z" />
    <glyph glyph-name="iacute" unicode="&#xed;" horiz-adv-x="224" 
d="M72 0v502h75v-502h-75zM67 582l64 141h89l-97 -141h-56z" />
    <glyph glyph-name="icircumflex" unicode="&#xee;" horiz-adv-x="224" 
d="M75 0v502h75v-502h-75zM112 668l-55 -81h-77l107 131h50l108 -131h-77z" />
    <glyph glyph-name="idieresis" unicode="&#xef;" horiz-adv-x="224" 
d="M75 0v502h75v-502h-75zM-4 590v102h68v-102h-68zM160 590v102h68v-102h-68z" />
    <glyph glyph-name="igrave" unicode="&#xec;" horiz-adv-x="224" 
d="M75 0v502h75v-502h-75zM156 582h-57l-96 141h89z" />
    <glyph glyph-name="ntilde" unicode="&#xf1;" horiz-adv-x="483" 
d="M74 0v502h58l5 -49c30 43 64 59 122 59c72 0 120 -30 141 -87c9 -26 13 -62 13 -118v-307h-75v299c0 107 -25 148 -90 148c-71 0 -99 -48 -99 -172v-275h-75zM153 598h-47c17 83 38 110 84 110c24 0 42 -9 63 -31c23 -26 32 -32 44 -32c15 0 26 17 33 56h47
c-7 -37 -11 -54 -18 -69c-13 -28 -34 -42 -63 -42c-26 0 -44 9 -66 33c-22 26 -29 31 -40 31c-16 0 -30 -21 -37 -56z" />
    <glyph glyph-name="oacute" unicode="&#xf3;" horiz-adv-x="476" 
d="M62 197v108c0 143 54 206 177 206c122 0 176 -63 176 -206v-108c0 -143 -54 -206 -176 -206c-123 0 -177 63 -177 206zM340 197v109c0 99 -30 142 -102 142c-70 0 -101 -43 -101 -142v-109c0 -100 31 -143 101 -143c71 0 102 43 102 143zM193 582l64 141h89l-97 -141h-56
z" />
    <glyph glyph-name="ocircumflex" unicode="&#xf4;" horiz-adv-x="476" 
d="M62 197v108c0 143 54 206 177 206c122 0 176 -63 176 -206v-108c0 -143 -54 -206 -176 -206c-123 0 -177 63 -177 206zM340 197v109c0 99 -30 142 -102 142c-70 0 -101 -43 -101 -142v-109c0 -100 31 -143 101 -143c71 0 102 43 102 143zM238 668l-55 -81h-77l108 131h49
l108 -131h-77z" />
    <glyph glyph-name="odieresis" unicode="&#xf6;" horiz-adv-x="476" 
d="M62 197v108c0 143 54 206 177 206c122 0 176 -63 176 -206v-108c0 -143 -54 -206 -176 -206c-123 0 -177 63 -177 206zM340 197v109c0 99 -30 142 -102 142c-70 0 -101 -43 -101 -142v-109c0 -100 31 -143 101 -143c71 0 102 43 102 143zM122 590v102h68v-102h-68z
M287 590v102h68v-102h-68z" />
    <glyph glyph-name="ograve" unicode="&#xf2;" horiz-adv-x="476" 
d="M62 197v108c0 143 54 206 177 206c122 0 176 -63 176 -206v-108c0 -143 -54 -206 -176 -206c-123 0 -177 63 -177 206zM340 197v109c0 99 -30 142 -102 142c-70 0 -101 -43 -101 -142v-109c0 -100 31 -143 101 -143c71 0 102 43 102 143zM285 582h-56l-97 141h89z" />
    <glyph glyph-name="otilde" unicode="&#xf5;" horiz-adv-x="476" 
d="M62 197v108c0 143 54 206 177 206c122 0 176 -63 176 -206v-108c0 -143 -54 -206 -176 -206c-123 0 -177 63 -177 206zM340 197v109c0 99 -30 142 -102 142c-70 0 -101 -43 -101 -142v-109c0 -100 31 -143 101 -143c71 0 102 43 102 143zM150 598h-47
c17 83 38 110 84 110c24 0 42 -9 63 -31c23 -26 32 -32 44 -32c15 0 26 17 33 56h47c-7 -37 -11 -54 -18 -69c-13 -28 -34 -42 -63 -42c-26 0 -44 9 -66 33c-22 26 -29 31 -40 31c-16 0 -30 -21 -37 -56z" />
    <glyph glyph-name="scaron" unicode="&#x161;" horiz-adv-x="413" 
d="M27 115l65 15c15 -55 46 -77 107 -77c67 0 103 30 103 86c0 30 -10 52 -29 64c-16 9 -25 12 -79 23c-60 12 -89 24 -109 44c-24 22 -36 55 -36 98c0 92 53 143 150 143c92 0 137 -34 156 -117l-64 -15c-12 49 -39 70 -89 70c-52 0 -82 -29 -82 -79c0 -49 23 -69 94 -83
c75 -15 97 -23 120 -42c26 -21 39 -58 39 -107c0 -97 -59 -147 -175 -147c-99 0 -154 41 -171 124zM206 636l55 81h77l-108 -131h-49l-108 131h77z" />
    <glyph glyph-name="uacute" unicode="&#xfa;" horiz-adv-x="473" 
d="M70 502h75v-299c0 -107 24 -147 86 -147c66 0 93 49 93 171v275h75v-502h-58l-5 49c-30 -42 -62 -58 -117 -58c-69 0 -116 30 -136 87c-9 25 -13 63 -13 118v306zM191 582l64 141h89l-97 -141h-56z" />
    <glyph glyph-name="ucircumflex" unicode="&#xfb;" horiz-adv-x="473" 
d="M70 502h75v-299c0 -107 24 -147 86 -147c66 0 93 49 93 171v275h75v-502h-58l-5 49c-30 -42 -62 -58 -117 -58c-69 0 -116 30 -136 87c-9 25 -13 63 -13 118v306zM236 668l-55 -81h-77l108 131h49l108 -131h-77z" />
    <glyph glyph-name="udieresis" unicode="&#xfc;" horiz-adv-x="473" 
d="M70 502h75v-299c0 -107 24 -147 86 -147c66 0 93 49 93 171v275h75v-502h-58l-5 49c-30 -42 -62 -58 -117 -58c-69 0 -116 30 -136 87c-9 25 -13 63 -13 118v306zM120 590v102h68v-102h-68zM285 590v102h68v-102h-68z" />
    <glyph glyph-name="ugrave" unicode="&#xf9;" horiz-adv-x="473" 
d="M70 502h75v-299c0 -107 24 -147 86 -147c66 0 93 49 93 171v275h75v-502h-58l-5 49c-30 -42 -62 -58 -117 -58c-69 0 -116 30 -136 87c-9 25 -13 63 -13 118v306zM283 582h-56l-97 141h89z" />
    <glyph glyph-name="yacute" unicode="&#xfd;" horiz-adv-x="418" 
d="M174 -2l-154 504h75l117 -414l106 414h76l-164 -587c-36 -121 -64 -144 -179 -145v64c65 0 80 12 103 89zM173 582l64 141h89l-97 -141h-56z" />
    <glyph glyph-name="ydieresis" unicode="&#xff;" horiz-adv-x="418" 
d="M174 -2l-154 504h75l117 -414l106 414h76l-164 -587c-36 -121 -64 -144 -179 -145v64c65 0 80 12 103 89zM93 590v102h68v-102h-68zM258 590v102h68v-102h-68z" />
    <glyph glyph-name="zcaron" unicode="&#x17e;" horiz-adv-x="398" 
d="M36 0v46l213 393h-196v63h286v-46l-214 -393h227v-63h-316zM210 636l55 81h77l-108 -131h-49l-108 131h77z" />
    <glyph glyph-name="zerooldstyle" unicode="&#xf730;" horiz-adv-x="468" 
d="M60 199v137c0 142 55 208 173 208c119 0 174 -66 174 -208v-138c0 -141 -55 -207 -174 -207c-118 0 -173 66 -173 208zM330 205v124c0 108 -28 152 -97 152s-96 -43 -96 -151v-126c0 -108 27 -150 96 -150s97 43 97 151z" />
    <glyph glyph-name="oneoldstyle" unicode="&#xf731;" horiz-adv-x="303" 
d="M125 0v450l-104 -51l-27 61l155 74h54v-534h-78z" />
    <glyph glyph-name="twooldstyle" unicode="&#xf732;" horiz-adv-x="401" 
d="M17 0v51l161 172c67 72 97 124 97 169c0 59 -30 89 -88 89c-57 0 -87 -30 -96 -97l-70 8c12 103 66 152 168 152c105 0 162 -53 162 -149c0 -69 -22 -108 -121 -213l-113 -119h241v-63h-341z" />
    <glyph glyph-name="threeoldstyle" unicode="&#xf733;" horiz-adv-x="425" 
d="M116 180v63h56c71 0 114 46 114 122c0 74 -32 116 -89 116c-46 0 -78 -31 -85 -84l-70 10c16 94 66 137 160 137c104 0 162 -63 162 -175c0 -78 -26 -124 -89 -157c76 -32 109 -85 109 -176c0 -128 -67 -197 -192 -197c-69 0 -121 22 -150 64c-13 19 -19 37 -24 73l72 14
c3 -56 40 -88 100 -88c73 0 116 50 116 137c0 85 -51 141 -129 141h-61z" />
    <glyph glyph-name="fouroldstyle" unicode="&#xf734;" horiz-adv-x="416" 
d="M271 -152v152h-258v49l196 485h81l-192 -471h173v216h70v-216h67v-63h-67v-152h-70z" />
    <glyph glyph-name="fiveoldstyle" unicode="&#xf735;" horiz-adv-x="458" 
d="M66 179l27 355h284v-66h-218l-19 -220c38 20 59 26 95 26c58 0 104 -22 131 -64c21 -33 31 -80 31 -148c0 -73 -12 -122 -40 -159c-30 -41 -84 -64 -149 -64c-103 0 -163 48 -171 137l71 14c3 -55 40 -88 98 -88c74 0 113 53 113 157c0 105 -32 153 -101 153
c-37 0 -67 -14 -96 -45z" />
    <glyph glyph-name="sixoldstyle" unicode="&#xf736;" horiz-adv-x="470" 
d="M336 696l-139 -271c3 1 6 2 7 3c8 2 16 5 23 8c8 3 19 4 34 4c54 0 99 -24 124 -66c20 -33 29 -81 29 -157c0 -90 -12 -139 -42 -173c-31 -34 -78 -53 -134 -53c-62 0 -112 22 -142 62c-25 32 -35 80 -35 159c0 80 11 127 47 200l141 284h87zM240 381
c-72 0 -102 -49 -102 -168c0 -113 29 -160 100 -160c70 0 99 47 99 163c0 117 -28 165 -97 165z" />
    <glyph glyph-name="sevenoldstyle" unicode="&#xf737;" horiz-adv-x="340" 
d="M41 -152l186 620h-239v66h319v-47l-183 -639h-83z" />
    <glyph glyph-name="eightoldstyle" unicode="&#xf738;" horiz-adv-x="483" 
d="M145 370c-51 29 -69 69 -69 152c0 126 51 183 165 183s165 -57 165 -184c0 -81 -19 -123 -69 -151c65 -28 89 -75 89 -174c0 -143 -56 -205 -185 -205s-185 62 -185 205c0 99 24 147 89 174zM242 645c-67 0 -93 -35 -93 -125c0 -89 26 -126 91 -126c67 0 93 36 93 126
c0 88 -27 125 -91 125zM242 336c-78 0 -109 -39 -109 -139c0 -103 31 -145 108 -145s108 42 108 144c0 99 -31 140 -107 140z" />
    <glyph glyph-name="nineoldstyle" unicode="&#xf739;" horiz-adv-x="470" 
d="M135 -154l138 263c-3 -1 -5 -1 -6 -2l-24 -9c-7 -3 -19 -4 -34 -4c-54 0 -98 24 -124 66c-20 33 -29 82 -29 156c0 91 12 141 42 175c31 35 78 53 134 53c62 0 113 -22 142 -62c25 -33 35 -80 35 -160c0 -79 -12 -131 -47 -199l-141 -277h-86zM233 482
c-71 0 -100 -47 -100 -163c0 -118 28 -166 97 -166c72 0 102 49 102 169c0 113 -29 160 -99 160z" />
    <glyph glyph-name="figuredash" unicode="&#x2012;" horiz-adv-x="482" 
d="M70 331v66h341v-66h-341z" />
    <glyph glyph-name="oneeighth" unicode="&#x215b;" horiz-adv-x="765" 
d="M139 286v364l-66 -30l-21 48l106 46h43v-428h-62zM215 0l189 714h70l-189 -714h-70zM502 227c-27 18 -37 42 -37 91c0 81 34 116 114 116c81 0 115 -35 115 -116c0 -48 -10 -72 -37 -91c35 -19 48 -47 48 -107c0 -89 -37 -126 -126 -126c-88 0 -125 37 -125 126
c0 60 13 88 48 107zM580 388c-41 0 -58 -21 -58 -72c0 -50 17 -71 57 -71c41 0 58 21 58 72c0 49 -17 71 -57 71zM580 200c-47 0 -66 -23 -66 -79s19 -79 65 -79c47 0 66 23 66 79c0 55 -20 79 -65 79z" />
    <glyph glyph-name="threeeighths" unicode="&#x215c;" horiz-adv-x="765" 
d="M110 488v46h38c41 0 69 27 69 69c0 41 -22 66 -58 66c-34 0 -52 -18 -58 -61l-57 4c7 74 43 107 118 107c77 0 117 -39 117 -114c0 -46 -14 -72 -47 -93c40 -22 57 -54 57 -108c0 -82 -42 -123 -126 -123c-54 0 -93 18 -112 50c-9 15 -13 31 -15 61l58 6
c4 -46 25 -67 66 -67c43 0 67 26 67 73c0 51 -30 84 -75 84h-42zM529 227c-27 17 -37 43 -37 91c0 81 34 116 114 116s114 -35 114 -117c0 -47 -10 -71 -37 -90c36 -19 49 -47 49 -107c0 -89 -37 -126 -126 -126c-88 0 -125 37 -125 126c0 59 12 88 48 107zM606 388
c-41 0 -57 -21 -57 -71c0 -51 17 -72 57 -72s57 21 57 72c0 49 -17 71 -57 71zM607 200c-46 0 -65 -23 -65 -79s19 -79 64 -79c46 0 66 23 66 79c0 55 -20 79 -65 79zM255 0l189 714h70l-188 -714h-71z" />
    <glyph glyph-name="fiveeighths" unicode="&#x215d;" horiz-adv-x="765" 
d="M60 488l18 226h198v-51h-145l-10 -120c21 9 34 12 55 12c78 0 112 -41 112 -137c0 -95 -38 -137 -125 -137c-80 0 -118 35 -122 111l58 6c4 -45 25 -67 64 -67c42 0 64 28 64 84c0 64 -18 92 -59 92c-23 0 -46 -10 -61 -28zM531 227c-27 18 -36 43 -36 91
c0 81 34 116 114 116s114 -35 114 -117c0 -47 -10 -71 -37 -90c35 -19 48 -47 48 -107c0 -89 -37 -126 -126 -126c-88 0 -125 37 -125 126c0 59 13 88 48 107zM610 388c-41 0 -58 -21 -58 -71c0 -51 17 -72 57 -72s57 21 57 72c0 49 -17 71 -56 71zM609 200
c-47 0 -66 -23 -66 -79s19 -79 65 -79s66 23 66 79c0 55 -20 79 -65 79zM256 0l189 714h70l-189 -714h-70z" />
    <glyph glyph-name="seveneighths" unicode="&#x215e;" horiz-adv-x="765" 
d="M93 286l130 377h-161v51h227v-37l-128 -391h-68zM516 227c-27 18 -37 42 -37 91c0 81 34 116 114 116s114 -35 114 -116c0 -48 -10 -73 -36 -91c35 -19 48 -47 48 -107c0 -89 -37 -126 -125 -126c-89 0 -126 37 -126 126c0 59 13 88 48 107zM594 388
c-41 0 -58 -21 -58 -71c0 -51 17 -72 57 -72s57 21 57 72c0 49 -17 71 -56 71zM595 200c-47 0 -66 -23 -66 -79s19 -79 65 -79s65 23 65 79c0 55 -19 79 -64 79zM237 0l189 714h70l-189 -714h-70z" />
    <glyph glyph-name="onethird" unicode="&#x2153;" horiz-adv-x="765" 
d="M133 286v364l-66 -30l-21 48l106 46h43v-428h-62zM209 0l189 714h70l-189 -714h-70zM517 202v46h39c41 0 69 27 69 69c0 41 -22 66 -58 66c-34 0 -53 -19 -59 -61l-57 4c6 73 43 107 117 107c78 0 118 -38 118 -114c0 -46 -13 -72 -47 -93c40 -22 57 -54 57 -109
c0 -81 -42 -122 -126 -122c-54 0 -93 18 -112 50c-8 14 -12 31 -15 61l58 6c4 -46 26 -67 67 -67c43 0 67 26 67 73c0 51 -30 84 -75 84h-43z" />
    <glyph glyph-name="twothirds" unicode="&#x2154;" horiz-adv-x="765" 
d="M37 286v41l112 148c39 51 59 94 59 129c0 42 -19 65 -55 65c-34 0 -53 -23 -60 -71l-58 4c7 81 44 117 121 117c76 0 115 -39 115 -115c0 -55 -14 -86 -77 -168l-74 -99h150v-51h-233zM547 202v46h39c41 0 68 27 68 69c0 41 -22 66 -58 66c-34 0 -52 -19 -58 -61l-57 4
c7 74 43 107 117 107c78 0 118 -38 118 -114c0 -46 -13 -72 -47 -93c40 -22 57 -54 57 -108c0 -82 -42 -123 -126 -123c-54 0 -93 18 -112 50c-9 14 -13 31 -15 61l58 6c5 -46 25 -67 66 -67c43 0 67 26 67 73c0 51 -30 84 -75 84h-42zM253 0l188 714h70l-188 -714h-70z" />
    <glyph glyph-name="zerosuperior" unicode="&#x2070;" horiz-adv-x="318" 
d="M37 529v142c0 104 37 148 122 148c86 0 123 -44 123 -148v-142c0 -104 -37 -148 -123 -148c-85 0 -122 44 -122 148zM221 532v136c0 71 -19 102 -62 102c-42 0 -61 -31 -61 -102v-136c0 -71 19 -102 61 -102c43 0 62 31 62 102z" />
    <glyph glyph-name="foursuperior" unicode="&#x2074;" horiz-adv-x="316" 
d="M194 386v79h-166v38l128 311h64l-122 -299h96v108h55v-108h39v-50h-39v-79h-55z" />
    <glyph glyph-name="fivesuperior" unicode="&#x2075;" horiz-adv-x="314" 
d="M49 588l18 226h198v-51h-145l-10 -120c21 9 34 12 55 12c78 0 112 -41 112 -137c0 -95 -38 -137 -125 -137c-80 0 -118 35 -122 111l58 6c4 -45 25 -67 64 -67c42 0 64 28 64 84c0 64 -18 92 -59 92c-23 0 -45 -10 -61 -28z" />
    <glyph glyph-name="sixsuperior" unicode="&#x2076;" horiz-adv-x="316" 
d="M235 814l-88 -164c14 3 22 4 32 4c33 0 64 -15 81 -40c13 -20 19 -49 19 -95c0 -98 -35 -138 -120 -138s-120 40 -120 134c0 52 4 67 31 120l93 179h72zM160 607c-42 0 -61 -28 -61 -91c0 -61 18 -87 60 -87s60 26 60 89c0 62 -18 89 -59 89z" />
    <glyph glyph-name="sevensuperior" unicode="&#x2077;" horiz-adv-x="268" 
d="M46 386l122 377h-153v51h219v-37l-120 -391h-68z" />
    <glyph glyph-name="eightsuperior" unicode="&#x2078;" horiz-adv-x="316" 
d="M81 613c-27 18 -37 42 -37 91c0 81 34 116 115 116c80 0 114 -35 114 -116c0 -49 -10 -72 -37 -91c35 -19 48 -47 48 -107c0 -89 -37 -126 -126 -126c-88 0 -125 37 -125 125c0 61 13 89 48 108zM159 774c-41 0 -58 -21 -58 -71c0 -51 17 -72 58 -72c40 0 57 21 57 72
c0 49 -17 71 -57 71zM159 586c-47 0 -66 -23 -66 -79s19 -79 65 -79c47 0 66 23 66 79c0 55 -19 79 -65 79z" />
    <glyph glyph-name="ninesuperior" unicode="&#x2079;" horiz-adv-x="316" 
d="M80 386l93 180c-15 -3 -23 -4 -33 -4c-70 0 -102 39 -102 127c0 92 35 130 120 130c84 0 120 -37 120 -125c0 -50 -3 -64 -27 -110l-99 -198h-72zM159 771c-43 0 -61 -24 -61 -81c0 -58 18 -82 60 -82s60 26 60 84c0 54 -18 79 -59 79z" />
    <glyph glyph-name="zeroinferior" unicode="&#x2080;" horiz-adv-x="318" 
d="M37 43v142c0 104 37 148 122 148c86 0 123 -44 123 -148v-142c0 -104 -37 -148 -123 -148c-85 0 -122 44 -122 148zM221 46v136c0 71 -19 102 -62 102c-42 0 -61 -31 -61 -102v-136c0 -71 19 -102 61 -102c43 0 62 31 62 102z" />
    <glyph glyph-name="oneinferior" unicode="&#x2081;" horiz-adv-x="257" 
d="M110 -100v365l-65 -29l-20 44l103 48h44v-428h-62z" />
    <glyph glyph-name="twoinferior" unicode="&#x2082;" horiz-adv-x="312" 
d="M33 -100v41l112 148c39 51 59 94 59 129c0 42 -20 65 -55 65c-34 0 -53 -23 -60 -71l-58 4c8 81 45 117 121 117s115 -39 115 -115c0 -55 -14 -85 -77 -168l-74 -99h150v-51h-233z" />
    <glyph glyph-name="threeinferior" unicode="&#x2083;" horiz-adv-x="312" 
d="M97 102v46h38c41 0 69 27 69 69c0 41 -22 66 -58 66c-34 0 -52 -18 -58 -61l-57 4c7 74 43 107 118 107c77 0 117 -39 117 -114c0 -46 -14 -72 -47 -93c40 -22 57 -54 57 -108c0 -82 -42 -123 -126 -123c-54 0 -93 18 -112 50c-9 14 -13 31 -15 61l58 6
c4 -46 25 -67 66 -67c43 0 67 26 67 73c0 51 -30 84 -75 84h-42z" />
    <glyph glyph-name="fourinferior" unicode="&#x2084;" horiz-adv-x="316" 
d="M194 -100v80h-166v38l128 310h64l-122 -298h96v107h55v-107h39v-51h-39v-79h-55z" />
    <glyph glyph-name="fiveinferior" unicode="&#x2085;" horiz-adv-x="314" 
d="M49 102l18 226h198v-51h-145l-10 -120c21 8 34 11 55 11c78 0 112 -41 112 -136c0 -96 -38 -137 -125 -137c-80 0 -118 35 -122 111l58 6c4 -45 25 -67 64 -67c42 0 64 28 64 83c0 64 -18 92 -59 92c-23 0 -45 -10 -61 -27z" />
    <glyph glyph-name="sixinferior" unicode="&#x2086;" horiz-adv-x="316" 
d="M235 328l-88 -164c14 3 22 4 32 4c33 0 64 -15 81 -40c13 -20 19 -49 19 -95c0 -98 -35 -138 -120 -138c-43 0 -77 13 -97 37c-16 20 -23 48 -23 97c0 52 4 68 31 120l93 179h72zM160 121c-42 0 -61 -28 -61 -91c0 -61 18 -87 60 -87s60 26 60 89c0 62 -18 89 -59 89z
" />
    <glyph glyph-name="seveninferior" unicode="&#x2087;" horiz-adv-x="268" 
d="M47 -100l122 377h-153v51h219v-37l-120 -391h-68z" />
    <glyph glyph-name="eightinferior" unicode="&#x2088;" horiz-adv-x="316" 
d="M81 127c-27 18 -37 42 -37 91c0 81 34 116 115 116c80 0 114 -35 114 -116c0 -49 -10 -72 -37 -91c35 -19 48 -48 48 -107c0 -89 -37 -126 -126 -126c-88 0 -125 37 -125 125c0 60 13 89 48 108zM159 288c-41 0 -58 -21 -58 -71c0 -51 17 -72 58 -72c40 0 57 21 57 72
c0 49 -17 71 -57 71zM159 100c-47 0 -66 -23 -66 -79s19 -79 65 -79c47 0 66 23 66 79c0 55 -19 79 -65 79z" />
    <glyph glyph-name="nineinferior" unicode="&#x2089;" horiz-adv-x="316" 
d="M80 -100l93 180c-15 -3 -22 -4 -33 -4c-70 0 -102 39 -102 127c0 92 35 130 120 130c84 0 120 -37 120 -125c0 -50 -3 -64 -27 -110l-99 -198h-72zM159 285c-43 0 -61 -24 -61 -81c0 -58 18 -82 60 -82s60 26 60 84c0 54 -18 79 -59 79z" />
    <glyph glyph-name="IJ" unicode="&#x132;" horiz-adv-x="507" 
d="M88 0v714h78v-714h-78zM342 714h78v-698c0 -109 -4 -146 -22 -180c-26 -52 -75 -79 -145 -79c-32 0 -53 4 -85 16l29 61c19 -9 30 -12 49 -12c44 0 73 23 87 67c7 23 9 51 9 124v701z" />
    <glyph glyph-name="uni01CD" unicode="&#x1cd;" horiz-adv-x="508" 
d="M381 158h-253l-44 -158h-85l221 714h70l220 -714h-84zM364 223l-109 385l-110 -385h219zM255 844l55 81h77l-108 -131h-49l-108 131h77z" />
    <glyph glyph-name="Abreve" unicode="&#x102;" horiz-adv-x="508" 
d="M381 158h-253l-44 -158h-85l221 714h70l220 -714h-84zM364 223l-109 385l-110 -385h219zM133 922h51c5 -58 23 -78 70 -78c48 0 65 20 71 78h51c-2 -47 -5 -64 -15 -83c-18 -36 -51 -52 -107 -52c-59 0 -93 19 -110 60c-7 17 -9 33 -11 75z" />
    <glyph glyph-name="Aogonek" unicode="&#x104;" horiz-adv-x="508" 
d="M290 714l220 -714c-60 -43 -82 -71 -82 -107c0 -26 13 -38 44 -38c18 0 28 2 50 9l8 -44c-26 -10 -45 -13 -73 -13c-64 0 -97 25 -97 74c0 46 35 94 88 119h-22l-45 158h-253l-44 -158h-85l221 714h70zM364 223l-109 385l-110 -385h219z" />
    <glyph glyph-name="Cacute" unicode="&#x106;" horiz-adv-x="536" 
d="M401 188l73 -4c-4 -125 -74 -193 -200 -193c-76 0 -131 27 -165 79c-25 39 -36 92 -36 179v215c0 97 13 150 45 191c35 45 86 67 157 67c122 0 189 -65 193 -188l-73 -3c-6 84 -45 126 -119 126c-89 0 -125 -56 -125 -196v-209c0 -139 36 -196 124 -196
c78 0 122 47 126 132zM231 790l64 141h89l-97 -141h-56z" />
    <glyph glyph-name="Ccaron" unicode="&#x10c;" horiz-adv-x="536" 
d="M401 188l73 -4c-4 -125 -74 -193 -200 -193c-76 0 -131 27 -165 79c-25 39 -36 92 -36 179v215c0 97 13 150 45 191c35 45 86 67 157 67c122 0 189 -65 193 -188l-73 -3c-6 84 -45 126 -119 126c-89 0 -125 -56 -125 -196v-209c0 -139 36 -196 124 -196
c78 0 122 47 126 132zM279 844l55 81h77l-108 -131h-49l-108 131h77z" />
    <glyph glyph-name="Cdotaccent" unicode="&#x10a;" horiz-adv-x="536" 
d="M401 188l73 -4c-4 -125 -74 -193 -200 -193c-76 0 -131 27 -165 79c-25 39 -36 92 -36 179v215c0 97 13 150 45 191c35 45 86 67 157 67c122 0 189 -65 193 -188l-73 -3c-6 84 -45 126 -119 126c-89 0 -125 -56 -125 -196v-209c0 -139 36 -196 124 -196
c78 0 122 47 126 132zM241 798v102h73v-102h-73z" />
    <glyph glyph-name="Dcaron" unicode="&#x10e;" horiz-adv-x="573" 
d="M88 0v714h190c150 3 225 -78 222 -237v-240c3 -159 -72 -240 -222 -237h-190zM166 65h105c106 -2 151 53 151 183v219c0 129 -45 184 -151 182h-105v-584zM265 844l55 81h77l-108 -131h-49l-108 131h77z" />
    <glyph glyph-name="Ecaron" unicode="&#x11a;" horiz-adv-x="490" 
d="M88 0v714h353v-66h-275v-254h234v-66h-234v-262h277v-66h-355zM269 844l55 81h77l-108 -131h-49l-108 131h77z" />
    <glyph glyph-name="Edotaccent" unicode="&#x116;" horiz-adv-x="490" 
d="M88 0v714h353v-66h-275v-254h234v-66h-234v-262h277v-66h-355zM232 797v102h73v-102h-73z" />
    <glyph glyph-name="Eogonek" unicode="&#x118;" horiz-adv-x="490" 
d="M88 0v714h353v-66h-275v-254h234v-66h-234v-262h277v-66c-56 -36 -83 -71 -83 -107c0 -26 13 -38 44 -38c18 0 30 2 50 9l9 -44c-28 -10 -46 -13 -74 -13c-65 0 -97 25 -97 74c0 46 31 89 87 119h-291z" />
    <glyph glyph-name="Gcaron" unicode="&#x1e6;" horiz-adv-x="560" 
d="M300 310v63h197v-129c0 -89 -12 -140 -44 -181c-37 -48 -92 -72 -168 -72c-81 0 -139 26 -174 79c-27 39 -38 92 -38 179v215c0 96 13 150 46 191c36 45 89 67 160 67c126 0 194 -65 198 -188l-72 -3c-5 82 -48 126 -124 126c-93 0 -130 -57 -130 -196v-209
c0 -140 38 -196 133 -196c92 0 136 56 136 173v81h-120zM281 844l55 81h77l-108 -131h-49l-108 131h77z" />
    <glyph glyph-name="Gbreve" unicode="&#x11e;" horiz-adv-x="560" 
d="M300 310v63h197v-129c0 -89 -12 -140 -44 -181c-37 -48 -92 -72 -168 -72c-81 0 -139 26 -174 79c-27 39 -38 92 -38 179v215c0 96 13 150 46 191c36 45 89 67 160 67c126 0 194 -65 198 -188l-72 -3c-5 82 -48 126 -124 126c-93 0 -130 -57 -130 -196v-209
c0 -140 38 -196 133 -196c92 0 136 56 136 173v81h-120zM159 922h51c5 -58 23 -78 70 -78c48 0 65 20 71 78h51c-2 -47 -5 -64 -15 -83c-18 -36 -51 -52 -107 -52c-59 0 -93 19 -110 60c-7 17 -9 33 -11 75z" />
    <glyph glyph-name="Gdotaccent" unicode="&#x120;" horiz-adv-x="560" 
d="M300 310v63h197v-129c0 -89 -12 -140 -44 -181c-37 -48 -92 -72 -168 -72c-81 0 -139 26 -174 79c-27 39 -38 92 -38 179v215c0 96 13 150 46 191c36 45 89 67 160 67c126 0 194 -65 198 -188l-72 -3c-5 82 -48 126 -124 126c-93 0 -130 -57 -130 -196v-209
c0 -140 38 -196 133 -196c92 0 136 56 136 173v81h-120zM243 798v102h73v-102h-73z" />
    <glyph glyph-name="Idotaccent" unicode="&#x130;" horiz-adv-x="253" 
d="M87 0v714h78v-714h-78zM89 797v102h73v-102h-73z" />
    <glyph glyph-name="Lacute" unicode="&#x139;" horiz-adv-x="456" 
d="M88 0v714h78v-648h280v-66h-358zM109 790l64 141h89l-97 -141h-56z" />
    <glyph glyph-name="Lcaron" unicode="&#x13d;" horiz-adv-x="456" 
d="M88 0v714h78v-648h280v-66h-358zM255 496l23 225h75l-46 -225h-52z" />
    <glyph glyph-name="Nacute" unicode="&#x143;" horiz-adv-x="610" 
d="M88 0v714h76l283 -565v565h75v-714h-75l-284 566v-566h-75zM274 790l64 141h89l-97 -141h-56z" />
    <glyph glyph-name="Ncaron" unicode="&#x147;" horiz-adv-x="610" 
d="M88 0v714h76l283 -565v565h75v-714h-75l-284 566v-566h-75zM315 844l55 81h77l-108 -131h-49l-108 131h77z" />
    <glyph glyph-name="Ohungarumlaut" unicode="&#x150;" horiz-adv-x="572" 
d="M73 237v240c0 87 14 139 48 179c38 46 90 67 165 67c80 0 136 -25 173 -78c28 -39 39 -88 39 -168v-240c0 -87 -14 -139 -48 -179c-38 -46 -90 -67 -164 -67c-81 0 -137 25 -174 78c-27 39 -39 89 -39 168zM420 245v224c0 131 -41 189 -135 189c-93 0 -134 -58 -134 -189
v-224c0 -131 41 -189 134 -189c94 0 135 58 135 189zM193 790l51 141h82l-80 -141h-53zM311 790l51 141h82l-80 -141h-53z" />
    <glyph glyph-name="Racute" unicode="&#x154;" horiz-adv-x="547" 
d="M167 311v-311h-78v714h192c80 0 124 -15 158 -52c31 -34 45 -81 45 -147c0 -113 -39 -175 -124 -195l134 -320h-86l-123 311h-118zM166 375h113c50 0 76 9 97 34c20 23 30 59 30 102c0 96 -40 138 -130 138h-110v-274zM229 790l64 141h89l-97 -141h-56z" />
    <glyph glyph-name="Rcaron" unicode="&#x158;" horiz-adv-x="547" 
d="M167 311v-311h-78v714h192c80 0 124 -15 158 -52c31 -34 45 -81 45 -147c0 -113 -39 -175 -124 -195l134 -320h-86l-123 311h-118zM166 375h113c50 0 76 9 97 34c20 23 30 59 30 102c0 96 -40 138 -130 138h-110v-274zM264 844l55 81h77l-108 -131h-49l-108 131h77z" />
    <glyph glyph-name="Sacute" unicode="&#x15a;" horiz-adv-x="495" 
d="M37 146l68 19c21 -76 61 -109 135 -109c88 0 134 46 134 135c0 41 -12 74 -35 95c-22 19 -27 21 -110 46c-122 36 -172 93 -172 200c0 120 70 191 188 191c102 0 158 -44 180 -142l-68 -18c-20 69 -51 95 -113 95c-70 0 -111 -45 -111 -122c0 -73 35 -110 135 -140
c82 -25 96 -31 125 -54c38 -31 57 -80 57 -147c0 -132 -73 -204 -209 -204c-119 0 -180 46 -204 155zM207 790l64 141h89l-97 -141h-56z" />
    <glyph glyph-name="Scedilla" unicode="&#x15e;" horiz-adv-x="495" 
d="M37 146l68 19c21 -76 61 -109 135 -109c88 0 134 46 134 135c0 41 -12 74 -35 95c-22 19 -27 21 -110 46c-122 36 -172 93 -172 200c0 120 70 191 188 191c102 0 158 -44 180 -142l-68 -18c-20 69 -51 95 -113 95c-70 0 -111 -45 -111 -122c0 -73 35 -110 135 -140
c82 -25 96 -31 125 -54c38 -31 57 -80 57 -147c0 -132 -73 -204 -209 -204c-119 0 -180 46 -204 155zM167 -220l44 150h76l-68 -150h-52z" />
    <glyph glyph-name="Tcaron" unicode="&#x164;" horiz-adv-x="453" 
d="M188 0v648h-166v66h409v-66h-165v-648h-78zM227 844l55 81h77l-108 -131h-49l-108 131h77z" />
    <glyph glyph-name="Uring" unicode="&#x16e;" horiz-adv-x="584" 
d="M85 714h78v-485c0 -62 5 -93 21 -118c22 -38 54 -55 104 -55c60 0 94 18 116 63c12 24 16 54 16 110v485h78v-485c0 -89 -8 -127 -36 -165c-38 -51 -89 -73 -171 -73c-86 0 -142 26 -177 84c-22 35 -29 73 -29 154v485zM293 983c58 0 97 -40 97 -100s-40 -101 -98 -101
c-59 0 -99 41 -99 101c0 61 39 100 100 100zM292 943c-31 0 -48 -21 -48 -61c0 -38 17 -60 47 -60c31 0 48 22 48 61c0 38 -17 60 -47 60z" />
    <glyph glyph-name="Uhungarumlaut" unicode="&#x170;" horiz-adv-x="584" 
d="M85 714h78v-485c0 -62 5 -93 21 -118c22 -38 54 -55 104 -55c60 0 94 18 116 63c12 24 16 54 16 110v485h78v-485c0 -89 -8 -127 -36 -165c-38 -51 -89 -73 -171 -73c-86 0 -142 26 -177 84c-22 35 -29 73 -29 154v485zM201 790l51 141h82l-80 -141h-53zM319 790l51 141
h82l-80 -141h-53z" />
    <glyph glyph-name="Zacute" unicode="&#x179;" horiz-adv-x="457" 
d="M40 0v50l275 598h-258v66h344v-50l-275 -598h288v-66h-374zM205 790l64 141h89l-97 -141h-56z" />
    <glyph glyph-name="Zdotaccent" unicode="&#x17b;" horiz-adv-x="457" 
d="M40 0v50l275 598h-258v66h344v-50l-275 -598h288v-66h-374zM205 797v102h73v-102h-73z" />
    <glyph glyph-name="Amacron" unicode="&#x100;" horiz-adv-x="508" 
d="M381 158h-253l-44 -158h-85l221 714h70l220 -714h-84zM364 223l-109 385l-110 -385h219zM143 829v55h224v-55h-224z" />
    <glyph glyph-name="Tcommaaccent" unicode="&#x162;" horiz-adv-x="453" 
d="M188 0v648h-166v66h409v-66h-165v-648h-78zM149 -220l44 150h76l-68 -150h-52z" />
    <glyph glyph-name="uni021A" unicode="&#x21a;" horiz-adv-x="453" 
d="M188 0v648h-166v66h409v-66h-165v-648h-78zM149 -220l44 150h76l-68 -150h-52z" />
    <glyph glyph-name="Ccircumflex" unicode="&#x108;" horiz-adv-x="535" 
d="M401 188l73 -4c-4 -125 -74 -193 -200 -193c-76 0 -131 27 -165 79c-25 39 -36 92 -36 179v215c0 97 13 150 45 191c35 45 86 67 157 67c122 0 189 -65 193 -188l-73 -3c-6 84 -45 126 -119 126c-89 0 -125 -56 -125 -196v-209c0 -139 36 -196 124 -196
c78 0 122 47 126 132zM274 876l-55 -81h-77l108 132h49l108 -132h-77z" />
    <glyph glyph-name="Wcircumflex" unicode="&#x174;" horiz-adv-x="752" 
d="M172 0l-144 714h78l104 -576l138 576h56l137 -576l105 576h78l-144 -714h-68l-136 563l-136 -563h-68zM376 876l-55 -81h-77l108 132h49l108 -132h-77z" />
    <glyph glyph-name="Wdieresis" unicode="&#x1e84;" horiz-adv-x="752" 
d="M172 0l-144 714h78l104 -576l138 576h56l137 -576l105 576h78l-144 -714h-68l-136 563l-136 -563h-68zM259 798v102h68v-102h-68zM426 798v102h68v-102h-68z" />
    <glyph glyph-name="Ycircumflex" unicode="&#x176;" horiz-adv-x="457" 
d="M190 0v260l-190 454h82l147 -365l147 365h82l-190 -454v-260h-78zM228 876l-55 -81h-77l108 132h49l108 -132h-77z" />
    <glyph glyph-name="Hbar" unicode="&#x126;" horiz-adv-x="576" 
d="M87 0v496h-56v59h56v159h78v-159h245v159h78v-159h57v-59h-57v-496h-78v328h-245v-328h-78zM165 394h245v102h-245v-102z" />
    <glyph glyph-name="Dbreve" horiz-adv-x="573" 
d="M88 0v714h190c150 3 225 -78 222 -237v-240c3 -159 -72 -240 -222 -237h-190zM166 65h105c106 -2 151 53 151 183v219c0 129 -45 184 -151 182h-105v-584zM150 922h51c5 -58 23 -78 70 -78c48 0 65 20 71 78h51c-2 -47 -5 -64 -15 -83c-18 -36 -51 -52 -107 -52
c-59 0 -93 19 -110 60c-7 17 -9 33 -11 75z" />
    <glyph glyph-name="Emacron" unicode="&#x112;" horiz-adv-x="490" 
d="M88 0v714h353v-66h-275v-254h234v-66h-234v-262h277v-66h-355zM150 829v55h224v-55h-224z" />
    <glyph glyph-name="Gcircumflex" unicode="&#x11c;" horiz-adv-x="560" 
d="M300 310v63h197v-129c0 -89 -12 -140 -44 -181c-37 -48 -92 -72 -168 -72c-81 0 -139 26 -174 79c-27 39 -38 92 -38 179v215c0 96 13 150 46 191c36 45 89 67 160 67c126 0 194 -65 198 -188l-72 -3c-5 82 -48 126 -124 126c-93 0 -130 -57 -130 -196v-209
c0 -140 38 -196 133 -196c92 0 136 56 136 173v81h-120zM280 876l-55 -81h-77l108 132h49l108 -132h-77z" />
    <glyph glyph-name="Hcircumflex" unicode="&#x124;" horiz-adv-x="576" 
d="M88 0v714h78v-320h245v320h78v-714h-78v328h-245v-328h-78zM288 876l-55 -81h-77l108 132h49l108 -132h-77z" />
    <glyph glyph-name="Imacron" unicode="&#x12a;" horiz-adv-x="253" 
d="M88 0v714h78v-714h-78zM15 829v55h223v-55h-223z" />
    <glyph glyph-name="Iogonek" unicode="&#x12e;" horiz-adv-x="253" 
d="M166 714v-714c-53 -39 -74 -69 -74 -104c0 -29 13 -41 43 -41c17 0 27 2 49 9l9 -44c-27 -10 -46 -13 -74 -13c-63 0 -95 25 -95 76c0 45 29 87 81 117h-17v714h78z" />
    <glyph glyph-name="Jcircumflex" unicode="&#x134;" horiz-adv-x="388" 
d="M227 714h78v-465c0 -109 -4 -145 -22 -179c-26 -52 -75 -79 -146 -79c-61 0 -106 19 -151 64l45 52c32 -35 64 -51 101 -51c43 0 72 23 86 66c7 24 9 52 9 124v468zM252 876l-55 -81h-77l108 132h49l108 -132h-77z" />
    <glyph glyph-name="Kcommaaccent" unicode="&#x136;" horiz-adv-x="523" 
d="M88 0v714h78v-376l249 376h88l-199 -292l217 -422h-87l-178 361l-90 -132v-229h-78zM211 -220l44 150h76l-68 -150h-52z" />
    <glyph glyph-name="Lcommaaccent" unicode="&#x13b;" horiz-adv-x="456" 
d="M88 0v714h78v-648h280v-66h-358zM185 -220l44 150h76l-68 -150h-52z" />
    <glyph glyph-name="Ncommaaccent" unicode="&#x145;" horiz-adv-x="610" 
d="M88 0v714h76l283 -565v565h75v-714h-75l-284 566v-566h-75zM237 -220l44 150h76l-68 -150h-52z" />
    <glyph glyph-name="Omacron" unicode="&#x14c;" horiz-adv-x="572" 
d="M73 237v240c0 87 14 139 48 179c38 46 90 67 165 67c80 0 136 -25 173 -78c28 -39 39 -88 39 -168v-240c0 -87 -14 -139 -48 -179c-38 -46 -90 -67 -164 -67c-81 0 -137 25 -174 78c-27 39 -39 89 -39 168zM420 245v224c0 131 -41 189 -135 189c-93 0 -134 -58 -134 -189
v-224c0 -131 41 -189 134 -189c94 0 135 58 135 189zM174 829v55h224v-55h-224z" />
    <glyph glyph-name="Rcommaaccent" unicode="&#x156;" horiz-adv-x="547" 
d="M167 311v-311h-78v714h192c80 0 124 -15 158 -52c31 -34 45 -81 45 -147c0 -113 -39 -175 -124 -195l134 -320h-86l-123 311h-118zM166 375h113c50 0 76 9 97 34c20 23 30 59 30 102c0 96 -40 138 -130 138h-110v-274zM208 -220l44 150h76l-68 -150h-52z" />
    <glyph glyph-name="Scircumflex" unicode="&#x15c;" horiz-adv-x="495" 
d="M37 146l68 19c21 -76 61 -109 135 -109c88 0 134 46 134 135c0 41 -12 74 -35 95c-22 19 -27 21 -110 46c-122 36 -172 93 -172 200c0 120 70 191 188 191c102 0 158 -44 180 -142l-68 -18c-20 69 -51 95 -113 95c-70 0 -111 -45 -111 -122c0 -73 35 -110 135 -140
c82 -25 96 -31 125 -54c38 -31 57 -80 57 -147c0 -132 -73 -204 -209 -204c-119 0 -180 46 -204 155zM249 876l-55 -81h-77l108 132h49l108 -132h-77z" />
    <glyph glyph-name="Gcommaaccent" unicode="&#x122;" horiz-adv-x="560" 
d="M300 310v63h197v-129c0 -89 -12 -140 -44 -181c-37 -48 -92 -72 -168 -72c-81 0 -139 26 -174 79c-27 39 -38 92 -38 179v215c0 96 13 150 46 191c36 45 89 67 160 67c126 0 194 -65 198 -188l-72 -3c-5 82 -48 126 -124 126c-93 0 -130 -57 -130 -196v-209
c0 -140 38 -196 133 -196c92 0 136 56 136 173v81h-120zM213 -220l44 150h76l-68 -150h-52z" />
    <glyph glyph-name="uni01D3" unicode="&#x1d3;" horiz-adv-x="584" 
d="M85 714h78v-485c0 -62 5 -93 21 -118c22 -38 54 -55 104 -55c60 0 94 18 116 63c12 24 16 54 16 110v485h78v-485c0 -89 -8 -127 -36 -165c-38 -51 -89 -73 -171 -73c-86 0 -142 26 -177 84c-22 35 -29 73 -29 154v485zM292 844l55 81h77l-108 -131h-49l-108 131h77z" />
    <glyph glyph-name="Umacron" unicode="&#x16a;" horiz-adv-x="584" 
d="M85 714h78v-485c0 -62 5 -93 21 -118c22 -38 54 -55 104 -55c60 0 94 18 116 63c12 24 16 54 16 110v485h78v-485c0 -89 -8 -127 -36 -165c-38 -51 -89 -73 -171 -73c-86 0 -142 26 -177 84c-22 35 -29 73 -29 154v485zM180 829v55h224v-55h-224z" />
    <glyph glyph-name="Uogonek" unicode="&#x172;" horiz-adv-x="584" 
d="M91 714h78v-485c0 -62 5 -92 21 -118c22 -37 54 -54 104 -54c61 0 94 18 116 63c12 24 16 54 16 109v485h78v-485c4 -125 -31 -192 -118 -225c-52 -42 -72 -72 -72 -110c0 -27 13 -39 44 -39c18 0 28 2 50 9l8 -44c-29 -10 -45 -13 -72 -13c-67 0 -98 24 -98 76
c0 41 17 73 59 109c-151 -2 -220 75 -214 237v485z" />
    <glyph glyph-name="uni0226" unicode="&#x226;" horiz-adv-x="508" 
d="M381 158h-253l-44 -158h-85l221 714h70l220 -714h-84zM364 223l-109 385l-110 -385h219zM217 797v102h73v-102h-73z" />
    <glyph glyph-name="Ebreve" unicode="&#x114;" horiz-adv-x="490" 
d="M88 0v714h353v-66h-275v-254h234v-66h-234v-262h277v-66h-355zM144 922h51c5 -58 23 -78 70 -78c48 0 65 20 71 78h51c-2 -47 -5 -64 -15 -83c-18 -36 -51 -52 -107 -52c-59 0 -93 19 -110 60c-7 17 -9 33 -11 75z" />
    <glyph glyph-name="uni1E1E" unicode="&#x1e1e;" horiz-adv-x="462" 
d="M88 0v714h350v-66h-272v-259h231v-66h-231v-323h-78zM231 797v102h73v-102h-73z" />
    <glyph glyph-name="uni01F4" unicode="&#x1f4;" horiz-adv-x="560" 
d="M300 310v63h197v-129c0 -89 -12 -140 -44 -181c-37 -48 -92 -72 -168 -72c-81 0 -139 26 -174 79c-27 39 -38 92 -38 179v215c0 96 13 150 46 191c36 45 89 67 160 67c126 0 194 -65 198 -188l-72 -3c-5 82 -48 126 -124 126c-93 0 -130 -57 -130 -196v-209
c0 -140 38 -196 133 -196c92 0 136 56 136 173v81h-120zM238 790l64 141h89l-97 -141h-56z" />
    <glyph glyph-name="Ibreve" unicode="&#x12c;" horiz-adv-x="253" 
d="M88 0v714h78v-714h-78zM6 922h51c5 -57 23 -78 70 -78s65 20 70 78h51c-2 -47 -5 -64 -14 -83c-19 -36 -51 -52 -107 -52c-59 0 -94 19 -110 60c-7 17 -9 34 -11 75z" />
    <glyph glyph-name="ij" unicode="&#x133;" horiz-adv-x="450" 
d="M75 613v104h75v-104h-75zM75 0v502h75v-502h-75zM299 502h75v-516c4 -162 -42 -217 -177 -216v64c75 -4 104 38 102 144v524zM299 613v104h75v-104h-75z" />
    <glyph glyph-name="uni01CE" unicode="&#x1ce;" horiz-adv-x="452" 
d="M306 294v36c0 87 -24 119 -90 119c-48 0 -74 -21 -91 -75l-64 19c21 80 72 118 157 118c69 0 117 -23 142 -66c15 -27 21 -63 21 -123v-322h-60l-5 35c-28 -33 -58 -44 -122 -44c-112 0 -154 40 -154 149c0 113 44 154 167 154h99zM306 236h-86c-78 0 -107 -26 -107 -96
c0 -64 24 -86 97 -86c74 0 96 22 96 98v84zM228 636l55 81h77l-108 -131h-49l-108 131h77z" />
    <glyph glyph-name="abreve" unicode="&#x103;" horiz-adv-x="452" 
d="M306 294v36c0 87 -24 119 -90 119c-48 0 -74 -21 -91 -75l-64 19c21 80 72 118 157 118c69 0 117 -23 142 -66c15 -27 21 -63 21 -123v-322h-60l-5 35c-28 -33 -58 -44 -122 -44c-112 0 -154 40 -154 149c0 113 44 154 167 154h99zM306 236h-86c-78 0 -107 -26 -107 -96
c0 -64 24 -86 97 -86c74 0 96 22 96 98v84zM107 714h51c5 -58 23 -78 70 -78c48 0 65 20 71 78h51c-2 -47 -5 -64 -15 -83c-18 -36 -51 -52 -107 -52c-59 0 -93 19 -110 60c-7 17 -9 33 -11 75z" />
    <glyph glyph-name="aogonek" unicode="&#x105;" horiz-adv-x="452" 
d="M381 0h-1c-60 -41 -83 -71 -83 -106c0 -27 14 -39 44 -39c18 0 29 2 50 9l9 -44c-26 -10 -45 -13 -73 -13c-65 0 -98 25 -98 74c0 47 32 89 92 122l-5 32c-28 -33 -58 -44 -122 -44c-112 0 -154 40 -154 149c0 113 44 154 167 154h99v36c0 87 -24 119 -90 119
c-48 0 -74 -21 -91 -75l-64 19c21 80 72 118 157 118c69 0 117 -23 142 -66c15 -27 21 -63 21 -123v-322zM306 236h-86c-78 0 -107 -26 -107 -96c0 -64 24 -86 97 -86c74 0 96 22 96 98v84z" />
    <glyph glyph-name="cacute" unicode="&#x107;" horiz-adv-x="419" 
d="M322 129l66 -13c-15 -86 -65 -125 -157 -125c-115 0 -169 69 -169 214v86c0 153 53 221 173 221c86 0 127 -34 147 -119l-65 -19c-14 55 -37 76 -83 76c-67 0 -97 -47 -97 -154v-97c0 -98 32 -145 99 -145c49 0 75 23 86 75zM188 582l64 141h89l-97 -141h-56z" />
    <glyph glyph-name="ccaron" unicode="&#x10d;" horiz-adv-x="419" 
d="M322 129l66 -13c-15 -86 -65 -125 -157 -125c-115 0 -169 69 -169 214v86c0 153 53 221 173 221c86 0 127 -34 147 -119l-65 -19c-14 55 -37 76 -83 76c-67 0 -97 -47 -97 -154v-97c0 -98 32 -145 99 -145c49 0 75 23 86 75zM233 636l55 81h77l-108 -131h-49l-108 131h77
z" />
    <glyph glyph-name="cdotaccent" unicode="&#x10b;" horiz-adv-x="419" 
d="M322 129l66 -13c-15 -86 -65 -125 -157 -125c-115 0 -169 69 -169 214v86c0 153 53 221 173 221c86 0 127 -34 147 -119l-65 -19c-14 55 -37 76 -83 76c-67 0 -97 -47 -97 -154v-97c0 -98 32 -145 99 -145c49 0 75 23 86 75zM194 590v102h73v-102h-73z" />
    <glyph glyph-name="dcaron" unicode="&#x10f;" horiz-adv-x="550" 
d="M349 0l-5 40l-4 -4c-31 -33 -63 -45 -117 -45c-111 0 -161 66 -161 210v106c0 139 50 204 158 204c53 0 80 -11 113 -44v247h75v-714h-59zM137 306v-105c0 -99 31 -146 96 -146c67 0 100 51 100 156v80c0 105 -33 156 -101 156c-64 0 -95 -46 -95 -141zM472 496l23 225
h75l-46 -225h-52z" />
    <glyph glyph-name="ecaron" unicode="&#x11b;" horiz-adv-x="466" 
d="M137 237v-42c0 -96 35 -141 107 -141c54 0 81 22 93 75l65 -14c-15 -86 -65 -124 -161 -124c-123 0 -179 68 -179 219v80c0 153 54 221 174 221c121 0 174 -67 174 -221v-53h-273zM137 295h201v21c0 89 -32 132 -100 132s-101 -43 -101 -132v-21zM240 636l55 81h77
l-108 -131h-49l-108 131h77z" />
    <glyph glyph-name="edotaccent" unicode="&#x117;" horiz-adv-x="466" 
d="M137 237v-42c0 -96 35 -141 107 -141c54 0 81 22 93 75l65 -14c-15 -86 -65 -124 -161 -124c-123 0 -179 68 -179 219v80c0 153 54 221 174 221c121 0 174 -67 174 -221v-53h-273zM137 295h201v21c0 89 -32 132 -100 132s-101 -43 -101 -132v-21zM202 589v102h73v-102
h-73z" />
    <glyph glyph-name="eogonek" unicode="&#x119;" horiz-adv-x="466" 
d="M339 129l65 -14c-9 -53 -35 -92 -72 -108c-58 -41 -81 -73 -81 -113c0 -27 13 -39 44 -39c18 0 28 2 49 9l9 -44c-29 -10 -45 -13 -73 -13c-65 0 -97 25 -97 75c0 41 14 67 61 109c-124 0 -182 70 -180 219v80c0 153 54 221 174 221c121 0 174 -67 174 -221v-53h-273v-42
c0 -96 35 -141 107 -141c54 0 81 22 93 75zM139 295h201v21c0 89 -32 132 -100 132s-101 -43 -101 -132v-21z" />
    <glyph glyph-name="gcaron" unicode="&#x1e7;" horiz-adv-x="483" 
d="M334 -27v62c-30 -32 -62 -44 -114 -44c-107 0 -158 67 -158 211v104c0 140 50 205 159 205c56 0 90 -14 121 -51l8 42h59v-521c0 -147 -57 -215 -180 -215c-88 0 -133 34 -152 112l64 17c14 -49 38 -68 87 -68c73 0 106 45 106 146zM137 306v-105c0 -98 31 -146 96 -146
c68 0 101 52 101 156v80c0 105 -33 157 -101 157c-64 0 -96 -47 -96 -142zM249 636l55 81h77l-108 -131h-49l-108 131h77z" />
    <glyph glyph-name="gbreve" unicode="&#x11f;" horiz-adv-x="483" 
d="M334 -27v62c-30 -32 -62 -44 -114 -44c-107 0 -158 67 -158 211v104c0 140 50 205 159 205c56 0 90 -14 121 -51l8 42h59v-521c0 -147 -57 -215 -180 -215c-88 0 -133 34 -152 112l64 17c14 -49 38 -68 87 -68c73 0 106 45 106 146zM137 306v-105c0 -98 31 -146 96 -146
c68 0 101 52 101 156v80c0 105 -33 157 -101 157c-64 0 -96 -47 -96 -142zM130 714h51c5 -58 23 -78 70 -78c48 0 65 20 71 78h51c-2 -47 -5 -64 -15 -83c-18 -36 -51 -52 -107 -52c-59 0 -93 19 -110 60c-7 17 -9 33 -11 75z" />
    <glyph glyph-name="gdotaccent" unicode="&#x121;" horiz-adv-x="483" 
d="M334 -27v62c-30 -32 -62 -44 -114 -44c-107 0 -158 67 -158 211v104c0 140 50 205 159 205c56 0 90 -14 121 -51l8 42h59v-521c0 -147 -57 -215 -180 -215c-88 0 -133 34 -152 112l64 17c14 -49 38 -68 87 -68c73 0 106 45 106 146zM137 306v-105c0 -98 31 -146 96 -146
c68 0 101 52 101 156v80c0 105 -33 157 -101 157c-64 0 -96 -47 -96 -142zM217 589v102h73v-102h-73z" />
    <glyph glyph-name="lacute" unicode="&#x13a;" horiz-adv-x="254" 
d="M74 714h75v-558c-1 -71 16 -93 71 -93h21v-63h-24c-114 0 -143 33 -143 162v552zM82 790l64 141h89l-97 -141h-56z" />
    <glyph glyph-name="lcaron" unicode="&#x13e;" horiz-adv-x="304" 
d="M74 714h75v-558c-1 -71 16 -93 71 -93h21v-63h-24c-114 0 -143 33 -143 162v552zM222 496l23 225h75l-46 -225h-52z" />
    <glyph glyph-name="nacute" unicode="&#x144;" horiz-adv-x="483" 
d="M74 0v502h58l5 -49c30 43 64 59 122 59c72 0 120 -30 141 -87c9 -26 13 -62 13 -118v-307h-75v299c0 107 -25 148 -90 148c-71 0 -99 -48 -99 -172v-275h-75zM199 582l64 141h89l-97 -141h-56z" />
    <glyph glyph-name="ncaron" unicode="&#x148;" horiz-adv-x="483" 
d="M74 0v502h58l5 -49c30 43 64 59 122 59c72 0 120 -30 141 -87c9 -26 13 -62 13 -118v-307h-75v299c0 107 -25 148 -90 148c-71 0 -99 -48 -99 -172v-275h-75zM240 636l55 81h77l-108 -131h-49l-108 131h77z" />
    <glyph glyph-name="ohungarumlaut" unicode="&#x151;" horiz-adv-x="476" 
d="M62 197v108c0 143 54 206 177 206c122 0 176 -63 176 -206v-108c0 -143 -54 -206 -176 -206c-123 0 -177 63 -177 206zM340 197v109c0 99 -30 142 -102 142c-70 0 -101 -43 -101 -142v-109c0 -100 31 -143 101 -143c71 0 102 43 102 143zM146 582l51 141h82l-80 -141h-53
zM264 582l51 141h82l-80 -141h-53z" />
    <glyph glyph-name="racute" unicode="&#x155;" horiz-adv-x="325" 
d="M74 0v502h59l8 -44c23 37 54 53 101 53c30 0 53 -7 83 -26l-33 -63c-22 17 -38 23 -59 23c-59 0 -84 -59 -84 -200v-245h-75zM141 582l64 141h89l-97 -141h-56z" />
    <glyph glyph-name="sacute" unicode="&#x15b;" horiz-adv-x="413" 
d="M27 115l65 15c15 -55 46 -77 107 -77c67 0 103 30 103 86c0 30 -10 52 -29 64c-16 9 -25 12 -79 23c-60 12 -89 24 -109 44c-24 22 -36 55 -36 98c0 92 53 143 150 143c92 0 137 -34 156 -117l-64 -15c-12 49 -39 70 -89 70c-52 0 -82 -29 -82 -79c0 -49 23 -69 94 -83
c75 -15 97 -23 120 -42c26 -21 39 -58 39 -107c0 -97 -59 -147 -175 -147c-99 0 -154 41 -171 124zM161 582l64 141h89l-97 -141h-56z" />
    <glyph glyph-name="scircumflex" unicode="&#x15d;" horiz-adv-x="413" 
d="M27 115l65 15c15 -55 46 -77 107 -77c67 0 103 30 103 86c0 30 -10 52 -29 64c-16 9 -25 12 -79 23c-60 12 -89 24 -109 44c-24 22 -36 55 -36 98c0 92 53 143 150 143c92 0 137 -34 156 -117l-64 -15c-12 49 -39 70 -89 70c-52 0 -82 -29 -82 -79c0 -49 23 -69 94 -83
c75 -15 97 -23 120 -42c26 -21 39 -58 39 -107c0 -97 -59 -147 -175 -147c-99 0 -154 41 -171 124zM203 668l-55 -81h-77l108 131h49l108 -131h-77z" />
    <glyph glyph-name="scommaaccent" unicode="&#x219;" horiz-adv-x="413" 
d="M27 115l65 15c15 -55 46 -77 107 -77c67 0 103 30 103 86c0 30 -10 52 -29 64c-16 9 -25 12 -79 23c-60 12 -89 24 -109 44c-24 22 -36 55 -36 98c0 92 53 143 150 143c92 0 137 -34 156 -117l-64 -15c-12 49 -39 70 -89 70c-52 0 -82 -29 -82 -79c0 -49 23 -69 94 -83
c75 -15 97 -23 120 -42c26 -21 39 -58 39 -107c0 -97 -59 -147 -175 -147c-99 0 -154 41 -171 124zM126 -220l44 150h76l-68 -150h-52z" />
    <glyph glyph-name="tcaron" unicode="&#x165;" horiz-adv-x="334" 
d="M88 440h-52v62h52l4 161h71v-161h83v-62h-83v-290c-1 -66 16 -87 69 -87h16v-63h-19c-114 0 -141 30 -141 157v283zM258 548l20 202h75l-42 -202h-53z" />
    <glyph glyph-name="uring" unicode="&#x16f;" horiz-adv-x="473" 
d="M70 502h75v-299c0 -107 24 -147 86 -147c66 0 93 49 93 171v275h75v-502h-58l-5 49c-30 -42 -62 -58 -117 -58c-69 0 -116 30 -136 87c-9 25 -13 63 -13 118v306zM238 774c58 0 97 -40 97 -99c0 -60 -40 -101 -98 -101c-59 0 -99 41 -99 101s39 99 100 99zM237 734
c-31 0 -48 -21 -48 -60c0 -38 17 -60 47 -60c31 0 48 22 48 60s-17 60 -47 60z" />
    <glyph glyph-name="uhungarumlaut" unicode="&#x171;" horiz-adv-x="473" 
d="M70 502h75v-299c0 -107 24 -147 86 -147c66 0 93 49 93 171v275h75v-502h-58l-5 49c-30 -42 -62 -58 -117 -58c-69 0 -116 30 -136 87c-9 25 -13 63 -13 118v306zM144 582l51 141h82l-80 -141h-53zM262 582l51 141h82l-80 -141h-53z" />
    <glyph glyph-name="zacute" unicode="&#x17a;" horiz-adv-x="398" 
d="M36 0v46l213 393h-196v63h286v-46l-214 -393h227v-63h-316zM168 582l64 141h89l-97 -141h-56z" />
    <glyph glyph-name="zdotaccent" unicode="&#x17c;" horiz-adv-x="398" 
d="M36 0v46l213 393h-196v63h286v-46l-214 -393h227v-63h-316zM168 589v102h73v-102h-73z" />
    <glyph glyph-name="hbar" unicode="&#x127;" horiz-adv-x="484" 
d="M74 574h-67v54h67v86h75v-86h126v-54h-126v-105c29 30 61 42 113 42c69 0 117 -30 138 -87c9 -25 13 -62 13 -117v-307h-75v299c0 106 -25 147 -90 147c-70 0 -99 -48 -99 -169v-277h-75v574z" />
    <glyph glyph-name="tcommaaccent" unicode="&#x163;" horiz-adv-x="286" 
d="M88 440h-52v62h52l4 161h71v-161h83v-62h-83v-290c-1 -66 16 -87 69 -87h16v-63h-19c-114 0 -141 30 -141 157v283zM87 -220l44 150h76l-68 -150h-52z" />
    <glyph glyph-name="uni021B" unicode="&#x21b;" horiz-adv-x="286" 
d="M88 440h-52v62h52l4 161h71v-161h83v-62h-83v-290c-1 -66 16 -87 69 -87h16v-63h-19c-114 0 -141 30 -141 157v283zM87 -220l44 150h76l-68 -150h-52z" />
    <glyph glyph-name="wcircumflex" unicode="&#x175;" horiz-adv-x="654" 
d="M161 0l-128 502h76l87 -386l105 386h52l105 -386l88 386h76l-128 -502h-62l-105 376l-105 -376h-61zM327 668l-55 -81h-77l108 131h49l108 -131h-77z" />
    <glyph glyph-name="wdieresis" unicode="&#x1e85;" horiz-adv-x="654" 
d="M161 0l-128 502h76l87 -386l105 386h52l105 -386l88 386h76l-128 -502h-62l-105 376l-105 -376h-61zM211 590v102h68v-102h-68zM376 590v102h68v-102h-68z" />
    <glyph glyph-name="amacron" unicode="&#x101;" horiz-adv-x="452" 
d="M306 294v36c0 87 -24 119 -90 119c-48 0 -74 -21 -91 -75l-64 19c21 80 72 118 157 118c69 0 117 -23 142 -66c15 -27 21 -63 21 -123v-322h-60l-5 35c-28 -33 -58 -44 -122 -44c-112 0 -154 40 -154 149c0 113 44 154 167 154h99zM306 236h-86c-78 0 -107 -26 -107 -96
c0 -64 24 -86 97 -86c74 0 96 22 96 98v84zM114 620v55h224v-55h-224z" />
    <glyph glyph-name="ycircumflex" unicode="&#x177;" horiz-adv-x="418" 
d="M174 -2l-154 504h75l117 -414l106 414h76l-164 -587c-36 -121 -64 -144 -179 -145v64c65 0 80 12 103 89zM209 668l-55 -81h-77l108 131h49l108 -131h-77z" />
    <glyph glyph-name="ccircumflex" unicode="&#x109;" horiz-adv-x="419" 
d="M322 129l66 -13c-15 -86 -65 -125 -157 -125c-115 0 -169 69 -169 214v86c0 153 53 221 173 221c86 0 127 -34 147 -119l-65 -19c-14 55 -37 76 -83 76c-67 0 -97 -47 -97 -154v-97c0 -98 32 -145 99 -145c49 0 75 23 86 75zM228 668l-55 -81h-77l108 131h49l108 -131
h-77z" />
    <glyph glyph-name="emacron" unicode="&#x113;" horiz-adv-x="466" 
d="M137 237v-42c0 -96 35 -141 107 -141c54 0 81 22 93 75l65 -14c-15 -86 -65 -124 -161 -124c-123 0 -179 68 -179 219v80c0 153 54 221 174 221c121 0 174 -67 174 -221v-53h-273zM137 295h201v21c0 89 -32 132 -100 132s-101 -43 -101 -132v-21zM126 621v55h224v-55
h-224z" />
    <glyph glyph-name="gcircumflex" unicode="&#x11d;" horiz-adv-x="483" 
d="M334 -27v62c-30 -32 -62 -44 -114 -44c-107 0 -158 67 -158 211v104c0 140 50 205 159 205c56 0 90 -14 121 -51l8 42h59v-521c0 -147 -57 -215 -180 -215c-88 0 -133 34 -152 112l64 17c14 -49 38 -68 87 -68c73 0 106 45 106 146zM137 306v-105c0 -98 31 -146 96 -146
c68 0 101 52 101 156v80c0 105 -33 157 -101 157c-64 0 -96 -47 -96 -142zM244 668l-55 -81h-77l108 131h49l108 -131h-77z" />
    <glyph glyph-name="ibreve" unicode="&#x12d;" horiz-adv-x="224" 
d="M75 0v502h75v-502h-75zM-9 714h51c5 -58 23 -78 70 -78s65 20 70 78h51c-2 -47 -5 -64 -14 -83c-19 -36 -51 -52 -107 -52c-59 0 -94 19 -110 60c-7 17 -9 34 -11 75z" />
    <glyph glyph-name="imacron" unicode="&#x12b;" horiz-adv-x="224" 
d="M75 0v502h75v-502h-75zM1 621v55h223v-55h-223z" />
    <glyph glyph-name="jcircumflex" unicode="&#x135;" horiz-adv-x="229" 
d="M77 502h75v-516c4 -162 -42 -217 -177 -216v64c75 -4 104 38 102 144v524zM113 668l-55 -81h-77l108 131h49l108 -131h-77z" />
    <glyph glyph-name="kcommaaccent" unicode="&#x137;" horiz-adv-x="445" 
d="M75 0v714h75v-488l182 276h84l-146 -212l159 -290h-82l-122 232l-75 -111v-121h-75zM164 -220l44 150h76l-68 -150h-52z" />
    <glyph glyph-name="lcommaaccent" unicode="&#x13c;" horiz-adv-x="254" 
d="M73 714h75v-558c-1 -71 16 -93 71 -93h20v-63h-23c-114 1 -143 34 -143 162v552zM69 -220l43 150h77l-68 -150h-52z" />
    <glyph glyph-name="ncommaaccent" unicode="&#x146;" horiz-adv-x="483" 
d="M74 0v502h58l5 -49c30 43 64 59 122 59c72 0 120 -30 141 -87c9 -26 13 -62 13 -118v-307h-75v299c0 107 -25 148 -90 148c-71 0 -99 -48 -99 -172v-275h-75zM172 -220l44 150h76l-68 -150h-52z" />
    <glyph glyph-name="omacron" unicode="&#x14d;" horiz-adv-x="476" 
d="M62 197v108c0 143 54 206 177 206c122 0 176 -63 176 -206v-108c0 -143 -54 -206 -176 -206c-123 0 -177 63 -177 206zM340 197v109c0 99 -30 142 -102 142c-70 0 -101 -43 -101 -142v-109c0 -100 31 -143 101 -143c71 0 102 43 102 143zM127 621v55h224v-55h-224z" />
    <glyph glyph-name="rcommaaccent" unicode="&#x157;" horiz-adv-x="325" 
d="M75 0v502h58l9 -44c23 37 54 53 101 53c30 0 53 -7 83 -26l-33 -63c-22 17 -38 23 -59 23c-59 0 -84 -59 -84 -200v-245h-75zM33 -220l43 150h77l-68 -150h-52z" />
    <glyph glyph-name="ubreve" unicode="&#x16d;" horiz-adv-x="473" 
d="M70 502h75v-299c0 -107 24 -147 86 -147c66 0 93 49 93 171v275h75v-502h-58l-5 49c-30 -42 -62 -58 -117 -58c-69 0 -116 30 -136 87c-9 25 -13 63 -13 118v306zM115 714h51c5 -58 23 -78 70 -78c48 0 65 20 71 78h51c-2 -47 -5 -64 -15 -83c-18 -36 -51 -52 -107 -52
c-59 0 -93 19 -110 60c-7 17 -9 33 -11 75z" />
    <glyph glyph-name="umacron" unicode="&#x16b;" horiz-adv-x="473" 
d="M70 502h75v-299c0 -107 24 -147 86 -147c66 0 93 49 93 171v275h75v-502h-58l-5 49c-30 -42 -62 -58 -117 -58c-69 0 -116 30 -136 87c-9 25 -13 63 -13 118v306zM125 621v55h224v-55h-224z" />
    <glyph glyph-name="uogonek" unicode="&#x173;" horiz-adv-x="473" 
d="M399 502v-502c-63 -44 -83 -70 -83 -107c0 -26 14 -38 44 -38c18 0 29 2 50 9l9 -44c-27 -10 -45 -13 -74 -13c-64 0 -97 25 -97 74c0 47 32 90 93 122l-5 46c-30 -42 -62 -58 -117 -58c-69 0 -116 30 -136 87c-9 25 -13 63 -13 118v306h75v-299c0 -107 24 -147 86 -147
c66 0 93 49 93 171v275h75z" />
    <glyph glyph-name="rcaron" unicode="&#x159;" horiz-adv-x="325" 
d="M74 0v502h58l9 -44c23 37 53 53 101 53c30 0 53 -7 83 -26l-33 -63c-22 17 -38 23 -59 23c-59 0 -84 -59 -84 -200v-245h-75zM184 636l56 81h77l-108 -131h-49l-108 131h77z" />
    <glyph glyph-name="scedilla" unicode="&#x15f;" horiz-adv-x="413" 
d="M27 115l65 15c15 -55 46 -77 107 -77c67 0 103 30 103 86c0 30 -10 52 -29 64c-16 9 -25 12 -79 23c-60 12 -89 24 -109 44c-24 22 -36 55 -36 98c0 92 53 143 150 143c92 0 137 -34 156 -117l-64 -15c-12 49 -39 70 -89 70c-52 0 -82 -29 -82 -79c0 -49 23 -69 94 -83
c75 -15 97 -23 120 -42c26 -21 39 -58 39 -107c0 -97 -59 -147 -175 -147c-99 0 -154 41 -171 124zM132 -220l44 150h76l-68 -150h-52z" />
    <glyph glyph-name="gcommaaccent" unicode="&#x123;" horiz-adv-x="483" 
d="M334 -27v62c-30 -32 -62 -44 -114 -44c-107 0 -158 67 -158 211v104c0 140 50 205 159 205c56 0 90 -14 121 -51l8 42h59v-521c0 -147 -57 -215 -180 -215c-88 0 -133 34 -152 112l64 17c14 -49 38 -68 87 -68c73 0 106 45 106 146zM137 306v-105c0 -98 31 -146 96 -146
c68 0 101 52 101 156v80c0 105 -33 157 -101 157c-64 0 -96 -47 -96 -142zM201 582l97 141h56l-64 -141h-89z" />
    <glyph glyph-name="ahungarumlaut" horiz-adv-x="452" 
d="M306 294v36c0 87 -24 119 -90 119c-48 0 -74 -21 -91 -75l-64 19c21 80 72 118 157 118c69 0 117 -23 142 -66c15 -27 21 -63 21 -123v-322h-60l-5 35c-28 -33 -58 -44 -122 -44c-112 0 -154 40 -154 149c0 113 44 154 167 154h99zM306 236h-86c-78 0 -107 -26 -107 -96
c0 -64 24 -86 97 -86c74 0 96 22 96 98v84zM134 582l51 141h82l-80 -141h-53zM252 582l51 141h82l-80 -141h-53z" />
    <glyph glyph-name="uni0227" unicode="&#x227;" horiz-adv-x="452" 
d="M306 294v36c0 87 -24 119 -90 119c-48 0 -74 -21 -91 -75l-64 19c21 80 72 118 157 118c69 0 117 -23 142 -66c15 -27 21 -63 21 -123v-322h-60l-5 35c-28 -33 -58 -44 -122 -44c-112 0 -154 40 -154 149c0 113 44 154 167 154h99zM306 236h-86c-78 0 -107 -26 -107 -96
c0 -64 24 -86 97 -86c74 0 96 22 96 98v84zM192 589v102h73v-102h-73z" />
    <glyph glyph-name="uni1E1F" unicode="&#x1e1f;" horiz-adv-x="284" 
d="M92 440h-53v62h53v80c0 103 29 134 125 132h40v-61h-23c-55 2 -67 -12 -67 -78v-73h94v-62h-94v-440h-75v440zM142 797v102h73v-102h-73z" />
    <glyph glyph-name="uni0204" unicode="&#x204;" horiz-adv-x="490" 
d="M88 0v714h353v-66h-275v-254h234v-66h-234v-262h277v-66h-355zM357 790h-53l-80 141h82zM239 790h-53l-80 141h81z" />
    <glyph glyph-name="uni0205" unicode="&#x205;" horiz-adv-x="466" 
d="M137 237v-42c0 -96 35 -141 107 -141c54 0 81 22 93 75l65 -14c-15 -86 -65 -124 -161 -124c-123 0 -179 68 -179 219v80c0 153 54 221 174 221c121 0 174 -67 174 -221v-53h-273zM137 295h201v21c0 89 -32 132 -100 132s-101 -43 -101 -132v-21zM326 582h-53l-80 141h82
zM208 582h-53l-80 141h81z" />
    <glyph glyph-name="uni0206" unicode="&#x206;" horiz-adv-x="490" 
d="M88 0v714h353v-66h-275v-254h234v-66h-234v-262h277v-66h-355zM380 795h-51c-6 58 -24 78 -70 78c-48 0 -66 -20 -71 -78h-51c2 47 5 64 15 83c18 36 51 52 106 52c60 0 94 -19 111 -60c6 -17 9 -33 11 -75z" />
    <glyph glyph-name="uni0207" unicode="&#x207;" horiz-adv-x="466" 
d="M137 237v-42c0 -96 35 -141 107 -141c54 0 81 22 93 75l65 -14c-15 -86 -65 -124 -161 -124c-123 0 -179 68 -179 219v80c0 153 54 221 174 221c121 0 174 -67 174 -221v-53h-273zM137 295h201v21c0 89 -32 132 -100 132s-101 -43 -101 -132v-21zM355 587h-51
c-5 58 -24 78 -70 78c-48 0 -66 -20 -71 -78h-51c2 47 5 64 15 83c18 36 51 52 106 52c60 0 94 -19 111 -60c6 -17 9 -33 11 -75z" />
    <glyph glyph-name="uni0208" unicode="&#x208;" horiz-adv-x="253" 
d="M88 0v714h78v-714h-78zM219 790h-53l-80 141h82zM101 790h-53l-80 141h81z" />
    <glyph glyph-name="uni0209" unicode="&#x209;" horiz-adv-x="224" 
d="M75 0v502h75v-502h-75zM205 582h-53l-80 141h82zM87 582h-53l-80 141h81z" />
    <glyph glyph-name="uni020A" unicode="&#x20a;" horiz-adv-x="253" 
d="M88 0v714h78v-714h-78zM249 795h-51c-6 58 -24 78 -70 78c-48 0 -66 -20 -71 -78h-51c2 47 5 64 15 83c18 36 51 52 106 52c60 0 94 -19 111 -60c6 -17 9 -33 11 -75z" />
    <glyph glyph-name="uni020B" unicode="&#x20b;" horiz-adv-x="224" 
d="M75 0v502h75v-502h-75zM234 587h-51c-5 58 -24 78 -70 78c-48 0 -66 -20 -71 -78h-51c2 47 5 64 15 83c18 36 51 52 106 52c60 0 94 -19 111 -60c6 -17 9 -33 11 -75z" />
    <glyph glyph-name="uni020C" unicode="&#x20c;" horiz-adv-x="572" 
d="M73 237v240c0 87 14 139 48 179c38 46 90 67 165 67c80 0 136 -25 173 -78c28 -39 39 -88 39 -168v-240c0 -87 -14 -139 -48 -179c-38 -46 -90 -67 -164 -67c-81 0 -137 25 -174 78c-27 39 -39 89 -39 168zM420 245v224c0 131 -41 189 -135 189c-93 0 -134 -58 -134 -189
v-224c0 -131 41 -189 134 -189c94 0 135 58 135 189zM378 790h-53l-80 141h82zM260 790h-53l-80 141h81z" />
    <glyph glyph-name="uni020D" unicode="&#x20d;" horiz-adv-x="476" 
d="M62 197v108c0 143 54 206 177 206c122 0 176 -63 176 -206v-108c0 -143 -54 -206 -176 -206c-123 0 -177 63 -177 206zM340 197v109c0 99 -30 142 -102 142c-70 0 -101 -43 -101 -142v-109c0 -100 31 -143 101 -143c71 0 102 43 102 143zM331 582h-53l-80 141h82z
M213 582h-53l-80 141h81z" />
    <glyph glyph-name="uni020E" unicode="&#x20e;" horiz-adv-x="572" 
d="M73 237v240c0 87 14 139 48 179c38 46 90 67 165 67c80 0 136 -25 173 -78c28 -39 39 -88 39 -168v-240c0 -87 -14 -139 -48 -179c-38 -46 -90 -67 -164 -67c-81 0 -137 25 -174 78c-27 39 -39 89 -39 168zM420 245v224c0 131 -41 189 -135 189c-93 0 -134 -58 -134 -189
v-224c0 -131 41 -189 134 -189c94 0 135 58 135 189zM407 795h-51c-6 58 -24 78 -70 78c-48 0 -66 -20 -71 -78h-51c2 47 5 64 15 83c18 36 51 52 106 52c60 0 94 -19 111 -60c6 -17 9 -33 11 -75z" />
    <glyph glyph-name="uni020F" unicode="&#x20f;" horiz-adv-x="476" 
d="M62 197v108c0 143 54 206 177 206c122 0 176 -63 176 -206v-108c0 -143 -54 -206 -176 -206c-123 0 -177 63 -177 206zM340 197v109c0 99 -30 142 -102 142c-70 0 -101 -43 -101 -142v-109c0 -100 31 -143 101 -143c71 0 102 43 102 143zM360 587h-51
c-5 58 -24 78 -70 78c-48 0 -66 -20 -71 -78h-51c2 47 5 64 15 83c18 36 51 52 106 52c60 0 94 -19 111 -60c6 -17 9 -33 11 -75z" />
    <glyph glyph-name="uni0210" unicode="&#x210;" horiz-adv-x="547" 
d="M167 311v-311h-78v714h192c80 0 124 -15 158 -52c31 -34 45 -81 45 -147c0 -113 -39 -175 -124 -195l134 -320h-86l-123 311h-118zM166 375h113c50 0 76 9 97 34c20 23 30 59 30 102c0 96 -40 138 -130 138h-110v-274zM347 790h-53l-80 141h82zM229 790h-53l-80 141h81z
" />
    <glyph glyph-name="uni0211" unicode="&#x211;" horiz-adv-x="325" 
d="M74 0v502h59l8 -44c23 37 54 53 101 53c30 0 53 -7 83 -26l-33 -63c-22 17 -38 23 -59 23c-59 0 -84 -59 -84 -200v-245h-75zM271 582h-53l-80 141h82zM153 582h-53l-80 141h81z" />
    <glyph glyph-name="uni0212" unicode="&#x212;" horiz-adv-x="547" 
d="M167 311v-311h-78v714h192c80 0 124 -15 158 -52c31 -34 45 -81 45 -147c0 -113 -39 -175 -124 -195l134 -320h-86l-123 311h-118zM166 375h113c50 0 76 9 97 34c20 23 30 59 30 102c0 96 -40 138 -130 138h-110v-274zM373 795h-51c-6 58 -24 78 -70 78
c-48 0 -66 -20 -71 -78h-51c2 47 5 64 15 83c18 36 51 52 106 52c60 0 94 -19 111 -60c6 -17 9 -33 11 -75z" />
    <glyph glyph-name="uni0213" unicode="&#x213;" horiz-adv-x="325" 
d="M74 0v502h59l8 -44c23 37 54 53 101 53c30 0 53 -7 83 -26l-33 -63c-22 17 -38 23 -59 23c-59 0 -84 -59 -84 -200v-245h-75zM304 587h-51c-5 58 -24 78 -70 78c-48 0 -66 -20 -71 -78h-51c2 47 5 64 15 83c18 36 51 52 106 52c60 0 94 -19 111 -60c6 -17 9 -33 11 -75z
" />
    <glyph glyph-name="uni0214" unicode="&#x214;" horiz-adv-x="584" 
d="M85 714h78v-485c0 -62 5 -93 21 -118c22 -38 54 -55 104 -55c60 0 94 18 116 63c12 24 16 54 16 110v485h78v-485c0 -89 -8 -127 -36 -165c-38 -51 -89 -73 -171 -73c-86 0 -142 26 -177 84c-22 35 -29 73 -29 154v485zM384 790h-53l-80 141h82zM266 790h-53l-80 141h81z
" />
    <glyph glyph-name="uni0215" unicode="&#x215;" horiz-adv-x="473" 
d="M70 502h75v-299c0 -107 24 -147 86 -147c66 0 93 49 93 171v275h75v-502h-58l-5 49c-30 -42 -62 -58 -117 -58c-69 0 -116 30 -136 87c-9 25 -13 63 -13 118v306zM329 582h-53l-80 141h82zM211 582h-53l-80 141h81z" />
    <glyph glyph-name="uni0216" unicode="&#x216;" horiz-adv-x="584" 
d="M85 714h78v-485c0 -62 5 -93 21 -118c22 -38 54 -55 104 -55c60 0 94 18 116 63c12 24 16 54 16 110v485h78v-485c0 -89 -8 -127 -36 -165c-38 -51 -89 -73 -171 -73c-86 0 -142 26 -177 84c-22 35 -29 73 -29 154v485zM413 795h-51c-6 58 -24 78 -70 78
c-48 0 -66 -20 -71 -78h-51c2 47 5 64 15 83c18 36 51 52 106 52c60 0 94 -19 111 -60c6 -17 9 -33 11 -75z" />
    <glyph glyph-name="uni0217" unicode="&#x217;" horiz-adv-x="473" 
d="M70 502h75v-299c0 -107 24 -147 86 -147c66 0 93 49 93 171v275h75v-502h-58l-5 49c-30 -42 -62 -58 -117 -58c-69 0 -116 30 -136 87c-9 25 -13 63 -13 118v306zM358 587h-51c-5 58 -24 78 -70 78c-48 0 -66 -20 -71 -78h-51c2 47 5 64 15 83c18 36 51 52 106 52
c60 0 94 -19 111 -60c6 -17 9 -33 11 -75z" />
    <glyph glyph-name="uni1E24" unicode="&#x1e24;" horiz-adv-x="576" 
d="M88 0v714h78v-320h245v320h78v-714h-78v328h-245v-328h-78zM252 -193v102h73v-102h-73z" />
    <glyph glyph-name="uni1E25" unicode="&#x1e25;" horiz-adv-x="483" 
d="M74 0v714h75v-245c29 30 61 42 112 42c70 0 118 -30 139 -87c9 -25 13 -62 13 -117v-307h-75v299c0 106 -25 147 -90 147c-71 0 -99 -49 -99 -169v-277h-75zM205 -193v102h73v-102h-73z" />
    <glyph glyph-name="uni1E5A" unicode="&#x1e5a;" horiz-adv-x="547" 
d="M167 311v-311h-78v714h192c80 0 124 -15 158 -52c31 -34 45 -81 45 -147c0 -113 -39 -175 -124 -195l134 -320h-86l-123 311h-118zM166 375h113c50 0 76 9 97 34c20 23 30 59 30 102c0 96 -40 138 -130 138h-110v-274zM247 -193v102h73v-102h-73z" />
    <glyph glyph-name="uni1E5B" unicode="&#x1e5b;" horiz-adv-x="325" 
d="M74 0v502h59l8 -44c23 37 54 53 101 53c30 0 53 -7 83 -26l-33 -63c-22 17 -38 23 -59 23c-59 0 -84 -59 -84 -200v-245h-75zM75 -193v102h73v-102h-73z" />
    <glyph glyph-name="uni1E62" unicode="&#x1e62;" horiz-adv-x="495" 
d="M37 146l68 19c21 -76 61 -109 135 -109c88 0 134 46 134 135c0 41 -12 74 -35 95c-22 19 -27 21 -110 46c-122 36 -172 93 -172 200c0 120 70 191 188 191c102 0 158 -44 180 -142l-68 -18c-20 69 -51 95 -113 95c-70 0 -111 -45 -111 -122c0 -73 35 -110 135 -140
c82 -25 96 -31 125 -54c38 -31 57 -80 57 -147c0 -132 -73 -204 -209 -204c-119 0 -180 46 -204 155zM200 -193v102h73v-102h-73z" />
    <glyph glyph-name="uni1E63" unicode="&#x1e63;" horiz-adv-x="413" 
d="M27 115l65 15c15 -55 46 -77 107 -77c67 0 103 30 103 86c0 30 -10 52 -29 64c-16 9 -25 12 -79 23c-60 12 -89 24 -109 44c-24 22 -36 55 -36 98c0 92 53 143 150 143c92 0 137 -34 156 -117l-64 -15c-12 49 -39 70 -89 70c-52 0 -82 -29 -82 -79c0 -49 23 -69 94 -83
c75 -15 97 -23 120 -42c26 -21 39 -58 39 -107c0 -97 -59 -147 -175 -147c-99 0 -154 41 -171 124zM169 -193v102h73v-102h-73z" />
    <glyph glyph-name="uni1E6C" unicode="&#x1e6c;" horiz-adv-x="453" 
d="M188 0v648h-166v66h409v-66h-165v-648h-78zM189 -193v102h73v-102h-73z" />
    <glyph glyph-name="uni1E6D" unicode="&#x1e6d;" horiz-adv-x="286" 
d="M88 440h-52v62h52l4 161h71v-161h83v-62h-83v-290c-1 -66 16 -87 69 -87h16v-63h-19c-114 0 -141 30 -141 157v283zM107 -193v102h73v-102h-73z" />
    <glyph glyph-name="uni1E92" unicode="&#x1e92;" horiz-adv-x="457" 
d="M40 0v50l275 598h-258v66h344v-50l-275 -598h288v-66h-374zM192 -193v102h73v-102h-73z" />
    <glyph glyph-name="uni1E93" unicode="&#x1e93;" horiz-adv-x="398" 
d="M36 0v46l213 393h-196v63h286v-46l-214 -393h227v-63h-316zM162 -193v102h73v-102h-73z" />
    <glyph glyph-name="uni1E44" unicode="&#x1e44;" horiz-adv-x="610" 
d="M88 0v714h76l283 -565v565h75v-714h-75l-284 566v-566h-75zM278 798v102h73v-102h-73z" />
    <glyph glyph-name="uni1E45" unicode="&#x1e45;" horiz-adv-x="483" 
d="M74 0v502h58l5 -49c30 43 64 59 122 59c72 0 120 -30 141 -87c9 -26 13 -62 13 -118v-307h-75v299c0 107 -25 148 -90 148c-71 0 -99 -48 -99 -172v-275h-75zM205 590v102h73v-102h-73z" />
    <glyph glyph-name="uni1E0C" unicode="&#x1e0c;" horiz-adv-x="573" 
d="M88 0v714h190c150 3 225 -78 222 -237v-240c3 -159 -72 -240 -222 -237h-190zM166 65h105c106 -2 151 53 151 183v219c0 129 -45 184 -151 182h-105v-584zM233 -193v102h73v-102h-73z" />
    <glyph glyph-name="uni1E0D" unicode="&#x1e0d;" horiz-adv-x="482" 
d="M349 0l-5 40l-4 -4c-31 -33 -63 -45 -117 -45c-111 0 -161 66 -161 210v106c0 139 50 204 158 204c53 0 80 -11 113 -44v247h75v-714h-59zM137 306v-105c0 -99 31 -146 96 -146c67 0 100 51 100 156v80c0 105 -33 156 -101 156c-64 0 -95 -46 -95 -141zM218 -193v102h73
v-102h-73z" />
    <glyph glyph-name="uni1E02" unicode="&#x1e02;" horiz-adv-x="548" 
d="M88 0v714h205c73 0 111 -12 142 -43c31 -32 49 -84 49 -141c0 -75 -26 -127 -77 -157c29 -17 40 -27 52 -44c23 -32 36 -83 36 -137c0 -66 -20 -122 -55 -154c-29 -28 -65 -38 -129 -38h-223zM166 400h130c73 0 110 42 110 124c0 43 -14 82 -35 102c-19 17 -41 23 -80 23
h-125v-249zM166 65h135c43 0 66 8 85 29s31 61 31 103c0 47 -14 91 -35 112c-19 19 -39 26 -75 26h-141v-270zM224 798v102h73v-102h-73z" />
    <glyph glyph-name="uni1E03" unicode="&#x1e03;" horiz-adv-x="482" 
d="M74 0v714h75v-247c31 32 62 44 112 44c109 0 159 -65 159 -204v-106c0 -144 -50 -210 -160 -210c-58 0 -84 11 -122 49l-5 -40h-59zM345 200v106c0 95 -31 141 -95 141c-68 0 -101 -51 -101 -156v-80c0 -105 33 -156 101 -156c64 0 95 48 95 145zM237 590v102h73v-102
h-73z" />
    <glyph glyph-name="aringacute" unicode="&#x1fb;" horiz-adv-x="452" 
d="M306 294v36c0 87 -24 119 -90 119c-48 0 -74 -21 -91 -75l-64 19c21 80 72 118 157 118c69 0 117 -23 142 -66c15 -27 21 -63 21 -123v-322h-60l-5 35c-28 -33 -58 -44 -122 -44c-112 0 -154 40 -154 149c0 113 44 154 167 154h99zM306 236h-86c-78 0 -107 -26 -107 -96
c0 -64 24 -86 97 -86c74 0 96 22 96 98v84zM230 754c59 0 98 -40 98 -99c0 -60 -40 -101 -99 -101s-99 41 -99 101c0 61 39 99 100 99zM230 714c-32 0 -49 -21 -49 -60c0 -38 17 -60 48 -60s48 22 48 60s-17 60 -47 60zM193 794l48 117h95l-95 -117h-48z" />
    <glyph glyph-name="hcircumflex" unicode="&#x125;" horiz-adv-x="483" 
d="M74 0v714h75v-245c29 30 61 42 112 42c70 0 118 -30 139 -87c9 -25 13 -62 13 -117v-307h-75v299c0 106 -25 147 -90 147c-71 0 -99 -48 -99 -169v-277h-75zM142 876l-55 -81h-77l107 132h50l108 -132h-77z" />
    <glyph glyph-name="ebreve" unicode="&#x115;" horiz-adv-x="466" 
d="M137 237v-42c0 -96 35 -141 107 -141c54 0 81 22 93 75l65 -14c-15 -86 -65 -124 -161 -124c-123 0 -179 68 -179 219v80c0 153 54 221 174 221c121 0 174 -67 174 -221v-53h-273zM137 295h201v21c0 89 -32 132 -100 132s-101 -43 -101 -132v-21zM115 714h51
c5 -58 23 -78 70 -78c48 0 65 20 71 78h51c-2 -47 -5 -64 -15 -83c-18 -36 -51 -52 -107 -52c-59 0 -93 19 -110 60c-7 17 -9 33 -11 75z" />
    <glyph glyph-name="uni01F5" unicode="&#x1f5;" horiz-adv-x="483" 
d="M334 -27v62c-30 -32 -62 -44 -114 -44c-107 0 -158 67 -158 211v104c0 140 50 205 159 205c56 0 90 -14 121 -51l8 42h59v-521c0 -147 -57 -215 -180 -215c-88 0 -133 34 -152 112l64 17c14 -49 38 -68 87 -68c73 0 106 45 106 146zM137 306v-105c0 -98 31 -146 96 -146
c68 0 101 52 101 156v80c0 105 -33 157 -101 157c-64 0 -96 -47 -96 -142zM203 582l64 141h89l-97 -141h-56z" />
    <glyph glyph-name="iogonek" unicode="&#x12f;" horiz-adv-x="224" 
d="M150 0l-6 -5c-50 -39 -68 -65 -68 -100c0 -28 13 -40 43 -40c17 0 28 2 49 9l8 -44c-26 -10 -44 -13 -73 -13c-63 0 -95 25 -95 75c0 44 29 88 79 118h-12v502h75v-502zM75 613v104h75v-104h-75z" />
    <glyph glyph-name="ldot" unicode="&#x140;" horiz-adv-x="287" 
d="M74 714h75v-558c-1 -71 16 -93 71 -93h21v-63h-24c-114 0 -143 33 -143 162v552zM219 315v96h68v-96h-68z" />
    <glyph glyph-name="uni01D2" unicode="&#x1d2;" horiz-adv-x="476" 
d="M62 197v108c0 143 54 206 177 206c122 0 176 -63 176 -206v-108c0 -143 -54 -206 -176 -206c-123 0 -177 63 -177 206zM340 197v109c0 99 -30 142 -102 142c-70 0 -101 -43 -101 -142v-109c0 -100 31 -143 101 -143c71 0 102 43 102 143zM239 636l55 81h77l-108 -131h-49
l-108 131h77z" />
    <glyph glyph-name="obreve" unicode="&#x14f;" horiz-adv-x="476" 
d="M62 197v108c0 143 54 206 177 206c122 0 176 -63 176 -206v-108c0 -143 -54 -206 -176 -206c-123 0 -177 63 -177 206zM340 197v109c0 99 -30 142 -102 142c-70 0 -101 -43 -101 -142v-109c0 -100 31 -143 101 -143c71 0 102 43 102 143zM117 714h51c5 -58 23 -78 70 -78
c48 0 65 20 71 78h51c-2 -47 -5 -64 -15 -83c-18 -36 -51 -52 -107 -52c-59 0 -93 19 -110 60c-7 17 -9 33 -11 75z" />
    <glyph glyph-name="oslashacute" unicode="&#x1ff;" horiz-adv-x="477" 
d="M416 493l-30 -50c19 -31 29 -79 29 -138v-107c0 -143 -55 -207 -176 -207c-46 0 -83 10 -110 28l-24 -40l-47 31l31 51c-18 32 -28 78 -27 137v107c0 142 54 206 176 206c44 0 80 -9 107 -26l24 38zM336 361l-169 -280c19 -19 40 -27 71 -27c71 0 102 44 102 142v110
c0 22 -1 38 -4 55zM140 145l168 278c-17 18 -38 26 -69 26c-71 0 -102 -44 -102 -143v-110c0 -21 1 -38 3 -51zM193 582l64 141h89l-97 -141h-56z" />
    <glyph glyph-name="itilde" unicode="&#x129;" horiz-adv-x="224" 
d="M75 0v502h75v-502h-75zM24 598h-47c17 83 38 111 84 111c23 0 41 -9 62 -32c24 -25 33 -32 44 -32c16 0 26 16 34 56h47c-7 -38 -11 -54 -18 -69c-13 -28 -35 -42 -64 -42c-25 0 -43 9 -65 33c-23 26 -29 31 -40 31c-16 0 -30 -21 -37 -56z" />
    <glyph glyph-name="utilde" unicode="&#x169;" horiz-adv-x="473" 
d="M70 502h75v-299c0 -107 24 -147 86 -147c66 0 93 49 93 171v275h75v-502h-58l-5 49c-30 -42 -62 -58 -117 -58c-69 0 -116 30 -136 87c-9 25 -13 63 -13 118v306zM148 598h-47c17 83 38 110 84 110c24 0 42 -9 63 -31c23 -26 32 -32 44 -32c15 0 26 17 33 56h47
c-7 -37 -11 -54 -18 -69c-13 -28 -34 -42 -63 -42c-26 0 -44 9 -66 33c-22 26 -29 31 -40 31c-16 0 -30 -21 -37 -56z" />
    <glyph glyph-name="uni01D4" unicode="&#x1d4;" horiz-adv-x="473" 
d="M70 502h75v-299c0 -107 24 -147 86 -147c66 0 93 49 93 171v275h75v-502h-58l-5 49c-30 -42 -62 -58 -117 -58c-69 0 -116 30 -136 87c-9 25 -13 63 -13 118v306zM237 636l55 81h77l-108 -131h-49l-108 131h77z" />
    <glyph glyph-name="Ldot" unicode="&#x13f;" horiz-adv-x="456" 
d="M88 0v714h78v-648h280v-66h-358zM312 315v96h68v-96h-68z" />
    <glyph glyph-name="Obreve" unicode="&#x14e;" horiz-adv-x="572" 
d="M73 237v240c0 87 14 139 48 179c38 46 90 67 165 67c80 0 136 -25 173 -78c28 -39 39 -88 39 -168v-240c0 -87 -14 -139 -48 -179c-38 -46 -90 -67 -164 -67c-81 0 -137 25 -174 78c-27 39 -39 89 -39 168zM420 245v224c0 131 -41 189 -135 189c-93 0 -134 -58 -134 -189
v-224c0 -131 41 -189 134 -189c94 0 135 58 135 189zM164 922h51c5 -58 23 -78 70 -78c48 0 65 20 71 78h51c-2 -47 -5 -64 -15 -83c-18 -36 -51 -52 -107 -52c-59 0 -93 19 -110 60c-7 17 -9 33 -11 75z" />
    <glyph glyph-name="Scommaaccent" unicode="&#x218;" horiz-adv-x="495" 
d="M37 146l68 19c21 -76 61 -109 135 -109c88 0 134 46 134 135c0 41 -12 74 -35 95c-22 19 -27 21 -110 46c-122 36 -172 93 -172 200c0 120 70 191 188 191c102 0 158 -44 180 -142l-68 -18c-20 69 -51 95 -113 95c-70 0 -111 -45 -111 -122c0 -73 35 -110 135 -140
c82 -25 96 -31 125 -54c38 -31 57 -80 57 -147c0 -132 -73 -204 -209 -204c-119 0 -180 46 -204 155zM167 -220l44 150h76l-68 -150h-52z" />
    <glyph glyph-name="Ubreve" unicode="&#x16c;" horiz-adv-x="584" 
d="M85 714h78v-485c0 -62 5 -93 21 -118c22 -38 54 -55 104 -55c60 0 94 18 116 63c12 24 16 54 16 110v485h78v-485c0 -89 -8 -127 -36 -165c-38 -51 -89 -73 -171 -73c-86 0 -142 26 -177 84c-22 35 -29 73 -29 154v485zM170 922h51c5 -58 23 -78 70 -78c48 0 65 20 71 78
h51c-2 -47 -5 -64 -15 -83c-18 -36 -51 -52 -107 -52c-59 0 -93 19 -110 60c-7 17 -9 33 -11 75z" />
    <glyph glyph-name="Aringacute" unicode="&#x1fa;" horiz-adv-x="508" 
d="M-1 0l211 684c-33 15 -55 51 -55 93c0 60 39 99 99 99s99 -39 99 -99c0 -41 -21 -77 -54 -92l211 -685h-84l-45 158h-253l-44 -158h-85zM364 223l-109 385l-110 -385h219zM255 836c-32 0 -49 -21 -49 -60c0 -38 17 -60 48 -60s48 22 48 60s-18 60 -47 60zM218 896l48 117
h95l-95 -117h-48z" />
    <glyph glyph-name="Oslashacute" unicode="&#x1fe;" horiz-adv-x="571" 
d="M511 697l-40 -73c20 -43 26 -77 27 -147v-240c0 -88 -14 -138 -48 -179c-38 -46 -90 -67 -165 -67c-62 0 -105 13 -142 44l-29 -53l-55 32l41 74c-20 42 -27 79 -27 149v240c0 87 13 139 47 179c38 46 90 67 165 67c63 0 107 -14 143 -45l28 51zM417 527l-235 -423
c24 -33 56 -48 103 -48c93 0 135 58 135 189v224c0 23 -2 48 -3 58zM153 184l236 424c-24 35 -56 50 -104 50c-93 0 -134 -58 -134 -189v-224c0 -27 0 -46 2 -61zM240 790l64 141h89l-97 -141h-56z" />
    <glyph glyph-name="AEacute" unicode="&#x1fc;" horiz-adv-x="801" 
d="M400 166h-259l-85 -166h-90l386 714h401v-66h-276v-254h235v-66h-235v-262h277v-66h-354v166zM400 231v417h-10l-217 -417h227zM512 790l64 141h89l-97 -141h-56z" />
    <glyph glyph-name="Tbar" unicode="&#x166;" horiz-adv-x="453" 
d="M188 0v330h-115v64h115v254h-166v66h409v-66h-165v-254h114v-64h-114v-330h-78z" />
    <glyph glyph-name="tbar" unicode="&#x167;" horiz-adv-x="287" 
d="M89 440h-52v62h52l4 161h71v-161h83v-62h-83v-91h82v-54h-82v-148c0 -64 16 -84 69 -83h16v-64h-20c-111 0 -139 30 -140 149v146h-52v54h52v91z" />
    <glyph glyph-name="napostrophe" unicode="&#x149;" horiz-adv-x="526" 
d="M118 0v502h58l5 -55c31 47 64 64 122 64c71 0 119 -30 140 -87c9 -25 13 -63 13 -117v-307h-75v299c0 106 -25 147 -89 147c-71 0 -99 -48 -99 -171v-275h-75zM11 477l30 237h81l-47 -237h-64z" />
    <glyph glyph-name="Utilde" unicode="&#x168;" horiz-adv-x="584" 
d="M85 714h78v-485c0 -62 5 -93 21 -118c22 -38 54 -55 104 -55c60 0 94 18 116 63c12 24 16 54 16 110v485h78v-485c0 -89 -8 -127 -36 -165c-38 -51 -89 -73 -171 -73c-86 0 -142 26 -177 84c-22 35 -29 73 -29 154v485zM203 806h-47c17 83 38 111 84 111
c24 0 42 -9 63 -32c23 -25 32 -32 44 -32c15 0 26 17 33 56h47c-6 -37 -11 -54 -18 -69c-13 -28 -34 -42 -63 -42c-26 0 -44 9 -66 33c-22 26 -29 31 -40 31c-16 0 -30 -21 -37 -56z" />
    <glyph glyph-name="aeacute" unicode="&#x1fd;" horiz-adv-x="713" 
d="M122 374l-60 20c15 75 72 117 157 117c66 0 108 -21 129 -65c27 44 72 65 137 65c119 0 171 -67 171 -221v-53h-274v-42c0 -96 35 -142 108 -142c53 0 81 23 92 76l65 -14c-14 -85 -64 -124 -157 -124c-69 0 -113 23 -141 73c-21 -50 -70 -73 -155 -73
c-112 0 -154 40 -154 149c0 114 44 155 167 155h99v35c0 86 -25 119 -90 119c-48 0 -80 -26 -94 -75zM306 237h-86c-78 0 -107 -27 -107 -97c0 -66 25 -89 97 -89c73 0 96 27 96 114v72zM382 295h202v21c0 89 -32 132 -101 132c-68 0 -101 -43 -101 -132v-21zM311 582
l64 141h89l-97 -141h-56z" />
    <glyph glyph-name="Itilde" unicode="&#x128;" horiz-adv-x="253" 
d="M87 0v714h78v-714h-78zM38 806h-47c17 83 38 111 84 111c23 0 41 -9 62 -32c24 -25 33 -32 44 -32c16 0 26 16 34 56h47c-7 -38 -11 -54 -18 -68c-13 -28 -35 -43 -64 -43c-25 0 -43 9 -65 33c-22 26 -29 31 -40 31c-16 0 -30 -21 -37 -56z" />
    <glyph glyph-name="Wgrave" unicode="&#x1e80;" horiz-adv-x="752" 
d="M172 0l-144 714h78l104 -576l138 576h56l137 -576l105 576h78l-144 -714h-68l-136 563l-136 -563h-68zM423 790h-56l-97 141h89z" />
    <glyph glyph-name="Wacute" unicode="&#x1e82;" horiz-adv-x="752" 
d="M172 0l-144 714h78l104 -576l138 576h56l137 -576l105 576h78l-144 -714h-68l-136 563l-136 -563h-68zM331 790l64 141h89l-97 -141h-56z" />
    <glyph glyph-name="wgrave" unicode="&#x1e81;" horiz-adv-x="654" 
d="M161 0l-128 502h76l87 -386l105 386h52l105 -386l88 386h76l-128 -502h-62l-105 376l-105 -376h-61zM374 582h-56l-97 141h89z" />
    <glyph glyph-name="wacute" unicode="&#x1e83;" horiz-adv-x="654" 
d="M161 0l-128 502h76l87 -386l105 386h52l105 -386l88 386h76l-128 -502h-62l-105 376l-105 -376h-61zM282 582l64 141h89l-97 -141h-56z" />
    <glyph glyph-name="Ygrave" unicode="&#x1ef2;" horiz-adv-x="457" 
d="M190 0v260l-190 454h82l147 -365l147 365h82l-190 -454v-260h-78zM275 790h-56l-97 141h89z" />
    <glyph glyph-name="ygrave" unicode="&#x1ef3;" horiz-adv-x="418" 
d="M174 -2l-154 504h75l117 -414l106 414h76l-164 -587c-36 -121 -64 -144 -179 -145v64c65 0 80 12 103 89zM250 582h-56l-97 141h89z" />
    <glyph glyph-name="uni0200" unicode="&#x200;" horiz-adv-x="508" 
d="M381 158h-253l-44 -158h-85l221 714h70l220 -714h-84zM364 223l-109 385l-110 -385h219zM347 790h-53l-80 141h82zM229 790h-53l-80 141h81z" />
    <glyph glyph-name="uni0201" unicode="&#x201;" horiz-adv-x="452" 
d="M306 294v36c0 87 -24 119 -90 119c-48 0 -74 -21 -91 -75l-64 19c21 80 72 118 157 118c69 0 117 -23 142 -66c15 -27 21 -63 21 -123v-322h-60l-5 35c-28 -33 -58 -44 -122 -44c-112 0 -154 40 -154 149c0 113 44 154 167 154h99zM306 236h-86c-78 0 -107 -26 -107 -96
c0 -64 24 -86 97 -86c74 0 96 22 96 98v84zM318 582h-53l-80 141h82zM200 582h-53l-80 141h81z" />
    <glyph glyph-name="uni0202" unicode="&#x202;" horiz-adv-x="508" 
d="M381 158h-253l-44 -158h-85l221 714h70l220 -714h-84zM364 223l-109 385l-110 -385h219zM376 795h-51c-6 58 -24 78 -70 78c-48 0 -66 -20 -71 -78h-51c2 47 5 64 15 83c18 36 51 52 106 52c60 0 94 -19 111 -60c6 -17 9 -33 11 -75z" />
    <glyph glyph-name="uni0203" unicode="&#x203;" horiz-adv-x="452" 
d="M306 294v36c0 87 -24 119 -90 119c-48 0 -74 -21 -91 -75l-64 19c21 80 72 118 157 118c69 0 117 -23 142 -66c15 -27 21 -63 21 -123v-322h-60l-5 35c-28 -33 -58 -44 -122 -44c-112 0 -154 40 -154 149c0 113 44 154 167 154h99zM306 236h-86c-78 0 -107 -26 -107 -96
c0 -64 24 -86 97 -86c74 0 96 22 96 98v84zM348 587h-51c-5 58 -24 78 -70 78c-48 0 -66 -20 -71 -78h-51c2 47 5 64 15 83c18 36 51 52 106 52c60 0 94 -19 111 -60c6 -17 9 -33 11 -75z" />
    <glyph glyph-name="uni1EBC" unicode="&#x1ebc;" horiz-adv-x="490" 
d="M88 0v714h353v-66h-275v-254h234v-66h-234v-262h277v-66h-355zM172 806h-47c17 83 38 111 84 111c24 0 42 -9 63 -32c23 -25 32 -32 44 -32c15 0 26 17 33 56h47c-6 -37 -11 -54 -18 -69c-13 -28 -34 -42 -63 -42c-26 0 -44 9 -66 33c-22 26 -29 31 -40 31
c-16 0 -30 -21 -37 -56z" />
    <glyph glyph-name="uni1EBD" unicode="&#x1ebd;" horiz-adv-x="466" 
d="M137 237v-42c0 -96 35 -141 107 -141c54 0 81 22 93 75l65 -14c-15 -86 -65 -124 -161 -124c-123 0 -179 68 -179 219v80c0 153 54 221 174 221c121 0 174 -67 174 -221v-53h-273zM137 295h201v21c0 89 -32 132 -100 132s-101 -43 -101 -132v-21zM144 598h-47
c17 83 38 110 84 110c24 0 42 -9 63 -31c23 -26 32 -32 44 -32c15 0 26 17 33 56h47c-7 -37 -11 -54 -18 -69c-13 -28 -34 -42 -63 -42c-26 0 -44 9 -66 33c-22 26 -29 31 -40 31c-16 0 -30 -21 -37 -56z" />
    <glyph glyph-name="uni0204.sc" horiz-adv-x="409" 
d="M68 0v535h292v-63h-216v-171h183v-63h-183v-175h217v-63h-293zM310 610h-53l-80 141h82zM192 610h-53l-80 141h81z" />
    <glyph glyph-name="uni0206.sc" horiz-adv-x="409" 
d="M79 0v535h290v-63h-214v-171h182v-63h-182v-175h216v-63h-292zM344 615h-51c-5 58 -24 78 -70 78c-48 0 -66 -20 -71 -78h-51c2 47 5 64 15 83c18 36 51 52 106 52c60 0 94 -19 111 -60c6 -17 9 -33 11 -75z" />
    <glyph glyph-name="uni0208.sc" horiz-adv-x="234" 
d="M79 0v534h76v-534h-76zM209 610h-53l-80 141h82zM91 610h-53l-80 141h81z" />
    <glyph glyph-name="uni020A.sc" horiz-adv-x="234" 
d="M79 0v534h76v-534h-76zM239 615h-51c-5 58 -24 78 -70 78c-48 0 -66 -20 -71 -78h-51c2 47 5 64 15 83c18 36 51 52 106 52c60 0 94 -19 111 -60c6 -17 9 -33 11 -75z" />
    <glyph glyph-name="uni020C.sc" horiz-adv-x="479" 
d="M56 186v162c0 134 54 195 175 195c120 0 174 -61 174 -195v-162c0 -134 -54 -195 -174 -195c-121 0 -175 61 -175 195zM329 192v150c0 96 -30 138 -98 138c-69 0 -99 -42 -99 -138v-150c0 -96 30 -138 99 -138c68 0 98 42 98 138zM324 610h-53l-80 141h82zM206 610h-53
l-80 141h81z" />
    <glyph glyph-name="uni020E.sc" horiz-adv-x="479" 
d="M64 186v162c0 134 54 195 175 195c120 0 174 -61 174 -195v-162c0 -134 -54 -195 -174 -195c-121 0 -175 61 -175 195zM337 192v150c0 96 -30 138 -98 138c-69 0 -99 -42 -99 -138v-150c0 -96 30 -138 99 -138c68 0 98 42 98 138zM360 615h-51c-5 58 -24 78 -70 78
c-48 0 -66 -20 -71 -78h-51c2 47 5 64 15 83c18 36 51 52 106 52c60 0 94 -19 111 -60c6 -17 9 -33 11 -75z" />
    <glyph glyph-name="uni0210.sc" horiz-adv-x="463" 
d="M156 227v-227h-76v535h157c119 0 170 -46 170 -152c0 -83 -27 -123 -97 -145l110 -238h-85l-97 227h-82zM155 286h83c64 0 92 29 92 94c0 64 -29 93 -94 93h-81v-187zM306 610h-53l-80 141h82zM188 610h-53l-80 141h81z" />
    <glyph glyph-name="uni0212.sc" horiz-adv-x="463" 
d="M156 226v-226h-76v535h157c118 0 169 -46 169 -152c0 -83 -28 -124 -97 -145l110 -238h-83l-99 226h-81zM155 286h82c65 0 93 29 93 94s-29 93 -95 93h-80v-187zM341 615h-51c-5 58 -24 78 -70 78c-48 0 -66 -20 -71 -78h-51c2 47 5 64 15 83c18 36 51 52 106 52
c60 0 94 -19 111 -60c6 -17 9 -33 11 -75z" />
    <glyph glyph-name="uni0214.sc" horiz-adv-x="493" 
d="M65 534h76v-361c0 -44 4 -64 15 -82c17 -26 40 -37 79 -37c41 0 66 13 81 43c9 16 12 37 12 76v361h76v-361c0 -69 -7 -98 -30 -127c-31 -39 -73 -55 -139 -55c-71 0 -117 20 -146 63c-18 27 -24 56 -24 119v361zM326 610h-53l-80 141h82zM208 610h-53l-80 141h81z" />
    <glyph glyph-name="uni0216.sc" horiz-adv-x="493" 
d="M76 534h76v-361c0 -44 4 -64 15 -82c17 -26 40 -37 79 -37c41 0 66 13 81 43c9 16 12 37 12 76v361h76v-361c0 -69 -7 -98 -30 -127c-31 -39 -73 -55 -139 -55c-71 0 -117 20 -146 63c-18 27 -24 56 -24 119v361zM367 615h-51c-5 58 -24 78 -70 78c-48 0 -66 -20 -71 -78
h-51c2 47 5 64 15 83c18 36 51 52 106 52c60 0 94 -19 111 -60c6 -17 9 -33 11 -75z" />
    <glyph glyph-name="uni1E24.sc" horiz-adv-x="490" 
d="M79 0v534h76v-233h180v233h76v-534h-76v238h-180v-238h-76zM208 -193v102h73v-102h-73z" />
    <glyph glyph-name="uni1E5A.sc" horiz-adv-x="463" 
d="M156 226v-226h-76v535h157c118 0 169 -46 169 -152c0 -83 -28 -124 -97 -145l110 -238h-83l-99 226h-81zM155 286h82c65 0 93 29 93 94s-29 93 -95 93h-80v-187zM206 -193v102h73v-102h-73z" />
    <glyph glyph-name="uni1E62.sc" horiz-adv-x="405" 
d="M30 116l68 18c12 -55 44 -80 101 -80c62 0 95 32 95 92c0 28 -9 50 -26 64c-17 13 -18 13 -84 32c-98 27 -137 70 -137 152c0 94 56 149 154 149c84 0 131 -35 151 -115l-66 -19c-19 53 -40 71 -85 71c-50 0 -79 -31 -79 -83c0 -50 26 -75 101 -96c65 -18 77 -23 100 -40
c31 -23 46 -60 46 -112c0 -103 -58 -158 -167 -158c-100 0 -153 39 -172 125zM163 -193v102h73v-102h-73z" />
    <glyph glyph-name="uni1E6C.sc" horiz-adv-x="362" 
d="M143 0v472h-130v63h335v-63h-129v-472h-76zM144 -193v102h73v-102h-73z" />
    <glyph glyph-name="uni1E92.sc" horiz-adv-x="373" 
d="M30 0v48l211 424h-197v63h283v-48l-211 -424h221v-63h-307zM153 -193v102h73v-102h-73z" />
    <glyph glyph-name="uni1E44.sc" horiz-adv-x="514" 
d="M79 0v534h73l210 -394v394h73v-534h-67l-216 401v-401h-73zM226 618v102h73v-102h-73z" />
    <glyph glyph-name="uni1E0C.sc" horiz-adv-x="482" 
d="M79 0v535h153c127 3 188 -59 184 -187v-161c3 -128 -57 -189 -184 -187h-153zM155 62h72c81 -1 113 35 113 132v147c0 97 -32 133 -113 132h-72v-411zM183 -193v102h73v-102h-73z" />
    <glyph glyph-name="uni1E02.sc" horiz-adv-x="459" 
d="M79 0v535h171c60 0 91 -9 116 -33c26 -24 40 -63 40 -108c0 -55 -15 -87 -55 -115c47 -30 65 -68 65 -134c0 -51 -16 -92 -45 -116c-25 -21 -53 -29 -106 -29h-186zM154 304h97c52 0 79 29 79 85c0 58 -26 85 -82 85h-94v-170zM154 61h102c58 0 84 28 84 90
c0 63 -27 94 -80 94h-106v-184zM180 618v102h73v-102h-73z" />
    <glyph glyph-name="Dcroat" unicode="&#x110;" horiz-adv-x="573" 
d="M88 394v320h190c150 3 225 -78 222 -237v-240c4 -159 -72 -240 -222 -237h-190v329h-69v65h69zM166 394h135v-65h-135v-264h105c106 -2 151 53 151 183v219c0 129 -45 184 -151 182h-105v-255z" />
    <glyph glyph-name="idotaccent" horiz-adv-x="224" 
d="M75 613v104h75v-104h-75zM75 0v502h75v-502h-75z" />
    <glyph glyph-name="uni0237" unicode="&#x237;" horiz-adv-x="229" 
d="M79 502h75v-516c4 -162 -42 -217 -177 -216v64c75 -4 104 38 102 144v524z" />
    <glyph glyph-name="dcroat" unicode="&#x111;" horiz-adv-x="482" 
d="M333 574h-126v54h126v86h75v-86h67v-54h-67v-574h-59l-5 40l-4 -4c-30 -32 -63 -45 -118 -45c-110 0 -160 65 -160 210v106c0 139 50 204 157 204c54 0 81 -10 114 -44v107zM136 306v-105c0 -98 31 -146 96 -146c68 0 101 51 101 156v80c0 105 -33 156 -101 156
c-64 0 -96 -46 -96 -141z" />
    <glyph glyph-name="Euro" unicode="&#x20ac;" 
d="M75 294v75h-77l18 48h59v49c0 94 12 148 42 189c34 45 82 67 148 67c116 0 177 -64 182 -188l-72 -3c-6 85 -41 126 -109 126c-79 0 -113 -57 -113 -193v-47h242l-18 -48h-224v-75h197l-19 -48h-177c0 -51 3 -79 10 -107c14 -55 51 -84 108 -84c68 0 108 41 112 115
l70 -5c-5 -113 -71 -175 -185 -175c-87 0 -148 40 -174 114c-14 38 -19 74 -20 142h-77l18 48h59z" />
    <glyph glyph-name="peseta" unicode="&#x20a7;" 
d="M90 471h-78v48h78v195h137c130 4 198 -61 205 -195h63v-48h-63c-7 -138 -73 -202 -205 -199h-61v-272h-76v471zM165 471v-136h64c80 -3 121 41 128 136h-192zM165 519h191c-5 91 -47 135 -126 132h-65v-132z" />
    <glyph glyph-name="lira" unicode="&#x20a4;" 
d="M53 0v57c57 24 100 97 100 172c0 7 0 13 -1 24h-105v48h96c-6 21 -16 46 -27 69h-69v48h49c-18 42 -26 77 -26 117c0 120 66 188 181 188s173 -59 186 -190l-68 -12c-12 99 -45 138 -117 138c-65 0 -104 -46 -104 -124c0 -37 9 -69 31 -117h171v-48h-148
c11 -29 16 -44 21 -69h127v-48h-125c2 -13 2 -20 2 -27c0 -58 -23 -114 -66 -160h287v-66h-395z" />
    <glyph glyph-name="uni20B4" unicode="&#x20b4;" 
d="M20 328l13 47l88 -27c11 8 29 16 76 34c23 9 32 13 40 18l-187 56l13 46l230 -69c33 29 48 62 48 110c0 75 -36 117 -100 117c-49 0 -80 -24 -96 -74l-66 17c22 80 77 120 164 120c109 0 172 -67 172 -184c0 -56 -12 -93 -41 -131l73 -22l-13 -46l-97 30
c-10 -8 -26 -16 -58 -30c-8 -3 -18 -7 -30 -11l-21 -8l-8 -3l196 -59l-12 -46l-241 72c-25 -24 -37 -57 -37 -102c0 -86 39 -129 115 -129c67 0 110 28 123 81l67 -14c-20 -87 -84 -130 -192 -130c-122 0 -187 69 -187 197c0 51 8 78 34 121z" />
    <glyph glyph-name="franc" unicode="&#x20a3;" horiz-adv-x="649" 
d="M78 0v714h300v-66h-224v-260h183v-66h-183v-322h-76zM398 0v437h57l9 -62c27 52 54 71 102 71c28 0 51 -7 79 -23l-32 -62c-21 17 -35 23 -55 23c-61 0 -87 -61 -87 -203v-181h-73z" />
    <glyph glyph-name="one.fitted" horiz-adv-x="303" 
d="M125 0v630l-104 -51l-27 60l155 75h54v-714h-78z" />
    <glyph glyph-name="two.fitted" horiz-adv-x="433" 
d="M19 0v53l175 254c27 40 64 105 78 141c12 31 18 62 18 96c0 76 -30 114 -91 114c-59 0 -94 -43 -102 -121l-71 3c6 119 67 183 175 183s167 -63 167 -180c0 -89 -21 -138 -122 -288l-129 -189h253v-66h-351z" />
    <glyph glyph-name="three.fitted" horiz-adv-x="421" 
d="M113 344v63h55c69 0 113 49 113 126c0 81 -35 125 -99 125c-57 0 -91 -37 -99 -108l-71 4c7 111 67 169 174 169c112 0 173 -66 173 -187c0 -80 -27 -128 -89 -160c74 -34 105 -89 105 -184c0 -132 -65 -201 -189 -201c-76 0 -133 28 -164 81c-15 26 -21 50 -24 96l73 5
c6 -77 44 -117 112 -117c74 0 114 48 114 137c0 91 -49 151 -124 151h-60z" />
    <glyph glyph-name="four.fitted" horiz-adv-x="468" 
d="M290 0v133h-254v49l200 532h81l-194 -516h167v217h72v-217h62v-66h-62v-132h-72z" />
    <glyph glyph-name="five.fitted" horiz-adv-x="467" 
d="M68 345l27 369h290v-66h-224l-18 -233c45 24 57 27 94 27c115 0 167 -69 167 -222c0 -81 -12 -132 -40 -169c-30 -38 -82 -60 -146 -60c-73 0 -128 28 -158 81c-14 26 -20 51 -23 96l73 5c5 -76 43 -117 107 -117c74 0 109 51 109 158c0 118 -29 165 -102 165
c-39 0 -70 -14 -100 -45z" />
    <glyph glyph-name="six.fitted" horiz-adv-x="471" 
d="M337 714l-139 -289c3 1 6 2 7 3c8 2 16 5 23 8c8 3 19 4 34 4c54 0 99 -24 124 -66c20 -33 29 -81 29 -157c0 -90 -12 -139 -42 -173c-31 -34 -78 -53 -134 -53c-62 0 -113 22 -142 62c-25 32 -35 80 -35 159c0 83 8 114 47 200l141 302h87zM241 379
c-72 0 -102 -48 -102 -167c0 -110 29 -157 100 -157c70 0 99 47 99 161c0 115 -28 163 -97 163z" />
    <glyph glyph-name="seven.fitted" horiz-adv-x="340" 
d="M41 0l186 648h-239v66h319v-47l-183 -667h-83z" />
    <glyph glyph-name="eight.fitted" horiz-adv-x="484" 
d="M145 378c-53 31 -71 72 -71 157c0 129 52 188 168 188s168 -59 168 -189c0 -83 -20 -127 -70 -156c63 -28 88 -78 88 -180c0 -76 -13 -124 -43 -156c-33 -35 -77 -51 -143 -51c-69 0 -117 19 -149 60c-25 30 -36 77 -36 147c0 102 24 152 88 180zM243 662
c-69 0 -96 -36 -96 -129c0 -92 27 -130 95 -130c67 0 95 38 95 130c0 91 -28 129 -94 129zM244 343c-79 0 -110 -41 -110 -144s31 -144 108 -144c78 0 109 42 109 144c0 101 -32 144 -107 144z" />
    <glyph glyph-name="nine.fitted" horiz-adv-x="471" 
d="M129 0l148 319c-26 -12 -46 -16 -71 -16c-52 0 -96 22 -121 61c-20 31 -29 76 -29 147c0 84 12 131 43 163c30 32 77 49 133 49c62 0 112 -21 142 -58c24 -31 35 -75 35 -148c0 -76 -7 -109 -40 -180l-154 -337h-86zM234 659c-72 0 -101 -42 -101 -147
c0 -106 29 -149 99 -149s100 46 100 153c0 99 -30 143 -98 143z" />
    <glyph glyph-name="zero.fitted" horiz-adv-x="492" 
d="M66 232v250c0 165 57 241 180 241c124 0 181 -76 181 -241v-250c0 -165 -57 -241 -181 -241c-123 0 -180 76 -180 241zM350 240v234c0 129 -31 184 -104 184c-72 0 -103 -55 -103 -184v-234c0 -129 31 -184 103 -184c73 0 104 55 104 184z" />
    <glyph glyph-name="sterling.fitted" horiz-adv-x="477" 
d="M54 0v57c60 25 101 95 101 172c0 26 -4 50 -13 77h-90v66h64c-38 83 -45 108 -45 162c0 120 65 189 178 189c71 0 122 -25 154 -75c20 -30 28 -55 35 -115l-68 -13c-8 53 -11 64 -24 86c-20 35 -51 53 -93 53c-65 0 -104 -47 -104 -124c0 -47 6 -66 51 -163h149v-66h-130
c7 -28 10 -48 10 -71c0 -67 -24 -126 -67 -169h287v-66h-395z" />
    <glyph glyph-name="dollar.fitted" horiz-adv-x="473" 
d="M30 158l66 21c12 -68 62 -107 136 -107c83 0 128 43 128 125c0 40 -12 72 -35 92c-22 19 -25 20 -109 44c-120 36 -170 93 -170 196c0 67 26 121 72 150c21 14 43 20 82 25v108h75v-111c69 -9 118 -55 134 -126l-65 -21c-15 58 -54 88 -114 88c-70 0 -109 -39 -109 -109
s35 -105 134 -134c80 -24 96 -31 124 -53c37 -31 56 -79 56 -142c0 -114 -54 -178 -160 -192v-144h-75v142c-95 10 -153 61 -170 148z" />
    <glyph glyph-name="cent.fitted" horiz-adv-x="448" 
d="M207 38v113c-93 12 -139 82 -138 209v86c-1 135 42 202 138 216v108h75v-109c59 -9 101 -54 110 -117l-62 -17c-17 60 -37 78 -87 78c-70 0 -101 -47 -101 -154v-97c0 -99 33 -146 102 -146c51 0 84 29 94 81l61 -17c-11 -65 -57 -112 -117 -120v-114h-75z" />
    <glyph glyph-name="Euro.fitted" horiz-adv-x="475" 
d="M75 294v75h-77l18 48h59v49c0 94 12 148 42 189c34 45 82 67 148 67c116 0 177 -64 182 -188l-72 -3c-6 85 -41 126 -109 126c-79 0 -113 -57 -113 -193v-47h242l-18 -48h-224v-75h197l-19 -48h-177c1 -52 4 -79 11 -107c14 -55 51 -84 107 -84c68 0 109 41 112 115
l70 -5c-5 -113 -71 -175 -185 -175c-87 0 -148 40 -174 114c-14 38 -19 74 -20 142h-77l18 48h59z" />
    <glyph glyph-name="yen.fitted" 
d="M201 0v152h-134v48h134v68h-134v48h114l-169 398h82l146 -362l147 362h82l-170 -398h115v-48h-135v-68h135v-48h-135v-152h-78z" />
    <glyph glyph-name="one.numerator" horiz-adv-x="307" 
d="M131 286v364l-66 -30l-21 48l106 46h43v-428h-62z" />
    <glyph glyph-name="two.numerator" horiz-adv-x="307" 
d="M30 286v41l112 148c39 51 59 94 59 129c0 42 -19 65 -55 65c-34 0 -53 -23 -60 -71l-58 4c7 81 44 117 121 117c76 0 115 -39 115 -115c0 -55 -14 -86 -77 -168l-74 -99h150v-51h-233z" />
    <glyph glyph-name="three.numerator" horiz-adv-x="307" 
d="M95 488v46h38c41 0 69 27 69 69c0 41 -22 66 -58 66c-34 0 -52 -18 -58 -61l-57 4c7 74 43 107 118 107c77 0 117 -39 117 -114c0 -46 -14 -72 -47 -93c40 -22 57 -54 57 -108c0 -82 -42 -123 -126 -123c-54 0 -93 18 -112 50c-9 15 -13 31 -15 61l58 6
c4 -46 25 -67 66 -67c43 0 67 26 67 73c0 51 -30 84 -75 84h-42z" />
    <glyph glyph-name="four.numerator" horiz-adv-x="307" 
d="M189 286v79h-166v38l128 311h64l-122 -299h96v108h55v-108h39v-50h-39v-79h-55z" />
    <glyph glyph-name="five.numerator" horiz-adv-x="307" 
d="M46 488l18 226h198v-51h-145l-10 -120c21 9 34 12 55 12c78 0 112 -41 112 -137c0 -95 -38 -137 -125 -137c-80 0 -118 35 -122 111l58 6c4 -45 25 -67 64 -67c42 0 64 28 64 84c0 64 -18 92 -59 92c-23 0 -46 -10 -61 -28z" />
    <glyph glyph-name="six.numerator" horiz-adv-x="307" 
d="M230 714l-88 -164c14 3 22 4 32 4c33 0 64 -15 81 -40c13 -20 19 -49 19 -95c0 -98 -35 -138 -120 -138c-43 0 -77 13 -97 37c-16 20 -23 48 -23 97c0 52 4 68 31 120l93 179h72zM155 507c-42 0 -61 -28 -61 -91c0 -61 18 -87 60 -87s60 26 60 89c0 62 -18 89 -59 89z
" />
    <glyph glyph-name="seven.numerator" horiz-adv-x="307" 
d="M69 286l130 377h-161v51h227v-37l-128 -391h-68z" />
    <glyph glyph-name="eight.numerator" horiz-adv-x="307" 
d="M76 513c-27 18 -37 42 -37 91c0 81 34 116 115 116c80 0 114 -35 114 -116c0 -49 -10 -72 -37 -91c36 -20 48 -47 48 -107c0 -89 -37 -126 -126 -126c-88 0 -125 37 -125 125c0 60 12 88 48 108zM154 674c-41 0 -58 -21 -58 -71c0 -51 17 -72 58 -72c40 0 57 21 57 72
c0 49 -17 71 -57 71zM154 486c-47 0 -66 -23 -66 -79s19 -79 65 -79c47 0 66 23 66 79c0 55 -19 79 -65 79z" />
    <glyph glyph-name="nine.numerator" horiz-adv-x="307" 
d="M75 286l93 180c-15 -3 -22 -4 -33 -4c-71 0 -102 39 -102 127c0 92 35 130 120 130c84 0 120 -37 120 -125c0 -50 -4 -65 -27 -110l-99 -198h-72zM154 671c-43 0 -61 -24 -61 -81s18 -82 60 -82c41 0 60 26 60 84c0 54 -18 79 -59 79z" />
    <glyph glyph-name="zero.numerator" horiz-adv-x="307" 
d="M31 429v142c0 104 37 148 122 148c86 0 123 -44 123 -148v-142c0 -104 -37 -148 -123 -148c-85 0 -122 44 -122 148zM215 432v136c0 71 -19 102 -62 102c-42 0 -61 -31 -61 -102v-136c0 -71 19 -102 61 -102c43 0 62 31 62 102z" />
    <glyph glyph-name="one.denominator" horiz-adv-x="307" 
d="M131 0v364l-66 -30l-21 48l106 46h43v-428h-62z" />
    <glyph glyph-name="two.denominator" horiz-adv-x="307" 
d="M30 0v41l112 148c39 51 59 94 59 129c0 42 -20 65 -55 65c-34 0 -53 -23 -60 -71l-58 4c8 81 45 117 121 117s115 -39 115 -115c0 -55 -14 -85 -77 -168l-74 -99h150v-51h-233z" />
    <glyph glyph-name="three.denominator" horiz-adv-x="307" 
d="M95 202v46h38c41 0 69 27 69 69c0 41 -22 66 -58 66c-34 0 -52 -18 -58 -61l-57 4c7 74 43 107 118 107c77 0 117 -39 117 -114c0 -46 -14 -72 -47 -93c40 -22 57 -54 57 -108c0 -82 -42 -123 -126 -123c-54 0 -93 18 -112 50c-9 14 -13 31 -15 61l58 6
c4 -46 25 -67 66 -67c43 0 67 26 67 73c0 51 -30 84 -75 84h-42z" />
    <glyph glyph-name="four.denominator" horiz-adv-x="307" 
d="M189 0v80h-166v38l128 310h64l-122 -298h96v107h55v-107h39v-51h-39v-79h-55z" />
    <glyph glyph-name="five.denominator" horiz-adv-x="307" 
d="M46 202l18 226h198v-51h-145l-10 -120c22 9 34 12 55 12c78 0 112 -41 112 -137s-38 -137 -125 -137c-80 0 -118 35 -122 111l58 6c4 -45 25 -67 64 -67c42 0 64 28 64 84c0 64 -18 92 -59 92c-23 0 -45 -10 -61 -28z" />
    <glyph glyph-name="six.denominator" horiz-adv-x="307" 
d="M230 428l-88 -164c14 3 22 4 32 4c33 0 64 -15 81 -40c13 -20 19 -49 19 -95c0 -98 -35 -138 -120 -138c-43 0 -77 13 -97 37c-16 20 -23 48 -23 97c0 52 4 67 31 120l93 179h72zM155 221c-42 0 -61 -28 -61 -91c0 -61 18 -87 60 -87s60 26 60 89c0 62 -18 89 -59 89z
" />
    <glyph glyph-name="seven.denominator" horiz-adv-x="307" 
d="M69 0l130 377h-161v51h227v-37l-128 -391h-68z" />
    <glyph glyph-name="eight.denominator" horiz-adv-x="307" 
d="M76 227c-27 18 -37 42 -37 91c0 81 34 116 115 116c80 0 114 -35 114 -116c0 -49 -10 -72 -37 -91c35 -19 48 -48 48 -107c0 -89 -37 -126 -126 -126c-88 0 -125 37 -125 125c0 60 13 89 48 108zM154 388c-41 0 -58 -21 -58 -71c0 -51 17 -72 58 -72c40 0 57 21 57 72
c0 49 -17 71 -57 71zM154 200c-47 0 -66 -23 -66 -79s19 -79 65 -79c47 0 66 23 66 79c0 55 -19 79 -65 79z" />
    <glyph glyph-name="nine.denominator" horiz-adv-x="307" 
d="M75 0l93 180c-15 -3 -22 -4 -33 -4c-70 0 -102 39 -102 127c0 92 35 130 120 130c84 0 120 -37 120 -125c0 -50 -3 -64 -27 -110l-99 -198h-72zM154 385c-43 0 -61 -24 -61 -81c0 -58 18 -82 60 -82s60 26 60 84c0 54 -18 79 -59 79z" />
    <glyph glyph-name="zero.denominator" horiz-adv-x="307" 
d="M31 143v142c0 104 37 148 122 148c86 0 123 -44 123 -148v-142c0 -104 -37 -148 -123 -148c-85 0 -122 44 -122 148zM215 146v136c0 71 -19 102 -62 102c-42 0 -61 -31 -61 -102v-136c0 -71 19 -102 61 -102c43 0 62 31 62 102z" />
    <glyph glyph-name="uni0387" unicode="&#x387;" horiz-adv-x="238" 
d="M80 315v96h78v-96h-78z" />
    <glyph glyph-name="dotmath" unicode="&#x22c5;" horiz-adv-x="238" 
d="M80 315v96h78v-96h-78z" />
    <glyph glyph-name="uni2219" unicode="&#x2219;" horiz-adv-x="238" 
d="M80 315v96h78v-96h-78z" />
    <glyph glyph-name="uni037E" unicode="&#x37e;" horiz-adv-x="238" 
d="M45 -188l40 284h83l-57 -284h-66zM87 405v97h78v-97h-78z" />
    <glyph glyph-name="afii57929" unicode="&#x2bc;" horiz-adv-x="161" 
d="M26 478l30 236h79l-47 -236h-62z" />
    <glyph glyph-name="uni00AD" unicode="&#xad;" horiz-adv-x="396" 
d="M78 331v66h240v-66h-240z" />
    <glyph glyph-name="uni2011" unicode="&#x2011;" horiz-adv-x="396" 
d="M78 331v66h240v-66h-240z" />
    <glyph glyph-name="afii00208" unicode="&#x2015;" 
d="M15 331v66h450v-66h-450z" />
    <glyph glyph-name="afii61248" unicode="&#x2105;" horiz-adv-x="772" 
d="M253 406l47 -28c-26 -44 -69 -66 -126 -66c-96 0 -144 60 -144 176v49c0 123 47 183 142 183c57 0 96 -21 122 -67l-48 -27c-18 30 -39 42 -72 42c-56 0 -82 -42 -82 -133v-45c0 -84 28 -126 85 -126c34 0 58 13 76 42zM445 159v77c0 113 47 166 149 166
c101 0 148 -53 148 -166v-77c0 -112 -47 -165 -148 -165c-102 0 -149 53 -149 165zM680 162v72c0 80 -27 117 -86 117s-87 -37 -87 -117v-72c0 -80 28 -117 87 -117c58 0 86 37 86 117zM252 0l188 714h63l-188 -714h-63z" />
    <glyph glyph-name="uni2101" unicode="&#x2101;" horiz-adv-x="744" 
d="M334 301l109 413h63l-188 -714h-63l75 286h-56l-28 88h-159l-27 -88h-66l147 428h51zM233 420l-66 215l-66 -215h132zM447 63l50 29c17 -32 45 -47 85 -47c48 0 76 26 76 71c0 21 -7 38 -21 49c-13 11 -16 12 -66 27c-77 22 -108 57 -108 121c0 76 46 120 125 120
c54 0 95 -20 117 -59l-49 -30c-15 26 -38 39 -69 39c-40 0 -63 -24 -63 -64s22 -60 80 -77c51 -14 60 -18 78 -32c25 -20 37 -50 37 -92c0 -80 -47 -123 -133 -123c-70 0 -114 21 -139 68z" />
    <glyph glyph-name="oneone" horiz-adv-x="765" 
d="M143 286v364l-66 -30l-21 48l106 46h43v-428h-62zM221 0l189 714h70l-189 -714h-70zM561 0v364l-66 -30l-21 48l106 46h43v-428h-62z" />
    <glyph glyph-name="uni2155" unicode="&#x2155;" horiz-adv-x="765" 
d="M138 286v364l-66 -30l-21 48l106 46h43v-428h-62zM211 0l189 714h70l-189 -714h-70zM469 202l17 226h198v-51h-144l-11 -120c22 9 34 12 56 12c77 0 111 -41 111 -136c0 -96 -38 -138 -125 -138c-79 0 -118 36 -122 111l58 6c4 -45 25 -67 63 -67c43 0 64 28 64 83
c0 65 -18 93 -59 93c-22 0 -45 -10 -60 -28z" />
    <glyph glyph-name="uni2156" unicode="&#x2156;" horiz-adv-x="765" 
d="M38 286v41l112 148c39 51 59 94 59 129c0 42 -19 65 -55 65c-34 0 -53 -23 -60 -71l-58 4c7 81 44 117 121 117c76 0 115 -39 115 -115c0 -55 -14 -86 -77 -168l-74 -99h150v-51h-233zM494 202l18 226h198v-51h-144l-11 -120c22 9 34 12 55 12c78 0 112 -41 112 -136
c0 -97 -38 -138 -125 -138c-80 0 -118 35 -122 111l58 6c4 -45 25 -67 63 -67c43 0 64 28 64 84c0 64 -18 92 -59 92c-22 0 -45 -10 -60 -28zM255 0l189 714h70l-189 -714h-70z" />
    <glyph glyph-name="uni2157" unicode="&#x2157;" horiz-adv-x="765" 
d="M105 488v46h38c41 0 69 27 69 69c0 41 -22 66 -58 66c-34 0 -52 -18 -58 -61l-57 4c7 74 43 107 118 107c77 0 117 -39 117 -114c0 -46 -14 -72 -47 -93c40 -22 57 -54 57 -108c0 -82 -42 -123 -126 -123c-54 0 -93 18 -112 50c-9 15 -13 31 -15 61l58 6
c4 -46 25 -67 66 -67c43 0 67 26 67 73c0 51 -30 84 -75 84h-42zM495 202l18 226h198v-51h-145l-10 -120c21 9 34 12 55 12c78 0 112 -41 112 -136c0 -97 -38 -138 -125 -138c-80 0 -118 35 -122 111l58 6c4 -45 25 -67 64 -67c42 0 64 28 64 83c0 65 -18 93 -59 93
c-23 0 -45 -10 -61 -28zM256 0l189 714h70l-189 -714h-70z" />
    <glyph glyph-name="uni2158" unicode="&#x2158;" horiz-adv-x="765" 
d="M198 286v79h-166v38l128 311h64l-122 -299h96v108h55v-108h39v-50h-39v-79h-55zM496 202l18 226h197v-51h-144l-10 -120c21 9 33 12 55 12c77 0 111 -41 111 -136c0 -97 -38 -138 -125 -138c-79 0 -118 36 -122 111l58 6c4 -45 25 -67 64 -67c42 0 63 28 63 84
c0 64 -18 92 -59 92c-22 0 -44 -10 -60 -28zM259 0l188 714h70l-188 -714h-70z" />
    <glyph glyph-name="uni2159" unicode="&#x2159;" horiz-adv-x="765" 
d="M140 286v364l-66 -30l-21 48l106 46h43v-428h-62zM222 0l188 714h70l-188 -714h-70zM644 428l-88 -164c14 3 22 4 31 4c34 0 65 -15 82 -40c13 -20 19 -50 19 -95c0 -97 -36 -138 -120 -138c-43 0 -77 13 -97 37c-16 20 -23 49 -23 98c0 51 4 67 31 119l93 179h72z
M569 221c-42 0 -60 -28 -60 -91c0 -61 18 -87 59 -87s59 26 59 88c0 63 -18 90 -58 90z" />
    <glyph glyph-name="uni215A" unicode="&#x215a;" horiz-adv-x="765" 
d="M54 488l18 226h198v-51h-145l-10 -120c21 9 34 12 55 12c78 0 112 -41 112 -137c0 -95 -38 -137 -125 -137c-80 0 -118 35 -122 111l58 6c4 -45 25 -67 64 -67c42 0 64 28 64 84c0 64 -18 92 -59 92c-23 0 -46 -10 -61 -28zM665 428l-88 -164c15 3 23 4 32 4
c33 0 64 -15 80 -40c14 -20 20 -49 20 -95c0 -98 -35 -138 -120 -138c-43 0 -77 13 -97 37c-17 20 -23 48 -23 97c0 52 3 66 32 120l92 179h72zM590 221c-43 0 -61 -28 -61 -91c0 -61 18 -87 60 -87s60 26 60 88c0 63 -18 90 -59 90zM260 0l188 714h70l-188 -714h-70z" />
    <glyph glyph-name="uni2215" unicode="&#x2215;" horiz-adv-x="139" 
d="M-53 0l189 714h70l-189 -714h-70z" />
    <glyph glyph-name="Dieresis" unicode="&#xf6cb;" horiz-adv-x="500" 
d="M132 798v102h68v-102h-68zM299 798v102h68v-102h-68z" />
    <glyph glyph-name="Dotaccent" horiz-adv-x="500" 
d="M213 798v102h73v-102h-73z" />
    <glyph glyph-name="Ring" horiz-adv-x="500" 
d="M251 983c58 0 97 -40 97 -100s-40 -101 -98 -101c-59 0 -99 41 -99 101c0 61 39 100 100 100zM250 943c-31 0 -48 -21 -48 -61c0 -38 17 -60 47 -60c31 0 48 22 48 61c0 38 -17 60 -47 60z" />
    <glyph glyph-name="Acute" unicode="&#xf6c9;" horiz-adv-x="500" 
d="M205 790l64 141h89l-97 -141h-56z" />
    <glyph glyph-name="Grave" unicode="&#xf6ce;" horiz-adv-x="500" 
d="M297 790h-56l-97 141h89z" />
    <glyph glyph-name="Circumflex" horiz-adv-x="500" 
d="M249 876l-55 -81h-77l108 132h49l108 -132h-77z" />
    <glyph glyph-name="Caron" unicode="&#xf6ca;" horiz-adv-x="500" 
d="M250 844l55 81h77l-108 -131h-49l-108 131h77z" />
    <glyph glyph-name="Breve" horiz-adv-x="500" 
d="M129 922h51c5 -58 23 -78 70 -78c48 0 65 20 71 78h51c-2 -47 -5 -64 -15 -83c-18 -36 -51 -52 -107 -52c-59 0 -93 19 -110 60c-7 17 -9 33 -11 75z" />
    <glyph glyph-name="Tilde" horiz-adv-x="500" 
d="M161 806h-47c17 83 38 111 84 111c24 0 42 -9 63 -32c23 -25 32 -32 44 -32c15 0 26 17 33 56h47c-6 -37 -11 -54 -18 -69c-13 -28 -34 -42 -63 -42c-26 0 -44 9 -66 33c-22 26 -29 31 -40 31c-16 0 -30 -21 -37 -56z" />
    <glyph glyph-name="Hungarumlaut" unicode="&#xf6cf;" horiz-adv-x="500" 
d="M158 790l51 141h82l-80 -141h-53zM276 790l51 141h82l-80 -141h-53z" />
    <glyph glyph-name="Cedilla" horiz-adv-x="500" 
d="M193 -220l44 150h76l-68 -150h-52z" />
    <glyph glyph-name="uni02C0" unicode="&#x2c0;" horiz-adv-x="500" 
d="M281 779h-55c0 39 2 46 18 69c17 26 19 30 19 41c0 16 -11 24 -31 24c-14 0 -27 -4 -47 -13l-15 46c30 11 48 15 73 15c53 0 83 -25 83 -68c0 -21 -5 -32 -28 -61c-16 -21 -17 -25 -17 -53z" />
    <glyph glyph-name="Ogonek" horiz-adv-x="500" 
d="M285 0h64c-61 -43 -83 -71 -83 -106c0 -27 14 -39 45 -39c17 0 28 2 49 9l8 -44c-26 -10 -45 -13 -73 -13c-64 0 -97 25 -97 74c0 46 30 87 87 119z" />
    <glyph glyph-name="Macron" unicode="&#xf6d0;" horiz-adv-x="500" 
d="M138 829v55h224v-55h-224z" />
    <glyph glyph-name="Commaaccent" horiz-adv-x="500" 
d="M193 -220l44 150h76l-68 -150h-52z" />
    <glyph glyph-name="Comma.high" horiz-adv-x="103" 
d="M1 496l23 225h75l-46 -225h-52z" />
    <glyph glyph-name="Croatumlaut" horiz-adv-x="500" 
d="M342 790h-53l-80 141h82zM224 790h-53l-80 141h81z" />
    <glyph glyph-name="Croatbreve" horiz-adv-x="500" 
d="M372 795h-51c-6 58 -24 78 -70 78c-48 0 -66 -20 -71 -78h-51c2 47 5 64 15 83c18 36 51 52 106 52c60 0 94 -19 111 -60c6 -17 9 -33 11 -75z" />
    <glyph glyph-name="Cicumflexacute" horiz-adv-x="500" 
d="M249 876l-55 -81h-77l108 132h49l108 -132h-77zM343 846l64 141h84l-97 -141h-51z" />
    <glyph glyph-name="Ringacute" horiz-adv-x="500" 
d="M251 876c58 0 97 -40 97 -99c0 -60 -40 -101 -99 -101c-58 0 -98 41 -98 101s39 99 100 99zM250 836c-31 0 -48 -21 -48 -60c0 -38 17 -60 47 -60c31 0 48 22 48 60s-17 60 -47 60zM213 896l49 117h94l-94 -117h-49z" />
    <glyph glyph-name="uni0309" unicode="&#x309;" horiz-adv-x="500" 
d="M281 575h-55c0 39 2 46 18 69c17 26 19 31 19 41c0 16 -11 24 -31 24c-14 0 -26 -3 -47 -13l-15 47c30 11 48 14 74 14c52 0 82 -24 82 -68c0 -21 -5 -31 -28 -61c-16 -20 -17 -25 -17 -53z" />
    <glyph glyph-name="uni02C9" unicode="&#x2c9;" horiz-adv-x="500" 
d="M138 620v55h224v-55h-224z" />
    <glyph glyph-name="uni0323" unicode="&#x323;" horiz-adv-x="500" 
d="M213 -193v102h73v-102h-73z" />
    <glyph glyph-name="commaaccent" unicode="&#xf6c3;" horiz-adv-x="500" 
d="M193 -220l44 150h76l-68 -150h-52z" />
    <glyph glyph-name="uni0313" unicode="&#x313;" horiz-adv-x="68" 
d="M-9 496l23 225h75l-46 -225h-52z" />
    <glyph glyph-name="uni031B" unicode="&#x31b;" horiz-adv-x="68" 
d="M-9 496l23 225h75l-46 -225h-52z" />
    <glyph glyph-name="croatumlaut" horiz-adv-x="500" 
d="M342 582h-53l-80 141h82zM224 582h-53l-80 141h81z" />
    <glyph glyph-name="croatbreve" horiz-adv-x="500" 
d="M372 587h-51c-5 58 -24 78 -70 78c-48 0 -66 -20 -71 -78h-51c2 47 5 64 15 83c18 36 51 52 106 52c60 0 94 -19 111 -60c6 -17 9 -33 11 -75z" />
    <glyph glyph-name="cicumflexacute" horiz-adv-x="500" 
d="M249 667l-55 -81h-77l108 132h49l108 -132h-77zM343 637l64 141h84l-97 -141h-51z" />
    <glyph glyph-name="ringacute" horiz-adv-x="500" 
d="M251 774c58 0 97 -40 97 -99c0 -60 -40 -101 -98 -101c-59 0 -99 41 -99 101s39 99 100 99zM250 734c-31 0 -48 -21 -48 -60c0 -38 17 -60 47 -60c31 0 48 22 48 60s-17 60 -47 60zM213 794l49 117h94l-94 -117h-49z" />
    <glyph glyph-name="uni0312" unicode="&#x312;" horiz-adv-x="500" 
d="M205 582l97 141h56l-64 -141h-89z" />
    <glyph glyph-name="uni01EA" unicode="&#x1ea;" horiz-adv-x="572" 
d="M502 477v-240c2 -123 -36 -197 -119 -232c-55 -41 -77 -74 -77 -111c0 -27 13 -39 45 -39c17 0 28 2 49 9l8 -44c-27 -10 -45 -13 -73 -13c-65 0 -97 25 -97 74c0 43 15 71 60 110h-5h-9c-139 2 -211 86 -207 246v240c0 87 14 139 48 179c38 46 90 67 165 67
c80 0 136 -25 173 -78c28 -39 39 -88 39 -168zM424 245v224c0 131 -41 189 -135 189c-93 0 -134 -58 -134 -189v-224c0 -130 41 -188 134 -188c94 0 135 58 135 188z" />
    <glyph glyph-name="uni01EB" unicode="&#x1eb;" horiz-adv-x="476" 
d="M416 305v-108c0 -103 -26 -159 -87 -189c-52 -43 -73 -76 -73 -114c0 -27 13 -39 45 -39c17 0 28 2 49 9l8 -44c-27 -10 -45 -13 -73 -13c-65 0 -97 25 -97 75c0 41 17 74 55 109c-126 0 -181 64 -180 206v108c0 143 54 206 177 206c122 0 176 -63 176 -206zM341 197v109
c0 99 -30 142 -102 142c-70 0 -101 -43 -101 -142v-109c0 -100 31 -143 101 -143c71 0 102 43 102 143z" />
    <glyph glyph-name="Eng" unicode="&#x14a;" horiz-adv-x="610" 
d="M88 0v714h76l283 -564v564h75v-731c3 -160 -41 -214 -175 -213v62c73 -4 104 38 102 140v32l-286 562v-566h-75z" />
    <glyph glyph-name="eng" unicode="&#x14b;" horiz-adv-x="483" 
d="M74 0v502h58l5 -55c31 47 63 64 123 64c71 0 119 -30 140 -87c9 -25 13 -62 13 -117v-321c3 -163 -42 -218 -178 -216v64c75 -5 105 38 103 144v321c0 106 -25 147 -90 147c-71 0 -99 -48 -99 -171v-275h-75z" />
    <glyph glyph-name="kgreenlandic" unicode="&#x138;" horiz-adv-x="445" 
d="M75 0v502h75v-276l182 276h84l-146 -212l159 -290h-82l-122 233l-75 -112v-121h-75z" />
    <glyph glyph-name="uni01D1" unicode="&#x1d1;" horiz-adv-x="572" 
d="M73 237v240c0 87 14 139 48 179c38 46 90 67 165 67c80 0 136 -25 173 -78c28 -39 39 -88 39 -168v-240c0 -87 -14 -139 -48 -179c-38 -46 -90 -67 -164 -67c-81 0 -137 25 -174 78c-27 39 -39 89 -39 168zM420 245v224c0 131 -41 189 -135 189c-93 0 -134 -58 -134 -189
v-224c0 -131 41 -189 134 -189c94 0 135 58 135 189zM286 844l55 81h77l-107 -131h-50l-108 131h77z" />
    <glyph glyph-name="uni01C4" unicode="&#x1c4;" horiz-adv-x="1002" 
d="M88 0v714h190c150 3 225 -78 222 -237v-240c3 -159 -72 -240 -222 -237h-190zM166 65h105c106 -2 151 53 151 183v219c0 129 -45 184 -151 182h-105v-584zM585 0v50l276 598h-259v66h345v-50l-276 -598h288v-66h-374zM793 844l55 81h77l-108 -131h-49l-108 131h77z" />
    <glyph glyph-name="uni01C5" unicode="&#x1c5;" horiz-adv-x="971" 
d="M88 0v714h190c150 3 225 -78 222 -237v-240c3 -159 -72 -240 -222 -237h-190zM166 65h105c106 -2 151 53 151 183v219c0 129 -45 184 -151 182h-105v-584zM609 0v46l213 393h-195v63h285v-46l-213 -393h226v-63h-316zM783 636l55 81h77l-107 -131h-50l-108 131h77z" />
    <glyph glyph-name="uni01C6" unicode="&#x1c6;" horiz-adv-x="880" 
d="M350 0l-5 40l-4 -4c-31 -33 -63 -45 -118 -45c-111 0 -161 66 -161 210v106c0 139 50 204 158 204c53 0 81 -11 114 -44v247h75v-714h-59zM137 306v-105c0 -99 31 -146 96 -146c68 0 101 51 101 156v80c0 105 -33 156 -101 156c-65 0 -96 -46 -96 -141zM519 0v46l213 393
h-196v63h286v-46l-214 -393h227v-63h-316zM692 636l55 81h77l-107 -131h-50l-107 131h76z" />
    <glyph glyph-name="uni01C7" unicode="&#x1c7;" horiz-adv-x="710" 
d="M88 0v714h78v-648h280v-66h-358zM544 714h78v-698c0 -109 -4 -146 -22 -180c-26 -52 -75 -79 -145 -79c-32 0 -53 4 -85 16l29 61c19 -9 30 -12 49 -12c44 0 73 23 87 67c7 23 9 51 9 124v701z" />
    <glyph glyph-name="uni01C8" unicode="&#x1c8;" horiz-adv-x="685" 
d="M88 0v714h78v-648h280v-66h-358zM535 613v104h75v-104h-75zM535 502h75v-516c4 -162 -42 -217 -177 -216v64c75 -4 104 38 102 144v524z" />
    <glyph glyph-name="uni01C9" unicode="&#x1c9;" horiz-adv-x="483" 
d="M74 714h75v-558c-1 -71 16 -93 71 -93h21v-63h-24c-114 0 -143 33 -143 162v552zM333 613v104h75v-104h-75zM333 502h75v-516c4 -162 -42 -217 -177 -216v64c75 -4 104 38 102 144v524z" />
    <glyph glyph-name="uni01CA" unicode="&#x1ca;" horiz-adv-x="863" 
d="M88 0v714h76l283 -565v565h75v-714h-75l-284 566v-566h-75zM698 714h78v-698c0 -109 -4 -146 -22 -180c-26 -52 -75 -79 -145 -79c-32 0 -53 4 -85 16l29 61c19 -9 30 -12 49 -12c44 0 73 23 87 67c7 23 9 51 9 124v701z" />
    <glyph glyph-name="uni01CB" unicode="&#x1cb;" horiz-adv-x="839" 
d="M88 0v714h76l283 -565v565h75v-714h-75l-284 566v-566h-75zM689 502h75v-516c4 -162 -42 -217 -177 -216v64c75 -4 104 38 102 144v524zM689 613v104h75v-104h-75z" />
    <glyph glyph-name="uni01CC" unicode="&#x1cc;" horiz-adv-x="712" 
d="M74 0v502h58l5 -49c30 43 64 59 122 59c72 0 120 -30 141 -87c9 -26 13 -62 13 -118v-307h-75v299c0 107 -25 148 -90 148c-71 0 -99 -48 -99 -172v-275h-75zM562 502h75v-516c4 -162 -42 -217 -177 -216v64c75 -4 104 38 102 144v524zM562 613v104h75v-104h-75z" />
    <glyph glyph-name="uni01F1" unicode="&#x1f1;" horiz-adv-x="1002" 
d="M88 0v714h190c150 3 225 -78 222 -237v-240c3 -159 -72 -240 -222 -237h-190zM166 65h105c106 -2 151 53 151 183v219c0 129 -45 184 -151 182h-105v-584zM585 0v50l276 598h-259v66h345v-50l-276 -598h288v-66h-374z" />
    <glyph glyph-name="uni01F2" unicode="&#x1f2;" horiz-adv-x="971" 
d="M88 0v714h190c150 3 225 -78 222 -237v-240c3 -159 -72 -240 -222 -237h-190zM166 65h105c106 -2 151 53 151 183v219c0 129 -45 184 -151 182h-105v-584zM609 0v46l213 393h-195v63h285v-46l-213 -393h226v-63h-316z" />
    <glyph glyph-name="uni01F3" unicode="&#x1f3;" horiz-adv-x="880" 
d="M350 0l-5 40l-4 -4c-31 -33 -63 -45 -118 -45c-111 0 -161 66 -161 210v106c0 139 50 204 158 204c53 0 81 -11 114 -44v247h75v-714h-59zM137 306v-105c0 -99 31 -146 96 -146c68 0 101 51 101 156v80c0 105 -33 156 -101 156c-65 0 -96 -46 -96 -141zM519 0v46l213 393
h-196v63h286v-46l-214 -393h227v-63h-316z" />
    <glyph glyph-name="uni01D0" unicode="&#x1d0;" horiz-adv-x="224" 
d="M75 0v502h75v-502h-75zM112 636l56 81h77l-108 -131h-49l-108 131h77z" />
    <glyph glyph-name="uni01CF" unicode="&#x1cf;" horiz-adv-x="253" 
d="M87 0v714h78v-714h-78zM126 844l56 81h77l-108 -131h-49l-108 131h77z" />
    <glyph glyph-name="uni2003" unicode="&#x2003;" horiz-adv-x="1000" 
 />
    <glyph glyph-name="uni2002" unicode="&#x2002;" horiz-adv-x="500" 
 />
    <glyph glyph-name="uni2004" unicode="&#x2004;" horiz-adv-x="333" 
 />
    <glyph glyph-name="uni2005" unicode="&#x2005;" horiz-adv-x="250" 
 />
    <glyph glyph-name="uni2009" unicode="&#x2009;" horiz-adv-x="200" 
 />
    <glyph glyph-name="uni2006" unicode="&#x2006;" horiz-adv-x="167" 
 />
    <glyph glyph-name="uni200A" unicode="&#x200a;" horiz-adv-x="125" 
 />
    <glyph glyph-name="uni2008" unicode="&#x2008;" horiz-adv-x="0" 
 />
    <glyph glyph-name="uni2007" unicode="&#x2007;" 
 />
    <glyph glyph-name="uni00A0" unicode="&#xa0;" horiz-adv-x="180" 
 />
    <glyph glyph-name="uni2218" unicode="&#x2218;" 
d="M240 529c97 0 171 -72 171 -166s-74 -166 -170 -166c-99 0 -172 71 -172 168c0 92 75 164 171 164zM240 485c-70 0 -124 -52 -124 -121c0 -71 52 -123 124 -123c71 0 124 52 124 122s-53 122 -124 122z" />
    <glyph glyph-name="openbullet" unicode="&#x25e6;" 
d="M240 529c97 0 171 -72 171 -166s-74 -166 -170 -166c-99 0 -172 71 -172 168c0 92 75 164 171 164zM240 485c-70 0 -124 -52 -124 -121c0 -71 52 -123 124 -123c71 0 124 52 124 122s-53 122 -124 122z" />
    <glyph glyph-name="filledrect" unicode="&#x25ac;" 
d="M87 209v306h306v-306h-306z" />
    <glyph glyph-name="uni25B8" unicode="&#x25b8;" 
d="M94 179v367l366 -184z" />
    <glyph glyph-name="uni25C2" unicode="&#x25c2;" 
d="M386 179l-366 183l366 184v-367z" />
    <glyph glyph-name="uni25B4" unicode="&#x25b4;" 
d="M56 204l184 366l183 -366h-367z" />
    <glyph glyph-name="uni25BE" unicode="&#x25be;" 
d="M56 520h367l-183 -366z" />
    <glyph glyph-name="arrowright" unicode="&#x2192;" horiz-adv-x="800" 
d="M68 331v66h576l-187 188l46 46l248 -253v-28l-248 -253l-46 47l187 187h-576z" />
    <glyph glyph-name="arrowleft" unicode="&#x2190;" horiz-adv-x="800" 
d="M732 331h-576l187 -187l-46 -47l-248 253v28l248 253l46 -46l-187 -188h576v-66z" />
    <glyph glyph-name="arrowboth" unicode="&#x2194;" horiz-adv-x="800" 
d="M658 331h-515l171 -171l-47 -47l-231 237v28l231 237l47 -47l-171 -171h515l-171 171l46 47l232 -237v-28l-232 -237l-46 47z" />
    <glyph glyph-name="arrowup" unicode="&#x2191;" horiz-adv-x="800" 
d="M349 0v614l-187 -187l-47 46l253 248h28l253 -248l-47 -46l-186 187v-614h-67z" />
    <glyph glyph-name="arrowdown" unicode="&#x2193;" horiz-adv-x="800" 
d="M349 100v614h67v-614l186 187l47 -46l-253 -248h-28l-253 248l47 46z" />
    <glyph glyph-name="arrowupdn" unicode="&#x2195;" horiz-adv-x="800" 
d="M350 88v539l-171 -172l-47 47l237 231h28l237 -231l-47 -47l-171 172v-540l171 172l47 -47l-237 -231h-28l-237 231l47 47z" />
    <glyph glyph-name="lozenge" unicode="&#x25ca;" 
d="M11 348l229 375l229 -375l-229 -376zM91 348l149 -254l149 254l-149 253z" />
    <glyph glyph-name="Delta" unicode="&#x2206;" 
d="M497 0h-512l223 714h66zM393 64l-152 539l-152 -539h304z" />
    <glyph glyph-name="notequal" unicode="&#x2260;" 
d="M53 261v60h137l35 87h-172v59h196l47 122l58 -23l-38 -99h112v-59h-137l-35 -87h172v-60h-196l-48 -122l-57 23l38 99h-112z" />
    <glyph glyph-name="radical" unicode="&#x221a;" 
d="M179 0l-88 300h-63v64h118l68 -264l167 767h221v-56h-160l-185 -811h-78z" />
    <glyph glyph-name="integral" unicode="&#x222b;" horiz-adv-x="362" 
d="M66 -94l14 61c16 -7 22 -8 32 -8c24 0 38 10 46 33c6 17 7 35 7 88v514c0 75 3 106 15 137c15 40 47 60 96 60c21 0 36 -2 62 -9l-14 -60c-15 5 -22 7 -33 7c-24 0 -38 -11 -46 -34c-5 -17 -6 -33 -6 -83v-517c0 -76 -4 -107 -15 -138c-16 -40 -48 -60 -97 -60
c-21 0 -37 3 -61 9z" />
    <glyph glyph-name="similar" unicode="&#x223c;" 
d="M97 301l-47 11c22 84 55 120 111 120c33 0 49 -7 92 -40c38 -31 51 -37 70 -37c27 0 46 21 62 70l46 -14c-25 -82 -57 -115 -113 -115c-29 0 -44 7 -87 40c-40 31 -51 37 -71 37c-28 0 -47 -22 -63 -72z" />
    <glyph glyph-name="approxequal" unicode="&#x2248;" 
d="M97 223l-47 12c22 84 55 120 112 120c32 0 48 -7 91 -40c39 -31 51 -37 70 -37c27 0 46 21 62 69l46 -14c-25 -81 -57 -114 -113 -114c-29 0 -45 7 -87 40c-40 31 -51 37 -71 37c-28 0 -47 -23 -63 -73zM97 379l-47 11c22 84 55 120 111 120c33 0 50 -8 92 -40
c39 -31 51 -37 70 -37c27 0 45 20 62 69l46 -13c-25 -82 -57 -115 -113 -115c-29 0 -44 7 -87 40c-40 32 -50 37 -71 37c-28 0 -47 -22 -63 -72z" />
    <glyph glyph-name="uni2243" unicode="&#x2243;" 
d="M48 261v60h375v-60h-375zM92 379l-47 11c22 85 55 120 111 120c33 0 50 -8 92 -40c39 -31 51 -37 70 -37c27 0 45 20 62 69l46 -13c-25 -82 -57 -115 -113 -115c-29 0 -44 7 -87 40c-40 32 -50 37 -71 37c-28 0 -47 -22 -63 -72z" />
    <glyph glyph-name="lessequal" unicode="&#x2264;" 
d="M130 372l269 -142v-72l-351 192v43l351 192v-71zM54 23v61h345v-61h-345z" />
    <glyph glyph-name="greaterequal" unicode="&#x2265;" 
d="M350 372l-269 142v71l351 -192v-43l-351 -192v72zM81 23v61h345v-61h-345z" />
    <glyph glyph-name="infinity" unicode="&#x221e;" horiz-adv-x="669" 
d="M339 419l2 4c26 41 32 48 53 64c27 19 56 28 91 28c84 0 138 -59 138 -151s-54 -150 -138 -150c-44 0 -81 15 -111 45c-6 6 -19 25 -39 56c-3 -4 -5 -8 -6 -10c-25 -39 -32 -48 -53 -63c-27 -19 -55 -28 -91 -28c-84 0 -138 58 -138 150s54 151 138 151
c44 0 81 -15 111 -46c6 -6 19 -25 39 -56zM305 364l-6 10c-33 56 -69 85 -108 85c-49 0 -83 -38 -83 -94s34 -95 83 -95c40 0 70 23 107 83zM365 364l7 -11c37 -60 67 -83 107 -83c49 0 83 38 83 95c0 55 -34 94 -83 94c-39 0 -74 -28 -108 -85z" />
    <glyph glyph-name="product" unicode="&#x220f;" horiz-adv-x="522" 
d="M67 -207v921h387v-921h-76v854h-235v-854h-76z" />
    <glyph glyph-name="summation" unicode="&#x2211;" horiz-adv-x="502" 
d="M63 -207v47l175 442l-166 380v52h384v-66h-295l161 -366l-163 -423h307v-66h-403z" />
    <glyph glyph-name="afii61289" unicode="&#x2113;" horiz-adv-x="454" 
d="M131 220c-31 -35 -64 -66 -72 -66c-6 0 -15 14 -15 25c0 10 4 17 20 33c27 25 44 44 72 77c47 333 90 442 177 442c47 0 79 -40 79 -97c0 -64 -27 -143 -72 -213c-26 -42 -61 -84 -110 -136c-14 -98 -23 -174 -23 -202c0 -30 8 -43 27 -43c22 0 32 10 55 58
c9 18 15 24 25 24s16 -7 16 -19c0 -22 -14 -54 -36 -80s-47 -39 -77 -39c-51 0 -75 34 -75 106c0 28 3 69 9 130zM217 354c43 53 63 82 85 125c26 51 42 109 42 149c0 29 -11 48 -27 48c-42 0 -64 -72 -100 -322z" />
    <glyph glyph-name="partialdiff" unicode="&#x2202;" 
d="M65 194v106c0 137 52 203 161 203c39 0 63 -8 87 -29c-36 116 -92 174 -185 195l9 50c168 -18 270 -175 278 -425v-100c0 -141 -54 -203 -175 -203s-175 62 -175 203zM342 197v100c0 101 -31 146 -102 146s-102 -45 -102 -146v-100c0 -101 31 -145 102 -145
s102 44 102 145z" />
    <glyph glyph-name="underscoredbl" unicode="&#x2017;" horiz-adv-x="395" 
d="M-21 -212v46h437v-46h-437zM-21 -128v46h437v-46h-437z" />
    <glyph glyph-name="uni203E" unicode="&#x203e;" horiz-adv-x="395" 
d="M-21 811v56h437v-56h-437z" />
    <glyph glyph-name="emptyset" unicode="&#x2205;" 
d="M309 578l75 167l44 -17l-77 -171c59 -43 89 -107 89 -190c0 -132 -83 -224 -203 -224c-24 0 -42 3 -67 10l-84 -187l-44 17l85 189c-63 40 -97 108 -97 195c0 131 84 224 200 224c24 0 49 -4 79 -13zM148 222l140 308c-24 7 -42 10 -59 10c-83 0 -143 -73 -143 -172
c0 -62 20 -108 62 -146zM329 505l-138 -303c18 -6 32 -8 48 -8c85 0 145 71 145 172c0 59 -15 97 -55 139z" />
    <glyph glyph-name="uni2126" unicode="&#x2126;" horiz-adv-x="567" 
d="M60 0v57h122v31c-76 31 -115 113 -112 236v152c0 88 14 139 48 180c38 46 90 67 165 67c80 0 137 -25 174 -78c27 -40 39 -89 39 -169v-152c2 -123 -36 -205 -111 -236v-31h121v-57h-183v131c65 18 97 83 95 196v141c0 132 -42 190 -135 190c-94 0 -135 -58 -135 -190
v-141c-2 -113 30 -178 95 -196v-131h-183z" />
    <glyph glyph-name="uni2196" unicode="&#x2196;" horiz-adv-x="800" 
d="M625 99l-413 412v-265h-66v352l25 25h353v-66h-266l413 -412z" />
    <glyph glyph-name="uni2198" unicode="&#x2198;" horiz-adv-x="800" 
d="M175 628l413 -414v266h66v-353l-25 -25h-353v66h266l-413 413z" />
    <glyph glyph-name="uni2197" unicode="&#x2197;" horiz-adv-x="800" 
d="M175 99l-46 46l413 412h-266v66h353l25 -25v-352h-66v265z" />
    <glyph glyph-name="uni2199" unicode="&#x2199;" horiz-adv-x="800" 
d="M625 628l46 -47l-413 -413h266v-66h-353l-25 25v353h66v-265z" />
    <glyph glyph-name="estimated" unicode="&#x212e;" horiz-adv-x="504" 
d="M460 322h-328v-138c10 -42 16 -59 29 -83c18 -35 54 -56 96 -56c64 0 108 42 133 126h54c-13 -56 -23 -79 -41 -104c-36 -51 -87 -77 -146 -77c-134 0 -212 125 -212 340c0 213 82 347 211 347c85 0 151 -58 183 -160c15 -48 21 -102 21 -195zM381 371v120
c-20 86 -63 131 -126 131c-61 0 -94 -35 -123 -130v-121h249z" />
    <glyph glyph-name="Ohorn" unicode="&#x1a0;" horiz-adv-x="599" 
d="M531 724h66c5 -15 6 -24 6 -38c0 -44 -18 -83 -53 -112c-15 -13 -24 -19 -56 -40c3 -20 4 -34 4 -57v-240c0 -87 -14 -139 -48 -179c-38 -46 -90 -67 -164 -67c-81 0 -137 25 -174 78c-27 39 -39 89 -39 168v240c0 87 14 139 48 179c38 46 90 67 165 67
c107 0 169 -43 200 -139c43 33 56 55 56 92c0 17 -3 28 -11 48zM420 245v224c0 130 -41 188 -135 188c-93 0 -134 -58 -134 -188v-224c0 -131 41 -189 134 -189c94 0 135 58 135 189z" />
    <glyph glyph-name="ohorn" unicode="&#x1a1;" horiz-adv-x="502" 
d="M444 511h66c5 -18 6 -28 6 -42c0 -57 -31 -101 -103 -145c2 -13 2 -22 2 -34v-93c0 -143 -54 -206 -176 -206c-123 0 -177 63 -177 206v108c0 143 55 207 177 207c99 0 152 -43 170 -136c38 38 46 52 46 88c0 17 -2 26 -11 47zM340 197v109c0 100 -30 143 -102 143
c-70 0 -101 -43 -101 -143v-109c0 -100 31 -143 101 -143c71 0 102 43 102 143z" />
    <glyph glyph-name="Uhorn" unicode="&#x1af;" horiz-adv-x="625" 
d="M85 714h78v-485c0 -62 5 -93 21 -118c22 -38 54 -55 104 -55c60 0 94 18 116 63c12 24 16 54 16 110v485h78v-148c61 35 82 63 82 109c0 19 -3 31 -11 49h67c4 -16 5 -25 5 -40c0 -48 -20 -86 -66 -123c-17 -13 -26 -19 -77 -48v-284c0 -89 -8 -127 -36 -165
c-38 -51 -89 -73 -171 -73c-86 0 -142 26 -177 84c-22 35 -29 73 -29 154v485z" />
    <glyph glyph-name="uhorn" unicode="&#x1b0;" horiz-adv-x="519" 
d="M70 502h75v-299c0 -107 24 -147 86 -147c66 0 93 49 93 171v275h75v-150c62 37 82 63 82 111c0 18 -2 28 -11 48h67c4 -17 5 -26 5 -40c0 -49 -20 -85 -66 -123c-18 -14 -30 -22 -77 -49v-299h-58l-5 49c-30 -42 -62 -58 -117 -58c-69 0 -116 30 -136 87
c-9 25 -13 63 -13 118v306z" />
    <glyph glyph-name="uni1EA0" unicode="&#x1ea0;" horiz-adv-x="508" 
d="M381 158h-253l-44 -158h-85l221 714h70l220 -714h-84zM364 223l-109 385l-110 -385h219zM217 -193v102h73v-102h-73z" />
    <glyph glyph-name="uni1EA1" unicode="&#x1ea1;" horiz-adv-x="452" 
d="M306 294v36c0 87 -24 119 -90 119c-48 0 -74 -21 -91 -75l-64 19c21 80 72 118 157 118c69 0 117 -23 142 -66c15 -27 21 -63 21 -123v-322h-60l-5 35c-28 -33 -58 -44 -122 -44c-112 0 -154 40 -154 149c0 113 44 154 167 154h99zM306 236h-86c-78 0 -107 -26 -107 -96
c0 -64 24 -86 97 -86c74 0 96 22 96 98v84zM189 -193v102h73v-102h-73z" />
    <glyph glyph-name="uni1EA2" unicode="&#x1ea2;" horiz-adv-x="508" 
d="M381 158h-253l-44 -158h-85l221 714h70l220 -714h-84zM364 223l-109 385l-110 -385h219zM285 779h-55c1 43 2 46 28 84c7 10 10 18 10 26c0 16 -11 24 -31 24c-14 0 -27 -4 -48 -13l-15 46c30 11 48 15 74 15c53 0 83 -25 83 -68c0 -21 -5 -31 -28 -61
c-17 -21 -18 -25 -18 -53z" />
    <glyph glyph-name="uni1EA3" unicode="&#x1ea3;" horiz-adv-x="452" 
d="M306 294v36c0 87 -24 119 -90 119c-48 0 -74 -21 -91 -75l-64 19c21 80 72 118 157 118c69 0 117 -23 142 -66c15 -27 21 -63 21 -123v-322h-60l-5 35c-28 -33 -58 -44 -122 -44c-112 0 -154 40 -154 149c0 113 44 154 167 154h99zM306 236h-86c-78 0 -107 -26 -107 -96
c0 -64 24 -86 97 -86c74 0 96 22 96 98v84zM267 575h-55c0 39 2 46 18 69c17 26 19 31 19 41c0 16 -11 24 -31 24c-14 0 -26 -3 -47 -13l-15 47c30 11 48 14 74 14c52 0 82 -24 82 -68c0 -21 -5 -31 -28 -61c-16 -20 -17 -25 -17 -53z" />
    <glyph glyph-name="uni1EA4" unicode="&#x1ea4;" horiz-adv-x="508" 
d="M381 158h-253l-44 -158h-85l221 714h70l220 -714h-84zM364 223l-109 385l-110 -385h219zM221 895l50 113h69l-75 -113h-44zM254 819l-58 -57h-74l109 106h46l109 -106h-74z" />
    <glyph glyph-name="uni1EA5" unicode="&#x1ea5;" horiz-adv-x="452" 
d="M306 294v36c0 87 -24 119 -90 119c-48 0 -74 -21 -91 -75l-64 19c21 80 72 118 157 118c69 0 117 -23 142 -66c15 -27 21 -63 21 -123v-322h-60l-5 35c-28 -33 -58 -44 -122 -44c-112 0 -154 40 -154 149c0 113 44 154 167 154h99zM306 236h-86c-78 0 -107 -26 -107 -96
c0 -64 24 -86 97 -86c74 0 96 22 96 98v84zM201 686l50 114h69l-75 -114h-44zM234 611l-58 -57h-74l109 106h46l109 -106h-74z" />
    <glyph glyph-name="uni1EA6" unicode="&#x1ea6;" horiz-adv-x="508" 
d="M381 158h-253l-44 -158h-85l221 714h70l220 -714h-84zM364 223l-109 385l-110 -385h219zM286 895h-44l-75 113h69zM254 819l-58 -57h-74l109 106h46l109 -106h-74z" />
    <glyph glyph-name="uni1EA7" unicode="&#x1ea7;" horiz-adv-x="452" 
d="M306 294v36c0 87 -24 119 -90 119c-48 0 -74 -21 -91 -75l-64 19c21 80 72 118 157 118c69 0 117 -23 142 -66c15 -27 21 -63 21 -123v-322h-60l-5 35c-28 -33 -58 -44 -122 -44c-112 0 -154 40 -154 149c0 113 44 154 167 154h99zM306 236h-86c-78 0 -107 -26 -107 -96
c0 -64 24 -86 97 -86c74 0 96 22 96 98v84zM266 686h-44l-75 114h69zM234 611l-58 -57h-75l110 106h46l109 -106h-74z" />
    <glyph glyph-name="uni1EA8" unicode="&#x1ea8;" horiz-adv-x="508" 
d="M381 158h-253l-44 -158h-85l221 714h70l220 -714h-84zM364 223l-109 385l-110 -385h219zM278 880h-48v6c1 21 3 27 14 43c12 17 15 22 15 31s-8 14 -23 14c-11 0 -21 -2 -38 -9l-12 37c22 8 37 11 60 11c42 0 67 -19 67 -51c0 -16 -3 -22 -22 -45
c-12 -14 -13 -18 -13 -37zM252 818l-58 -56h-74l109 101h46l109 -101h-74z" />
    <glyph glyph-name="uni1EA9" unicode="&#x1ea9;" horiz-adv-x="452" 
d="M306 294v36c0 87 -24 119 -90 119c-48 0 -74 -21 -91 -75l-64 19c21 80 72 118 157 118c69 0 117 -23 142 -66c15 -27 21 -63 21 -123v-322h-60l-5 35c-28 -33 -58 -44 -122 -44c-112 0 -154 40 -154 149c0 113 44 154 167 154h99zM306 236h-86c-78 0 -107 -26 -107 -96
c0 -64 24 -86 97 -86c74 0 96 22 96 98v84zM257 672h-48c1 27 2 32 14 49s15 22 15 31s-8 14 -23 14c-11 0 -20 -2 -37 -9l-12 36c23 9 37 12 59 12c42 0 67 -19 67 -51c0 -15 -4 -23 -22 -45c-11 -14 -12 -17 -13 -37zM232 610l-59 -56h-74l109 101h47l109 -101h-74z" />
    <glyph glyph-name="uni1EAA" unicode="&#x1eaa;" horiz-adv-x="508" 
d="M381 158h-253l-44 -158h-85l221 714h70l220 -714h-84zM364 223l-109 385l-110 -385h219zM181 902h-42c16 70 36 96 77 96c21 0 34 -7 52 -26c19 -21 27 -27 36 -27c13 0 21 15 28 48h41c-13 -72 -30 -96 -70 -96c-22 0 -35 6 -53 28c-18 20 -26 25 -34 25
c-15 0 -29 -19 -35 -48zM258 819l-59 -57h-74l109 106h47l109 -106h-74z" />
    <glyph glyph-name="uni1EAB" unicode="&#x1eab;" horiz-adv-x="452" 
d="M306 294v36c0 87 -24 119 -90 119c-48 0 -74 -21 -91 -75l-64 19c21 80 72 118 157 118c69 0 117 -23 142 -66c15 -27 21 -63 21 -123v-322h-60l-5 35c-28 -33 -58 -44 -122 -44c-112 0 -154 40 -154 149c0 113 44 154 167 154h99zM306 236h-86c-78 0 -107 -26 -107 -96
c0 -64 24 -86 97 -86c74 0 96 22 96 98v84zM152 694h-41c16 70 36 96 76 96c21 0 35 -7 53 -26c19 -21 27 -27 36 -27c12 0 21 15 27 48h42c-13 -72 -31 -96 -70 -96c-22 0 -35 7 -54 28c-18 20 -25 25 -34 25c-14 0 -28 -19 -35 -48zM229 611l-58 -57h-74l109 106h46
l110 -106h-75z" />
    <glyph glyph-name="uni1EAC" unicode="&#x1eac;" horiz-adv-x="508" 
d="M381 158h-253l-44 -158h-85l221 714h70l220 -714h-84zM364 223l-109 385l-110 -385h219zM254 876l-56 -81h-76l107 132h50l107 -132h-76zM217 -193v102h73v-102h-73z" />
    <glyph glyph-name="uni1EAD" unicode="&#x1ead;" horiz-adv-x="452" 
d="M306 294v36c0 87 -24 119 -90 119c-48 0 -74 -21 -91 -75l-64 19c21 80 72 118 157 118c69 0 117 -23 142 -66c15 -27 21 -63 21 -123v-322h-60l-5 35c-28 -33 -58 -44 -122 -44c-112 0 -154 40 -154 149c0 113 44 154 167 154h99zM306 236h-86c-78 0 -107 -26 -107 -96
c0 -64 24 -86 97 -86c74 0 96 22 96 98v84zM227 668l-56 -81h-77l108 131h49l108 -131h-77zM189 -193v102h73v-102h-73z" />
    <glyph glyph-name="uni1EAE" unicode="&#x1eae;" horiz-adv-x="508" 
d="M381 158h-253l-44 -158h-85l221 714h70l220 -714h-84zM364 223l-109 385l-110 -385h219zM221 895l50 113h69l-75 -113h-44zM133 882h48c6 -51 25 -69 74 -69c48 0 66 18 72 69h48c-2 -42 -5 -59 -15 -76c-19 -34 -50 -48 -106 -48c-59 0 -92 17 -109 55
c-7 16 -10 32 -12 69z" />
    <glyph glyph-name="uni1EAF" unicode="&#x1eaf;" horiz-adv-x="452" 
d="M306 294v36c0 87 -24 119 -90 119c-48 0 -74 -21 -91 -75l-64 19c21 80 72 118 157 118c69 0 117 -23 142 -66c15 -27 21 -63 21 -123v-322h-60l-5 35c-28 -33 -58 -44 -122 -44c-112 0 -154 40 -154 149c0 113 44 154 167 154h99zM306 236h-86c-78 0 -107 -26 -107 -96
c0 -64 24 -86 97 -86c74 0 96 22 96 98v84zM193 686l50 114h69l-75 -114h-44zM105 674h48c5 -51 24 -69 73 -69c48 0 67 18 73 69h48c-2 -42 -6 -59 -16 -76c-18 -34 -50 -48 -105 -48c-59 0 -93 17 -110 55c-7 16 -9 32 -11 69z" />
    <glyph glyph-name="uni1EB0" unicode="&#x1eb0;" horiz-adv-x="508" 
d="M381 158h-253l-44 -158h-85l221 714h70l220 -714h-84zM364 223l-109 385l-110 -385h219zM290 895h-44l-76 113h70zM133 882h48c6 -51 25 -69 74 -69c48 0 66 18 72 69h48c-2 -42 -5 -59 -15 -76c-19 -34 -50 -48 -106 -48c-59 0 -92 17 -109 55c-7 16 -10 32 -12 69z" />
    <glyph glyph-name="uni1EB1" unicode="&#x1eb1;" horiz-adv-x="452" 
d="M306 294v36c0 87 -24 119 -90 119c-48 0 -74 -21 -91 -75l-64 19c21 80 72 118 157 118c69 0 117 -23 142 -66c15 -27 21 -63 21 -123v-322h-60l-5 35c-28 -33 -58 -44 -122 -44c-112 0 -154 40 -154 149c0 113 44 154 167 154h99zM306 236h-86c-78 0 -107 -26 -107 -96
c0 -64 24 -86 97 -86c74 0 96 22 96 98v84zM262 686h-44l-75 114h69zM105 674h48c5 -51 24 -69 73 -69c48 0 67 18 73 69h48c-2 -42 -6 -59 -16 -76c-18 -34 -50 -48 -105 -48c-59 0 -93 17 -110 55c-7 16 -9 32 -11 69z" />
    <glyph glyph-name="uni1EB2" unicode="&#x1eb2;" horiz-adv-x="508" 
d="M381 158h-253l-44 -158h-85l221 714h70l220 -714h-84zM364 223l-109 385l-110 -385h219zM277 870h-48c1 29 2 33 14 52c12 18 15 24 15 33c0 12 -8 19 -24 19c-10 0 -20 -3 -36 -10l-12 37c20 9 37 12 58 12c43 0 68 -21 68 -57c0 -14 -2 -19 -21 -42
c-11 -15 -15 -26 -14 -44zM133 882h47c6 -52 25 -70 74 -70s69 19 74 70h47c-2 -42 -5 -59 -15 -76c-19 -34 -50 -48 -106 -48c-59 0 -92 17 -109 55c-7 16 -10 32 -12 69z" />
    <glyph glyph-name="uni1EB3" unicode="&#x1eb3;" horiz-adv-x="452" 
d="M306 294v36c0 87 -24 119 -90 119c-48 0 -74 -21 -91 -75l-64 19c21 80 72 118 157 118c69 0 117 -23 142 -66c15 -27 21 -63 21 -123v-322h-60l-5 35c-28 -33 -58 -44 -122 -44c-112 0 -154 40 -154 149c0 113 44 154 167 154h99zM306 236h-86c-78 0 -107 -26 -107 -96
c0 -64 24 -86 97 -86c74 0 96 22 96 98v84zM257 662h-48c0 29 2 33 14 52c12 18 15 24 15 33c0 12 -9 19 -24 19c-10 0 -21 -3 -37 -10l-12 37c22 9 38 12 59 12c43 0 68 -21 68 -57c0 -14 -2 -18 -21 -42c-11 -15 -15 -26 -14 -44zM113 674h47c6 -52 25 -70 73 -70
c50 0 69 18 75 70h47c-2 -42 -6 -59 -16 -76c-18 -34 -50 -48 -105 -48c-59 0 -93 17 -110 55c-7 16 -9 32 -11 69z" />
    <glyph glyph-name="uni1EB4" unicode="&#x1eb4;" horiz-adv-x="508" 
d="M381 158h-253l-44 -158h-85l221 714h70l220 -714h-84zM364 223l-109 385l-110 -385h219zM174 911h-42c16 70 36 96 76 96c22 0 35 -7 53 -26c19 -21 27 -27 36 -27c13 0 21 15 27 48h42c-13 -72 -30 -96 -70 -96c-22 0 -35 7 -54 28c-18 20 -25 25 -34 25
c-14 0 -27 -18 -34 -48zM130 876h46c6 -49 24 -66 72 -66s67 17 73 66h46c-2 -40 -5 -55 -15 -72c-19 -32 -49 -45 -104 -45c-58 0 -90 16 -107 52c-7 15 -9 30 -11 65z" />
    <glyph glyph-name="uni1EB5" unicode="&#x1eb5;" horiz-adv-x="452" 
d="M306 294v36c0 87 -24 119 -90 119c-48 0 -74 -21 -91 -75l-64 19c21 80 72 118 157 118c69 0 117 -23 142 -66c15 -27 21 -63 21 -123v-322h-60l-5 35c-28 -33 -58 -44 -122 -44c-112 0 -154 40 -154 149c0 113 44 154 167 154h99zM306 236h-86c-78 0 -107 -26 -107 -96
c0 -64 24 -86 97 -86c74 0 96 22 96 98v84zM153 703h-41c16 71 36 96 76 96c21 0 35 -7 53 -27c18 -21 26 -27 36 -27c12 0 21 16 27 49h42c-13 -72 -31 -96 -70 -96c-23 0 -36 7 -54 27c-17 21 -25 26 -35 26c-14 0 -26 -18 -34 -48zM110 668h46c5 -49 24 -66 72 -66
s67 17 73 66h45c-2 -40 -5 -55 -14 -72c-19 -32 -50 -45 -104 -45c-58 0 -90 16 -107 52c-7 15 -10 30 -11 65z" />
    <glyph glyph-name="uni1EB6" unicode="&#x1eb6;" horiz-adv-x="508" 
d="M381 158h-253l-44 -158h-85l221 714h70l220 -714h-84zM364 223l-109 385l-110 -385h219zM133 922h51c5 -58 23 -78 69 -78c48 0 66 20 71 78h51c-2 -48 -5 -64 -14 -83c-19 -36 -52 -52 -107 -52c-59 0 -94 19 -110 60c-7 17 -9 34 -11 75zM217 -193v102h73v-102h-73z
" />
    <glyph glyph-name="uni1EB7" unicode="&#x1eb7;" horiz-adv-x="452" 
d="M306 294v36c0 87 -24 119 -90 119c-48 0 -74 -21 -91 -75l-64 19c21 80 72 118 157 118c69 0 117 -23 142 -66c15 -27 21 -63 21 -123v-322h-60l-5 35c-28 -33 -58 -44 -122 -44c-112 0 -154 40 -154 149c0 113 44 154 167 154h99zM306 236h-86c-78 0 -107 -26 -107 -96
c0 -64 24 -86 97 -86c74 0 96 22 96 98v84zM107 714h50c6 -58 24 -78 71 -78s64 20 70 78h51c-2 -47 -5 -64 -15 -83c-18 -36 -51 -52 -106 -52c-60 0 -94 19 -111 60c-6 17 -9 33 -10 75zM189 -193v102h73v-102h-73z" />
    <glyph glyph-name="uni1EB8" unicode="&#x1eb8;" horiz-adv-x="490" 
d="M88 0v714h353v-66h-275v-254h234v-66h-234v-262h277v-66h-355zM234 -193v102h73v-102h-73z" />
    <glyph glyph-name="uni1EB9" unicode="&#x1eb9;" horiz-adv-x="466" 
d="M137 237v-42c0 -96 35 -141 107 -141c54 0 81 22 93 75l65 -14c-15 -86 -65 -124 -161 -124c-123 0 -179 68 -179 219v80c0 153 54 221 174 221c121 0 174 -67 174 -221v-53h-273zM137 295h201v21c0 89 -32 132 -100 132s-101 -43 -101 -132v-21zM196 -193v102h73v-102
h-73z" />
    <glyph glyph-name="uni1EBA" unicode="&#x1eba;" horiz-adv-x="490" 
d="M88 0v714h353v-66h-275v-254h234v-66h-234v-262h277v-66h-355zM292 779h-54c0 39 2 46 17 69c18 26 20 30 20 41c0 16 -11 24 -31 24c-14 0 -27 -3 -48 -13l-14 46c30 11 48 15 73 15c53 0 83 -25 83 -68c0 -21 -5 -31 -28 -61c-16 -21 -18 -25 -18 -53z" />
    <glyph glyph-name="uni1EBB" unicode="&#x1ebb;" horiz-adv-x="466" 
d="M137 237v-42c0 -96 35 -141 107 -141c54 0 81 22 93 75l65 -14c-15 -86 -65 -124 -161 -124c-123 0 -179 68 -179 219v80c0 153 54 221 174 221c121 0 174 -67 174 -221v-53h-273zM137 295h201v21c0 89 -32 132 -100 132s-101 -43 -101 -132v-21zM264 575h-55
c1 39 3 46 18 69c18 27 20 30 20 41c0 16 -11 24 -31 24c-14 0 -26 -3 -48 -13l-15 47c31 11 48 14 74 14c53 0 83 -24 83 -68c0 -21 -5 -31 -28 -61c-16 -20 -18 -25 -18 -53z" />
    <glyph glyph-name="uni1EBE" unicode="&#x1ebe;" horiz-adv-x="490" 
d="M88 0v714h353v-66h-275v-254h234v-66h-234v-262h277v-66h-355zM232 895l50 113h69l-75 -113h-44zM265 819l-58 -57h-74l109 106h46l109 -106h-74z" />
    <glyph glyph-name="uni1EBF" unicode="&#x1ebf;" horiz-adv-x="466" 
d="M137 237v-42c0 -96 35 -141 107 -141c54 0 81 22 93 75l65 -14c-15 -86 -65 -124 -161 -124c-123 0 -179 68 -179 219v80c0 153 54 221 174 221c121 0 174 -67 174 -221v-53h-273zM137 295h201v21c0 89 -32 132 -100 132s-101 -43 -101 -132v-21zM205 686l50 114h69
l-75 -114h-44zM238 611l-58 -57h-74l109 106h46l109 -106h-74z" />
    <glyph glyph-name="uni1EC0" unicode="&#x1ec0;" horiz-adv-x="490" 
d="M88 0v714h353v-66h-275v-254h234v-66h-234v-262h277v-66h-355zM297 895h-44l-75 113h69zM265 819l-58 -57h-75l110 106h46l109 -106h-74z" />
    <glyph glyph-name="uni1EC1" unicode="&#x1ec1;" horiz-adv-x="466" 
d="M137 237v-42c0 -96 35 -141 107 -141c54 0 81 22 93 75l65 -14c-15 -86 -65 -124 -161 -124c-123 0 -179 68 -179 219v80c0 153 54 221 174 221c121 0 174 -67 174 -221v-53h-273zM137 295h201v21c0 89 -32 132 -100 132s-101 -43 -101 -132v-21zM270 686h-44l-75 114h69
zM238 611l-58 -57h-74l109 106h46l109 -106h-74z" />
    <glyph glyph-name="uni1EC2" unicode="&#x1ec2;" horiz-adv-x="490" 
d="M88 0v714h353v-66h-275v-254h234v-66h-234v-262h277v-66h-355zM288 880h-48c1 27 2 32 14 49s15 22 15 31s-8 14 -23 14c-11 0 -21 -2 -37 -9l-12 37c22 8 37 11 59 11c42 0 67 -19 67 -51c0 -15 -4 -22 -22 -45c-11 -14 -12 -17 -13 -37zM263 818l-59 -56h-74l109 101
h47l109 -101h-74z" />
    <glyph glyph-name="uni1EC3" unicode="&#x1ec3;" horiz-adv-x="466" 
d="M137 237v-42c0 -96 35 -141 107 -141c54 0 81 22 93 75l65 -14c-15 -86 -65 -124 -161 -124c-123 0 -179 68 -179 219v80c0 153 54 221 174 221c121 0 174 -67 174 -221v-53h-273zM137 295h201v21c0 89 -32 132 -100 132s-101 -43 -101 -132v-21zM262 672h-48v6
c1 21 3 27 14 43c13 17 15 22 15 31s-8 14 -24 14c-10 0 -19 -2 -36 -9l-13 36c23 9 37 12 59 12c43 0 68 -19 68 -51c0 -15 -4 -23 -22 -45c-12 -14 -13 -17 -13 -37zM236 610l-58 -56h-74l109 101h46l109 -101h-74z" />
    <glyph glyph-name="uni1EC4" unicode="&#x1ec4;" horiz-adv-x="490" 
d="M88 0v714h353v-66h-275v-254h234v-66h-234v-262h277v-66h-355zM191 902h-41c16 70 36 96 76 96c21 0 35 -7 53 -26c19 -21 27 -27 36 -27c12 0 21 15 27 48h42c-13 -72 -31 -96 -70 -96c-22 0 -35 6 -54 28c-18 20 -25 25 -34 25c-14 0 -28 -19 -35 -48zM268 819l-58 -57
h-74l109 106h46l110 -106h-75z" />
    <glyph glyph-name="uni1EC5" unicode="&#x1ec5;" horiz-adv-x="466" 
d="M137 237v-42c0 -96 35 -141 107 -141c54 0 81 22 93 75l65 -14c-15 -86 -65 -124 -161 -124c-123 0 -179 68 -179 219v80c0 153 54 221 174 221c121 0 174 -67 174 -221v-53h-273zM137 295h201v21c0 89 -32 132 -100 132s-101 -43 -101 -132v-21zM165 694h-42
c16 70 37 96 77 96c21 0 34 -7 52 -26c19 -21 27 -27 36 -27c13 0 22 15 28 48h41c-13 -72 -30 -96 -69 -96c-23 0 -36 7 -54 28c-18 20 -25 25 -34 25c-15 0 -29 -19 -35 -48zM242 611l-58 -57h-75l109 106h47l109 -106h-74z" />
    <glyph glyph-name="uni1EC6" unicode="&#x1ec6;" horiz-adv-x="490" 
d="M88 0v714h353v-66h-275v-254h234v-66h-234v-262h277v-66h-355zM264 876l-56 -81h-76l107 132h50l107 -132h-76zM234 -193v102h73v-102h-73z" />
    <glyph glyph-name="uni1EC7" unicode="&#x1ec7;" horiz-adv-x="466" 
d="M137 237v-42c0 -96 35 -141 107 -141c54 0 81 22 93 75l65 -14c-15 -86 -65 -124 -161 -124c-123 0 -179 68 -179 219v80c0 153 54 221 174 221c121 0 174 -67 174 -221v-53h-273zM137 295h201v21c0 89 -32 132 -100 132s-101 -43 -101 -132v-21zM239 668l-55 -81h-77
l107 131h50l108 -131h-77zM196 -193v102h73v-102h-73z" />
    <glyph glyph-name="uni1EC8" unicode="&#x1ec8;" horiz-adv-x="253" 
d="M88 0v714h78v-714h-78zM158 779h-55c0 39 2 46 18 69c17 26 19 30 19 41c0 16 -11 24 -31 24c-14 0 -27 -4 -47 -13l-15 46c30 11 48 15 73 15c53 0 83 -25 83 -68c0 -21 -5 -32 -28 -61c-16 -21 -17 -25 -17 -53z" />
    <glyph glyph-name="uni1EC9" unicode="&#x1ec9;" horiz-adv-x="224" 
d="M74 0v502h75v-502h-75zM143 575h-55c0 39 2 46 18 69c17 26 19 31 19 41c0 16 -11 24 -31 24c-14 0 -26 -3 -47 -13l-15 47c30 11 48 14 74 14c52 0 82 -24 82 -68c0 -21 -5 -31 -28 -61c-16 -20 -17 -25 -17 -53z" />
    <glyph glyph-name="uni1ECA" unicode="&#x1eca;" horiz-adv-x="253" 
d="M88 0v714h78v-714h-78zM90 -193v102h73v-102h-73z" />
    <glyph glyph-name="uni1ECB" unicode="&#x1ecb;" horiz-adv-x="224" 
d="M75 613v104h75v-104h-75zM75 0v502h75v-502h-75zM76 -193v102h73v-102h-73z" />
    <glyph glyph-name="uni1ECC" unicode="&#x1ecc;" horiz-adv-x="572" 
d="M73 237v240c0 87 14 139 48 179c38 46 90 67 165 67c80 0 136 -25 173 -78c28 -39 39 -88 39 -168v-240c0 -87 -14 -139 -48 -179c-38 -46 -90 -67 -164 -67c-81 0 -137 25 -174 78c-27 39 -39 89 -39 168zM420 245v224c0 131 -41 189 -135 189c-93 0 -134 -58 -134 -189
v-224c0 -131 41 -189 134 -189c94 0 135 58 135 189zM249 -193v102h73v-102h-73z" />
    <glyph glyph-name="uni1ECD" unicode="&#x1ecd;" horiz-adv-x="476" 
d="M62 197v108c0 143 54 206 177 206c122 0 176 -63 176 -206v-108c0 -143 -54 -206 -176 -206c-123 0 -177 63 -177 206zM340 197v109c0 99 -30 142 -102 142c-70 0 -101 -43 -101 -142v-109c0 -100 31 -143 101 -143c71 0 102 43 102 143zM201 -193v102h73v-102h-73z" />
    <glyph glyph-name="uni1ECE" unicode="&#x1ece;" horiz-adv-x="572" 
d="M73 237v240c0 87 14 139 48 179c38 46 90 67 165 67c80 0 136 -25 173 -78c28 -39 39 -88 39 -168v-240c0 -87 -14 -139 -48 -179c-38 -46 -90 -67 -164 -67c-81 0 -137 25 -174 78c-27 39 -39 89 -39 168zM420 245v224c0 131 -41 189 -135 189c-93 0 -134 -58 -134 -189
v-224c0 -131 41 -189 134 -189c94 0 135 58 135 189zM316 779h-54c0 38 2 46 17 69c18 26 20 30 20 41c0 16 -11 24 -31 24c-14 0 -27 -3 -47 -13l-15 46c30 11 48 15 73 15c53 0 83 -25 83 -68c0 -21 -5 -31 -28 -61c-16 -21 -17 -25 -18 -53z" />
    <glyph glyph-name="uni1ECF" unicode="&#x1ecf;" horiz-adv-x="476" 
d="M62 197v108c0 143 54 206 177 206c122 0 176 -63 176 -206v-108c0 -143 -54 -206 -176 -206c-123 0 -177 63 -177 206zM340 197v109c0 99 -30 142 -102 142c-70 0 -101 -43 -101 -142v-109c0 -100 31 -143 101 -143c71 0 102 43 102 143zM269 575h-54c0 39 2 46 17 69
c18 27 20 30 20 41c0 16 -11 24 -31 24c-14 0 -26 -3 -48 -13l-14 47c30 11 48 14 73 14c53 0 83 -24 83 -68c0 -21 -5 -31 -28 -61c-16 -20 -18 -25 -18 -53z" />
    <glyph glyph-name="uni1ED0" unicode="&#x1ed0;" horiz-adv-x="572" 
d="M73 237v240c0 87 14 139 48 179c38 46 90 67 165 67c80 0 136 -25 173 -78c28 -39 39 -88 39 -168v-240c0 -87 -14 -139 -48 -179c-38 -46 -90 -67 -164 -67c-81 0 -137 25 -174 78c-27 39 -39 89 -39 168zM420 245v224c0 131 -41 189 -135 189c-93 0 -134 -58 -134 -189
v-224c0 -131 41 -189 134 -189c94 0 135 58 135 189zM252 895l50 113h70l-76 -113h-44zM286 819l-59 -57h-74l109 106h47l109 -106h-74z" />
    <glyph glyph-name="uni1ED1" unicode="&#x1ed1;" horiz-adv-x="476" 
d="M62 197v108c0 143 54 206 177 206c122 0 176 -63 176 -206v-108c0 -143 -54 -206 -176 -206c-123 0 -177 63 -177 206zM340 197v109c0 99 -30 142 -102 142c-70 0 -101 -43 -101 -142v-109c0 -100 31 -143 101 -143c71 0 102 43 102 143zM205 686l50 114h69l-75 -114h-44
zM238 611l-58 -57h-74l109 106h47l109 -106h-74z" />
    <glyph glyph-name="uni1ED2" unicode="&#x1ed2;" horiz-adv-x="572" 
d="M73 237v240c0 87 14 139 48 179c38 46 90 67 165 67c80 0 136 -25 173 -78c28 -39 39 -88 39 -168v-240c0 -87 -14 -139 -48 -179c-38 -46 -90 -67 -164 -67c-81 0 -137 25 -174 78c-27 39 -39 89 -39 168zM420 245v224c0 131 -41 189 -135 189c-93 0 -134 -58 -134 -189
v-224c0 -131 41 -189 134 -189c94 0 135 58 135 189zM318 895h-44l-76 113h70zM286 819l-59 -57h-74l109 106h47l109 -106h-74z" />
    <glyph glyph-name="uni1ED3" unicode="&#x1ed3;" horiz-adv-x="476" 
d="M62 197v108c0 143 54 206 177 206c122 0 176 -63 176 -206v-108c0 -143 -54 -206 -176 -206c-123 0 -177 63 -177 206zM340 197v109c0 99 -30 142 -102 142c-70 0 -101 -43 -101 -142v-109c0 -100 31 -143 101 -143c71 0 102 43 102 143zM270 686h-44l-75 114h69z
M238 611l-58 -57h-74l109 106h47l109 -106h-75z" />
    <glyph glyph-name="uni1ED4" unicode="&#x1ed4;" horiz-adv-x="572" 
d="M73 237v240c0 87 14 139 48 179c38 46 90 67 165 67c80 0 136 -25 173 -78c28 -39 39 -88 39 -168v-240c0 -87 -14 -139 -48 -179c-38 -46 -90 -67 -164 -67c-81 0 -137 25 -174 78c-27 39 -39 89 -39 168zM420 245v224c0 131 -41 189 -135 189c-93 0 -134 -58 -134 -189
v-224c0 -131 41 -189 134 -189c94 0 135 58 135 189zM309 880h-48c1 27 2 32 14 49c13 17 15 22 15 31s-8 14 -23 14c-11 0 -21 -2 -37 -9l-12 37c21 8 36 11 59 11c42 0 67 -19 67 -51c0 -15 -4 -23 -22 -45c-11 -14 -12 -17 -13 -37zM283 818l-58 -56h-74l109 101h47
l109 -101h-74z" />
    <glyph glyph-name="uni1ED5" unicode="&#x1ed5;" horiz-adv-x="476" 
d="M62 197v108c0 143 54 206 177 206c122 0 176 -63 176 -206v-108c0 -143 -54 -206 -176 -206c-123 0 -177 63 -177 206zM340 197v109c0 99 -30 142 -102 142c-70 0 -101 -43 -101 -142v-109c0 -100 31 -143 101 -143c71 0 102 43 102 143zM262 672h-48v6c1 21 3 27 14 43
c12 17 15 22 15 31s-8 14 -24 14c-10 0 -19 -2 -36 -9l-12 36c22 9 37 12 59 12c42 0 67 -19 67 -51c0 -15 -4 -23 -22 -45c-12 -14 -13 -17 -13 -37zM236 610l-58 -56h-74l109 101h46l109 -101h-74z" />
    <glyph glyph-name="uni1ED6" unicode="&#x1ed6;" horiz-adv-x="572" 
d="M73 237v240c0 87 14 139 48 179c38 46 90 67 165 67c80 0 136 -25 173 -78c28 -39 39 -88 39 -168v-240c0 -87 -14 -139 -48 -179c-38 -46 -90 -67 -164 -67c-81 0 -137 25 -174 78c-27 39 -39 89 -39 168zM420 245v224c0 131 -41 189 -135 189c-93 0 -134 -58 -134 -189
v-224c0 -131 41 -189 134 -189c94 0 135 58 135 189zM212 902h-41c15 70 36 96 76 96c21 0 34 -7 53 -26c19 -21 27 -27 36 -27c12 0 21 15 27 48h42c-14 -72 -31 -96 -70 -96c-22 0 -35 6 -54 28c-18 20 -25 25 -34 25c-14 0 -28 -19 -35 -48zM289 819l-58 -57h-74l109 106
h46l109 -106h-74z" />
    <glyph glyph-name="uni1ED7" unicode="&#x1ed7;" horiz-adv-x="476" 
d="M62 197v108c0 143 54 206 177 206c122 0 176 -63 176 -206v-108c0 -143 -54 -206 -176 -206c-123 0 -177 63 -177 206zM340 197v109c0 99 -30 142 -102 142c-70 0 -101 -43 -101 -142v-109c0 -100 31 -143 101 -143c71 0 102 43 102 143zM165 694h-42c16 70 37 96 77 96
c21 0 34 -7 52 -26c19 -21 27 -27 36 -27c13 0 22 15 28 48h42c-14 -72 -31 -96 -70 -96c-23 0 -36 7 -54 28c-18 20 -25 25 -34 25c-15 0 -28 -19 -35 -48zM242 611l-58 -57h-74l109 106h46l109 -106h-74z" />
    <glyph glyph-name="uni1ED8" unicode="&#x1ed8;" horiz-adv-x="572" 
d="M73 237v240c0 87 14 139 48 179c38 46 90 67 165 67c80 0 136 -25 173 -78c28 -39 39 -88 39 -168v-240c0 -87 -14 -139 -48 -179c-38 -46 -90 -67 -164 -67c-81 0 -137 25 -174 78c-27 39 -39 89 -39 168zM420 245v224c0 131 -41 189 -135 189c-93 0 -134 -58 -134 -189
v-224c0 -131 41 -189 134 -189c94 0 135 58 135 189zM286 876l-56 -81h-77l108 132h49l108 -132h-77zM249 -193v102h73v-102h-73z" />
    <glyph glyph-name="uni1ED9" unicode="&#x1ed9;" horiz-adv-x="476" 
d="M62 197v108c0 143 54 206 177 206c122 0 176 -63 176 -206v-108c0 -143 -54 -206 -176 -206c-123 0 -177 63 -177 206zM340 197v109c0 99 -30 142 -102 142c-70 0 -101 -43 -101 -142v-109c0 -100 31 -143 101 -143c71 0 102 43 102 143zM238 668l-55 -81h-77l107 131h50
l108 -131h-77zM201 -193v102h73v-102h-73z" />
    <glyph glyph-name="uni1EDA" unicode="&#x1eda;" horiz-adv-x="599" 
d="M531 724h66c5 -15 6 -24 6 -38c0 -44 -18 -83 -53 -112c-15 -13 -24 -19 -56 -40c3 -20 4 -34 4 -57v-240c0 -87 -14 -139 -48 -179c-38 -46 -90 -67 -164 -67c-81 0 -137 25 -174 78c-27 39 -39 89 -39 168v240c0 87 14 139 48 179c38 46 90 67 165 67
c107 0 169 -43 200 -139c43 33 56 55 56 92c0 17 -3 28 -11 48zM420 245v224c0 130 -41 188 -135 188c-93 0 -134 -58 -134 -188v-224c0 -131 41 -189 134 -189c94 0 135 58 135 189zM262 790l64 141h88l-96 -141h-56z" />
    <glyph glyph-name="uni1EDB" unicode="&#x1edb;" horiz-adv-x="502" 
d="M444 511h66c5 -18 6 -28 6 -42c0 -57 -31 -101 -103 -145c2 -13 2 -22 2 -34v-93c0 -143 -54 -206 -176 -206c-123 0 -177 63 -177 206v108c0 143 55 207 177 207c99 0 152 -43 170 -136c38 38 46 52 46 88c0 17 -2 26 -11 47zM340 197v109c0 100 -30 143 -102 143
c-70 0 -101 -43 -101 -143v-109c0 -100 31 -143 101 -143c71 0 102 43 102 143zM212 582l65 141h88l-96 -141h-57z" />
    <glyph glyph-name="uni1EDC" unicode="&#x1edc;" horiz-adv-x="599" 
d="M531 724h66c5 -15 6 -24 6 -38c0 -44 -18 -83 -53 -112c-15 -13 -24 -19 -56 -40c3 -20 4 -34 4 -57v-240c0 -87 -14 -139 -48 -179c-38 -46 -90 -67 -164 -67c-81 0 -137 25 -174 78c-27 39 -39 89 -39 168v240c0 87 14 139 48 179c38 46 90 67 165 67
c107 0 169 -43 200 -139c43 33 56 55 56 92c0 17 -3 28 -11 48zM420 245v224c0 130 -41 188 -135 188c-93 0 -134 -58 -134 -188v-224c0 -131 41 -189 134 -189c94 0 135 58 135 189zM348 790h-56l-97 141h89z" />
    <glyph glyph-name="uni1EDD" unicode="&#x1edd;" horiz-adv-x="502" 
d="M444 511h66c5 -18 6 -28 6 -42c0 -57 -31 -101 -103 -145c2 -13 2 -22 2 -34v-93c0 -143 -54 -206 -176 -206c-123 0 -177 63 -177 206v108c0 143 55 207 177 207c99 0 152 -43 170 -136c38 38 46 52 46 88c0 17 -2 26 -11 47zM340 197v109c0 100 -30 143 -102 143
c-70 0 -101 -43 -101 -143v-109c0 -100 31 -143 101 -143c71 0 102 43 102 143zM299 582h-56l-97 141h89z" />
    <glyph glyph-name="uni1EDE" unicode="&#x1ede;" horiz-adv-x="599" 
d="M531 724h66c5 -15 6 -24 6 -38c0 -44 -18 -83 -53 -112c-15 -13 -24 -19 -56 -40c3 -20 4 -34 4 -57v-240c0 -87 -14 -139 -48 -179c-38 -46 -90 -67 -164 -67c-81 0 -137 25 -174 78c-27 39 -39 89 -39 168v240c0 87 14 139 48 179c38 46 90 67 165 67
c107 0 169 -43 200 -139c43 33 56 55 56 92c0 17 -3 28 -11 48zM420 245v224c0 130 -41 188 -135 188c-93 0 -134 -58 -134 -188v-224c0 -131 41 -189 134 -189c94 0 135 58 135 189zM327 779h-54c0 39 2 46 17 69c18 26 20 30 20 41c0 16 -11 24 -31 24
c-14 0 -27 -3 -48 -13l-14 46c30 11 48 15 73 15c53 0 83 -25 83 -68c0 -21 -5 -31 -28 -61c-16 -21 -18 -25 -18 -53z" />
    <glyph glyph-name="uni1EDF" unicode="&#x1edf;" horiz-adv-x="502" 
d="M444 511h66c5 -18 6 -28 6 -42c0 -57 -31 -101 -103 -145c2 -13 2 -22 2 -34v-93c0 -143 -54 -206 -176 -206c-123 0 -177 63 -177 206v108c0 143 55 207 177 207c99 0 152 -43 170 -136c38 38 46 52 46 88c0 17 -2 26 -11 47zM340 197v109c0 100 -30 143 -102 143
c-70 0 -101 -43 -101 -143v-109c0 -100 31 -143 101 -143c71 0 102 43 102 143zM268 575h-54c0 39 2 46 17 69c18 26 20 31 20 41c0 16 -11 24 -31 24c-14 0 -26 -3 -48 -13l-14 47c30 11 47 14 73 14c53 0 83 -24 83 -68c0 -21 -5 -31 -28 -61c-16 -20 -18 -25 -18 -53z
" />
    <glyph glyph-name="uni1EE0" unicode="&#x1ee0;" horiz-adv-x="599" 
d="M531 724h66c5 -15 6 -24 6 -38c0 -44 -18 -83 -53 -112c-15 -13 -24 -19 -56 -40c3 -20 4 -34 4 -57v-240c0 -87 -14 -139 -48 -179c-38 -46 -90 -67 -164 -67c-81 0 -137 25 -174 78c-27 39 -39 89 -39 168v240c0 87 14 139 48 179c38 46 90 67 165 67
c107 0 169 -43 200 -139c43 33 56 55 56 92c0 17 -3 28 -11 48zM420 245v224c0 130 -41 188 -135 188c-93 0 -134 -58 -134 -188v-224c0 -131 41 -189 134 -189c94 0 135 58 135 189zM196 806h-47c17 83 38 111 84 111c24 0 42 -9 63 -32c23 -25 32 -32 44 -32
c16 0 26 17 33 56h48c-7 -37 -12 -54 -19 -69c-13 -28 -34 -42 -63 -42c-26 0 -44 9 -65 33c-23 26 -30 31 -41 31c-16 0 -30 -21 -37 -56z" />
    <glyph glyph-name="uni1EE1" unicode="&#x1ee1;" horiz-adv-x="502" 
d="M444 511h66c5 -18 6 -28 6 -42c0 -57 -31 -101 -103 -145c2 -13 2 -22 2 -34v-93c0 -143 -54 -206 -176 -206c-123 0 -177 63 -177 206v108c0 143 55 207 177 207c99 0 152 -43 170 -136c38 38 46 52 46 88c0 17 -2 26 -11 47zM340 197v109c0 100 -30 143 -102 143
c-70 0 -101 -43 -101 -143v-109c0 -100 31 -143 101 -143c71 0 102 43 102 143zM154 598h-47c17 83 38 110 84 110c24 0 41 -9 62 -31c24 -26 33 -32 44 -32c16 0 26 17 34 56h47c-7 -37 -11 -54 -18 -69c-13 -28 -35 -42 -64 -42c-25 0 -44 9 -65 33c-23 26 -29 31 -40 31
c-17 0 -30 -21 -37 -56z" />
    <glyph glyph-name="uni1EE2" unicode="&#x1ee2;" horiz-adv-x="599" 
d="M531 724h66c5 -15 6 -24 6 -38c0 -44 -18 -83 -53 -112c-15 -13 -24 -19 -56 -40c3 -20 4 -34 4 -57v-240c0 -87 -14 -139 -48 -179c-38 -46 -90 -67 -164 -67c-81 0 -137 25 -174 78c-27 39 -39 89 -39 168v240c0 87 14 139 48 179c38 46 90 67 165 67
c107 0 169 -43 200 -139c43 33 56 55 56 92c0 17 -3 28 -11 48zM420 245v224c0 130 -41 188 -135 188c-93 0 -134 -58 -134 -188v-224c0 -131 41 -189 134 -189c94 0 135 58 135 189zM265 -193v102h73v-102h-73z" />
    <glyph glyph-name="uni1EE3" unicode="&#x1ee3;" horiz-adv-x="502" 
d="M444 511h66c5 -18 6 -28 6 -42c0 -57 -31 -101 -103 -145c2 -13 2 -22 2 -34v-93c0 -143 -54 -206 -176 -206c-123 0 -177 63 -177 206v108c0 143 55 207 177 207c99 0 152 -43 170 -136c38 38 46 52 46 88c0 17 -2 26 -11 47zM340 197v109c0 100 -30 143 -102 143
c-70 0 -101 -43 -101 -143v-109c0 -100 31 -143 101 -143c71 0 102 43 102 143zM209 -193v102h73v-102h-73z" />
    <glyph glyph-name="uni1EE4" unicode="&#x1ee4;" horiz-adv-x="584" 
d="M85 714h78v-485c0 -62 5 -93 21 -118c22 -38 54 -55 104 -55c60 0 94 18 116 63c12 24 16 54 16 110v485h78v-485c0 -89 -8 -127 -36 -165c-38 -51 -89 -73 -171 -73c-86 0 -142 26 -177 84c-22 35 -29 73 -29 154v485zM255 -193v102h73v-102h-73z" />
    <glyph glyph-name="uni1EE5" unicode="&#x1ee5;" horiz-adv-x="473" 
d="M70 502h75v-299c0 -107 24 -147 86 -147c66 0 93 49 93 171v275h75v-502h-58l-5 49c-30 -42 -62 -58 -117 -58c-69 0 -116 30 -136 87c-9 25 -13 63 -13 118v306zM199 -193v102h73v-102h-73z" />
    <glyph glyph-name="uni1EE6" unicode="&#x1ee6;" horiz-adv-x="584" 
d="M85 714h78v-485c0 -62 5 -93 21 -118c22 -38 54 -55 104 -55c60 0 94 18 116 63c12 24 16 54 16 110v485h78v-485c0 -89 -8 -127 -36 -165c-38 -51 -89 -73 -171 -73c-86 0 -142 26 -177 84c-22 35 -29 73 -29 154v485zM322 779h-54c0 39 2 46 18 69c17 26 19 30 19 41
c0 16 -11 24 -31 24c-14 0 -27 -4 -47 -13l-15 46c30 11 48 15 73 15c53 0 83 -25 83 -68c0 -21 -5 -32 -28 -61c-16 -21 -17 -25 -18 -53z" />
    <glyph glyph-name="uni1EE7" unicode="&#x1ee7;" horiz-adv-x="473" 
d="M70 502h75v-299c0 -107 24 -147 86 -147c66 0 93 49 93 171v275h75v-502h-58l-5 49c-30 -42 -62 -58 -117 -58c-69 0 -116 30 -136 87c-9 25 -13 63 -13 118v306zM267 575h-54c0 39 2 46 17 69c18 27 20 30 20 41c0 16 -11 24 -31 24c-14 0 -26 -3 -48 -13l-14 47
c30 11 48 14 73 14c53 0 83 -24 83 -68c0 -21 -5 -31 -28 -61c-16 -20 -18 -25 -18 -53z" />
    <glyph glyph-name="uni1EE8" unicode="&#x1ee8;" horiz-adv-x="625" 
d="M85 714h78v-485c0 -62 5 -93 21 -118c22 -38 54 -55 104 -55c60 0 94 18 116 63c12 24 16 54 16 110v485h78v-148c61 35 82 63 82 109c0 19 -3 31 -11 49h67c4 -16 5 -25 5 -40c0 -48 -20 -86 -66 -123c-17 -13 -26 -19 -77 -48v-284c0 -89 -8 -127 -36 -165
c-38 -51 -89 -73 -171 -73c-86 0 -142 26 -177 84c-22 35 -29 73 -29 154v485zM273 790l65 141h88l-96 -141h-57z" />
    <glyph glyph-name="uni1EE9" unicode="&#x1ee9;" horiz-adv-x="519" 
d="M70 502h75v-299c0 -107 24 -147 86 -147c66 0 93 49 93 171v275h75v-150c62 37 82 63 82 111c0 18 -2 28 -11 48h67c4 -17 5 -26 5 -40c0 -49 -20 -85 -66 -123c-18 -14 -30 -22 -77 -49v-299h-58l-5 49c-30 -42 -62 -58 -117 -58c-69 0 -116 30 -136 87
c-9 25 -13 63 -13 118v306zM216 582l64 141h89l-96 -141h-57z" />
    <glyph glyph-name="uni1EEA" unicode="&#x1eea;" horiz-adv-x="625" 
d="M85 714h78v-485c0 -62 5 -93 21 -118c22 -38 54 -55 104 -55c60 0 94 18 116 63c12 24 16 54 16 110v485h78v-148c61 35 82 63 82 109c0 19 -3 31 -11 49h67c4 -16 5 -25 5 -40c0 -48 -20 -86 -66 -123c-17 -13 -26 -19 -77 -48v-284c0 -89 -8 -127 -36 -165
c-38 -51 -89 -73 -171 -73c-86 0 -142 26 -177 84c-22 35 -29 73 -29 154v485zM330 790h-56l-97 141h89z" />
    <glyph glyph-name="uni1EEB" unicode="&#x1eeb;" horiz-adv-x="519" 
d="M70 502h75v-299c0 -107 24 -147 86 -147c66 0 93 49 93 171v275h75v-150c62 37 82 63 82 111c0 18 -2 28 -11 48h67c4 -17 5 -26 5 -40c0 -49 -20 -85 -66 -123c-18 -14 -30 -22 -77 -49v-299h-58l-5 49c-30 -42 -62 -58 -117 -58c-69 0 -116 30 -136 87
c-9 25 -13 63 -13 118v306zM276 582h-56l-97 141h89z" />
    <glyph glyph-name="uni1EEC" unicode="&#x1eec;" horiz-adv-x="625" 
d="M85 714h78v-485c0 -62 5 -93 21 -118c22 -38 54 -55 104 -55c60 0 94 18 116 63c12 24 16 54 16 110v485h78v-148c61 35 82 63 82 109c0 19 -3 31 -11 49h67c4 -16 5 -25 5 -40c0 -48 -20 -86 -66 -123c-17 -13 -26 -19 -77 -48v-284c0 -89 -8 -127 -36 -165
c-38 -51 -89 -73 -171 -73c-86 0 -142 26 -177 84c-22 35 -29 73 -29 154v485zM322 779h-54c0 39 2 46 18 69c17 26 19 30 19 41c0 16 -11 24 -31 24c-14 0 -27 -4 -47 -13l-15 46c30 11 48 15 73 15c53 0 83 -25 83 -68c0 -21 -5 -32 -28 -61c-16 -21 -17 -25 -18 -53z" />
    <glyph glyph-name="uni1EED" unicode="&#x1eed;" horiz-adv-x="519" 
d="M70 502h75v-299c0 -107 24 -147 86 -147c66 0 93 49 93 171v275h75v-150c62 37 82 63 82 111c0 18 -2 28 -11 48h67c4 -17 5 -26 5 -40c0 -49 -20 -85 -66 -123c-18 -14 -30 -22 -77 -49v-299h-58l-5 49c-30 -42 -62 -58 -117 -58c-69 0 -116 30 -136 87
c-9 25 -13 63 -13 118v306zM265 575h-54c0 39 2 46 17 69c18 26 20 30 20 41c0 16 -11 24 -31 24c-14 0 -26 -3 -48 -13l-14 47c30 11 48 14 73 14c53 0 83 -24 83 -68c0 -21 -5 -31 -28 -61c-16 -21 -18 -25 -18 -53z" />
    <glyph glyph-name="uni1EEE" unicode="&#x1eee;" horiz-adv-x="625" 
d="M85 714h78v-485c0 -62 5 -93 21 -118c22 -38 54 -55 104 -55c60 0 94 18 116 63c12 24 16 54 16 110v485h78v-148c61 35 82 63 82 109c0 19 -3 31 -11 49h67c4 -16 5 -25 5 -40c0 -48 -20 -86 -66 -123c-17 -13 -26 -19 -77 -48v-284c0 -89 -8 -127 -36 -165
c-38 -51 -89 -73 -171 -73c-86 0 -142 26 -177 84c-22 35 -29 73 -29 154v485zM198 806h-47c17 83 38 111 84 111c24 0 42 -9 63 -32c23 -25 32 -32 44 -32c16 0 26 17 33 56h48c-7 -37 -12 -54 -19 -69c-13 -28 -34 -42 -63 -42c-26 0 -44 9 -65 33c-23 26 -30 31 -41 31
c-16 0 -30 -21 -37 -56z" />
    <glyph glyph-name="uni1EEF" unicode="&#x1eef;" horiz-adv-x="519" 
d="M70 502h75v-299c0 -107 24 -147 86 -147c66 0 93 49 93 171v275h75v-150c62 37 82 63 82 111c0 18 -2 28 -11 48h67c4 -17 5 -26 5 -40c0 -49 -20 -85 -66 -123c-18 -14 -30 -22 -77 -49v-299h-58l-5 49c-30 -42 -62 -58 -117 -58c-69 0 -116 30 -136 87
c-9 25 -13 63 -13 118v306zM148 598h-47c17 83 38 110 84 110c24 0 41 -9 62 -31c24 -26 33 -32 44 -32c16 0 26 17 34 56h47c-7 -37 -11 -54 -18 -69c-13 -28 -35 -42 -64 -42c-25 0 -44 9 -65 33c-23 26 -29 31 -40 31c-17 0 -30 -21 -37 -56z" />
    <glyph glyph-name="uni1EF0" unicode="&#x1ef0;" horiz-adv-x="625" 
d="M85 714h78v-485c0 -62 5 -93 21 -118c22 -38 54 -55 104 -55c60 0 94 18 116 63c12 24 16 54 16 110v485h78v-148c61 35 82 63 82 109c0 19 -3 31 -11 49h67c4 -16 5 -25 5 -40c0 -48 -20 -86 -66 -123c-17 -13 -26 -19 -77 -48v-284c0 -89 -8 -127 -36 -165
c-38 -51 -89 -73 -171 -73c-86 0 -142 26 -177 84c-22 35 -29 73 -29 154v485zM267 -193v102h73v-102h-73z" />
    </font>
</defs>
</svg>
